%TF.GenerationSoftware,KiCad,Pcbnew,7.0.5-0*%
%TF.CreationDate,2023-07-14T22:27:31+02:00*%
%TF.ProjectId,MCU-Datalogger,4d43552d-4461-4746-916c-6f676765722e,V1.0*%
%TF.SameCoordinates,Original*%
%TF.FileFunction,Copper,L1,Top*%
%TF.FilePolarity,Positive*%
%FSLAX46Y46*%
G04 Gerber Fmt 4.6, Leading zero omitted, Abs format (unit mm)*
G04 Created by KiCad (PCBNEW 7.0.5-0) date 2023-07-14 22:27:31*
%MOMM*%
%LPD*%
G01*
G04 APERTURE LIST*
G04 Aperture macros list*
%AMRoundRect*
0 Rectangle with rounded corners*
0 $1 Rounding radius*
0 $2 $3 $4 $5 $6 $7 $8 $9 X,Y pos of 4 corners*
0 Add a 4 corners polygon primitive as box body*
4,1,4,$2,$3,$4,$5,$6,$7,$8,$9,$2,$3,0*
0 Add four circle primitives for the rounded corners*
1,1,$1+$1,$2,$3*
1,1,$1+$1,$4,$5*
1,1,$1+$1,$6,$7*
1,1,$1+$1,$8,$9*
0 Add four rect primitives between the rounded corners*
20,1,$1+$1,$2,$3,$4,$5,0*
20,1,$1+$1,$4,$5,$6,$7,0*
20,1,$1+$1,$6,$7,$8,$9,0*
20,1,$1+$1,$8,$9,$2,$3,0*%
G04 Aperture macros list end*
%TA.AperFunction,SMDPad,CuDef*%
%ADD10RoundRect,0.250000X0.262500X0.450000X-0.262500X0.450000X-0.262500X-0.450000X0.262500X-0.450000X0*%
%TD*%
%TA.AperFunction,ComponentPad*%
%ADD11R,1.700000X1.700000*%
%TD*%
%TA.AperFunction,ComponentPad*%
%ADD12O,1.700000X1.700000*%
%TD*%
%TA.AperFunction,SMDPad,CuDef*%
%ADD13RoundRect,0.250000X-0.262500X-0.450000X0.262500X-0.450000X0.262500X0.450000X-0.262500X0.450000X0*%
%TD*%
%TA.AperFunction,SMDPad,CuDef*%
%ADD14RoundRect,0.150000X-0.650000X-0.150000X0.650000X-0.150000X0.650000X0.150000X-0.650000X0.150000X0*%
%TD*%
%TA.AperFunction,SMDPad,CuDef*%
%ADD15RoundRect,0.243750X-0.243750X-0.456250X0.243750X-0.456250X0.243750X0.456250X-0.243750X0.456250X0*%
%TD*%
%TA.AperFunction,SMDPad,CuDef*%
%ADD16RoundRect,0.250000X0.250000X0.475000X-0.250000X0.475000X-0.250000X-0.475000X0.250000X-0.475000X0*%
%TD*%
%TA.AperFunction,SMDPad,CuDef*%
%ADD17RoundRect,0.250000X-0.250000X-0.475000X0.250000X-0.475000X0.250000X0.475000X-0.250000X0.475000X0*%
%TD*%
%TA.AperFunction,SMDPad,CuDef*%
%ADD18R,2.400000X3.500000*%
%TD*%
%TA.AperFunction,SMDPad,CuDef*%
%ADD19R,1.500000X0.550000*%
%TD*%
%TA.AperFunction,SMDPad,CuDef*%
%ADD20R,0.550000X1.500000*%
%TD*%
%TA.AperFunction,SMDPad,CuDef*%
%ADD21R,3.500000X2.400000*%
%TD*%
%TA.AperFunction,SMDPad,CuDef*%
%ADD22RoundRect,0.041300X-0.943700X-0.253700X0.943700X-0.253700X0.943700X0.253700X-0.943700X0.253700X0*%
%TD*%
%TA.AperFunction,ViaPad*%
%ADD23C,0.800000*%
%TD*%
%TA.AperFunction,Conductor*%
%ADD24C,0.250000*%
%TD*%
G04 APERTURE END LIST*
D10*
%TO.P,R3,1*%
%TO.N,/Vcc*%
X162480000Y-90170000D03*
%TO.P,R3,2*%
%TO.N,/SCK*%
X160655000Y-90170000D03*
%TD*%
D11*
%TO.P,BT1,1,+*%
%TO.N,/Vcc*%
X132080000Y-85085000D03*
D12*
%TO.P,BT1,2,-*%
%TO.N,GND*%
X132080000Y-87625000D03*
%TD*%
D13*
%TO.P,R6,1*%
%TO.N,/Vcc*%
X164822500Y-86360000D03*
%TO.P,R6,2*%
%TO.N,/RESET*%
X166647500Y-86360000D03*
%TD*%
D10*
%TO.P,R2,1*%
%TO.N,/Vcc*%
X142517500Y-99060000D03*
%TO.P,R2,2*%
%TO.N,Net-(U3-SQW{slash}~INT)*%
X140692500Y-99060000D03*
%TD*%
D14*
%TO.P,U2,1,A0*%
%TO.N,/Vcc*%
X136125400Y-78867400D03*
%TO.P,U2,2,A1*%
%TO.N,GND*%
X136125400Y-80137400D03*
%TO.P,U2,3,A2*%
%TO.N,/Vcc*%
X136125400Y-81407400D03*
%TO.P,U2,4,GND*%
%TO.N,GND*%
X136125400Y-82677400D03*
%TO.P,U2,5,SDA*%
%TO.N,/SDA*%
X143325400Y-82677400D03*
%TO.P,U2,6,SCL*%
%TO.N,/SCK*%
X143325400Y-81407400D03*
%TO.P,U2,7,WP*%
%TO.N,GND*%
X143325400Y-80137400D03*
%TO.P,U2,8,VCC*%
%TO.N,/Vcc*%
X143325400Y-78867400D03*
%TD*%
D12*
%TO.P,J2,4,Pin_4*%
%TO.N,/TX*%
X167640000Y-103505000D03*
%TO.P,J2,3,Pin_3*%
%TO.N,/RX*%
X165100000Y-103505000D03*
%TO.P,J2,2,Pin_2*%
%TO.N,/Vcc*%
X162560000Y-103505000D03*
D11*
%TO.P,J2,1,Pin_1*%
%TO.N,GND*%
X160020000Y-103505000D03*
%TD*%
D15*
%TO.P,D1,1,K*%
%TO.N,Net-(D1-K)*%
X160886300Y-78907400D03*
%TO.P,D1,2,A*%
%TO.N,/Vcc*%
X162761300Y-78907400D03*
%TD*%
D16*
%TO.P,C2,1*%
%TO.N,GND*%
X162517500Y-93980000D03*
%TO.P,C2,2*%
%TO.N,Net-(U4-PB6)*%
X160617500Y-93980000D03*
%TD*%
D12*
%TO.P,J1,4,Pin_4*%
%TO.N,/SCK*%
X173355000Y-99695000D03*
%TO.P,J1,3,Pin_3*%
%TO.N,/SDA*%
X173355000Y-97155000D03*
%TO.P,J1,2,Pin_2*%
%TO.N,/Vcc*%
X173355000Y-94615000D03*
D11*
%TO.P,J1,1,Pin_1*%
%TO.N,GND*%
X173355000Y-92075000D03*
%TD*%
D17*
%TO.P,C5,1*%
%TO.N,/Vcc*%
X155514000Y-78892400D03*
%TO.P,C5,2*%
%TO.N,GND*%
X157414000Y-78892400D03*
%TD*%
D11*
%TO.P,J3,1,Pin_1*%
%TO.N,/D2*%
X134620000Y-103632000D03*
D12*
%TO.P,J3,2,Pin_2*%
%TO.N,/D3*%
X137160000Y-103632000D03*
%TO.P,J3,3,Pin_3*%
%TO.N,/D4*%
X139700000Y-103632000D03*
%TO.P,J3,4,Pin_4*%
%TO.N,/D5*%
X142240000Y-103632000D03*
%TO.P,J3,5,Pin_5*%
%TO.N,/D6*%
X144780000Y-103632000D03*
%TO.P,J3,6,Pin_6*%
%TO.N,/D7*%
X147320000Y-103632000D03*
%TO.P,J3,7,Pin_7*%
%TO.N,/D8*%
X149860000Y-103632000D03*
%TO.P,J3,8,Pin_8*%
%TO.N,GND*%
X152400000Y-103632000D03*
%TO.P,J3,9,Pin_9*%
%TO.N,/Vcc*%
X154940000Y-103632000D03*
%TD*%
D13*
%TO.P,R1,1*%
%TO.N,/Vcc*%
X136882500Y-99060000D03*
%TO.P,R1,2*%
%TO.N,Net-(U3-~{INTA})*%
X138707500Y-99060000D03*
%TD*%
D18*
%TO.P,Y1,1,1*%
%TO.N,Net-(U3-X2)*%
X132080000Y-98485000D03*
%TO.P,Y1,2,2*%
%TO.N,Net-(U3-X1)*%
X132080000Y-93285000D03*
%TD*%
D15*
%TO.P,D2,2,A*%
%TO.N,/SCK*%
X166928800Y-78907400D03*
%TO.P,D2,1,K*%
%TO.N,Net-(D2-K)*%
X165053800Y-78907400D03*
%TD*%
D19*
%TO.P,U4,1,PD3*%
%TO.N,/D3*%
X147465000Y-84830000D03*
%TO.P,U4,2,PD4*%
%TO.N,/D4*%
X147465000Y-85630000D03*
%TO.P,U4,3,GND*%
%TO.N,GND*%
X147465000Y-86430000D03*
%TO.P,U4,4,VCC*%
%TO.N,/Vcc*%
X147465000Y-87230000D03*
%TO.P,U4,5,GND*%
%TO.N,GND*%
X147465000Y-88030000D03*
%TO.P,U4,6,VCC*%
%TO.N,unconnected-(U4-VCC-Pad6)*%
X147465000Y-88830000D03*
%TO.P,U4,7,PB6*%
%TO.N,Net-(U4-PB6)*%
X147465000Y-89630000D03*
%TO.P,U4,8,PB7*%
%TO.N,Net-(U4-PB7)*%
X147465000Y-90430000D03*
D20*
%TO.P,U4,9,PD5*%
%TO.N,/D5*%
X148965000Y-91930000D03*
%TO.P,U4,10,PD6*%
%TO.N,/D6*%
X149765000Y-91930000D03*
%TO.P,U4,11,PD7*%
%TO.N,/D7*%
X150565000Y-91930000D03*
%TO.P,U4,12,PB0*%
%TO.N,/D8*%
X151365000Y-91930000D03*
%TO.P,U4,13,PB1*%
%TO.N,unconnected-(U4-PB1-Pad13)*%
X152165000Y-91930000D03*
%TO.P,U4,14,PB2*%
%TO.N,unconnected-(U4-PB2-Pad14)*%
X152965000Y-91930000D03*
%TO.P,U4,15,PB3*%
%TO.N,/MOSI*%
X153765000Y-91930000D03*
%TO.P,U4,16,PB4*%
%TO.N,/MISO*%
X154565000Y-91930000D03*
D19*
%TO.P,U4,17,PB5*%
%TO.N,/SCK*%
X156065000Y-90430000D03*
%TO.P,U4,18,AVCC*%
%TO.N,/Vcc*%
X156065000Y-89630000D03*
%TO.P,U4,19,ADC6*%
%TO.N,unconnected-(U4-ADC6-Pad19)*%
X156065000Y-88830000D03*
%TO.P,U4,20,AREF*%
%TO.N,Net-(U4-AREF)*%
X156065000Y-88030000D03*
%TO.P,U4,21,GND*%
%TO.N,GND*%
X156065000Y-87230000D03*
%TO.P,U4,22,ADC7*%
%TO.N,unconnected-(U4-ADC7-Pad22)*%
X156065000Y-86430000D03*
%TO.P,U4,23,PC0*%
%TO.N,unconnected-(U4-PC0-Pad23)*%
X156065000Y-85630000D03*
%TO.P,U4,24,PC1*%
%TO.N,unconnected-(U4-PC1-Pad24)*%
X156065000Y-84830000D03*
D20*
%TO.P,U4,25,PC2*%
%TO.N,unconnected-(U4-PC2-Pad25)*%
X154565000Y-83330000D03*
%TO.P,U4,26,PC3*%
%TO.N,unconnected-(U4-PC3-Pad26)*%
X153765000Y-83330000D03*
%TO.P,U4,27,PC4*%
%TO.N,/SDA*%
X152965000Y-83330000D03*
%TO.P,U4,28,PC5*%
%TO.N,/SCK*%
X152165000Y-83330000D03*
%TO.P,U4,29,PC6/~{RESET}*%
%TO.N,/RESET*%
X151365000Y-83330000D03*
%TO.P,U4,30,PD0*%
%TO.N,/RX*%
X150565000Y-83330000D03*
%TO.P,U4,31,PD1*%
%TO.N,/TX*%
X149765000Y-83330000D03*
%TO.P,U4,32,PD2*%
%TO.N,/D2*%
X148965000Y-83330000D03*
%TD*%
D10*
%TO.P,R4,1*%
%TO.N,/Vcc*%
X162480000Y-86360000D03*
%TO.P,R4,2*%
%TO.N,/SDA*%
X160655000Y-86360000D03*
%TD*%
D14*
%TO.P,U1,1,A0*%
%TO.N,/Vcc*%
X136100000Y-85725000D03*
%TO.P,U1,2,A1*%
X136100000Y-86995000D03*
%TO.P,U1,3,A2*%
X136100000Y-88265000D03*
%TO.P,U1,4,GND*%
%TO.N,GND*%
X136100000Y-89535000D03*
%TO.P,U1,5,SDA*%
%TO.N,/SDA*%
X143300000Y-89535000D03*
%TO.P,U1,6,SCL*%
%TO.N,/SCK*%
X143300000Y-88265000D03*
%TO.P,U1,7,WP*%
%TO.N,GND*%
X143300000Y-86995000D03*
%TO.P,U1,8,VCC*%
%TO.N,/Vcc*%
X143300000Y-85725000D03*
%TD*%
D16*
%TO.P,C1,1*%
%TO.N,GND*%
X148574800Y-78892400D03*
%TO.P,C1,2*%
%TO.N,/Vcc*%
X146674800Y-78892400D03*
%TD*%
D21*
%TO.P,Y2,1,1*%
%TO.N,Net-(U4-PB7)*%
X154365000Y-96520000D03*
%TO.P,Y2,2,2*%
%TO.N,Net-(U4-PB6)*%
X149165000Y-96520000D03*
%TD*%
D22*
%TO.P,U3,1,X1*%
%TO.N,Net-(U3-X1)*%
X137225000Y-92710000D03*
%TO.P,U3,2,X2*%
%TO.N,Net-(U3-X2)*%
X137225000Y-93980000D03*
%TO.P,U3,3,~{INTA}*%
%TO.N,Net-(U3-~{INTA})*%
X137225000Y-95250000D03*
%TO.P,U3,4,GND*%
%TO.N,GND*%
X137225000Y-96520000D03*
%TO.P,U3,5,SDA*%
%TO.N,/SDA*%
X142175000Y-96520000D03*
%TO.P,U3,6,SCL*%
%TO.N,/SCK*%
X142175000Y-95250000D03*
%TO.P,U3,7,SQW/~INT*%
%TO.N,Net-(U3-SQW{slash}~INT)*%
X142175000Y-93980000D03*
%TO.P,U3,8,VCC*%
%TO.N,/Vcc*%
X142175000Y-92710000D03*
%TD*%
D13*
%TO.P,R7,1*%
%TO.N,Net-(D1-K)*%
X160655000Y-82550000D03*
%TO.P,R7,2*%
%TO.N,GND*%
X162480000Y-82550000D03*
%TD*%
D11*
%TO.P,J4,1,Pin_1*%
%TO.N,/MISO*%
X170810000Y-83200000D03*
D12*
%TO.P,J4,2,Pin_2*%
%TO.N,/Vcc*%
X173350000Y-83200000D03*
%TO.P,J4,3,Pin_3*%
%TO.N,/SCK*%
X170810000Y-85740000D03*
%TO.P,J4,4,Pin_4*%
%TO.N,/MOSI*%
X173350000Y-85740000D03*
%TO.P,J4,5,Pin_5*%
%TO.N,/RESET*%
X170810000Y-88280000D03*
%TO.P,J4,6,Pin_6*%
%TO.N,GND*%
X173350000Y-88280000D03*
%TD*%
D10*
%TO.P,R5,1*%
%TO.N,GND*%
X166647500Y-82550000D03*
%TO.P,R5,2*%
%TO.N,Net-(D2-K)*%
X164822500Y-82550000D03*
%TD*%
D17*
%TO.P,C3,1*%
%TO.N,GND*%
X150459400Y-78892400D03*
%TO.P,C3,2*%
%TO.N,Net-(U4-PB7)*%
X152359400Y-78892400D03*
%TD*%
D16*
%TO.P,C4,1*%
%TO.N,GND*%
X162517500Y-97790000D03*
%TO.P,C4,2*%
%TO.N,Net-(U4-AREF)*%
X160617500Y-97790000D03*
%TD*%
D23*
%TO.N,GND*%
X160477200Y-100685600D03*
X141422901Y-90377499D03*
%TO.N,/Vcc*%
X140004800Y-92710000D03*
X143154400Y-97485200D03*
X139750800Y-82042000D03*
X137871200Y-81026000D03*
%TO.N,GND*%
X157886400Y-95554800D03*
X156972000Y-98806000D03*
X167081200Y-84582000D03*
X149539099Y-90255499D03*
X154330400Y-86563200D03*
X145599500Y-90373200D03*
%TO.N,/Vcc*%
X154305000Y-78740000D03*
%TO.N,/SCK*%
X167640000Y-88900000D03*
%TO.N,/Vcc*%
X163195000Y-80010000D03*
X149199600Y-87174500D03*
X154484500Y-88949341D03*
%TO.N,Net-(U4-PB7)*%
X152400000Y-80555500D03*
X149098000Y-88754500D03*
%TO.N,/RESET*%
X151440500Y-85090000D03*
X159190201Y-84649799D03*
X161379500Y-85090000D03*
X156281901Y-82376499D03*
%TO.N,/D8*%
X151130000Y-93890500D03*
%TO.N,/D7*%
X149860000Y-93890500D03*
%TO.N,/D6*%
X147955000Y-93345000D03*
%TO.N,/D5*%
X148031200Y-92202000D03*
%TO.N,/D2*%
X149135500Y-85725000D03*
%TO.N,/SCK*%
X140335000Y-88900000D03*
X145680555Y-83401900D03*
%TO.N,/MISO*%
X156210000Y-91440000D03*
%TO.N,/Vcc*%
X157480000Y-88900000D03*
%TO.N,/TX*%
X150495500Y-87629500D03*
%TO.N,/RX*%
X151217282Y-88354500D03*
%TO.N,Net-(U4-AREF)*%
X153035500Y-88354000D03*
X159385000Y-97790000D03*
%TO.N,GND*%
X164033200Y-97028000D03*
%TO.N,/SDA*%
X160655000Y-88265000D03*
X168503600Y-94335600D03*
%TO.N,/Vcc*%
X163830000Y-88900000D03*
%TO.N,GND*%
X166370000Y-81280000D03*
X162560000Y-81280000D03*
X158902400Y-79095600D03*
X141274800Y-87630000D03*
X139065000Y-95885000D03*
%TD*%
D24*
%TO.N,/SDA*%
X168503600Y-94335600D02*
X169722800Y-94335600D01*
X169722800Y-94335600D02*
X172542200Y-97155000D01*
X172542200Y-97155000D02*
X173355000Y-97155000D01*
%TO.N,GND*%
X156972000Y-98806000D02*
X157886400Y-97891600D01*
X157886400Y-97891600D02*
X157886400Y-95554800D01*
X160477200Y-100685600D02*
X161747200Y-100685600D01*
X161747200Y-100685600D02*
X162661600Y-99771200D01*
X162661600Y-97934100D02*
X162517500Y-97790000D01*
X162661600Y-99771200D02*
X162661600Y-97934100D01*
X162517500Y-97790000D02*
X163271200Y-97790000D01*
X163271200Y-97790000D02*
X164033200Y-97028000D01*
X149398805Y-88030000D02*
X147465000Y-88030000D01*
X149539099Y-90255499D02*
X149539099Y-90104099D01*
X149823000Y-89820198D02*
X149823000Y-88454195D01*
X149539099Y-90104099D02*
X149823000Y-89820198D01*
X149823000Y-88454195D02*
X149398805Y-88030000D01*
%TO.N,Net-(U4-PB7)*%
X149098000Y-88754500D02*
X149098000Y-89672000D01*
X149098000Y-89672000D02*
X148340000Y-90430000D01*
X148340000Y-90430000D02*
X147465000Y-90430000D01*
%TO.N,GND*%
X141422901Y-90377499D02*
X140787194Y-90377499D01*
X140173295Y-89763600D02*
X139141200Y-89763600D01*
X140787194Y-90377499D02*
X140173295Y-89763600D01*
X139141200Y-89068495D02*
X140579695Y-87630000D01*
X140579695Y-87630000D02*
X141274800Y-87630000D01*
X139141200Y-89763600D02*
X139141200Y-89068495D01*
X147465000Y-86430000D02*
X146465000Y-86430000D01*
X145599500Y-89858500D02*
X145599500Y-90373200D01*
X146465000Y-86430000D02*
X146225000Y-86670000D01*
X146225000Y-86670000D02*
X146225000Y-89233000D01*
X146225000Y-89233000D02*
X145599500Y-89858500D01*
X141909800Y-86995000D02*
X143300000Y-86995000D01*
X141274800Y-87630000D02*
X141909800Y-86995000D01*
%TO.N,Net-(U4-PB6)*%
X146780000Y-94135000D02*
X146780000Y-91258604D01*
X146780000Y-91258604D02*
X146390000Y-90868604D01*
X149165000Y-96520000D02*
X146780000Y-94135000D01*
X146590000Y-89630000D02*
X147465000Y-89630000D01*
X146390000Y-90868604D02*
X146390000Y-89830000D01*
X146390000Y-89830000D02*
X146590000Y-89630000D01*
%TO.N,Net-(U4-PB7)*%
X147230000Y-91977895D02*
X147675600Y-91532295D01*
X152460000Y-94615000D02*
X148199695Y-94615000D01*
X154365000Y-96520000D02*
X152460000Y-94615000D01*
X148199695Y-94615000D02*
X147230000Y-93645305D01*
X147675600Y-91532295D02*
X147675600Y-90640600D01*
X147675600Y-90640600D02*
X147465000Y-90430000D01*
X147230000Y-93645305D02*
X147230000Y-91977895D01*
%TO.N,/D5*%
X148693000Y-92202000D02*
X148965000Y-91930000D01*
X148031200Y-92202000D02*
X148693000Y-92202000D01*
%TO.N,GND*%
X136125400Y-82677400D02*
X131546200Y-82677400D01*
X130556000Y-83667600D02*
X130556000Y-86101000D01*
X131546200Y-82677400D02*
X130556000Y-83667600D01*
X130556000Y-86101000D02*
X132080000Y-87625000D01*
%TO.N,/SCK*%
X160655000Y-90170000D02*
X162026600Y-91541600D01*
X162026600Y-91541600D02*
X164998400Y-91541600D01*
X164998400Y-91541600D02*
X167640000Y-88900000D01*
X166928800Y-78907400D02*
X168097200Y-80075800D01*
X168097200Y-80075800D02*
X168097200Y-83027200D01*
X168097200Y-83027200D02*
X170810000Y-85740000D01*
%TO.N,/SDA*%
X160655000Y-88265000D02*
X160655000Y-86360000D01*
%TO.N,/Vcc*%
X149199600Y-87174500D02*
X149144100Y-87230000D01*
X149144100Y-87230000D02*
X147465000Y-87230000D01*
%TO.N,/MOSI*%
X173350000Y-85740000D02*
X171985000Y-87105000D01*
X171985000Y-87105000D02*
X171985000Y-88766701D01*
X171985000Y-88766701D02*
X167940101Y-92811600D01*
X153765000Y-92805000D02*
X153765000Y-91930000D01*
X167940101Y-92811600D02*
X156108400Y-92811600D01*
X156108400Y-92811600D02*
X155575000Y-93345000D01*
X155575000Y-93345000D02*
X154305000Y-93345000D01*
X154305000Y-93345000D02*
X153765000Y-92805000D01*
%TO.N,/RESET*%
X156281901Y-82376499D02*
X157305103Y-82376499D01*
X157305103Y-82376499D02*
X159190201Y-84261597D01*
X159190201Y-84261597D02*
X159190201Y-84649799D01*
%TO.N,Net-(U3-~{INTA})*%
X138707500Y-99060000D02*
X137437500Y-97790000D01*
X135890000Y-97790000D02*
X135585200Y-97485200D01*
X137437500Y-97790000D02*
X135890000Y-97790000D01*
X135585200Y-97485200D02*
X135585200Y-95554800D01*
X135585200Y-95554800D02*
X135890000Y-95250000D01*
X135890000Y-95250000D02*
X137225000Y-95250000D01*
%TO.N,/Vcc*%
X153263600Y-105308400D02*
X133350000Y-105308400D01*
X135991600Y-99060000D02*
X136882500Y-99060000D01*
X133350000Y-105308400D02*
X132892800Y-104851200D01*
X132892800Y-102158800D02*
X135991600Y-99060000D01*
X154940000Y-103632000D02*
X153263600Y-105308400D01*
X132892800Y-104851200D02*
X132892800Y-102158800D01*
X142517500Y-99060000D02*
X142517500Y-100255700D01*
X142517500Y-100255700D02*
X142138400Y-100634800D01*
X142138400Y-100634800D02*
X138457300Y-100634800D01*
X138457300Y-100634800D02*
X136882500Y-99060000D01*
%TO.N,/D3*%
X137160000Y-103632000D02*
X137160000Y-102463600D01*
X145325000Y-85090000D02*
X145585000Y-84830000D01*
X137914800Y-101708800D02*
X142129804Y-101708800D01*
X137160000Y-102463600D02*
X137914800Y-101708800D01*
X142129804Y-101708800D02*
X144425000Y-99413604D01*
X144425000Y-99413604D02*
X144425000Y-89248147D01*
X144425000Y-89248147D02*
X145325000Y-88348147D01*
X145325000Y-88348147D02*
X145325000Y-85090000D01*
X145585000Y-84830000D02*
X147465000Y-84830000D01*
%TO.N,/D4*%
X139700000Y-103632000D02*
X139700000Y-102311200D01*
X145775000Y-88534543D02*
X145775000Y-86000000D01*
X144875000Y-99600000D02*
X144875000Y-89434543D01*
X139700000Y-102311200D02*
X139852400Y-102158800D01*
X139852400Y-102158800D02*
X142316200Y-102158800D01*
X142316200Y-102158800D02*
X144875000Y-99600000D01*
X144875000Y-89434543D02*
X145775000Y-88534543D01*
X145775000Y-86000000D02*
X146145000Y-85630000D01*
X146145000Y-85630000D02*
X147465000Y-85630000D01*
%TO.N,GND*%
X157617200Y-79095600D02*
X157414000Y-78892400D01*
X158902400Y-79095600D02*
X157617200Y-79095600D01*
%TO.N,Net-(U4-PB6)*%
X149165000Y-96520000D02*
X152517800Y-99872800D01*
X152517800Y-99872800D02*
X157886400Y-99872800D01*
X157886400Y-99872800D02*
X158660000Y-99099200D01*
X158660000Y-99099200D02*
X158660000Y-95937500D01*
X158660000Y-95937500D02*
X160617500Y-93980000D01*
%TO.N,GND*%
X173350000Y-88280000D02*
X173350000Y-92070000D01*
X173350000Y-92070000D02*
X173355000Y-92075000D01*
%TO.N,/SCK*%
X152165000Y-83330000D02*
X152165000Y-88508805D01*
X152165000Y-88508805D02*
X152905841Y-89249646D01*
X152905841Y-89249646D02*
X153759500Y-89249646D01*
X153759500Y-89249646D02*
X154939854Y-90430000D01*
X154939854Y-90430000D02*
X156065000Y-90430000D01*
%TO.N,Net-(U4-AREF)*%
X153035500Y-88354000D02*
X153359500Y-88030000D01*
X153359500Y-88030000D02*
X156065000Y-88030000D01*
%TO.N,/TX*%
X150495500Y-85806701D02*
X149765000Y-85076201D01*
X149765000Y-85076201D02*
X149765000Y-83330000D01*
X150495500Y-87629500D02*
X150495500Y-85806701D01*
%TO.N,/RX*%
X151220000Y-85894805D02*
X150565000Y-85239805D01*
X150565000Y-85239805D02*
X150565000Y-83330000D01*
X151217282Y-88354500D02*
X151220000Y-88351782D01*
X151220000Y-88351782D02*
X151220000Y-85894805D01*
%TO.N,GND*%
X166647500Y-84148300D02*
X167081200Y-84582000D01*
X166647500Y-82550000D02*
X166647500Y-84148300D01*
X154997200Y-87230000D02*
X154330400Y-86563200D01*
X156065000Y-87230000D02*
X154997200Y-87230000D01*
%TO.N,/SDA*%
X142175000Y-96520000D02*
X142876396Y-96520000D01*
X143300000Y-90417200D02*
X143300000Y-89535000D01*
X142876396Y-96520000D02*
X143960000Y-95436396D01*
X143960000Y-95436396D02*
X143960000Y-91077200D01*
X143960000Y-91077200D02*
X143300000Y-90417200D01*
%TO.N,/Vcc*%
X154457400Y-78892400D02*
X154305000Y-78740000D01*
X155514000Y-78892400D02*
X154457400Y-78892400D01*
X162761300Y-79576300D02*
X163195000Y-80010000D01*
X162761300Y-78907400D02*
X162761300Y-79576300D01*
%TO.N,/RESET*%
X161379500Y-85090000D02*
X165377500Y-85090000D01*
X165377500Y-85090000D02*
X166647500Y-86360000D01*
%TO.N,/Vcc*%
X155165159Y-89630000D02*
X156065000Y-89630000D01*
X154484500Y-88949341D02*
X155165159Y-89630000D01*
%TO.N,/D2*%
X149135500Y-83500500D02*
X148965000Y-83330000D01*
X149135500Y-85725000D02*
X149135500Y-83500500D01*
%TO.N,Net-(U4-PB7)*%
X152400000Y-80555500D02*
X152400000Y-78933000D01*
X152400000Y-78933000D02*
X152359400Y-78892400D01*
%TO.N,/SDA*%
X147955000Y-81280000D02*
X153670000Y-81280000D01*
X146557600Y-82677400D02*
X147955000Y-81280000D01*
X144907400Y-82677400D02*
X146557600Y-82677400D01*
%TO.N,/RESET*%
X151440500Y-85090000D02*
X151440500Y-83405500D01*
X151440500Y-83405500D02*
X151365000Y-83330000D01*
%TO.N,Net-(U3-SQW{slash}~INT)*%
X140692500Y-99060000D02*
X140785000Y-98967500D01*
X140785000Y-98967500D02*
X140785000Y-94924574D01*
X141729574Y-93980000D02*
X142175000Y-93980000D01*
X140785000Y-94924574D02*
X141729574Y-93980000D01*
%TO.N,/D8*%
X151130000Y-93890500D02*
X151365000Y-93655500D01*
X151365000Y-93655500D02*
X151365000Y-91930000D01*
%TO.N,/D7*%
X149860000Y-93890500D02*
X150565000Y-93185500D01*
X150565000Y-93185500D02*
X150565000Y-91930000D01*
%TO.N,/D6*%
X147955000Y-93345000D02*
X149225000Y-93345000D01*
X149225000Y-93345000D02*
X149765000Y-92805000D01*
X149765000Y-92805000D02*
X149765000Y-91930000D01*
%TO.N,/SCK*%
X145680555Y-83401900D02*
X146525600Y-83401900D01*
X146525600Y-83401900D02*
X148012500Y-81915000D01*
X148012500Y-81915000D02*
X151765000Y-81915000D01*
X152165000Y-82315000D02*
X152165000Y-83330000D01*
X151765000Y-81915000D02*
X152165000Y-82315000D01*
%TO.N,/SDA*%
X143300000Y-89105875D02*
X143515875Y-88890000D01*
X144146751Y-88890000D02*
X144875000Y-88161751D01*
X143515875Y-88890000D02*
X144146751Y-88890000D01*
X143300000Y-89535000D02*
X143300000Y-89105875D01*
X144875000Y-82709800D02*
X144907400Y-82677400D01*
X144875000Y-88161751D02*
X144875000Y-82709800D01*
%TO.N,/SCK*%
X142175000Y-95250000D02*
X142875000Y-95250000D01*
X143510000Y-94615000D02*
X143510000Y-91440000D01*
X142875000Y-95250000D02*
X143510000Y-94615000D01*
X143510000Y-91440000D02*
X141922500Y-89852500D01*
X141922500Y-89852500D02*
X141922500Y-88582500D01*
X141922500Y-88582500D02*
X142240000Y-88265000D01*
X140652500Y-88582500D02*
X141922500Y-88582500D01*
X140335000Y-88900000D02*
X140652500Y-88582500D01*
X142240000Y-88265000D02*
X143300000Y-88265000D01*
X144425000Y-84100000D02*
X144145000Y-83820000D01*
X143501751Y-88265000D02*
X144425000Y-87341751D01*
X140970000Y-83185000D02*
X140970000Y-81915000D01*
X143300000Y-88265000D02*
X143501751Y-88265000D01*
X144145000Y-83820000D02*
X141605000Y-83820000D01*
X144425000Y-87341751D02*
X144425000Y-84100000D01*
X141605000Y-83820000D02*
X140970000Y-83185000D01*
X140970000Y-81915000D02*
X141477600Y-81407400D01*
X141477600Y-81407400D02*
X143325400Y-81407400D01*
%TO.N,/SDA*%
X144907400Y-82677400D02*
X143325400Y-82677400D01*
%TO.N,/MISO*%
X156210000Y-91440000D02*
X155055000Y-91440000D01*
X155055000Y-91440000D02*
X154565000Y-91930000D01*
%TO.N,/Vcc*%
X156750000Y-89630000D02*
X156065000Y-89630000D01*
X157480000Y-88900000D02*
X156750000Y-89630000D01*
%TO.N,Net-(U4-AREF)*%
X160617500Y-97790000D02*
X159385000Y-97790000D01*
%TO.N,/SCK*%
X174625000Y-98425000D02*
X174625000Y-85090000D01*
X173355000Y-99695000D02*
X174625000Y-98425000D01*
X174100000Y-84565000D02*
X171985000Y-84565000D01*
X174625000Y-85090000D02*
X174100000Y-84565000D01*
X171985000Y-84565000D02*
X170810000Y-85740000D01*
%TO.N,/Vcc*%
X163195000Y-88265000D02*
X163830000Y-88900000D01*
X162480000Y-88265000D02*
X162480000Y-86360000D01*
X162480000Y-90170000D02*
X162480000Y-88265000D01*
X162480000Y-88265000D02*
X163195000Y-88265000D01*
%TO.N,/RESET*%
X166647500Y-86360000D02*
X167005000Y-86360000D01*
X167005000Y-86360000D02*
X168925000Y-88280000D01*
X168925000Y-88280000D02*
X170810000Y-88280000D01*
%TO.N,GND*%
X166647500Y-81557500D02*
X166370000Y-81280000D01*
X166647500Y-82550000D02*
X166647500Y-81557500D01*
X162480000Y-81360000D02*
X162560000Y-81280000D01*
X162480000Y-82550000D02*
X162480000Y-81360000D01*
%TO.N,Net-(D2-K)*%
X164822500Y-82550000D02*
X164822500Y-79138700D01*
X164822500Y-79138700D02*
X165053800Y-78907400D01*
%TO.N,Net-(D1-K)*%
X160655000Y-82550000D02*
X160655000Y-79138700D01*
X160655000Y-79138700D02*
X160886300Y-78907400D01*
%TO.N,/SDA*%
X156845000Y-81280000D02*
X153670000Y-81280000D01*
X160655000Y-85090000D02*
X156845000Y-81280000D01*
X160655000Y-86360000D02*
X160655000Y-85090000D01*
X153670000Y-81280000D02*
X152965000Y-81985000D01*
X152965000Y-81985000D02*
X152965000Y-83330000D01*
%TO.N,/SCK*%
X160655000Y-90170000D02*
X160395000Y-90430000D01*
X160395000Y-90430000D02*
X156065000Y-90430000D01*
%TO.N,/Vcc*%
X164822500Y-86360000D02*
X162480000Y-86360000D01*
%TO.N,GND*%
X157414000Y-78892400D02*
X157632400Y-78892400D01*
X162517500Y-97790000D02*
X162517500Y-93980000D01*
X138430000Y-96520000D02*
X139065000Y-95885000D01*
X137225000Y-96520000D02*
X138430000Y-96520000D01*
%TO.N,/Vcc*%
X141605000Y-92710000D02*
X142175000Y-92710000D01*
%TO.N,Net-(U3-X2)*%
X132080000Y-98485000D02*
X134620000Y-95945000D01*
X134620000Y-95945000D02*
X134620000Y-94615000D01*
X134620000Y-94615000D02*
X135255000Y-93980000D01*
X135255000Y-93980000D02*
X137225000Y-93980000D01*
%TO.N,Net-(U3-X1)*%
X134680000Y-93285000D02*
X135255000Y-92710000D01*
X135255000Y-92710000D02*
X137225000Y-92710000D01*
X132080000Y-93285000D02*
X134680000Y-93285000D01*
%TO.N,/Vcc*%
X136100000Y-88265000D02*
X138428604Y-88265000D01*
X138428604Y-88265000D02*
X140968604Y-85725000D01*
X140968604Y-85725000D02*
X143300000Y-85725000D01*
%TO.N,GND*%
X136100000Y-89535000D02*
X133990000Y-89535000D01*
X133990000Y-89535000D02*
X132080000Y-87625000D01*
%TO.N,/Vcc*%
X136100000Y-86995000D02*
X136100000Y-85725000D01*
X136100000Y-88265000D02*
X136100000Y-86995000D01*
%TO.N,GND*%
X136252800Y-82550000D02*
X137795000Y-82550000D01*
X136125400Y-80137400D02*
X139065000Y-80137400D01*
X136125400Y-82677400D02*
X136252800Y-82550000D01*
X139065000Y-80137400D02*
X143325400Y-80137400D01*
X139065000Y-81280000D02*
X139065000Y-80137400D01*
X137795000Y-82550000D02*
X139065000Y-81280000D01*
%TO.N,/Vcc*%
X136125400Y-78867400D02*
X133857600Y-78867400D01*
X133350000Y-80645000D02*
X134112400Y-81407400D01*
X133350000Y-79375000D02*
X133350000Y-80645000D01*
X133857600Y-78867400D02*
X133350000Y-79375000D01*
X134112400Y-81407400D02*
X136125400Y-81407400D01*
%TO.N,GND*%
X143325400Y-80137400D02*
X147329800Y-80137400D01*
X147329800Y-80137400D02*
X148574800Y-78892400D01*
X148574800Y-78892400D02*
X150459400Y-78892400D01*
%TO.N,/Vcc*%
X143325400Y-78867400D02*
X146649800Y-78867400D01*
X146649800Y-78867400D02*
X146674800Y-78892400D01*
%TD*%
%TA.AperFunction,Conductor*%
%TO.N,/Vcc*%
G36*
X145873028Y-91255801D02*
G01*
X145924688Y-91294858D01*
X145925066Y-91294504D01*
X145927139Y-91296712D01*
X145928761Y-91297938D01*
X145929450Y-91298875D01*
X145930406Y-91300191D01*
X145966308Y-91329892D01*
X145970619Y-91333814D01*
X146118182Y-91481376D01*
X146151666Y-91542697D01*
X146154500Y-91569056D01*
X146154500Y-94052255D01*
X146152775Y-94067872D01*
X146153061Y-94067899D01*
X146152326Y-94075666D01*
X146154469Y-94143846D01*
X146154500Y-94145793D01*
X146154500Y-94174343D01*
X146154501Y-94174360D01*
X146155368Y-94181231D01*
X146155826Y-94187050D01*
X146157290Y-94233624D01*
X146157291Y-94233627D01*
X146162880Y-94252867D01*
X146166824Y-94271911D01*
X146169336Y-94291792D01*
X146170236Y-94294064D01*
X146186490Y-94335119D01*
X146188382Y-94340647D01*
X146200660Y-94382908D01*
X146201382Y-94385390D01*
X146211386Y-94402307D01*
X146211580Y-94402634D01*
X146220138Y-94420103D01*
X146227514Y-94438732D01*
X146254898Y-94476423D01*
X146258106Y-94481307D01*
X146281827Y-94521416D01*
X146281833Y-94521424D01*
X146295990Y-94535580D01*
X146308628Y-94550376D01*
X146319814Y-94565773D01*
X146320406Y-94566587D01*
X146346048Y-94587800D01*
X146356309Y-94596288D01*
X146360620Y-94600210D01*
X146756663Y-94996254D01*
X146884008Y-95123599D01*
X146917493Y-95184922D01*
X146919616Y-95224533D01*
X146914500Y-95272127D01*
X146914500Y-95272128D01*
X146914500Y-95272132D01*
X146914500Y-97767870D01*
X146914501Y-97767876D01*
X146920908Y-97827483D01*
X146971202Y-97962328D01*
X146971206Y-97962335D01*
X147057452Y-98077544D01*
X147057455Y-98077547D01*
X147172664Y-98163793D01*
X147172671Y-98163797D01*
X147307517Y-98214091D01*
X147307516Y-98214091D01*
X147314444Y-98214835D01*
X147367127Y-98220500D01*
X149929546Y-98220499D01*
X149996585Y-98240184D01*
X150017227Y-98256818D01*
X152016997Y-100256588D01*
X152026822Y-100268851D01*
X152027043Y-100268669D01*
X152032011Y-100274674D01*
X152032013Y-100274676D01*
X152032014Y-100274677D01*
X152050637Y-100292165D01*
X152081732Y-100321366D01*
X152083132Y-100322723D01*
X152103323Y-100342915D01*
X152103327Y-100342918D01*
X152103329Y-100342920D01*
X152108811Y-100347173D01*
X152113243Y-100350957D01*
X152147218Y-100382862D01*
X152164776Y-100392514D01*
X152181035Y-100403195D01*
X152196864Y-100415473D01*
X152239638Y-100433982D01*
X152244856Y-100436538D01*
X152285708Y-100458997D01*
X152305116Y-100463980D01*
X152323517Y-100470280D01*
X152341904Y-100478237D01*
X152385288Y-100485108D01*
X152387919Y-100485525D01*
X152393639Y-100486709D01*
X152438781Y-100498300D01*
X152458816Y-100498300D01*
X152478214Y-100499826D01*
X152497994Y-100502959D01*
X152497995Y-100502960D01*
X152497995Y-100502959D01*
X152497996Y-100502960D01*
X152544383Y-100498575D01*
X152550222Y-100498300D01*
X157803657Y-100498300D01*
X157819277Y-100500024D01*
X157819304Y-100499739D01*
X157827066Y-100500473D01*
X157827066Y-100500472D01*
X157827067Y-100500473D01*
X157830399Y-100500368D01*
X157895247Y-100498331D01*
X157897194Y-100498300D01*
X157925747Y-100498300D01*
X157925750Y-100498300D01*
X157932628Y-100497430D01*
X157938441Y-100496972D01*
X157985027Y-100495509D01*
X158004269Y-100489917D01*
X158023312Y-100485974D01*
X158043192Y-100483464D01*
X158086522Y-100466307D01*
X158092046Y-100464417D01*
X158095796Y-100463327D01*
X158136790Y-100451418D01*
X158154029Y-100441222D01*
X158171503Y-100432662D01*
X158190127Y-100425288D01*
X158190127Y-100425287D01*
X158190132Y-100425286D01*
X158227849Y-100397882D01*
X158232705Y-100394692D01*
X158272820Y-100370970D01*
X158286989Y-100356799D01*
X158301779Y-100344168D01*
X158317987Y-100332394D01*
X158347699Y-100296476D01*
X158351612Y-100292176D01*
X159043786Y-99600002D01*
X159056048Y-99590180D01*
X159055865Y-99589959D01*
X159061873Y-99584988D01*
X159061877Y-99584986D01*
X159108649Y-99535177D01*
X159109891Y-99533897D01*
X159130120Y-99513670D01*
X159134373Y-99508186D01*
X159138150Y-99503763D01*
X159170062Y-99469782D01*
X159179714Y-99452223D01*
X159190389Y-99435972D01*
X159202674Y-99420136D01*
X159221186Y-99377352D01*
X159223742Y-99372135D01*
X159246197Y-99331292D01*
X159251180Y-99311880D01*
X159257477Y-99293491D01*
X159265438Y-99275095D01*
X159272729Y-99229053D01*
X159273908Y-99223362D01*
X159285500Y-99178219D01*
X159285500Y-99158182D01*
X159287027Y-99138782D01*
X159290160Y-99119004D01*
X159285775Y-99072615D01*
X159285500Y-99066777D01*
X159285500Y-98814500D01*
X159305185Y-98747461D01*
X159357989Y-98701706D01*
X159409500Y-98690500D01*
X159479644Y-98690500D01*
X159479646Y-98690500D01*
X159631591Y-98658203D01*
X159701256Y-98663519D01*
X159756990Y-98705656D01*
X159762907Y-98714393D01*
X159774788Y-98733656D01*
X159898844Y-98857712D01*
X160048166Y-98949814D01*
X160214703Y-99004999D01*
X160317491Y-99015500D01*
X160917508Y-99015499D01*
X160917516Y-99015498D01*
X160917519Y-99015498D01*
X160973802Y-99009748D01*
X161020297Y-99004999D01*
X161186834Y-98949814D01*
X161336156Y-98857712D01*
X161460212Y-98733656D01*
X161461961Y-98730819D01*
X161463669Y-98729283D01*
X161464693Y-98727989D01*
X161464914Y-98728163D01*
X161513906Y-98684096D01*
X161582868Y-98672872D01*
X161646951Y-98700713D01*
X161673037Y-98730817D01*
X161674788Y-98733656D01*
X161798844Y-98857712D01*
X161948166Y-98949814D01*
X161951093Y-98950784D01*
X161952845Y-98951996D01*
X161954716Y-98952869D01*
X161954567Y-98953188D01*
X162008541Y-98990550D01*
X162035371Y-99055063D01*
X162036100Y-99068493D01*
X162036100Y-99460747D01*
X162016415Y-99527786D01*
X161999781Y-99548428D01*
X161524428Y-100023781D01*
X161463105Y-100057266D01*
X161436747Y-100060100D01*
X161180948Y-100060100D01*
X161113909Y-100040415D01*
X161088800Y-100019074D01*
X161083073Y-100012714D01*
X161083069Y-100012710D01*
X160929934Y-99901451D01*
X160929929Y-99901448D01*
X160757007Y-99824457D01*
X160757002Y-99824455D01*
X160599622Y-99791004D01*
X160571846Y-99785100D01*
X160382554Y-99785100D01*
X160354778Y-99791004D01*
X160197397Y-99824455D01*
X160197392Y-99824457D01*
X160024470Y-99901448D01*
X160024465Y-99901451D01*
X159871329Y-100012711D01*
X159744666Y-100153385D01*
X159650021Y-100317315D01*
X159650018Y-100317322D01*
X159592122Y-100495509D01*
X159591526Y-100497344D01*
X159571740Y-100685600D01*
X159591526Y-100873856D01*
X159591527Y-100873859D01*
X159650018Y-101053877D01*
X159650021Y-101053884D01*
X159744667Y-101217816D01*
X159846406Y-101330808D01*
X159871329Y-101358488D01*
X160024465Y-101469748D01*
X160024470Y-101469751D01*
X160197392Y-101546742D01*
X160197397Y-101546744D01*
X160382554Y-101586100D01*
X160382555Y-101586100D01*
X160571844Y-101586100D01*
X160571846Y-101586100D01*
X160757003Y-101546744D01*
X160929930Y-101469751D01*
X161083071Y-101358488D01*
X161085988Y-101355247D01*
X161088800Y-101352126D01*
X161148287Y-101315479D01*
X161163077Y-101313496D01*
X163415275Y-101313496D01*
X163421834Y-101316213D01*
X163424309Y-101317302D01*
X163680311Y-101436678D01*
X163682737Y-101437875D01*
X163714157Y-101454231D01*
X163716529Y-101455531D01*
X163756595Y-101478663D01*
X163758907Y-101480066D01*
X163788805Y-101499112D01*
X163791057Y-101500616D01*
X163829564Y-101527579D01*
X163868690Y-101500184D01*
X163870939Y-101498680D01*
X163900819Y-101479645D01*
X163903131Y-101478243D01*
X163943194Y-101455112D01*
X163945565Y-101453810D01*
X163977001Y-101437445D01*
X163979428Y-101436248D01*
X164235518Y-101316830D01*
X164237994Y-101315741D01*
X164270713Y-101302188D01*
X164273231Y-101301209D01*
X164316704Y-101285383D01*
X164319269Y-101284512D01*
X164353086Y-101273849D01*
X164355684Y-101273091D01*
X164374259Y-101268113D01*
X164374259Y-100573600D01*
X165372259Y-100573600D01*
X165372259Y-101171348D01*
X165445432Y-101177751D01*
X165448121Y-101178045D01*
X165483245Y-101182669D01*
X165485919Y-101183081D01*
X165531478Y-101191114D01*
X165534133Y-101191641D01*
X165568732Y-101199312D01*
X165571359Y-101199955D01*
X165844315Y-101273091D01*
X165846914Y-101273849D01*
X165880731Y-101284512D01*
X165883296Y-101285383D01*
X165926769Y-101301209D01*
X165929287Y-101302188D01*
X165962006Y-101315741D01*
X165964482Y-101316830D01*
X166220563Y-101436243D01*
X166222988Y-101437440D01*
X166254408Y-101453795D01*
X166256778Y-101455096D01*
X166296845Y-101478226D01*
X166299160Y-101479631D01*
X166329057Y-101498677D01*
X166331307Y-101500181D01*
X166369999Y-101527274D01*
X166408689Y-101500184D01*
X166410939Y-101498680D01*
X166440819Y-101479645D01*
X166443131Y-101478243D01*
X166483194Y-101455112D01*
X166485565Y-101453810D01*
X166517001Y-101437445D01*
X166519428Y-101436248D01*
X166775518Y-101316830D01*
X166777994Y-101315741D01*
X166810713Y-101302188D01*
X166813231Y-101301209D01*
X166856704Y-101285383D01*
X166859269Y-101284512D01*
X166874259Y-101279785D01*
X166874259Y-100573600D01*
X167872259Y-100573600D01*
X167872259Y-101167849D01*
X167985432Y-101177751D01*
X167988121Y-101178045D01*
X168023245Y-101182669D01*
X168025919Y-101183081D01*
X168071478Y-101191114D01*
X168074133Y-101191641D01*
X168108732Y-101199312D01*
X168111359Y-101199955D01*
X168384315Y-101273091D01*
X168386914Y-101273849D01*
X168420731Y-101284512D01*
X168423296Y-101285383D01*
X168466769Y-101301209D01*
X168469287Y-101302188D01*
X168502006Y-101315741D01*
X168504482Y-101316830D01*
X168760563Y-101436243D01*
X168762988Y-101437440D01*
X168794408Y-101453795D01*
X168796778Y-101455096D01*
X168836845Y-101478226D01*
X168839160Y-101479631D01*
X168869057Y-101498677D01*
X168871306Y-101500180D01*
X169102786Y-101662264D01*
X169104969Y-101663865D01*
X169133096Y-101685448D01*
X169135206Y-101687142D01*
X169170646Y-101716882D01*
X169172680Y-101718666D01*
X169198790Y-101742593D01*
X169200742Y-101744462D01*
X169374259Y-101917978D01*
X169374259Y-100573600D01*
X170372259Y-100573600D01*
X170372259Y-102075600D01*
X171874259Y-102075600D01*
X171874259Y-101524031D01*
X171861904Y-101514551D01*
X171859793Y-101512857D01*
X171824354Y-101483117D01*
X171822322Y-101481335D01*
X171796211Y-101457409D01*
X171794256Y-101455538D01*
X171594462Y-101255744D01*
X171592591Y-101253789D01*
X171568665Y-101227678D01*
X171566883Y-101225646D01*
X171537143Y-101190207D01*
X171535449Y-101188096D01*
X171513865Y-101159969D01*
X171512264Y-101157786D01*
X171350180Y-100926306D01*
X171348677Y-100924057D01*
X171329631Y-100894160D01*
X171328226Y-100891845D01*
X171305096Y-100851778D01*
X171303795Y-100849408D01*
X171287440Y-100817988D01*
X171286243Y-100815563D01*
X171173413Y-100573600D01*
X170372259Y-100573600D01*
X169374259Y-100573600D01*
X167872259Y-100573600D01*
X166874259Y-100573600D01*
X165372259Y-100573600D01*
X164374259Y-100573600D01*
X164079001Y-100573600D01*
X164046317Y-100628863D01*
X164044228Y-100632154D01*
X164022042Y-100664794D01*
X164000858Y-100698181D01*
X163998667Y-100701405D01*
X163959486Y-100755337D01*
X163957097Y-100758417D01*
X163924548Y-100797762D01*
X163921969Y-100800687D01*
X163889497Y-100835261D01*
X163869334Y-100858136D01*
X163868020Y-100859580D01*
X163850520Y-100878214D01*
X163849162Y-100879616D01*
X163827599Y-100901173D01*
X163768187Y-100964443D01*
X163765433Y-100967197D01*
X163728228Y-101002137D01*
X163725302Y-101004717D01*
X163718083Y-101010688D01*
X163415275Y-101313496D01*
X161163077Y-101313496D01*
X161180948Y-101311100D01*
X161664457Y-101311100D01*
X161680077Y-101312824D01*
X161680104Y-101312539D01*
X161687866Y-101313273D01*
X161687866Y-101313272D01*
X161687867Y-101313273D01*
X161691199Y-101313168D01*
X161756047Y-101311131D01*
X161757994Y-101311100D01*
X161786547Y-101311100D01*
X161786550Y-101311100D01*
X161793428Y-101310230D01*
X161799241Y-101309772D01*
X161845827Y-101308309D01*
X161865069Y-101302717D01*
X161884112Y-101298774D01*
X161903992Y-101296264D01*
X161947322Y-101279107D01*
X161952846Y-101277217D01*
X161956596Y-101276127D01*
X161997590Y-101264218D01*
X162014829Y-101254022D01*
X162032303Y-101245462D01*
X162050927Y-101238088D01*
X162050927Y-101238087D01*
X162050932Y-101238086D01*
X162088649Y-101210682D01*
X162093505Y-101207492D01*
X162133620Y-101183770D01*
X162147789Y-101169599D01*
X162162579Y-101156968D01*
X162178787Y-101145194D01*
X162208499Y-101109276D01*
X162212412Y-101104976D01*
X163045387Y-100272002D01*
X163057642Y-100262186D01*
X163057459Y-100261964D01*
X163063468Y-100256991D01*
X163063477Y-100256986D01*
X163110207Y-100207222D01*
X163111446Y-100205943D01*
X163131720Y-100185671D01*
X163135979Y-100180178D01*
X163139752Y-100175761D01*
X163171662Y-100141782D01*
X163181315Y-100124220D01*
X163191989Y-100107970D01*
X163204273Y-100092136D01*
X163222780Y-100049367D01*
X163225349Y-100044124D01*
X163227553Y-100040113D01*
X163247797Y-100003292D01*
X163252777Y-99983891D01*
X163259078Y-99965488D01*
X163267038Y-99947096D01*
X163274330Y-99901049D01*
X163275511Y-99895352D01*
X163287100Y-99850219D01*
X163287100Y-99830174D01*
X163288625Y-99810791D01*
X163291760Y-99791004D01*
X163287372Y-99744594D01*
X163287099Y-99738799D01*
X163287099Y-99575600D01*
X165372259Y-99575600D01*
X166874259Y-99575600D01*
X166874259Y-98073600D01*
X167872259Y-98073600D01*
X167872259Y-99575600D01*
X169374259Y-99575600D01*
X169374259Y-98073600D01*
X170372259Y-98073600D01*
X170372259Y-99575600D01*
X171007975Y-99575600D01*
X171027751Y-99349568D01*
X171028045Y-99346879D01*
X171032669Y-99311755D01*
X171033081Y-99309081D01*
X171041114Y-99263522D01*
X171041641Y-99260867D01*
X171049312Y-99226268D01*
X171049955Y-99223641D01*
X171123091Y-98950685D01*
X171123849Y-98948086D01*
X171134512Y-98914269D01*
X171135383Y-98911704D01*
X171151209Y-98868231D01*
X171152188Y-98865713D01*
X171165741Y-98832994D01*
X171166830Y-98830518D01*
X171286248Y-98574428D01*
X171287445Y-98572001D01*
X171303810Y-98540565D01*
X171305112Y-98538194D01*
X171328243Y-98498131D01*
X171329645Y-98495819D01*
X171348680Y-98465939D01*
X171350184Y-98463689D01*
X171377274Y-98424999D01*
X171350181Y-98386307D01*
X171348677Y-98384057D01*
X171329631Y-98354160D01*
X171328226Y-98351845D01*
X171305096Y-98311778D01*
X171303795Y-98309408D01*
X171287440Y-98277988D01*
X171286244Y-98275563D01*
X171215867Y-98124641D01*
X171164826Y-98073600D01*
X170372259Y-98073600D01*
X169374259Y-98073600D01*
X167872259Y-98073600D01*
X166874259Y-98073600D01*
X165621722Y-98073600D01*
X165616145Y-98083260D01*
X165614448Y-98086029D01*
X165591280Y-98121704D01*
X165589440Y-98124381D01*
X165556803Y-98169299D01*
X165554827Y-98171874D01*
X165528070Y-98204915D01*
X165525963Y-98207382D01*
X165372259Y-98378088D01*
X165372259Y-99575600D01*
X163287099Y-99575600D01*
X163287099Y-98858130D01*
X163306784Y-98791092D01*
X163323419Y-98770449D01*
X163360209Y-98733659D01*
X163360209Y-98733658D01*
X163360212Y-98733656D01*
X163452314Y-98584334D01*
X163507499Y-98417797D01*
X163507499Y-98417793D01*
X163507824Y-98416814D01*
X163547596Y-98359369D01*
X163568576Y-98347128D01*
X163568092Y-98346247D01*
X163574926Y-98342489D01*
X163574927Y-98342487D01*
X163574932Y-98342486D01*
X163612649Y-98315082D01*
X163617505Y-98311892D01*
X163657620Y-98288170D01*
X163671789Y-98273999D01*
X163686579Y-98261368D01*
X163702787Y-98249594D01*
X163732499Y-98213676D01*
X163736412Y-98209376D01*
X163980972Y-97964816D01*
X164042294Y-97931334D01*
X164068652Y-97928500D01*
X164127844Y-97928500D01*
X164127846Y-97928500D01*
X164313003Y-97889144D01*
X164485930Y-97812151D01*
X164639071Y-97700888D01*
X164765733Y-97560216D01*
X164860379Y-97396284D01*
X164918874Y-97216256D01*
X164938660Y-97028000D01*
X164918874Y-96839744D01*
X164860379Y-96659716D01*
X164765733Y-96495784D01*
X164639071Y-96355112D01*
X164639070Y-96355111D01*
X164485934Y-96243851D01*
X164485929Y-96243848D01*
X164313007Y-96166857D01*
X164313002Y-96166855D01*
X164144246Y-96130986D01*
X164127846Y-96127500D01*
X163938554Y-96127500D01*
X163922154Y-96130986D01*
X163753397Y-96166855D01*
X163753392Y-96166857D01*
X163580470Y-96243848D01*
X163580465Y-96243851D01*
X163427329Y-96355111D01*
X163359150Y-96430832D01*
X163299663Y-96467481D01*
X163229806Y-96466150D01*
X163171758Y-96427264D01*
X163143948Y-96363167D01*
X163143000Y-96347860D01*
X163143000Y-95573600D01*
X165372259Y-95573600D01*
X165372259Y-95677911D01*
X165525963Y-95848618D01*
X165528070Y-95851085D01*
X165554827Y-95884126D01*
X165556803Y-95886701D01*
X165589440Y-95931619D01*
X165591280Y-95934296D01*
X165614448Y-95969971D01*
X165616145Y-95972739D01*
X165738548Y-96184750D01*
X165740096Y-96187602D01*
X165759392Y-96225469D01*
X165760789Y-96228398D01*
X165783374Y-96279119D01*
X165784617Y-96282119D01*
X165799867Y-96321841D01*
X165800951Y-96324903D01*
X165876609Y-96557753D01*
X165877531Y-96560867D01*
X165888541Y-96601957D01*
X165889299Y-96605115D01*
X165900841Y-96659426D01*
X165901432Y-96662616D01*
X165908081Y-96704605D01*
X165908505Y-96707823D01*
X165934094Y-96951291D01*
X165934349Y-96954527D01*
X165936575Y-96996994D01*
X165936660Y-97000240D01*
X165936660Y-97055760D01*
X165936575Y-97059006D01*
X165935705Y-97075600D01*
X166874259Y-97075600D01*
X167872259Y-97075600D01*
X169374259Y-97075600D01*
X169374259Y-96283033D01*
X169196495Y-96105269D01*
X169163967Y-96119753D01*
X169160968Y-96120996D01*
X169121254Y-96136241D01*
X169118191Y-96137325D01*
X169065383Y-96154482D01*
X169062272Y-96155403D01*
X169021204Y-96166407D01*
X169018047Y-96167165D01*
X168778592Y-96218062D01*
X168775400Y-96218653D01*
X168733416Y-96225303D01*
X168730201Y-96225726D01*
X168674985Y-96231533D01*
X168671746Y-96231788D01*
X168629262Y-96234015D01*
X168626016Y-96234100D01*
X168381184Y-96234100D01*
X168377938Y-96234015D01*
X168335454Y-96231788D01*
X168332215Y-96231533D01*
X168276999Y-96225726D01*
X168273784Y-96225303D01*
X168231800Y-96218653D01*
X168228608Y-96218062D01*
X167989153Y-96167165D01*
X167985996Y-96166407D01*
X167944928Y-96155403D01*
X167941817Y-96154482D01*
X167889009Y-96137325D01*
X167885946Y-96136241D01*
X167872259Y-96130986D01*
X167872259Y-97075600D01*
X166874259Y-97075600D01*
X166874259Y-95573600D01*
X165372259Y-95573600D01*
X163143000Y-95573600D01*
X163143000Y-95174377D01*
X163162685Y-95107338D01*
X163201906Y-95068837D01*
X163236154Y-95047713D01*
X163236153Y-95047713D01*
X163236156Y-95047712D01*
X163360212Y-94923656D01*
X163452314Y-94774334D01*
X163507499Y-94607797D01*
X163518000Y-94505009D01*
X163517999Y-93561099D01*
X163537683Y-93494061D01*
X163590487Y-93448306D01*
X163641999Y-93437100D01*
X167826625Y-93437100D01*
X167893664Y-93456785D01*
X167939419Y-93509589D01*
X167949363Y-93578747D01*
X167920338Y-93642303D01*
X167899509Y-93661419D01*
X167897728Y-93662712D01*
X167771066Y-93803385D01*
X167676421Y-93967315D01*
X167676418Y-93967322D01*
X167618725Y-94144884D01*
X167617926Y-94147344D01*
X167602505Y-94294068D01*
X167598191Y-94335119D01*
X167598140Y-94335600D01*
X167617926Y-94523856D01*
X167617927Y-94523859D01*
X167676418Y-94703877D01*
X167676421Y-94703884D01*
X167771067Y-94867816D01*
X167861051Y-94967753D01*
X167897729Y-95008488D01*
X168050865Y-95119748D01*
X168050870Y-95119751D01*
X168223792Y-95196742D01*
X168223797Y-95196744D01*
X168408954Y-95236100D01*
X168408955Y-95236100D01*
X168598244Y-95236100D01*
X168598246Y-95236100D01*
X168783403Y-95196744D01*
X168956330Y-95119751D01*
X169109471Y-95008488D01*
X169113449Y-95004070D01*
X169115200Y-95002126D01*
X169174687Y-94965479D01*
X169207348Y-94961100D01*
X169412348Y-94961100D01*
X169479387Y-94980785D01*
X169500029Y-94997419D01*
X172041396Y-97538786D01*
X172058412Y-97560026D01*
X172060312Y-97563020D01*
X172075389Y-97597365D01*
X172081093Y-97618651D01*
X172081095Y-97618657D01*
X172081097Y-97618663D01*
X172150677Y-97767878D01*
X172180965Y-97832830D01*
X172180967Y-97832834D01*
X172316501Y-98026395D01*
X172316506Y-98026402D01*
X172483597Y-98193493D01*
X172483603Y-98193498D01*
X172669158Y-98323425D01*
X172712783Y-98378002D01*
X172719977Y-98447500D01*
X172688454Y-98509855D01*
X172669158Y-98526575D01*
X172483597Y-98656505D01*
X172316505Y-98823597D01*
X172180965Y-99017169D01*
X172180964Y-99017171D01*
X172081098Y-99231335D01*
X172081094Y-99231344D01*
X172019938Y-99459586D01*
X172019936Y-99459596D01*
X171999341Y-99694999D01*
X171999341Y-99695000D01*
X172019936Y-99930403D01*
X172019938Y-99930413D01*
X172081094Y-100158655D01*
X172081096Y-100158659D01*
X172081097Y-100158663D01*
X172166814Y-100342483D01*
X172180965Y-100372830D01*
X172180967Y-100372834D01*
X172261046Y-100487197D01*
X172316505Y-100566401D01*
X172483599Y-100733495D01*
X172568932Y-100793246D01*
X172677165Y-100869032D01*
X172677167Y-100869033D01*
X172677170Y-100869035D01*
X172891337Y-100968903D01*
X173119592Y-101030063D01*
X173307918Y-101046539D01*
X173354999Y-101050659D01*
X173355000Y-101050659D01*
X173355001Y-101050659D01*
X173397039Y-101046981D01*
X173590408Y-101030063D01*
X173818663Y-100968903D01*
X174032830Y-100869035D01*
X174226401Y-100733495D01*
X174393495Y-100566401D01*
X174529035Y-100372830D01*
X174628903Y-100158663D01*
X174690063Y-99930408D01*
X174710659Y-99695000D01*
X174710481Y-99692971D01*
X174701033Y-99584982D01*
X174690063Y-99459592D01*
X174663142Y-99359125D01*
X174664806Y-99289276D01*
X174695235Y-99239353D01*
X174972120Y-98962468D01*
X175033442Y-98928985D01*
X175103134Y-98933969D01*
X175159067Y-98975841D01*
X175183484Y-99041305D01*
X175183800Y-99050151D01*
X175183800Y-101496045D01*
X175164115Y-101563084D01*
X175145304Y-101585851D01*
X170977914Y-105553606D01*
X170915788Y-105585576D01*
X170892410Y-105587800D01*
X133099020Y-105587800D01*
X133031981Y-105568115D01*
X133008443Y-105548486D01*
X130157682Y-102499411D01*
X130126276Y-102436998D01*
X130124259Y-102414575D01*
X130133109Y-95104328D01*
X130152875Y-95037314D01*
X130205734Y-94991623D01*
X130274905Y-94981764D01*
X130338425Y-95010865D01*
X130376128Y-95069689D01*
X130380399Y-95091227D01*
X130385908Y-95142483D01*
X130436202Y-95277328D01*
X130436206Y-95277335D01*
X130522452Y-95392544D01*
X130522455Y-95392547D01*
X130637664Y-95478793D01*
X130637671Y-95478797D01*
X130772517Y-95529091D01*
X130772516Y-95529091D01*
X130779444Y-95529835D01*
X130832127Y-95535500D01*
X133327872Y-95535499D01*
X133387483Y-95529091D01*
X133522331Y-95478796D01*
X133637546Y-95392546D01*
X133723796Y-95277331D01*
X133732544Y-95253876D01*
X133754318Y-95195498D01*
X133796189Y-95139564D01*
X133861653Y-95115147D01*
X133929926Y-95129998D01*
X133979332Y-95179403D01*
X133994500Y-95238831D01*
X133994500Y-95634546D01*
X133974815Y-95701585D01*
X133958181Y-95722227D01*
X133476399Y-96204008D01*
X133415076Y-96237493D01*
X133375465Y-96239616D01*
X133327873Y-96234500D01*
X133327865Y-96234500D01*
X130832129Y-96234500D01*
X130832123Y-96234501D01*
X130772516Y-96240908D01*
X130637671Y-96291202D01*
X130637664Y-96291206D01*
X130522455Y-96377452D01*
X130522452Y-96377455D01*
X130436206Y-96492664D01*
X130436202Y-96492671D01*
X130385908Y-96627517D01*
X130379501Y-96687116D01*
X130379500Y-96687135D01*
X130379500Y-100282870D01*
X130379501Y-100282876D01*
X130385908Y-100342483D01*
X130436202Y-100477328D01*
X130436206Y-100477335D01*
X130522452Y-100592544D01*
X130522455Y-100592547D01*
X130637664Y-100678793D01*
X130637671Y-100678797D01*
X130772517Y-100729091D01*
X130772516Y-100729091D01*
X130779444Y-100729835D01*
X130832127Y-100735500D01*
X133327872Y-100735499D01*
X133387483Y-100729091D01*
X133522331Y-100678796D01*
X133637546Y-100592546D01*
X133723796Y-100477331D01*
X133774091Y-100342483D01*
X133780500Y-100282873D01*
X133780500Y-99310000D01*
X135870001Y-99310000D01*
X135870001Y-99559986D01*
X135880494Y-99662697D01*
X135935641Y-99829119D01*
X135935643Y-99829124D01*
X136027684Y-99978345D01*
X136151654Y-100102315D01*
X136300875Y-100194356D01*
X136300880Y-100194358D01*
X136467302Y-100249505D01*
X136467309Y-100249506D01*
X136570019Y-100259999D01*
X136632499Y-100259998D01*
X136632500Y-100259998D01*
X136632500Y-99310000D01*
X135870001Y-99310000D01*
X133780500Y-99310000D01*
X133780499Y-97720451D01*
X133800184Y-97653413D01*
X133816813Y-97632776D01*
X134748021Y-96701568D01*
X134809342Y-96668085D01*
X134879034Y-96673069D01*
X134934967Y-96714941D01*
X134959384Y-96780405D01*
X134959700Y-96789251D01*
X134959700Y-97402455D01*
X134957975Y-97418072D01*
X134958261Y-97418099D01*
X134957526Y-97425866D01*
X134959669Y-97494046D01*
X134959700Y-97495993D01*
X134959700Y-97524543D01*
X134959701Y-97524560D01*
X134960568Y-97531431D01*
X134961026Y-97537250D01*
X134962490Y-97583824D01*
X134962491Y-97583827D01*
X134968080Y-97603067D01*
X134972024Y-97622111D01*
X134974536Y-97641992D01*
X134979058Y-97653413D01*
X134991690Y-97685319D01*
X134993582Y-97690847D01*
X135006581Y-97735588D01*
X135016780Y-97752834D01*
X135025336Y-97770300D01*
X135032714Y-97788932D01*
X135049583Y-97812151D01*
X135060098Y-97826623D01*
X135063306Y-97831507D01*
X135087027Y-97871616D01*
X135087033Y-97871624D01*
X135101190Y-97885780D01*
X135113828Y-97900576D01*
X135125605Y-97916786D01*
X135125606Y-97916787D01*
X135161508Y-97946487D01*
X135165819Y-97950409D01*
X135337113Y-98121704D01*
X135389198Y-98173789D01*
X135399022Y-98186050D01*
X135399243Y-98185868D01*
X135404213Y-98191876D01*
X135453934Y-98238568D01*
X135455333Y-98239924D01*
X135475523Y-98260115D01*
X135475527Y-98260118D01*
X135475529Y-98260120D01*
X135481011Y-98264373D01*
X135485443Y-98268157D01*
X135519418Y-98300062D01*
X135536976Y-98309714D01*
X135553235Y-98320395D01*
X135569064Y-98332673D01*
X135611838Y-98351182D01*
X135617056Y-98353738D01*
X135657908Y-98376197D01*
X135677316Y-98381180D01*
X135695719Y-98387481D01*
X135714101Y-98395436D01*
X135714102Y-98395436D01*
X135714104Y-98395437D01*
X135760130Y-98402726D01*
X135765837Y-98403909D01*
X135770191Y-98405026D01*
X135779506Y-98407418D01*
X135839544Y-98443151D01*
X135870734Y-98505673D01*
X135872032Y-98540123D01*
X135870001Y-98560006D01*
X135870000Y-98560026D01*
X135870000Y-98810000D01*
X137008500Y-98810000D01*
X137075539Y-98829685D01*
X137121294Y-98882489D01*
X137132500Y-98934000D01*
X137132500Y-100259999D01*
X137194972Y-100259999D01*
X137194986Y-100259998D01*
X137297697Y-100249505D01*
X137464119Y-100194358D01*
X137464124Y-100194356D01*
X137613342Y-100102317D01*
X137706964Y-100008695D01*
X137768287Y-99975210D01*
X137837979Y-99980194D01*
X137882327Y-100008695D01*
X137976344Y-100102712D01*
X138125666Y-100194814D01*
X138292203Y-100249999D01*
X138394991Y-100260500D01*
X139020008Y-100260499D01*
X139020016Y-100260498D01*
X139020019Y-100260498D01*
X139076302Y-100254748D01*
X139122797Y-100249999D01*
X139289334Y-100194814D01*
X139438656Y-100102712D01*
X139562712Y-99978656D01*
X139594461Y-99927181D01*
X139646408Y-99880457D01*
X139715371Y-99869234D01*
X139779453Y-99897077D01*
X139805538Y-99927181D01*
X139807529Y-99930408D01*
X139835162Y-99975210D01*
X139837288Y-99978656D01*
X139961344Y-100102712D01*
X140110666Y-100194814D01*
X140277203Y-100249999D01*
X140379991Y-100260500D01*
X141005008Y-100260499D01*
X141005016Y-100260498D01*
X141005019Y-100260498D01*
X141061302Y-100254748D01*
X141107797Y-100249999D01*
X141274334Y-100194814D01*
X141423656Y-100102712D01*
X141517675Y-100008692D01*
X141578994Y-99975210D01*
X141648686Y-99980194D01*
X141693034Y-100008695D01*
X141786654Y-100102315D01*
X141935875Y-100194356D01*
X141935880Y-100194358D01*
X142102302Y-100249505D01*
X142102309Y-100249506D01*
X142205019Y-100259999D01*
X142394649Y-100259999D01*
X142461689Y-100279683D01*
X142507444Y-100332487D01*
X142517388Y-100401645D01*
X142488363Y-100465201D01*
X142482331Y-100471680D01*
X141907032Y-101046981D01*
X141845709Y-101080466D01*
X141819351Y-101083300D01*
X137997537Y-101083300D01*
X137981920Y-101081576D01*
X137981893Y-101081862D01*
X137974131Y-101081127D01*
X137905971Y-101083269D01*
X137904024Y-101083300D01*
X137875450Y-101083300D01*
X137874729Y-101083390D01*
X137868557Y-101084169D01*
X137862745Y-101084626D01*
X137816172Y-101086090D01*
X137816169Y-101086091D01*
X137796926Y-101091681D01*
X137777883Y-101095625D01*
X137758004Y-101098136D01*
X137758003Y-101098137D01*
X137714678Y-101115290D01*
X137709152Y-101117182D01*
X137664408Y-101130183D01*
X137664404Y-101130185D01*
X137647165Y-101140380D01*
X137629698Y-101148937D01*
X137611069Y-101156312D01*
X137611067Y-101156313D01*
X137573364Y-101183706D01*
X137568482Y-101186912D01*
X137528380Y-101210628D01*
X137514208Y-101224800D01*
X137499423Y-101237428D01*
X137483212Y-101249207D01*
X137453509Y-101285110D01*
X137449577Y-101289431D01*
X136776208Y-101962799D01*
X136763951Y-101972620D01*
X136764134Y-101972841D01*
X136758122Y-101977814D01*
X136711432Y-102027532D01*
X136710079Y-102028929D01*
X136689889Y-102049119D01*
X136689877Y-102049132D01*
X136685621Y-102054617D01*
X136681837Y-102059047D01*
X136649937Y-102093018D01*
X136649936Y-102093020D01*
X136640284Y-102110576D01*
X136629610Y-102126826D01*
X136617329Y-102142661D01*
X136617324Y-102142668D01*
X136598815Y-102185438D01*
X136596245Y-102190684D01*
X136573803Y-102231506D01*
X136568822Y-102250907D01*
X136562521Y-102269310D01*
X136554562Y-102287702D01*
X136554561Y-102287705D01*
X136547271Y-102333727D01*
X136546086Y-102339447D01*
X136534405Y-102384947D01*
X136498668Y-102444986D01*
X136485423Y-102455687D01*
X136288600Y-102593503D01*
X136166673Y-102715430D01*
X136105350Y-102748914D01*
X136035658Y-102743930D01*
X135979725Y-102702058D01*
X135962810Y-102671081D01*
X135913797Y-102539671D01*
X135913793Y-102539664D01*
X135827547Y-102424455D01*
X135827544Y-102424452D01*
X135712335Y-102338206D01*
X135712328Y-102338202D01*
X135577482Y-102287908D01*
X135577483Y-102287908D01*
X135517883Y-102281501D01*
X135517881Y-102281500D01*
X135517873Y-102281500D01*
X135517864Y-102281500D01*
X133722129Y-102281500D01*
X133722123Y-102281501D01*
X133662516Y-102287908D01*
X133527671Y-102338202D01*
X133527664Y-102338206D01*
X133412455Y-102424452D01*
X133412452Y-102424455D01*
X133326206Y-102539664D01*
X133326202Y-102539671D01*
X133275908Y-102674517D01*
X133269501Y-102734116D01*
X133269500Y-102734135D01*
X133269500Y-104529870D01*
X133269501Y-104529876D01*
X133275908Y-104589483D01*
X133326202Y-104724328D01*
X133326206Y-104724335D01*
X133412452Y-104839544D01*
X133412455Y-104839547D01*
X133527664Y-104925793D01*
X133527671Y-104925797D01*
X133662517Y-104976091D01*
X133662516Y-104976091D01*
X133669444Y-104976835D01*
X133722127Y-104982500D01*
X135517872Y-104982499D01*
X135577483Y-104976091D01*
X135712331Y-104925796D01*
X135827546Y-104839546D01*
X135913796Y-104724331D01*
X135962810Y-104592916D01*
X136004681Y-104536984D01*
X136070145Y-104512566D01*
X136138418Y-104527417D01*
X136166673Y-104548569D01*
X136288599Y-104670495D01*
X136385384Y-104738264D01*
X136482165Y-104806032D01*
X136482167Y-104806033D01*
X136482170Y-104806035D01*
X136696337Y-104905903D01*
X136924592Y-104967063D01*
X137101034Y-104982500D01*
X137159999Y-104987659D01*
X137160000Y-104987659D01*
X137160001Y-104987659D01*
X137218966Y-104982500D01*
X137395408Y-104967063D01*
X137623663Y-104905903D01*
X137837830Y-104806035D01*
X138031401Y-104670495D01*
X138198495Y-104503401D01*
X138328424Y-104317842D01*
X138383002Y-104274217D01*
X138452500Y-104267023D01*
X138514855Y-104298546D01*
X138531575Y-104317842D01*
X138661281Y-104503082D01*
X138661505Y-104503401D01*
X138828599Y-104670495D01*
X138925384Y-104738264D01*
X139022165Y-104806032D01*
X139022167Y-104806033D01*
X139022170Y-104806035D01*
X139236337Y-104905903D01*
X139464592Y-104967063D01*
X139641034Y-104982500D01*
X139699999Y-104987659D01*
X139700000Y-104987659D01*
X139700001Y-104987659D01*
X139758966Y-104982500D01*
X139935408Y-104967063D01*
X140163663Y-104905903D01*
X140377830Y-104806035D01*
X140571401Y-104670495D01*
X140738495Y-104503401D01*
X140868424Y-104317842D01*
X140923002Y-104274217D01*
X140992500Y-104267023D01*
X141054855Y-104298546D01*
X141071575Y-104317842D01*
X141201281Y-104503082D01*
X141201505Y-104503401D01*
X141368599Y-104670495D01*
X141465384Y-104738264D01*
X141562165Y-104806032D01*
X141562167Y-104806033D01*
X141562170Y-104806035D01*
X141776337Y-104905903D01*
X142004592Y-104967063D01*
X142181034Y-104982500D01*
X142239999Y-104987659D01*
X142240000Y-104987659D01*
X142240001Y-104987659D01*
X142298966Y-104982500D01*
X142475408Y-104967063D01*
X142703663Y-104905903D01*
X142917830Y-104806035D01*
X143111401Y-104670495D01*
X143278495Y-104503401D01*
X143408424Y-104317842D01*
X143463002Y-104274217D01*
X143532500Y-104267023D01*
X143594855Y-104298546D01*
X143611575Y-104317842D01*
X143741281Y-104503082D01*
X143741505Y-104503401D01*
X143908599Y-104670495D01*
X144005384Y-104738265D01*
X144102165Y-104806032D01*
X144102167Y-104806033D01*
X144102170Y-104806035D01*
X144316337Y-104905903D01*
X144544592Y-104967063D01*
X144721034Y-104982500D01*
X144779999Y-104987659D01*
X144780000Y-104987659D01*
X144780001Y-104987659D01*
X144838966Y-104982500D01*
X145015408Y-104967063D01*
X145243663Y-104905903D01*
X145457830Y-104806035D01*
X145651401Y-104670495D01*
X145818495Y-104503401D01*
X145948424Y-104317842D01*
X146003002Y-104274217D01*
X146072500Y-104267023D01*
X146134855Y-104298546D01*
X146151575Y-104317842D01*
X146281281Y-104503082D01*
X146281505Y-104503401D01*
X146448599Y-104670495D01*
X146545384Y-104738265D01*
X146642165Y-104806032D01*
X146642167Y-104806033D01*
X146642170Y-104806035D01*
X146856337Y-104905903D01*
X147084592Y-104967063D01*
X147261034Y-104982500D01*
X147319999Y-104987659D01*
X147320000Y-104987659D01*
X147320001Y-104987659D01*
X147378966Y-104982500D01*
X147555408Y-104967063D01*
X147783663Y-104905903D01*
X147997830Y-104806035D01*
X148191401Y-104670495D01*
X148358495Y-104503401D01*
X148488424Y-104317842D01*
X148543002Y-104274217D01*
X148612500Y-104267023D01*
X148674855Y-104298546D01*
X148691575Y-104317842D01*
X148821281Y-104503082D01*
X148821505Y-104503401D01*
X148988599Y-104670495D01*
X149085384Y-104738265D01*
X149182165Y-104806032D01*
X149182167Y-104806033D01*
X149182170Y-104806035D01*
X149396337Y-104905903D01*
X149624592Y-104967063D01*
X149801034Y-104982500D01*
X149859999Y-104987659D01*
X149860000Y-104987659D01*
X149860001Y-104987659D01*
X149918966Y-104982500D01*
X150095408Y-104967063D01*
X150323663Y-104905903D01*
X150537830Y-104806035D01*
X150731401Y-104670495D01*
X150898495Y-104503401D01*
X151028424Y-104317842D01*
X151083002Y-104274217D01*
X151152500Y-104267023D01*
X151214855Y-104298546D01*
X151231575Y-104317842D01*
X151361281Y-104503082D01*
X151361505Y-104503401D01*
X151528599Y-104670495D01*
X151625384Y-104738265D01*
X151722165Y-104806032D01*
X151722167Y-104806033D01*
X151722170Y-104806035D01*
X151936337Y-104905903D01*
X152164592Y-104967063D01*
X152341034Y-104982500D01*
X152399999Y-104987659D01*
X152400000Y-104987659D01*
X152400001Y-104987659D01*
X152458966Y-104982500D01*
X152635408Y-104967063D01*
X152863663Y-104905903D01*
X153077830Y-104806035D01*
X153271401Y-104670495D01*
X153438495Y-104503401D01*
X153568730Y-104317405D01*
X153623307Y-104273781D01*
X153692805Y-104266587D01*
X153755160Y-104298110D01*
X153771879Y-104317405D01*
X153901890Y-104503078D01*
X154068917Y-104670105D01*
X154262421Y-104805600D01*
X154476507Y-104905429D01*
X154476516Y-104905433D01*
X154690000Y-104962634D01*
X154690000Y-104067501D01*
X154797685Y-104116680D01*
X154904237Y-104132000D01*
X154975763Y-104132000D01*
X155082315Y-104116680D01*
X155190000Y-104067501D01*
X155190000Y-104962633D01*
X155403483Y-104905433D01*
X155403492Y-104905429D01*
X155617578Y-104805600D01*
X155811082Y-104670105D01*
X155978105Y-104503082D01*
X156048275Y-104402870D01*
X158669500Y-104402870D01*
X158669501Y-104402876D01*
X158675908Y-104462483D01*
X158726202Y-104597328D01*
X158726206Y-104597335D01*
X158812452Y-104712544D01*
X158812455Y-104712547D01*
X158927664Y-104798793D01*
X158927671Y-104798797D01*
X159062517Y-104849091D01*
X159062516Y-104849091D01*
X159069444Y-104849835D01*
X159122127Y-104855500D01*
X160917872Y-104855499D01*
X160977483Y-104849091D01*
X161112331Y-104798796D01*
X161227546Y-104712546D01*
X161313796Y-104597331D01*
X161363002Y-104465401D01*
X161404872Y-104409468D01*
X161470337Y-104385050D01*
X161538610Y-104399901D01*
X161566865Y-104421053D01*
X161688917Y-104543105D01*
X161882421Y-104678600D01*
X162096507Y-104778429D01*
X162096516Y-104778433D01*
X162310000Y-104835634D01*
X162310000Y-103940501D01*
X162417685Y-103989680D01*
X162524237Y-104005000D01*
X162595763Y-104005000D01*
X162702315Y-103989680D01*
X162810000Y-103940501D01*
X162810000Y-104835633D01*
X163023483Y-104778433D01*
X163023492Y-104778429D01*
X163237578Y-104678600D01*
X163431082Y-104543105D01*
X163598105Y-104376082D01*
X163728119Y-104190405D01*
X163782696Y-104146781D01*
X163852195Y-104139588D01*
X163914549Y-104171110D01*
X163931269Y-104190405D01*
X164061505Y-104376401D01*
X164228599Y-104543495D01*
X164325384Y-104611265D01*
X164422165Y-104679032D01*
X164422167Y-104679033D01*
X164422170Y-104679035D01*
X164636337Y-104778903D01*
X164864592Y-104840063D01*
X165041034Y-104855500D01*
X165099999Y-104860659D01*
X165100000Y-104860659D01*
X165100001Y-104860659D01*
X165158966Y-104855500D01*
X165335408Y-104840063D01*
X165563663Y-104778903D01*
X165777830Y-104679035D01*
X165971401Y-104543495D01*
X166138495Y-104376401D01*
X166268424Y-104190842D01*
X166323002Y-104147217D01*
X166392500Y-104140023D01*
X166454855Y-104171546D01*
X166471575Y-104190842D01*
X166601500Y-104376395D01*
X166601505Y-104376401D01*
X166768599Y-104543495D01*
X166865384Y-104611264D01*
X166962165Y-104679032D01*
X166962167Y-104679033D01*
X166962170Y-104679035D01*
X167176337Y-104778903D01*
X167404592Y-104840063D01*
X167581034Y-104855500D01*
X167639999Y-104860659D01*
X167640000Y-104860659D01*
X167640001Y-104860659D01*
X167698966Y-104855500D01*
X167875408Y-104840063D01*
X168103663Y-104778903D01*
X168317830Y-104679035D01*
X168511401Y-104543495D01*
X168678495Y-104376401D01*
X168814035Y-104182830D01*
X168913903Y-103968663D01*
X168975063Y-103740408D01*
X168995659Y-103505000D01*
X168975063Y-103269592D01*
X168922548Y-103073600D01*
X170372259Y-103073600D01*
X170372259Y-104463800D01*
X170492497Y-104463800D01*
X171874259Y-103148229D01*
X171874259Y-103073600D01*
X170372259Y-103073600D01*
X168922548Y-103073600D01*
X168913903Y-103041337D01*
X168814035Y-102827171D01*
X168808731Y-102819595D01*
X168678494Y-102633597D01*
X168511402Y-102466506D01*
X168511395Y-102466501D01*
X168499204Y-102457965D01*
X168464355Y-102433563D01*
X168317834Y-102330967D01*
X168317830Y-102330965D01*
X168317830Y-102330964D01*
X168103663Y-102231097D01*
X168103659Y-102231096D01*
X168103655Y-102231094D01*
X167875413Y-102169938D01*
X167875403Y-102169936D01*
X167640001Y-102149341D01*
X167639999Y-102149341D01*
X167404596Y-102169936D01*
X167404586Y-102169938D01*
X167176344Y-102231094D01*
X167176335Y-102231098D01*
X166962171Y-102330964D01*
X166962169Y-102330965D01*
X166768597Y-102466505D01*
X166601505Y-102633597D01*
X166471575Y-102819158D01*
X166416998Y-102862783D01*
X166347500Y-102869977D01*
X166285145Y-102838454D01*
X166268425Y-102819158D01*
X166138494Y-102633597D01*
X165971402Y-102466506D01*
X165971395Y-102466501D01*
X165959204Y-102457965D01*
X165924355Y-102433563D01*
X165777834Y-102330967D01*
X165777830Y-102330965D01*
X165777830Y-102330964D01*
X165563663Y-102231097D01*
X165563659Y-102231096D01*
X165563655Y-102231094D01*
X165335413Y-102169938D01*
X165335403Y-102169936D01*
X165100001Y-102149341D01*
X165099999Y-102149341D01*
X164864596Y-102169936D01*
X164864586Y-102169938D01*
X164636344Y-102231094D01*
X164636335Y-102231098D01*
X164422171Y-102330964D01*
X164422169Y-102330965D01*
X164228597Y-102466505D01*
X164061508Y-102633594D01*
X163931269Y-102819595D01*
X163876692Y-102863219D01*
X163807193Y-102870412D01*
X163744839Y-102838890D01*
X163728119Y-102819594D01*
X163598113Y-102633926D01*
X163598108Y-102633920D01*
X163431082Y-102466894D01*
X163237578Y-102331399D01*
X163023492Y-102231570D01*
X163023486Y-102231567D01*
X162810000Y-102174364D01*
X162810000Y-103069498D01*
X162702315Y-103020320D01*
X162595763Y-103005000D01*
X162524237Y-103005000D01*
X162417685Y-103020320D01*
X162310000Y-103069498D01*
X162310000Y-102174364D01*
X162309999Y-102174364D01*
X162096513Y-102231567D01*
X162096507Y-102231570D01*
X161882422Y-102331399D01*
X161882420Y-102331400D01*
X161688926Y-102466886D01*
X161566865Y-102588947D01*
X161505542Y-102622431D01*
X161435850Y-102617447D01*
X161379917Y-102575575D01*
X161363002Y-102544598D01*
X161361164Y-102539671D01*
X161326774Y-102447465D01*
X161313797Y-102412671D01*
X161313793Y-102412664D01*
X161227547Y-102297455D01*
X161227544Y-102297452D01*
X161112335Y-102211206D01*
X161112328Y-102211202D01*
X160977482Y-102160908D01*
X160977483Y-102160908D01*
X160917883Y-102154501D01*
X160917881Y-102154500D01*
X160917873Y-102154500D01*
X160917864Y-102154500D01*
X159122129Y-102154500D01*
X159122123Y-102154501D01*
X159062516Y-102160908D01*
X158927671Y-102211202D01*
X158927664Y-102211206D01*
X158812455Y-102297452D01*
X158812452Y-102297455D01*
X158726206Y-102412664D01*
X158726202Y-102412671D01*
X158675908Y-102547517D01*
X158669501Y-102607116D01*
X158669500Y-102607135D01*
X158669500Y-104402870D01*
X156048275Y-104402870D01*
X156113600Y-104309578D01*
X156213429Y-104095492D01*
X156213432Y-104095486D01*
X156270636Y-103882000D01*
X155373686Y-103882000D01*
X155399493Y-103841844D01*
X155440000Y-103703889D01*
X155440000Y-103560111D01*
X155399493Y-103422156D01*
X155373686Y-103382000D01*
X156270636Y-103382000D01*
X156270635Y-103381999D01*
X156213432Y-103168513D01*
X156213429Y-103168507D01*
X156113600Y-102954422D01*
X156113599Y-102954420D01*
X155978113Y-102760926D01*
X155978108Y-102760920D01*
X155811082Y-102593894D01*
X155617578Y-102458399D01*
X155403492Y-102358570D01*
X155403486Y-102358567D01*
X155190000Y-102301364D01*
X155190000Y-103196498D01*
X155082315Y-103147320D01*
X154975763Y-103132000D01*
X154904237Y-103132000D01*
X154797685Y-103147320D01*
X154690000Y-103196498D01*
X154690000Y-102301364D01*
X154689999Y-102301364D01*
X154476513Y-102358567D01*
X154476507Y-102358570D01*
X154262422Y-102458399D01*
X154262420Y-102458400D01*
X154068926Y-102593886D01*
X154068920Y-102593891D01*
X153901891Y-102760920D01*
X153901890Y-102760922D01*
X153771880Y-102946595D01*
X153717303Y-102990219D01*
X153647804Y-102997412D01*
X153585450Y-102965890D01*
X153568730Y-102946594D01*
X153438494Y-102760597D01*
X153271402Y-102593506D01*
X153271395Y-102593501D01*
X153264891Y-102588947D01*
X153223372Y-102559875D01*
X153077834Y-102457967D01*
X153077830Y-102457965D01*
X153055313Y-102447465D01*
X152863663Y-102358097D01*
X152863659Y-102358096D01*
X152863655Y-102358094D01*
X152635413Y-102296938D01*
X152635403Y-102296936D01*
X152400001Y-102276341D01*
X152399999Y-102276341D01*
X152164596Y-102296936D01*
X152164586Y-102296938D01*
X151936344Y-102358094D01*
X151936335Y-102358098D01*
X151722171Y-102457964D01*
X151722169Y-102457965D01*
X151528597Y-102593505D01*
X151361505Y-102760597D01*
X151231575Y-102946158D01*
X151176998Y-102989783D01*
X151107500Y-102996977D01*
X151045145Y-102965454D01*
X151028425Y-102946158D01*
X150898494Y-102760597D01*
X150731402Y-102593506D01*
X150731395Y-102593501D01*
X150724891Y-102588947D01*
X150683372Y-102559875D01*
X150537834Y-102457967D01*
X150537830Y-102457965D01*
X150515313Y-102447465D01*
X150323663Y-102358097D01*
X150323659Y-102358096D01*
X150323655Y-102358094D01*
X150095413Y-102296938D01*
X150095403Y-102296936D01*
X149860001Y-102276341D01*
X149859999Y-102276341D01*
X149624596Y-102296936D01*
X149624586Y-102296938D01*
X149396344Y-102358094D01*
X149396335Y-102358098D01*
X149182171Y-102457964D01*
X149182169Y-102457965D01*
X148988597Y-102593505D01*
X148821505Y-102760597D01*
X148691575Y-102946158D01*
X148636998Y-102989783D01*
X148567500Y-102996977D01*
X148505145Y-102965454D01*
X148488425Y-102946158D01*
X148358494Y-102760597D01*
X148191402Y-102593506D01*
X148191395Y-102593501D01*
X148184891Y-102588947D01*
X148143372Y-102559875D01*
X147997834Y-102457967D01*
X147997830Y-102457965D01*
X147975313Y-102447465D01*
X147783663Y-102358097D01*
X147783659Y-102358096D01*
X147783655Y-102358094D01*
X147555413Y-102296938D01*
X147555403Y-102296936D01*
X147320001Y-102276341D01*
X147319999Y-102276341D01*
X147084596Y-102296936D01*
X147084586Y-102296938D01*
X146856344Y-102358094D01*
X146856335Y-102358098D01*
X146642171Y-102457964D01*
X146642169Y-102457965D01*
X146448597Y-102593505D01*
X146281505Y-102760597D01*
X146151575Y-102946158D01*
X146096998Y-102989783D01*
X146027500Y-102996977D01*
X145965145Y-102965454D01*
X145948425Y-102946158D01*
X145818494Y-102760597D01*
X145651402Y-102593506D01*
X145651395Y-102593501D01*
X145644891Y-102588947D01*
X145603372Y-102559875D01*
X145457834Y-102457967D01*
X145457830Y-102457965D01*
X145435313Y-102447465D01*
X145243663Y-102358097D01*
X145243659Y-102358096D01*
X145243655Y-102358094D01*
X145015413Y-102296938D01*
X145015403Y-102296936D01*
X144780001Y-102276341D01*
X144779999Y-102276341D01*
X144544596Y-102296936D01*
X144544586Y-102296938D01*
X144316344Y-102358094D01*
X144316335Y-102358098D01*
X144102171Y-102457964D01*
X144102169Y-102457965D01*
X143908597Y-102593505D01*
X143741505Y-102760597D01*
X143611575Y-102946158D01*
X143556998Y-102989783D01*
X143487500Y-102996977D01*
X143425145Y-102965454D01*
X143408425Y-102946158D01*
X143278494Y-102760597D01*
X143111402Y-102593506D01*
X143111396Y-102593501D01*
X143029350Y-102536052D01*
X142985725Y-102481475D01*
X142978531Y-102411977D01*
X143010054Y-102349622D01*
X143012760Y-102346828D01*
X143991921Y-101367667D01*
X145403303Y-101367667D01*
X145524315Y-101400091D01*
X145526914Y-101400849D01*
X145560731Y-101411512D01*
X145563296Y-101412383D01*
X145606769Y-101428209D01*
X145609287Y-101429188D01*
X145642006Y-101442741D01*
X145644482Y-101443830D01*
X145900563Y-101563243D01*
X145902988Y-101564440D01*
X145934408Y-101580795D01*
X145936778Y-101582096D01*
X145976845Y-101605226D01*
X145979160Y-101606631D01*
X146009057Y-101625677D01*
X146011307Y-101627181D01*
X146049999Y-101654274D01*
X146088689Y-101627184D01*
X146090939Y-101625680D01*
X146120819Y-101606645D01*
X146123131Y-101605243D01*
X146163194Y-101582112D01*
X146165565Y-101580810D01*
X146197001Y-101564445D01*
X146199428Y-101563248D01*
X146455518Y-101443830D01*
X146457994Y-101442741D01*
X146490713Y-101429188D01*
X146493231Y-101428209D01*
X146536704Y-101412383D01*
X146539269Y-101411512D01*
X146573086Y-101400849D01*
X146575685Y-101400091D01*
X146848641Y-101326955D01*
X146851268Y-101326312D01*
X146874259Y-101321214D01*
X146874259Y-100573600D01*
X147872259Y-100573600D01*
X147872259Y-101348631D01*
X148064315Y-101400091D01*
X148066914Y-101400849D01*
X148100731Y-101411512D01*
X148103296Y-101412383D01*
X148146769Y-101428209D01*
X148149287Y-101429188D01*
X148182006Y-101442741D01*
X148184482Y-101443830D01*
X148440563Y-101563243D01*
X148442988Y-101564440D01*
X148474408Y-101580795D01*
X148476778Y-101582096D01*
X148516845Y-101605226D01*
X148519160Y-101606631D01*
X148549057Y-101625677D01*
X148551307Y-101627181D01*
X148589999Y-101654274D01*
X148628689Y-101627184D01*
X148630939Y-101625680D01*
X148660819Y-101606645D01*
X148663131Y-101605243D01*
X148703194Y-101582112D01*
X148705565Y-101580810D01*
X148737001Y-101564445D01*
X148739428Y-101563248D01*
X148995518Y-101443830D01*
X148997994Y-101442741D01*
X149030713Y-101429188D01*
X149033231Y-101428209D01*
X149076704Y-101412383D01*
X149079269Y-101411512D01*
X149113086Y-101400849D01*
X149115685Y-101400091D01*
X149374259Y-101330808D01*
X149374259Y-100573600D01*
X150372259Y-100573600D01*
X150372259Y-101337913D01*
X150604315Y-101400091D01*
X150606914Y-101400849D01*
X150640731Y-101411512D01*
X150643296Y-101412383D01*
X150686769Y-101428209D01*
X150689287Y-101429188D01*
X150722006Y-101442741D01*
X150724482Y-101443830D01*
X150980563Y-101563243D01*
X150982988Y-101564440D01*
X151014408Y-101580795D01*
X151016778Y-101582096D01*
X151056845Y-101605226D01*
X151059160Y-101606631D01*
X151089057Y-101625677D01*
X151091307Y-101627181D01*
X151129999Y-101654274D01*
X151168689Y-101627184D01*
X151170939Y-101625680D01*
X151200819Y-101606645D01*
X151203131Y-101605243D01*
X151243194Y-101582112D01*
X151245565Y-101580810D01*
X151277001Y-101564445D01*
X151279428Y-101563248D01*
X151535518Y-101443830D01*
X151537994Y-101442741D01*
X151570713Y-101429188D01*
X151573231Y-101428209D01*
X151616704Y-101412383D01*
X151619269Y-101411512D01*
X151653086Y-101400849D01*
X151655685Y-101400091D01*
X151837561Y-101351358D01*
X151834106Y-101349598D01*
X151802770Y-101332370D01*
X151769954Y-101318171D01*
X151766427Y-101316511D01*
X151720944Y-101293337D01*
X151717529Y-101291460D01*
X151660160Y-101257532D01*
X151656870Y-101255444D01*
X151624177Y-101233225D01*
X151590795Y-101212041D01*
X151587571Y-101209851D01*
X151533658Y-101170680D01*
X151530580Y-101168293D01*
X151491254Y-101135761D01*
X151488331Y-101133184D01*
X151453727Y-101100688D01*
X151430847Y-101080517D01*
X151429406Y-101079206D01*
X151410800Y-101061734D01*
X151409401Y-101060377D01*
X151387843Y-101038819D01*
X151324544Y-100979377D01*
X151321789Y-100976621D01*
X151286846Y-100939411D01*
X151284269Y-100936487D01*
X151278316Y-100929291D01*
X150922625Y-100573600D01*
X150372259Y-100573600D01*
X149374259Y-100573600D01*
X147872259Y-100573600D01*
X146874259Y-100573600D01*
X146180541Y-100573600D01*
X146172885Y-100584138D01*
X146170495Y-100587219D01*
X146137945Y-100626564D01*
X146135367Y-100629488D01*
X146102898Y-100664059D01*
X146082734Y-100686934D01*
X146081420Y-100688379D01*
X146063920Y-100707013D01*
X146062562Y-100708415D01*
X146041011Y-100729960D01*
X145981587Y-100793246D01*
X145978831Y-100796002D01*
X145941607Y-100830957D01*
X145938680Y-100833538D01*
X145931467Y-100839503D01*
X145403303Y-101367667D01*
X143991921Y-101367667D01*
X145258786Y-100100802D01*
X145271048Y-100090980D01*
X145270865Y-100090759D01*
X145276873Y-100085788D01*
X145276877Y-100085786D01*
X145323649Y-100035977D01*
X145324891Y-100034697D01*
X145345120Y-100014470D01*
X145349373Y-100008986D01*
X145353150Y-100004563D01*
X145385062Y-99970582D01*
X145394714Y-99953023D01*
X145405389Y-99936772D01*
X145417674Y-99920936D01*
X145436186Y-99878152D01*
X145438742Y-99872935D01*
X145461197Y-99832092D01*
X145466180Y-99812680D01*
X145472477Y-99794291D01*
X145480438Y-99775895D01*
X145487729Y-99729853D01*
X145488908Y-99724162D01*
X145500500Y-99679019D01*
X145500500Y-99658982D01*
X145502027Y-99639582D01*
X145505160Y-99619804D01*
X145500775Y-99573415D01*
X145500500Y-99567577D01*
X145500500Y-99218499D01*
X147872259Y-99218499D01*
X147872259Y-99575600D01*
X149374259Y-99575600D01*
X149374259Y-99218499D01*
X147872259Y-99218499D01*
X145500500Y-99218499D01*
X145500500Y-91397700D01*
X145520185Y-91330661D01*
X145572989Y-91284906D01*
X145624500Y-91273700D01*
X145694144Y-91273700D01*
X145694146Y-91273700D01*
X145803363Y-91250485D01*
X145873028Y-91255801D01*
G37*
%TD.AperFunction*%
%TA.AperFunction,Conductor*%
G36*
X143763724Y-97054201D02*
G01*
X143796828Y-97115731D01*
X143799500Y-97141336D01*
X143799500Y-99103150D01*
X143779815Y-99170189D01*
X143763181Y-99190832D01*
X143674687Y-99279325D01*
X143613363Y-99312809D01*
X143574085Y-99310000D01*
X142391500Y-99310000D01*
X142324461Y-99290315D01*
X142278706Y-99237511D01*
X142267500Y-99186000D01*
X142267500Y-97860000D01*
X142767500Y-97860000D01*
X142767500Y-98810000D01*
X143529999Y-98810000D01*
X143529999Y-98560028D01*
X143529998Y-98560013D01*
X143519505Y-98457302D01*
X143464358Y-98290880D01*
X143464356Y-98290875D01*
X143372315Y-98141654D01*
X143248345Y-98017684D01*
X143099124Y-97925643D01*
X143099119Y-97925641D01*
X142932697Y-97870494D01*
X142932690Y-97870493D01*
X142829986Y-97860000D01*
X142767500Y-97860000D01*
X142267500Y-97860000D01*
X142267499Y-97859999D01*
X142205028Y-97860000D01*
X142205011Y-97860001D01*
X142102302Y-97870494D01*
X141935880Y-97925641D01*
X141935875Y-97925643D01*
X141786657Y-98017682D01*
X141693034Y-98111305D01*
X141631710Y-98144789D01*
X141562019Y-98139805D01*
X141517673Y-98111305D01*
X141446818Y-98040450D01*
X141413334Y-97979126D01*
X141410500Y-97952769D01*
X141410500Y-97439500D01*
X141430185Y-97372461D01*
X141482989Y-97326706D01*
X141534500Y-97315500D01*
X143161119Y-97315500D01*
X143182884Y-97312886D01*
X143248185Y-97305044D01*
X143386738Y-97250406D01*
X143505412Y-97160412D01*
X143563772Y-97083453D01*
X143576696Y-97066411D01*
X143632889Y-97024887D01*
X143702610Y-97020336D01*
X143763724Y-97054201D01*
G37*
%TD.AperFunction*%
%TA.AperFunction,Conductor*%
G36*
X172441833Y-89296971D02*
G01*
X172473954Y-89315689D01*
X172474164Y-89315390D01*
X172477750Y-89317901D01*
X172478215Y-89318172D01*
X172478593Y-89318489D01*
X172478599Y-89318495D01*
X172671624Y-89453653D01*
X172715248Y-89508228D01*
X172724500Y-89555226D01*
X172724500Y-90600500D01*
X172704815Y-90667539D01*
X172652011Y-90713294D01*
X172600501Y-90724500D01*
X172457130Y-90724500D01*
X172457123Y-90724501D01*
X172397516Y-90730908D01*
X172262671Y-90781202D01*
X172262664Y-90781206D01*
X172147455Y-90867452D01*
X172147452Y-90867455D01*
X172061206Y-90982664D01*
X172061202Y-90982671D01*
X172010908Y-91117517D01*
X172004501Y-91177116D01*
X172004500Y-91177135D01*
X172004500Y-92972870D01*
X172004501Y-92972876D01*
X172010908Y-93032483D01*
X172061202Y-93167328D01*
X172061206Y-93167335D01*
X172147452Y-93282544D01*
X172147455Y-93282547D01*
X172262664Y-93368793D01*
X172262671Y-93368797D01*
X172320104Y-93390218D01*
X172394598Y-93418002D01*
X172450531Y-93459873D01*
X172474949Y-93525337D01*
X172460098Y-93593610D01*
X172438947Y-93621865D01*
X172316886Y-93743926D01*
X172181400Y-93937420D01*
X172181399Y-93937422D01*
X172081570Y-94151507D01*
X172081567Y-94151513D01*
X172024364Y-94364999D01*
X172024364Y-94365000D01*
X172921314Y-94365000D01*
X172895507Y-94405156D01*
X172855000Y-94543111D01*
X172855000Y-94686889D01*
X172895507Y-94824844D01*
X172921314Y-94865000D01*
X172024364Y-94865000D01*
X172081567Y-95078486D01*
X172081570Y-95078492D01*
X172181399Y-95292578D01*
X172316894Y-95486082D01*
X172483917Y-95653105D01*
X172669595Y-95783119D01*
X172713219Y-95837696D01*
X172720412Y-95907195D01*
X172688890Y-95969549D01*
X172669594Y-95986269D01*
X172512775Y-96096074D01*
X172446569Y-96118401D01*
X172378802Y-96101391D01*
X172353971Y-96082180D01*
X170223603Y-93951812D01*
X170213780Y-93939550D01*
X170213559Y-93939734D01*
X170208586Y-93933722D01*
X170158866Y-93887032D01*
X170157466Y-93885675D01*
X170137276Y-93865484D01*
X170131786Y-93861225D01*
X170127361Y-93857447D01*
X170093382Y-93825538D01*
X170093380Y-93825536D01*
X170093377Y-93825535D01*
X170075829Y-93815888D01*
X170059563Y-93805204D01*
X170046309Y-93794923D01*
X170043736Y-93792927D01*
X170043735Y-93792926D01*
X170043733Y-93792925D01*
X170000968Y-93774418D01*
X169995722Y-93771848D01*
X169954893Y-93749403D01*
X169954892Y-93749402D01*
X169935493Y-93744422D01*
X169917081Y-93738118D01*
X169898698Y-93730162D01*
X169898692Y-93730160D01*
X169852674Y-93722872D01*
X169846952Y-93721687D01*
X169801821Y-93710100D01*
X169801819Y-93710100D01*
X169781784Y-93710100D01*
X169762386Y-93708573D01*
X169754962Y-93707397D01*
X169742605Y-93705440D01*
X169742604Y-93705440D01*
X169696216Y-93709825D01*
X169690378Y-93710100D01*
X169207348Y-93710100D01*
X169140309Y-93690415D01*
X169115200Y-93669074D01*
X169109473Y-93662714D01*
X169109469Y-93662710D01*
X168956334Y-93551451D01*
X168956329Y-93551448D01*
X168783407Y-93474457D01*
X168783402Y-93474455D01*
X168620988Y-93439934D01*
X168598246Y-93435100D01*
X168500552Y-93435100D01*
X168433513Y-93415415D01*
X168387758Y-93362611D01*
X168377814Y-93293453D01*
X168406839Y-93229897D01*
X168412871Y-93223419D01*
X170385805Y-91250485D01*
X172310820Y-89325470D01*
X172372141Y-89291987D01*
X172441833Y-89296971D01*
G37*
%TD.AperFunction*%
%TA.AperFunction,Conductor*%
G36*
X141002506Y-80782585D02*
G01*
X141048261Y-80835389D01*
X141058205Y-80904547D01*
X141031007Y-80965944D01*
X141016308Y-80983711D01*
X141012377Y-80988032D01*
X140586211Y-81414197D01*
X140573948Y-81424022D01*
X140574131Y-81424244D01*
X140568120Y-81429216D01*
X140521432Y-81478933D01*
X140520078Y-81480330D01*
X140499889Y-81500519D01*
X140499877Y-81500532D01*
X140495621Y-81506017D01*
X140491837Y-81510447D01*
X140459937Y-81544418D01*
X140459936Y-81544420D01*
X140450284Y-81561976D01*
X140439610Y-81578226D01*
X140427329Y-81594061D01*
X140427324Y-81594068D01*
X140408815Y-81636838D01*
X140406245Y-81642084D01*
X140383803Y-81682906D01*
X140378822Y-81702307D01*
X140372521Y-81720710D01*
X140364562Y-81739102D01*
X140364561Y-81739105D01*
X140357271Y-81785127D01*
X140356087Y-81790846D01*
X140344501Y-81835972D01*
X140344500Y-81835982D01*
X140344500Y-81856016D01*
X140342973Y-81875415D01*
X140339840Y-81895194D01*
X140339840Y-81895195D01*
X140344225Y-81941583D01*
X140344500Y-81947421D01*
X140344500Y-83102255D01*
X140342775Y-83117872D01*
X140343061Y-83117899D01*
X140342326Y-83125666D01*
X140344469Y-83193846D01*
X140344500Y-83195793D01*
X140344500Y-83224343D01*
X140344501Y-83224360D01*
X140345368Y-83231231D01*
X140345826Y-83237050D01*
X140347290Y-83283624D01*
X140347291Y-83283627D01*
X140352880Y-83302867D01*
X140356824Y-83321911D01*
X140359336Y-83341792D01*
X140372791Y-83375776D01*
X140376490Y-83385119D01*
X140378382Y-83390647D01*
X140391176Y-83434684D01*
X140391382Y-83435390D01*
X140399124Y-83448482D01*
X140401580Y-83452634D01*
X140410138Y-83470103D01*
X140417514Y-83488732D01*
X140444898Y-83526423D01*
X140448106Y-83531307D01*
X140471827Y-83571416D01*
X140471833Y-83571424D01*
X140485990Y-83585580D01*
X140498628Y-83600376D01*
X140510405Y-83616586D01*
X140510406Y-83616587D01*
X140546309Y-83646288D01*
X140550620Y-83650210D01*
X140829862Y-83929452D01*
X141104194Y-84203784D01*
X141114019Y-84216048D01*
X141114240Y-84215866D01*
X141119210Y-84221874D01*
X141168949Y-84268582D01*
X141170316Y-84269906D01*
X141190530Y-84290120D01*
X141196004Y-84294366D01*
X141200442Y-84298156D01*
X141234418Y-84330062D01*
X141234422Y-84330064D01*
X141251973Y-84339713D01*
X141268231Y-84350392D01*
X141284064Y-84362674D01*
X141306015Y-84372172D01*
X141326837Y-84381183D01*
X141332081Y-84383752D01*
X141372908Y-84406197D01*
X141392312Y-84411179D01*
X141410710Y-84417478D01*
X141429105Y-84425438D01*
X141475129Y-84432726D01*
X141480832Y-84433907D01*
X141525981Y-84445500D01*
X141546016Y-84445500D01*
X141565413Y-84447026D01*
X141585196Y-84450160D01*
X141631583Y-84445775D01*
X141637422Y-84445500D01*
X143675500Y-84445500D01*
X143742539Y-84465185D01*
X143788294Y-84517989D01*
X143799500Y-84569500D01*
X143799500Y-84801000D01*
X143779815Y-84868039D01*
X143727011Y-84913794D01*
X143675500Y-84925000D01*
X143550000Y-84925000D01*
X143550000Y-85851000D01*
X143530315Y-85918039D01*
X143477511Y-85963794D01*
X143426000Y-85975000D01*
X142002705Y-85975000D01*
X142002704Y-85975001D01*
X142002899Y-85977486D01*
X142048718Y-86135197D01*
X142075310Y-86180163D01*
X142092491Y-86247887D01*
X142070331Y-86314150D01*
X142015865Y-86357912D01*
X141972471Y-86367222D01*
X141900940Y-86369469D01*
X141898993Y-86369500D01*
X141870449Y-86369500D01*
X141863578Y-86370367D01*
X141857759Y-86370825D01*
X141811174Y-86372289D01*
X141811168Y-86372290D01*
X141791926Y-86377880D01*
X141772887Y-86381823D01*
X141753017Y-86384334D01*
X141753003Y-86384337D01*
X141709683Y-86401488D01*
X141704158Y-86403380D01*
X141659413Y-86416380D01*
X141659410Y-86416381D01*
X141642166Y-86426579D01*
X141624705Y-86435133D01*
X141606074Y-86442510D01*
X141606062Y-86442517D01*
X141568370Y-86469902D01*
X141563487Y-86473109D01*
X141523380Y-86496829D01*
X141509214Y-86510995D01*
X141494424Y-86523627D01*
X141478214Y-86535404D01*
X141478211Y-86535407D01*
X141448514Y-86571304D01*
X141444582Y-86575626D01*
X141327029Y-86693180D01*
X141265706Y-86726666D01*
X141239347Y-86729500D01*
X141180154Y-86729500D01*
X141147697Y-86736398D01*
X140994997Y-86768855D01*
X140994992Y-86768857D01*
X140822070Y-86845848D01*
X140822065Y-86845851D01*
X140668931Y-86957110D01*
X140668927Y-86957113D01*
X140663286Y-86963378D01*
X140603797Y-87000022D01*
X140575057Y-87004337D01*
X140570882Y-87004469D01*
X140568924Y-87004500D01*
X140540345Y-87004500D01*
X140539624Y-87004590D01*
X140533452Y-87005369D01*
X140527640Y-87005826D01*
X140481068Y-87007290D01*
X140481067Y-87007290D01*
X140461824Y-87012881D01*
X140442774Y-87016825D01*
X140422906Y-87019334D01*
X140422904Y-87019335D01*
X140379579Y-87036488D01*
X140374052Y-87038380D01*
X140329305Y-87051381D01*
X140329304Y-87051382D01*
X140312062Y-87061579D01*
X140294594Y-87070137D01*
X140275964Y-87077513D01*
X140275962Y-87077514D01*
X140238271Y-87104898D01*
X140233389Y-87108105D01*
X140193274Y-87131830D01*
X140179103Y-87146000D01*
X140164318Y-87158628D01*
X140148107Y-87170407D01*
X140118404Y-87206310D01*
X140114472Y-87210631D01*
X138757408Y-88567694D01*
X138745151Y-88577515D01*
X138745334Y-88577736D01*
X138739322Y-88582709D01*
X138692632Y-88632427D01*
X138691279Y-88633824D01*
X138671089Y-88654014D01*
X138671077Y-88654027D01*
X138666821Y-88659512D01*
X138663037Y-88663942D01*
X138631137Y-88697913D01*
X138631136Y-88697915D01*
X138621484Y-88715471D01*
X138610810Y-88731721D01*
X138598529Y-88747556D01*
X138598524Y-88747563D01*
X138580015Y-88790333D01*
X138577445Y-88795579D01*
X138555003Y-88836401D01*
X138550022Y-88855802D01*
X138543721Y-88874205D01*
X138535762Y-88892597D01*
X138535761Y-88892600D01*
X138528471Y-88938622D01*
X138527287Y-88944341D01*
X138515701Y-88989467D01*
X138515700Y-88989477D01*
X138515700Y-89009511D01*
X138514173Y-89028910D01*
X138511040Y-89048689D01*
X138511040Y-89048690D01*
X138515425Y-89095078D01*
X138515700Y-89100916D01*
X138515700Y-89692752D01*
X138513505Y-89715979D01*
X138511973Y-89724012D01*
X138515578Y-89781324D01*
X138515700Y-89785195D01*
X138515700Y-89802956D01*
X138517925Y-89820568D01*
X138518291Y-89824443D01*
X138521896Y-89881738D01*
X138524422Y-89889514D01*
X138529509Y-89912272D01*
X138530534Y-89920384D01*
X138530536Y-89920392D01*
X138551669Y-89973770D01*
X138552988Y-89977433D01*
X138570732Y-90032040D01*
X138575107Y-90038933D01*
X138585703Y-90059729D01*
X138588711Y-90067326D01*
X138588713Y-90067331D01*
X138622465Y-90113787D01*
X138624655Y-90117009D01*
X138655413Y-90165476D01*
X138661364Y-90171064D01*
X138676804Y-90188578D01*
X138681603Y-90195185D01*
X138725847Y-90231787D01*
X138728767Y-90234361D01*
X138770618Y-90273662D01*
X138777778Y-90277598D01*
X138797079Y-90290714D01*
X138803377Y-90295924D01*
X138803378Y-90295924D01*
X138803379Y-90295925D01*
X138855325Y-90320369D01*
X138858797Y-90322138D01*
X138909103Y-90349795D01*
X138909105Y-90349795D01*
X138909108Y-90349797D01*
X138914405Y-90351156D01*
X138917014Y-90351827D01*
X138938977Y-90359733D01*
X138946374Y-90363214D01*
X139002776Y-90373973D01*
X139006562Y-90374819D01*
X139062181Y-90389100D01*
X139070353Y-90389100D01*
X139093585Y-90391296D01*
X139095189Y-90391601D01*
X139101612Y-90392827D01*
X139158924Y-90389221D01*
X139162797Y-90389100D01*
X139862843Y-90389100D01*
X139929882Y-90408785D01*
X139950524Y-90425419D01*
X140286391Y-90761287D01*
X140296216Y-90773550D01*
X140296437Y-90773368D01*
X140301405Y-90779373D01*
X140301407Y-90779375D01*
X140301408Y-90779376D01*
X140303355Y-90781204D01*
X140351126Y-90826065D01*
X140352526Y-90827422D01*
X140372717Y-90847614D01*
X140372721Y-90847617D01*
X140372723Y-90847619D01*
X140378205Y-90851872D01*
X140382637Y-90855656D01*
X140416612Y-90887561D01*
X140434170Y-90897213D01*
X140450429Y-90907894D01*
X140466258Y-90920172D01*
X140509032Y-90938681D01*
X140514250Y-90941237D01*
X140555102Y-90963696D01*
X140574510Y-90968679D01*
X140592911Y-90974979D01*
X140611298Y-90982936D01*
X140654682Y-90989807D01*
X140657313Y-90990224D01*
X140663033Y-90991408D01*
X140708175Y-91002999D01*
X140719153Y-91002999D01*
X140786192Y-91022684D01*
X140811301Y-91044025D01*
X140817028Y-91050385D01*
X140817036Y-91050392D01*
X140970166Y-91161647D01*
X140970171Y-91161650D01*
X141143093Y-91238641D01*
X141143098Y-91238643D01*
X141328255Y-91277999D01*
X141328256Y-91277999D01*
X141517545Y-91277999D01*
X141517547Y-91277999D01*
X141702704Y-91238643D01*
X141875631Y-91161650D01*
X142028772Y-91050387D01*
X142034501Y-91044025D01*
X142039423Y-91038558D01*
X142098909Y-91001908D01*
X142168766Y-91003237D01*
X142219256Y-91033847D01*
X142848181Y-91662771D01*
X142881666Y-91724094D01*
X142884500Y-91750452D01*
X142884500Y-91791000D01*
X142864815Y-91858039D01*
X142812011Y-91903794D01*
X142760500Y-91915000D01*
X142425000Y-91915000D01*
X142425000Y-92836000D01*
X142405315Y-92903039D01*
X142352511Y-92948794D01*
X142301000Y-92960000D01*
X140690000Y-92960000D01*
X140690000Y-93006071D01*
X140700445Y-93093063D01*
X140755035Y-93231493D01*
X140783979Y-93269661D01*
X140808802Y-93334972D01*
X140794374Y-93403336D01*
X140783979Y-93419511D01*
X140754595Y-93458259D01*
X140699955Y-93596816D01*
X140699955Y-93596817D01*
X140689500Y-93683881D01*
X140689500Y-94084120D01*
X140669815Y-94151159D01*
X140653181Y-94171801D01*
X140401208Y-94423773D01*
X140388951Y-94433594D01*
X140389134Y-94433815D01*
X140383122Y-94438788D01*
X140336432Y-94488506D01*
X140335079Y-94489903D01*
X140314889Y-94510093D01*
X140314877Y-94510106D01*
X140310621Y-94515591D01*
X140306837Y-94520021D01*
X140274937Y-94553992D01*
X140274936Y-94553994D01*
X140265284Y-94571550D01*
X140254610Y-94587800D01*
X140242329Y-94603635D01*
X140242324Y-94603642D01*
X140223815Y-94646412D01*
X140221245Y-94651658D01*
X140198803Y-94692480D01*
X140193822Y-94711881D01*
X140187521Y-94730284D01*
X140179562Y-94748676D01*
X140179561Y-94748679D01*
X140172271Y-94794701D01*
X140171087Y-94800420D01*
X140159501Y-94845546D01*
X140159500Y-94845556D01*
X140159500Y-94865590D01*
X140157973Y-94884989D01*
X140154840Y-94904768D01*
X140154840Y-94904769D01*
X140159225Y-94951157D01*
X140159500Y-94956995D01*
X140159500Y-95556539D01*
X140139815Y-95623578D01*
X140087011Y-95669333D01*
X140017853Y-95679277D01*
X139954297Y-95650252D01*
X139917569Y-95594857D01*
X139892181Y-95516722D01*
X139892180Y-95516721D01*
X139892179Y-95516716D01*
X139797533Y-95352784D01*
X139670871Y-95212112D01*
X139665670Y-95208333D01*
X139517734Y-95100851D01*
X139517729Y-95100848D01*
X139344807Y-95023857D01*
X139344802Y-95023855D01*
X139193157Y-94991623D01*
X139159646Y-94984500D01*
X138970354Y-94984500D01*
X138970352Y-94984500D01*
X138853270Y-95009386D01*
X138783603Y-95004070D01*
X138727870Y-94961932D01*
X138704375Y-94902880D01*
X138702914Y-94890713D01*
X138700044Y-94866815D01*
X138645406Y-94728262D01*
X138616333Y-94689924D01*
X138591510Y-94624614D01*
X138605937Y-94556250D01*
X138616325Y-94540085D01*
X138645406Y-94501738D01*
X138700044Y-94363185D01*
X138710500Y-94276118D01*
X138710500Y-93683882D01*
X138700044Y-93596815D01*
X138645406Y-93458262D01*
X138644286Y-93456785D01*
X138616335Y-93419926D01*
X138591511Y-93354614D01*
X138605939Y-93286251D01*
X138616335Y-93270074D01*
X138631865Y-93249594D01*
X138645406Y-93231738D01*
X138700044Y-93093185D01*
X138710500Y-93006118D01*
X138710500Y-92460000D01*
X140690000Y-92460000D01*
X141925000Y-92460000D01*
X141925000Y-91915000D01*
X141188928Y-91915000D01*
X141101936Y-91925445D01*
X140963508Y-91980034D01*
X140844945Y-92069945D01*
X140755034Y-92188508D01*
X140700445Y-92326936D01*
X140690000Y-92413928D01*
X140690000Y-92460000D01*
X138710500Y-92460000D01*
X138710500Y-92413882D01*
X138700044Y-92326815D01*
X138645406Y-92188262D01*
X138555412Y-92069588D01*
X138436738Y-91979594D01*
X138298185Y-91924956D01*
X138298184Y-91924955D01*
X138298182Y-91924955D01*
X138211119Y-91914500D01*
X138211118Y-91914500D01*
X136238882Y-91914500D01*
X136238881Y-91914500D01*
X136151817Y-91924955D01*
X136151816Y-91924955D01*
X136013259Y-91979595D01*
X135908151Y-92059303D01*
X135842840Y-92084127D01*
X135833225Y-92084500D01*
X135337743Y-92084500D01*
X135322122Y-92082775D01*
X135322096Y-92083061D01*
X135314333Y-92082326D01*
X135246153Y-92084469D01*
X135244206Y-92084500D01*
X135215649Y-92084500D01*
X135208766Y-92085369D01*
X135202949Y-92085826D01*
X135156373Y-92087290D01*
X135137129Y-92092881D01*
X135118079Y-92096825D01*
X135098211Y-92099334D01*
X135054884Y-92116488D01*
X135049358Y-92118379D01*
X135004614Y-92131379D01*
X135004610Y-92131381D01*
X134987366Y-92141579D01*
X134969905Y-92150133D01*
X134951274Y-92157510D01*
X134951262Y-92157517D01*
X134913570Y-92184902D01*
X134908687Y-92188109D01*
X134868580Y-92211829D01*
X134854414Y-92225995D01*
X134839624Y-92238627D01*
X134823414Y-92250404D01*
X134823411Y-92250407D01*
X134793710Y-92286309D01*
X134789777Y-92290631D01*
X134457228Y-92623181D01*
X134395905Y-92656666D01*
X134369547Y-92659500D01*
X133904499Y-92659500D01*
X133837460Y-92639815D01*
X133791705Y-92587011D01*
X133780499Y-92535500D01*
X133780499Y-91487129D01*
X133780498Y-91487123D01*
X133774091Y-91427516D01*
X133723797Y-91292671D01*
X133723793Y-91292664D01*
X133637547Y-91177455D01*
X133637544Y-91177452D01*
X133522335Y-91091206D01*
X133522328Y-91091202D01*
X133387482Y-91040908D01*
X133387483Y-91040908D01*
X133327883Y-91034501D01*
X133327881Y-91034500D01*
X133327873Y-91034500D01*
X133327864Y-91034500D01*
X130832129Y-91034500D01*
X130832123Y-91034501D01*
X130772516Y-91040908D01*
X130637671Y-91091202D01*
X130637664Y-91091206D01*
X130522455Y-91177452D01*
X130522452Y-91177455D01*
X130436206Y-91292664D01*
X130436202Y-91292671D01*
X130385909Y-91427516D01*
X130384853Y-91437336D01*
X130358113Y-91501886D01*
X130300719Y-91541732D01*
X130230894Y-91544223D01*
X130170806Y-91508568D01*
X130139533Y-91446088D01*
X130137565Y-91423939D01*
X130143076Y-86871872D01*
X130162841Y-86804861D01*
X130215700Y-86759170D01*
X130284871Y-86749311D01*
X130348391Y-86778412D01*
X130354756Y-86784346D01*
X130739762Y-87169352D01*
X130773247Y-87230675D01*
X130771856Y-87289126D01*
X130744938Y-87389586D01*
X130744936Y-87389596D01*
X130724341Y-87624999D01*
X130724341Y-87625000D01*
X130744936Y-87860403D01*
X130744938Y-87860413D01*
X130806094Y-88088655D01*
X130806096Y-88088659D01*
X130806097Y-88088663D01*
X130818775Y-88115851D01*
X130905965Y-88302830D01*
X130905967Y-88302834D01*
X131011297Y-88453259D01*
X131041505Y-88496401D01*
X131208599Y-88663495D01*
X131292694Y-88722379D01*
X131402165Y-88799032D01*
X131402167Y-88799033D01*
X131402170Y-88799035D01*
X131616337Y-88898903D01*
X131616343Y-88898904D01*
X131616344Y-88898905D01*
X131655886Y-88909500D01*
X131844592Y-88960063D01*
X132032918Y-88976539D01*
X132079999Y-88980659D01*
X132080000Y-88980659D01*
X132080001Y-88980659D01*
X132122176Y-88976969D01*
X132315408Y-88960063D01*
X132415873Y-88933143D01*
X132485722Y-88934806D01*
X132535646Y-88965236D01*
X133024060Y-89453651D01*
X133489197Y-89918788D01*
X133499022Y-89931051D01*
X133499243Y-89930869D01*
X133504211Y-89936874D01*
X133504213Y-89936876D01*
X133504214Y-89936877D01*
X133518265Y-89950072D01*
X133553932Y-89983566D01*
X133555332Y-89984923D01*
X133575523Y-90005115D01*
X133575527Y-90005118D01*
X133575529Y-90005120D01*
X133581011Y-90009373D01*
X133585443Y-90013157D01*
X133619418Y-90045062D01*
X133636976Y-90054714D01*
X133653233Y-90065393D01*
X133669064Y-90077673D01*
X133688737Y-90086186D01*
X133711833Y-90096182D01*
X133717077Y-90098750D01*
X133757908Y-90121197D01*
X133770523Y-90124435D01*
X133777305Y-90126177D01*
X133795719Y-90132481D01*
X133814104Y-90140438D01*
X133860157Y-90147732D01*
X133865826Y-90148906D01*
X133910981Y-90160500D01*
X133931016Y-90160500D01*
X133950413Y-90162026D01*
X133970196Y-90165160D01*
X134016583Y-90160775D01*
X134022422Y-90160500D01*
X134954191Y-90160500D01*
X135021230Y-90180185D01*
X135041872Y-90196819D01*
X135048129Y-90203076D01*
X135048133Y-90203079D01*
X135048135Y-90203081D01*
X135189602Y-90286744D01*
X135221203Y-90295925D01*
X135347426Y-90332597D01*
X135347429Y-90332597D01*
X135347431Y-90332598D01*
X135384306Y-90335500D01*
X135384314Y-90335500D01*
X136815686Y-90335500D01*
X136815694Y-90335500D01*
X136852569Y-90332598D01*
X136852571Y-90332597D01*
X136852573Y-90332597D01*
X136894661Y-90320369D01*
X137010398Y-90286744D01*
X137151865Y-90203081D01*
X137268081Y-90086865D01*
X137351744Y-89945398D01*
X137397598Y-89787569D01*
X137400500Y-89750694D01*
X137400500Y-89319306D01*
X137397598Y-89282431D01*
X137390448Y-89257822D01*
X137351745Y-89124606D01*
X137351744Y-89124603D01*
X137351744Y-89124602D01*
X137268081Y-88983135D01*
X137268078Y-88983132D01*
X137263298Y-88976969D01*
X137265635Y-88975155D01*
X137238798Y-88926050D01*
X137243756Y-88856356D01*
X137264554Y-88823998D01*
X137262903Y-88822717D01*
X137267686Y-88816550D01*
X137351281Y-88675198D01*
X137397100Y-88517486D01*
X137397295Y-88515001D01*
X137397295Y-88515000D01*
X134802705Y-88515000D01*
X134802704Y-88515001D01*
X134802899Y-88517486D01*
X134848718Y-88675198D01*
X134876621Y-88722379D01*
X134893804Y-88790103D01*
X134871644Y-88856365D01*
X134817178Y-88900129D01*
X134769889Y-88909500D01*
X134300452Y-88909500D01*
X134233413Y-88889815D01*
X134212771Y-88873181D01*
X133420237Y-88080647D01*
X133386752Y-88019324D01*
X133386855Y-88014998D01*
X134802704Y-88014998D01*
X134802705Y-88015000D01*
X135850000Y-88015000D01*
X135850000Y-87245000D01*
X136350000Y-87245000D01*
X136350000Y-88015000D01*
X137397295Y-88015000D01*
X137397295Y-88014998D01*
X137397100Y-88012513D01*
X137351281Y-87854801D01*
X137267685Y-87713447D01*
X137262900Y-87707278D01*
X137265252Y-87705453D01*
X137238445Y-87656405D01*
X137243402Y-87586712D01*
X137264465Y-87553936D01*
X137262900Y-87552722D01*
X137267685Y-87546552D01*
X137351281Y-87405198D01*
X137397100Y-87247486D01*
X137397295Y-87245001D01*
X137397295Y-87245000D01*
X136350000Y-87245000D01*
X135850000Y-87245000D01*
X134802705Y-87245000D01*
X134802704Y-87245001D01*
X134802899Y-87247486D01*
X134848718Y-87405198D01*
X134932313Y-87546550D01*
X134937097Y-87552717D01*
X134934751Y-87554536D01*
X134961564Y-87603641D01*
X134956580Y-87673333D01*
X134935550Y-87706083D01*
X134937097Y-87707283D01*
X134932313Y-87713449D01*
X134848718Y-87854801D01*
X134802899Y-88012513D01*
X134802704Y-88014998D01*
X133386855Y-88014998D01*
X133388143Y-87960872D01*
X133415063Y-87860408D01*
X133435659Y-87625000D01*
X133415063Y-87389592D01*
X133353903Y-87161337D01*
X133254035Y-86947171D01*
X133242580Y-86930812D01*
X133118496Y-86753600D01*
X133109894Y-86744998D01*
X134802704Y-86744998D01*
X134802705Y-86745000D01*
X135850000Y-86745000D01*
X135850000Y-85975000D01*
X136350000Y-85975000D01*
X136350000Y-86745000D01*
X137397295Y-86745000D01*
X137397295Y-86744998D01*
X137397100Y-86742513D01*
X137351281Y-86584801D01*
X137267686Y-86443449D01*
X137262903Y-86437283D01*
X137265242Y-86435468D01*
X137238425Y-86386310D01*
X137240317Y-86360000D01*
X138325235Y-86360000D01*
X138363024Y-86490065D01*
X138363829Y-86493126D01*
X138373348Y-86533469D01*
X138373996Y-86536567D01*
X138383723Y-86589825D01*
X138384213Y-86592955D01*
X138389573Y-86634089D01*
X138389902Y-86637238D01*
X138408778Y-86877160D01*
X138402315Y-86927514D01*
X138378911Y-86994999D01*
X138402315Y-87062486D01*
X138403998Y-87075600D01*
X138838117Y-87075600D01*
X139374259Y-86539458D01*
X139374259Y-85573600D01*
X138406138Y-85573600D01*
X138408778Y-85607161D01*
X138402315Y-85657514D01*
X138378911Y-85725000D01*
X138402315Y-85792486D01*
X138408778Y-85842840D01*
X138389902Y-86082762D01*
X138389573Y-86085911D01*
X138384213Y-86127045D01*
X138383723Y-86130175D01*
X138373996Y-86183433D01*
X138373348Y-86186531D01*
X138363829Y-86226874D01*
X138363024Y-86229935D01*
X138325235Y-86360000D01*
X137240317Y-86360000D01*
X137243436Y-86316620D01*
X137264463Y-86283927D01*
X137262903Y-86282717D01*
X137267686Y-86276550D01*
X137351281Y-86135198D01*
X137397100Y-85977486D01*
X137397295Y-85975001D01*
X137397295Y-85975000D01*
X136350000Y-85975000D01*
X135850000Y-85975000D01*
X134802705Y-85975000D01*
X134802704Y-85975001D01*
X134802899Y-85977486D01*
X134848718Y-86135198D01*
X134932314Y-86276552D01*
X134937100Y-86282722D01*
X134934753Y-86284542D01*
X134961564Y-86333642D01*
X134956580Y-86403334D01*
X134935541Y-86436069D01*
X134937100Y-86437278D01*
X134932314Y-86443447D01*
X134848718Y-86584801D01*
X134802899Y-86742513D01*
X134802704Y-86744998D01*
X133109894Y-86744998D01*
X133058076Y-86693180D01*
X132996179Y-86631283D01*
X132962696Y-86569963D01*
X132967680Y-86500271D01*
X133009551Y-86444337D01*
X133040529Y-86427422D01*
X133172086Y-86378354D01*
X133172093Y-86378350D01*
X133287187Y-86292190D01*
X133287190Y-86292187D01*
X133373350Y-86177093D01*
X133373354Y-86177086D01*
X133423596Y-86042379D01*
X133423598Y-86042372D01*
X133429999Y-85982844D01*
X133430000Y-85982827D01*
X133430000Y-85474998D01*
X134802704Y-85474998D01*
X134802705Y-85475000D01*
X135850000Y-85475000D01*
X135850000Y-84925000D01*
X136350000Y-84925000D01*
X136350000Y-85475000D01*
X137397295Y-85475000D01*
X137397295Y-85474998D01*
X142002704Y-85474998D01*
X142002705Y-85475000D01*
X143050000Y-85475000D01*
X143050000Y-84925000D01*
X142584350Y-84925000D01*
X142547510Y-84927899D01*
X142547504Y-84927900D01*
X142389806Y-84973716D01*
X142389803Y-84973717D01*
X142248447Y-85057314D01*
X142248438Y-85057321D01*
X142132321Y-85173438D01*
X142132314Y-85173447D01*
X142048718Y-85314801D01*
X142002899Y-85472513D01*
X142002704Y-85474998D01*
X137397295Y-85474998D01*
X137397100Y-85472513D01*
X137351281Y-85314801D01*
X137267685Y-85173447D01*
X137267678Y-85173438D01*
X137151561Y-85057321D01*
X137151552Y-85057314D01*
X137010196Y-84973717D01*
X137010193Y-84973716D01*
X136852495Y-84927900D01*
X136852489Y-84927899D01*
X136815649Y-84925000D01*
X136350000Y-84925000D01*
X135850000Y-84925000D01*
X135384350Y-84925000D01*
X135347510Y-84927899D01*
X135347504Y-84927900D01*
X135189806Y-84973716D01*
X135189803Y-84973717D01*
X135048447Y-85057314D01*
X135048438Y-85057321D01*
X134932321Y-85173438D01*
X134932314Y-85173447D01*
X134848718Y-85314801D01*
X134802899Y-85472513D01*
X134802704Y-85474998D01*
X133430000Y-85474998D01*
X133430000Y-85335000D01*
X132513686Y-85335000D01*
X132539493Y-85294844D01*
X132580000Y-85156889D01*
X132580000Y-85013111D01*
X132539493Y-84875156D01*
X132513686Y-84835000D01*
X133430000Y-84835000D01*
X133430000Y-84366633D01*
X137872259Y-84366633D01*
X137996939Y-84491315D01*
X137999606Y-84494155D01*
X138033361Y-84532443D01*
X138035845Y-84535445D01*
X138066991Y-84575600D01*
X139374259Y-84575600D01*
X139374259Y-83506633D01*
X139367524Y-83476501D01*
X139366794Y-83472676D01*
X139356367Y-83406858D01*
X139355879Y-83402992D01*
X139351075Y-83352182D01*
X139350830Y-83348295D01*
X139349513Y-83306422D01*
X139338727Y-83302244D01*
X138997129Y-83643842D01*
X138974326Y-83671410D01*
X138971749Y-83674332D01*
X138936813Y-83711537D01*
X138934058Y-83714292D01*
X138885473Y-83759916D01*
X138882549Y-83762495D01*
X138852108Y-83787674D01*
X138822440Y-83813833D01*
X138819435Y-83816319D01*
X138766765Y-83857173D01*
X138763613Y-83859463D01*
X138721395Y-83888153D01*
X138718104Y-83890242D01*
X138687330Y-83908439D01*
X138658412Y-83929452D01*
X138655190Y-83931642D01*
X138612102Y-83958989D01*
X138608747Y-83960973D01*
X138550341Y-83993084D01*
X138546868Y-83994853D01*
X138511045Y-84011709D01*
X138475852Y-84029644D01*
X138472323Y-84031305D01*
X138411154Y-84057774D01*
X138407532Y-84059208D01*
X138359515Y-84076495D01*
X138355809Y-84077699D01*
X138321466Y-84087675D01*
X138288206Y-84100845D01*
X138284540Y-84102165D01*
X138235996Y-84117938D01*
X138232253Y-84119025D01*
X138167690Y-84135601D01*
X138163885Y-84136452D01*
X138125023Y-84143862D01*
X138086540Y-84152469D01*
X138082711Y-84153199D01*
X138016872Y-84163631D01*
X138013003Y-84164120D01*
X137962164Y-84168926D01*
X137958273Y-84169171D01*
X137910844Y-84170659D01*
X137880432Y-84172575D01*
X137878482Y-84172667D01*
X137872259Y-84172862D01*
X137872259Y-84366633D01*
X133430000Y-84366633D01*
X133430000Y-84187172D01*
X133429999Y-84187155D01*
X133423598Y-84127627D01*
X133423596Y-84127620D01*
X133373354Y-83992913D01*
X133373350Y-83992906D01*
X133287190Y-83877812D01*
X133287187Y-83877809D01*
X133172093Y-83791649D01*
X133172086Y-83791645D01*
X133037379Y-83741403D01*
X133037372Y-83741401D01*
X132977844Y-83735000D01*
X132330000Y-83735000D01*
X132329999Y-84649498D01*
X132222315Y-84600320D01*
X132115763Y-84585000D01*
X132044237Y-84585000D01*
X131937685Y-84600320D01*
X131829999Y-84649498D01*
X131830000Y-83735000D01*
X131672552Y-83735000D01*
X131605513Y-83715315D01*
X131559758Y-83662511D01*
X131549814Y-83593353D01*
X131578839Y-83529797D01*
X131584862Y-83523328D01*
X131768971Y-83339219D01*
X131830295Y-83305734D01*
X131856653Y-83302900D01*
X134979591Y-83302900D01*
X135046630Y-83322585D01*
X135067272Y-83339219D01*
X135073529Y-83345476D01*
X135073533Y-83345479D01*
X135073535Y-83345481D01*
X135215002Y-83429144D01*
X135219033Y-83430315D01*
X135372826Y-83474997D01*
X135372829Y-83474997D01*
X135372831Y-83474998D01*
X135409706Y-83477900D01*
X135409714Y-83477900D01*
X136841086Y-83477900D01*
X136841094Y-83477900D01*
X136877969Y-83474998D01*
X136877971Y-83474997D01*
X136877973Y-83474997D01*
X136933767Y-83458787D01*
X137035798Y-83429144D01*
X137177265Y-83345481D01*
X137293481Y-83229265D01*
X137293482Y-83229262D01*
X137297954Y-83223499D01*
X137354597Y-83182592D01*
X137395933Y-83175500D01*
X137712257Y-83175500D01*
X137727877Y-83177224D01*
X137727904Y-83176939D01*
X137735666Y-83177673D01*
X137735666Y-83177672D01*
X137735667Y-83177673D01*
X137738999Y-83177568D01*
X137803847Y-83175531D01*
X137805794Y-83175500D01*
X137834347Y-83175500D01*
X137834350Y-83175500D01*
X137841228Y-83174630D01*
X137847041Y-83174172D01*
X137893627Y-83172709D01*
X137912869Y-83167117D01*
X137931912Y-83163174D01*
X137951792Y-83160664D01*
X137995122Y-83143507D01*
X138000646Y-83141617D01*
X138004396Y-83140527D01*
X138045390Y-83128618D01*
X138062629Y-83118422D01*
X138080103Y-83109862D01*
X138098727Y-83102488D01*
X138098727Y-83102487D01*
X138098732Y-83102486D01*
X138136449Y-83075082D01*
X138141305Y-83071892D01*
X138181420Y-83048170D01*
X138195586Y-83034003D01*
X138210381Y-83021368D01*
X138218064Y-83015786D01*
X138226587Y-83009594D01*
X138256302Y-82973674D01*
X138260202Y-82969387D01*
X139448788Y-81780801D01*
X139461042Y-81770986D01*
X139460859Y-81770764D01*
X139466868Y-81765791D01*
X139466877Y-81765786D01*
X139513607Y-81716022D01*
X139514846Y-81714743D01*
X139535120Y-81694471D01*
X139539379Y-81688978D01*
X139543152Y-81684561D01*
X139575062Y-81650582D01*
X139584713Y-81633024D01*
X139595396Y-81616761D01*
X139607673Y-81600936D01*
X139626185Y-81558153D01*
X139628738Y-81552941D01*
X139651197Y-81512092D01*
X139656180Y-81492680D01*
X139662481Y-81474280D01*
X139670437Y-81455896D01*
X139677729Y-81409852D01*
X139678906Y-81404171D01*
X139690500Y-81359019D01*
X139690500Y-81338983D01*
X139692027Y-81319582D01*
X139695160Y-81299804D01*
X139690775Y-81253415D01*
X139690500Y-81247577D01*
X139690500Y-80886900D01*
X139710185Y-80819861D01*
X139762989Y-80774106D01*
X139814500Y-80762900D01*
X140935467Y-80762900D01*
X141002506Y-80782585D01*
G37*
%TD.AperFunction*%
%TA.AperFunction,Conductor*%
G36*
X163754490Y-85735185D02*
G01*
X163800245Y-85787989D01*
X163810809Y-85852105D01*
X163810000Y-85860018D01*
X163810000Y-86110000D01*
X164948500Y-86110000D01*
X165015539Y-86129685D01*
X165061294Y-86182489D01*
X165072500Y-86234000D01*
X165072500Y-87559999D01*
X165134972Y-87559999D01*
X165134986Y-87559998D01*
X165237697Y-87549505D01*
X165404119Y-87494358D01*
X165404124Y-87494356D01*
X165553342Y-87402317D01*
X165646964Y-87308695D01*
X165708287Y-87275210D01*
X165777979Y-87280194D01*
X165822327Y-87308695D01*
X165916344Y-87402712D01*
X166065666Y-87494814D01*
X166232203Y-87549999D01*
X166334991Y-87560500D01*
X166960008Y-87560499D01*
X166960016Y-87560498D01*
X166960019Y-87560498D01*
X167036189Y-87552717D01*
X167062797Y-87549999D01*
X167176178Y-87512427D01*
X167246005Y-87510026D01*
X167302862Y-87542453D01*
X167560809Y-87800400D01*
X167594294Y-87861723D01*
X167589310Y-87931415D01*
X167547438Y-87987348D01*
X167498910Y-88009371D01*
X167360196Y-88038856D01*
X167360192Y-88038857D01*
X167187270Y-88115848D01*
X167187265Y-88115851D01*
X167034129Y-88227111D01*
X166907466Y-88367785D01*
X166812821Y-88531715D01*
X166812818Y-88531722D01*
X166762267Y-88687304D01*
X166754326Y-88711744D01*
X166741224Y-88836403D01*
X166736679Y-88879649D01*
X166710094Y-88944263D01*
X166701039Y-88954368D01*
X164775628Y-90879781D01*
X164714305Y-90913266D01*
X164687947Y-90916100D01*
X163604662Y-90916100D01*
X163537623Y-90896415D01*
X163491868Y-90843611D01*
X163482659Y-90779568D01*
X163481318Y-90779431D01*
X163492499Y-90669986D01*
X163492500Y-90669973D01*
X163492500Y-90420000D01*
X162354000Y-90420000D01*
X162286961Y-90400315D01*
X162241206Y-90347511D01*
X162230000Y-90296000D01*
X162230000Y-88970000D01*
X162730000Y-88970000D01*
X162730000Y-89920000D01*
X163492499Y-89920000D01*
X163492499Y-89670028D01*
X163492498Y-89670013D01*
X163482005Y-89567302D01*
X163426858Y-89400880D01*
X163426856Y-89400875D01*
X163334815Y-89251654D01*
X163210845Y-89127684D01*
X163061624Y-89035643D01*
X163061619Y-89035641D01*
X162895197Y-88980494D01*
X162895190Y-88980493D01*
X162792486Y-88970000D01*
X162730000Y-88970000D01*
X162230000Y-88970000D01*
X162229999Y-88969999D01*
X162167528Y-88970000D01*
X162167511Y-88970001D01*
X162064802Y-88980494D01*
X161898380Y-89035641D01*
X161898375Y-89035643D01*
X161749157Y-89127682D01*
X161655534Y-89221305D01*
X161594210Y-89254789D01*
X161524519Y-89249805D01*
X161480172Y-89221304D01*
X161386156Y-89127288D01*
X161386152Y-89127285D01*
X161322484Y-89088014D01*
X161275759Y-89036066D01*
X161264538Y-88967104D01*
X161292381Y-88903022D01*
X161295403Y-88899536D01*
X161387533Y-88797216D01*
X161482179Y-88633284D01*
X161540674Y-88453256D01*
X161560460Y-88265000D01*
X161540674Y-88076744D01*
X161482179Y-87896716D01*
X161387533Y-87732784D01*
X161364572Y-87707283D01*
X161312350Y-87649284D01*
X161282120Y-87586292D01*
X161280500Y-87566312D01*
X161280500Y-87537087D01*
X161300185Y-87470048D01*
X161339402Y-87431548D01*
X161386156Y-87402712D01*
X161480175Y-87308692D01*
X161541494Y-87275210D01*
X161611186Y-87280194D01*
X161655534Y-87308695D01*
X161749154Y-87402315D01*
X161898375Y-87494356D01*
X161898380Y-87494358D01*
X162064802Y-87549505D01*
X162064809Y-87549506D01*
X162167519Y-87559999D01*
X162229999Y-87559998D01*
X162230000Y-87559998D01*
X162230000Y-86610000D01*
X162730000Y-86610000D01*
X162730000Y-87559999D01*
X162792472Y-87559999D01*
X162792486Y-87559998D01*
X162895197Y-87549505D01*
X163061619Y-87494358D01*
X163061624Y-87494356D01*
X163210845Y-87402315D01*
X163334815Y-87278345D01*
X163426856Y-87129124D01*
X163426858Y-87129119D01*
X163482005Y-86962697D01*
X163482006Y-86962690D01*
X163492499Y-86859986D01*
X163492500Y-86859973D01*
X163492500Y-86610000D01*
X163810001Y-86610000D01*
X163810001Y-86859986D01*
X163820494Y-86962697D01*
X163875641Y-87129119D01*
X163875643Y-87129124D01*
X163967684Y-87278345D01*
X164091654Y-87402315D01*
X164240875Y-87494356D01*
X164240880Y-87494358D01*
X164407302Y-87549505D01*
X164407309Y-87549506D01*
X164510019Y-87559999D01*
X164572499Y-87559998D01*
X164572500Y-87559998D01*
X164572500Y-86610000D01*
X163810001Y-86610000D01*
X163492500Y-86610000D01*
X162730000Y-86610000D01*
X162230000Y-86610000D01*
X162230000Y-86234000D01*
X162249685Y-86166961D01*
X162302489Y-86121206D01*
X162354000Y-86110000D01*
X163492499Y-86110000D01*
X163492499Y-85860028D01*
X163492498Y-85860013D01*
X163491690Y-85852102D01*
X163504459Y-85783409D01*
X163552340Y-85732525D01*
X163615048Y-85715500D01*
X163687451Y-85715500D01*
X163754490Y-85735185D01*
G37*
%TD.AperFunction*%
%TA.AperFunction,Conductor*%
G36*
X155545702Y-82906060D02*
G01*
X155556646Y-82916798D01*
X155650802Y-83021368D01*
X155676030Y-83049387D01*
X155829166Y-83160647D01*
X155829171Y-83160650D01*
X156002093Y-83237641D01*
X156002098Y-83237643D01*
X156187255Y-83276999D01*
X156187256Y-83276999D01*
X156376545Y-83276999D01*
X156376547Y-83276999D01*
X156561704Y-83237643D01*
X156734631Y-83160650D01*
X156887772Y-83049387D01*
X156890689Y-83046146D01*
X156893501Y-83043025D01*
X156952988Y-83006378D01*
X156985649Y-83001999D01*
X156994651Y-83001999D01*
X157061690Y-83021684D01*
X157082332Y-83038318D01*
X158300095Y-84256081D01*
X158333580Y-84317404D01*
X158330346Y-84382078D01*
X158304527Y-84461542D01*
X158287886Y-84619880D01*
X158284741Y-84649799D01*
X158304527Y-84838055D01*
X158304528Y-84838058D01*
X158363019Y-85018076D01*
X158363022Y-85018083D01*
X158457668Y-85182015D01*
X158570324Y-85307132D01*
X158584330Y-85322687D01*
X158737466Y-85433947D01*
X158737471Y-85433950D01*
X158910393Y-85510941D01*
X158910398Y-85510943D01*
X159095555Y-85550299D01*
X159095556Y-85550299D01*
X159284845Y-85550299D01*
X159284847Y-85550299D01*
X159470004Y-85510943D01*
X159523373Y-85487180D01*
X159592623Y-85477895D01*
X159655900Y-85507523D01*
X159693114Y-85566658D01*
X159692450Y-85636525D01*
X159691518Y-85639457D01*
X159659797Y-85735185D01*
X159652501Y-85757203D01*
X159652500Y-85757204D01*
X159642000Y-85859983D01*
X159642000Y-86860001D01*
X159642001Y-86860019D01*
X159652500Y-86962796D01*
X159652501Y-86962799D01*
X159707685Y-87129331D01*
X159707687Y-87129336D01*
X159727424Y-87161335D01*
X159799788Y-87278656D01*
X159923844Y-87402712D01*
X159970596Y-87431548D01*
X160017320Y-87483494D01*
X160029500Y-87537087D01*
X160029500Y-87566312D01*
X160009815Y-87633351D01*
X159997650Y-87649284D01*
X159922466Y-87732784D01*
X159827821Y-87896715D01*
X159827818Y-87896722D01*
X159781636Y-88038857D01*
X159769326Y-88076744D01*
X159749540Y-88265000D01*
X159769326Y-88453256D01*
X159769327Y-88453259D01*
X159827818Y-88633277D01*
X159827821Y-88633284D01*
X159922467Y-88797216D01*
X160014567Y-88899503D01*
X160014568Y-88899504D01*
X160044798Y-88962495D01*
X160036173Y-89031830D01*
X159991432Y-89085496D01*
X159987516Y-89088014D01*
X159923844Y-89127287D01*
X159799789Y-89251342D01*
X159707687Y-89400663D01*
X159707685Y-89400668D01*
X159697232Y-89432214D01*
X159652501Y-89567203D01*
X159652501Y-89567204D01*
X159652500Y-89567204D01*
X159642000Y-89669983D01*
X159642000Y-89680500D01*
X159622315Y-89747539D01*
X159569511Y-89793294D01*
X159518000Y-89804500D01*
X157223231Y-89804500D01*
X157156192Y-89784815D01*
X157148920Y-89779767D01*
X157081459Y-89729266D01*
X157039588Y-89673332D01*
X157034604Y-89603641D01*
X157068089Y-89542317D01*
X157081451Y-89530739D01*
X157172546Y-89462546D01*
X157197143Y-89429687D01*
X157253076Y-89387818D01*
X157296409Y-89380000D01*
X157315000Y-89380000D01*
X157315000Y-89307172D01*
X157314999Y-89307160D01*
X157308380Y-89245604D01*
X157308380Y-89219090D01*
X157309090Y-89212485D01*
X157309091Y-89212483D01*
X157315500Y-89152873D01*
X157315499Y-88507128D01*
X157309091Y-88447517D01*
X157309089Y-88447513D01*
X157308632Y-88443255D01*
X157308632Y-88416745D01*
X157309089Y-88412486D01*
X157309091Y-88412483D01*
X157315500Y-88352873D01*
X157315499Y-87707128D01*
X157309091Y-87647517D01*
X157309090Y-87647514D01*
X157308632Y-87643253D01*
X157308633Y-87616744D01*
X157310200Y-87602171D01*
X157315500Y-87552873D01*
X157315499Y-86907128D01*
X157309091Y-86847517D01*
X157309089Y-86847513D01*
X157308632Y-86843255D01*
X157308632Y-86816745D01*
X157309089Y-86812486D01*
X157309091Y-86812483D01*
X157315500Y-86752873D01*
X157315499Y-86107128D01*
X157309091Y-86047517D01*
X157309089Y-86047513D01*
X157308632Y-86043255D01*
X157308632Y-86016745D01*
X157309089Y-86012486D01*
X157309091Y-86012483D01*
X157315500Y-85952873D01*
X157315499Y-85307128D01*
X157309091Y-85247517D01*
X157309089Y-85247513D01*
X157308632Y-85243255D01*
X157308632Y-85216745D01*
X157309089Y-85212486D01*
X157309091Y-85212483D01*
X157315500Y-85152873D01*
X157315499Y-84507128D01*
X157309091Y-84447517D01*
X157308908Y-84447027D01*
X157258797Y-84312671D01*
X157258793Y-84312664D01*
X157172547Y-84197455D01*
X157172544Y-84197452D01*
X157057335Y-84111206D01*
X157057328Y-84111202D01*
X156922482Y-84060908D01*
X156922483Y-84060908D01*
X156862883Y-84054501D01*
X156862881Y-84054500D01*
X156862873Y-84054500D01*
X156862865Y-84054500D01*
X155464499Y-84054500D01*
X155397460Y-84034815D01*
X155351705Y-83982011D01*
X155340499Y-83930500D01*
X155340499Y-82999773D01*
X155360184Y-82932734D01*
X155412988Y-82886979D01*
X155482146Y-82877035D01*
X155545702Y-82906060D01*
G37*
%TD.AperFunction*%
%TA.AperFunction,Conductor*%
G36*
X154757539Y-88675185D02*
G01*
X154803294Y-88727989D01*
X154814500Y-88779500D01*
X154814500Y-89120693D01*
X154794815Y-89187732D01*
X154742011Y-89233487D01*
X154672853Y-89243431D01*
X154609297Y-89214406D01*
X154602819Y-89208374D01*
X154261626Y-88867181D01*
X154228141Y-88805858D01*
X154233125Y-88736166D01*
X154274997Y-88680233D01*
X154340461Y-88655816D01*
X154349307Y-88655500D01*
X154690500Y-88655500D01*
X154757539Y-88675185D01*
G37*
%TD.AperFunction*%
%TA.AperFunction,Conductor*%
G36*
X149806975Y-86439824D02*
G01*
X149855670Y-86489930D01*
X149870000Y-86547797D01*
X149870000Y-86930812D01*
X149850315Y-86997851D01*
X149838150Y-87013784D01*
X149762966Y-87097284D01*
X149668321Y-87261215D01*
X149668319Y-87261219D01*
X149646664Y-87327867D01*
X149607226Y-87385542D01*
X149542867Y-87412740D01*
X149497899Y-87409653D01*
X149477830Y-87404501D01*
X149477825Y-87404500D01*
X149477824Y-87404500D01*
X149477823Y-87404500D01*
X149457789Y-87404500D01*
X149438391Y-87402973D01*
X149430967Y-87401797D01*
X149418610Y-87399840D01*
X149418609Y-87399840D01*
X149372221Y-87404225D01*
X149366383Y-87404500D01*
X148623231Y-87404500D01*
X148556192Y-87384815D01*
X148548920Y-87379767D01*
X148481459Y-87329266D01*
X148439588Y-87273332D01*
X148434604Y-87203641D01*
X148468089Y-87142317D01*
X148481451Y-87130739D01*
X148572546Y-87062546D01*
X148597143Y-87029687D01*
X148653076Y-86987818D01*
X148696409Y-86980000D01*
X148715000Y-86980000D01*
X148715000Y-86907172D01*
X148714999Y-86907160D01*
X148708380Y-86845604D01*
X148708380Y-86819090D01*
X148709090Y-86812485D01*
X148709091Y-86812483D01*
X148715500Y-86752873D01*
X148715499Y-86709471D01*
X148735182Y-86642434D01*
X148787985Y-86596678D01*
X148857143Y-86586733D01*
X148865280Y-86588181D01*
X148905256Y-86596678D01*
X149040854Y-86625500D01*
X149040855Y-86625500D01*
X149230144Y-86625500D01*
X149230146Y-86625500D01*
X149415303Y-86586144D01*
X149588230Y-86509151D01*
X149639856Y-86471643D01*
X149673115Y-86447479D01*
X149738921Y-86423999D01*
X149806975Y-86439824D01*
G37*
%TD.AperFunction*%
%TA.AperFunction,Conductor*%
G36*
X164166319Y-77845285D02*
G01*
X164212074Y-77898089D01*
X164222018Y-77967247D01*
X164204818Y-78014697D01*
X164130942Y-78134466D01*
X164130937Y-78134477D01*
X164076213Y-78299623D01*
X164065800Y-78401544D01*
X164065800Y-79413255D01*
X164076213Y-79515176D01*
X164126957Y-79668311D01*
X164130938Y-79680325D01*
X164178538Y-79757497D01*
X164197000Y-79822592D01*
X164197000Y-81372911D01*
X164177315Y-81439950D01*
X164138098Y-81478449D01*
X164091344Y-81507287D01*
X163967289Y-81631342D01*
X163875187Y-81780663D01*
X163875185Y-81780668D01*
X163856859Y-81835972D01*
X163820001Y-81947203D01*
X163820001Y-81947204D01*
X163820000Y-81947204D01*
X163809500Y-82049983D01*
X163809500Y-83050001D01*
X163809501Y-83050019D01*
X163820000Y-83152796D01*
X163820001Y-83152799D01*
X163875185Y-83319331D01*
X163875187Y-83319336D01*
X163891314Y-83345482D01*
X163967288Y-83468656D01*
X164091344Y-83592712D01*
X164240666Y-83684814D01*
X164407203Y-83739999D01*
X164509991Y-83750500D01*
X165135008Y-83750499D01*
X165135016Y-83750498D01*
X165135019Y-83750498D01*
X165191302Y-83744748D01*
X165237797Y-83739999D01*
X165404334Y-83684814D01*
X165553656Y-83592712D01*
X165647322Y-83499045D01*
X165708641Y-83465563D01*
X165778333Y-83470547D01*
X165822676Y-83499044D01*
X165916344Y-83592712D01*
X165963096Y-83621548D01*
X166009820Y-83673494D01*
X166022000Y-83727087D01*
X166022000Y-84065555D01*
X166020275Y-84081172D01*
X166020561Y-84081199D01*
X166019826Y-84088966D01*
X166021969Y-84157146D01*
X166022000Y-84159093D01*
X166022000Y-84187643D01*
X166022001Y-84187660D01*
X166022868Y-84194531D01*
X166023326Y-84200350D01*
X166024790Y-84246924D01*
X166024791Y-84246927D01*
X166030380Y-84266167D01*
X166034324Y-84285211D01*
X166036836Y-84305092D01*
X166050543Y-84339713D01*
X166053990Y-84348419D01*
X166055882Y-84353947D01*
X166067443Y-84393740D01*
X166068882Y-84398690D01*
X166077702Y-84413605D01*
X166079080Y-84415934D01*
X166087636Y-84433400D01*
X166093032Y-84447027D01*
X166095014Y-84452032D01*
X166122398Y-84489723D01*
X166125606Y-84494607D01*
X166149330Y-84534721D01*
X166152484Y-84538787D01*
X166177823Y-84601822D01*
X166180454Y-84626851D01*
X166188518Y-84703579D01*
X166188660Y-84704924D01*
X166176091Y-84773654D01*
X166128359Y-84824678D01*
X166060619Y-84841796D01*
X165994377Y-84819574D01*
X165977658Y-84805567D01*
X165878303Y-84706212D01*
X165868480Y-84693950D01*
X165868259Y-84694134D01*
X165863286Y-84688122D01*
X165813566Y-84641432D01*
X165812166Y-84640075D01*
X165791976Y-84619884D01*
X165786486Y-84615625D01*
X165782061Y-84611847D01*
X165750277Y-84581999D01*
X165748080Y-84579936D01*
X165748077Y-84579935D01*
X165730529Y-84570288D01*
X165714263Y-84559604D01*
X165712917Y-84558560D01*
X165698436Y-84547327D01*
X165698435Y-84547326D01*
X165698433Y-84547325D01*
X165655668Y-84528818D01*
X165650422Y-84526248D01*
X165609593Y-84503803D01*
X165609592Y-84503802D01*
X165590193Y-84498822D01*
X165571781Y-84492518D01*
X165553398Y-84484562D01*
X165553392Y-84484560D01*
X165507374Y-84477272D01*
X165501652Y-84476087D01*
X165456521Y-84464500D01*
X165456519Y-84464500D01*
X165436484Y-84464500D01*
X165417086Y-84462973D01*
X165408050Y-84461542D01*
X165397305Y-84459840D01*
X165397304Y-84459840D01*
X165350916Y-84464225D01*
X165345078Y-84464500D01*
X162083248Y-84464500D01*
X162016209Y-84444815D01*
X161991100Y-84423474D01*
X161985373Y-84417114D01*
X161985369Y-84417110D01*
X161832234Y-84305851D01*
X161832229Y-84305848D01*
X161659307Y-84228857D01*
X161659302Y-84228855D01*
X161511567Y-84197454D01*
X161474146Y-84189500D01*
X161284854Y-84189500D01*
X161261185Y-84194531D01*
X161099697Y-84228855D01*
X161099692Y-84228857D01*
X160926770Y-84305848D01*
X160926767Y-84305850D01*
X160913213Y-84315698D01*
X160847406Y-84339176D01*
X160779352Y-84323349D01*
X160752649Y-84303059D01*
X160411770Y-83962180D01*
X160378285Y-83900857D01*
X160383269Y-83831165D01*
X160425141Y-83775232D01*
X160490605Y-83750815D01*
X160499430Y-83750499D01*
X160967508Y-83750499D01*
X160967516Y-83750498D01*
X160967519Y-83750498D01*
X161023802Y-83744748D01*
X161070297Y-83739999D01*
X161236834Y-83684814D01*
X161386156Y-83592712D01*
X161479822Y-83499045D01*
X161541141Y-83465563D01*
X161610833Y-83470547D01*
X161655176Y-83499044D01*
X161748844Y-83592712D01*
X161898166Y-83684814D01*
X162064703Y-83739999D01*
X162167491Y-83750500D01*
X162792508Y-83750499D01*
X162792516Y-83750498D01*
X162792519Y-83750498D01*
X162848802Y-83744748D01*
X162895297Y-83739999D01*
X163061834Y-83684814D01*
X163211156Y-83592712D01*
X163335212Y-83468656D01*
X163427314Y-83319334D01*
X163482499Y-83152797D01*
X163493000Y-83050009D01*
X163492999Y-82049992D01*
X163492904Y-82049066D01*
X163482499Y-81947203D01*
X163482498Y-81947200D01*
X163474976Y-81924500D01*
X163427314Y-81780666D01*
X163402977Y-81741210D01*
X163384538Y-81673820D01*
X163390585Y-81637800D01*
X163445674Y-81468256D01*
X163465460Y-81280000D01*
X163445674Y-81091744D01*
X163387179Y-80911716D01*
X163292533Y-80747784D01*
X163165871Y-80607112D01*
X163165867Y-80607109D01*
X163012734Y-80495851D01*
X163012729Y-80495848D01*
X162839807Y-80418857D01*
X162839802Y-80418855D01*
X162686407Y-80386251D01*
X162654646Y-80379500D01*
X162465354Y-80379500D01*
X162433593Y-80386251D01*
X162280197Y-80418855D01*
X162280192Y-80418857D01*
X162107270Y-80495848D01*
X162107265Y-80495851D01*
X161954129Y-80607111D01*
X161827466Y-80747785D01*
X161732821Y-80911715D01*
X161732818Y-80911722D01*
X161692248Y-81036585D01*
X161674326Y-81091744D01*
X161654540Y-81280000D01*
X161674326Y-81468256D01*
X161674326Y-81468258D01*
X161674327Y-81468261D01*
X161675614Y-81474316D01*
X161670296Y-81543983D01*
X161628157Y-81599715D01*
X161562576Y-81623818D01*
X161494375Y-81608639D01*
X161466642Y-81587774D01*
X161386155Y-81507287D01*
X161339402Y-81478449D01*
X161292678Y-81426500D01*
X161280500Y-81372911D01*
X161280500Y-80187384D01*
X161300185Y-80120345D01*
X161352989Y-80074590D01*
X161365488Y-80069681D01*
X161446725Y-80042762D01*
X161594803Y-79951426D01*
X161717826Y-79828403D01*
X161718555Y-79827221D01*
X161719266Y-79826581D01*
X161722307Y-79822736D01*
X161722963Y-79823255D01*
X161770501Y-79780497D01*
X161839464Y-79769273D01*
X161903546Y-79797115D01*
X161925561Y-79822523D01*
X161925688Y-79822423D01*
X161927913Y-79825238D01*
X161929633Y-79827222D01*
X161930165Y-79828085D01*
X161930169Y-79828090D01*
X162053108Y-79951029D01*
X162201085Y-80042303D01*
X162201090Y-80042305D01*
X162366126Y-80096992D01*
X162467984Y-80107399D01*
X162467997Y-80107400D01*
X162511300Y-80107400D01*
X162511300Y-79157400D01*
X163011300Y-79157400D01*
X163011300Y-80107400D01*
X163054603Y-80107400D01*
X163054615Y-80107399D01*
X163156473Y-80096992D01*
X163321509Y-80042305D01*
X163321514Y-80042303D01*
X163469491Y-79951029D01*
X163592429Y-79828091D01*
X163683703Y-79680114D01*
X163683705Y-79680109D01*
X163738392Y-79515073D01*
X163748799Y-79413215D01*
X163748800Y-79413202D01*
X163748800Y-79157400D01*
X163011300Y-79157400D01*
X162511300Y-79157400D01*
X162511300Y-78781400D01*
X162530985Y-78714361D01*
X162583789Y-78668606D01*
X162635300Y-78657400D01*
X163748800Y-78657400D01*
X163748800Y-78401597D01*
X163748799Y-78401584D01*
X163738392Y-78299726D01*
X163683705Y-78134690D01*
X163683700Y-78134679D01*
X163609694Y-78014697D01*
X163591253Y-77947305D01*
X163612175Y-77880641D01*
X163665817Y-77835871D01*
X163715232Y-77825600D01*
X164099280Y-77825600D01*
X164166319Y-77845285D01*
G37*
%TD.AperFunction*%
%TA.AperFunction,Conductor*%
G36*
X172177183Y-77845285D02*
G01*
X172197453Y-77861548D01*
X175147111Y-80786419D01*
X175180854Y-80847600D01*
X175183800Y-80874469D01*
X175183800Y-84464847D01*
X175164115Y-84531886D01*
X175111311Y-84577641D01*
X175042153Y-84587585D01*
X174978597Y-84558560D01*
X174972119Y-84552528D01*
X174600803Y-84181212D01*
X174590980Y-84168950D01*
X174590759Y-84169134D01*
X174585786Y-84163122D01*
X174536066Y-84116432D01*
X174534666Y-84115075D01*
X174514473Y-84094882D01*
X174511553Y-84092307D01*
X174512285Y-84091476D01*
X174474182Y-84038718D01*
X174470392Y-83968951D01*
X174489516Y-83926254D01*
X174523600Y-83877578D01*
X174623429Y-83663492D01*
X174623432Y-83663486D01*
X174680636Y-83450000D01*
X173783686Y-83450000D01*
X173809493Y-83409844D01*
X173850000Y-83271889D01*
X173850000Y-83128111D01*
X173809493Y-82990156D01*
X173783686Y-82950000D01*
X174680636Y-82950000D01*
X174680635Y-82949999D01*
X174623432Y-82736513D01*
X174623429Y-82736507D01*
X174523600Y-82522422D01*
X174523599Y-82522420D01*
X174388113Y-82328926D01*
X174388108Y-82328920D01*
X174221082Y-82161894D01*
X174027578Y-82026399D01*
X173813492Y-81926570D01*
X173813486Y-81926567D01*
X173600000Y-81869364D01*
X173600000Y-82764498D01*
X173492315Y-82715320D01*
X173385763Y-82700000D01*
X173314237Y-82700000D01*
X173207685Y-82715320D01*
X173100000Y-82764498D01*
X173100000Y-81869364D01*
X173099999Y-81869364D01*
X172886513Y-81926567D01*
X172886507Y-81926570D01*
X172672422Y-82026399D01*
X172672420Y-82026400D01*
X172478926Y-82161886D01*
X172356865Y-82283947D01*
X172295542Y-82317431D01*
X172225850Y-82312447D01*
X172169917Y-82270575D01*
X172153002Y-82239598D01*
X172147726Y-82225453D01*
X172103796Y-82107669D01*
X172103795Y-82107668D01*
X172103793Y-82107664D01*
X172017547Y-81992455D01*
X172017544Y-81992452D01*
X171902335Y-81906206D01*
X171902328Y-81906202D01*
X171767482Y-81855908D01*
X171767483Y-81855908D01*
X171707883Y-81849501D01*
X171707881Y-81849500D01*
X171707873Y-81849500D01*
X171707864Y-81849500D01*
X169912129Y-81849500D01*
X169912123Y-81849501D01*
X169852516Y-81855908D01*
X169717671Y-81906202D01*
X169717664Y-81906206D01*
X169602455Y-81992452D01*
X169602452Y-81992455D01*
X169516206Y-82107664D01*
X169516202Y-82107671D01*
X169465908Y-82242517D01*
X169459501Y-82302116D01*
X169459500Y-82302135D01*
X169459500Y-83205547D01*
X169439815Y-83272586D01*
X169387011Y-83318341D01*
X169317853Y-83328285D01*
X169254297Y-83299260D01*
X169247819Y-83293228D01*
X168759019Y-82804428D01*
X168725534Y-82743105D01*
X168722700Y-82716747D01*
X168722700Y-80573600D01*
X170372259Y-80573600D01*
X170372259Y-80851500D01*
X171722079Y-80851500D01*
X171723741Y-80851522D01*
X171745503Y-80852106D01*
X171747164Y-80852173D01*
X171775508Y-80853694D01*
X171777163Y-80853805D01*
X171798809Y-80855548D01*
X171800460Y-80855703D01*
X171874259Y-80863637D01*
X171874259Y-80573600D01*
X170372259Y-80573600D01*
X168722700Y-80573600D01*
X168722700Y-80158538D01*
X168724424Y-80142924D01*
X168724138Y-80142897D01*
X168724872Y-80135134D01*
X168722731Y-80066971D01*
X168722700Y-80065024D01*
X168722700Y-80036451D01*
X168722700Y-80036450D01*
X168721829Y-80029559D01*
X168721372Y-80023745D01*
X168720444Y-79994219D01*
X168719909Y-79977173D01*
X168715848Y-79963198D01*
X168714322Y-79957944D01*
X168710374Y-79938884D01*
X168709618Y-79932896D01*
X168707864Y-79919008D01*
X168690707Y-79875675D01*
X168688819Y-79870159D01*
X168675819Y-79825412D01*
X168674602Y-79823355D01*
X168665618Y-79808163D01*
X168657060Y-79790694D01*
X168649686Y-79772068D01*
X168649683Y-79772064D01*
X168649683Y-79772063D01*
X168622298Y-79734371D01*
X168619090Y-79729487D01*
X168595372Y-79689382D01*
X168595363Y-79689371D01*
X168581205Y-79675213D01*
X168568570Y-79660420D01*
X168556793Y-79644212D01*
X168520893Y-79614513D01*
X168516581Y-79610590D01*
X167953119Y-79047128D01*
X167919634Y-78985805D01*
X167916800Y-78959447D01*
X167916800Y-78949600D01*
X170372259Y-78949600D01*
X170372259Y-79575600D01*
X171874259Y-79575600D01*
X171874259Y-79123980D01*
X171698401Y-78949600D01*
X170372259Y-78949600D01*
X167916800Y-78949600D01*
X167916800Y-78401557D01*
X167916799Y-78401544D01*
X167906387Y-78299625D01*
X167851662Y-78134475D01*
X167851658Y-78134469D01*
X167851657Y-78134466D01*
X167777782Y-78014697D01*
X167759341Y-77947305D01*
X167780263Y-77880641D01*
X167833905Y-77835872D01*
X167883320Y-77825600D01*
X172110144Y-77825600D01*
X172177183Y-77845285D01*
G37*
%TD.AperFunction*%
%TA.AperFunction,Conductor*%
G36*
X154592696Y-77845285D02*
G01*
X154638451Y-77898089D01*
X154648395Y-77967247D01*
X154631195Y-78014697D01*
X154579646Y-78098269D01*
X154579641Y-78098280D01*
X154524494Y-78264702D01*
X154524493Y-78264709D01*
X154514000Y-78367413D01*
X154514000Y-78642400D01*
X155640000Y-78642400D01*
X155707039Y-78662085D01*
X155752794Y-78714889D01*
X155764000Y-78766400D01*
X155764000Y-80117399D01*
X155813972Y-80117399D01*
X155813986Y-80117398D01*
X155916697Y-80106905D01*
X156083119Y-80051758D01*
X156083124Y-80051756D01*
X156232345Y-79959715D01*
X156356318Y-79835742D01*
X156358165Y-79832748D01*
X156359969Y-79831124D01*
X156360798Y-79830077D01*
X156360976Y-79830218D01*
X156410110Y-79786021D01*
X156479073Y-79774796D01*
X156543156Y-79802636D01*
X156569243Y-79832741D01*
X156571288Y-79836056D01*
X156695344Y-79960112D01*
X156844666Y-80052214D01*
X157011203Y-80107399D01*
X157113991Y-80117900D01*
X157714008Y-80117899D01*
X157714016Y-80117898D01*
X157714019Y-80117898D01*
X157811892Y-80107900D01*
X157816797Y-80107399D01*
X157983334Y-80052214D01*
X158132656Y-79960112D01*
X158237718Y-79855049D01*
X158299037Y-79821567D01*
X158368729Y-79826551D01*
X158398279Y-79842413D01*
X158415675Y-79855052D01*
X158449670Y-79879751D01*
X158622592Y-79956742D01*
X158622597Y-79956744D01*
X158807754Y-79996100D01*
X158807755Y-79996100D01*
X158997044Y-79996100D01*
X158997046Y-79996100D01*
X159182203Y-79956744D01*
X159355130Y-79879751D01*
X159508271Y-79768488D01*
X159634933Y-79627816D01*
X159694424Y-79524773D01*
X159744986Y-79476562D01*
X159813593Y-79463338D01*
X159878458Y-79489305D01*
X159918988Y-79546219D01*
X159919514Y-79547772D01*
X159940327Y-79610580D01*
X159963438Y-79680325D01*
X160011038Y-79757497D01*
X160029500Y-79822592D01*
X160029500Y-81372911D01*
X160009815Y-81439950D01*
X159970598Y-81478449D01*
X159923844Y-81507287D01*
X159799789Y-81631342D01*
X159707687Y-81780663D01*
X159707685Y-81780668D01*
X159689359Y-81835972D01*
X159652501Y-81947203D01*
X159652501Y-81947204D01*
X159652500Y-81947204D01*
X159642000Y-82049983D01*
X159642000Y-82893048D01*
X159622315Y-82960087D01*
X159569511Y-83005842D01*
X159500353Y-83015786D01*
X159436797Y-82986761D01*
X159430319Y-82980729D01*
X158504281Y-82054691D01*
X157345803Y-80896212D01*
X157335980Y-80883950D01*
X157335759Y-80884134D01*
X157330786Y-80878122D01*
X157281066Y-80831432D01*
X157279666Y-80830075D01*
X157259476Y-80809884D01*
X157253986Y-80805625D01*
X157249561Y-80801847D01*
X157215582Y-80769938D01*
X157215580Y-80769936D01*
X157215577Y-80769935D01*
X157198029Y-80760288D01*
X157181763Y-80749604D01*
X157165933Y-80737325D01*
X157123168Y-80718818D01*
X157117922Y-80716248D01*
X157077093Y-80693803D01*
X157077092Y-80693802D01*
X157057693Y-80688822D01*
X157039281Y-80682518D01*
X157020898Y-80674562D01*
X157020892Y-80674560D01*
X156974874Y-80667272D01*
X156969152Y-80666087D01*
X156924021Y-80654500D01*
X156924019Y-80654500D01*
X156903984Y-80654500D01*
X156884586Y-80652973D01*
X156877162Y-80651797D01*
X156864805Y-80649840D01*
X156864804Y-80649840D01*
X156818416Y-80654225D01*
X156812578Y-80654500D01*
X153752743Y-80654500D01*
X153737122Y-80652775D01*
X153737095Y-80653061D01*
X153729333Y-80652326D01*
X153661140Y-80654469D01*
X153659193Y-80654500D01*
X153427515Y-80654500D01*
X153360476Y-80634815D01*
X153314721Y-80582011D01*
X153304195Y-80543465D01*
X153285674Y-80367244D01*
X153227179Y-80187216D01*
X153137043Y-80031096D01*
X153120571Y-79963198D01*
X153143424Y-79897171D01*
X153156745Y-79881422D01*
X153202112Y-79836056D01*
X153294214Y-79686734D01*
X153349399Y-79520197D01*
X153359900Y-79417409D01*
X153359900Y-79142400D01*
X154514001Y-79142400D01*
X154514001Y-79417386D01*
X154524494Y-79520097D01*
X154579641Y-79686519D01*
X154579643Y-79686524D01*
X154671684Y-79835745D01*
X154795654Y-79959715D01*
X154944875Y-80051756D01*
X154944880Y-80051758D01*
X155111302Y-80106905D01*
X155111309Y-80106906D01*
X155214019Y-80117399D01*
X155263999Y-80117398D01*
X155264000Y-80117398D01*
X155264000Y-79142400D01*
X154514001Y-79142400D01*
X153359900Y-79142400D01*
X153359899Y-78367392D01*
X153349399Y-78264603D01*
X153294214Y-78098066D01*
X153242790Y-78014694D01*
X153224351Y-77947304D01*
X153245273Y-77880641D01*
X153298915Y-77835871D01*
X153348330Y-77825600D01*
X154525657Y-77825600D01*
X154592696Y-77845285D01*
G37*
%TD.AperFunction*%
%TA.AperFunction,Conductor*%
G36*
X135410941Y-77845285D02*
G01*
X135456696Y-77898089D01*
X135466640Y-77967247D01*
X135437615Y-78030803D01*
X135378837Y-78068577D01*
X135378497Y-78068676D01*
X135215206Y-78116116D01*
X135215203Y-78116117D01*
X135073847Y-78199714D01*
X135073838Y-78199721D01*
X134957721Y-78315838D01*
X134957714Y-78315847D01*
X134874118Y-78457201D01*
X134828299Y-78614913D01*
X134828104Y-78617398D01*
X134828105Y-78617400D01*
X137422695Y-78617400D01*
X137422695Y-78617398D01*
X137422500Y-78614913D01*
X137376681Y-78457201D01*
X137293085Y-78315847D01*
X137293078Y-78315838D01*
X137176961Y-78199721D01*
X137176952Y-78199714D01*
X137035596Y-78116117D01*
X137035593Y-78116116D01*
X136872303Y-78068676D01*
X136813417Y-78031070D01*
X136784211Y-77967598D01*
X136793957Y-77898411D01*
X136839561Y-77845477D01*
X136906544Y-77825601D01*
X136906898Y-77825600D01*
X142543902Y-77825600D01*
X142610941Y-77845285D01*
X142656696Y-77898089D01*
X142666640Y-77967247D01*
X142637615Y-78030803D01*
X142578837Y-78068577D01*
X142578497Y-78068676D01*
X142415206Y-78116116D01*
X142415203Y-78116117D01*
X142273847Y-78199714D01*
X142273838Y-78199721D01*
X142157721Y-78315838D01*
X142157714Y-78315847D01*
X142074118Y-78457201D01*
X142028299Y-78614913D01*
X142028104Y-78617398D01*
X142028105Y-78617400D01*
X144622695Y-78617400D01*
X144622695Y-78617398D01*
X144622500Y-78614913D01*
X144576681Y-78457201D01*
X144493085Y-78315847D01*
X144493078Y-78315838D01*
X144376961Y-78199721D01*
X144376952Y-78199714D01*
X144235596Y-78116117D01*
X144235593Y-78116116D01*
X144072303Y-78068676D01*
X144013417Y-78031070D01*
X143984211Y-77967598D01*
X143993957Y-77898411D01*
X144039561Y-77845477D01*
X144106544Y-77825601D01*
X144106898Y-77825600D01*
X145686457Y-77825600D01*
X145753496Y-77845285D01*
X145799251Y-77898089D01*
X145809195Y-77967247D01*
X145791995Y-78014697D01*
X145740446Y-78098269D01*
X145740441Y-78098280D01*
X145685294Y-78264702D01*
X145685293Y-78264709D01*
X145674800Y-78367413D01*
X145674800Y-78642400D01*
X146800800Y-78642400D01*
X146867839Y-78662085D01*
X146913594Y-78714889D01*
X146924800Y-78766400D01*
X146924800Y-79018400D01*
X146905115Y-79085439D01*
X146852311Y-79131194D01*
X146800800Y-79142400D01*
X145674801Y-79142400D01*
X145674801Y-79387900D01*
X145655116Y-79454939D01*
X145602312Y-79500694D01*
X145550801Y-79511900D01*
X144655511Y-79511900D01*
X144588472Y-79492215D01*
X144542717Y-79439411D01*
X144532773Y-79370253D01*
X144548779Y-79324779D01*
X144576681Y-79277598D01*
X144622500Y-79119886D01*
X144622695Y-79117401D01*
X144622695Y-79117400D01*
X142028105Y-79117400D01*
X142028104Y-79117401D01*
X142028299Y-79119886D01*
X142074118Y-79277598D01*
X142102021Y-79324779D01*
X142119204Y-79392503D01*
X142097044Y-79458765D01*
X142042578Y-79502529D01*
X141995289Y-79511900D01*
X139135847Y-79511900D01*
X139112615Y-79509704D01*
X139104588Y-79508173D01*
X139104586Y-79508173D01*
X139095633Y-79508736D01*
X139047275Y-79511778D01*
X139043403Y-79511900D01*
X137455511Y-79511900D01*
X137388472Y-79492215D01*
X137342717Y-79439411D01*
X137332773Y-79370253D01*
X137348779Y-79324779D01*
X137376681Y-79277598D01*
X137422500Y-79119886D01*
X137422695Y-79117401D01*
X137422695Y-79117400D01*
X134828105Y-79117400D01*
X134828104Y-79117401D01*
X134828299Y-79119886D01*
X134874118Y-79277598D01*
X134957714Y-79418952D01*
X134962500Y-79425122D01*
X134960040Y-79427029D01*
X134986610Y-79475688D01*
X134981626Y-79545380D01*
X134960562Y-79578181D01*
X134962099Y-79579374D01*
X134957315Y-79585540D01*
X134873655Y-79727003D01*
X134873654Y-79727006D01*
X134827802Y-79884826D01*
X134827801Y-79884832D01*
X134824900Y-79921698D01*
X134824900Y-80353101D01*
X134827801Y-80389967D01*
X134827802Y-80389973D01*
X134873654Y-80547793D01*
X134873655Y-80547796D01*
X134873656Y-80547798D01*
X134894942Y-80583790D01*
X134957317Y-80689262D01*
X134962102Y-80695431D01*
X134959769Y-80697240D01*
X134986610Y-80746395D01*
X134981626Y-80816087D01*
X134960870Y-80848421D01*
X134962497Y-80849683D01*
X134957713Y-80855849D01*
X134874118Y-80997201D01*
X134828299Y-81154913D01*
X134828104Y-81157398D01*
X134828105Y-81157400D01*
X137422695Y-81157400D01*
X137422695Y-81157398D01*
X137422500Y-81154913D01*
X137376681Y-80997201D01*
X137348779Y-80950021D01*
X137331596Y-80882297D01*
X137353756Y-80816035D01*
X137408222Y-80772271D01*
X137455511Y-80762900D01*
X138315500Y-80762900D01*
X138382539Y-80782585D01*
X138428294Y-80835389D01*
X138439500Y-80886900D01*
X138439500Y-80969546D01*
X138419815Y-81036585D01*
X138403181Y-81057227D01*
X137609198Y-81851210D01*
X137547875Y-81884695D01*
X137478183Y-81879711D01*
X137422250Y-81837839D01*
X137397833Y-81772375D01*
X137402441Y-81728934D01*
X137422499Y-81659894D01*
X137422500Y-81659888D01*
X137422695Y-81657401D01*
X137422695Y-81657400D01*
X134828105Y-81657400D01*
X134828104Y-81657401D01*
X134828299Y-81659886D01*
X134874118Y-81817598D01*
X134902021Y-81864779D01*
X134919204Y-81932503D01*
X134897044Y-81998765D01*
X134842578Y-82042529D01*
X134795289Y-82051900D01*
X131628937Y-82051900D01*
X131613320Y-82050176D01*
X131613293Y-82050462D01*
X131605531Y-82049727D01*
X131537371Y-82051869D01*
X131535424Y-82051900D01*
X131506850Y-82051900D01*
X131506129Y-82051990D01*
X131499957Y-82052769D01*
X131494145Y-82053226D01*
X131447573Y-82054690D01*
X131447572Y-82054690D01*
X131428329Y-82060281D01*
X131409279Y-82064225D01*
X131389411Y-82066734D01*
X131389409Y-82066735D01*
X131346084Y-82083888D01*
X131340557Y-82085780D01*
X131295810Y-82098781D01*
X131295809Y-82098782D01*
X131278567Y-82108979D01*
X131261099Y-82117537D01*
X131242469Y-82124913D01*
X131242467Y-82124914D01*
X131204776Y-82152298D01*
X131199894Y-82155505D01*
X131159779Y-82179230D01*
X131145608Y-82193400D01*
X131130823Y-82206028D01*
X131114612Y-82217807D01*
X131084909Y-82253710D01*
X131080977Y-82258031D01*
X130359575Y-82979432D01*
X130298252Y-83012917D01*
X130228560Y-83007933D01*
X130172627Y-82966061D01*
X130148210Y-82900597D01*
X130147894Y-82891626D01*
X130149551Y-81523523D01*
X130169317Y-81456508D01*
X130173358Y-81450617D01*
X130190944Y-81426500D01*
X132779454Y-77876542D01*
X132834857Y-77833972D01*
X132879647Y-77825600D01*
X135343902Y-77825600D01*
X135410941Y-77845285D01*
G37*
%TD.AperFunction*%
%TD*%
M02*
