%TF.GenerationSoftware,KiCad,Pcbnew,7.0.5-0*%
%TF.CreationDate,2023-07-08T23:53:13+02:00*%
%TF.ProjectId,Breadboard Power Supply,42726561-6462-46f6-9172-6420506f7765,rev?*%
%TF.SameCoordinates,Original*%
%TF.FileFunction,Copper,L1,Top*%
%TF.FilePolarity,Positive*%
%FSLAX46Y46*%
G04 Gerber Fmt 4.6, Leading zero omitted, Abs format (unit mm)*
G04 Created by KiCad (PCBNEW 7.0.5-0) date 2023-07-08 23:53:13*
%MOMM*%
%LPD*%
G01*
G04 APERTURE LIST*
G04 Aperture macros list*
%AMRoundRect*
0 Rectangle with rounded corners*
0 $1 Rounding radius*
0 $2 $3 $4 $5 $6 $7 $8 $9 X,Y pos of 4 corners*
0 Add a 4 corners polygon primitive as box body*
4,1,4,$2,$3,$4,$5,$6,$7,$8,$9,$2,$3,0*
0 Add four circle primitives for the rounded corners*
1,1,$1+$1,$2,$3*
1,1,$1+$1,$4,$5*
1,1,$1+$1,$6,$7*
1,1,$1+$1,$8,$9*
0 Add four rect primitives between the rounded corners*
20,1,$1+$1,$2,$3,$4,$5,0*
20,1,$1+$1,$4,$5,$6,$7,0*
20,1,$1+$1,$6,$7,$8,$9,0*
20,1,$1+$1,$8,$9,$2,$3,0*%
G04 Aperture macros list end*
%TA.AperFunction,ComponentPad*%
%ADD10R,1.905000X2.000000*%
%TD*%
%TA.AperFunction,ComponentPad*%
%ADD11O,1.905000X2.000000*%
%TD*%
%TA.AperFunction,ComponentPad*%
%ADD12C,1.900000*%
%TD*%
%TA.AperFunction,ComponentPad*%
%ADD13R,1.900000X1.900000*%
%TD*%
%TA.AperFunction,ComponentPad*%
%ADD14C,1.400000*%
%TD*%
%TA.AperFunction,ComponentPad*%
%ADD15O,1.400000X1.400000*%
%TD*%
%TA.AperFunction,ComponentPad*%
%ADD16O,1.700000X1.700000*%
%TD*%
%TA.AperFunction,ComponentPad*%
%ADD17R,1.700000X1.700000*%
%TD*%
%TA.AperFunction,ComponentPad*%
%ADD18R,3.000000X3.000000*%
%TD*%
%TA.AperFunction,ComponentPad*%
%ADD19C,3.000000*%
%TD*%
%TA.AperFunction,ComponentPad*%
%ADD20RoundRect,0.875000X-0.875000X-0.875000X0.875000X-0.875000X0.875000X0.875000X-0.875000X0.875000X0*%
%TD*%
%TA.AperFunction,ComponentPad*%
%ADD21RoundRect,0.750000X-0.750000X-1.000000X0.750000X-1.000000X0.750000X1.000000X-0.750000X1.000000X0*%
%TD*%
%TA.AperFunction,ComponentPad*%
%ADD22R,3.500000X3.500000*%
%TD*%
%TA.AperFunction,ComponentPad*%
%ADD23C,1.800000*%
%TD*%
%TA.AperFunction,ComponentPad*%
%ADD24R,1.800000X1.800000*%
%TD*%
%TA.AperFunction,ComponentPad*%
%ADD25C,1.600000*%
%TD*%
%TA.AperFunction,ViaPad*%
%ADD26C,0.900000*%
%TD*%
%TA.AperFunction,Conductor*%
%ADD27C,0.350000*%
%TD*%
%TA.AperFunction,Conductor*%
%ADD28C,0.250000*%
%TD*%
G04 APERTURE END LIST*
D10*
%TO.P,U2,1,VI*%
%TO.N,/12V*%
X127508000Y-85923000D03*
D11*
%TO.P,U2,2,GND*%
%TO.N,GND*%
X124968000Y-85923000D03*
%TO.P,U2,3,VO*%
%TO.N,/5V*%
X122428000Y-85923000D03*
%TD*%
D10*
%TO.P,U1,1,ADJ*%
%TO.N,Net-(U1-ADJ)*%
X122936000Y-108895000D03*
D11*
%TO.P,U1,2,VO*%
%TO.N,/3.3V*%
X125476000Y-108895000D03*
%TO.P,U1,3,VI*%
%TO.N,/12V*%
X128016000Y-108895000D03*
%TD*%
D12*
%TO.P,S1,3*%
%TO.N,unconnected-(S1-Pad3)*%
X134248000Y-84582000D03*
%TO.P,S1,2*%
%TO.N,/PWR_input*%
X136748000Y-84582000D03*
D13*
%TO.P,S1,1*%
%TO.N,/12V*%
X139248000Y-84582000D03*
%TD*%
D14*
%TO.P,R3,1*%
%TO.N,GND*%
X134348000Y-106680000D03*
D15*
%TO.P,R3,2*%
%TO.N,Net-(U1-ADJ)*%
X141968000Y-106680000D03*
%TD*%
D14*
%TO.P,R2,1*%
%TO.N,Net-(U1-ADJ)*%
X141968000Y-109220000D03*
D15*
%TO.P,R2,2*%
%TO.N,/3.3V*%
X134348000Y-109220000D03*
%TD*%
%TO.P,R1,2*%
%TO.N,/12V*%
X140462000Y-89916000D03*
D14*
%TO.P,R1,1*%
%TO.N,Net-(D1-A)*%
X132842000Y-89916000D03*
%TD*%
D16*
%TO.P,J7,2,Pin_2*%
%TO.N,/PWR_OUT_TOP*%
X147320000Y-75184000D03*
D17*
%TO.P,J7,1,Pin_1*%
%TO.N,GND*%
X147320000Y-72644000D03*
%TD*%
%TO.P,J6,1,Pin_1*%
%TO.N,/3.3V*%
X123713000Y-72644000D03*
D16*
%TO.P,J6,2,Pin_2*%
%TO.N,/PWR_OUT_TOP*%
X126253000Y-72644000D03*
%TO.P,J6,3,Pin_3*%
%TO.N,/5V*%
X128793000Y-72644000D03*
%TD*%
%TO.P,J5,2,Pin_2*%
%TO.N,/PWR_OUT_BOT*%
X147320000Y-120990000D03*
D17*
%TO.P,J5,1,Pin_1*%
%TO.N,GND*%
X147320000Y-118450000D03*
%TD*%
%TO.P,J4,1,Pin_1*%
%TO.N,/3.3V*%
X123444000Y-120904000D03*
D16*
%TO.P,J4,2,Pin_2*%
%TO.N,/PWR_OUT_BOT*%
X125984000Y-120904000D03*
%TO.P,J4,3,Pin_3*%
%TO.N,/5V*%
X128524000Y-120904000D03*
%TD*%
D18*
%TO.P,J3,1,Pin_1*%
%TO.N,GND*%
X135128000Y-74930000D03*
D19*
%TO.P,J3,2,Pin_2*%
%TO.N,/PWR_OUT_TOP*%
X140208000Y-74930000D03*
%TD*%
D18*
%TO.P,J2,1,Pin_1*%
%TO.N,GND*%
X135128000Y-118618000D03*
D19*
%TO.P,J2,2,Pin_2*%
%TO.N,/PWR_OUT_BOT*%
X140208000Y-118618000D03*
%TD*%
D20*
%TO.P,J1,3*%
%TO.N,GND*%
X130508000Y-101728000D03*
D21*
%TO.P,J1,2*%
X127508000Y-97028000D03*
D22*
%TO.P,J1,1*%
%TO.N,/PWR_input*%
X133508000Y-97028000D03*
%TD*%
D23*
%TO.P,D1,2,A*%
%TO.N,Net-(D1-A)*%
X139192000Y-96271000D03*
D24*
%TO.P,D1,1,K*%
%TO.N,GND*%
X139192000Y-98811000D03*
%TD*%
D25*
%TO.P,C3,2*%
%TO.N,GND*%
X121686000Y-81280000D03*
%TO.P,C3,1*%
%TO.N,/5V*%
X124186000Y-81280000D03*
%TD*%
%TO.P,C2,1*%
%TO.N,/3.3V*%
X124186000Y-113792000D03*
%TO.P,C2,2*%
%TO.N,GND*%
X121686000Y-113792000D03*
%TD*%
%TO.P,C1,1*%
%TO.N,/12V*%
X129246000Y-81280000D03*
%TO.P,C1,2*%
%TO.N,GND*%
X126746000Y-81280000D03*
%TD*%
D26*
%TO.N,/3.3V*%
X133350000Y-111252000D03*
%TD*%
D27*
%TO.N,/PWR_OUT_BOT*%
X140208000Y-118618000D02*
X142580000Y-120990000D01*
X142580000Y-120990000D02*
X147320000Y-120990000D01*
%TO.N,/PWR_OUT_TOP*%
X140462000Y-75184000D02*
X140208000Y-74930000D01*
X147320000Y-75184000D02*
X140462000Y-75184000D01*
%TO.N,/3.3V*%
X123713000Y-72644000D02*
X120025000Y-76332000D01*
X120025000Y-76332000D02*
X120025000Y-103181500D01*
X125476000Y-108632500D02*
X125476000Y-108895000D01*
X120025000Y-103181500D02*
X125476000Y-108632500D01*
%TO.N,/PWR_OUT_BOT*%
X125984000Y-120904000D02*
X127259000Y-122179000D01*
X127259000Y-122179000D02*
X136647000Y-122179000D01*
X136647000Y-122179000D02*
X140208000Y-118618000D01*
D28*
%TO.N,Net-(D1-A)*%
X132842000Y-89916000D02*
X135162000Y-92236000D01*
X135633000Y-92236000D02*
X139192000Y-95795000D01*
%TO.N,/12V*%
X139248000Y-87450000D02*
X140462000Y-88664000D01*
%TO.N,Net-(D1-A)*%
X139192000Y-95795000D02*
X139192000Y-96271000D01*
X135162000Y-92236000D02*
X135633000Y-92236000D01*
%TO.N,/12V*%
X139248000Y-84582000D02*
X139248000Y-87450000D01*
X140462000Y-88664000D02*
X140462000Y-89916000D01*
D27*
%TO.N,/PWR_input*%
X136748000Y-84582000D02*
X135373000Y-85957000D01*
X135373000Y-85957000D02*
X134007000Y-85957000D01*
X134007000Y-85957000D02*
X131064000Y-88900000D01*
X131064000Y-88900000D02*
X131064000Y-94584000D01*
X131064000Y-94584000D02*
X133508000Y-97028000D01*
%TO.N,/3.3V*%
X124186000Y-118344000D02*
X124206000Y-118364000D01*
X124186000Y-113792000D02*
X124186000Y-118344000D01*
X124206000Y-118364000D02*
X123444000Y-119126000D01*
X123444000Y-119126000D02*
X123444000Y-120904000D01*
X124186000Y-113792000D02*
X125476000Y-112502000D01*
X125476000Y-112502000D02*
X125476000Y-108895000D01*
X134348000Y-110254000D02*
X133350000Y-111252000D01*
X134348000Y-109220000D02*
X134348000Y-110254000D01*
D28*
%TO.N,Net-(U1-ADJ)*%
X141968000Y-106680000D02*
X141968000Y-109220000D01*
D27*
%TO.N,/5V*%
X122428000Y-85923000D02*
X122428000Y-101311421D01*
X131318000Y-107442000D02*
X131318000Y-118110000D01*
X122428000Y-101311421D02*
X124494579Y-103378000D01*
X124494579Y-103378000D02*
X127254000Y-103378000D01*
X127254000Y-103378000D02*
X131318000Y-107442000D01*
X131318000Y-118110000D02*
X128524000Y-120904000D01*
X122428000Y-85923000D02*
X122428000Y-83038000D01*
X122428000Y-83038000D02*
X124186000Y-81280000D01*
D28*
%TO.N,/12V*%
X129246000Y-81280000D02*
X129246000Y-84185000D01*
X129246000Y-84185000D02*
X127508000Y-85923000D01*
X129246000Y-81280000D02*
X135946000Y-81280000D01*
X135946000Y-81280000D02*
X139248000Y-84582000D01*
D27*
%TO.N,/5V*%
X128793000Y-72644000D02*
X124186000Y-77251000D01*
X124186000Y-77251000D02*
X124186000Y-81280000D01*
%TO.N,/PWR_OUT_TOP*%
X126253000Y-72644000D02*
X127528000Y-71369000D01*
X127528000Y-71369000D02*
X136647000Y-71369000D01*
X136647000Y-71369000D02*
X140208000Y-74930000D01*
%TD*%
M02*
