%TF.GenerationSoftware,KiCad,Pcbnew,7.0.5-0*%
%TF.CreationDate,2023-07-08T23:53:13+02:00*%
%TF.ProjectId,Breadboard Power Supply,42726561-6462-46f6-9172-6420506f7765,rev?*%
%TF.SameCoordinates,Original*%
%TF.FileFunction,Copper,L2,Bot*%
%TF.FilePolarity,Positive*%
%FSLAX46Y46*%
G04 Gerber Fmt 4.6, Leading zero omitted, Abs format (unit mm)*
G04 Created by KiCad (PCBNEW 7.0.5-0) date 2023-07-08 23:53:13*
%MOMM*%
%LPD*%
G01*
G04 APERTURE LIST*
G04 Aperture macros list*
%AMRoundRect*
0 Rectangle with rounded corners*
0 $1 Rounding radius*
0 $2 $3 $4 $5 $6 $7 $8 $9 X,Y pos of 4 corners*
0 Add a 4 corners polygon primitive as box body*
4,1,4,$2,$3,$4,$5,$6,$7,$8,$9,$2,$3,0*
0 Add four circle primitives for the rounded corners*
1,1,$1+$1,$2,$3*
1,1,$1+$1,$4,$5*
1,1,$1+$1,$6,$7*
1,1,$1+$1,$8,$9*
0 Add four rect primitives between the rounded corners*
20,1,$1+$1,$2,$3,$4,$5,0*
20,1,$1+$1,$4,$5,$6,$7,0*
20,1,$1+$1,$6,$7,$8,$9,0*
20,1,$1+$1,$8,$9,$2,$3,0*%
G04 Aperture macros list end*
%TA.AperFunction,ComponentPad*%
%ADD10R,1.905000X2.000000*%
%TD*%
%TA.AperFunction,ComponentPad*%
%ADD11O,1.905000X2.000000*%
%TD*%
%TA.AperFunction,ComponentPad*%
%ADD12C,1.900000*%
%TD*%
%TA.AperFunction,ComponentPad*%
%ADD13R,1.900000X1.900000*%
%TD*%
%TA.AperFunction,ComponentPad*%
%ADD14C,1.400000*%
%TD*%
%TA.AperFunction,ComponentPad*%
%ADD15O,1.400000X1.400000*%
%TD*%
%TA.AperFunction,ComponentPad*%
%ADD16O,1.700000X1.700000*%
%TD*%
%TA.AperFunction,ComponentPad*%
%ADD17R,1.700000X1.700000*%
%TD*%
%TA.AperFunction,ComponentPad*%
%ADD18R,3.000000X3.000000*%
%TD*%
%TA.AperFunction,ComponentPad*%
%ADD19C,3.000000*%
%TD*%
%TA.AperFunction,ComponentPad*%
%ADD20RoundRect,0.875000X-0.875000X-0.875000X0.875000X-0.875000X0.875000X0.875000X-0.875000X0.875000X0*%
%TD*%
%TA.AperFunction,ComponentPad*%
%ADD21RoundRect,0.750000X-0.750000X-1.000000X0.750000X-1.000000X0.750000X1.000000X-0.750000X1.000000X0*%
%TD*%
%TA.AperFunction,ComponentPad*%
%ADD22R,3.500000X3.500000*%
%TD*%
%TA.AperFunction,ComponentPad*%
%ADD23C,1.800000*%
%TD*%
%TA.AperFunction,ComponentPad*%
%ADD24R,1.800000X1.800000*%
%TD*%
%TA.AperFunction,ComponentPad*%
%ADD25C,1.600000*%
%TD*%
%TA.AperFunction,ViaPad*%
%ADD26C,0.900000*%
%TD*%
%TA.AperFunction,Conductor*%
%ADD27C,0.250000*%
%TD*%
%TA.AperFunction,Conductor*%
%ADD28C,0.350000*%
%TD*%
G04 APERTURE END LIST*
D10*
%TO.P,U2,1,VI*%
%TO.N,/12V*%
X127508000Y-85923000D03*
D11*
%TO.P,U2,2,GND*%
%TO.N,GND*%
X124968000Y-85923000D03*
%TO.P,U2,3,VO*%
%TO.N,/5V*%
X122428000Y-85923000D03*
%TD*%
D10*
%TO.P,U1,1,ADJ*%
%TO.N,Net-(U1-ADJ)*%
X122936000Y-108895000D03*
D11*
%TO.P,U1,2,VO*%
%TO.N,/3.3V*%
X125476000Y-108895000D03*
%TO.P,U1,3,VI*%
%TO.N,/12V*%
X128016000Y-108895000D03*
%TD*%
D12*
%TO.P,S1,3*%
%TO.N,unconnected-(S1-Pad3)*%
X134248000Y-84582000D03*
%TO.P,S1,2*%
%TO.N,/PWR_input*%
X136748000Y-84582000D03*
D13*
%TO.P,S1,1*%
%TO.N,/12V*%
X139248000Y-84582000D03*
%TD*%
D14*
%TO.P,R3,1*%
%TO.N,GND*%
X134348000Y-106680000D03*
D15*
%TO.P,R3,2*%
%TO.N,Net-(U1-ADJ)*%
X141968000Y-106680000D03*
%TD*%
D14*
%TO.P,R2,1*%
%TO.N,Net-(U1-ADJ)*%
X141968000Y-109220000D03*
D15*
%TO.P,R2,2*%
%TO.N,/3.3V*%
X134348000Y-109220000D03*
%TD*%
%TO.P,R1,2*%
%TO.N,/12V*%
X140462000Y-89916000D03*
D14*
%TO.P,R1,1*%
%TO.N,Net-(D1-A)*%
X132842000Y-89916000D03*
%TD*%
D16*
%TO.P,J7,2,Pin_2*%
%TO.N,/PWR_OUT_TOP*%
X147320000Y-75184000D03*
D17*
%TO.P,J7,1,Pin_1*%
%TO.N,GND*%
X147320000Y-72644000D03*
%TD*%
%TO.P,J6,1,Pin_1*%
%TO.N,/3.3V*%
X123713000Y-72644000D03*
D16*
%TO.P,J6,2,Pin_2*%
%TO.N,/PWR_OUT_TOP*%
X126253000Y-72644000D03*
%TO.P,J6,3,Pin_3*%
%TO.N,/5V*%
X128793000Y-72644000D03*
%TD*%
%TO.P,J5,2,Pin_2*%
%TO.N,/PWR_OUT_BOT*%
X147320000Y-120990000D03*
D17*
%TO.P,J5,1,Pin_1*%
%TO.N,GND*%
X147320000Y-118450000D03*
%TD*%
%TO.P,J4,1,Pin_1*%
%TO.N,/3.3V*%
X123444000Y-120904000D03*
D16*
%TO.P,J4,2,Pin_2*%
%TO.N,/PWR_OUT_BOT*%
X125984000Y-120904000D03*
%TO.P,J4,3,Pin_3*%
%TO.N,/5V*%
X128524000Y-120904000D03*
%TD*%
D18*
%TO.P,J3,1,Pin_1*%
%TO.N,GND*%
X135128000Y-74930000D03*
D19*
%TO.P,J3,2,Pin_2*%
%TO.N,/PWR_OUT_TOP*%
X140208000Y-74930000D03*
%TD*%
D18*
%TO.P,J2,1,Pin_1*%
%TO.N,GND*%
X135128000Y-118618000D03*
D19*
%TO.P,J2,2,Pin_2*%
%TO.N,/PWR_OUT_BOT*%
X140208000Y-118618000D03*
%TD*%
D20*
%TO.P,J1,3*%
%TO.N,GND*%
X130508000Y-101728000D03*
D21*
%TO.P,J1,2*%
X127508000Y-97028000D03*
D22*
%TO.P,J1,1*%
%TO.N,/PWR_input*%
X133508000Y-97028000D03*
%TD*%
D23*
%TO.P,D1,2,A*%
%TO.N,Net-(D1-A)*%
X139192000Y-96271000D03*
D24*
%TO.P,D1,1,K*%
%TO.N,GND*%
X139192000Y-98811000D03*
%TD*%
D25*
%TO.P,C3,2*%
%TO.N,GND*%
X121686000Y-81280000D03*
%TO.P,C3,1*%
%TO.N,/5V*%
X124186000Y-81280000D03*
%TD*%
%TO.P,C2,1*%
%TO.N,/3.3V*%
X124186000Y-113792000D03*
%TO.P,C2,2*%
%TO.N,GND*%
X121686000Y-113792000D03*
%TD*%
%TO.P,C1,1*%
%TO.N,/12V*%
X129246000Y-81280000D03*
%TO.P,C1,2*%
%TO.N,GND*%
X126746000Y-81280000D03*
%TD*%
D26*
%TO.N,/3.3V*%
X133350000Y-111252000D03*
%TD*%
D27*
%TO.N,/12V*%
X127508000Y-85923000D02*
X127508000Y-88392000D01*
X124206000Y-91694000D02*
X124206000Y-99568000D01*
X124206000Y-99568000D02*
X128016000Y-103378000D01*
X127508000Y-88392000D02*
X124206000Y-91694000D01*
X128016000Y-103378000D02*
X128016000Y-108895000D01*
%TO.N,Net-(U1-ADJ)*%
X141968000Y-109220000D02*
X139111000Y-112077000D01*
X139111000Y-112077000D02*
X126118000Y-112077000D01*
X126118000Y-112077000D02*
X122936000Y-108895000D01*
D28*
%TO.N,/3.3V*%
X133350000Y-111252000D02*
X127833000Y-111252000D01*
X127833000Y-111252000D02*
X125476000Y-108895000D01*
%TD*%
%TA.AperFunction,Conductor*%
%TO.N,GND*%
G36*
X148365495Y-70885685D02*
G01*
X148367239Y-70886826D01*
X149042784Y-71337189D01*
X149087644Y-71390753D01*
X149098000Y-71440362D01*
X149098000Y-76402637D01*
X149078315Y-76469676D01*
X149061681Y-76490318D01*
X148626319Y-76925681D01*
X148564996Y-76959166D01*
X148538638Y-76962000D01*
X143510000Y-76962000D01*
X143002000Y-77723999D01*
X143002000Y-105717309D01*
X142982315Y-105784348D01*
X142929511Y-105830103D01*
X142860353Y-105840047D01*
X142796797Y-105811022D01*
X142794462Y-105808946D01*
X142694562Y-105717876D01*
X142694560Y-105717874D01*
X142505404Y-105600754D01*
X142505398Y-105600752D01*
X142297940Y-105520382D01*
X142079243Y-105479500D01*
X141856757Y-105479500D01*
X141638060Y-105520382D01*
X141506864Y-105571207D01*
X141430601Y-105600752D01*
X141430595Y-105600754D01*
X141241439Y-105717874D01*
X141241437Y-105717876D01*
X141077020Y-105867761D01*
X140942943Y-106045308D01*
X140942938Y-106045316D01*
X140843775Y-106244461D01*
X140843769Y-106244476D01*
X140782885Y-106458462D01*
X140782884Y-106458464D01*
X140762357Y-106679999D01*
X140762357Y-106680000D01*
X140782884Y-106901535D01*
X140782885Y-106901537D01*
X140843769Y-107115523D01*
X140843775Y-107115538D01*
X140942938Y-107314683D01*
X140942943Y-107314691D01*
X141077020Y-107492238D01*
X141241437Y-107642123D01*
X141241439Y-107642125D01*
X141430595Y-107759245D01*
X141430596Y-107759245D01*
X141430599Y-107759247D01*
X141624524Y-107834374D01*
X141679924Y-107876946D01*
X141703515Y-107942713D01*
X141687804Y-108010793D01*
X141637780Y-108059572D01*
X141624533Y-108065622D01*
X141476488Y-108122975D01*
X141430601Y-108140752D01*
X141430595Y-108140754D01*
X141241439Y-108257874D01*
X141241437Y-108257876D01*
X141077020Y-108407761D01*
X140942943Y-108585308D01*
X140942938Y-108585316D01*
X140843775Y-108784461D01*
X140843769Y-108784476D01*
X140782885Y-108998462D01*
X140782884Y-108998464D01*
X140775876Y-109074102D01*
X140762357Y-109220000D01*
X140779381Y-109403726D01*
X140782886Y-109441546D01*
X140783317Y-109443854D01*
X140783203Y-109444973D01*
X140783414Y-109447244D01*
X140782969Y-109447285D01*
X140776275Y-109513368D01*
X140749106Y-109554301D01*
X138888228Y-111415181D01*
X138826905Y-111448666D01*
X138800547Y-111451500D01*
X134422263Y-111451500D01*
X134355224Y-111431815D01*
X134309469Y-111379011D01*
X134298860Y-111315346D01*
X134300259Y-111301142D01*
X134305099Y-111252000D01*
X134286747Y-111065669D01*
X134232396Y-110886499D01*
X134144136Y-110721375D01*
X134144135Y-110721373D01*
X134051599Y-110608618D01*
X134024286Y-110544308D01*
X134036077Y-110475440D01*
X134083229Y-110423880D01*
X134150772Y-110405997D01*
X134170234Y-110408064D01*
X134236757Y-110420500D01*
X134236758Y-110420500D01*
X134459241Y-110420500D01*
X134459243Y-110420500D01*
X134677940Y-110379618D01*
X134885401Y-110299247D01*
X135074562Y-110182124D01*
X135238981Y-110032236D01*
X135373058Y-109854689D01*
X135472229Y-109655528D01*
X135533115Y-109441536D01*
X135553643Y-109220000D01*
X135533115Y-108998464D01*
X135472229Y-108784472D01*
X135467591Y-108775157D01*
X135387344Y-108614000D01*
X137382000Y-108614000D01*
X137382000Y-110116000D01*
X138776024Y-110116000D01*
X138884000Y-110008023D01*
X138884000Y-108614000D01*
X137382000Y-108614000D01*
X135387344Y-108614000D01*
X135373061Y-108585316D01*
X135373056Y-108585308D01*
X135238979Y-108407761D01*
X135074562Y-108257876D01*
X135074560Y-108257874D01*
X134885404Y-108140754D01*
X134885398Y-108140751D01*
X134755967Y-108090610D01*
X134690784Y-108065358D01*
X134635385Y-108022786D01*
X134611794Y-107957019D01*
X134627505Y-107888939D01*
X134677529Y-107840160D01*
X134690786Y-107834105D01*
X134885177Y-107758797D01*
X134885181Y-107758795D01*
X135001326Y-107686879D01*
X134348001Y-107033553D01*
X134348000Y-107033553D01*
X133694672Y-107686879D01*
X133694672Y-107686880D01*
X133810821Y-107758797D01*
X133810822Y-107758798D01*
X134005213Y-107834105D01*
X134060614Y-107876678D01*
X134084205Y-107942445D01*
X134068494Y-108010525D01*
X134018470Y-108059304D01*
X134005213Y-108065359D01*
X133810601Y-108140751D01*
X133810595Y-108140754D01*
X133621439Y-108257874D01*
X133621437Y-108257876D01*
X133457020Y-108407761D01*
X133322943Y-108585308D01*
X133322938Y-108585316D01*
X133223775Y-108784461D01*
X133223769Y-108784476D01*
X133162885Y-108998462D01*
X133162884Y-108998464D01*
X133142357Y-109219999D01*
X133142357Y-109220000D01*
X133162884Y-109441535D01*
X133162885Y-109441537D01*
X133223769Y-109655523D01*
X133223775Y-109655538D01*
X133322938Y-109854683D01*
X133322943Y-109854691D01*
X133457018Y-110032235D01*
X133519420Y-110089122D01*
X133555701Y-110148833D01*
X133553940Y-110218681D01*
X133514696Y-110276489D01*
X133450429Y-110303903D01*
X133423728Y-110304162D01*
X133350001Y-110296901D01*
X133350000Y-110296901D01*
X133163668Y-110315252D01*
X133163666Y-110315253D01*
X132984497Y-110369604D01*
X132819376Y-110457862D01*
X132819373Y-110457864D01*
X132709114Y-110548353D01*
X132644804Y-110575666D01*
X132630449Y-110576500D01*
X128474320Y-110576500D01*
X128407281Y-110556815D01*
X128361526Y-110504011D01*
X128351582Y-110434853D01*
X128380607Y-110371297D01*
X128434057Y-110335219D01*
X128497684Y-110313375D01*
X128601664Y-110277679D01*
X128813439Y-110163072D01*
X129003463Y-110015171D01*
X129166551Y-109838010D01*
X129298255Y-109636422D01*
X129323662Y-109578500D01*
X130383311Y-109578500D01*
X131384000Y-109578500D01*
X131384000Y-108614000D01*
X130456052Y-108614000D01*
X130464495Y-108715898D01*
X130464588Y-108717176D01*
X130465627Y-108733914D01*
X130465693Y-108735193D01*
X130466599Y-108757084D01*
X130466639Y-108758365D01*
X130466987Y-108775157D01*
X130467000Y-108776439D01*
X130467000Y-109013561D01*
X130466987Y-109014843D01*
X130466639Y-109031635D01*
X130466599Y-109032916D01*
X130465693Y-109054807D01*
X130465627Y-109056086D01*
X130464588Y-109072824D01*
X130464495Y-109074102D01*
X130446877Y-109286724D01*
X130446612Y-109289272D01*
X130442462Y-109322575D01*
X130442092Y-109325109D01*
X130434881Y-109368340D01*
X130434406Y-109370862D01*
X130427515Y-109403726D01*
X130426937Y-109406222D01*
X130383311Y-109578500D01*
X129323662Y-109578500D01*
X129394983Y-109415905D01*
X129454095Y-109182476D01*
X129469000Y-109002600D01*
X129469000Y-108787400D01*
X129454095Y-108607524D01*
X129394983Y-108374095D01*
X129298255Y-108153578D01*
X129166551Y-107951990D01*
X129003463Y-107774829D01*
X128869358Y-107670451D01*
X128813441Y-107626929D01*
X128813432Y-107626923D01*
X128706482Y-107569044D01*
X128656891Y-107519825D01*
X128641500Y-107459990D01*
X128641500Y-107255636D01*
X129881999Y-107255636D01*
X129915640Y-107292179D01*
X129917336Y-107294100D01*
X129939025Y-107319707D01*
X129940641Y-107321697D01*
X129967562Y-107356284D01*
X129969093Y-107358337D01*
X129988607Y-107385667D01*
X129990054Y-107387785D01*
X130139154Y-107616000D01*
X131384000Y-107616000D01*
X131384000Y-106680000D01*
X133142859Y-106680000D01*
X133163378Y-106901439D01*
X133224240Y-107115350D01*
X133323369Y-107314428D01*
X133339137Y-107335308D01*
X133339138Y-107335308D01*
X133965145Y-106709302D01*
X133994372Y-106709302D01*
X134023047Y-106822538D01*
X134086936Y-106920327D01*
X134179115Y-106992072D01*
X134289595Y-107030000D01*
X134377005Y-107030000D01*
X134463216Y-107015614D01*
X134565947Y-106960019D01*
X134645060Y-106874079D01*
X134691982Y-106767108D01*
X134699200Y-106680000D01*
X134701553Y-106680000D01*
X135356861Y-107335308D01*
X135372631Y-107314425D01*
X135372633Y-107314422D01*
X135471759Y-107115350D01*
X135532621Y-106901439D01*
X135553141Y-106680000D01*
X135553141Y-106679999D01*
X135532621Y-106458560D01*
X135471759Y-106244649D01*
X135406704Y-106114000D01*
X137382000Y-106114000D01*
X137382000Y-107616000D01*
X138884000Y-107616000D01*
X138884000Y-106114000D01*
X137382000Y-106114000D01*
X135406704Y-106114000D01*
X135372635Y-106045580D01*
X135372630Y-106045572D01*
X135356860Y-106024690D01*
X134701553Y-106679999D01*
X134701553Y-106680000D01*
X134699200Y-106680000D01*
X134701628Y-106650698D01*
X134672953Y-106537462D01*
X134609064Y-106439673D01*
X134516885Y-106367928D01*
X134406405Y-106330000D01*
X134318995Y-106330000D01*
X134232784Y-106344386D01*
X134130053Y-106399981D01*
X134050940Y-106485921D01*
X134004018Y-106592892D01*
X133994372Y-106709302D01*
X133965145Y-106709302D01*
X133994447Y-106680000D01*
X133339138Y-106024691D01*
X133339137Y-106024691D01*
X133323368Y-106045574D01*
X133224240Y-106244649D01*
X133163378Y-106458560D01*
X133142859Y-106679999D01*
X133142859Y-106680000D01*
X131384000Y-106680000D01*
X131384000Y-106114000D01*
X129882000Y-106114000D01*
X129881999Y-107255636D01*
X128641500Y-107255636D01*
X128641500Y-105673119D01*
X133694671Y-105673119D01*
X134348000Y-106326447D01*
X134348001Y-106326447D01*
X135001327Y-105673119D01*
X134885178Y-105601202D01*
X134885177Y-105601201D01*
X134677804Y-105520865D01*
X134459193Y-105480000D01*
X134236807Y-105480000D01*
X134018195Y-105520865D01*
X133810824Y-105601200D01*
X133810823Y-105601201D01*
X133694671Y-105673119D01*
X128641500Y-105673119D01*
X128641500Y-105116000D01*
X132382000Y-105116000D01*
X132849962Y-105116000D01*
X132932823Y-104985566D01*
X132972211Y-104946630D01*
X133306259Y-104739797D01*
X133308726Y-104738347D01*
X133341486Y-104720098D01*
X133344020Y-104718762D01*
X133387870Y-104696924D01*
X133390466Y-104695706D01*
X133424807Y-104680542D01*
X133427454Y-104679446D01*
X133680529Y-104581404D01*
X133683225Y-104580430D01*
X133718825Y-104568500D01*
X133721564Y-104567652D01*
X133768681Y-104554249D01*
X133771453Y-104553529D01*
X133807953Y-104544946D01*
X133810753Y-104544355D01*
X133884000Y-104530662D01*
X133884000Y-103614000D01*
X134882000Y-103614000D01*
X134882000Y-104543748D01*
X134885247Y-104544355D01*
X134888047Y-104544946D01*
X134924547Y-104553529D01*
X134927319Y-104554249D01*
X134974436Y-104567652D01*
X134977175Y-104568500D01*
X135012775Y-104580430D01*
X135015471Y-104581404D01*
X135268539Y-104679443D01*
X135271185Y-104680539D01*
X135305513Y-104695696D01*
X135308108Y-104696915D01*
X135351959Y-104718751D01*
X135354491Y-104720086D01*
X135387268Y-104738343D01*
X135389738Y-104739794D01*
X135723790Y-104946632D01*
X135763178Y-104985568D01*
X135846037Y-105116000D01*
X136384000Y-105116000D01*
X136384000Y-103614000D01*
X137382000Y-103614000D01*
X137382000Y-105116000D01*
X138884000Y-105116000D01*
X138884000Y-103614000D01*
X139882000Y-103614000D01*
X139882000Y-105116000D01*
X140420284Y-105116000D01*
X140587187Y-104963847D01*
X140589349Y-104961966D01*
X140618210Y-104938000D01*
X140620454Y-104936223D01*
X140659545Y-104906701D01*
X140661871Y-104905028D01*
X140692832Y-104883819D01*
X140695232Y-104882254D01*
X140926038Y-104739346D01*
X140928506Y-104737896D01*
X140961266Y-104719648D01*
X140963799Y-104718313D01*
X141007648Y-104696476D01*
X141010242Y-104695258D01*
X141044585Y-104680093D01*
X141047233Y-104678996D01*
X141300378Y-104580928D01*
X141303071Y-104579956D01*
X141338637Y-104568035D01*
X141341374Y-104567187D01*
X141384000Y-104555058D01*
X141384000Y-103614000D01*
X139882000Y-103614000D01*
X138884000Y-103614000D01*
X137382000Y-103614000D01*
X136384000Y-103614000D01*
X134882000Y-103614000D01*
X133884000Y-103614000D01*
X133535412Y-103614000D01*
X133518891Y-103648574D01*
X133517706Y-103650924D01*
X133501535Y-103681370D01*
X133500252Y-103683667D01*
X133359012Y-103924355D01*
X133357631Y-103926597D01*
X133338938Y-103955560D01*
X133337465Y-103957739D01*
X133311474Y-103994489D01*
X133309908Y-103996606D01*
X133288820Y-104023888D01*
X133287167Y-104025936D01*
X133107278Y-104239297D01*
X133105538Y-104241273D01*
X133082215Y-104266666D01*
X133080394Y-104268566D01*
X133048566Y-104300394D01*
X133046666Y-104302215D01*
X133021273Y-104325538D01*
X133019297Y-104327278D01*
X132805936Y-104507167D01*
X132803888Y-104508820D01*
X132776606Y-104529908D01*
X132774489Y-104531474D01*
X132737739Y-104557465D01*
X132735560Y-104558938D01*
X132706597Y-104577631D01*
X132704355Y-104579012D01*
X132463667Y-104720252D01*
X132461370Y-104721535D01*
X132430924Y-104737706D01*
X132428574Y-104738891D01*
X132387959Y-104758299D01*
X132385559Y-104759384D01*
X132382000Y-104760902D01*
X132382000Y-105116000D01*
X128641500Y-105116000D01*
X128641500Y-103831565D01*
X128661185Y-103764526D01*
X128713989Y-103718771D01*
X128783147Y-103708827D01*
X128831067Y-103727926D01*
X128831615Y-103726994D01*
X129038024Y-103848120D01*
X129257012Y-103930762D01*
X129486809Y-103975205D01*
X129539382Y-103977998D01*
X129539421Y-103977999D01*
X130257999Y-103977999D01*
X130258000Y-103977998D01*
X130258000Y-102228000D01*
X130758000Y-102228000D01*
X130758000Y-103977999D01*
X131476576Y-103977999D01*
X131476588Y-103977998D01*
X131529191Y-103975205D01*
X131758987Y-103930762D01*
X131977975Y-103848120D01*
X132179841Y-103729660D01*
X132179848Y-103729655D01*
X132358786Y-103578788D01*
X132358788Y-103578786D01*
X132509655Y-103399848D01*
X132509660Y-103399841D01*
X132628120Y-103197975D01*
X132710762Y-102978987D01*
X132755205Y-102749191D01*
X132755205Y-102749190D01*
X132757998Y-102696617D01*
X132758000Y-102696578D01*
X132758000Y-101978000D01*
X131941686Y-101978000D01*
X131967493Y-101937844D01*
X132008000Y-101799889D01*
X132008000Y-101656111D01*
X131967493Y-101518156D01*
X131941686Y-101478000D01*
X132757999Y-101478000D01*
X132757999Y-101114000D01*
X134882000Y-101114000D01*
X134882000Y-102616000D01*
X136384000Y-102616000D01*
X136384000Y-101114000D01*
X137382000Y-101114000D01*
X137382000Y-102616000D01*
X138884000Y-102616000D01*
X139882000Y-102616000D01*
X141384000Y-102616000D01*
X141384000Y-101114000D01*
X140616978Y-101114000D01*
X140517089Y-101151256D01*
X140513418Y-101152496D01*
X140464841Y-101167231D01*
X140461098Y-101168239D01*
X140396617Y-101183473D01*
X140392824Y-101184245D01*
X140342830Y-101192804D01*
X140338994Y-101193338D01*
X140232390Y-101204800D01*
X140230734Y-101204956D01*
X140209028Y-101206702D01*
X140207371Y-101206813D01*
X140179027Y-101208331D01*
X140177369Y-101208398D01*
X140155663Y-101208978D01*
X140154006Y-101209000D01*
X139882000Y-101209000D01*
X139882000Y-102616000D01*
X138884000Y-102616000D01*
X138884000Y-101209000D01*
X138229994Y-101209000D01*
X138228337Y-101208978D01*
X138206631Y-101208398D01*
X138204973Y-101208331D01*
X138176629Y-101206813D01*
X138174972Y-101206702D01*
X138153266Y-101204956D01*
X138151610Y-101204800D01*
X138045006Y-101193338D01*
X138041170Y-101192804D01*
X137991176Y-101184245D01*
X137987383Y-101183473D01*
X137922902Y-101168239D01*
X137919159Y-101167231D01*
X137870582Y-101152496D01*
X137866911Y-101151256D01*
X137767022Y-101114000D01*
X137382000Y-101114000D01*
X136384000Y-101114000D01*
X134882000Y-101114000D01*
X132757999Y-101114000D01*
X132757999Y-100759423D01*
X132757998Y-100759411D01*
X132755205Y-100706808D01*
X132710762Y-100477012D01*
X132628120Y-100258024D01*
X132509660Y-100056158D01*
X132509655Y-100056151D01*
X132358788Y-99877213D01*
X132358786Y-99877211D01*
X132179848Y-99726344D01*
X132179841Y-99726339D01*
X131977975Y-99607879D01*
X131758984Y-99525236D01*
X131753840Y-99524241D01*
X131691760Y-99492180D01*
X131656869Y-99431646D01*
X131660244Y-99361858D01*
X131700814Y-99304973D01*
X131765697Y-99279052D01*
X131777374Y-99278499D01*
X135305872Y-99278499D01*
X135365483Y-99272091D01*
X135500331Y-99221796D01*
X135615546Y-99135546D01*
X135701796Y-99020331D01*
X135752091Y-98885483D01*
X135758500Y-98825873D01*
X135758499Y-96271006D01*
X137786700Y-96271006D01*
X137805864Y-96502297D01*
X137805866Y-96502308D01*
X137862842Y-96727300D01*
X137956075Y-96939848D01*
X138083018Y-97134150D01*
X138178167Y-97237510D01*
X138209089Y-97300164D01*
X138201228Y-97369590D01*
X138157081Y-97423746D01*
X138130271Y-97437674D01*
X138049911Y-97467646D01*
X138049906Y-97467649D01*
X137934812Y-97553809D01*
X137934809Y-97553812D01*
X137848649Y-97668906D01*
X137848645Y-97668913D01*
X137798403Y-97803620D01*
X137798401Y-97803627D01*
X137792000Y-97863155D01*
X137792000Y-98561000D01*
X138816722Y-98561000D01*
X138768375Y-98644740D01*
X138738190Y-98776992D01*
X138748327Y-98912265D01*
X138797887Y-99038541D01*
X138815797Y-99061000D01*
X137792000Y-99061000D01*
X137792000Y-99758844D01*
X137798401Y-99818372D01*
X137798403Y-99818379D01*
X137848645Y-99953086D01*
X137848649Y-99953093D01*
X137934809Y-100068187D01*
X137934812Y-100068190D01*
X138049906Y-100154350D01*
X138049913Y-100154354D01*
X138184620Y-100204596D01*
X138184627Y-100204598D01*
X138244155Y-100210999D01*
X138244172Y-100211000D01*
X138942000Y-100211000D01*
X138942000Y-99185189D01*
X138994547Y-99221016D01*
X139124173Y-99261000D01*
X139225724Y-99261000D01*
X139326138Y-99245865D01*
X139442000Y-99190068D01*
X139442000Y-100211000D01*
X140139828Y-100211000D01*
X140139844Y-100210999D01*
X140199372Y-100204598D01*
X140199379Y-100204596D01*
X140334086Y-100154354D01*
X140334093Y-100154350D01*
X140449187Y-100068190D01*
X140449190Y-100068187D01*
X140535350Y-99953093D01*
X140535354Y-99953086D01*
X140585596Y-99818379D01*
X140585598Y-99818372D01*
X140591999Y-99758844D01*
X140592000Y-99758827D01*
X140592000Y-99061000D01*
X139567278Y-99061000D01*
X139615625Y-98977260D01*
X139645810Y-98845008D01*
X139635673Y-98709735D01*
X139586113Y-98583459D01*
X139568203Y-98561000D01*
X140592000Y-98561000D01*
X140592000Y-97863172D01*
X140591999Y-97863155D01*
X140585598Y-97803627D01*
X140585596Y-97803620D01*
X140535354Y-97668913D01*
X140535350Y-97668906D01*
X140449190Y-97553812D01*
X140449187Y-97553809D01*
X140334093Y-97467649D01*
X140334086Y-97467645D01*
X140253729Y-97437674D01*
X140197795Y-97395803D01*
X140173378Y-97330338D01*
X140188230Y-97262065D01*
X140205826Y-97237516D01*
X140300979Y-97134153D01*
X140427924Y-96939849D01*
X140521157Y-96727300D01*
X140578134Y-96502305D01*
X140597300Y-96271000D01*
X140597300Y-96270993D01*
X140578135Y-96039702D01*
X140578133Y-96039691D01*
X140521157Y-95814699D01*
X140427924Y-95602151D01*
X140300983Y-95407852D01*
X140300980Y-95407849D01*
X140300979Y-95407847D01*
X140143784Y-95237087D01*
X140143779Y-95237083D01*
X140143777Y-95237081D01*
X139960634Y-95094535D01*
X139960628Y-95094531D01*
X139756504Y-94984064D01*
X139756495Y-94984061D01*
X139536984Y-94908702D01*
X139365281Y-94880050D01*
X139308049Y-94870500D01*
X139075951Y-94870500D01*
X139030164Y-94878140D01*
X138847015Y-94908702D01*
X138627504Y-94984061D01*
X138627495Y-94984064D01*
X138423371Y-95094531D01*
X138423365Y-95094535D01*
X138240222Y-95237081D01*
X138240219Y-95237084D01*
X138083016Y-95407852D01*
X137956075Y-95602151D01*
X137862842Y-95814699D01*
X137805866Y-96039691D01*
X137805864Y-96039702D01*
X137786700Y-96270993D01*
X137786700Y-96271006D01*
X135758499Y-96271006D01*
X135758499Y-95230128D01*
X135752091Y-95170517D01*
X135731757Y-95116000D01*
X135701797Y-95035671D01*
X135701793Y-95035664D01*
X135615547Y-94920455D01*
X135615544Y-94920452D01*
X135500335Y-94834206D01*
X135500328Y-94834202D01*
X135365482Y-94783908D01*
X135365483Y-94783908D01*
X135305883Y-94777501D01*
X135305881Y-94777500D01*
X135305873Y-94777500D01*
X135305864Y-94777500D01*
X131710129Y-94777500D01*
X131710123Y-94777501D01*
X131650516Y-94783908D01*
X131515671Y-94834202D01*
X131515664Y-94834206D01*
X131400455Y-94920452D01*
X131400452Y-94920455D01*
X131314206Y-95035664D01*
X131314202Y-95035671D01*
X131263908Y-95170517D01*
X131257501Y-95230116D01*
X131257501Y-95230123D01*
X131257500Y-95230135D01*
X131257500Y-98825870D01*
X131257501Y-98825876D01*
X131263908Y-98885483D01*
X131314202Y-99020328D01*
X131314206Y-99020335D01*
X131400452Y-99135544D01*
X131400455Y-99135547D01*
X131515664Y-99221793D01*
X131515673Y-99221798D01*
X131564506Y-99240011D01*
X131620440Y-99281881D01*
X131644858Y-99347345D01*
X131630007Y-99415618D01*
X131580603Y-99465024D01*
X131514598Y-99480018D01*
X131476625Y-99478001D01*
X131476579Y-99478000D01*
X130758000Y-99478000D01*
X130758000Y-101228000D01*
X130258000Y-101228000D01*
X130258000Y-99478000D01*
X129539423Y-99478000D01*
X129539411Y-99478001D01*
X129486808Y-99480794D01*
X129257012Y-99525237D01*
X129038024Y-99607879D01*
X128836158Y-99726339D01*
X128836151Y-99726344D01*
X128657213Y-99877211D01*
X128657211Y-99877213D01*
X128506344Y-100056151D01*
X128506339Y-100056158D01*
X128387879Y-100258024D01*
X128305237Y-100477012D01*
X128260794Y-100706808D01*
X128260794Y-100706809D01*
X128258001Y-100759382D01*
X128258000Y-100759421D01*
X128258000Y-101478000D01*
X129074314Y-101478000D01*
X129048507Y-101518156D01*
X129008000Y-101656111D01*
X129008000Y-101799889D01*
X129048507Y-101937844D01*
X129074314Y-101978000D01*
X128258001Y-101978000D01*
X128258001Y-102436048D01*
X128238316Y-102503087D01*
X128185512Y-102548842D01*
X128116354Y-102558786D01*
X128052798Y-102529761D01*
X128046320Y-102523729D01*
X124867819Y-99345228D01*
X124834334Y-99283905D01*
X124831500Y-99257547D01*
X124831500Y-96778000D01*
X125508000Y-96778000D01*
X127008000Y-96778000D01*
X127008000Y-97278000D01*
X125508001Y-97278000D01*
X125508001Y-98092197D01*
X125518400Y-98224332D01*
X125573377Y-98442519D01*
X125666428Y-98647374D01*
X125666431Y-98647380D01*
X125794559Y-98832323D01*
X125794569Y-98832335D01*
X125953664Y-98991430D01*
X125953676Y-98991440D01*
X126138619Y-99119568D01*
X126138625Y-99119571D01*
X126343480Y-99212622D01*
X126561667Y-99267599D01*
X126693810Y-99277999D01*
X127257999Y-99277999D01*
X127257999Y-99277998D01*
X127257999Y-98461686D01*
X127298156Y-98487493D01*
X127436111Y-98528000D01*
X127579889Y-98528000D01*
X127717844Y-98487493D01*
X127758000Y-98461686D01*
X127758000Y-99277999D01*
X128322182Y-99277999D01*
X128322197Y-99277998D01*
X128454332Y-99267599D01*
X128672519Y-99212622D01*
X128877374Y-99119571D01*
X128877380Y-99119568D01*
X129062323Y-98991440D01*
X129062335Y-98991430D01*
X129221430Y-98832335D01*
X129221440Y-98832323D01*
X129349568Y-98647380D01*
X129349571Y-98647374D01*
X129442622Y-98442519D01*
X129497599Y-98224332D01*
X129507999Y-98092196D01*
X129508000Y-98092184D01*
X129508000Y-97278000D01*
X128008000Y-97278000D01*
X128008000Y-96778000D01*
X129507999Y-96778000D01*
X129507999Y-95963817D01*
X129507998Y-95963802D01*
X129497599Y-95831667D01*
X129442622Y-95613480D01*
X129349571Y-95408625D01*
X129349568Y-95408619D01*
X129221440Y-95223676D01*
X129221430Y-95223664D01*
X129062335Y-95064569D01*
X129062323Y-95064559D01*
X128877380Y-94936431D01*
X128877374Y-94936428D01*
X128672519Y-94843377D01*
X128454332Y-94788400D01*
X128322196Y-94778000D01*
X127758000Y-94778000D01*
X127758000Y-95594313D01*
X127717844Y-95568507D01*
X127579889Y-95528000D01*
X127436111Y-95528000D01*
X127298156Y-95568507D01*
X127258000Y-95594313D01*
X127258000Y-94778000D01*
X126693817Y-94778000D01*
X126693802Y-94778001D01*
X126561667Y-94788400D01*
X126343480Y-94843377D01*
X126138625Y-94936428D01*
X126138619Y-94936431D01*
X125953676Y-95064559D01*
X125953664Y-95064569D01*
X125794569Y-95223664D01*
X125794559Y-95223676D01*
X125666431Y-95408619D01*
X125666428Y-95408625D01*
X125573377Y-95613480D01*
X125518400Y-95831667D01*
X125508000Y-95963803D01*
X125508000Y-96778000D01*
X124831500Y-96778000D01*
X124831500Y-95646239D01*
X124831500Y-93614000D01*
X129882000Y-93614000D01*
X129882000Y-94472850D01*
X129943942Y-94534792D01*
X129945864Y-94536801D01*
X129970441Y-94563688D01*
X129972271Y-94565782D01*
X130002770Y-94602310D01*
X130004506Y-94604487D01*
X130026601Y-94633504D01*
X130028238Y-94635757D01*
X130183480Y-94859837D01*
X130185012Y-94862159D01*
X130204404Y-94893020D01*
X130205832Y-94895410D01*
X130229314Y-94936796D01*
X130230632Y-94939244D01*
X130247179Y-94971718D01*
X130248386Y-94974226D01*
X130274969Y-95032751D01*
X130275169Y-95030900D01*
X130275702Y-95027065D01*
X130284263Y-94977062D01*
X130285036Y-94973266D01*
X130300271Y-94908785D01*
X130301279Y-94905045D01*
X130316012Y-94856474D01*
X130317252Y-94852804D01*
X130392361Y-94651424D01*
X130394055Y-94647333D01*
X130418153Y-94594568D01*
X130420134Y-94590609D01*
X130456433Y-94524133D01*
X130458693Y-94520325D01*
X130490050Y-94471534D01*
X130492575Y-94467897D01*
X130624212Y-94292055D01*
X130626989Y-94288608D01*
X130664968Y-94244778D01*
X130667985Y-94241537D01*
X130721537Y-94187985D01*
X130724778Y-94184968D01*
X130768608Y-94146989D01*
X130772055Y-94144212D01*
X130947897Y-94012575D01*
X130951534Y-94010050D01*
X131000325Y-93978693D01*
X131004133Y-93976433D01*
X131070609Y-93940134D01*
X131074568Y-93938153D01*
X131127333Y-93914055D01*
X131131424Y-93912361D01*
X131332797Y-93837254D01*
X131336467Y-93836014D01*
X131384000Y-93821595D01*
X131384000Y-93614000D01*
X134882000Y-93614000D01*
X134882000Y-93779500D01*
X135320079Y-93779500D01*
X135321741Y-93779522D01*
X135343504Y-93780106D01*
X135345165Y-93780173D01*
X135373508Y-93781694D01*
X135375163Y-93781805D01*
X135396809Y-93783548D01*
X135398460Y-93783703D01*
X135505100Y-93795169D01*
X135508935Y-93795702D01*
X135558938Y-93804263D01*
X135562734Y-93805036D01*
X135627215Y-93820271D01*
X135630955Y-93821279D01*
X135679526Y-93836012D01*
X135683196Y-93837252D01*
X135884576Y-93912361D01*
X135888667Y-93914055D01*
X135941432Y-93938153D01*
X135945391Y-93940134D01*
X136011867Y-93976433D01*
X136015675Y-93978693D01*
X136064466Y-94010050D01*
X136068103Y-94012575D01*
X136243945Y-94144212D01*
X136247392Y-94146989D01*
X136291222Y-94184968D01*
X136294463Y-94187985D01*
X136348015Y-94241537D01*
X136351032Y-94244778D01*
X136384000Y-94282825D01*
X136384000Y-93614000D01*
X137382000Y-93614000D01*
X137382000Y-94695821D01*
X137520799Y-94545044D01*
X137522573Y-94543196D01*
X137546303Y-94519465D01*
X137548152Y-94517690D01*
X137580396Y-94488006D01*
X137582317Y-94486309D01*
X137607944Y-94464604D01*
X137609934Y-94462988D01*
X137827685Y-94293505D01*
X137829740Y-94291973D01*
X137857066Y-94272463D01*
X137859183Y-94271017D01*
X137895874Y-94247047D01*
X137898047Y-94245691D01*
X137926880Y-94228510D01*
X137929108Y-94227244D01*
X138171775Y-94095918D01*
X138174054Y-94094745D01*
X138204219Y-94079998D01*
X138206547Y-94078920D01*
X138246681Y-94061316D01*
X138249047Y-94060337D01*
X138280314Y-94048135D01*
X138282722Y-94047253D01*
X138543697Y-93957660D01*
X138546139Y-93956877D01*
X138578320Y-93947297D01*
X138580792Y-93946616D01*
X138623279Y-93935858D01*
X138625774Y-93935281D01*
X138658623Y-93928393D01*
X138661142Y-93927919D01*
X138884000Y-93890730D01*
X138884000Y-93614000D01*
X139882000Y-93614000D01*
X139882000Y-93971974D01*
X140101278Y-94047253D01*
X140103686Y-94048135D01*
X140134953Y-94060337D01*
X140137319Y-94061316D01*
X140177453Y-94078920D01*
X140179781Y-94079998D01*
X140209946Y-94094745D01*
X140212225Y-94095918D01*
X140454892Y-94227244D01*
X140457120Y-94228510D01*
X140485953Y-94245691D01*
X140488126Y-94247047D01*
X140524817Y-94271017D01*
X140526934Y-94272463D01*
X140554260Y-94291973D01*
X140556315Y-94293505D01*
X140774066Y-94462988D01*
X140776056Y-94464604D01*
X140801683Y-94486309D01*
X140803604Y-94488006D01*
X140835848Y-94517690D01*
X140837697Y-94519465D01*
X140861427Y-94543196D01*
X140863201Y-94545044D01*
X141050062Y-94748031D01*
X141051756Y-94749950D01*
X141073429Y-94775536D01*
X141075043Y-94777524D01*
X141101966Y-94812107D01*
X141103500Y-94814165D01*
X141123029Y-94841515D01*
X141124476Y-94843633D01*
X141275401Y-95074641D01*
X141276758Y-95076814D01*
X141293941Y-95105650D01*
X141295208Y-95107880D01*
X141299602Y-95116000D01*
X141384000Y-95116000D01*
X141384000Y-93614000D01*
X139882000Y-93614000D01*
X138884000Y-93614000D01*
X137382000Y-93614000D01*
X136384000Y-93614000D01*
X134882000Y-93614000D01*
X131384000Y-93614000D01*
X129882000Y-93614000D01*
X124831500Y-93614000D01*
X124831500Y-92004448D01*
X124851184Y-91937413D01*
X124867813Y-91916776D01*
X125670589Y-91114000D01*
X127382000Y-91114000D01*
X127382000Y-92616000D01*
X128884000Y-92616000D01*
X128884000Y-91114000D01*
X129882000Y-91114000D01*
X129882000Y-92616000D01*
X131384000Y-92616000D01*
X132382000Y-92616000D01*
X133884000Y-92616000D01*
X133884000Y-91856630D01*
X133883962Y-91856654D01*
X133881494Y-91858104D01*
X133848734Y-91876352D01*
X133846201Y-91877687D01*
X133802352Y-91899524D01*
X133799758Y-91900742D01*
X133765415Y-91915907D01*
X133762767Y-91917004D01*
X133509622Y-92015072D01*
X133506929Y-92016044D01*
X133471363Y-92027965D01*
X133468626Y-92028813D01*
X133421511Y-92042219D01*
X133418740Y-92042939D01*
X133382209Y-92051532D01*
X133379405Y-92052123D01*
X133112552Y-92102007D01*
X133109725Y-92102468D01*
X133072565Y-92107652D01*
X133069720Y-92107982D01*
X133020942Y-92112502D01*
X133018085Y-92112700D01*
X132980602Y-92114434D01*
X132977738Y-92114500D01*
X132706262Y-92114500D01*
X132703398Y-92114434D01*
X132665915Y-92112700D01*
X132663058Y-92112502D01*
X132614280Y-92107982D01*
X132611435Y-92107652D01*
X132574275Y-92102468D01*
X132571448Y-92102007D01*
X132382000Y-92066592D01*
X132382000Y-92616000D01*
X131384000Y-92616000D01*
X131384000Y-91561787D01*
X131260568Y-91449264D01*
X131258496Y-91447286D01*
X131231963Y-91420752D01*
X131229984Y-91418680D01*
X131196983Y-91382479D01*
X131195103Y-91380318D01*
X131171135Y-91351455D01*
X131169357Y-91349210D01*
X131005763Y-91132576D01*
X131004090Y-91130251D01*
X130992958Y-91114000D01*
X129882000Y-91114000D01*
X128884000Y-91114000D01*
X127382000Y-91114000D01*
X125670589Y-91114000D01*
X127891788Y-88892801D01*
X127904042Y-88882986D01*
X127903859Y-88882764D01*
X127909868Y-88877791D01*
X127909877Y-88877786D01*
X127956607Y-88828022D01*
X127957846Y-88826743D01*
X127978120Y-88806471D01*
X127982379Y-88800978D01*
X127986152Y-88796561D01*
X128018062Y-88762582D01*
X128027713Y-88745024D01*
X128038396Y-88728761D01*
X128050673Y-88712936D01*
X128069185Y-88670153D01*
X128071738Y-88664941D01*
X128094197Y-88624092D01*
X128096788Y-88614000D01*
X129882000Y-88614000D01*
X129882000Y-90116000D01*
X130652614Y-90116000D01*
X130640354Y-89983694D01*
X130640155Y-89980835D01*
X130638423Y-89943356D01*
X130638357Y-89940493D01*
X130638357Y-89916000D01*
X131636357Y-89916000D01*
X131656884Y-90137535D01*
X131656885Y-90137537D01*
X131717769Y-90351523D01*
X131717775Y-90351538D01*
X131816938Y-90550683D01*
X131816943Y-90550691D01*
X131951020Y-90728238D01*
X132115437Y-90878123D01*
X132115439Y-90878125D01*
X132304595Y-90995245D01*
X132304596Y-90995245D01*
X132304599Y-90995247D01*
X132512060Y-91075618D01*
X132730757Y-91116500D01*
X132730759Y-91116500D01*
X132953241Y-91116500D01*
X132953243Y-91116500D01*
X132966617Y-91114000D01*
X134882000Y-91114000D01*
X134882000Y-92616000D01*
X136384000Y-92616000D01*
X136384000Y-91114000D01*
X137382000Y-91114000D01*
X137382000Y-92616000D01*
X138884000Y-92616000D01*
X139882000Y-92616000D01*
X141384000Y-92616000D01*
X141384000Y-91916493D01*
X141382767Y-91917004D01*
X141129622Y-92015072D01*
X141126929Y-92016044D01*
X141091363Y-92027965D01*
X141088626Y-92028813D01*
X141041511Y-92042219D01*
X141038740Y-92042939D01*
X141002209Y-92051532D01*
X140999405Y-92052123D01*
X140732552Y-92102007D01*
X140729725Y-92102468D01*
X140692565Y-92107652D01*
X140689720Y-92107982D01*
X140640942Y-92112502D01*
X140638085Y-92112700D01*
X140600602Y-92114434D01*
X140597738Y-92114500D01*
X140326262Y-92114500D01*
X140323398Y-92114434D01*
X140285915Y-92112700D01*
X140283058Y-92112502D01*
X140234280Y-92107982D01*
X140231435Y-92107652D01*
X140194275Y-92102468D01*
X140191448Y-92102007D01*
X139924595Y-92052123D01*
X139921791Y-92051532D01*
X139885260Y-92042939D01*
X139882489Y-92042219D01*
X139882000Y-92042079D01*
X139882000Y-92616000D01*
X138884000Y-92616000D01*
X138884000Y-91452391D01*
X138880569Y-91449264D01*
X138878497Y-91447286D01*
X138851963Y-91420752D01*
X138849984Y-91418680D01*
X138816983Y-91382479D01*
X138815103Y-91380318D01*
X138791135Y-91351455D01*
X138789357Y-91349210D01*
X138625763Y-91132576D01*
X138624090Y-91130251D01*
X138612958Y-91114000D01*
X137382000Y-91114000D01*
X136384000Y-91114000D01*
X134882000Y-91114000D01*
X132966617Y-91114000D01*
X133171940Y-91075618D01*
X133379401Y-90995247D01*
X133568562Y-90878124D01*
X133732981Y-90728236D01*
X133867058Y-90550689D01*
X133966229Y-90351528D01*
X134027115Y-90137536D01*
X134047643Y-89916000D01*
X134045373Y-89891507D01*
X134027115Y-89694464D01*
X134027114Y-89694462D01*
X133993974Y-89577988D01*
X133966229Y-89480472D01*
X133948517Y-89444901D01*
X133867061Y-89281316D01*
X133867056Y-89281308D01*
X133732979Y-89103761D01*
X133568562Y-88953876D01*
X133568560Y-88953874D01*
X133379404Y-88836754D01*
X133379398Y-88836752D01*
X133171940Y-88756382D01*
X132953243Y-88715500D01*
X132730757Y-88715500D01*
X132512060Y-88756382D01*
X132408380Y-88796548D01*
X132304601Y-88836752D01*
X132304595Y-88836754D01*
X132115439Y-88953874D01*
X132115437Y-88953876D01*
X131951020Y-89103761D01*
X131816943Y-89281308D01*
X131816938Y-89281316D01*
X131717775Y-89480461D01*
X131717769Y-89480476D01*
X131656885Y-89694462D01*
X131656884Y-89694464D01*
X131636357Y-89915999D01*
X131636357Y-89916000D01*
X130638357Y-89916000D01*
X130638357Y-89891507D01*
X130638423Y-89888644D01*
X130640155Y-89851165D01*
X130640354Y-89848306D01*
X130665403Y-89577988D01*
X130665733Y-89575143D01*
X130670918Y-89537972D01*
X130671380Y-89535143D01*
X130680382Y-89486991D01*
X130680973Y-89484189D01*
X130689562Y-89447673D01*
X130690282Y-89444901D01*
X130764567Y-89183815D01*
X130765414Y-89181080D01*
X130777326Y-89145539D01*
X130778297Y-89142849D01*
X130795988Y-89097169D01*
X130797085Y-89094520D01*
X130812254Y-89060161D01*
X130813473Y-89057565D01*
X130934489Y-88814533D01*
X130935825Y-88811998D01*
X130954088Y-88779212D01*
X130955539Y-88776742D01*
X130981327Y-88735095D01*
X130982891Y-88732695D01*
X131004090Y-88701749D01*
X131005763Y-88699424D01*
X131070272Y-88614000D01*
X134882000Y-88614000D01*
X134882000Y-89083386D01*
X134886915Y-89094520D01*
X134888012Y-89097169D01*
X134905703Y-89142849D01*
X134906674Y-89145539D01*
X134918586Y-89181080D01*
X134919433Y-89183815D01*
X134993718Y-89444901D01*
X134994438Y-89447673D01*
X135003027Y-89484189D01*
X135003618Y-89486991D01*
X135012620Y-89535143D01*
X135013082Y-89537972D01*
X135018267Y-89575143D01*
X135018597Y-89577988D01*
X135043646Y-89848306D01*
X135043845Y-89851165D01*
X135045577Y-89888644D01*
X135045643Y-89891507D01*
X135045643Y-89940493D01*
X135045577Y-89943356D01*
X135043845Y-89980835D01*
X135043646Y-89983694D01*
X135031386Y-90116000D01*
X136384000Y-90116000D01*
X136384000Y-88614000D01*
X137382000Y-88614000D01*
X137382000Y-90116000D01*
X138272614Y-90116000D01*
X138260354Y-89983694D01*
X138260155Y-89980835D01*
X138258423Y-89943356D01*
X138258357Y-89940493D01*
X138258357Y-89916000D01*
X139256357Y-89916000D01*
X139276884Y-90137535D01*
X139276885Y-90137537D01*
X139337769Y-90351523D01*
X139337775Y-90351538D01*
X139436938Y-90550683D01*
X139436943Y-90550691D01*
X139571020Y-90728238D01*
X139735437Y-90878123D01*
X139735439Y-90878125D01*
X139924595Y-90995245D01*
X139924596Y-90995245D01*
X139924599Y-90995247D01*
X140132060Y-91075618D01*
X140350757Y-91116500D01*
X140350759Y-91116500D01*
X140573241Y-91116500D01*
X140573243Y-91116500D01*
X140791940Y-91075618D01*
X140999401Y-90995247D01*
X141188562Y-90878124D01*
X141352981Y-90728236D01*
X141487058Y-90550689D01*
X141586229Y-90351528D01*
X141647115Y-90137536D01*
X141667643Y-89916000D01*
X141665373Y-89891507D01*
X141647115Y-89694464D01*
X141647114Y-89694462D01*
X141613974Y-89577988D01*
X141586229Y-89480472D01*
X141568517Y-89444901D01*
X141487061Y-89281316D01*
X141487056Y-89281308D01*
X141352979Y-89103761D01*
X141188562Y-88953876D01*
X141188560Y-88953874D01*
X140999404Y-88836754D01*
X140999398Y-88836752D01*
X140791940Y-88756382D01*
X140573243Y-88715500D01*
X140350757Y-88715500D01*
X140132060Y-88756382D01*
X140028380Y-88796548D01*
X139924601Y-88836752D01*
X139924595Y-88836754D01*
X139735439Y-88953874D01*
X139735437Y-88953876D01*
X139571020Y-89103761D01*
X139436943Y-89281308D01*
X139436938Y-89281316D01*
X139337775Y-89480461D01*
X139337769Y-89480476D01*
X139276885Y-89694462D01*
X139276884Y-89694464D01*
X139256357Y-89915999D01*
X139256357Y-89916000D01*
X138258357Y-89916000D01*
X138258357Y-89891507D01*
X138258423Y-89888644D01*
X138260155Y-89851165D01*
X138260354Y-89848306D01*
X138285403Y-89577988D01*
X138285733Y-89575143D01*
X138290918Y-89537972D01*
X138291380Y-89535143D01*
X138300382Y-89486991D01*
X138300973Y-89484189D01*
X138309562Y-89447673D01*
X138310282Y-89444901D01*
X138384567Y-89183815D01*
X138385414Y-89181080D01*
X138397326Y-89145539D01*
X138398297Y-89142849D01*
X138415988Y-89097169D01*
X138417085Y-89094520D01*
X138432254Y-89060161D01*
X138433473Y-89057565D01*
X138554489Y-88814533D01*
X138555825Y-88811998D01*
X138574088Y-88779212D01*
X138575539Y-88776742D01*
X138601327Y-88735095D01*
X138602891Y-88732695D01*
X138624090Y-88701749D01*
X138625763Y-88699424D01*
X138690272Y-88614000D01*
X137382000Y-88614000D01*
X136384000Y-88614000D01*
X134882000Y-88614000D01*
X131070272Y-88614000D01*
X129882000Y-88614000D01*
X128096788Y-88614000D01*
X128099180Y-88604680D01*
X128105481Y-88586280D01*
X128113437Y-88567896D01*
X128120729Y-88521852D01*
X128121906Y-88516171D01*
X128133500Y-88471019D01*
X128133500Y-88450982D01*
X128135027Y-88431582D01*
X128138160Y-88411804D01*
X128133775Y-88365415D01*
X128133500Y-88359577D01*
X128133500Y-87616000D01*
X129882000Y-87616000D01*
X131384000Y-87616000D01*
X131384000Y-86170171D01*
X132382000Y-86170171D01*
X132382000Y-87616000D01*
X133884000Y-87616000D01*
X134882000Y-87616000D01*
X136384000Y-87616000D01*
X137382000Y-87616000D01*
X138884000Y-87616000D01*
X139882000Y-87616000D01*
X141384000Y-87616000D01*
X141384000Y-86448199D01*
X141331788Y-86517945D01*
X141329011Y-86521392D01*
X141291032Y-86565222D01*
X141288015Y-86568463D01*
X141234463Y-86622015D01*
X141231222Y-86625032D01*
X141187392Y-86663011D01*
X141183945Y-86665788D01*
X141008103Y-86797425D01*
X141004466Y-86799950D01*
X140955675Y-86831307D01*
X140951867Y-86833567D01*
X140885391Y-86869866D01*
X140881432Y-86871847D01*
X140828667Y-86895945D01*
X140824576Y-86897639D01*
X140623203Y-86972746D01*
X140619533Y-86973986D01*
X140570975Y-86988715D01*
X140567236Y-86989723D01*
X140502751Y-87004962D01*
X140498955Y-87005735D01*
X140448931Y-87014299D01*
X140445093Y-87014834D01*
X140338419Y-87026300D01*
X140336767Y-87026456D01*
X140315070Y-87028202D01*
X140313409Y-87028313D01*
X140285067Y-87029830D01*
X140283411Y-87029897D01*
X140261706Y-87030477D01*
X140260049Y-87030499D01*
X139882000Y-87030499D01*
X139882000Y-87616000D01*
X138884000Y-87616000D01*
X138884000Y-87030499D01*
X138235921Y-87030500D01*
X138234259Y-87030478D01*
X138212496Y-87029894D01*
X138210835Y-87029827D01*
X138182492Y-87028306D01*
X138180837Y-87028195D01*
X138159191Y-87026452D01*
X138157540Y-87026297D01*
X138050900Y-87014831D01*
X138047065Y-87014298D01*
X137997062Y-87005737D01*
X137993266Y-87004964D01*
X137928785Y-86989729D01*
X137925045Y-86988721D01*
X137876474Y-86973988D01*
X137872804Y-86972748D01*
X137671424Y-86897639D01*
X137667333Y-86895945D01*
X137616349Y-86872660D01*
X137408619Y-86943976D01*
X137406177Y-86944758D01*
X137382000Y-86951956D01*
X137382000Y-87616000D01*
X136384000Y-87616000D01*
X136384000Y-87003615D01*
X136204826Y-86973717D01*
X136202308Y-86973243D01*
X136169458Y-86966355D01*
X136166962Y-86965778D01*
X136124476Y-86955020D01*
X136122004Y-86954339D01*
X136089823Y-86944759D01*
X136087381Y-86943976D01*
X135818578Y-86851696D01*
X135816174Y-86850814D01*
X135784920Y-86838620D01*
X135782553Y-86837640D01*
X135742415Y-86820036D01*
X135740088Y-86818958D01*
X135709910Y-86804206D01*
X135707630Y-86803032D01*
X135498000Y-86689585D01*
X135288370Y-86803032D01*
X135286090Y-86804206D01*
X135255912Y-86818958D01*
X135253585Y-86820036D01*
X135213447Y-86837640D01*
X135211080Y-86838620D01*
X135179826Y-86850814D01*
X135177422Y-86851696D01*
X134908619Y-86943976D01*
X134906177Y-86944759D01*
X134882000Y-86951956D01*
X134882000Y-87616000D01*
X133884000Y-87616000D01*
X133884000Y-87003615D01*
X133704826Y-86973717D01*
X133702308Y-86973243D01*
X133669458Y-86966355D01*
X133666962Y-86965778D01*
X133624476Y-86955020D01*
X133622004Y-86954339D01*
X133589823Y-86944759D01*
X133587381Y-86943976D01*
X133318578Y-86851696D01*
X133316174Y-86850814D01*
X133284920Y-86838620D01*
X133282553Y-86837640D01*
X133242415Y-86820036D01*
X133240088Y-86818958D01*
X133209910Y-86804206D01*
X133207630Y-86803032D01*
X132957667Y-86667759D01*
X132955439Y-86666492D01*
X132926605Y-86649311D01*
X132924432Y-86647955D01*
X132887742Y-86623985D01*
X132885624Y-86622538D01*
X132858298Y-86603028D01*
X132856243Y-86601495D01*
X132631953Y-86426923D01*
X132629963Y-86425307D01*
X132604338Y-86403603D01*
X132602416Y-86401906D01*
X132570172Y-86372222D01*
X132568323Y-86370447D01*
X132544594Y-86346718D01*
X132542821Y-86344869D01*
X132382000Y-86170171D01*
X131384000Y-86170171D01*
X131384000Y-86114000D01*
X129959000Y-86114000D01*
X129959000Y-86985079D01*
X129958978Y-86986741D01*
X129958394Y-87008504D01*
X129958327Y-87010165D01*
X129956806Y-87038508D01*
X129956695Y-87040163D01*
X129954952Y-87061809D01*
X129954797Y-87063460D01*
X129943331Y-87170100D01*
X129942798Y-87173935D01*
X129934237Y-87223938D01*
X129933464Y-87227734D01*
X129918229Y-87292215D01*
X129917221Y-87295955D01*
X129902488Y-87344526D01*
X129901248Y-87348197D01*
X129882000Y-87399803D01*
X129882000Y-87616000D01*
X128133500Y-87616000D01*
X128133500Y-87547499D01*
X128153185Y-87480460D01*
X128205989Y-87434705D01*
X128257500Y-87423499D01*
X128508371Y-87423499D01*
X128508372Y-87423499D01*
X128567983Y-87417091D01*
X128702831Y-87366796D01*
X128818046Y-87280546D01*
X128904296Y-87165331D01*
X128954591Y-87030483D01*
X128961000Y-86970873D01*
X128960999Y-84875128D01*
X128955241Y-84821563D01*
X128954591Y-84815516D01*
X128904297Y-84680671D01*
X128904293Y-84680664D01*
X128818047Y-84565455D01*
X128818044Y-84565452D01*
X128702835Y-84479206D01*
X128702828Y-84479202D01*
X128567982Y-84428908D01*
X128567983Y-84428908D01*
X128508383Y-84422501D01*
X128508381Y-84422500D01*
X128508373Y-84422500D01*
X128508364Y-84422500D01*
X126507629Y-84422500D01*
X126507623Y-84422501D01*
X126448016Y-84428908D01*
X126313171Y-84479202D01*
X126313164Y-84479206D01*
X126197955Y-84565452D01*
X126197952Y-84565455D01*
X126111706Y-84680664D01*
X126111702Y-84680671D01*
X126100091Y-84711804D01*
X126058220Y-84767738D01*
X125992756Y-84792155D01*
X125924483Y-84777303D01*
X125907747Y-84766324D01*
X125765168Y-84655350D01*
X125765159Y-84655344D01*
X125553468Y-84540784D01*
X125553454Y-84540778D01*
X125325791Y-84462619D01*
X125218000Y-84444633D01*
X125217999Y-85431316D01*
X125189181Y-85413791D01*
X125043596Y-85373000D01*
X124930378Y-85373000D01*
X124818217Y-85388416D01*
X124718000Y-85431946D01*
X124718000Y-84444633D01*
X124717999Y-84444633D01*
X124610208Y-84462619D01*
X124382545Y-84540778D01*
X124382531Y-84540784D01*
X124170840Y-84655344D01*
X124170831Y-84655350D01*
X123980883Y-84803193D01*
X123980873Y-84803202D01*
X123817851Y-84980289D01*
X123817846Y-84980297D01*
X123802104Y-85004390D01*
X123748955Y-85049745D01*
X123679724Y-85059165D01*
X123616389Y-85029660D01*
X123594489Y-85004384D01*
X123578555Y-84979994D01*
X123530547Y-84927844D01*
X123415463Y-84802829D01*
X123247462Y-84672069D01*
X123225441Y-84654929D01*
X123013665Y-84540321D01*
X123013656Y-84540318D01*
X122785916Y-84462134D01*
X122586800Y-84428908D01*
X122548399Y-84422500D01*
X122307601Y-84422500D01*
X122269200Y-84428908D01*
X122070083Y-84462134D01*
X121842343Y-84540318D01*
X121842334Y-84540321D01*
X121630558Y-84654929D01*
X121557486Y-84711804D01*
X121440537Y-84802829D01*
X121440534Y-84802831D01*
X121440534Y-84802832D01*
X121277449Y-84979990D01*
X121145743Y-85181581D01*
X121049017Y-85402094D01*
X120989904Y-85635527D01*
X120975000Y-85815389D01*
X120975000Y-86030610D01*
X120989904Y-86210472D01*
X121049017Y-86443905D01*
X121139116Y-86649311D01*
X121145745Y-86664422D01*
X121277449Y-86866010D01*
X121440537Y-87043171D01*
X121596908Y-87164879D01*
X121630022Y-87190653D01*
X121630561Y-87191072D01*
X121795891Y-87280544D01*
X121841478Y-87305215D01*
X121842336Y-87305679D01*
X121960598Y-87346278D01*
X122070083Y-87383865D01*
X122070085Y-87383865D01*
X122070087Y-87383866D01*
X122307601Y-87423500D01*
X122307602Y-87423500D01*
X122548398Y-87423500D01*
X122548399Y-87423500D01*
X122785913Y-87383866D01*
X123013664Y-87305679D01*
X123225439Y-87191072D01*
X123415463Y-87043171D01*
X123578551Y-86866010D01*
X123594489Y-86841613D01*
X123647631Y-86796258D01*
X123716862Y-86786831D01*
X123780199Y-86816330D01*
X123802106Y-86841611D01*
X123817847Y-86865704D01*
X123817851Y-86865710D01*
X123980873Y-87042797D01*
X123980883Y-87042806D01*
X124170831Y-87190649D01*
X124170840Y-87190655D01*
X124382531Y-87305215D01*
X124382545Y-87305221D01*
X124610207Y-87383379D01*
X124718000Y-87401366D01*
X124718000Y-86414683D01*
X124746819Y-86432209D01*
X124892404Y-86473000D01*
X125005622Y-86473000D01*
X125117783Y-86457584D01*
X125217999Y-86414053D01*
X125217999Y-87401365D01*
X125325792Y-87383379D01*
X125553454Y-87305221D01*
X125553468Y-87305215D01*
X125765159Y-87190655D01*
X125765162Y-87190653D01*
X125907746Y-87079675D01*
X125972740Y-87054032D01*
X126041280Y-87067598D01*
X126091605Y-87116066D01*
X126100091Y-87134196D01*
X126111701Y-87165326D01*
X126111706Y-87165335D01*
X126197952Y-87280544D01*
X126197955Y-87280547D01*
X126313164Y-87366793D01*
X126313171Y-87366797D01*
X126357630Y-87383379D01*
X126448017Y-87417091D01*
X126507627Y-87423500D01*
X126758501Y-87423499D01*
X126825539Y-87443183D01*
X126871294Y-87495987D01*
X126882500Y-87547499D01*
X126882500Y-88081546D01*
X126862815Y-88148585D01*
X126846181Y-88169227D01*
X123822208Y-91193199D01*
X123809951Y-91203020D01*
X123810134Y-91203241D01*
X123804122Y-91208214D01*
X123757432Y-91257932D01*
X123756079Y-91259329D01*
X123735889Y-91279519D01*
X123735877Y-91279532D01*
X123731621Y-91285017D01*
X123727837Y-91289447D01*
X123695937Y-91323418D01*
X123695936Y-91323420D01*
X123686284Y-91340976D01*
X123675610Y-91357226D01*
X123663329Y-91373061D01*
X123663324Y-91373068D01*
X123644815Y-91415838D01*
X123642245Y-91421084D01*
X123619803Y-91461906D01*
X123614822Y-91481307D01*
X123608521Y-91499710D01*
X123600562Y-91518102D01*
X123600561Y-91518105D01*
X123593271Y-91564127D01*
X123592087Y-91569846D01*
X123580501Y-91614972D01*
X123580500Y-91614982D01*
X123580500Y-91635016D01*
X123578973Y-91654415D01*
X123575840Y-91674194D01*
X123575839Y-91674197D01*
X123580224Y-91720585D01*
X123580499Y-91726421D01*
X123580500Y-99485255D01*
X123578775Y-99500872D01*
X123579061Y-99500899D01*
X123578326Y-99508666D01*
X123580469Y-99576846D01*
X123580500Y-99578793D01*
X123580500Y-99607343D01*
X123580501Y-99607360D01*
X123581368Y-99614231D01*
X123581826Y-99620050D01*
X123583290Y-99666624D01*
X123583291Y-99666627D01*
X123588880Y-99685867D01*
X123592824Y-99704911D01*
X123595336Y-99724792D01*
X123608811Y-99758827D01*
X123612490Y-99768119D01*
X123614382Y-99773647D01*
X123627381Y-99818388D01*
X123637580Y-99835634D01*
X123646138Y-99853103D01*
X123653514Y-99871732D01*
X123680898Y-99909423D01*
X123684106Y-99914307D01*
X123707827Y-99954416D01*
X123707833Y-99954424D01*
X123721990Y-99968580D01*
X123734628Y-99983376D01*
X123746405Y-99999586D01*
X123746406Y-99999587D01*
X123782309Y-100029288D01*
X123786620Y-100033210D01*
X124867410Y-101114000D01*
X127354180Y-103600771D01*
X127387665Y-103662094D01*
X127390499Y-103688452D01*
X127390499Y-107459990D01*
X127370814Y-107527029D01*
X127325518Y-107569044D01*
X127218563Y-107626926D01*
X127218558Y-107626929D01*
X127084456Y-107731305D01*
X127028537Y-107774829D01*
X126865449Y-107951990D01*
X126861988Y-107957288D01*
X126849808Y-107975931D01*
X126796661Y-108021287D01*
X126727430Y-108030710D01*
X126664094Y-108001207D01*
X126642192Y-107975931D01*
X126626551Y-107951990D01*
X126463463Y-107774829D01*
X126329358Y-107670451D01*
X126273441Y-107626929D01*
X126061665Y-107512321D01*
X126061656Y-107512318D01*
X125833916Y-107434134D01*
X125634800Y-107400908D01*
X125596399Y-107394500D01*
X125355601Y-107394500D01*
X125317200Y-107400908D01*
X125118083Y-107434134D01*
X124890343Y-107512318D01*
X124890334Y-107512321D01*
X124678559Y-107626929D01*
X124536069Y-107737833D01*
X124471075Y-107763475D01*
X124402535Y-107749908D01*
X124352210Y-107701440D01*
X124343725Y-107683311D01*
X124332298Y-107652673D01*
X124332293Y-107652664D01*
X124246047Y-107537455D01*
X124246044Y-107537452D01*
X124130835Y-107451206D01*
X124130828Y-107451202D01*
X123995982Y-107400908D01*
X123995983Y-107400908D01*
X123936383Y-107394501D01*
X123936381Y-107394500D01*
X123936373Y-107394500D01*
X123936364Y-107394500D01*
X121935629Y-107394500D01*
X121935623Y-107394501D01*
X121876016Y-107400908D01*
X121741171Y-107451202D01*
X121741164Y-107451206D01*
X121625955Y-107537452D01*
X121625952Y-107537455D01*
X121539706Y-107652664D01*
X121539702Y-107652671D01*
X121489408Y-107787517D01*
X121483001Y-107847116D01*
X121483000Y-107847135D01*
X121483000Y-109942870D01*
X121483001Y-109942876D01*
X121489408Y-110002483D01*
X121539702Y-110137328D01*
X121539706Y-110137335D01*
X121625952Y-110252544D01*
X121625955Y-110252547D01*
X121741164Y-110338793D01*
X121741171Y-110338797D01*
X121876017Y-110389091D01*
X121876016Y-110389091D01*
X121882944Y-110389835D01*
X121935627Y-110395500D01*
X123500547Y-110395499D01*
X123567586Y-110415184D01*
X123588228Y-110431818D01*
X125617194Y-112460784D01*
X125627019Y-112473048D01*
X125627240Y-112472866D01*
X125632210Y-112478874D01*
X125681949Y-112525582D01*
X125683316Y-112526906D01*
X125703530Y-112547120D01*
X125709004Y-112551366D01*
X125713442Y-112555156D01*
X125747418Y-112587062D01*
X125747422Y-112587064D01*
X125764973Y-112596713D01*
X125781231Y-112607392D01*
X125797064Y-112619674D01*
X125819015Y-112629172D01*
X125839837Y-112638183D01*
X125845081Y-112640752D01*
X125885908Y-112663197D01*
X125905312Y-112668179D01*
X125923710Y-112674478D01*
X125942105Y-112682438D01*
X125988129Y-112689726D01*
X125993832Y-112690907D01*
X126038981Y-112702500D01*
X126059016Y-112702500D01*
X126078413Y-112704026D01*
X126098196Y-112707160D01*
X126144583Y-112702775D01*
X126150422Y-112702500D01*
X139028257Y-112702500D01*
X139043877Y-112704224D01*
X139043904Y-112703939D01*
X139051666Y-112704673D01*
X139051666Y-112704672D01*
X139051667Y-112704673D01*
X139054999Y-112704568D01*
X139119847Y-112702531D01*
X139121794Y-112702500D01*
X139150347Y-112702500D01*
X139150350Y-112702500D01*
X139157228Y-112701630D01*
X139163041Y-112701172D01*
X139209627Y-112699709D01*
X139228869Y-112694117D01*
X139247912Y-112690174D01*
X139267792Y-112687664D01*
X139311122Y-112670507D01*
X139316646Y-112668617D01*
X139320396Y-112667527D01*
X139361390Y-112655618D01*
X139378629Y-112645422D01*
X139396103Y-112636862D01*
X139414727Y-112629488D01*
X139414727Y-112629487D01*
X139414732Y-112629486D01*
X139452449Y-112602082D01*
X139457305Y-112598892D01*
X139497420Y-112575170D01*
X139511589Y-112560999D01*
X139526379Y-112548368D01*
X139542587Y-112536594D01*
X139572299Y-112500676D01*
X139576212Y-112496376D01*
X141638107Y-110434482D01*
X141699428Y-110400999D01*
X141748570Y-110400276D01*
X141856757Y-110420500D01*
X141856759Y-110420500D01*
X142079241Y-110420500D01*
X142079243Y-110420500D01*
X142297940Y-110379618D01*
X142505401Y-110299247D01*
X142694562Y-110182124D01*
X142794461Y-110091053D01*
X142857266Y-110060436D01*
X142926653Y-110068633D01*
X142980593Y-110113043D01*
X143001961Y-110179565D01*
X143002000Y-110182690D01*
X143002000Y-116078000D01*
X143764000Y-116840000D01*
X148315877Y-116840000D01*
X148355089Y-116846362D01*
X149013212Y-117065737D01*
X149070587Y-117105611D01*
X149097295Y-117170175D01*
X149098000Y-117183374D01*
X149098000Y-122144727D01*
X149084909Y-122200181D01*
X148878273Y-122613454D01*
X148830686Y-122664613D01*
X148767364Y-122682000D01*
X120466207Y-122682000D01*
X120399168Y-122662315D01*
X120359878Y-122621797D01*
X119867922Y-121801870D01*
X122093500Y-121801870D01*
X122093501Y-121801876D01*
X122099908Y-121861483D01*
X122150202Y-121996328D01*
X122150206Y-121996335D01*
X122236452Y-122111544D01*
X122236455Y-122111547D01*
X122351664Y-122197793D01*
X122351671Y-122197797D01*
X122486517Y-122248091D01*
X122486516Y-122248091D01*
X122493444Y-122248835D01*
X122546127Y-122254500D01*
X124341872Y-122254499D01*
X124401483Y-122248091D01*
X124536331Y-122197796D01*
X124651546Y-122111546D01*
X124737796Y-121996331D01*
X124786810Y-121864916D01*
X124828681Y-121808984D01*
X124894145Y-121784566D01*
X124962418Y-121799417D01*
X124990673Y-121820569D01*
X125112599Y-121942495D01*
X125207481Y-122008932D01*
X125306165Y-122078032D01*
X125306167Y-122078033D01*
X125306170Y-122078035D01*
X125520337Y-122177903D01*
X125748592Y-122239063D01*
X125925034Y-122254500D01*
X125983999Y-122259659D01*
X125984000Y-122259659D01*
X125984001Y-122259659D01*
X126042966Y-122254500D01*
X126219408Y-122239063D01*
X126447663Y-122177903D01*
X126661830Y-122078035D01*
X126855401Y-121942495D01*
X127022495Y-121775401D01*
X127152426Y-121589840D01*
X127207001Y-121546217D01*
X127276499Y-121539023D01*
X127338854Y-121570546D01*
X127355574Y-121589841D01*
X127485505Y-121775401D01*
X127652599Y-121942495D01*
X127747481Y-122008932D01*
X127846165Y-122078032D01*
X127846167Y-122078033D01*
X127846170Y-122078035D01*
X128060337Y-122177903D01*
X128288592Y-122239063D01*
X128465034Y-122254500D01*
X128523999Y-122259659D01*
X128524000Y-122259659D01*
X128524001Y-122259659D01*
X128582966Y-122254500D01*
X128759408Y-122239063D01*
X128987663Y-122177903D01*
X129201830Y-122078035D01*
X129395401Y-121942495D01*
X129562495Y-121775401D01*
X129698035Y-121581830D01*
X129709147Y-121558000D01*
X137382000Y-121558000D01*
X138884000Y-121558000D01*
X138884000Y-121311439D01*
X138628775Y-121172075D01*
X138626850Y-121170979D01*
X138601900Y-121156175D01*
X138600015Y-121155010D01*
X138568177Y-121134546D01*
X138566338Y-121133318D01*
X138542542Y-121116794D01*
X138540748Y-121115501D01*
X138538743Y-121114000D01*
X142382000Y-121114000D01*
X142382000Y-121558000D01*
X143884000Y-121558000D01*
X143884000Y-121114000D01*
X142382000Y-121114000D01*
X138538743Y-121114000D01*
X137752618Y-121114000D01*
X137720675Y-121150865D01*
X137717658Y-121154106D01*
X137664106Y-121207658D01*
X137660865Y-121210675D01*
X137617035Y-121248654D01*
X137613588Y-121251431D01*
X137437861Y-121382982D01*
X137434224Y-121385507D01*
X137385433Y-121416864D01*
X137382000Y-121418900D01*
X137382000Y-121558000D01*
X129709147Y-121558000D01*
X129797903Y-121367663D01*
X129859063Y-121139408D01*
X129872135Y-120990000D01*
X145964341Y-120990000D01*
X145984936Y-121225403D01*
X145984938Y-121225413D01*
X146046094Y-121453655D01*
X146046096Y-121453659D01*
X146046097Y-121453663D01*
X146145964Y-121667829D01*
X146145965Y-121667830D01*
X146145967Y-121667834D01*
X146238103Y-121799417D01*
X146281505Y-121861401D01*
X146448599Y-122028495D01*
X146545384Y-122096265D01*
X146642165Y-122164032D01*
X146642167Y-122164033D01*
X146642170Y-122164035D01*
X146856337Y-122263903D01*
X147084592Y-122325063D01*
X147272918Y-122341539D01*
X147319999Y-122345659D01*
X147320000Y-122345659D01*
X147320001Y-122345659D01*
X147359234Y-122342226D01*
X147555408Y-122325063D01*
X147783663Y-122263903D01*
X147997830Y-122164035D01*
X148191401Y-122028495D01*
X148358495Y-121861401D01*
X148494035Y-121667830D01*
X148593903Y-121453663D01*
X148655063Y-121225408D01*
X148675659Y-120990000D01*
X148655063Y-120754592D01*
X148593903Y-120526337D01*
X148494035Y-120312171D01*
X148489174Y-120305229D01*
X148358496Y-120118600D01*
X148314609Y-120074713D01*
X148236179Y-119996283D01*
X148202696Y-119934963D01*
X148207680Y-119865271D01*
X148249551Y-119809337D01*
X148280529Y-119792422D01*
X148412086Y-119743354D01*
X148412093Y-119743350D01*
X148527187Y-119657190D01*
X148527190Y-119657187D01*
X148613350Y-119542093D01*
X148613354Y-119542086D01*
X148663596Y-119407379D01*
X148663598Y-119407372D01*
X148669999Y-119347844D01*
X148670000Y-119347827D01*
X148670000Y-118700000D01*
X147753686Y-118700000D01*
X147779493Y-118659844D01*
X147820000Y-118521889D01*
X147820000Y-118378111D01*
X147779493Y-118240156D01*
X147753686Y-118200000D01*
X148670000Y-118200000D01*
X148670000Y-117552172D01*
X148669999Y-117552155D01*
X148663598Y-117492627D01*
X148663596Y-117492620D01*
X148613354Y-117357913D01*
X148613350Y-117357906D01*
X148527190Y-117242812D01*
X148527187Y-117242809D01*
X148412093Y-117156649D01*
X148412086Y-117156645D01*
X148277379Y-117106403D01*
X148277372Y-117106401D01*
X148217844Y-117100000D01*
X147570000Y-117100000D01*
X147570000Y-118014498D01*
X147462315Y-117965320D01*
X147355763Y-117950000D01*
X147284237Y-117950000D01*
X147177685Y-117965320D01*
X147070000Y-118014498D01*
X147070000Y-117100000D01*
X146422155Y-117100000D01*
X146362627Y-117106401D01*
X146362620Y-117106403D01*
X146227913Y-117156645D01*
X146227906Y-117156649D01*
X146112812Y-117242809D01*
X146112809Y-117242812D01*
X146026649Y-117357906D01*
X146026645Y-117357913D01*
X145976403Y-117492620D01*
X145976401Y-117492627D01*
X145970000Y-117552155D01*
X145970000Y-118200000D01*
X146886314Y-118200000D01*
X146860507Y-118240156D01*
X146820000Y-118378111D01*
X146820000Y-118521889D01*
X146860507Y-118659844D01*
X146886314Y-118700000D01*
X145970000Y-118700000D01*
X145970000Y-119347844D01*
X145976401Y-119407372D01*
X145976403Y-119407379D01*
X146026645Y-119542086D01*
X146026649Y-119542093D01*
X146112809Y-119657187D01*
X146112812Y-119657190D01*
X146227906Y-119743350D01*
X146227913Y-119743354D01*
X146359470Y-119792421D01*
X146415403Y-119834292D01*
X146439821Y-119899756D01*
X146424970Y-119968029D01*
X146403819Y-119996284D01*
X146281503Y-120118600D01*
X146145965Y-120312169D01*
X146145964Y-120312171D01*
X146046098Y-120526335D01*
X146046094Y-120526344D01*
X145984938Y-120754586D01*
X145984936Y-120754596D01*
X145964341Y-120989999D01*
X145964341Y-120990000D01*
X129872135Y-120990000D01*
X129879659Y-120904000D01*
X129859063Y-120668592D01*
X129797903Y-120440337D01*
X129698035Y-120226171D01*
X129697481Y-120225379D01*
X129655794Y-120165844D01*
X133128000Y-120165844D01*
X133134401Y-120225372D01*
X133134403Y-120225379D01*
X133184645Y-120360086D01*
X133184649Y-120360093D01*
X133270809Y-120475187D01*
X133270812Y-120475190D01*
X133385906Y-120561350D01*
X133385913Y-120561354D01*
X133520620Y-120611596D01*
X133520627Y-120611598D01*
X133580155Y-120617999D01*
X133580172Y-120618000D01*
X134878000Y-120618000D01*
X134878000Y-119339802D01*
X135039169Y-119378000D01*
X135172267Y-119378000D01*
X135304461Y-119362549D01*
X135378000Y-119335782D01*
X135378000Y-120618000D01*
X136675828Y-120618000D01*
X136675844Y-120617999D01*
X136735372Y-120611598D01*
X136735379Y-120611596D01*
X136870086Y-120561354D01*
X136870093Y-120561350D01*
X136985187Y-120475190D01*
X136985190Y-120475187D01*
X137071350Y-120360093D01*
X137071354Y-120360086D01*
X137121596Y-120225379D01*
X137121598Y-120225372D01*
X137127999Y-120165844D01*
X137128000Y-120165827D01*
X137128000Y-118868000D01*
X135846483Y-118868000D01*
X135881549Y-118750871D01*
X135889288Y-118618001D01*
X138202390Y-118618001D01*
X138222804Y-118903433D01*
X138283628Y-119183037D01*
X138283630Y-119183043D01*
X138283631Y-119183046D01*
X138383633Y-119451161D01*
X138383635Y-119451166D01*
X138520770Y-119702309D01*
X138520775Y-119702317D01*
X138692254Y-119931387D01*
X138692270Y-119931405D01*
X138894594Y-120133729D01*
X138894612Y-120133745D01*
X139123682Y-120305224D01*
X139123690Y-120305229D01*
X139374833Y-120442364D01*
X139374832Y-120442364D01*
X139374836Y-120442365D01*
X139374839Y-120442367D01*
X139642954Y-120542369D01*
X139642960Y-120542370D01*
X139642962Y-120542371D01*
X139922566Y-120603195D01*
X139922568Y-120603195D01*
X139922572Y-120603196D01*
X140176220Y-120621337D01*
X140207999Y-120623610D01*
X140208000Y-120623610D01*
X140208001Y-120623610D01*
X140236595Y-120621564D01*
X140493428Y-120603196D01*
X140773046Y-120542369D01*
X141041161Y-120442367D01*
X141292315Y-120305226D01*
X141521395Y-120133739D01*
X141539134Y-120116000D01*
X142806427Y-120116000D01*
X143884000Y-120116000D01*
X143884000Y-118614000D01*
X143211610Y-118614000D01*
X143211610Y-118636925D01*
X143211570Y-118639139D01*
X143210535Y-118668112D01*
X143210417Y-118670321D01*
X143187304Y-118993486D01*
X143187107Y-118995690D01*
X143184012Y-119024485D01*
X143183736Y-119026678D01*
X143178353Y-119064142D01*
X143177998Y-119066329D01*
X143172847Y-119094888D01*
X143172415Y-119097062D01*
X143103536Y-119413695D01*
X143103026Y-119415851D01*
X143095847Y-119443974D01*
X143095261Y-119446111D01*
X143084595Y-119482425D01*
X143083934Y-119484536D01*
X143074787Y-119512012D01*
X143074052Y-119514096D01*
X142960833Y-119817648D01*
X142960024Y-119819706D01*
X142948938Y-119846471D01*
X142948055Y-119848499D01*
X142932334Y-119882929D01*
X142931378Y-119884927D01*
X142918391Y-119910872D01*
X142917365Y-119912834D01*
X142806427Y-120116000D01*
X141539134Y-120116000D01*
X141723739Y-119931395D01*
X141895226Y-119702315D01*
X142032367Y-119451161D01*
X142132369Y-119183046D01*
X142193196Y-118903428D01*
X142213610Y-118618000D01*
X142193196Y-118332572D01*
X142189358Y-118314930D01*
X142132371Y-118052962D01*
X142132370Y-118052960D01*
X142132369Y-118052954D01*
X142032367Y-117784839D01*
X141905311Y-117552155D01*
X141895229Y-117533690D01*
X141895224Y-117533682D01*
X141723745Y-117304612D01*
X141723729Y-117304594D01*
X141521405Y-117102270D01*
X141521387Y-117102254D01*
X141292317Y-116930775D01*
X141292309Y-116930770D01*
X141041166Y-116793635D01*
X141041167Y-116793635D01*
X140850583Y-116722551D01*
X140773046Y-116693631D01*
X140773043Y-116693630D01*
X140773037Y-116693628D01*
X140493433Y-116632804D01*
X140208001Y-116612390D01*
X140207999Y-116612390D01*
X139922566Y-116632804D01*
X139642962Y-116693628D01*
X139374833Y-116793635D01*
X139123690Y-116930770D01*
X139123682Y-116930775D01*
X138894612Y-117102254D01*
X138894594Y-117102270D01*
X138692270Y-117304594D01*
X138692254Y-117304612D01*
X138520775Y-117533682D01*
X138520770Y-117533690D01*
X138383635Y-117784833D01*
X138283628Y-118052962D01*
X138222804Y-118332566D01*
X138202390Y-118617998D01*
X138202390Y-118618001D01*
X135889288Y-118618001D01*
X135891879Y-118573509D01*
X135861029Y-118398546D01*
X135847853Y-118368000D01*
X137128000Y-118368000D01*
X137128000Y-117070172D01*
X137127999Y-117070155D01*
X137121598Y-117010627D01*
X137121596Y-117010620D01*
X137071354Y-116875913D01*
X137071350Y-116875906D01*
X136985190Y-116760812D01*
X136985187Y-116760809D01*
X136870093Y-116674649D01*
X136870086Y-116674645D01*
X136735379Y-116624403D01*
X136735372Y-116624401D01*
X136675844Y-116618000D01*
X135378000Y-116618000D01*
X135378000Y-117896197D01*
X135216831Y-117858000D01*
X135083733Y-117858000D01*
X134951539Y-117873451D01*
X134878000Y-117900217D01*
X134878000Y-116618000D01*
X133580155Y-116618000D01*
X133520627Y-116624401D01*
X133520620Y-116624403D01*
X133385913Y-116674645D01*
X133385906Y-116674649D01*
X133270812Y-116760809D01*
X133270809Y-116760812D01*
X133184649Y-116875906D01*
X133184645Y-116875913D01*
X133134403Y-117010620D01*
X133134401Y-117010627D01*
X133128000Y-117070155D01*
X133128000Y-118368000D01*
X134409517Y-118368000D01*
X134374451Y-118485129D01*
X134364121Y-118662491D01*
X134394971Y-118837454D01*
X134408147Y-118868000D01*
X133128000Y-118868000D01*
X133128000Y-120165844D01*
X129655794Y-120165844D01*
X129562494Y-120032597D01*
X129395402Y-119865506D01*
X129395395Y-119865501D01*
X129201834Y-119729967D01*
X129201830Y-119729965D01*
X129142539Y-119702317D01*
X128987663Y-119630097D01*
X128987659Y-119630096D01*
X128987655Y-119630094D01*
X128759413Y-119568938D01*
X128759403Y-119568936D01*
X128524001Y-119548341D01*
X128523999Y-119548341D01*
X128288596Y-119568936D01*
X128288586Y-119568938D01*
X128060344Y-119630094D01*
X128060335Y-119630098D01*
X127846171Y-119729964D01*
X127846169Y-119729965D01*
X127652597Y-119865505D01*
X127485505Y-120032597D01*
X127355575Y-120218158D01*
X127300998Y-120261783D01*
X127231500Y-120268977D01*
X127169145Y-120237454D01*
X127152425Y-120218158D01*
X127022494Y-120032597D01*
X126855402Y-119865506D01*
X126855395Y-119865501D01*
X126661834Y-119729967D01*
X126661830Y-119729965D01*
X126602539Y-119702317D01*
X126447663Y-119630097D01*
X126447659Y-119630096D01*
X126447655Y-119630094D01*
X126219413Y-119568938D01*
X126219403Y-119568936D01*
X125984001Y-119548341D01*
X125983999Y-119548341D01*
X125748596Y-119568936D01*
X125748586Y-119568938D01*
X125520344Y-119630094D01*
X125520335Y-119630098D01*
X125306171Y-119729964D01*
X125306169Y-119729965D01*
X125112600Y-119865503D01*
X124990673Y-119987430D01*
X124929350Y-120020914D01*
X124859658Y-120015930D01*
X124803725Y-119974058D01*
X124786810Y-119943081D01*
X124737797Y-119811671D01*
X124737793Y-119811664D01*
X124651547Y-119696455D01*
X124651544Y-119696452D01*
X124536335Y-119610206D01*
X124536328Y-119610202D01*
X124401482Y-119559908D01*
X124401483Y-119559908D01*
X124341883Y-119553501D01*
X124341881Y-119553500D01*
X124341873Y-119553500D01*
X124341864Y-119553500D01*
X122546129Y-119553500D01*
X122546123Y-119553501D01*
X122486516Y-119559908D01*
X122351671Y-119610202D01*
X122351664Y-119610206D01*
X122236455Y-119696452D01*
X122236452Y-119696455D01*
X122150206Y-119811664D01*
X122150202Y-119811671D01*
X122099908Y-119946517D01*
X122093501Y-120006116D01*
X122093500Y-120006135D01*
X122093500Y-121801870D01*
X119867922Y-121801870D01*
X119651671Y-121441451D01*
X119634000Y-121377654D01*
X119634000Y-118614000D01*
X120758000Y-118614000D01*
X120758000Y-120116000D01*
X121095500Y-120116000D01*
X121095500Y-119991921D01*
X121095522Y-119990259D01*
X121096106Y-119968497D01*
X121096173Y-119966836D01*
X121097694Y-119938492D01*
X121097805Y-119936837D01*
X121099548Y-119915191D01*
X121099703Y-119913540D01*
X121111169Y-119806900D01*
X121111702Y-119803065D01*
X121120263Y-119753062D01*
X121121036Y-119749266D01*
X121136271Y-119684785D01*
X121137279Y-119681045D01*
X121152012Y-119632474D01*
X121153252Y-119628804D01*
X121228361Y-119427424D01*
X121230055Y-119423333D01*
X121254153Y-119370568D01*
X121256134Y-119366609D01*
X121292433Y-119300133D01*
X121294693Y-119296325D01*
X121326050Y-119247534D01*
X121328575Y-119243898D01*
X121384000Y-119169859D01*
X121384000Y-118614000D01*
X129882000Y-118614000D01*
X129882000Y-118987891D01*
X129986786Y-119061265D01*
X129988969Y-119062865D01*
X130017096Y-119084448D01*
X130019206Y-119086142D01*
X130054646Y-119115882D01*
X130056680Y-119117666D01*
X130082790Y-119141593D01*
X130084742Y-119143462D01*
X130284546Y-119343265D01*
X130286417Y-119345219D01*
X130310364Y-119371352D01*
X130312150Y-119373388D01*
X130341887Y-119408830D01*
X130343580Y-119410939D01*
X130365146Y-119439046D01*
X130366745Y-119441227D01*
X130528816Y-119672689D01*
X130530319Y-119674939D01*
X130549355Y-119704819D01*
X130550757Y-119707131D01*
X130573888Y-119747194D01*
X130575190Y-119749565D01*
X130591555Y-119781001D01*
X130592752Y-119783428D01*
X130712170Y-120039518D01*
X130713259Y-120041994D01*
X130726812Y-120074713D01*
X130727791Y-120077231D01*
X130741905Y-120116000D01*
X131384000Y-120116000D01*
X131384000Y-118614000D01*
X129882000Y-118614000D01*
X121384000Y-118614000D01*
X120758000Y-118614000D01*
X119634000Y-118614000D01*
X119634000Y-116114000D01*
X120758000Y-116114000D01*
X120758000Y-117616000D01*
X121384000Y-117616000D01*
X121384000Y-116114000D01*
X122382000Y-116114000D01*
X122382000Y-117616000D01*
X123884000Y-117616000D01*
X123884000Y-116114000D01*
X124882000Y-116114000D01*
X124882000Y-117616000D01*
X126384000Y-117616000D01*
X126384000Y-116114000D01*
X127382000Y-116114000D01*
X127382000Y-117616000D01*
X128884000Y-117616000D01*
X128884000Y-116114000D01*
X129882000Y-116114000D01*
X129882000Y-117616000D01*
X131384000Y-117616000D01*
X131384000Y-116114000D01*
X129882000Y-116114000D01*
X128884000Y-116114000D01*
X127382000Y-116114000D01*
X126384000Y-116114000D01*
X124882000Y-116114000D01*
X123884000Y-116114000D01*
X122382000Y-116114000D01*
X121384000Y-116114000D01*
X120758000Y-116114000D01*
X119634000Y-116114000D01*
X119634000Y-113792002D01*
X120381034Y-113792002D01*
X120400858Y-114018599D01*
X120400860Y-114018610D01*
X120459730Y-114238317D01*
X120459734Y-114238326D01*
X120555865Y-114444481D01*
X120555866Y-114444483D01*
X120606973Y-114517471D01*
X120606974Y-114517472D01*
X121288046Y-113836399D01*
X121300835Y-113917148D01*
X121358359Y-114030045D01*
X121447955Y-114119641D01*
X121560852Y-114177165D01*
X121641599Y-114189953D01*
X120960526Y-114871025D01*
X120960526Y-114871026D01*
X121033512Y-114922131D01*
X121033516Y-114922133D01*
X121239673Y-115018265D01*
X121239682Y-115018269D01*
X121459389Y-115077139D01*
X121459400Y-115077141D01*
X121685998Y-115096966D01*
X121686002Y-115096966D01*
X121912599Y-115077141D01*
X121912610Y-115077139D01*
X122132317Y-115018269D01*
X122132331Y-115018264D01*
X122338478Y-114922136D01*
X122411472Y-114871025D01*
X121730401Y-114189953D01*
X121811148Y-114177165D01*
X121924045Y-114119641D01*
X122013641Y-114030045D01*
X122071165Y-113917148D01*
X122083953Y-113836400D01*
X122765025Y-114517472D01*
X122816134Y-114444481D01*
X122823340Y-114429028D01*
X122869511Y-114376587D01*
X122936704Y-114357433D01*
X123003585Y-114377646D01*
X123048105Y-114429022D01*
X123055430Y-114444730D01*
X123055432Y-114444734D01*
X123185954Y-114631141D01*
X123346858Y-114792045D01*
X123346861Y-114792047D01*
X123533266Y-114922568D01*
X123739504Y-115018739D01*
X123959308Y-115077635D01*
X124121230Y-115091801D01*
X124185998Y-115097468D01*
X124186000Y-115097468D01*
X124186002Y-115097468D01*
X124242673Y-115092509D01*
X124412692Y-115077635D01*
X124632496Y-115018739D01*
X124838734Y-114922568D01*
X125025139Y-114792047D01*
X125186047Y-114631139D01*
X125316568Y-114444734D01*
X125412739Y-114238496D01*
X125471635Y-114018692D01*
X125491468Y-113792000D01*
X125483463Y-113700500D01*
X127382000Y-113700500D01*
X127382000Y-115116000D01*
X128884000Y-115116000D01*
X128884000Y-113700500D01*
X129882000Y-113700500D01*
X129882000Y-115116000D01*
X131384000Y-115116000D01*
X131384000Y-113700500D01*
X132382000Y-113700500D01*
X132382000Y-115116000D01*
X133884000Y-115116000D01*
X133884000Y-113700500D01*
X134882000Y-113700500D01*
X134882000Y-115116000D01*
X136384000Y-115116000D01*
X136384000Y-113700500D01*
X137382000Y-113700500D01*
X137382000Y-115116000D01*
X138884000Y-115116000D01*
X138884000Y-113700500D01*
X137382000Y-113700500D01*
X136384000Y-113700500D01*
X134882000Y-113700500D01*
X133884000Y-113700500D01*
X132382000Y-113700500D01*
X131384000Y-113700500D01*
X129882000Y-113700500D01*
X128884000Y-113700500D01*
X127382000Y-113700500D01*
X125483463Y-113700500D01*
X125475895Y-113614000D01*
X139882000Y-113614000D01*
X139882000Y-115116000D01*
X141384000Y-115116000D01*
X141384000Y-113614000D01*
X139882000Y-113614000D01*
X125475895Y-113614000D01*
X125471635Y-113565308D01*
X125412739Y-113345504D01*
X125316568Y-113139266D01*
X125186047Y-112952861D01*
X125186045Y-112952858D01*
X125025141Y-112791954D01*
X124838734Y-112661432D01*
X124838732Y-112661431D01*
X124632497Y-112565261D01*
X124632488Y-112565258D01*
X124412697Y-112506366D01*
X124412693Y-112506365D01*
X124412692Y-112506365D01*
X124412691Y-112506364D01*
X124412686Y-112506364D01*
X124186002Y-112486532D01*
X124185998Y-112486532D01*
X123959313Y-112506364D01*
X123959302Y-112506366D01*
X123739511Y-112565258D01*
X123739502Y-112565261D01*
X123533267Y-112661431D01*
X123533265Y-112661432D01*
X123346858Y-112791954D01*
X123185954Y-112952858D01*
X123055432Y-113139265D01*
X123055430Y-113139269D01*
X123048105Y-113154978D01*
X123001931Y-113207417D01*
X122934737Y-113226567D01*
X122867857Y-113206350D01*
X122823341Y-113154974D01*
X122816132Y-113139515D01*
X122816131Y-113139512D01*
X122765026Y-113066526D01*
X122765025Y-113066526D01*
X122083953Y-113747598D01*
X122071165Y-113666852D01*
X122013641Y-113553955D01*
X121924045Y-113464359D01*
X121811148Y-113406835D01*
X121730400Y-113394046D01*
X122411472Y-112712974D01*
X122411471Y-112712973D01*
X122338483Y-112661866D01*
X122338481Y-112661865D01*
X122132326Y-112565734D01*
X122132317Y-112565730D01*
X121912610Y-112506860D01*
X121912599Y-112506858D01*
X121686002Y-112487034D01*
X121685998Y-112487034D01*
X121459400Y-112506858D01*
X121459389Y-112506860D01*
X121239682Y-112565730D01*
X121239673Y-112565734D01*
X121033513Y-112661868D01*
X120960527Y-112712972D01*
X120960526Y-112712973D01*
X121641600Y-113394046D01*
X121560852Y-113406835D01*
X121447955Y-113464359D01*
X121358359Y-113553955D01*
X121300835Y-113666852D01*
X121288046Y-113747599D01*
X120606973Y-113066526D01*
X120606972Y-113066527D01*
X120555868Y-113139513D01*
X120459734Y-113345673D01*
X120459730Y-113345682D01*
X120400860Y-113565389D01*
X120400858Y-113565400D01*
X120381034Y-113791997D01*
X120381034Y-113792002D01*
X119634000Y-113792002D01*
X119634000Y-106114000D01*
X122382000Y-106114000D01*
X122382000Y-106396500D01*
X123884000Y-106396500D01*
X123884000Y-106114000D01*
X124882000Y-106114000D01*
X124882000Y-106464416D01*
X124894348Y-106461290D01*
X124896843Y-106460713D01*
X124929693Y-106453825D01*
X124932211Y-106453351D01*
X125212952Y-106406504D01*
X125215489Y-106406135D01*
X125248800Y-106401983D01*
X125251348Y-106401718D01*
X125295026Y-106398099D01*
X125297585Y-106397940D01*
X125331126Y-106396553D01*
X125333688Y-106396500D01*
X125618312Y-106396500D01*
X125620874Y-106396553D01*
X125654415Y-106397940D01*
X125656974Y-106398099D01*
X125700652Y-106401718D01*
X125703200Y-106401983D01*
X125736511Y-106406135D01*
X125739048Y-106406504D01*
X126019789Y-106453351D01*
X126022307Y-106453825D01*
X126055157Y-106460713D01*
X126057652Y-106461290D01*
X126100140Y-106472048D01*
X126102612Y-106472729D01*
X126134793Y-106482309D01*
X126137235Y-106483092D01*
X126384000Y-106567806D01*
X126384000Y-106114000D01*
X124882000Y-106114000D01*
X123884000Y-106114000D01*
X122382000Y-106114000D01*
X119634000Y-106114000D01*
X119634000Y-103614000D01*
X120758000Y-103614000D01*
X120758000Y-105116000D01*
X121384000Y-105116000D01*
X121384000Y-103614000D01*
X122382000Y-103614000D01*
X122382000Y-105116000D01*
X123884000Y-105116000D01*
X123884000Y-103614000D01*
X124882000Y-103614000D01*
X124882000Y-105116000D01*
X126384000Y-105116000D01*
X126384000Y-104041974D01*
X125956026Y-103614000D01*
X124882000Y-103614000D01*
X123884000Y-103614000D01*
X122382000Y-103614000D01*
X121384000Y-103614000D01*
X120758000Y-103614000D01*
X119634000Y-103614000D01*
X119634000Y-101114000D01*
X120758000Y-101114000D01*
X120758000Y-102616000D01*
X121384000Y-102616000D01*
X121384000Y-101114000D01*
X122382000Y-101114000D01*
X122382000Y-102616000D01*
X123884000Y-102616000D01*
X123884000Y-101541974D01*
X123456026Y-101114000D01*
X122382000Y-101114000D01*
X121384000Y-101114000D01*
X120758000Y-101114000D01*
X119634000Y-101114000D01*
X119634000Y-98614000D01*
X120758000Y-98614000D01*
X120758000Y-100116000D01*
X121384000Y-100116000D01*
X121384000Y-98614000D01*
X120758000Y-98614000D01*
X119634000Y-98614000D01*
X119634000Y-96114000D01*
X120758000Y-96114000D01*
X120758000Y-97616000D01*
X121384000Y-97616000D01*
X121384000Y-96114000D01*
X120758000Y-96114000D01*
X119634000Y-96114000D01*
X119634000Y-93614000D01*
X120758000Y-93614000D01*
X120758000Y-95116000D01*
X121384000Y-95116000D01*
X121384000Y-93614000D01*
X120758000Y-93614000D01*
X119634000Y-93614000D01*
X119634000Y-91114000D01*
X120758000Y-91114000D01*
X120758000Y-92616000D01*
X121384000Y-92616000D01*
X121384000Y-91114000D01*
X120758000Y-91114000D01*
X119634000Y-91114000D01*
X119634000Y-88614000D01*
X120758000Y-88614000D01*
X120758000Y-90116000D01*
X121384000Y-90116000D01*
X121384000Y-88614000D01*
X122382000Y-88614000D01*
X122382000Y-90116000D01*
X123488022Y-90116000D01*
X123883999Y-89720022D01*
X123884000Y-88614000D01*
X122382000Y-88614000D01*
X121384000Y-88614000D01*
X120758000Y-88614000D01*
X119634000Y-88614000D01*
X119634000Y-83614000D01*
X129882000Y-83614000D01*
X129882000Y-84446195D01*
X129901246Y-84497797D01*
X129902486Y-84501467D01*
X129917215Y-84550025D01*
X129918223Y-84553764D01*
X129933462Y-84618249D01*
X129934235Y-84622045D01*
X129942799Y-84672069D01*
X129943334Y-84675907D01*
X129954800Y-84782581D01*
X129954956Y-84784233D01*
X129956702Y-84805930D01*
X129956813Y-84807591D01*
X129958330Y-84835933D01*
X129958397Y-84837589D01*
X129958977Y-84859294D01*
X129958999Y-84860951D01*
X129958999Y-85116000D01*
X131384000Y-85116000D01*
X131384000Y-84582005D01*
X132792529Y-84582005D01*
X132812379Y-84821559D01*
X132871389Y-85054589D01*
X132967951Y-85274729D01*
X133081581Y-85448651D01*
X133099429Y-85475969D01*
X133262236Y-85652825D01*
X133262239Y-85652827D01*
X133262242Y-85652830D01*
X133451924Y-85800466D01*
X133451930Y-85800470D01*
X133451933Y-85800472D01*
X133663344Y-85914882D01*
X133663347Y-85914883D01*
X133890699Y-85992933D01*
X133890701Y-85992933D01*
X133890703Y-85992934D01*
X134127808Y-86032500D01*
X134127809Y-86032500D01*
X134368191Y-86032500D01*
X134368192Y-86032500D01*
X134605297Y-85992934D01*
X134832656Y-85914882D01*
X135044067Y-85800472D01*
X135088627Y-85765790D01*
X135214800Y-85667585D01*
X135233764Y-85652825D01*
X135396571Y-85475969D01*
X135396577Y-85475959D01*
X135399717Y-85471926D01*
X135401549Y-85473352D01*
X135447262Y-85434287D01*
X135516487Y-85424817D01*
X135579842Y-85454276D01*
X135595597Y-85472459D01*
X135596283Y-85471926D01*
X135599427Y-85475966D01*
X135599429Y-85475969D01*
X135762236Y-85652825D01*
X135762239Y-85652827D01*
X135762242Y-85652830D01*
X135951924Y-85800466D01*
X135951930Y-85800470D01*
X135951933Y-85800472D01*
X136163344Y-85914882D01*
X136163347Y-85914883D01*
X136390699Y-85992933D01*
X136390701Y-85992933D01*
X136390703Y-85992934D01*
X136627808Y-86032500D01*
X136627809Y-86032500D01*
X136868191Y-86032500D01*
X136868192Y-86032500D01*
X137105297Y-85992934D01*
X137332656Y-85914882D01*
X137544067Y-85800472D01*
X137658674Y-85711269D01*
X137723667Y-85685627D01*
X137792207Y-85699193D01*
X137842532Y-85747661D01*
X137851018Y-85765790D01*
X137854202Y-85774328D01*
X137854206Y-85774335D01*
X137940452Y-85889544D01*
X137940455Y-85889547D01*
X138055664Y-85975793D01*
X138055671Y-85975797D01*
X138190517Y-86026091D01*
X138190516Y-86026091D01*
X138197444Y-86026835D01*
X138250127Y-86032500D01*
X140245872Y-86032499D01*
X140305483Y-86026091D01*
X140440331Y-85975796D01*
X140555546Y-85889546D01*
X140641796Y-85774331D01*
X140692091Y-85639483D01*
X140698500Y-85579873D01*
X140698499Y-83584128D01*
X140692091Y-83524517D01*
X140669410Y-83463707D01*
X140641797Y-83389671D01*
X140641793Y-83389664D01*
X140555547Y-83274455D01*
X140555544Y-83274452D01*
X140440335Y-83188206D01*
X140440328Y-83188202D01*
X140305482Y-83137908D01*
X140305483Y-83137908D01*
X140245883Y-83131501D01*
X140245881Y-83131500D01*
X140245873Y-83131500D01*
X140245864Y-83131500D01*
X138250129Y-83131500D01*
X138250123Y-83131501D01*
X138190516Y-83137908D01*
X138055671Y-83188202D01*
X138055664Y-83188206D01*
X137940455Y-83274452D01*
X137940452Y-83274455D01*
X137854206Y-83389664D01*
X137854201Y-83389674D01*
X137851017Y-83398211D01*
X137809145Y-83454144D01*
X137743680Y-83478560D01*
X137675408Y-83463707D01*
X137658674Y-83452729D01*
X137544075Y-83363533D01*
X137544069Y-83363529D01*
X137332657Y-83249118D01*
X137332652Y-83249116D01*
X137105300Y-83171066D01*
X136906593Y-83137908D01*
X136868192Y-83131500D01*
X136627808Y-83131500D01*
X136589407Y-83137908D01*
X136390699Y-83171066D01*
X136163347Y-83249116D01*
X136163342Y-83249118D01*
X135951930Y-83363529D01*
X135951924Y-83363533D01*
X135762242Y-83511169D01*
X135762239Y-83511172D01*
X135599430Y-83688029D01*
X135596283Y-83692074D01*
X135594464Y-83690658D01*
X135548659Y-83729748D01*
X135479427Y-83739169D01*
X135416093Y-83709666D01*
X135400392Y-83691547D01*
X135399717Y-83692074D01*
X135396569Y-83688029D01*
X135233764Y-83511175D01*
X135233759Y-83511171D01*
X135233757Y-83511169D01*
X135044075Y-83363533D01*
X135044069Y-83363529D01*
X134832657Y-83249118D01*
X134832652Y-83249116D01*
X134605300Y-83171066D01*
X134406593Y-83137908D01*
X134368192Y-83131500D01*
X134127808Y-83131500D01*
X134089407Y-83137908D01*
X133890699Y-83171066D01*
X133663347Y-83249116D01*
X133663342Y-83249118D01*
X133451930Y-83363529D01*
X133451924Y-83363533D01*
X133262242Y-83511169D01*
X133262239Y-83511172D01*
X133099430Y-83688029D01*
X133099427Y-83688033D01*
X132967951Y-83889270D01*
X132871389Y-84109410D01*
X132812379Y-84342440D01*
X132792529Y-84581994D01*
X132792529Y-84582005D01*
X131384000Y-84582005D01*
X131384000Y-83614000D01*
X129882000Y-83614000D01*
X119634000Y-83614000D01*
X119634000Y-81280002D01*
X120381034Y-81280002D01*
X120400858Y-81506599D01*
X120400860Y-81506610D01*
X120459730Y-81726317D01*
X120459734Y-81726326D01*
X120555865Y-81932481D01*
X120555866Y-81932483D01*
X120606973Y-82005471D01*
X120606974Y-82005472D01*
X121288046Y-81324399D01*
X121300835Y-81405148D01*
X121358359Y-81518045D01*
X121447955Y-81607641D01*
X121560852Y-81665165D01*
X121641599Y-81677953D01*
X120960526Y-82359025D01*
X120960526Y-82359026D01*
X121033512Y-82410131D01*
X121033516Y-82410133D01*
X121239673Y-82506265D01*
X121239682Y-82506269D01*
X121459389Y-82565139D01*
X121459400Y-82565141D01*
X121685998Y-82584966D01*
X121686002Y-82584966D01*
X121912599Y-82565141D01*
X121912610Y-82565139D01*
X122132317Y-82506269D01*
X122132331Y-82506264D01*
X122338478Y-82410136D01*
X122411472Y-82359025D01*
X121730401Y-81677953D01*
X121811148Y-81665165D01*
X121924045Y-81607641D01*
X122013641Y-81518045D01*
X122071165Y-81405148D01*
X122083953Y-81324400D01*
X122765025Y-82005472D01*
X122816134Y-81932481D01*
X122823340Y-81917028D01*
X122869511Y-81864587D01*
X122936704Y-81845433D01*
X123003585Y-81865646D01*
X123048105Y-81917022D01*
X123055430Y-81932730D01*
X123055432Y-81932734D01*
X123185954Y-82119141D01*
X123346858Y-82280045D01*
X123392929Y-82312304D01*
X123533266Y-82410568D01*
X123739504Y-82506739D01*
X123739509Y-82506740D01*
X123739511Y-82506741D01*
X123792415Y-82520916D01*
X123959308Y-82565635D01*
X124121230Y-82579801D01*
X124185998Y-82585468D01*
X124186000Y-82585468D01*
X124186002Y-82585468D01*
X124242673Y-82580509D01*
X124412692Y-82565635D01*
X124632496Y-82506739D01*
X124838734Y-82410568D01*
X125025139Y-82280047D01*
X125186047Y-82119139D01*
X125316568Y-81932734D01*
X125353895Y-81852684D01*
X125400064Y-81800249D01*
X125467258Y-81781097D01*
X125534139Y-81801312D01*
X125578657Y-81852688D01*
X125615865Y-81932481D01*
X125615866Y-81932483D01*
X125666973Y-82005471D01*
X125666974Y-82005472D01*
X126348046Y-81324399D01*
X126360835Y-81405148D01*
X126418359Y-81518045D01*
X126507955Y-81607641D01*
X126620852Y-81665165D01*
X126701599Y-81677953D01*
X126020526Y-82359025D01*
X126020526Y-82359026D01*
X126093512Y-82410131D01*
X126093516Y-82410133D01*
X126299673Y-82506265D01*
X126299682Y-82506269D01*
X126519389Y-82565139D01*
X126519400Y-82565141D01*
X126745998Y-82584966D01*
X126746002Y-82584966D01*
X126972599Y-82565141D01*
X126972610Y-82565139D01*
X127192317Y-82506269D01*
X127192331Y-82506264D01*
X127398478Y-82410136D01*
X127471472Y-82359025D01*
X126790401Y-81677953D01*
X126871148Y-81665165D01*
X126984045Y-81607641D01*
X127073641Y-81518045D01*
X127131165Y-81405148D01*
X127143953Y-81324400D01*
X127825025Y-82005472D01*
X127876134Y-81932481D01*
X127883340Y-81917028D01*
X127929511Y-81864587D01*
X127996704Y-81845433D01*
X128063585Y-81865646D01*
X128108105Y-81917022D01*
X128115430Y-81932730D01*
X128115432Y-81932734D01*
X128245954Y-82119141D01*
X128406858Y-82280045D01*
X128452929Y-82312304D01*
X128593266Y-82410568D01*
X128799504Y-82506739D01*
X128799509Y-82506740D01*
X128799511Y-82506741D01*
X128852415Y-82520916D01*
X129019308Y-82565635D01*
X129181230Y-82579801D01*
X129245998Y-82585468D01*
X129246000Y-82585468D01*
X129246002Y-82585468D01*
X129302672Y-82580509D01*
X129472692Y-82565635D01*
X129692496Y-82506739D01*
X129898734Y-82410568D01*
X130085139Y-82280047D01*
X130246047Y-82119139D01*
X130376568Y-81932734D01*
X130472739Y-81726496D01*
X130531635Y-81506692D01*
X130551468Y-81280000D01*
X130536945Y-81114000D01*
X132382000Y-81114000D01*
X132382000Y-82616000D01*
X132787512Y-82616000D01*
X132856243Y-82562504D01*
X132858298Y-82560972D01*
X132885624Y-82541462D01*
X132887742Y-82540015D01*
X132924432Y-82516045D01*
X132926605Y-82514689D01*
X132955439Y-82497508D01*
X132957667Y-82496241D01*
X133207630Y-82360968D01*
X133209910Y-82359794D01*
X133240088Y-82345042D01*
X133242415Y-82343964D01*
X133282553Y-82326360D01*
X133284920Y-82325380D01*
X133316174Y-82313186D01*
X133318578Y-82312304D01*
X133587381Y-82220024D01*
X133589823Y-82219241D01*
X133622004Y-82209661D01*
X133624476Y-82208980D01*
X133666962Y-82198222D01*
X133669458Y-82197645D01*
X133702308Y-82190757D01*
X133704826Y-82190283D01*
X133884000Y-82160384D01*
X133884000Y-81114000D01*
X134882000Y-81114000D01*
X134882000Y-82212043D01*
X134906177Y-82219241D01*
X134908619Y-82220024D01*
X135177422Y-82312304D01*
X135179826Y-82313186D01*
X135211080Y-82325380D01*
X135213447Y-82326360D01*
X135253585Y-82343964D01*
X135255912Y-82345042D01*
X135286090Y-82359794D01*
X135288370Y-82360968D01*
X135498000Y-82474414D01*
X135707630Y-82360968D01*
X135709910Y-82359794D01*
X135740088Y-82345042D01*
X135742415Y-82343964D01*
X135782553Y-82326360D01*
X135784920Y-82325380D01*
X135816174Y-82313186D01*
X135818578Y-82312304D01*
X136087381Y-82220024D01*
X136089823Y-82219241D01*
X136122004Y-82209661D01*
X136124476Y-82208980D01*
X136166962Y-82198222D01*
X136169458Y-82197645D01*
X136202308Y-82190757D01*
X136204826Y-82190283D01*
X136384000Y-82160384D01*
X136384000Y-81114000D01*
X137382000Y-81114000D01*
X137382000Y-82212043D01*
X137406177Y-82219241D01*
X137408619Y-82220024D01*
X137616349Y-82291338D01*
X137667333Y-82268055D01*
X137671424Y-82266361D01*
X137872797Y-82191254D01*
X137876467Y-82190014D01*
X137925025Y-82175285D01*
X137928764Y-82174277D01*
X137993249Y-82159038D01*
X137997045Y-82158265D01*
X138047069Y-82149701D01*
X138050907Y-82149166D01*
X138157581Y-82137700D01*
X138159233Y-82137544D01*
X138180930Y-82135798D01*
X138182591Y-82135687D01*
X138210933Y-82134170D01*
X138212589Y-82134103D01*
X138234294Y-82133523D01*
X138235951Y-82133501D01*
X138884000Y-82133500D01*
X138884000Y-81114000D01*
X139882000Y-81114000D01*
X139882000Y-82133500D01*
X140260079Y-82133500D01*
X140261741Y-82133522D01*
X140283504Y-82134106D01*
X140285165Y-82134173D01*
X140313508Y-82135694D01*
X140315163Y-82135805D01*
X140336809Y-82137548D01*
X140338460Y-82137703D01*
X140445100Y-82149169D01*
X140448935Y-82149702D01*
X140498938Y-82158263D01*
X140502734Y-82159036D01*
X140567215Y-82174271D01*
X140570955Y-82175279D01*
X140619526Y-82190012D01*
X140623196Y-82191252D01*
X140824576Y-82266361D01*
X140828667Y-82268055D01*
X140881432Y-82292153D01*
X140885391Y-82294134D01*
X140951867Y-82330433D01*
X140955675Y-82332693D01*
X141004466Y-82364050D01*
X141008103Y-82366575D01*
X141183945Y-82498212D01*
X141187392Y-82500989D01*
X141231222Y-82538968D01*
X141234463Y-82541985D01*
X141288015Y-82595537D01*
X141291032Y-82598778D01*
X141305955Y-82616000D01*
X141384000Y-82616000D01*
X141384000Y-81114000D01*
X139882000Y-81114000D01*
X138884000Y-81114000D01*
X137382000Y-81114000D01*
X136384000Y-81114000D01*
X134882000Y-81114000D01*
X133884000Y-81114000D01*
X132382000Y-81114000D01*
X130536945Y-81114000D01*
X130531635Y-81053308D01*
X130472739Y-80833504D01*
X130376568Y-80627266D01*
X130246047Y-80440861D01*
X130246045Y-80440858D01*
X130085141Y-80279954D01*
X129898734Y-80149432D01*
X129898732Y-80149431D01*
X129692497Y-80053261D01*
X129692488Y-80053258D01*
X129472697Y-79994366D01*
X129472693Y-79994365D01*
X129472692Y-79994365D01*
X129472691Y-79994364D01*
X129472686Y-79994364D01*
X129246002Y-79974532D01*
X129245998Y-79974532D01*
X129019313Y-79994364D01*
X129019302Y-79994366D01*
X128799511Y-80053258D01*
X128799502Y-80053261D01*
X128593267Y-80149431D01*
X128593265Y-80149432D01*
X128406858Y-80279954D01*
X128245954Y-80440858D01*
X128115432Y-80627265D01*
X128115430Y-80627269D01*
X128108105Y-80642978D01*
X128061931Y-80695417D01*
X127994737Y-80714567D01*
X127927857Y-80694350D01*
X127883341Y-80642974D01*
X127876132Y-80627515D01*
X127876131Y-80627512D01*
X127825026Y-80554526D01*
X127825025Y-80554526D01*
X127143953Y-81235598D01*
X127131165Y-81154852D01*
X127073641Y-81041955D01*
X126984045Y-80952359D01*
X126871148Y-80894835D01*
X126790399Y-80882045D01*
X127471472Y-80200973D01*
X127398483Y-80149866D01*
X127398481Y-80149865D01*
X127192326Y-80053734D01*
X127192317Y-80053730D01*
X126972610Y-79994860D01*
X126972599Y-79994858D01*
X126746002Y-79975034D01*
X126745998Y-79975034D01*
X126519400Y-79994858D01*
X126519389Y-79994860D01*
X126299682Y-80053730D01*
X126299673Y-80053734D01*
X126093513Y-80149868D01*
X126020526Y-80200973D01*
X126701598Y-80882046D01*
X126620852Y-80894835D01*
X126507955Y-80952359D01*
X126418359Y-81041955D01*
X126360835Y-81154852D01*
X126348046Y-81235599D01*
X125666973Y-80554526D01*
X125666972Y-80554527D01*
X125615867Y-80627513D01*
X125578657Y-80707311D01*
X125532484Y-80759750D01*
X125465290Y-80778902D01*
X125398409Y-80758686D01*
X125353893Y-80707310D01*
X125348347Y-80695417D01*
X125316568Y-80627266D01*
X125186047Y-80440861D01*
X125186045Y-80440858D01*
X125025141Y-80279954D01*
X124838734Y-80149432D01*
X124838732Y-80149431D01*
X124632497Y-80053261D01*
X124632488Y-80053258D01*
X124412697Y-79994366D01*
X124412693Y-79994365D01*
X124412692Y-79994365D01*
X124412691Y-79994364D01*
X124412686Y-79994364D01*
X124186002Y-79974532D01*
X124185998Y-79974532D01*
X123959313Y-79994364D01*
X123959302Y-79994366D01*
X123739511Y-80053258D01*
X123739502Y-80053261D01*
X123533267Y-80149431D01*
X123533265Y-80149432D01*
X123346858Y-80279954D01*
X123185954Y-80440858D01*
X123055432Y-80627265D01*
X123055430Y-80627269D01*
X123048105Y-80642978D01*
X123001931Y-80695417D01*
X122934737Y-80714567D01*
X122867857Y-80694350D01*
X122823341Y-80642974D01*
X122816132Y-80627515D01*
X122816131Y-80627512D01*
X122765026Y-80554526D01*
X122765025Y-80554526D01*
X122083953Y-81235598D01*
X122071165Y-81154852D01*
X122013641Y-81041955D01*
X121924045Y-80952359D01*
X121811148Y-80894835D01*
X121730400Y-80882046D01*
X122411472Y-80200974D01*
X122411471Y-80200973D01*
X122338483Y-80149866D01*
X122338481Y-80149865D01*
X122132326Y-80053734D01*
X122132317Y-80053730D01*
X121912610Y-79994860D01*
X121912599Y-79994858D01*
X121686002Y-79975034D01*
X121685998Y-79975034D01*
X121459400Y-79994858D01*
X121459389Y-79994860D01*
X121239682Y-80053730D01*
X121239673Y-80053734D01*
X121033513Y-80149868D01*
X120960527Y-80200972D01*
X120960526Y-80200973D01*
X121641600Y-80882046D01*
X121560852Y-80894835D01*
X121447955Y-80952359D01*
X121358359Y-81041955D01*
X121300835Y-81154852D01*
X121288046Y-81235599D01*
X120606973Y-80554526D01*
X120606972Y-80554527D01*
X120555868Y-80627513D01*
X120459734Y-80833673D01*
X120459730Y-80833682D01*
X120400860Y-81053389D01*
X120400858Y-81053400D01*
X120381034Y-81279997D01*
X120381034Y-81280002D01*
X119634000Y-81280002D01*
X119634000Y-78614000D01*
X122382000Y-78614000D01*
X122382000Y-79087427D01*
X122412981Y-79095729D01*
X122415579Y-79096486D01*
X122449395Y-79107149D01*
X122451958Y-79108019D01*
X122495430Y-79123845D01*
X122497950Y-79124824D01*
X122530668Y-79138377D01*
X122533143Y-79139466D01*
X122781222Y-79255148D01*
X122783647Y-79256344D01*
X122815085Y-79272709D01*
X122817458Y-79274011D01*
X122857523Y-79297143D01*
X122859836Y-79298547D01*
X122889714Y-79317582D01*
X122891962Y-79319084D01*
X122935564Y-79349614D01*
X122979787Y-79318650D01*
X122982035Y-79317148D01*
X123011913Y-79298113D01*
X123014227Y-79296708D01*
X123054291Y-79273578D01*
X123056662Y-79272277D01*
X123088097Y-79255912D01*
X123090525Y-79254715D01*
X123338684Y-79138996D01*
X123341159Y-79137907D01*
X123373878Y-79124353D01*
X123376397Y-79123373D01*
X123419871Y-79107547D01*
X123422436Y-79106676D01*
X123456253Y-79096013D01*
X123458852Y-79095255D01*
X123723356Y-79024383D01*
X123725983Y-79023740D01*
X123760584Y-79016069D01*
X123763238Y-79015541D01*
X123808797Y-79007509D01*
X123811471Y-79007097D01*
X123846597Y-79002473D01*
X123849285Y-79002179D01*
X123883999Y-78999141D01*
X123884000Y-78614000D01*
X124882000Y-78614000D01*
X124882000Y-79086908D01*
X124913149Y-79095255D01*
X124915747Y-79096013D01*
X124949564Y-79106676D01*
X124952129Y-79107547D01*
X124995603Y-79123373D01*
X124998122Y-79124353D01*
X125030841Y-79137907D01*
X125033316Y-79138996D01*
X125281475Y-79254715D01*
X125283903Y-79255912D01*
X125315338Y-79272277D01*
X125317709Y-79273578D01*
X125357773Y-79296708D01*
X125360087Y-79298113D01*
X125389965Y-79317148D01*
X125392214Y-79318650D01*
X125466434Y-79370619D01*
X125540050Y-79319074D01*
X125542301Y-79317570D01*
X125572208Y-79298519D01*
X125574523Y-79297114D01*
X125614588Y-79273986D01*
X125616958Y-79272687D01*
X125648365Y-79256337D01*
X125650791Y-79255141D01*
X125898857Y-79139466D01*
X125901332Y-79138377D01*
X125934050Y-79124824D01*
X125936570Y-79123845D01*
X125980042Y-79108019D01*
X125982605Y-79107149D01*
X126016421Y-79096486D01*
X126019020Y-79095729D01*
X126283441Y-79024877D01*
X126286069Y-79024234D01*
X126320670Y-79016563D01*
X126323324Y-79016035D01*
X126368885Y-79008003D01*
X126371558Y-79007591D01*
X126384000Y-79005953D01*
X126384000Y-78614000D01*
X127382000Y-78614000D01*
X127382000Y-79071350D01*
X127472980Y-79095729D01*
X127475579Y-79096486D01*
X127509395Y-79107149D01*
X127511958Y-79108019D01*
X127555430Y-79123845D01*
X127557950Y-79124824D01*
X127590668Y-79138377D01*
X127593143Y-79139466D01*
X127841222Y-79255148D01*
X127843647Y-79256344D01*
X127875085Y-79272709D01*
X127877458Y-79274011D01*
X127917523Y-79297143D01*
X127919836Y-79298547D01*
X127949714Y-79317582D01*
X127951962Y-79319084D01*
X127995564Y-79349614D01*
X128039787Y-79318650D01*
X128042035Y-79317148D01*
X128071913Y-79298113D01*
X128074227Y-79296708D01*
X128114291Y-79273578D01*
X128116662Y-79272277D01*
X128148097Y-79255912D01*
X128150525Y-79254715D01*
X128398684Y-79138996D01*
X128401159Y-79137907D01*
X128433878Y-79124353D01*
X128436397Y-79123373D01*
X128479871Y-79107547D01*
X128482436Y-79106676D01*
X128516253Y-79096013D01*
X128518852Y-79095255D01*
X128783356Y-79024383D01*
X128785983Y-79023740D01*
X128820584Y-79016069D01*
X128823238Y-79015541D01*
X128868797Y-79007509D01*
X128871471Y-79007097D01*
X128884000Y-79005447D01*
X128884000Y-78614000D01*
X129882000Y-78614000D01*
X129882000Y-79070832D01*
X129973149Y-79095255D01*
X129975747Y-79096013D01*
X130009564Y-79106676D01*
X130012129Y-79107547D01*
X130055603Y-79123373D01*
X130058122Y-79124353D01*
X130090841Y-79137907D01*
X130093316Y-79138996D01*
X130341475Y-79254715D01*
X130343903Y-79255912D01*
X130375338Y-79272277D01*
X130377709Y-79273578D01*
X130417773Y-79296708D01*
X130420087Y-79298113D01*
X130449965Y-79317148D01*
X130452213Y-79318650D01*
X130676508Y-79475701D01*
X130678689Y-79477300D01*
X130706797Y-79498866D01*
X130708908Y-79500560D01*
X130744350Y-79530299D01*
X130746384Y-79532083D01*
X130772517Y-79556029D01*
X130774472Y-79557900D01*
X130968100Y-79751528D01*
X130969971Y-79753483D01*
X130993917Y-79779616D01*
X130995701Y-79781650D01*
X131025440Y-79817092D01*
X131027134Y-79819203D01*
X131048700Y-79847311D01*
X131050299Y-79849492D01*
X131207350Y-80073787D01*
X131208852Y-80076035D01*
X131227887Y-80105913D01*
X131229292Y-80108227D01*
X131233780Y-80116000D01*
X131384000Y-80116000D01*
X131384000Y-78614000D01*
X132382000Y-78614000D01*
X132382000Y-80116000D01*
X133884000Y-80116000D01*
X133884000Y-78614000D01*
X134882000Y-78614000D01*
X134882000Y-80116000D01*
X136384000Y-80116000D01*
X136384000Y-78614000D01*
X137382000Y-78614000D01*
X137382000Y-80116000D01*
X138884000Y-80116000D01*
X138884000Y-78614000D01*
X139882000Y-78614000D01*
X139882000Y-80116000D01*
X141384000Y-80116000D01*
X141384000Y-78614000D01*
X139882000Y-78614000D01*
X138884000Y-78614000D01*
X137382000Y-78614000D01*
X136384000Y-78614000D01*
X134882000Y-78614000D01*
X133884000Y-78614000D01*
X132382000Y-78614000D01*
X131384000Y-78614000D01*
X129882000Y-78614000D01*
X128884000Y-78614000D01*
X127382000Y-78614000D01*
X126384000Y-78614000D01*
X124882000Y-78614000D01*
X123884000Y-78614000D01*
X122382000Y-78614000D01*
X119634000Y-78614000D01*
X119634000Y-76114000D01*
X120758000Y-76114000D01*
X120758000Y-77616000D01*
X121384000Y-77616000D01*
X121384000Y-76114000D01*
X122382000Y-76114000D01*
X122382000Y-77616000D01*
X123884000Y-77616000D01*
X123884000Y-76114000D01*
X124882000Y-76114000D01*
X124882000Y-77616000D01*
X126384000Y-77616000D01*
X126384000Y-76114000D01*
X127382000Y-76114000D01*
X127382000Y-77616000D01*
X128884000Y-77616000D01*
X128884000Y-76114000D01*
X129882000Y-76114000D01*
X129882000Y-77616000D01*
X131384000Y-77616000D01*
X131384000Y-76477844D01*
X133128000Y-76477844D01*
X133134401Y-76537372D01*
X133134403Y-76537379D01*
X133184645Y-76672086D01*
X133184649Y-76672093D01*
X133270809Y-76787187D01*
X133270812Y-76787190D01*
X133385906Y-76873350D01*
X133385913Y-76873354D01*
X133520620Y-76923596D01*
X133520627Y-76923598D01*
X133580155Y-76929999D01*
X133580172Y-76930000D01*
X134878000Y-76930000D01*
X134878000Y-75651802D01*
X135039169Y-75690000D01*
X135172267Y-75690000D01*
X135304461Y-75674549D01*
X135378000Y-75647782D01*
X135378000Y-76930000D01*
X136675828Y-76930000D01*
X136675844Y-76929999D01*
X136735372Y-76923598D01*
X136735379Y-76923596D01*
X136870086Y-76873354D01*
X136870093Y-76873350D01*
X136985187Y-76787190D01*
X136985190Y-76787187D01*
X137071350Y-76672093D01*
X137071354Y-76672086D01*
X137121596Y-76537379D01*
X137121598Y-76537372D01*
X137127999Y-76477844D01*
X137128000Y-76477827D01*
X137128000Y-75180000D01*
X135846483Y-75180000D01*
X135881549Y-75062871D01*
X135889288Y-74930001D01*
X138202390Y-74930001D01*
X138222804Y-75215433D01*
X138283628Y-75495037D01*
X138283630Y-75495043D01*
X138283631Y-75495046D01*
X138356345Y-75690000D01*
X138383635Y-75763166D01*
X138520770Y-76014309D01*
X138520775Y-76014317D01*
X138692254Y-76243387D01*
X138692270Y-76243405D01*
X138894594Y-76445729D01*
X138894612Y-76445745D01*
X139123682Y-76617224D01*
X139123690Y-76617229D01*
X139374833Y-76754364D01*
X139374832Y-76754364D01*
X139374836Y-76754365D01*
X139374839Y-76754367D01*
X139642954Y-76854369D01*
X139642960Y-76854370D01*
X139642962Y-76854371D01*
X139922566Y-76915195D01*
X139922568Y-76915195D01*
X139922572Y-76915196D01*
X140176220Y-76933337D01*
X140207999Y-76935610D01*
X140208000Y-76935610D01*
X140208001Y-76935610D01*
X140236595Y-76933564D01*
X140493428Y-76915196D01*
X140773046Y-76854369D01*
X141041161Y-76754367D01*
X141292315Y-76617226D01*
X141521395Y-76445739D01*
X141723739Y-76243395D01*
X141895226Y-76014315D01*
X142032367Y-75763161D01*
X142132369Y-75495046D01*
X142193196Y-75215428D01*
X142195444Y-75184000D01*
X145964341Y-75184000D01*
X145984936Y-75419403D01*
X145984938Y-75419413D01*
X146046094Y-75647655D01*
X146046096Y-75647659D01*
X146046097Y-75647663D01*
X146099955Y-75763161D01*
X146145965Y-75861830D01*
X146145967Y-75861834D01*
X146252732Y-76014309D01*
X146281505Y-76055401D01*
X146448599Y-76222495D01*
X146478462Y-76243405D01*
X146642165Y-76358032D01*
X146642167Y-76358033D01*
X146642170Y-76358035D01*
X146856337Y-76457903D01*
X147084592Y-76519063D01*
X147272918Y-76535539D01*
X147319999Y-76539659D01*
X147320000Y-76539659D01*
X147320001Y-76539659D01*
X147359234Y-76536226D01*
X147555408Y-76519063D01*
X147783663Y-76457903D01*
X147997830Y-76358035D01*
X148191401Y-76222495D01*
X148358495Y-76055401D01*
X148494035Y-75861830D01*
X148593903Y-75647663D01*
X148655063Y-75419408D01*
X148675659Y-75184000D01*
X148655063Y-74948592D01*
X148593903Y-74720337D01*
X148494035Y-74506171D01*
X148479305Y-74485135D01*
X148358496Y-74312600D01*
X148336602Y-74290706D01*
X148236179Y-74190283D01*
X148202696Y-74128963D01*
X148207680Y-74059271D01*
X148249551Y-74003337D01*
X148280529Y-73986422D01*
X148412086Y-73937354D01*
X148412093Y-73937350D01*
X148527187Y-73851190D01*
X148527190Y-73851187D01*
X148613350Y-73736093D01*
X148613354Y-73736086D01*
X148663596Y-73601379D01*
X148663598Y-73601372D01*
X148669999Y-73541844D01*
X148670000Y-73541827D01*
X148670000Y-72894000D01*
X147753686Y-72894000D01*
X147779493Y-72853844D01*
X147820000Y-72715889D01*
X147820000Y-72572111D01*
X147779493Y-72434156D01*
X147753686Y-72394000D01*
X148670000Y-72394000D01*
X148670000Y-71746172D01*
X148669999Y-71746155D01*
X148663598Y-71686627D01*
X148663596Y-71686620D01*
X148613354Y-71551913D01*
X148613350Y-71551906D01*
X148527190Y-71436812D01*
X148527187Y-71436809D01*
X148412093Y-71350649D01*
X148412086Y-71350645D01*
X148277379Y-71300403D01*
X148277372Y-71300401D01*
X148217844Y-71294000D01*
X147570000Y-71294000D01*
X147570000Y-72208498D01*
X147462315Y-72159320D01*
X147355763Y-72144000D01*
X147284237Y-72144000D01*
X147177685Y-72159320D01*
X147070000Y-72208498D01*
X147070000Y-71294000D01*
X146422155Y-71294000D01*
X146362627Y-71300401D01*
X146362620Y-71300403D01*
X146227913Y-71350645D01*
X146227906Y-71350649D01*
X146112812Y-71436809D01*
X146112809Y-71436812D01*
X146026649Y-71551906D01*
X146026645Y-71551913D01*
X145976403Y-71686620D01*
X145976401Y-71686627D01*
X145970000Y-71746155D01*
X145970000Y-72394000D01*
X146886314Y-72394000D01*
X146860507Y-72434156D01*
X146820000Y-72572111D01*
X146820000Y-72715889D01*
X146860507Y-72853844D01*
X146886314Y-72894000D01*
X145970000Y-72894000D01*
X145970000Y-73541844D01*
X145976401Y-73601372D01*
X145976403Y-73601379D01*
X146026645Y-73736086D01*
X146026649Y-73736093D01*
X146112809Y-73851187D01*
X146112812Y-73851190D01*
X146227906Y-73937350D01*
X146227913Y-73937354D01*
X146359470Y-73986421D01*
X146415403Y-74028292D01*
X146439821Y-74093756D01*
X146424970Y-74162029D01*
X146403819Y-74190284D01*
X146281503Y-74312600D01*
X146145965Y-74506169D01*
X146145964Y-74506171D01*
X146046098Y-74720335D01*
X146046094Y-74720344D01*
X145984938Y-74948586D01*
X145984936Y-74948596D01*
X145964341Y-75183999D01*
X145964341Y-75184000D01*
X142195444Y-75184000D01*
X142213610Y-74930000D01*
X142212256Y-74911075D01*
X142198615Y-74720344D01*
X142193196Y-74644572D01*
X142189358Y-74626930D01*
X142132371Y-74364962D01*
X142132370Y-74364960D01*
X142132369Y-74364954D01*
X142032367Y-74096839D01*
X142015295Y-74065575D01*
X141895229Y-73845690D01*
X141895224Y-73845682D01*
X141723745Y-73616612D01*
X141723729Y-73616594D01*
X141721135Y-73614000D01*
X142905807Y-73614000D01*
X142917365Y-73635166D01*
X142918391Y-73637128D01*
X142931378Y-73663073D01*
X142932334Y-73665071D01*
X142948055Y-73699501D01*
X142948938Y-73701529D01*
X142960024Y-73728294D01*
X142960833Y-73730352D01*
X143074052Y-74033904D01*
X143074787Y-74035988D01*
X143083934Y-74063464D01*
X143084595Y-74065575D01*
X143095261Y-74101889D01*
X143095847Y-74104026D01*
X143103026Y-74132149D01*
X143103536Y-74134305D01*
X143172415Y-74450938D01*
X143172847Y-74453112D01*
X143177998Y-74481671D01*
X143178353Y-74483858D01*
X143183736Y-74521322D01*
X143184012Y-74523515D01*
X143187107Y-74552310D01*
X143187304Y-74554514D01*
X143210417Y-74877679D01*
X143210535Y-74879888D01*
X143211570Y-74908861D01*
X143211610Y-74911075D01*
X143211610Y-74948925D01*
X143211570Y-74951139D01*
X143210535Y-74980112D01*
X143210417Y-74982321D01*
X143200856Y-75116000D01*
X143884000Y-75116000D01*
X143884000Y-73614000D01*
X142905807Y-73614000D01*
X141721135Y-73614000D01*
X141521405Y-73414270D01*
X141521387Y-73414254D01*
X141292317Y-73242775D01*
X141292309Y-73242770D01*
X141041166Y-73105635D01*
X141041167Y-73105635D01*
X140933914Y-73065632D01*
X140773046Y-73005631D01*
X140773043Y-73005630D01*
X140773037Y-73005628D01*
X140493433Y-72944804D01*
X140208001Y-72924390D01*
X140207999Y-72924390D01*
X139922566Y-72944804D01*
X139642962Y-73005628D01*
X139374833Y-73105635D01*
X139123690Y-73242770D01*
X139123682Y-73242775D01*
X138894612Y-73414254D01*
X138894594Y-73414270D01*
X138692270Y-73616594D01*
X138692254Y-73616612D01*
X138520775Y-73845682D01*
X138520770Y-73845690D01*
X138383635Y-74096833D01*
X138283628Y-74364962D01*
X138222804Y-74644566D01*
X138202390Y-74929998D01*
X138202390Y-74930001D01*
X135889288Y-74930001D01*
X135891879Y-74885509D01*
X135861029Y-74710546D01*
X135847853Y-74680000D01*
X137128000Y-74680000D01*
X137128000Y-73382172D01*
X137127999Y-73382155D01*
X137121598Y-73322627D01*
X137121596Y-73322620D01*
X137071354Y-73187913D01*
X137071350Y-73187906D01*
X136985190Y-73072812D01*
X136985187Y-73072809D01*
X136870093Y-72986649D01*
X136870086Y-72986645D01*
X136735379Y-72936403D01*
X136735372Y-72936401D01*
X136675844Y-72930000D01*
X135378000Y-72930000D01*
X135378000Y-74208197D01*
X135216831Y-74170000D01*
X135083733Y-74170000D01*
X134951539Y-74185451D01*
X134878000Y-74212217D01*
X134878000Y-72930000D01*
X133580155Y-72930000D01*
X133520627Y-72936401D01*
X133520620Y-72936403D01*
X133385913Y-72986645D01*
X133385906Y-72986649D01*
X133270812Y-73072809D01*
X133270809Y-73072812D01*
X133184649Y-73187906D01*
X133184645Y-73187913D01*
X133134403Y-73322620D01*
X133134401Y-73322627D01*
X133128000Y-73382155D01*
X133128000Y-74680000D01*
X134409517Y-74680000D01*
X134374451Y-74797129D01*
X134364121Y-74974491D01*
X134394971Y-75149454D01*
X134408147Y-75180000D01*
X133128000Y-75180000D01*
X133128000Y-76477844D01*
X131384000Y-76477844D01*
X131384000Y-76114000D01*
X129882000Y-76114000D01*
X128884000Y-76114000D01*
X127382000Y-76114000D01*
X126384000Y-76114000D01*
X124882000Y-76114000D01*
X123884000Y-76114000D01*
X122382000Y-76114000D01*
X121384000Y-76114000D01*
X120758000Y-76114000D01*
X119634000Y-76114000D01*
X119634000Y-73614000D01*
X120758000Y-73614000D01*
X120758000Y-75116000D01*
X121384000Y-75116000D01*
X129882000Y-75116000D01*
X131384000Y-75116000D01*
X131384000Y-73614000D01*
X130931966Y-73614000D01*
X130861757Y-73764563D01*
X130860560Y-73766988D01*
X130844205Y-73798408D01*
X130842904Y-73800778D01*
X130819774Y-73840845D01*
X130818369Y-73843160D01*
X130799323Y-73873057D01*
X130797820Y-73875306D01*
X130635736Y-74106786D01*
X130634135Y-74108969D01*
X130612551Y-74137096D01*
X130610857Y-74139207D01*
X130581117Y-74174646D01*
X130579335Y-74176678D01*
X130555409Y-74202789D01*
X130553538Y-74204744D01*
X130353744Y-74404538D01*
X130351789Y-74406409D01*
X130325678Y-74430335D01*
X130323646Y-74432117D01*
X130288207Y-74461857D01*
X130286096Y-74463551D01*
X130257969Y-74485135D01*
X130255786Y-74486736D01*
X130024306Y-74648820D01*
X130022057Y-74650323D01*
X129992160Y-74669369D01*
X129989845Y-74670774D01*
X129949778Y-74693904D01*
X129947408Y-74695205D01*
X129915988Y-74711560D01*
X129913563Y-74712757D01*
X129882000Y-74727474D01*
X129882000Y-75116000D01*
X121384000Y-75116000D01*
X121384000Y-73764198D01*
X121380701Y-73744931D01*
X121380166Y-73741093D01*
X121368699Y-73634419D01*
X121368544Y-73632764D01*
X121367035Y-73614000D01*
X120758000Y-73614000D01*
X119634000Y-73614000D01*
X119634000Y-73541870D01*
X122362500Y-73541870D01*
X122362501Y-73541876D01*
X122368908Y-73601483D01*
X122419202Y-73736328D01*
X122419206Y-73736335D01*
X122505452Y-73851544D01*
X122505455Y-73851547D01*
X122620664Y-73937793D01*
X122620671Y-73937797D01*
X122755517Y-73988091D01*
X122755516Y-73988091D01*
X122762444Y-73988835D01*
X122815127Y-73994500D01*
X124610872Y-73994499D01*
X124670483Y-73988091D01*
X124805331Y-73937796D01*
X124920546Y-73851546D01*
X125006796Y-73736331D01*
X125055810Y-73604916D01*
X125097681Y-73548984D01*
X125163145Y-73524566D01*
X125231418Y-73539417D01*
X125259673Y-73560569D01*
X125381599Y-73682495D01*
X125465286Y-73741093D01*
X125575165Y-73818032D01*
X125575167Y-73818033D01*
X125575170Y-73818035D01*
X125789337Y-73917903D01*
X126017592Y-73979063D01*
X126194034Y-73994500D01*
X126252999Y-73999659D01*
X126253000Y-73999659D01*
X126253001Y-73999659D01*
X126311966Y-73994500D01*
X126488408Y-73979063D01*
X126716663Y-73917903D01*
X126930830Y-73818035D01*
X127124401Y-73682495D01*
X127291495Y-73515401D01*
X127421424Y-73329842D01*
X127476002Y-73286217D01*
X127545500Y-73279023D01*
X127607855Y-73310546D01*
X127624575Y-73329842D01*
X127754500Y-73515395D01*
X127754505Y-73515401D01*
X127921599Y-73682495D01*
X128005286Y-73741093D01*
X128115165Y-73818032D01*
X128115167Y-73818033D01*
X128115170Y-73818035D01*
X128329337Y-73917903D01*
X128557592Y-73979063D01*
X128734034Y-73994500D01*
X128792999Y-73999659D01*
X128793000Y-73999659D01*
X128793001Y-73999659D01*
X128851966Y-73994500D01*
X129028408Y-73979063D01*
X129256663Y-73917903D01*
X129470830Y-73818035D01*
X129664401Y-73682495D01*
X129831495Y-73515401D01*
X129967035Y-73321830D01*
X130066903Y-73107663D01*
X130128063Y-72879408D01*
X130148659Y-72644000D01*
X130128063Y-72408592D01*
X130066903Y-72180337D01*
X129978147Y-71990000D01*
X137382000Y-71990000D01*
X137382000Y-72129098D01*
X137385433Y-72131136D01*
X137434224Y-72162493D01*
X137437861Y-72165018D01*
X137613588Y-72296569D01*
X137617035Y-72299346D01*
X137660865Y-72337325D01*
X137664106Y-72340342D01*
X137717658Y-72393894D01*
X137720675Y-72397135D01*
X137758654Y-72440965D01*
X137761431Y-72444412D01*
X137889884Y-72616000D01*
X138295618Y-72616000D01*
X138540748Y-72432499D01*
X138542542Y-72431206D01*
X138566338Y-72414682D01*
X138568177Y-72413454D01*
X138600015Y-72392990D01*
X138601900Y-72391825D01*
X138626850Y-72377021D01*
X138628775Y-72375925D01*
X138884000Y-72236560D01*
X138884000Y-71990000D01*
X142382000Y-71990000D01*
X142382000Y-72616000D01*
X143884000Y-72616000D01*
X143884000Y-71990000D01*
X142382000Y-71990000D01*
X138884000Y-71990000D01*
X137382000Y-71990000D01*
X129978147Y-71990000D01*
X129967035Y-71966171D01*
X129961425Y-71958158D01*
X129831494Y-71772597D01*
X129664402Y-71605506D01*
X129664395Y-71605501D01*
X129470834Y-71469967D01*
X129470830Y-71469965D01*
X129399727Y-71436809D01*
X129256663Y-71370097D01*
X129256659Y-71370096D01*
X129256655Y-71370094D01*
X129028413Y-71308938D01*
X129028403Y-71308936D01*
X128793001Y-71288341D01*
X128792999Y-71288341D01*
X128557596Y-71308936D01*
X128557586Y-71308938D01*
X128329344Y-71370094D01*
X128329335Y-71370098D01*
X128115171Y-71469964D01*
X128115169Y-71469965D01*
X127921597Y-71605505D01*
X127754505Y-71772597D01*
X127624575Y-71958158D01*
X127569998Y-72001783D01*
X127500500Y-72008977D01*
X127438145Y-71977454D01*
X127421425Y-71958158D01*
X127291494Y-71772597D01*
X127124402Y-71605506D01*
X127124395Y-71605501D01*
X126930834Y-71469967D01*
X126930830Y-71469965D01*
X126859727Y-71436809D01*
X126716663Y-71370097D01*
X126716659Y-71370096D01*
X126716655Y-71370094D01*
X126488413Y-71308938D01*
X126488403Y-71308936D01*
X126253001Y-71288341D01*
X126252999Y-71288341D01*
X126017596Y-71308936D01*
X126017586Y-71308938D01*
X125789344Y-71370094D01*
X125789335Y-71370098D01*
X125575171Y-71469964D01*
X125575169Y-71469965D01*
X125381600Y-71605503D01*
X125259673Y-71727430D01*
X125198350Y-71760914D01*
X125128658Y-71755930D01*
X125072725Y-71714058D01*
X125055810Y-71683081D01*
X125006797Y-71551671D01*
X125006793Y-71551664D01*
X124920547Y-71436455D01*
X124920544Y-71436452D01*
X124805335Y-71350206D01*
X124805328Y-71350202D01*
X124670482Y-71299908D01*
X124670483Y-71299908D01*
X124610883Y-71293501D01*
X124610881Y-71293500D01*
X124610873Y-71293500D01*
X124610864Y-71293500D01*
X122815129Y-71293500D01*
X122815123Y-71293501D01*
X122755516Y-71299908D01*
X122620671Y-71350202D01*
X122620664Y-71350206D01*
X122505455Y-71436452D01*
X122505452Y-71436455D01*
X122419206Y-71551664D01*
X122419202Y-71551671D01*
X122368908Y-71686517D01*
X122362501Y-71746116D01*
X122362500Y-71746135D01*
X122362500Y-73541870D01*
X119634000Y-73541870D01*
X119634000Y-72669451D01*
X119644026Y-72620605D01*
X119719538Y-72444412D01*
X120363791Y-70941153D01*
X120408292Y-70887289D01*
X120474850Y-70866034D01*
X120477765Y-70866000D01*
X148298456Y-70866000D01*
X148365495Y-70885685D01*
G37*
%TD.AperFunction*%
%TD*%
M02*
