%TF.GenerationSoftware,KiCad,Pcbnew,7.0.5-0*%
%TF.CreationDate,2023-07-08T23:53:13+02:00*%
%TF.ProjectId,Breadboard Power Supply,42726561-6462-46f6-9172-6420506f7765,rev?*%
%TF.SameCoordinates,Original*%
%TF.FileFunction,Legend,Top*%
%TF.FilePolarity,Positive*%
%FSLAX46Y46*%
G04 Gerber Fmt 4.6, Leading zero omitted, Abs format (unit mm)*
G04 Created by KiCad (PCBNEW 7.0.5-0) date 2023-07-08 23:53:13*
%MOMM*%
%LPD*%
G01*
G04 APERTURE LIST*
%ADD10C,0.150000*%
%ADD11C,0.050000*%
%ADD12C,0.120000*%
%ADD13C,0.100000*%
G04 APERTURE END LIST*
D10*
X138127255Y-86944819D02*
X138317731Y-86944819D01*
X138317731Y-86944819D02*
X138412969Y-86992438D01*
X138412969Y-86992438D02*
X138508207Y-87087676D01*
X138508207Y-87087676D02*
X138555826Y-87278152D01*
X138555826Y-87278152D02*
X138555826Y-87611485D01*
X138555826Y-87611485D02*
X138508207Y-87801961D01*
X138508207Y-87801961D02*
X138412969Y-87897200D01*
X138412969Y-87897200D02*
X138317731Y-87944819D01*
X138317731Y-87944819D02*
X138127255Y-87944819D01*
X138127255Y-87944819D02*
X138032017Y-87897200D01*
X138032017Y-87897200D02*
X137936779Y-87801961D01*
X137936779Y-87801961D02*
X137889160Y-87611485D01*
X137889160Y-87611485D02*
X137889160Y-87278152D01*
X137889160Y-87278152D02*
X137936779Y-87087676D01*
X137936779Y-87087676D02*
X138032017Y-86992438D01*
X138032017Y-86992438D02*
X138127255Y-86944819D01*
X138984398Y-87944819D02*
X138984398Y-86944819D01*
X138984398Y-86944819D02*
X139555826Y-87944819D01*
X139555826Y-87944819D02*
X139555826Y-86944819D01*
X133352255Y-86969819D02*
X133542731Y-86969819D01*
X133542731Y-86969819D02*
X133637969Y-87017438D01*
X133637969Y-87017438D02*
X133733207Y-87112676D01*
X133733207Y-87112676D02*
X133780826Y-87303152D01*
X133780826Y-87303152D02*
X133780826Y-87636485D01*
X133780826Y-87636485D02*
X133733207Y-87826961D01*
X133733207Y-87826961D02*
X133637969Y-87922200D01*
X133637969Y-87922200D02*
X133542731Y-87969819D01*
X133542731Y-87969819D02*
X133352255Y-87969819D01*
X133352255Y-87969819D02*
X133257017Y-87922200D01*
X133257017Y-87922200D02*
X133161779Y-87826961D01*
X133161779Y-87826961D02*
X133114160Y-87636485D01*
X133114160Y-87636485D02*
X133114160Y-87303152D01*
X133114160Y-87303152D02*
X133161779Y-87112676D01*
X133161779Y-87112676D02*
X133257017Y-87017438D01*
X133257017Y-87017438D02*
X133352255Y-86969819D01*
X134542731Y-87446009D02*
X134209398Y-87446009D01*
X134209398Y-87969819D02*
X134209398Y-86969819D01*
X134209398Y-86969819D02*
X134685588Y-86969819D01*
X135399874Y-87446009D02*
X135066541Y-87446009D01*
X135066541Y-87969819D02*
X135066541Y-86969819D01*
X135066541Y-86969819D02*
X135542731Y-86969819D01*
X141036779Y-101088866D02*
X141798684Y-101088866D01*
X141136779Y-94713866D02*
X141898684Y-94713866D01*
X141517731Y-95094819D02*
X141517731Y-94332914D01*
X121666541Y-117594819D02*
X122285588Y-117594819D01*
X122285588Y-117594819D02*
X121952255Y-117975771D01*
X121952255Y-117975771D02*
X122095112Y-117975771D01*
X122095112Y-117975771D02*
X122190350Y-118023390D01*
X122190350Y-118023390D02*
X122237969Y-118071009D01*
X122237969Y-118071009D02*
X122285588Y-118166247D01*
X122285588Y-118166247D02*
X122285588Y-118404342D01*
X122285588Y-118404342D02*
X122237969Y-118499580D01*
X122237969Y-118499580D02*
X122190350Y-118547200D01*
X122190350Y-118547200D02*
X122095112Y-118594819D01*
X122095112Y-118594819D02*
X121809398Y-118594819D01*
X121809398Y-118594819D02*
X121714160Y-118547200D01*
X121714160Y-118547200D02*
X121666541Y-118499580D01*
X122714160Y-118499580D02*
X122761779Y-118547200D01*
X122761779Y-118547200D02*
X122714160Y-118594819D01*
X122714160Y-118594819D02*
X122666541Y-118547200D01*
X122666541Y-118547200D02*
X122714160Y-118499580D01*
X122714160Y-118499580D02*
X122714160Y-118594819D01*
X123095112Y-117594819D02*
X123714159Y-117594819D01*
X123714159Y-117594819D02*
X123380826Y-117975771D01*
X123380826Y-117975771D02*
X123523683Y-117975771D01*
X123523683Y-117975771D02*
X123618921Y-118023390D01*
X123618921Y-118023390D02*
X123666540Y-118071009D01*
X123666540Y-118071009D02*
X123714159Y-118166247D01*
X123714159Y-118166247D02*
X123714159Y-118404342D01*
X123714159Y-118404342D02*
X123666540Y-118499580D01*
X123666540Y-118499580D02*
X123618921Y-118547200D01*
X123618921Y-118547200D02*
X123523683Y-118594819D01*
X123523683Y-118594819D02*
X123237969Y-118594819D01*
X123237969Y-118594819D02*
X123142731Y-118547200D01*
X123142731Y-118547200D02*
X123095112Y-118499580D01*
X123999874Y-117594819D02*
X124333207Y-118594819D01*
X124333207Y-118594819D02*
X124666540Y-117594819D01*
X122141541Y-74769819D02*
X122760588Y-74769819D01*
X122760588Y-74769819D02*
X122427255Y-75150771D01*
X122427255Y-75150771D02*
X122570112Y-75150771D01*
X122570112Y-75150771D02*
X122665350Y-75198390D01*
X122665350Y-75198390D02*
X122712969Y-75246009D01*
X122712969Y-75246009D02*
X122760588Y-75341247D01*
X122760588Y-75341247D02*
X122760588Y-75579342D01*
X122760588Y-75579342D02*
X122712969Y-75674580D01*
X122712969Y-75674580D02*
X122665350Y-75722200D01*
X122665350Y-75722200D02*
X122570112Y-75769819D01*
X122570112Y-75769819D02*
X122284398Y-75769819D01*
X122284398Y-75769819D02*
X122189160Y-75722200D01*
X122189160Y-75722200D02*
X122141541Y-75674580D01*
X123189160Y-75674580D02*
X123236779Y-75722200D01*
X123236779Y-75722200D02*
X123189160Y-75769819D01*
X123189160Y-75769819D02*
X123141541Y-75722200D01*
X123141541Y-75722200D02*
X123189160Y-75674580D01*
X123189160Y-75674580D02*
X123189160Y-75769819D01*
X123570112Y-74769819D02*
X124189159Y-74769819D01*
X124189159Y-74769819D02*
X123855826Y-75150771D01*
X123855826Y-75150771D02*
X123998683Y-75150771D01*
X123998683Y-75150771D02*
X124093921Y-75198390D01*
X124093921Y-75198390D02*
X124141540Y-75246009D01*
X124141540Y-75246009D02*
X124189159Y-75341247D01*
X124189159Y-75341247D02*
X124189159Y-75579342D01*
X124189159Y-75579342D02*
X124141540Y-75674580D01*
X124141540Y-75674580D02*
X124093921Y-75722200D01*
X124093921Y-75722200D02*
X123998683Y-75769819D01*
X123998683Y-75769819D02*
X123712969Y-75769819D01*
X123712969Y-75769819D02*
X123617731Y-75722200D01*
X123617731Y-75722200D02*
X123570112Y-75674580D01*
X124474874Y-74769819D02*
X124808207Y-75769819D01*
X124808207Y-75769819D02*
X125141540Y-74769819D01*
X128812969Y-74494819D02*
X128336779Y-74494819D01*
X128336779Y-74494819D02*
X128289160Y-74971009D01*
X128289160Y-74971009D02*
X128336779Y-74923390D01*
X128336779Y-74923390D02*
X128432017Y-74875771D01*
X128432017Y-74875771D02*
X128670112Y-74875771D01*
X128670112Y-74875771D02*
X128765350Y-74923390D01*
X128765350Y-74923390D02*
X128812969Y-74971009D01*
X128812969Y-74971009D02*
X128860588Y-75066247D01*
X128860588Y-75066247D02*
X128860588Y-75304342D01*
X128860588Y-75304342D02*
X128812969Y-75399580D01*
X128812969Y-75399580D02*
X128765350Y-75447200D01*
X128765350Y-75447200D02*
X128670112Y-75494819D01*
X128670112Y-75494819D02*
X128432017Y-75494819D01*
X128432017Y-75494819D02*
X128336779Y-75447200D01*
X128336779Y-75447200D02*
X128289160Y-75399580D01*
X129146303Y-74494819D02*
X129479636Y-75494819D01*
X129479636Y-75494819D02*
X129812969Y-74494819D01*
X128762969Y-117669819D02*
X128286779Y-117669819D01*
X128286779Y-117669819D02*
X128239160Y-118146009D01*
X128239160Y-118146009D02*
X128286779Y-118098390D01*
X128286779Y-118098390D02*
X128382017Y-118050771D01*
X128382017Y-118050771D02*
X128620112Y-118050771D01*
X128620112Y-118050771D02*
X128715350Y-118098390D01*
X128715350Y-118098390D02*
X128762969Y-118146009D01*
X128762969Y-118146009D02*
X128810588Y-118241247D01*
X128810588Y-118241247D02*
X128810588Y-118479342D01*
X128810588Y-118479342D02*
X128762969Y-118574580D01*
X128762969Y-118574580D02*
X128715350Y-118622200D01*
X128715350Y-118622200D02*
X128620112Y-118669819D01*
X128620112Y-118669819D02*
X128382017Y-118669819D01*
X128382017Y-118669819D02*
X128286779Y-118622200D01*
X128286779Y-118622200D02*
X128239160Y-118574580D01*
X129096303Y-117669819D02*
X129429636Y-118669819D01*
X129429636Y-118669819D02*
X129762969Y-117669819D01*
X143792438Y-119164411D02*
X143744819Y-119259649D01*
X143744819Y-119259649D02*
X143744819Y-119402506D01*
X143744819Y-119402506D02*
X143792438Y-119545363D01*
X143792438Y-119545363D02*
X143887676Y-119640601D01*
X143887676Y-119640601D02*
X143982914Y-119688220D01*
X143982914Y-119688220D02*
X144173390Y-119735839D01*
X144173390Y-119735839D02*
X144316247Y-119735839D01*
X144316247Y-119735839D02*
X144506723Y-119688220D01*
X144506723Y-119688220D02*
X144601961Y-119640601D01*
X144601961Y-119640601D02*
X144697200Y-119545363D01*
X144697200Y-119545363D02*
X144744819Y-119402506D01*
X144744819Y-119402506D02*
X144744819Y-119307268D01*
X144744819Y-119307268D02*
X144697200Y-119164411D01*
X144697200Y-119164411D02*
X144649580Y-119116792D01*
X144649580Y-119116792D02*
X144316247Y-119116792D01*
X144316247Y-119116792D02*
X144316247Y-119307268D01*
X144744819Y-118688220D02*
X143744819Y-118688220D01*
X143744819Y-118688220D02*
X144744819Y-118116792D01*
X144744819Y-118116792D02*
X143744819Y-118116792D01*
X144744819Y-117640601D02*
X143744819Y-117640601D01*
X143744819Y-117640601D02*
X143744819Y-117402506D01*
X143744819Y-117402506D02*
X143792438Y-117259649D01*
X143792438Y-117259649D02*
X143887676Y-117164411D01*
X143887676Y-117164411D02*
X143982914Y-117116792D01*
X143982914Y-117116792D02*
X144173390Y-117069173D01*
X144173390Y-117069173D02*
X144316247Y-117069173D01*
X144316247Y-117069173D02*
X144506723Y-117116792D01*
X144506723Y-117116792D02*
X144601961Y-117164411D01*
X144601961Y-117164411D02*
X144697200Y-117259649D01*
X144697200Y-117259649D02*
X144744819Y-117402506D01*
X144744819Y-117402506D02*
X144744819Y-117640601D01*
X134285588Y-112967438D02*
X134190350Y-112919819D01*
X134190350Y-112919819D02*
X134047493Y-112919819D01*
X134047493Y-112919819D02*
X133904636Y-112967438D01*
X133904636Y-112967438D02*
X133809398Y-113062676D01*
X133809398Y-113062676D02*
X133761779Y-113157914D01*
X133761779Y-113157914D02*
X133714160Y-113348390D01*
X133714160Y-113348390D02*
X133714160Y-113491247D01*
X133714160Y-113491247D02*
X133761779Y-113681723D01*
X133761779Y-113681723D02*
X133809398Y-113776961D01*
X133809398Y-113776961D02*
X133904636Y-113872200D01*
X133904636Y-113872200D02*
X134047493Y-113919819D01*
X134047493Y-113919819D02*
X134142731Y-113919819D01*
X134142731Y-113919819D02*
X134285588Y-113872200D01*
X134285588Y-113872200D02*
X134333207Y-113824580D01*
X134333207Y-113824580D02*
X134333207Y-113491247D01*
X134333207Y-113491247D02*
X134142731Y-113491247D01*
X134761779Y-113919819D02*
X134761779Y-112919819D01*
X134761779Y-112919819D02*
X135333207Y-113919819D01*
X135333207Y-113919819D02*
X135333207Y-112919819D01*
X135809398Y-113919819D02*
X135809398Y-112919819D01*
X135809398Y-112919819D02*
X136047493Y-112919819D01*
X136047493Y-112919819D02*
X136190350Y-112967438D01*
X136190350Y-112967438D02*
X136285588Y-113062676D01*
X136285588Y-113062676D02*
X136333207Y-113157914D01*
X136333207Y-113157914D02*
X136380826Y-113348390D01*
X136380826Y-113348390D02*
X136380826Y-113491247D01*
X136380826Y-113491247D02*
X136333207Y-113681723D01*
X136333207Y-113681723D02*
X136285588Y-113776961D01*
X136285588Y-113776961D02*
X136190350Y-113872200D01*
X136190350Y-113872200D02*
X136047493Y-113919819D01*
X136047493Y-113919819D02*
X135809398Y-113919819D01*
X143917438Y-73489411D02*
X143869819Y-73584649D01*
X143869819Y-73584649D02*
X143869819Y-73727506D01*
X143869819Y-73727506D02*
X143917438Y-73870363D01*
X143917438Y-73870363D02*
X144012676Y-73965601D01*
X144012676Y-73965601D02*
X144107914Y-74013220D01*
X144107914Y-74013220D02*
X144298390Y-74060839D01*
X144298390Y-74060839D02*
X144441247Y-74060839D01*
X144441247Y-74060839D02*
X144631723Y-74013220D01*
X144631723Y-74013220D02*
X144726961Y-73965601D01*
X144726961Y-73965601D02*
X144822200Y-73870363D01*
X144822200Y-73870363D02*
X144869819Y-73727506D01*
X144869819Y-73727506D02*
X144869819Y-73632268D01*
X144869819Y-73632268D02*
X144822200Y-73489411D01*
X144822200Y-73489411D02*
X144774580Y-73441792D01*
X144774580Y-73441792D02*
X144441247Y-73441792D01*
X144441247Y-73441792D02*
X144441247Y-73632268D01*
X144869819Y-73013220D02*
X143869819Y-73013220D01*
X143869819Y-73013220D02*
X144869819Y-72441792D01*
X144869819Y-72441792D02*
X143869819Y-72441792D01*
X144869819Y-71965601D02*
X143869819Y-71965601D01*
X143869819Y-71965601D02*
X143869819Y-71727506D01*
X143869819Y-71727506D02*
X143917438Y-71584649D01*
X143917438Y-71584649D02*
X144012676Y-71489411D01*
X144012676Y-71489411D02*
X144107914Y-71441792D01*
X144107914Y-71441792D02*
X144298390Y-71394173D01*
X144298390Y-71394173D02*
X144441247Y-71394173D01*
X144441247Y-71394173D02*
X144631723Y-71441792D01*
X144631723Y-71441792D02*
X144726961Y-71489411D01*
X144726961Y-71489411D02*
X144822200Y-71584649D01*
X144822200Y-71584649D02*
X144869819Y-71727506D01*
X144869819Y-71727506D02*
X144869819Y-71965601D01*
X133810588Y-79442438D02*
X133715350Y-79394819D01*
X133715350Y-79394819D02*
X133572493Y-79394819D01*
X133572493Y-79394819D02*
X133429636Y-79442438D01*
X133429636Y-79442438D02*
X133334398Y-79537676D01*
X133334398Y-79537676D02*
X133286779Y-79632914D01*
X133286779Y-79632914D02*
X133239160Y-79823390D01*
X133239160Y-79823390D02*
X133239160Y-79966247D01*
X133239160Y-79966247D02*
X133286779Y-80156723D01*
X133286779Y-80156723D02*
X133334398Y-80251961D01*
X133334398Y-80251961D02*
X133429636Y-80347200D01*
X133429636Y-80347200D02*
X133572493Y-80394819D01*
X133572493Y-80394819D02*
X133667731Y-80394819D01*
X133667731Y-80394819D02*
X133810588Y-80347200D01*
X133810588Y-80347200D02*
X133858207Y-80299580D01*
X133858207Y-80299580D02*
X133858207Y-79966247D01*
X133858207Y-79966247D02*
X133667731Y-79966247D01*
X134286779Y-80394819D02*
X134286779Y-79394819D01*
X134286779Y-79394819D02*
X134858207Y-80394819D01*
X134858207Y-80394819D02*
X134858207Y-79394819D01*
X135334398Y-80394819D02*
X135334398Y-79394819D01*
X135334398Y-79394819D02*
X135572493Y-79394819D01*
X135572493Y-79394819D02*
X135715350Y-79442438D01*
X135715350Y-79442438D02*
X135810588Y-79537676D01*
X135810588Y-79537676D02*
X135858207Y-79632914D01*
X135858207Y-79632914D02*
X135905826Y-79823390D01*
X135905826Y-79823390D02*
X135905826Y-79966247D01*
X135905826Y-79966247D02*
X135858207Y-80156723D01*
X135858207Y-80156723D02*
X135810588Y-80251961D01*
X135810588Y-80251961D02*
X135715350Y-80347200D01*
X135715350Y-80347200D02*
X135572493Y-80394819D01*
X135572493Y-80394819D02*
X135334398Y-80394819D01*
D11*
%TO.C,U2*%
X128941666Y-89621233D02*
X128941666Y-90187900D01*
X128941666Y-90187900D02*
X128975000Y-90254566D01*
X128975000Y-90254566D02*
X129008333Y-90287900D01*
X129008333Y-90287900D02*
X129075000Y-90321233D01*
X129075000Y-90321233D02*
X129208333Y-90321233D01*
X129208333Y-90321233D02*
X129275000Y-90287900D01*
X129275000Y-90287900D02*
X129308333Y-90254566D01*
X129308333Y-90254566D02*
X129341666Y-90187900D01*
X129341666Y-90187900D02*
X129341666Y-89621233D01*
X129641666Y-89687900D02*
X129674999Y-89654566D01*
X129674999Y-89654566D02*
X129741666Y-89621233D01*
X129741666Y-89621233D02*
X129908333Y-89621233D01*
X129908333Y-89621233D02*
X129974999Y-89654566D01*
X129974999Y-89654566D02*
X130008333Y-89687900D01*
X130008333Y-89687900D02*
X130041666Y-89754566D01*
X130041666Y-89754566D02*
X130041666Y-89821233D01*
X130041666Y-89821233D02*
X130008333Y-89921233D01*
X130008333Y-89921233D02*
X129608333Y-90321233D01*
X129608333Y-90321233D02*
X130041666Y-90321233D01*
X120158333Y-90271233D02*
X119824999Y-90271233D01*
X119824999Y-90271233D02*
X119824999Y-89571233D01*
X120391666Y-90271233D02*
X120391666Y-89571233D01*
X120391666Y-89571233D02*
X120625000Y-90071233D01*
X120625000Y-90071233D02*
X120858333Y-89571233D01*
X120858333Y-89571233D02*
X120858333Y-90271233D01*
X121125000Y-89571233D02*
X121591666Y-89571233D01*
X121591666Y-89571233D02*
X121291666Y-90271233D01*
X121958333Y-89871233D02*
X121891667Y-89837900D01*
X121891667Y-89837900D02*
X121858333Y-89804566D01*
X121858333Y-89804566D02*
X121825000Y-89737900D01*
X121825000Y-89737900D02*
X121825000Y-89704566D01*
X121825000Y-89704566D02*
X121858333Y-89637900D01*
X121858333Y-89637900D02*
X121891667Y-89604566D01*
X121891667Y-89604566D02*
X121958333Y-89571233D01*
X121958333Y-89571233D02*
X122091667Y-89571233D01*
X122091667Y-89571233D02*
X122158333Y-89604566D01*
X122158333Y-89604566D02*
X122191667Y-89637900D01*
X122191667Y-89637900D02*
X122225000Y-89704566D01*
X122225000Y-89704566D02*
X122225000Y-89737900D01*
X122225000Y-89737900D02*
X122191667Y-89804566D01*
X122191667Y-89804566D02*
X122158333Y-89837900D01*
X122158333Y-89837900D02*
X122091667Y-89871233D01*
X122091667Y-89871233D02*
X121958333Y-89871233D01*
X121958333Y-89871233D02*
X121891667Y-89904566D01*
X121891667Y-89904566D02*
X121858333Y-89937900D01*
X121858333Y-89937900D02*
X121825000Y-90004566D01*
X121825000Y-90004566D02*
X121825000Y-90137900D01*
X121825000Y-90137900D02*
X121858333Y-90204566D01*
X121858333Y-90204566D02*
X121891667Y-90237900D01*
X121891667Y-90237900D02*
X121958333Y-90271233D01*
X121958333Y-90271233D02*
X122091667Y-90271233D01*
X122091667Y-90271233D02*
X122158333Y-90237900D01*
X122158333Y-90237900D02*
X122191667Y-90204566D01*
X122191667Y-90204566D02*
X122225000Y-90137900D01*
X122225000Y-90137900D02*
X122225000Y-90004566D01*
X122225000Y-90004566D02*
X122191667Y-89937900D01*
X122191667Y-89937900D02*
X122158333Y-89904566D01*
X122158333Y-89904566D02*
X122091667Y-89871233D01*
X122658334Y-89571233D02*
X122725000Y-89571233D01*
X122725000Y-89571233D02*
X122791667Y-89604566D01*
X122791667Y-89604566D02*
X122825000Y-89637900D01*
X122825000Y-89637900D02*
X122858334Y-89704566D01*
X122858334Y-89704566D02*
X122891667Y-89837900D01*
X122891667Y-89837900D02*
X122891667Y-90004566D01*
X122891667Y-90004566D02*
X122858334Y-90137900D01*
X122858334Y-90137900D02*
X122825000Y-90204566D01*
X122825000Y-90204566D02*
X122791667Y-90237900D01*
X122791667Y-90237900D02*
X122725000Y-90271233D01*
X122725000Y-90271233D02*
X122658334Y-90271233D01*
X122658334Y-90271233D02*
X122591667Y-90237900D01*
X122591667Y-90237900D02*
X122558334Y-90204566D01*
X122558334Y-90204566D02*
X122525000Y-90137900D01*
X122525000Y-90137900D02*
X122491667Y-90004566D01*
X122491667Y-90004566D02*
X122491667Y-89837900D01*
X122491667Y-89837900D02*
X122525000Y-89704566D01*
X122525000Y-89704566D02*
X122558334Y-89637900D01*
X122558334Y-89637900D02*
X122591667Y-89604566D01*
X122591667Y-89604566D02*
X122658334Y-89571233D01*
X123525001Y-89571233D02*
X123191667Y-89571233D01*
X123191667Y-89571233D02*
X123158334Y-89904566D01*
X123158334Y-89904566D02*
X123191667Y-89871233D01*
X123191667Y-89871233D02*
X123258334Y-89837900D01*
X123258334Y-89837900D02*
X123425001Y-89837900D01*
X123425001Y-89837900D02*
X123491667Y-89871233D01*
X123491667Y-89871233D02*
X123525001Y-89904566D01*
X123525001Y-89904566D02*
X123558334Y-89971233D01*
X123558334Y-89971233D02*
X123558334Y-90137900D01*
X123558334Y-90137900D02*
X123525001Y-90204566D01*
X123525001Y-90204566D02*
X123491667Y-90237900D01*
X123491667Y-90237900D02*
X123425001Y-90271233D01*
X123425001Y-90271233D02*
X123258334Y-90271233D01*
X123258334Y-90271233D02*
X123191667Y-90237900D01*
X123191667Y-90237900D02*
X123158334Y-90204566D01*
X123691668Y-90337900D02*
X124225001Y-90337900D01*
X124291667Y-89571233D02*
X124691667Y-89571233D01*
X124491667Y-90271233D02*
X124491667Y-89571233D01*
X125058334Y-89571233D02*
X125191667Y-89571233D01*
X125191667Y-89571233D02*
X125258334Y-89604566D01*
X125258334Y-89604566D02*
X125325000Y-89671233D01*
X125325000Y-89671233D02*
X125358334Y-89804566D01*
X125358334Y-89804566D02*
X125358334Y-90037900D01*
X125358334Y-90037900D02*
X125325000Y-90171233D01*
X125325000Y-90171233D02*
X125258334Y-90237900D01*
X125258334Y-90237900D02*
X125191667Y-90271233D01*
X125191667Y-90271233D02*
X125058334Y-90271233D01*
X125058334Y-90271233D02*
X124991667Y-90237900D01*
X124991667Y-90237900D02*
X124925000Y-90171233D01*
X124925000Y-90171233D02*
X124891667Y-90037900D01*
X124891667Y-90037900D02*
X124891667Y-89804566D01*
X124891667Y-89804566D02*
X124925000Y-89671233D01*
X124925000Y-89671233D02*
X124991667Y-89604566D01*
X124991667Y-89604566D02*
X125058334Y-89571233D01*
X125625000Y-89637900D02*
X125658333Y-89604566D01*
X125658333Y-89604566D02*
X125725000Y-89571233D01*
X125725000Y-89571233D02*
X125891667Y-89571233D01*
X125891667Y-89571233D02*
X125958333Y-89604566D01*
X125958333Y-89604566D02*
X125991667Y-89637900D01*
X125991667Y-89637900D02*
X126025000Y-89704566D01*
X126025000Y-89704566D02*
X126025000Y-89771233D01*
X126025000Y-89771233D02*
X125991667Y-89871233D01*
X125991667Y-89871233D02*
X125591667Y-90271233D01*
X125591667Y-90271233D02*
X126025000Y-90271233D01*
X126291667Y-89637900D02*
X126325000Y-89604566D01*
X126325000Y-89604566D02*
X126391667Y-89571233D01*
X126391667Y-89571233D02*
X126558334Y-89571233D01*
X126558334Y-89571233D02*
X126625000Y-89604566D01*
X126625000Y-89604566D02*
X126658334Y-89637900D01*
X126658334Y-89637900D02*
X126691667Y-89704566D01*
X126691667Y-89704566D02*
X126691667Y-89771233D01*
X126691667Y-89771233D02*
X126658334Y-89871233D01*
X126658334Y-89871233D02*
X126258334Y-90271233D01*
X126258334Y-90271233D02*
X126691667Y-90271233D01*
X127125001Y-89571233D02*
X127191667Y-89571233D01*
X127191667Y-89571233D02*
X127258334Y-89604566D01*
X127258334Y-89604566D02*
X127291667Y-89637900D01*
X127291667Y-89637900D02*
X127325001Y-89704566D01*
X127325001Y-89704566D02*
X127358334Y-89837900D01*
X127358334Y-89837900D02*
X127358334Y-90004566D01*
X127358334Y-90004566D02*
X127325001Y-90137900D01*
X127325001Y-90137900D02*
X127291667Y-90204566D01*
X127291667Y-90204566D02*
X127258334Y-90237900D01*
X127258334Y-90237900D02*
X127191667Y-90271233D01*
X127191667Y-90271233D02*
X127125001Y-90271233D01*
X127125001Y-90271233D02*
X127058334Y-90237900D01*
X127058334Y-90237900D02*
X127025001Y-90204566D01*
X127025001Y-90204566D02*
X126991667Y-90137900D01*
X126991667Y-90137900D02*
X126958334Y-90004566D01*
X126958334Y-90004566D02*
X126958334Y-89837900D01*
X126958334Y-89837900D02*
X126991667Y-89704566D01*
X126991667Y-89704566D02*
X127025001Y-89637900D01*
X127025001Y-89637900D02*
X127058334Y-89604566D01*
X127058334Y-89604566D02*
X127125001Y-89571233D01*
D10*
%TO.C,U1*%
X124714095Y-104079819D02*
X124714095Y-104889342D01*
X124714095Y-104889342D02*
X124761714Y-104984580D01*
X124761714Y-104984580D02*
X124809333Y-105032200D01*
X124809333Y-105032200D02*
X124904571Y-105079819D01*
X124904571Y-105079819D02*
X125095047Y-105079819D01*
X125095047Y-105079819D02*
X125190285Y-105032200D01*
X125190285Y-105032200D02*
X125237904Y-104984580D01*
X125237904Y-104984580D02*
X125285523Y-104889342D01*
X125285523Y-104889342D02*
X125285523Y-104079819D01*
X126285523Y-105079819D02*
X125714095Y-105079819D01*
X125999809Y-105079819D02*
X125999809Y-104079819D01*
X125999809Y-104079819D02*
X125904571Y-104222676D01*
X125904571Y-104222676D02*
X125809333Y-104317914D01*
X125809333Y-104317914D02*
X125714095Y-104365533D01*
D11*
X120808333Y-111696233D02*
X120474999Y-111696233D01*
X120474999Y-111696233D02*
X120474999Y-110996233D01*
X121041666Y-111696233D02*
X121041666Y-110996233D01*
X121041666Y-110996233D02*
X121275000Y-111496233D01*
X121275000Y-111496233D02*
X121508333Y-110996233D01*
X121508333Y-110996233D02*
X121508333Y-111696233D01*
X121775000Y-110996233D02*
X122208333Y-110996233D01*
X122208333Y-110996233D02*
X121975000Y-111262900D01*
X121975000Y-111262900D02*
X122075000Y-111262900D01*
X122075000Y-111262900D02*
X122141666Y-111296233D01*
X122141666Y-111296233D02*
X122175000Y-111329566D01*
X122175000Y-111329566D02*
X122208333Y-111396233D01*
X122208333Y-111396233D02*
X122208333Y-111562900D01*
X122208333Y-111562900D02*
X122175000Y-111629566D01*
X122175000Y-111629566D02*
X122141666Y-111662900D01*
X122141666Y-111662900D02*
X122075000Y-111696233D01*
X122075000Y-111696233D02*
X121875000Y-111696233D01*
X121875000Y-111696233D02*
X121808333Y-111662900D01*
X121808333Y-111662900D02*
X121775000Y-111629566D01*
X122875000Y-111696233D02*
X122475000Y-111696233D01*
X122675000Y-111696233D02*
X122675000Y-110996233D01*
X122675000Y-110996233D02*
X122608333Y-111096233D01*
X122608333Y-111096233D02*
X122541667Y-111162900D01*
X122541667Y-111162900D02*
X122475000Y-111196233D01*
X123108334Y-110996233D02*
X123575000Y-110996233D01*
X123575000Y-110996233D02*
X123275000Y-111696233D01*
X123675001Y-111762900D02*
X124208334Y-111762900D01*
X124275000Y-110996233D02*
X124675000Y-110996233D01*
X124475000Y-111696233D02*
X124475000Y-110996233D01*
X125041667Y-110996233D02*
X125175000Y-110996233D01*
X125175000Y-110996233D02*
X125241667Y-111029566D01*
X125241667Y-111029566D02*
X125308333Y-111096233D01*
X125308333Y-111096233D02*
X125341667Y-111229566D01*
X125341667Y-111229566D02*
X125341667Y-111462900D01*
X125341667Y-111462900D02*
X125308333Y-111596233D01*
X125308333Y-111596233D02*
X125241667Y-111662900D01*
X125241667Y-111662900D02*
X125175000Y-111696233D01*
X125175000Y-111696233D02*
X125041667Y-111696233D01*
X125041667Y-111696233D02*
X124975000Y-111662900D01*
X124975000Y-111662900D02*
X124908333Y-111596233D01*
X124908333Y-111596233D02*
X124875000Y-111462900D01*
X124875000Y-111462900D02*
X124875000Y-111229566D01*
X124875000Y-111229566D02*
X124908333Y-111096233D01*
X124908333Y-111096233D02*
X124975000Y-111029566D01*
X124975000Y-111029566D02*
X125041667Y-110996233D01*
X125641666Y-111429566D02*
X126175000Y-111429566D01*
X126475000Y-111062900D02*
X126508333Y-111029566D01*
X126508333Y-111029566D02*
X126575000Y-110996233D01*
X126575000Y-110996233D02*
X126741667Y-110996233D01*
X126741667Y-110996233D02*
X126808333Y-111029566D01*
X126808333Y-111029566D02*
X126841667Y-111062900D01*
X126841667Y-111062900D02*
X126875000Y-111129566D01*
X126875000Y-111129566D02*
X126875000Y-111196233D01*
X126875000Y-111196233D02*
X126841667Y-111296233D01*
X126841667Y-111296233D02*
X126441667Y-111696233D01*
X126441667Y-111696233D02*
X126875000Y-111696233D01*
X127141667Y-111062900D02*
X127175000Y-111029566D01*
X127175000Y-111029566D02*
X127241667Y-110996233D01*
X127241667Y-110996233D02*
X127408334Y-110996233D01*
X127408334Y-110996233D02*
X127475000Y-111029566D01*
X127475000Y-111029566D02*
X127508334Y-111062900D01*
X127508334Y-111062900D02*
X127541667Y-111129566D01*
X127541667Y-111129566D02*
X127541667Y-111196233D01*
X127541667Y-111196233D02*
X127508334Y-111296233D01*
X127508334Y-111296233D02*
X127108334Y-111696233D01*
X127108334Y-111696233D02*
X127541667Y-111696233D01*
X127975001Y-110996233D02*
X128041667Y-110996233D01*
X128041667Y-110996233D02*
X128108334Y-111029566D01*
X128108334Y-111029566D02*
X128141667Y-111062900D01*
X128141667Y-111062900D02*
X128175001Y-111129566D01*
X128175001Y-111129566D02*
X128208334Y-111262900D01*
X128208334Y-111262900D02*
X128208334Y-111429566D01*
X128208334Y-111429566D02*
X128175001Y-111562900D01*
X128175001Y-111562900D02*
X128141667Y-111629566D01*
X128141667Y-111629566D02*
X128108334Y-111662900D01*
X128108334Y-111662900D02*
X128041667Y-111696233D01*
X128041667Y-111696233D02*
X127975001Y-111696233D01*
X127975001Y-111696233D02*
X127908334Y-111662900D01*
X127908334Y-111662900D02*
X127875001Y-111629566D01*
X127875001Y-111629566D02*
X127841667Y-111562900D01*
X127841667Y-111562900D02*
X127808334Y-111429566D01*
X127808334Y-111429566D02*
X127808334Y-111262900D01*
X127808334Y-111262900D02*
X127841667Y-111129566D01*
X127841667Y-111129566D02*
X127875001Y-111062900D01*
X127875001Y-111062900D02*
X127908334Y-111029566D01*
X127908334Y-111029566D02*
X127975001Y-110996233D01*
%TO.C,S1*%
X140891666Y-82137900D02*
X140991666Y-82171233D01*
X140991666Y-82171233D02*
X141158333Y-82171233D01*
X141158333Y-82171233D02*
X141224999Y-82137900D01*
X141224999Y-82137900D02*
X141258333Y-82104566D01*
X141258333Y-82104566D02*
X141291666Y-82037900D01*
X141291666Y-82037900D02*
X141291666Y-81971233D01*
X141291666Y-81971233D02*
X141258333Y-81904566D01*
X141258333Y-81904566D02*
X141224999Y-81871233D01*
X141224999Y-81871233D02*
X141158333Y-81837900D01*
X141158333Y-81837900D02*
X141024999Y-81804566D01*
X141024999Y-81804566D02*
X140958333Y-81771233D01*
X140958333Y-81771233D02*
X140924999Y-81737900D01*
X140924999Y-81737900D02*
X140891666Y-81671233D01*
X140891666Y-81671233D02*
X140891666Y-81604566D01*
X140891666Y-81604566D02*
X140924999Y-81537900D01*
X140924999Y-81537900D02*
X140958333Y-81504566D01*
X140958333Y-81504566D02*
X141024999Y-81471233D01*
X141024999Y-81471233D02*
X141191666Y-81471233D01*
X141191666Y-81471233D02*
X141291666Y-81504566D01*
X141958333Y-82171233D02*
X141558333Y-82171233D01*
X141758333Y-82171233D02*
X141758333Y-81471233D01*
X141758333Y-81471233D02*
X141691666Y-81571233D01*
X141691666Y-81571233D02*
X141625000Y-81637900D01*
X141625000Y-81637900D02*
X141558333Y-81671233D01*
X131116666Y-81779566D02*
X131350000Y-81779566D01*
X131450000Y-82146233D02*
X131116666Y-82146233D01*
X131116666Y-82146233D02*
X131116666Y-81446233D01*
X131116666Y-81446233D02*
X131450000Y-81446233D01*
X132116666Y-81479566D02*
X132049999Y-81446233D01*
X132049999Y-81446233D02*
X131949999Y-81446233D01*
X131949999Y-81446233D02*
X131849999Y-81479566D01*
X131849999Y-81479566D02*
X131783333Y-81546233D01*
X131783333Y-81546233D02*
X131749999Y-81612900D01*
X131749999Y-81612900D02*
X131716666Y-81746233D01*
X131716666Y-81746233D02*
X131716666Y-81846233D01*
X131716666Y-81846233D02*
X131749999Y-81979566D01*
X131749999Y-81979566D02*
X131783333Y-82046233D01*
X131783333Y-82046233D02*
X131849999Y-82112900D01*
X131849999Y-82112900D02*
X131949999Y-82146233D01*
X131949999Y-82146233D02*
X132016666Y-82146233D01*
X132016666Y-82146233D02*
X132116666Y-82112900D01*
X132116666Y-82112900D02*
X132149999Y-82079566D01*
X132149999Y-82079566D02*
X132149999Y-81846233D01*
X132149999Y-81846233D02*
X132016666Y-81846233D01*
X132816666Y-82146233D02*
X132416666Y-82146233D01*
X132616666Y-82146233D02*
X132616666Y-81446233D01*
X132616666Y-81446233D02*
X132549999Y-81546233D01*
X132549999Y-81546233D02*
X132483333Y-81612900D01*
X132483333Y-81612900D02*
X132416666Y-81646233D01*
X133083333Y-81512900D02*
X133116666Y-81479566D01*
X133116666Y-81479566D02*
X133183333Y-81446233D01*
X133183333Y-81446233D02*
X133350000Y-81446233D01*
X133350000Y-81446233D02*
X133416666Y-81479566D01*
X133416666Y-81479566D02*
X133450000Y-81512900D01*
X133450000Y-81512900D02*
X133483333Y-81579566D01*
X133483333Y-81579566D02*
X133483333Y-81646233D01*
X133483333Y-81646233D02*
X133450000Y-81746233D01*
X133450000Y-81746233D02*
X133050000Y-82146233D01*
X133050000Y-82146233D02*
X133483333Y-82146233D01*
X134150000Y-82146233D02*
X133750000Y-82146233D01*
X133950000Y-82146233D02*
X133950000Y-81446233D01*
X133950000Y-81446233D02*
X133883333Y-81546233D01*
X133883333Y-81546233D02*
X133816667Y-81612900D01*
X133816667Y-81612900D02*
X133750000Y-81646233D01*
X134550000Y-81746233D02*
X134483334Y-81712900D01*
X134483334Y-81712900D02*
X134450000Y-81679566D01*
X134450000Y-81679566D02*
X134416667Y-81612900D01*
X134416667Y-81612900D02*
X134416667Y-81579566D01*
X134416667Y-81579566D02*
X134450000Y-81512900D01*
X134450000Y-81512900D02*
X134483334Y-81479566D01*
X134483334Y-81479566D02*
X134550000Y-81446233D01*
X134550000Y-81446233D02*
X134683334Y-81446233D01*
X134683334Y-81446233D02*
X134750000Y-81479566D01*
X134750000Y-81479566D02*
X134783334Y-81512900D01*
X134783334Y-81512900D02*
X134816667Y-81579566D01*
X134816667Y-81579566D02*
X134816667Y-81612900D01*
X134816667Y-81612900D02*
X134783334Y-81679566D01*
X134783334Y-81679566D02*
X134750000Y-81712900D01*
X134750000Y-81712900D02*
X134683334Y-81746233D01*
X134683334Y-81746233D02*
X134550000Y-81746233D01*
X134550000Y-81746233D02*
X134483334Y-81779566D01*
X134483334Y-81779566D02*
X134450000Y-81812900D01*
X134450000Y-81812900D02*
X134416667Y-81879566D01*
X134416667Y-81879566D02*
X134416667Y-82012900D01*
X134416667Y-82012900D02*
X134450000Y-82079566D01*
X134450000Y-82079566D02*
X134483334Y-82112900D01*
X134483334Y-82112900D02*
X134550000Y-82146233D01*
X134550000Y-82146233D02*
X134683334Y-82146233D01*
X134683334Y-82146233D02*
X134750000Y-82112900D01*
X134750000Y-82112900D02*
X134783334Y-82079566D01*
X134783334Y-82079566D02*
X134816667Y-82012900D01*
X134816667Y-82012900D02*
X134816667Y-81879566D01*
X134816667Y-81879566D02*
X134783334Y-81812900D01*
X134783334Y-81812900D02*
X134750000Y-81779566D01*
X134750000Y-81779566D02*
X134683334Y-81746233D01*
%TO.C,R3*%
X141758333Y-105046233D02*
X141525000Y-104712900D01*
X141358333Y-105046233D02*
X141358333Y-104346233D01*
X141358333Y-104346233D02*
X141625000Y-104346233D01*
X141625000Y-104346233D02*
X141691667Y-104379566D01*
X141691667Y-104379566D02*
X141725000Y-104412900D01*
X141725000Y-104412900D02*
X141758333Y-104479566D01*
X141758333Y-104479566D02*
X141758333Y-104579566D01*
X141758333Y-104579566D02*
X141725000Y-104646233D01*
X141725000Y-104646233D02*
X141691667Y-104679566D01*
X141691667Y-104679566D02*
X141625000Y-104712900D01*
X141625000Y-104712900D02*
X141358333Y-104712900D01*
X141991667Y-104346233D02*
X142425000Y-104346233D01*
X142425000Y-104346233D02*
X142191667Y-104612900D01*
X142191667Y-104612900D02*
X142291667Y-104612900D01*
X142291667Y-104612900D02*
X142358333Y-104646233D01*
X142358333Y-104646233D02*
X142391667Y-104679566D01*
X142391667Y-104679566D02*
X142425000Y-104746233D01*
X142425000Y-104746233D02*
X142425000Y-104912900D01*
X142425000Y-104912900D02*
X142391667Y-104979566D01*
X142391667Y-104979566D02*
X142358333Y-105012900D01*
X142358333Y-105012900D02*
X142291667Y-105046233D01*
X142291667Y-105046233D02*
X142091667Y-105046233D01*
X142091667Y-105046233D02*
X142025000Y-105012900D01*
X142025000Y-105012900D02*
X141991667Y-104979566D01*
X133900000Y-104296233D02*
X133566666Y-104296233D01*
X133566666Y-104296233D02*
X133533333Y-104629566D01*
X133533333Y-104629566D02*
X133566666Y-104596233D01*
X133566666Y-104596233D02*
X133633333Y-104562900D01*
X133633333Y-104562900D02*
X133800000Y-104562900D01*
X133800000Y-104562900D02*
X133866666Y-104596233D01*
X133866666Y-104596233D02*
X133900000Y-104629566D01*
X133900000Y-104629566D02*
X133933333Y-104696233D01*
X133933333Y-104696233D02*
X133933333Y-104862900D01*
X133933333Y-104862900D02*
X133900000Y-104929566D01*
X133900000Y-104929566D02*
X133866666Y-104962900D01*
X133866666Y-104962900D02*
X133800000Y-104996233D01*
X133800000Y-104996233D02*
X133633333Y-104996233D01*
X133633333Y-104996233D02*
X133566666Y-104962900D01*
X133566666Y-104962900D02*
X133533333Y-104929566D01*
X134533333Y-104296233D02*
X134400000Y-104296233D01*
X134400000Y-104296233D02*
X134333333Y-104329566D01*
X134333333Y-104329566D02*
X134300000Y-104362900D01*
X134300000Y-104362900D02*
X134233333Y-104462900D01*
X134233333Y-104462900D02*
X134200000Y-104596233D01*
X134200000Y-104596233D02*
X134200000Y-104862900D01*
X134200000Y-104862900D02*
X134233333Y-104929566D01*
X134233333Y-104929566D02*
X134266667Y-104962900D01*
X134266667Y-104962900D02*
X134333333Y-104996233D01*
X134333333Y-104996233D02*
X134466667Y-104996233D01*
X134466667Y-104996233D02*
X134533333Y-104962900D01*
X134533333Y-104962900D02*
X134566667Y-104929566D01*
X134566667Y-104929566D02*
X134600000Y-104862900D01*
X134600000Y-104862900D02*
X134600000Y-104696233D01*
X134600000Y-104696233D02*
X134566667Y-104629566D01*
X134566667Y-104629566D02*
X134533333Y-104596233D01*
X134533333Y-104596233D02*
X134466667Y-104562900D01*
X134466667Y-104562900D02*
X134333333Y-104562900D01*
X134333333Y-104562900D02*
X134266667Y-104596233D01*
X134266667Y-104596233D02*
X134233333Y-104629566D01*
X134233333Y-104629566D02*
X134200000Y-104696233D01*
X135033334Y-104296233D02*
X135100000Y-104296233D01*
X135100000Y-104296233D02*
X135166667Y-104329566D01*
X135166667Y-104329566D02*
X135200000Y-104362900D01*
X135200000Y-104362900D02*
X135233334Y-104429566D01*
X135233334Y-104429566D02*
X135266667Y-104562900D01*
X135266667Y-104562900D02*
X135266667Y-104729566D01*
X135266667Y-104729566D02*
X135233334Y-104862900D01*
X135233334Y-104862900D02*
X135200000Y-104929566D01*
X135200000Y-104929566D02*
X135166667Y-104962900D01*
X135166667Y-104962900D02*
X135100000Y-104996233D01*
X135100000Y-104996233D02*
X135033334Y-104996233D01*
X135033334Y-104996233D02*
X134966667Y-104962900D01*
X134966667Y-104962900D02*
X134933334Y-104929566D01*
X134933334Y-104929566D02*
X134900000Y-104862900D01*
X134900000Y-104862900D02*
X134866667Y-104729566D01*
X134866667Y-104729566D02*
X134866667Y-104562900D01*
X134866667Y-104562900D02*
X134900000Y-104429566D01*
X134900000Y-104429566D02*
X134933334Y-104362900D01*
X134933334Y-104362900D02*
X134966667Y-104329566D01*
X134966667Y-104329566D02*
X135033334Y-104296233D01*
%TO.C,R2*%
X141683333Y-111471233D02*
X141450000Y-111137900D01*
X141283333Y-111471233D02*
X141283333Y-110771233D01*
X141283333Y-110771233D02*
X141550000Y-110771233D01*
X141550000Y-110771233D02*
X141616667Y-110804566D01*
X141616667Y-110804566D02*
X141650000Y-110837900D01*
X141650000Y-110837900D02*
X141683333Y-110904566D01*
X141683333Y-110904566D02*
X141683333Y-111004566D01*
X141683333Y-111004566D02*
X141650000Y-111071233D01*
X141650000Y-111071233D02*
X141616667Y-111104566D01*
X141616667Y-111104566D02*
X141550000Y-111137900D01*
X141550000Y-111137900D02*
X141283333Y-111137900D01*
X141950000Y-110837900D02*
X141983333Y-110804566D01*
X141983333Y-110804566D02*
X142050000Y-110771233D01*
X142050000Y-110771233D02*
X142216667Y-110771233D01*
X142216667Y-110771233D02*
X142283333Y-110804566D01*
X142283333Y-110804566D02*
X142316667Y-110837900D01*
X142316667Y-110837900D02*
X142350000Y-110904566D01*
X142350000Y-110904566D02*
X142350000Y-110971233D01*
X142350000Y-110971233D02*
X142316667Y-111071233D01*
X142316667Y-111071233D02*
X141916667Y-111471233D01*
X141916667Y-111471233D02*
X142350000Y-111471233D01*
X134375000Y-110821233D02*
X134808333Y-110821233D01*
X134808333Y-110821233D02*
X134575000Y-111087900D01*
X134575000Y-111087900D02*
X134675000Y-111087900D01*
X134675000Y-111087900D02*
X134741666Y-111121233D01*
X134741666Y-111121233D02*
X134775000Y-111154566D01*
X134775000Y-111154566D02*
X134808333Y-111221233D01*
X134808333Y-111221233D02*
X134808333Y-111387900D01*
X134808333Y-111387900D02*
X134775000Y-111454566D01*
X134775000Y-111454566D02*
X134741666Y-111487900D01*
X134741666Y-111487900D02*
X134675000Y-111521233D01*
X134675000Y-111521233D02*
X134475000Y-111521233D01*
X134475000Y-111521233D02*
X134408333Y-111487900D01*
X134408333Y-111487900D02*
X134375000Y-111454566D01*
X135041667Y-110821233D02*
X135475000Y-110821233D01*
X135475000Y-110821233D02*
X135241667Y-111087900D01*
X135241667Y-111087900D02*
X135341667Y-111087900D01*
X135341667Y-111087900D02*
X135408333Y-111121233D01*
X135408333Y-111121233D02*
X135441667Y-111154566D01*
X135441667Y-111154566D02*
X135475000Y-111221233D01*
X135475000Y-111221233D02*
X135475000Y-111387900D01*
X135475000Y-111387900D02*
X135441667Y-111454566D01*
X135441667Y-111454566D02*
X135408333Y-111487900D01*
X135408333Y-111487900D02*
X135341667Y-111521233D01*
X135341667Y-111521233D02*
X135141667Y-111521233D01*
X135141667Y-111521233D02*
X135075000Y-111487900D01*
X135075000Y-111487900D02*
X135041667Y-111454566D01*
X135908334Y-110821233D02*
X135975000Y-110821233D01*
X135975000Y-110821233D02*
X136041667Y-110854566D01*
X136041667Y-110854566D02*
X136075000Y-110887900D01*
X136075000Y-110887900D02*
X136108334Y-110954566D01*
X136108334Y-110954566D02*
X136141667Y-111087900D01*
X136141667Y-111087900D02*
X136141667Y-111254566D01*
X136141667Y-111254566D02*
X136108334Y-111387900D01*
X136108334Y-111387900D02*
X136075000Y-111454566D01*
X136075000Y-111454566D02*
X136041667Y-111487900D01*
X136041667Y-111487900D02*
X135975000Y-111521233D01*
X135975000Y-111521233D02*
X135908334Y-111521233D01*
X135908334Y-111521233D02*
X135841667Y-111487900D01*
X135841667Y-111487900D02*
X135808334Y-111454566D01*
X135808334Y-111454566D02*
X135775000Y-111387900D01*
X135775000Y-111387900D02*
X135741667Y-111254566D01*
X135741667Y-111254566D02*
X135741667Y-111087900D01*
X135741667Y-111087900D02*
X135775000Y-110954566D01*
X135775000Y-110954566D02*
X135808334Y-110887900D01*
X135808334Y-110887900D02*
X135841667Y-110854566D01*
X135841667Y-110854566D02*
X135908334Y-110821233D01*
%TO.C,R1*%
X140658333Y-91921233D02*
X140425000Y-91587900D01*
X140258333Y-91921233D02*
X140258333Y-91221233D01*
X140258333Y-91221233D02*
X140525000Y-91221233D01*
X140525000Y-91221233D02*
X140591667Y-91254566D01*
X140591667Y-91254566D02*
X140625000Y-91287900D01*
X140625000Y-91287900D02*
X140658333Y-91354566D01*
X140658333Y-91354566D02*
X140658333Y-91454566D01*
X140658333Y-91454566D02*
X140625000Y-91521233D01*
X140625000Y-91521233D02*
X140591667Y-91554566D01*
X140591667Y-91554566D02*
X140525000Y-91587900D01*
X140525000Y-91587900D02*
X140258333Y-91587900D01*
X141325000Y-91921233D02*
X140925000Y-91921233D01*
X141125000Y-91921233D02*
X141125000Y-91221233D01*
X141125000Y-91221233D02*
X141058333Y-91321233D01*
X141058333Y-91321233D02*
X140991667Y-91387900D01*
X140991667Y-91387900D02*
X140925000Y-91421233D01*
X131975000Y-91221233D02*
X132408333Y-91221233D01*
X132408333Y-91221233D02*
X132175000Y-91487900D01*
X132175000Y-91487900D02*
X132275000Y-91487900D01*
X132275000Y-91487900D02*
X132341666Y-91521233D01*
X132341666Y-91521233D02*
X132375000Y-91554566D01*
X132375000Y-91554566D02*
X132408333Y-91621233D01*
X132408333Y-91621233D02*
X132408333Y-91787900D01*
X132408333Y-91787900D02*
X132375000Y-91854566D01*
X132375000Y-91854566D02*
X132341666Y-91887900D01*
X132341666Y-91887900D02*
X132275000Y-91921233D01*
X132275000Y-91921233D02*
X132075000Y-91921233D01*
X132075000Y-91921233D02*
X132008333Y-91887900D01*
X132008333Y-91887900D02*
X131975000Y-91854566D01*
X132641667Y-91221233D02*
X133075000Y-91221233D01*
X133075000Y-91221233D02*
X132841667Y-91487900D01*
X132841667Y-91487900D02*
X132941667Y-91487900D01*
X132941667Y-91487900D02*
X133008333Y-91521233D01*
X133008333Y-91521233D02*
X133041667Y-91554566D01*
X133041667Y-91554566D02*
X133075000Y-91621233D01*
X133075000Y-91621233D02*
X133075000Y-91787900D01*
X133075000Y-91787900D02*
X133041667Y-91854566D01*
X133041667Y-91854566D02*
X133008333Y-91887900D01*
X133008333Y-91887900D02*
X132941667Y-91921233D01*
X132941667Y-91921233D02*
X132741667Y-91921233D01*
X132741667Y-91921233D02*
X132675000Y-91887900D01*
X132675000Y-91887900D02*
X132641667Y-91854566D01*
X133508334Y-91221233D02*
X133575000Y-91221233D01*
X133575000Y-91221233D02*
X133641667Y-91254566D01*
X133641667Y-91254566D02*
X133675000Y-91287900D01*
X133675000Y-91287900D02*
X133708334Y-91354566D01*
X133708334Y-91354566D02*
X133741667Y-91487900D01*
X133741667Y-91487900D02*
X133741667Y-91654566D01*
X133741667Y-91654566D02*
X133708334Y-91787900D01*
X133708334Y-91787900D02*
X133675000Y-91854566D01*
X133675000Y-91854566D02*
X133641667Y-91887900D01*
X133641667Y-91887900D02*
X133575000Y-91921233D01*
X133575000Y-91921233D02*
X133508334Y-91921233D01*
X133508334Y-91921233D02*
X133441667Y-91887900D01*
X133441667Y-91887900D02*
X133408334Y-91854566D01*
X133408334Y-91854566D02*
X133375000Y-91787900D01*
X133375000Y-91787900D02*
X133341667Y-91654566D01*
X133341667Y-91654566D02*
X133341667Y-91487900D01*
X133341667Y-91487900D02*
X133375000Y-91354566D01*
X133375000Y-91354566D02*
X133408334Y-91287900D01*
X133408334Y-91287900D02*
X133441667Y-91254566D01*
X133441667Y-91254566D02*
X133508334Y-91221233D01*
%TO.C,J7*%
X144216666Y-75821233D02*
X144216666Y-76321233D01*
X144216666Y-76321233D02*
X144183333Y-76421233D01*
X144183333Y-76421233D02*
X144116666Y-76487900D01*
X144116666Y-76487900D02*
X144016666Y-76521233D01*
X144016666Y-76521233D02*
X143950000Y-76521233D01*
X144483333Y-75821233D02*
X144949999Y-75821233D01*
X144949999Y-75821233D02*
X144649999Y-76521233D01*
%TO.C,J6*%
X120991666Y-72271233D02*
X120991666Y-72771233D01*
X120991666Y-72771233D02*
X120958333Y-72871233D01*
X120958333Y-72871233D02*
X120891666Y-72937900D01*
X120891666Y-72937900D02*
X120791666Y-72971233D01*
X120791666Y-72971233D02*
X120725000Y-72971233D01*
X121624999Y-72271233D02*
X121491666Y-72271233D01*
X121491666Y-72271233D02*
X121424999Y-72304566D01*
X121424999Y-72304566D02*
X121391666Y-72337900D01*
X121391666Y-72337900D02*
X121324999Y-72437900D01*
X121324999Y-72437900D02*
X121291666Y-72571233D01*
X121291666Y-72571233D02*
X121291666Y-72837900D01*
X121291666Y-72837900D02*
X121324999Y-72904566D01*
X121324999Y-72904566D02*
X121358333Y-72937900D01*
X121358333Y-72937900D02*
X121424999Y-72971233D01*
X121424999Y-72971233D02*
X121558333Y-72971233D01*
X121558333Y-72971233D02*
X121624999Y-72937900D01*
X121624999Y-72937900D02*
X121658333Y-72904566D01*
X121658333Y-72904566D02*
X121691666Y-72837900D01*
X121691666Y-72837900D02*
X121691666Y-72671233D01*
X121691666Y-72671233D02*
X121658333Y-72604566D01*
X121658333Y-72604566D02*
X121624999Y-72571233D01*
X121624999Y-72571233D02*
X121558333Y-72537900D01*
X121558333Y-72537900D02*
X121424999Y-72537900D01*
X121424999Y-72537900D02*
X121358333Y-72571233D01*
X121358333Y-72571233D02*
X121324999Y-72604566D01*
X121324999Y-72604566D02*
X121291666Y-72671233D01*
%TO.C,J5*%
X144066666Y-121396233D02*
X144066666Y-121896233D01*
X144066666Y-121896233D02*
X144033333Y-121996233D01*
X144033333Y-121996233D02*
X143966666Y-122062900D01*
X143966666Y-122062900D02*
X143866666Y-122096233D01*
X143866666Y-122096233D02*
X143800000Y-122096233D01*
X144733333Y-121396233D02*
X144399999Y-121396233D01*
X144399999Y-121396233D02*
X144366666Y-121729566D01*
X144366666Y-121729566D02*
X144399999Y-121696233D01*
X144399999Y-121696233D02*
X144466666Y-121662900D01*
X144466666Y-121662900D02*
X144633333Y-121662900D01*
X144633333Y-121662900D02*
X144699999Y-121696233D01*
X144699999Y-121696233D02*
X144733333Y-121729566D01*
X144733333Y-121729566D02*
X144766666Y-121796233D01*
X144766666Y-121796233D02*
X144766666Y-121962900D01*
X144766666Y-121962900D02*
X144733333Y-122029566D01*
X144733333Y-122029566D02*
X144699999Y-122062900D01*
X144699999Y-122062900D02*
X144633333Y-122096233D01*
X144633333Y-122096233D02*
X144466666Y-122096233D01*
X144466666Y-122096233D02*
X144399999Y-122062900D01*
X144399999Y-122062900D02*
X144366666Y-122029566D01*
%TO.C,J4*%
X120735233Y-121137333D02*
X121235233Y-121137333D01*
X121235233Y-121137333D02*
X121335233Y-121170666D01*
X121335233Y-121170666D02*
X121401900Y-121237333D01*
X121401900Y-121237333D02*
X121435233Y-121337333D01*
X121435233Y-121337333D02*
X121435233Y-121404000D01*
X120968566Y-120504000D02*
X121435233Y-120504000D01*
X120701900Y-120670667D02*
X121201900Y-120837333D01*
X121201900Y-120837333D02*
X121201900Y-120404000D01*
%TO.C,J3*%
X131166666Y-77121233D02*
X131166666Y-77621233D01*
X131166666Y-77621233D02*
X131133333Y-77721233D01*
X131133333Y-77721233D02*
X131066666Y-77787900D01*
X131066666Y-77787900D02*
X130966666Y-77821233D01*
X130966666Y-77821233D02*
X130900000Y-77821233D01*
X131433333Y-77121233D02*
X131866666Y-77121233D01*
X131866666Y-77121233D02*
X131633333Y-77387900D01*
X131633333Y-77387900D02*
X131733333Y-77387900D01*
X131733333Y-77387900D02*
X131799999Y-77421233D01*
X131799999Y-77421233D02*
X131833333Y-77454566D01*
X131833333Y-77454566D02*
X131866666Y-77521233D01*
X131866666Y-77521233D02*
X131866666Y-77687900D01*
X131866666Y-77687900D02*
X131833333Y-77754566D01*
X131833333Y-77754566D02*
X131799999Y-77787900D01*
X131799999Y-77787900D02*
X131733333Y-77821233D01*
X131733333Y-77821233D02*
X131533333Y-77821233D01*
X131533333Y-77821233D02*
X131466666Y-77787900D01*
X131466666Y-77787900D02*
X131433333Y-77754566D01*
%TO.C,J2*%
X141216666Y-113046233D02*
X141216666Y-113546233D01*
X141216666Y-113546233D02*
X141183333Y-113646233D01*
X141183333Y-113646233D02*
X141116666Y-113712900D01*
X141116666Y-113712900D02*
X141016666Y-113746233D01*
X141016666Y-113746233D02*
X140950000Y-113746233D01*
X141516666Y-113112900D02*
X141549999Y-113079566D01*
X141549999Y-113079566D02*
X141616666Y-113046233D01*
X141616666Y-113046233D02*
X141783333Y-113046233D01*
X141783333Y-113046233D02*
X141849999Y-113079566D01*
X141849999Y-113079566D02*
X141883333Y-113112900D01*
X141883333Y-113112900D02*
X141916666Y-113179566D01*
X141916666Y-113179566D02*
X141916666Y-113246233D01*
X141916666Y-113246233D02*
X141883333Y-113346233D01*
X141883333Y-113346233D02*
X141483333Y-113746233D01*
X141483333Y-113746233D02*
X141916666Y-113746233D01*
D10*
%TO.C,J1*%
X124724666Y-102232819D02*
X124724666Y-102947104D01*
X124724666Y-102947104D02*
X124677047Y-103089961D01*
X124677047Y-103089961D02*
X124581809Y-103185200D01*
X124581809Y-103185200D02*
X124438952Y-103232819D01*
X124438952Y-103232819D02*
X124343714Y-103232819D01*
X125724666Y-103232819D02*
X125153238Y-103232819D01*
X125438952Y-103232819D02*
X125438952Y-102232819D01*
X125438952Y-102232819D02*
X125343714Y-102375676D01*
X125343714Y-102375676D02*
X125248476Y-102470914D01*
X125248476Y-102470914D02*
X125153238Y-102518533D01*
D11*
X120058335Y-91629566D02*
X120158335Y-91662900D01*
X120158335Y-91662900D02*
X120191668Y-91696233D01*
X120191668Y-91696233D02*
X120225001Y-91762900D01*
X120225001Y-91762900D02*
X120225001Y-91862900D01*
X120225001Y-91862900D02*
X120191668Y-91929566D01*
X120191668Y-91929566D02*
X120158335Y-91962900D01*
X120158335Y-91962900D02*
X120091668Y-91996233D01*
X120091668Y-91996233D02*
X119825001Y-91996233D01*
X119825001Y-91996233D02*
X119825001Y-91296233D01*
X119825001Y-91296233D02*
X120058335Y-91296233D01*
X120058335Y-91296233D02*
X120125001Y-91329566D01*
X120125001Y-91329566D02*
X120158335Y-91362900D01*
X120158335Y-91362900D02*
X120191668Y-91429566D01*
X120191668Y-91429566D02*
X120191668Y-91496233D01*
X120191668Y-91496233D02*
X120158335Y-91562900D01*
X120158335Y-91562900D02*
X120125001Y-91596233D01*
X120125001Y-91596233D02*
X120058335Y-91629566D01*
X120058335Y-91629566D02*
X119825001Y-91629566D01*
X120825001Y-91996233D02*
X120825001Y-91629566D01*
X120825001Y-91629566D02*
X120791668Y-91562900D01*
X120791668Y-91562900D02*
X120725001Y-91529566D01*
X120725001Y-91529566D02*
X120591668Y-91529566D01*
X120591668Y-91529566D02*
X120525001Y-91562900D01*
X120825001Y-91962900D02*
X120758335Y-91996233D01*
X120758335Y-91996233D02*
X120591668Y-91996233D01*
X120591668Y-91996233D02*
X120525001Y-91962900D01*
X120525001Y-91962900D02*
X120491668Y-91896233D01*
X120491668Y-91896233D02*
X120491668Y-91829566D01*
X120491668Y-91829566D02*
X120525001Y-91762900D01*
X120525001Y-91762900D02*
X120591668Y-91729566D01*
X120591668Y-91729566D02*
X120758335Y-91729566D01*
X120758335Y-91729566D02*
X120825001Y-91696233D01*
X121158334Y-91996233D02*
X121158334Y-91529566D01*
X121158334Y-91662900D02*
X121191668Y-91596233D01*
X121191668Y-91596233D02*
X121225001Y-91562900D01*
X121225001Y-91562900D02*
X121291668Y-91529566D01*
X121291668Y-91529566D02*
X121358334Y-91529566D01*
X121591667Y-91996233D02*
X121591667Y-91529566D01*
X121591667Y-91662900D02*
X121625001Y-91596233D01*
X121625001Y-91596233D02*
X121658334Y-91562900D01*
X121658334Y-91562900D02*
X121725001Y-91529566D01*
X121725001Y-91529566D02*
X121791667Y-91529566D01*
X122291667Y-91962900D02*
X122225000Y-91996233D01*
X122225000Y-91996233D02*
X122091667Y-91996233D01*
X122091667Y-91996233D02*
X122025000Y-91962900D01*
X122025000Y-91962900D02*
X121991667Y-91896233D01*
X121991667Y-91896233D02*
X121991667Y-91629566D01*
X121991667Y-91629566D02*
X122025000Y-91562900D01*
X122025000Y-91562900D02*
X122091667Y-91529566D01*
X122091667Y-91529566D02*
X122225000Y-91529566D01*
X122225000Y-91529566D02*
X122291667Y-91562900D01*
X122291667Y-91562900D02*
X122325000Y-91629566D01*
X122325000Y-91629566D02*
X122325000Y-91696233D01*
X122325000Y-91696233D02*
X121991667Y-91762900D01*
X122725000Y-91996233D02*
X122658334Y-91962900D01*
X122658334Y-91962900D02*
X122625000Y-91896233D01*
X122625000Y-91896233D02*
X122625000Y-91296233D01*
X122825001Y-92062900D02*
X123358334Y-92062900D01*
X123725000Y-91296233D02*
X123725000Y-91796233D01*
X123725000Y-91796233D02*
X123691667Y-91896233D01*
X123691667Y-91896233D02*
X123625000Y-91962900D01*
X123625000Y-91962900D02*
X123525000Y-91996233D01*
X123525000Y-91996233D02*
X123458334Y-91996233D01*
X124358333Y-91996233D02*
X124358333Y-91629566D01*
X124358333Y-91629566D02*
X124325000Y-91562900D01*
X124325000Y-91562900D02*
X124258333Y-91529566D01*
X124258333Y-91529566D02*
X124125000Y-91529566D01*
X124125000Y-91529566D02*
X124058333Y-91562900D01*
X124358333Y-91962900D02*
X124291667Y-91996233D01*
X124291667Y-91996233D02*
X124125000Y-91996233D01*
X124125000Y-91996233D02*
X124058333Y-91962900D01*
X124058333Y-91962900D02*
X124025000Y-91896233D01*
X124025000Y-91896233D02*
X124025000Y-91829566D01*
X124025000Y-91829566D02*
X124058333Y-91762900D01*
X124058333Y-91762900D02*
X124125000Y-91729566D01*
X124125000Y-91729566D02*
X124291667Y-91729566D01*
X124291667Y-91729566D02*
X124358333Y-91696233D01*
X124991666Y-91962900D02*
X124925000Y-91996233D01*
X124925000Y-91996233D02*
X124791666Y-91996233D01*
X124791666Y-91996233D02*
X124725000Y-91962900D01*
X124725000Y-91962900D02*
X124691666Y-91929566D01*
X124691666Y-91929566D02*
X124658333Y-91862900D01*
X124658333Y-91862900D02*
X124658333Y-91662900D01*
X124658333Y-91662900D02*
X124691666Y-91596233D01*
X124691666Y-91596233D02*
X124725000Y-91562900D01*
X124725000Y-91562900D02*
X124791666Y-91529566D01*
X124791666Y-91529566D02*
X124925000Y-91529566D01*
X124925000Y-91529566D02*
X124991666Y-91562900D01*
X125291666Y-91996233D02*
X125291666Y-91296233D01*
X125358333Y-91729566D02*
X125558333Y-91996233D01*
X125558333Y-91529566D02*
X125291666Y-91796233D01*
X125691667Y-92062900D02*
X126225000Y-92062900D01*
X126358333Y-91962900D02*
X126458333Y-91996233D01*
X126458333Y-91996233D02*
X126625000Y-91996233D01*
X126625000Y-91996233D02*
X126691666Y-91962900D01*
X126691666Y-91962900D02*
X126725000Y-91929566D01*
X126725000Y-91929566D02*
X126758333Y-91862900D01*
X126758333Y-91862900D02*
X126758333Y-91796233D01*
X126758333Y-91796233D02*
X126725000Y-91729566D01*
X126725000Y-91729566D02*
X126691666Y-91696233D01*
X126691666Y-91696233D02*
X126625000Y-91662900D01*
X126625000Y-91662900D02*
X126491666Y-91629566D01*
X126491666Y-91629566D02*
X126425000Y-91596233D01*
X126425000Y-91596233D02*
X126391666Y-91562900D01*
X126391666Y-91562900D02*
X126358333Y-91496233D01*
X126358333Y-91496233D02*
X126358333Y-91429566D01*
X126358333Y-91429566D02*
X126391666Y-91362900D01*
X126391666Y-91362900D02*
X126425000Y-91329566D01*
X126425000Y-91329566D02*
X126491666Y-91296233D01*
X126491666Y-91296233D02*
X126658333Y-91296233D01*
X126658333Y-91296233D02*
X126758333Y-91329566D01*
X126991667Y-91529566D02*
X127125000Y-91996233D01*
X127125000Y-91996233D02*
X127258333Y-91662900D01*
X127258333Y-91662900D02*
X127391667Y-91996233D01*
X127391667Y-91996233D02*
X127525000Y-91529566D01*
X127791666Y-91996233D02*
X127791666Y-91529566D01*
X127791666Y-91296233D02*
X127758333Y-91329566D01*
X127758333Y-91329566D02*
X127791666Y-91362900D01*
X127791666Y-91362900D02*
X127825000Y-91329566D01*
X127825000Y-91329566D02*
X127791666Y-91296233D01*
X127791666Y-91296233D02*
X127791666Y-91362900D01*
X128024999Y-91529566D02*
X128291666Y-91529566D01*
X128124999Y-91296233D02*
X128124999Y-91896233D01*
X128124999Y-91896233D02*
X128158333Y-91962900D01*
X128158333Y-91962900D02*
X128224999Y-91996233D01*
X128224999Y-91996233D02*
X128291666Y-91996233D01*
X128824999Y-91962900D02*
X128758333Y-91996233D01*
X128758333Y-91996233D02*
X128624999Y-91996233D01*
X128624999Y-91996233D02*
X128558333Y-91962900D01*
X128558333Y-91962900D02*
X128524999Y-91929566D01*
X128524999Y-91929566D02*
X128491666Y-91862900D01*
X128491666Y-91862900D02*
X128491666Y-91662900D01*
X128491666Y-91662900D02*
X128524999Y-91596233D01*
X128524999Y-91596233D02*
X128558333Y-91562900D01*
X128558333Y-91562900D02*
X128624999Y-91529566D01*
X128624999Y-91529566D02*
X128758333Y-91529566D01*
X128758333Y-91529566D02*
X128824999Y-91562900D01*
X129124999Y-91996233D02*
X129124999Y-91296233D01*
X129424999Y-91996233D02*
X129424999Y-91629566D01*
X129424999Y-91629566D02*
X129391666Y-91562900D01*
X129391666Y-91562900D02*
X129324999Y-91529566D01*
X129324999Y-91529566D02*
X129224999Y-91529566D01*
X129224999Y-91529566D02*
X129158333Y-91562900D01*
X129158333Y-91562900D02*
X129124999Y-91596233D01*
%TO.C,D1*%
X138633333Y-93971233D02*
X138633333Y-93271233D01*
X138633333Y-93271233D02*
X138800000Y-93271233D01*
X138800000Y-93271233D02*
X138900000Y-93304566D01*
X138900000Y-93304566D02*
X138966667Y-93371233D01*
X138966667Y-93371233D02*
X139000000Y-93437900D01*
X139000000Y-93437900D02*
X139033333Y-93571233D01*
X139033333Y-93571233D02*
X139033333Y-93671233D01*
X139033333Y-93671233D02*
X139000000Y-93804566D01*
X139000000Y-93804566D02*
X138966667Y-93871233D01*
X138966667Y-93871233D02*
X138900000Y-93937900D01*
X138900000Y-93937900D02*
X138800000Y-93971233D01*
X138800000Y-93971233D02*
X138633333Y-93971233D01*
X139700000Y-93971233D02*
X139300000Y-93971233D01*
X139500000Y-93971233D02*
X139500000Y-93271233D01*
X139500000Y-93271233D02*
X139433333Y-93371233D01*
X139433333Y-93371233D02*
X139366667Y-93437900D01*
X139366667Y-93437900D02*
X139300000Y-93471233D01*
%TO.C,C3*%
X124333333Y-80004566D02*
X124300000Y-80037900D01*
X124300000Y-80037900D02*
X124200000Y-80071233D01*
X124200000Y-80071233D02*
X124133333Y-80071233D01*
X124133333Y-80071233D02*
X124033333Y-80037900D01*
X124033333Y-80037900D02*
X123966667Y-79971233D01*
X123966667Y-79971233D02*
X123933333Y-79904566D01*
X123933333Y-79904566D02*
X123900000Y-79771233D01*
X123900000Y-79771233D02*
X123900000Y-79671233D01*
X123900000Y-79671233D02*
X123933333Y-79537900D01*
X123933333Y-79537900D02*
X123966667Y-79471233D01*
X123966667Y-79471233D02*
X124033333Y-79404566D01*
X124033333Y-79404566D02*
X124133333Y-79371233D01*
X124133333Y-79371233D02*
X124200000Y-79371233D01*
X124200000Y-79371233D02*
X124300000Y-79404566D01*
X124300000Y-79404566D02*
X124333333Y-79437900D01*
X124566667Y-79371233D02*
X125000000Y-79371233D01*
X125000000Y-79371233D02*
X124766667Y-79637900D01*
X124766667Y-79637900D02*
X124866667Y-79637900D01*
X124866667Y-79637900D02*
X124933333Y-79671233D01*
X124933333Y-79671233D02*
X124966667Y-79704566D01*
X124966667Y-79704566D02*
X125000000Y-79771233D01*
X125000000Y-79771233D02*
X125000000Y-79937900D01*
X125000000Y-79937900D02*
X124966667Y-80004566D01*
X124966667Y-80004566D02*
X124933333Y-80037900D01*
X124933333Y-80037900D02*
X124866667Y-80071233D01*
X124866667Y-80071233D02*
X124666667Y-80071233D01*
X124666667Y-80071233D02*
X124600000Y-80037900D01*
X124600000Y-80037900D02*
X124566667Y-80004566D01*
X120825000Y-79321233D02*
X120891666Y-79321233D01*
X120891666Y-79321233D02*
X120958333Y-79354566D01*
X120958333Y-79354566D02*
X120991666Y-79387900D01*
X120991666Y-79387900D02*
X121025000Y-79454566D01*
X121025000Y-79454566D02*
X121058333Y-79587900D01*
X121058333Y-79587900D02*
X121058333Y-79754566D01*
X121058333Y-79754566D02*
X121025000Y-79887900D01*
X121025000Y-79887900D02*
X120991666Y-79954566D01*
X120991666Y-79954566D02*
X120958333Y-79987900D01*
X120958333Y-79987900D02*
X120891666Y-80021233D01*
X120891666Y-80021233D02*
X120825000Y-80021233D01*
X120825000Y-80021233D02*
X120758333Y-79987900D01*
X120758333Y-79987900D02*
X120725000Y-79954566D01*
X120725000Y-79954566D02*
X120691666Y-79887900D01*
X120691666Y-79887900D02*
X120658333Y-79754566D01*
X120658333Y-79754566D02*
X120658333Y-79587900D01*
X120658333Y-79587900D02*
X120691666Y-79454566D01*
X120691666Y-79454566D02*
X120725000Y-79387900D01*
X120725000Y-79387900D02*
X120758333Y-79354566D01*
X120758333Y-79354566D02*
X120825000Y-79321233D01*
X121358333Y-79954566D02*
X121391667Y-79987900D01*
X121391667Y-79987900D02*
X121358333Y-80021233D01*
X121358333Y-80021233D02*
X121325000Y-79987900D01*
X121325000Y-79987900D02*
X121358333Y-79954566D01*
X121358333Y-79954566D02*
X121358333Y-80021233D01*
X122058333Y-80021233D02*
X121658333Y-80021233D01*
X121858333Y-80021233D02*
X121858333Y-79321233D01*
X121858333Y-79321233D02*
X121791666Y-79421233D01*
X121791666Y-79421233D02*
X121725000Y-79487900D01*
X121725000Y-79487900D02*
X121658333Y-79521233D01*
X122658333Y-79554566D02*
X122658333Y-80021233D01*
X122358333Y-79554566D02*
X122358333Y-79921233D01*
X122358333Y-79921233D02*
X122391667Y-79987900D01*
X122391667Y-79987900D02*
X122458333Y-80021233D01*
X122458333Y-80021233D02*
X122558333Y-80021233D01*
X122558333Y-80021233D02*
X122625000Y-79987900D01*
X122625000Y-79987900D02*
X122658333Y-79954566D01*
D10*
%TO.C,C2*%
X121433333Y-116334580D02*
X121385714Y-116382200D01*
X121385714Y-116382200D02*
X121242857Y-116429819D01*
X121242857Y-116429819D02*
X121147619Y-116429819D01*
X121147619Y-116429819D02*
X121004762Y-116382200D01*
X121004762Y-116382200D02*
X120909524Y-116286961D01*
X120909524Y-116286961D02*
X120861905Y-116191723D01*
X120861905Y-116191723D02*
X120814286Y-116001247D01*
X120814286Y-116001247D02*
X120814286Y-115858390D01*
X120814286Y-115858390D02*
X120861905Y-115667914D01*
X120861905Y-115667914D02*
X120909524Y-115572676D01*
X120909524Y-115572676D02*
X121004762Y-115477438D01*
X121004762Y-115477438D02*
X121147619Y-115429819D01*
X121147619Y-115429819D02*
X121242857Y-115429819D01*
X121242857Y-115429819D02*
X121385714Y-115477438D01*
X121385714Y-115477438D02*
X121433333Y-115525057D01*
X121814286Y-115525057D02*
X121861905Y-115477438D01*
X121861905Y-115477438D02*
X121957143Y-115429819D01*
X121957143Y-115429819D02*
X122195238Y-115429819D01*
X122195238Y-115429819D02*
X122290476Y-115477438D01*
X122290476Y-115477438D02*
X122338095Y-115525057D01*
X122338095Y-115525057D02*
X122385714Y-115620295D01*
X122385714Y-115620295D02*
X122385714Y-115715533D01*
X122385714Y-115715533D02*
X122338095Y-115858390D01*
X122338095Y-115858390D02*
X121766667Y-116429819D01*
X121766667Y-116429819D02*
X122385714Y-116429819D01*
X125406077Y-116354819D02*
X124834649Y-116354819D01*
X125120363Y-116354819D02*
X125120363Y-115354819D01*
X125120363Y-115354819D02*
X125025125Y-115497676D01*
X125025125Y-115497676D02*
X124929887Y-115592914D01*
X124929887Y-115592914D02*
X124834649Y-115640533D01*
X126263220Y-115688152D02*
X126263220Y-116354819D01*
X125834649Y-115688152D02*
X125834649Y-116211961D01*
X125834649Y-116211961D02*
X125882268Y-116307200D01*
X125882268Y-116307200D02*
X125977506Y-116354819D01*
X125977506Y-116354819D02*
X126120363Y-116354819D01*
X126120363Y-116354819D02*
X126215601Y-116307200D01*
X126215601Y-116307200D02*
X126263220Y-116259580D01*
D11*
%TO.C,C1*%
X129583333Y-79954566D02*
X129550000Y-79987900D01*
X129550000Y-79987900D02*
X129450000Y-80021233D01*
X129450000Y-80021233D02*
X129383333Y-80021233D01*
X129383333Y-80021233D02*
X129283333Y-79987900D01*
X129283333Y-79987900D02*
X129216667Y-79921233D01*
X129216667Y-79921233D02*
X129183333Y-79854566D01*
X129183333Y-79854566D02*
X129150000Y-79721233D01*
X129150000Y-79721233D02*
X129150000Y-79621233D01*
X129150000Y-79621233D02*
X129183333Y-79487900D01*
X129183333Y-79487900D02*
X129216667Y-79421233D01*
X129216667Y-79421233D02*
X129283333Y-79354566D01*
X129283333Y-79354566D02*
X129383333Y-79321233D01*
X129383333Y-79321233D02*
X129450000Y-79321233D01*
X129450000Y-79321233D02*
X129550000Y-79354566D01*
X129550000Y-79354566D02*
X129583333Y-79387900D01*
X130250000Y-80021233D02*
X129850000Y-80021233D01*
X130050000Y-80021233D02*
X130050000Y-79321233D01*
X130050000Y-79321233D02*
X129983333Y-79421233D01*
X129983333Y-79421233D02*
X129916667Y-79487900D01*
X129916667Y-79487900D02*
X129850000Y-79521233D01*
X126100000Y-80046233D02*
X125700000Y-80046233D01*
X125900000Y-80046233D02*
X125900000Y-79346233D01*
X125900000Y-79346233D02*
X125833333Y-79446233D01*
X125833333Y-79446233D02*
X125766667Y-79512900D01*
X125766667Y-79512900D02*
X125700000Y-79546233D01*
X126533334Y-79346233D02*
X126600000Y-79346233D01*
X126600000Y-79346233D02*
X126666667Y-79379566D01*
X126666667Y-79379566D02*
X126700000Y-79412900D01*
X126700000Y-79412900D02*
X126733334Y-79479566D01*
X126733334Y-79479566D02*
X126766667Y-79612900D01*
X126766667Y-79612900D02*
X126766667Y-79779566D01*
X126766667Y-79779566D02*
X126733334Y-79912900D01*
X126733334Y-79912900D02*
X126700000Y-79979566D01*
X126700000Y-79979566D02*
X126666667Y-80012900D01*
X126666667Y-80012900D02*
X126600000Y-80046233D01*
X126600000Y-80046233D02*
X126533334Y-80046233D01*
X126533334Y-80046233D02*
X126466667Y-80012900D01*
X126466667Y-80012900D02*
X126433334Y-79979566D01*
X126433334Y-79979566D02*
X126400000Y-79912900D01*
X126400000Y-79912900D02*
X126366667Y-79779566D01*
X126366667Y-79779566D02*
X126366667Y-79612900D01*
X126366667Y-79612900D02*
X126400000Y-79479566D01*
X126400000Y-79479566D02*
X126433334Y-79412900D01*
X126433334Y-79412900D02*
X126466667Y-79379566D01*
X126466667Y-79379566D02*
X126533334Y-79346233D01*
X127366667Y-79579566D02*
X127366667Y-80046233D01*
X127066667Y-79579566D02*
X127066667Y-79946233D01*
X127066667Y-79946233D02*
X127100001Y-80012900D01*
X127100001Y-80012900D02*
X127166667Y-80046233D01*
X127166667Y-80046233D02*
X127266667Y-80046233D01*
X127266667Y-80046233D02*
X127333334Y-80012900D01*
X127333334Y-80012900D02*
X127366667Y-79979566D01*
D12*
%TO.C,U2*%
X130088000Y-89193000D02*
X119848000Y-89193000D01*
X126818000Y-89193000D02*
X126818000Y-87683000D01*
X123117000Y-89193000D02*
X123117000Y-87683000D01*
X130088000Y-89193000D02*
X130088000Y-84552000D01*
X130088000Y-84552000D02*
X119848000Y-84552000D01*
X119848000Y-89193000D02*
X119848000Y-84552000D01*
X130088000Y-87683000D02*
X119848000Y-87683000D01*
%TO.C,U1*%
X120356000Y-105625000D02*
X130596000Y-105625000D01*
X123626000Y-105625000D02*
X123626000Y-107135000D01*
X127327000Y-105625000D02*
X127327000Y-107135000D01*
X120356000Y-105625000D02*
X120356000Y-110266000D01*
X120356000Y-110266000D02*
X130596000Y-110266000D01*
X130596000Y-105625000D02*
X130596000Y-110266000D01*
X120356000Y-107135000D02*
X130596000Y-107135000D01*
D13*
%TO.C,S1*%
X130948000Y-86682000D02*
X131448000Y-86682000D01*
X130948000Y-86682000D02*
X130948000Y-86182000D01*
X142848000Y-86682000D02*
X142848000Y-86182000D01*
X142848000Y-86682000D02*
X142348000Y-86682000D01*
X142848000Y-82482000D02*
X142848000Y-82982000D01*
X142848000Y-82482000D02*
X142348000Y-82482000D01*
X130948000Y-82482000D02*
X130948000Y-82982000D01*
X130948000Y-82482000D02*
X131448000Y-82482000D01*
D12*
%TO.C,R3*%
X140078000Y-107600000D02*
X140078000Y-105760000D01*
X140078000Y-105760000D02*
X136238000Y-105760000D01*
X136238000Y-107600000D02*
X140078000Y-107600000D01*
X141028000Y-106680000D02*
X140078000Y-106680000D01*
X136238000Y-105760000D02*
X136238000Y-107600000D01*
X135288000Y-106680000D02*
X136238000Y-106680000D01*
%TO.C,R2*%
X136238000Y-108300000D02*
X136238000Y-110140000D01*
X136238000Y-110140000D02*
X140078000Y-110140000D01*
X140078000Y-108300000D02*
X136238000Y-108300000D01*
X135288000Y-109220000D02*
X136238000Y-109220000D01*
X140078000Y-110140000D02*
X140078000Y-108300000D01*
X141028000Y-109220000D02*
X140078000Y-109220000D01*
%TO.C,R1*%
X133782000Y-89916000D02*
X134732000Y-89916000D01*
X134732000Y-88996000D02*
X134732000Y-90836000D01*
X139522000Y-89916000D02*
X138572000Y-89916000D01*
X134732000Y-90836000D02*
X138572000Y-90836000D01*
X138572000Y-88996000D02*
X134732000Y-88996000D01*
X138572000Y-90836000D02*
X138572000Y-88996000D01*
%TO.C,J7*%
X148650000Y-73914000D02*
X148650000Y-76514000D01*
X145990000Y-71314000D02*
X147320000Y-71314000D01*
X145990000Y-73914000D02*
X148650000Y-73914000D01*
X145990000Y-73914000D02*
X145990000Y-76514000D01*
X145990000Y-76514000D02*
X148650000Y-76514000D01*
X145990000Y-72644000D02*
X145990000Y-71314000D01*
%TO.C,J6*%
X130123000Y-73974000D02*
X130123000Y-71314000D01*
X124983000Y-73974000D02*
X130123000Y-73974000D01*
X123713000Y-73974000D02*
X122383000Y-73974000D01*
X124983000Y-71314000D02*
X130123000Y-71314000D01*
X122383000Y-73974000D02*
X122383000Y-72644000D01*
X124983000Y-73974000D02*
X124983000Y-71314000D01*
%TO.C,J5*%
X148650000Y-119720000D02*
X148650000Y-122320000D01*
X145990000Y-117120000D02*
X147320000Y-117120000D01*
X145990000Y-119720000D02*
X148650000Y-119720000D01*
X145990000Y-119720000D02*
X145990000Y-122320000D01*
X145990000Y-122320000D02*
X148650000Y-122320000D01*
X145990000Y-118450000D02*
X145990000Y-117120000D01*
%TO.C,J4*%
X129854000Y-122234000D02*
X129854000Y-119574000D01*
X124714000Y-122234000D02*
X129854000Y-122234000D01*
X123444000Y-122234000D02*
X122114000Y-122234000D01*
X124714000Y-119574000D02*
X129854000Y-119574000D01*
X122114000Y-122234000D02*
X122114000Y-120904000D01*
X124714000Y-122234000D02*
X124714000Y-119574000D01*
%TO.C,J3*%
X132588000Y-71120000D02*
X132588000Y-78740000D01*
X142748000Y-78740000D02*
X142748000Y-71120000D01*
X142748000Y-77470000D02*
X132588000Y-77470000D01*
X132588000Y-78740000D02*
X142748000Y-78740000D01*
X142748000Y-71120000D02*
X132588000Y-71120000D01*
%TO.C,J2*%
X132588000Y-114808000D02*
X132588000Y-122428000D01*
X142748000Y-122428000D02*
X142748000Y-114808000D01*
X142748000Y-121158000D02*
X132588000Y-121158000D01*
X132588000Y-122428000D02*
X142748000Y-122428000D01*
X142748000Y-114808000D02*
X132588000Y-114808000D01*
%TO.C,J1*%
X133558000Y-92228000D02*
X134608000Y-92228000D01*
X134608000Y-93278000D02*
X134608000Y-92228000D01*
X128508000Y-101628000D02*
X119708000Y-101628000D01*
X134408000Y-92428000D02*
X134408000Y-95028000D01*
X134408000Y-98928000D02*
X134408000Y-101628000D01*
X134408000Y-101628000D02*
X132508000Y-101628000D01*
X119708000Y-101628000D02*
X119708000Y-92428000D01*
X119708000Y-92428000D02*
X134408000Y-92428000D01*
%TO.C,D1*%
X141692000Y-97541000D02*
G75*
G03*
X141692000Y-97541000I-2500000J0D01*
G01*
X139192462Y-94551001D02*
G75*
G03*
X137647170Y-100100999I-462J-2989999D01*
G01*
X140736830Y-100101000D02*
G75*
G03*
X139191538Y-94551000I-1544830J2560000D01*
G01*
X137647000Y-100101000D02*
X140737000Y-100101000D01*
%TO.C,C3*%
X123565000Y-82200000D02*
X122307000Y-82200000D01*
X123565000Y-80360000D02*
X122307000Y-80360000D01*
%TO.C,C2*%
X123565000Y-112872000D02*
X122307000Y-112872000D01*
X123565000Y-114712000D02*
X122307000Y-114712000D01*
%TO.C,C1*%
X128625000Y-80360000D02*
X127367000Y-80360000D01*
X128625000Y-82200000D02*
X127367000Y-82200000D01*
%TD*%
M02*
