%TF.GenerationSoftware,KiCad,Pcbnew,7.0.5-0*%
%TF.CreationDate,2023-07-08T23:53:34+02:00*%
%TF.ProjectId,Breadboard Power Supply,42726561-6462-46f6-9172-6420506f7765,rev?*%
%TF.SameCoordinates,Original*%
%TF.FileFunction,Plated,1,2,PTH,Mixed*%
%TF.FilePolarity,Positive*%
%FSLAX46Y46*%
G04 Gerber Fmt 4.6, Leading zero omitted, Abs format (unit mm)*
G04 Created by KiCad (PCBNEW 7.0.5-0) date 2023-07-08 23:53:34*
%MOMM*%
%LPD*%
G01*
G04 APERTURE LIST*
%TA.AperFunction,ViaDrill*%
%ADD10C,0.500000*%
%TD*%
%TA.AperFunction,ComponentDrill*%
%ADD11C,0.700000*%
%TD*%
%TA.AperFunction,ComponentDrill*%
%ADD12C,0.800000*%
%TD*%
%TA.AperFunction,ComponentDrill*%
%ADD13C,0.900000*%
%TD*%
%TA.AperFunction,ComponentDrill*%
%ADD14C,1.000000*%
%TD*%
G04 aperture for slot hole*
%TA.AperFunction,ComponentDrill*%
%ADD15O,1.000000X3.000000*%
%TD*%
G04 aperture for slot hole*
%TA.AperFunction,ComponentDrill*%
%ADD16O,3.000000X1.000000*%
%TD*%
%TA.AperFunction,ComponentDrill*%
%ADD17C,1.100000*%
%TD*%
%TA.AperFunction,ComponentDrill*%
%ADD18C,1.520000*%
%TD*%
G04 APERTURE END LIST*
D10*
X133350000Y-111252000D03*
D11*
%TO.C,R1*%
X132842000Y-89916000D03*
%TO.C,R3*%
X134348000Y-106680000D03*
%TO.C,R2*%
X134348000Y-109220000D03*
%TO.C,R1*%
X140462000Y-89916000D03*
%TO.C,R3*%
X141968000Y-106680000D03*
%TO.C,R2*%
X141968000Y-109220000D03*
D12*
%TO.C,C3*%
X121686000Y-81280000D03*
%TO.C,C2*%
X121686000Y-113792000D03*
%TO.C,C3*%
X124186000Y-81280000D03*
%TO.C,C2*%
X124186000Y-113792000D03*
%TO.C,C1*%
X126746000Y-81280000D03*
X129246000Y-81280000D03*
D13*
%TO.C,S1*%
X134248000Y-84582000D03*
X136748000Y-84582000D03*
%TO.C,D1*%
X139192000Y-96271000D03*
X139192000Y-98811000D03*
%TO.C,S1*%
X139248000Y-84582000D03*
D14*
%TO.C,J4*%
X123444000Y-120904000D03*
%TO.C,J6*%
X123713000Y-72644000D03*
%TO.C,J4*%
X125984000Y-120904000D03*
%TO.C,J6*%
X126253000Y-72644000D03*
D15*
%TO.C,J1*%
X127508000Y-97028000D03*
D14*
%TO.C,J4*%
X128524000Y-120904000D03*
%TO.C,J6*%
X128793000Y-72644000D03*
D16*
%TO.C,J1*%
X130508000Y-101728000D03*
D15*
X133508000Y-97028000D03*
D14*
%TO.C,J7*%
X147320000Y-72644000D03*
X147320000Y-75184000D03*
%TO.C,J5*%
X147320000Y-118450000D03*
X147320000Y-120990000D03*
D17*
%TO.C,U2*%
X122428000Y-85923000D03*
%TO.C,U1*%
X122936000Y-108895000D03*
%TO.C,U2*%
X124968000Y-85923000D03*
%TO.C,U1*%
X125476000Y-108895000D03*
%TO.C,U2*%
X127508000Y-85923000D03*
%TO.C,U1*%
X128016000Y-108895000D03*
D18*
%TO.C,J3*%
X135128000Y-74930000D03*
%TO.C,J2*%
X135128000Y-118618000D03*
%TO.C,J3*%
X140208000Y-74930000D03*
%TO.C,J2*%
X140208000Y-118618000D03*
M02*
