%TF.GenerationSoftware,KiCad,Pcbnew,7.0.5-0*%
%TF.CreationDate,2023-07-08T23:53:13+02:00*%
%TF.ProjectId,Breadboard Power Supply,42726561-6462-46f6-9172-6420506f7765,rev?*%
%TF.SameCoordinates,Original*%
%TF.FileFunction,Soldermask,Top*%
%TF.FilePolarity,Negative*%
%FSLAX46Y46*%
G04 Gerber Fmt 4.6, Leading zero omitted, Abs format (unit mm)*
G04 Created by KiCad (PCBNEW 7.0.5-0) date 2023-07-08 23:53:13*
%MOMM*%
%LPD*%
G01*
G04 APERTURE LIST*
G04 Aperture macros list*
%AMRoundRect*
0 Rectangle with rounded corners*
0 $1 Rounding radius*
0 $2 $3 $4 $5 $6 $7 $8 $9 X,Y pos of 4 corners*
0 Add a 4 corners polygon primitive as box body*
4,1,4,$2,$3,$4,$5,$6,$7,$8,$9,$2,$3,0*
0 Add four circle primitives for the rounded corners*
1,1,$1+$1,$2,$3*
1,1,$1+$1,$4,$5*
1,1,$1+$1,$6,$7*
1,1,$1+$1,$8,$9*
0 Add four rect primitives between the rounded corners*
20,1,$1+$1,$2,$3,$4,$5,0*
20,1,$1+$1,$4,$5,$6,$7,0*
20,1,$1+$1,$6,$7,$8,$9,0*
20,1,$1+$1,$8,$9,$2,$3,0*%
G04 Aperture macros list end*
%ADD10R,1.905000X2.000000*%
%ADD11O,1.905000X2.000000*%
%ADD12C,1.900000*%
%ADD13R,1.900000X1.900000*%
%ADD14C,1.400000*%
%ADD15O,1.400000X1.400000*%
%ADD16O,1.700000X1.700000*%
%ADD17R,1.700000X1.700000*%
%ADD18R,3.000000X3.000000*%
%ADD19C,3.000000*%
%ADD20RoundRect,0.875000X-0.875000X-0.875000X0.875000X-0.875000X0.875000X0.875000X-0.875000X0.875000X0*%
%ADD21RoundRect,0.750000X-0.750000X-1.000000X0.750000X-1.000000X0.750000X1.000000X-0.750000X1.000000X0*%
%ADD22R,3.500000X3.500000*%
%ADD23C,1.800000*%
%ADD24R,1.800000X1.800000*%
%ADD25C,1.600000*%
G04 APERTURE END LIST*
D10*
%TO.C,U2*%
X127508000Y-85923000D03*
D11*
X124968000Y-85923000D03*
X122428000Y-85923000D03*
%TD*%
D10*
%TO.C,U1*%
X122936000Y-108895000D03*
D11*
X125476000Y-108895000D03*
X128016000Y-108895000D03*
%TD*%
D12*
%TO.C,S1*%
X134248000Y-84582000D03*
X136748000Y-84582000D03*
D13*
X139248000Y-84582000D03*
%TD*%
D14*
%TO.C,R3*%
X134348000Y-106680000D03*
D15*
X141968000Y-106680000D03*
%TD*%
D14*
%TO.C,R2*%
X141968000Y-109220000D03*
D15*
X134348000Y-109220000D03*
%TD*%
%TO.C,R1*%
X140462000Y-89916000D03*
D14*
X132842000Y-89916000D03*
%TD*%
D16*
%TO.C,J7*%
X147320000Y-75184000D03*
D17*
X147320000Y-72644000D03*
%TD*%
%TO.C,J6*%
X123713000Y-72644000D03*
D16*
X126253000Y-72644000D03*
X128793000Y-72644000D03*
%TD*%
%TO.C,J5*%
X147320000Y-120990000D03*
D17*
X147320000Y-118450000D03*
%TD*%
%TO.C,J4*%
X123444000Y-120904000D03*
D16*
X125984000Y-120904000D03*
X128524000Y-120904000D03*
%TD*%
D18*
%TO.C,J3*%
X135128000Y-74930000D03*
D19*
X140208000Y-74930000D03*
%TD*%
D18*
%TO.C,J2*%
X135128000Y-118618000D03*
D19*
X140208000Y-118618000D03*
%TD*%
D20*
%TO.C,J1*%
X130508000Y-101728000D03*
D21*
X127508000Y-97028000D03*
D22*
X133508000Y-97028000D03*
%TD*%
D23*
%TO.C,D1*%
X139192000Y-96271000D03*
D24*
X139192000Y-98811000D03*
%TD*%
D25*
%TO.C,C3*%
X121686000Y-81280000D03*
X124186000Y-81280000D03*
%TD*%
%TO.C,C2*%
X124186000Y-113792000D03*
X121686000Y-113792000D03*
%TD*%
%TO.C,C1*%
X129246000Y-81280000D03*
X126746000Y-81280000D03*
%TD*%
M02*
