%TF.GenerationSoftware,KiCad,Pcbnew,8.0.6*%
%TF.CreationDate,2024-11-26T14:02:48+01:00*%
%TF.ProjectId,Tiny Solar Supply,54696e79-2053-46f6-9c61-722053757070,rev?*%
%TF.SameCoordinates,Original*%
%TF.FileFunction,Legend,Top*%
%TF.FilePolarity,Positive*%
%FSLAX46Y46*%
G04 Gerber Fmt 4.6, Leading zero omitted, Abs format (unit mm)*
G04 Created by KiCad (PCBNEW 8.0.6) date 2024-11-26 14:02:48*
%MOMM*%
%LPD*%
G01*
G04 APERTURE LIST*
G04 Aperture macros list*
%AMRoundRect*
0 Rectangle with rounded corners*
0 $1 Rounding radius*
0 $2 $3 $4 $5 $6 $7 $8 $9 X,Y pos of 4 corners*
0 Add a 4 corners polygon primitive as box body*
4,1,4,$2,$3,$4,$5,$6,$7,$8,$9,$2,$3,0*
0 Add four circle primitives for the rounded corners*
1,1,$1+$1,$2,$3*
1,1,$1+$1,$4,$5*
1,1,$1+$1,$6,$7*
1,1,$1+$1,$8,$9*
0 Add four rect primitives between the rounded corners*
20,1,$1+$1,$2,$3,$4,$5,0*
20,1,$1+$1,$4,$5,$6,$7,0*
20,1,$1+$1,$6,$7,$8,$9,0*
20,1,$1+$1,$8,$9,$2,$3,0*%
G04 Aperture macros list end*
%ADD10C,0.100000*%
%ADD11C,0.120000*%
%ADD12C,0.152400*%
%ADD13C,0.127000*%
%ADD14C,0.200000*%
%ADD15RoundRect,0.250000X-0.250000X-0.475000X0.250000X-0.475000X0.250000X0.475000X-0.250000X0.475000X0*%
%ADD16RoundRect,0.250000X-0.262500X-0.450000X0.262500X-0.450000X0.262500X0.450000X-0.262500X0.450000X0*%
%ADD17RoundRect,0.250000X0.262500X0.450000X-0.262500X0.450000X-0.262500X-0.450000X0.262500X-0.450000X0*%
%ADD18R,1.700000X1.700000*%
%ADD19O,1.700000X1.700000*%
%ADD20R,3.302000X2.667000*%
%ADD21RoundRect,0.102000X1.060000X0.750000X-1.060000X0.750000X-1.060000X-0.750000X1.060000X-0.750000X0*%
%ADD22RoundRect,0.150000X-0.587500X-0.150000X0.587500X-0.150000X0.587500X0.150000X-0.587500X0.150000X0*%
%ADD23R,1.181100X0.558800*%
%ADD24RoundRect,0.250000X0.250000X0.475000X-0.250000X0.475000X-0.250000X-0.475000X0.250000X-0.475000X0*%
%ADD25RoundRect,0.250000X0.325000X0.650000X-0.325000X0.650000X-0.325000X-0.650000X0.325000X-0.650000X0*%
%ADD26R,2.440000X1.120000*%
G04 APERTURE END LIST*
D10*
X59103884Y-94091466D02*
X59865789Y-94091466D01*
X59484836Y-94472419D02*
X59484836Y-93710514D01*
X50303884Y-94091466D02*
X51065789Y-94091466D01*
X50684836Y-94472419D02*
X50684836Y-93710514D01*
X76766667Y-109788704D02*
X76728571Y-109826800D01*
X76728571Y-109826800D02*
X76614286Y-109864895D01*
X76614286Y-109864895D02*
X76538095Y-109864895D01*
X76538095Y-109864895D02*
X76423809Y-109826800D01*
X76423809Y-109826800D02*
X76347619Y-109750609D01*
X76347619Y-109750609D02*
X76309524Y-109674419D01*
X76309524Y-109674419D02*
X76271428Y-109522038D01*
X76271428Y-109522038D02*
X76271428Y-109407752D01*
X76271428Y-109407752D02*
X76309524Y-109255371D01*
X76309524Y-109255371D02*
X76347619Y-109179180D01*
X76347619Y-109179180D02*
X76423809Y-109102990D01*
X76423809Y-109102990D02*
X76538095Y-109064895D01*
X76538095Y-109064895D02*
X76614286Y-109064895D01*
X76614286Y-109064895D02*
X76728571Y-109102990D01*
X76728571Y-109102990D02*
X76766667Y-109141085D01*
X77033333Y-109064895D02*
X77528571Y-109064895D01*
X77528571Y-109064895D02*
X77261905Y-109369657D01*
X77261905Y-109369657D02*
X77376190Y-109369657D01*
X77376190Y-109369657D02*
X77452381Y-109407752D01*
X77452381Y-109407752D02*
X77490476Y-109445847D01*
X77490476Y-109445847D02*
X77528571Y-109522038D01*
X77528571Y-109522038D02*
X77528571Y-109712514D01*
X77528571Y-109712514D02*
X77490476Y-109788704D01*
X77490476Y-109788704D02*
X77452381Y-109826800D01*
X77452381Y-109826800D02*
X77376190Y-109864895D01*
X77376190Y-109864895D02*
X77147619Y-109864895D01*
X77147619Y-109864895D02*
X77071428Y-109826800D01*
X77071428Y-109826800D02*
X77033333Y-109788704D01*
X63266667Y-105464895D02*
X63000000Y-105083942D01*
X62809524Y-105464895D02*
X62809524Y-104664895D01*
X62809524Y-104664895D02*
X63114286Y-104664895D01*
X63114286Y-104664895D02*
X63190476Y-104702990D01*
X63190476Y-104702990D02*
X63228571Y-104741085D01*
X63228571Y-104741085D02*
X63266667Y-104817276D01*
X63266667Y-104817276D02*
X63266667Y-104931561D01*
X63266667Y-104931561D02*
X63228571Y-105007752D01*
X63228571Y-105007752D02*
X63190476Y-105045847D01*
X63190476Y-105045847D02*
X63114286Y-105083942D01*
X63114286Y-105083942D02*
X62809524Y-105083942D01*
X63571428Y-104741085D02*
X63609524Y-104702990D01*
X63609524Y-104702990D02*
X63685714Y-104664895D01*
X63685714Y-104664895D02*
X63876190Y-104664895D01*
X63876190Y-104664895D02*
X63952381Y-104702990D01*
X63952381Y-104702990D02*
X63990476Y-104741085D01*
X63990476Y-104741085D02*
X64028571Y-104817276D01*
X64028571Y-104817276D02*
X64028571Y-104893466D01*
X64028571Y-104893466D02*
X63990476Y-105007752D01*
X63990476Y-105007752D02*
X63533333Y-105464895D01*
X63533333Y-105464895D02*
X64028571Y-105464895D01*
X59279167Y-105264895D02*
X59012500Y-104883942D01*
X58822024Y-105264895D02*
X58822024Y-104464895D01*
X58822024Y-104464895D02*
X59126786Y-104464895D01*
X59126786Y-104464895D02*
X59202976Y-104502990D01*
X59202976Y-104502990D02*
X59241071Y-104541085D01*
X59241071Y-104541085D02*
X59279167Y-104617276D01*
X59279167Y-104617276D02*
X59279167Y-104731561D01*
X59279167Y-104731561D02*
X59241071Y-104807752D01*
X59241071Y-104807752D02*
X59202976Y-104845847D01*
X59202976Y-104845847D02*
X59126786Y-104883942D01*
X59126786Y-104883942D02*
X58822024Y-104883942D01*
X59545833Y-104464895D02*
X60041071Y-104464895D01*
X60041071Y-104464895D02*
X59774405Y-104769657D01*
X59774405Y-104769657D02*
X59888690Y-104769657D01*
X59888690Y-104769657D02*
X59964881Y-104807752D01*
X59964881Y-104807752D02*
X60002976Y-104845847D01*
X60002976Y-104845847D02*
X60041071Y-104922038D01*
X60041071Y-104922038D02*
X60041071Y-105112514D01*
X60041071Y-105112514D02*
X60002976Y-105188704D01*
X60002976Y-105188704D02*
X59964881Y-105226800D01*
X59964881Y-105226800D02*
X59888690Y-105264895D01*
X59888690Y-105264895D02*
X59660119Y-105264895D01*
X59660119Y-105264895D02*
X59583928Y-105226800D01*
X59583928Y-105226800D02*
X59545833Y-105188704D01*
X48933333Y-94664895D02*
X48933333Y-95236323D01*
X48933333Y-95236323D02*
X48895238Y-95350609D01*
X48895238Y-95350609D02*
X48819047Y-95426800D01*
X48819047Y-95426800D02*
X48704762Y-95464895D01*
X48704762Y-95464895D02*
X48628571Y-95464895D01*
X49657143Y-94931561D02*
X49657143Y-95464895D01*
X49466667Y-94626800D02*
X49276190Y-95198228D01*
X49276190Y-95198228D02*
X49771429Y-95198228D01*
X79466666Y-94164895D02*
X79085714Y-94164895D01*
X79085714Y-94164895D02*
X79085714Y-93364895D01*
X80152380Y-94164895D02*
X79695237Y-94164895D01*
X79923809Y-94164895D02*
X79923809Y-93364895D01*
X79923809Y-93364895D02*
X79847618Y-93479180D01*
X79847618Y-93479180D02*
X79771428Y-93555371D01*
X79771428Y-93555371D02*
X79695237Y-93593466D01*
X52544524Y-97869895D02*
X52544524Y-97069895D01*
X52544524Y-97069895D02*
X52735000Y-97069895D01*
X52735000Y-97069895D02*
X52849286Y-97107990D01*
X52849286Y-97107990D02*
X52925476Y-97184180D01*
X52925476Y-97184180D02*
X52963571Y-97260371D01*
X52963571Y-97260371D02*
X53001667Y-97412752D01*
X53001667Y-97412752D02*
X53001667Y-97527038D01*
X53001667Y-97527038D02*
X52963571Y-97679419D01*
X52963571Y-97679419D02*
X52925476Y-97755609D01*
X52925476Y-97755609D02*
X52849286Y-97831800D01*
X52849286Y-97831800D02*
X52735000Y-97869895D01*
X52735000Y-97869895D02*
X52544524Y-97869895D01*
X53306428Y-97146085D02*
X53344524Y-97107990D01*
X53344524Y-97107990D02*
X53420714Y-97069895D01*
X53420714Y-97069895D02*
X53611190Y-97069895D01*
X53611190Y-97069895D02*
X53687381Y-97107990D01*
X53687381Y-97107990D02*
X53725476Y-97146085D01*
X53725476Y-97146085D02*
X53763571Y-97222276D01*
X53763571Y-97222276D02*
X53763571Y-97298466D01*
X53763571Y-97298466D02*
X53725476Y-97412752D01*
X53725476Y-97412752D02*
X53268333Y-97869895D01*
X53268333Y-97869895D02*
X53763571Y-97869895D01*
X79933333Y-97964895D02*
X79933333Y-98536323D01*
X79933333Y-98536323D02*
X79895238Y-98650609D01*
X79895238Y-98650609D02*
X79819047Y-98726800D01*
X79819047Y-98726800D02*
X79704762Y-98764895D01*
X79704762Y-98764895D02*
X79628571Y-98764895D01*
X80733333Y-98764895D02*
X80276190Y-98764895D01*
X80504762Y-98764895D02*
X80504762Y-97964895D01*
X80504762Y-97964895D02*
X80428571Y-98079180D01*
X80428571Y-98079180D02*
X80352381Y-98155371D01*
X80352381Y-98155371D02*
X80276190Y-98193466D01*
X68066667Y-105464895D02*
X67800000Y-105083942D01*
X67609524Y-105464895D02*
X67609524Y-104664895D01*
X67609524Y-104664895D02*
X67914286Y-104664895D01*
X67914286Y-104664895D02*
X67990476Y-104702990D01*
X67990476Y-104702990D02*
X68028571Y-104741085D01*
X68028571Y-104741085D02*
X68066667Y-104817276D01*
X68066667Y-104817276D02*
X68066667Y-104931561D01*
X68066667Y-104931561D02*
X68028571Y-105007752D01*
X68028571Y-105007752D02*
X67990476Y-105045847D01*
X67990476Y-105045847D02*
X67914286Y-105083942D01*
X67914286Y-105083942D02*
X67609524Y-105083942D01*
X68828571Y-105464895D02*
X68371428Y-105464895D01*
X68600000Y-105464895D02*
X68600000Y-104664895D01*
X68600000Y-104664895D02*
X68523809Y-104779180D01*
X68523809Y-104779180D02*
X68447619Y-104855371D01*
X68447619Y-104855371D02*
X68371428Y-104893466D01*
X60466667Y-108864895D02*
X60200000Y-108483942D01*
X60009524Y-108864895D02*
X60009524Y-108064895D01*
X60009524Y-108064895D02*
X60314286Y-108064895D01*
X60314286Y-108064895D02*
X60390476Y-108102990D01*
X60390476Y-108102990D02*
X60428571Y-108141085D01*
X60428571Y-108141085D02*
X60466667Y-108217276D01*
X60466667Y-108217276D02*
X60466667Y-108331561D01*
X60466667Y-108331561D02*
X60428571Y-108407752D01*
X60428571Y-108407752D02*
X60390476Y-108445847D01*
X60390476Y-108445847D02*
X60314286Y-108483942D01*
X60314286Y-108483942D02*
X60009524Y-108483942D01*
X61152381Y-108331561D02*
X61152381Y-108864895D01*
X60961905Y-108026800D02*
X60771428Y-108598228D01*
X60771428Y-108598228D02*
X61266667Y-108598228D01*
X53263809Y-105991085D02*
X53187619Y-105952990D01*
X53187619Y-105952990D02*
X53111428Y-105876800D01*
X53111428Y-105876800D02*
X52997142Y-105762514D01*
X52997142Y-105762514D02*
X52920952Y-105724419D01*
X52920952Y-105724419D02*
X52844761Y-105724419D01*
X52882857Y-105914895D02*
X52806666Y-105876800D01*
X52806666Y-105876800D02*
X52730476Y-105800609D01*
X52730476Y-105800609D02*
X52692380Y-105648228D01*
X52692380Y-105648228D02*
X52692380Y-105381561D01*
X52692380Y-105381561D02*
X52730476Y-105229180D01*
X52730476Y-105229180D02*
X52806666Y-105152990D01*
X52806666Y-105152990D02*
X52882857Y-105114895D01*
X52882857Y-105114895D02*
X53035238Y-105114895D01*
X53035238Y-105114895D02*
X53111428Y-105152990D01*
X53111428Y-105152990D02*
X53187619Y-105229180D01*
X53187619Y-105229180D02*
X53225714Y-105381561D01*
X53225714Y-105381561D02*
X53225714Y-105648228D01*
X53225714Y-105648228D02*
X53187619Y-105800609D01*
X53187619Y-105800609D02*
X53111428Y-105876800D01*
X53111428Y-105876800D02*
X53035238Y-105914895D01*
X53035238Y-105914895D02*
X52882857Y-105914895D01*
X53987618Y-105914895D02*
X53530475Y-105914895D01*
X53759047Y-105914895D02*
X53759047Y-105114895D01*
X53759047Y-105114895D02*
X53682856Y-105229180D01*
X53682856Y-105229180D02*
X53606666Y-105305371D01*
X53606666Y-105305371D02*
X53530475Y-105343466D01*
X67590476Y-101964895D02*
X67590476Y-102612514D01*
X67590476Y-102612514D02*
X67628571Y-102688704D01*
X67628571Y-102688704D02*
X67666666Y-102726800D01*
X67666666Y-102726800D02*
X67742857Y-102764895D01*
X67742857Y-102764895D02*
X67895238Y-102764895D01*
X67895238Y-102764895D02*
X67971428Y-102726800D01*
X67971428Y-102726800D02*
X68009523Y-102688704D01*
X68009523Y-102688704D02*
X68047619Y-102612514D01*
X68047619Y-102612514D02*
X68047619Y-101964895D01*
X68847618Y-102764895D02*
X68390475Y-102764895D01*
X68619047Y-102764895D02*
X68619047Y-101964895D01*
X68619047Y-101964895D02*
X68542856Y-102079180D01*
X68542856Y-102079180D02*
X68466666Y-102155371D01*
X68466666Y-102155371D02*
X68390475Y-102193466D01*
X60709524Y-97869895D02*
X60709524Y-97069895D01*
X60709524Y-97069895D02*
X60900000Y-97069895D01*
X60900000Y-97069895D02*
X61014286Y-97107990D01*
X61014286Y-97107990D02*
X61090476Y-97184180D01*
X61090476Y-97184180D02*
X61128571Y-97260371D01*
X61128571Y-97260371D02*
X61166667Y-97412752D01*
X61166667Y-97412752D02*
X61166667Y-97527038D01*
X61166667Y-97527038D02*
X61128571Y-97679419D01*
X61128571Y-97679419D02*
X61090476Y-97755609D01*
X61090476Y-97755609D02*
X61014286Y-97831800D01*
X61014286Y-97831800D02*
X60900000Y-97869895D01*
X60900000Y-97869895D02*
X60709524Y-97869895D01*
X61928571Y-97869895D02*
X61471428Y-97869895D01*
X61700000Y-97869895D02*
X61700000Y-97069895D01*
X61700000Y-97069895D02*
X61623809Y-97184180D01*
X61623809Y-97184180D02*
X61547619Y-97260371D01*
X61547619Y-97260371D02*
X61471428Y-97298466D01*
X74166667Y-105188704D02*
X74128571Y-105226800D01*
X74128571Y-105226800D02*
X74014286Y-105264895D01*
X74014286Y-105264895D02*
X73938095Y-105264895D01*
X73938095Y-105264895D02*
X73823809Y-105226800D01*
X73823809Y-105226800D02*
X73747619Y-105150609D01*
X73747619Y-105150609D02*
X73709524Y-105074419D01*
X73709524Y-105074419D02*
X73671428Y-104922038D01*
X73671428Y-104922038D02*
X73671428Y-104807752D01*
X73671428Y-104807752D02*
X73709524Y-104655371D01*
X73709524Y-104655371D02*
X73747619Y-104579180D01*
X73747619Y-104579180D02*
X73823809Y-104502990D01*
X73823809Y-104502990D02*
X73938095Y-104464895D01*
X73938095Y-104464895D02*
X74014286Y-104464895D01*
X74014286Y-104464895D02*
X74128571Y-104502990D01*
X74128571Y-104502990D02*
X74166667Y-104541085D01*
X74928571Y-105264895D02*
X74471428Y-105264895D01*
X74700000Y-105264895D02*
X74700000Y-104464895D01*
X74700000Y-104464895D02*
X74623809Y-104579180D01*
X74623809Y-104579180D02*
X74547619Y-104655371D01*
X74547619Y-104655371D02*
X74471428Y-104693466D01*
X48633333Y-109264895D02*
X48633333Y-109836323D01*
X48633333Y-109836323D02*
X48595238Y-109950609D01*
X48595238Y-109950609D02*
X48519047Y-110026800D01*
X48519047Y-110026800D02*
X48404762Y-110064895D01*
X48404762Y-110064895D02*
X48328571Y-110064895D01*
X48976190Y-109341085D02*
X49014286Y-109302990D01*
X49014286Y-109302990D02*
X49090476Y-109264895D01*
X49090476Y-109264895D02*
X49280952Y-109264895D01*
X49280952Y-109264895D02*
X49357143Y-109302990D01*
X49357143Y-109302990D02*
X49395238Y-109341085D01*
X49395238Y-109341085D02*
X49433333Y-109417276D01*
X49433333Y-109417276D02*
X49433333Y-109493466D01*
X49433333Y-109493466D02*
X49395238Y-109607752D01*
X49395238Y-109607752D02*
X48938095Y-110064895D01*
X48938095Y-110064895D02*
X49433333Y-110064895D01*
X69666667Y-109488704D02*
X69628571Y-109526800D01*
X69628571Y-109526800D02*
X69514286Y-109564895D01*
X69514286Y-109564895D02*
X69438095Y-109564895D01*
X69438095Y-109564895D02*
X69323809Y-109526800D01*
X69323809Y-109526800D02*
X69247619Y-109450609D01*
X69247619Y-109450609D02*
X69209524Y-109374419D01*
X69209524Y-109374419D02*
X69171428Y-109222038D01*
X69171428Y-109222038D02*
X69171428Y-109107752D01*
X69171428Y-109107752D02*
X69209524Y-108955371D01*
X69209524Y-108955371D02*
X69247619Y-108879180D01*
X69247619Y-108879180D02*
X69323809Y-108802990D01*
X69323809Y-108802990D02*
X69438095Y-108764895D01*
X69438095Y-108764895D02*
X69514286Y-108764895D01*
X69514286Y-108764895D02*
X69628571Y-108802990D01*
X69628571Y-108802990D02*
X69666667Y-108841085D01*
X69971428Y-108841085D02*
X70009524Y-108802990D01*
X70009524Y-108802990D02*
X70085714Y-108764895D01*
X70085714Y-108764895D02*
X70276190Y-108764895D01*
X70276190Y-108764895D02*
X70352381Y-108802990D01*
X70352381Y-108802990D02*
X70390476Y-108841085D01*
X70390476Y-108841085D02*
X70428571Y-108917276D01*
X70428571Y-108917276D02*
X70428571Y-108993466D01*
X70428571Y-108993466D02*
X70390476Y-109107752D01*
X70390476Y-109107752D02*
X69933333Y-109564895D01*
X69933333Y-109564895D02*
X70428571Y-109564895D01*
X56883333Y-103949895D02*
X56883333Y-104521323D01*
X56883333Y-104521323D02*
X56845238Y-104635609D01*
X56845238Y-104635609D02*
X56769047Y-104711800D01*
X56769047Y-104711800D02*
X56654762Y-104749895D01*
X56654762Y-104749895D02*
X56578571Y-104749895D01*
X57188095Y-103949895D02*
X57683333Y-103949895D01*
X57683333Y-103949895D02*
X57416667Y-104254657D01*
X57416667Y-104254657D02*
X57530952Y-104254657D01*
X57530952Y-104254657D02*
X57607143Y-104292752D01*
X57607143Y-104292752D02*
X57645238Y-104330847D01*
X57645238Y-104330847D02*
X57683333Y-104407038D01*
X57683333Y-104407038D02*
X57683333Y-104597514D01*
X57683333Y-104597514D02*
X57645238Y-104673704D01*
X57645238Y-104673704D02*
X57607143Y-104711800D01*
X57607143Y-104711800D02*
X57530952Y-104749895D01*
X57530952Y-104749895D02*
X57302381Y-104749895D01*
X57302381Y-104749895D02*
X57226190Y-104711800D01*
X57226190Y-104711800D02*
X57188095Y-104673704D01*
D11*
%TO.C,C3*%
X74033748Y-109290000D02*
X74556252Y-109290000D01*
X74033748Y-110760000D02*
X74556252Y-110760000D01*
%TO.C,R2*%
X64265436Y-105945000D02*
X64719564Y-105945000D01*
X64265436Y-107415000D02*
X64719564Y-107415000D01*
%TO.C,R3*%
X59639564Y-105945000D02*
X59185436Y-105945000D01*
X59639564Y-107415000D02*
X59185436Y-107415000D01*
%TO.C,J4*%
X38160000Y-97410000D02*
X44160000Y-97410000D01*
X38160000Y-98170000D02*
X38160000Y-97410000D01*
X38160000Y-99950000D02*
X44160000Y-99950000D01*
X38160000Y-100710000D02*
X38160000Y-99950000D01*
X44160000Y-96460000D02*
X44160000Y-101660000D01*
X44160000Y-98170000D02*
X38160000Y-98170000D01*
X44160000Y-100050000D02*
X38160000Y-100050000D01*
X44160000Y-100170000D02*
X38160000Y-100170000D01*
X44160000Y-100290000D02*
X38160000Y-100290000D01*
X44160000Y-100410000D02*
X38160000Y-100410000D01*
X44160000Y-100530000D02*
X38160000Y-100530000D01*
X44160000Y-100650000D02*
X38160000Y-100650000D01*
X44160000Y-100710000D02*
X38160000Y-100710000D01*
X44160000Y-101660000D02*
X46820000Y-101660000D01*
X46820000Y-96460000D02*
X44160000Y-96460000D01*
X46820000Y-99060000D02*
X44160000Y-99060000D01*
X46820000Y-101660000D02*
X46820000Y-96460000D01*
X47150000Y-99950000D02*
X46820000Y-99950000D01*
X47150000Y-100710000D02*
X46820000Y-100710000D01*
X47217071Y-97410000D02*
X46820000Y-97410000D01*
X47217071Y-98170000D02*
X46820000Y-98170000D01*
X49530000Y-100330000D02*
X49530000Y-101600000D01*
X49530000Y-101600000D02*
X48260000Y-101600000D01*
D12*
%TO.C,L1*%
X71374000Y-93281500D02*
X71374000Y-101028500D01*
X71374000Y-101028500D02*
X72946260Y-101028500D01*
X72946260Y-93281500D02*
X71374000Y-93281500D01*
X76913740Y-101028500D02*
X78486000Y-101028500D01*
X78486000Y-93281500D02*
X76913740Y-93281500D01*
X78486000Y-101028500D02*
X78486000Y-93281500D01*
X75006200Y-92138500D02*
G75*
G02*
X74853800Y-92138500I-76200J0D01*
G01*
X74853800Y-92138500D02*
G75*
G02*
X75006200Y-92138500I76200J0D01*
G01*
D13*
%TO.C,D2*%
X52445000Y-93970000D02*
X52445000Y-94180000D01*
X52445000Y-96320000D02*
X52445000Y-96530000D01*
X52445000Y-96530000D02*
X56775000Y-96530000D01*
X56775000Y-93970000D02*
X52445000Y-93970000D01*
X56775000Y-93970000D02*
X56775000Y-94180000D01*
X56775000Y-96530000D02*
X56775000Y-96320000D01*
D14*
X58710000Y-95250000D02*
G75*
G02*
X58510000Y-95250000I-100000J0D01*
G01*
X58510000Y-95250000D02*
G75*
G02*
X58710000Y-95250000I100000J0D01*
G01*
D11*
%TO.C,J1*%
X80080000Y-99690000D02*
X81350000Y-99690000D01*
X80080000Y-100960000D02*
X80080000Y-99690000D01*
X82392929Y-103120000D02*
X82790000Y-103120000D01*
X82392929Y-103880000D02*
X82790000Y-103880000D01*
X82460000Y-100580000D02*
X82790000Y-100580000D01*
X82460000Y-101340000D02*
X82790000Y-101340000D01*
X82790000Y-99630000D02*
X82790000Y-104830000D01*
X82790000Y-102230000D02*
X85450000Y-102230000D01*
X82790000Y-104830000D02*
X85450000Y-104830000D01*
X85450000Y-99630000D02*
X82790000Y-99630000D01*
X85450000Y-100580000D02*
X91450000Y-100580000D01*
X85450000Y-100640000D02*
X91450000Y-100640000D01*
X85450000Y-100760000D02*
X91450000Y-100760000D01*
X85450000Y-100880000D02*
X91450000Y-100880000D01*
X85450000Y-101000000D02*
X91450000Y-101000000D01*
X85450000Y-101120000D02*
X91450000Y-101120000D01*
X85450000Y-101240000D02*
X91450000Y-101240000D01*
X85450000Y-103120000D02*
X91450000Y-103120000D01*
X85450000Y-104830000D02*
X85450000Y-99630000D01*
X91450000Y-100580000D02*
X91450000Y-101340000D01*
X91450000Y-101340000D02*
X85450000Y-101340000D01*
X91450000Y-103120000D02*
X91450000Y-103880000D01*
X91450000Y-103880000D02*
X85450000Y-103880000D01*
%TO.C,R1*%
X68987936Y-105945000D02*
X69442064Y-105945000D01*
X68987936Y-107415000D02*
X69442064Y-107415000D01*
%TO.C,R4*%
X59185436Y-109320000D02*
X59639564Y-109320000D01*
X59185436Y-110790000D02*
X59639564Y-110790000D01*
%TO.C,Q1*%
X53340000Y-106390000D02*
X52690000Y-106390000D01*
X53340000Y-106390000D02*
X53990000Y-106390000D01*
X53340000Y-109510000D02*
X52690000Y-109510000D01*
X53340000Y-109510000D02*
X53990000Y-109510000D01*
X52177500Y-106440000D02*
X51937500Y-106110000D01*
X52417500Y-106110000D01*
X52177500Y-106440000D01*
G36*
X52177500Y-106440000D02*
G01*
X51937500Y-106110000D01*
X52417500Y-106110000D01*
X52177500Y-106440000D01*
G37*
D12*
%TO.C,U1*%
X65678050Y-99672140D02*
X65678050Y-100347862D01*
X65678050Y-101584801D02*
X67481450Y-101584801D01*
X67481450Y-98435201D02*
X65678050Y-98435201D01*
D13*
%TO.C,D1*%
X61335000Y-93970000D02*
X61335000Y-94180000D01*
X61335000Y-96320000D02*
X61335000Y-96530000D01*
X61335000Y-96530000D02*
X65665000Y-96530000D01*
X65665000Y-93970000D02*
X61335000Y-93970000D01*
X65665000Y-93970000D02*
X65665000Y-94180000D01*
X65665000Y-96530000D02*
X65665000Y-96320000D01*
D14*
X67600000Y-95250000D02*
G75*
G02*
X67400000Y-95250000I-100000J0D01*
G01*
X67400000Y-95250000D02*
G75*
G02*
X67600000Y-95250000I100000J0D01*
G01*
D11*
%TO.C,C1*%
X74556252Y-105945000D02*
X74033748Y-105945000D01*
X74556252Y-107415000D02*
X74033748Y-107415000D01*
%TO.C,J2*%
X38160000Y-103765000D02*
X44160000Y-103765000D01*
X38160000Y-104525000D02*
X38160000Y-103765000D01*
X38160000Y-106305000D02*
X44160000Y-106305000D01*
X38160000Y-107065000D02*
X38160000Y-106305000D01*
X44160000Y-102815000D02*
X44160000Y-108015000D01*
X44160000Y-104525000D02*
X38160000Y-104525000D01*
X44160000Y-106405000D02*
X38160000Y-106405000D01*
X44160000Y-106525000D02*
X38160000Y-106525000D01*
X44160000Y-106645000D02*
X38160000Y-106645000D01*
X44160000Y-106765000D02*
X38160000Y-106765000D01*
X44160000Y-106885000D02*
X38160000Y-106885000D01*
X44160000Y-107005000D02*
X38160000Y-107005000D01*
X44160000Y-107065000D02*
X38160000Y-107065000D01*
X44160000Y-108015000D02*
X46820000Y-108015000D01*
X46820000Y-102815000D02*
X44160000Y-102815000D01*
X46820000Y-105415000D02*
X44160000Y-105415000D01*
X46820000Y-108015000D02*
X46820000Y-102815000D01*
X47150000Y-106305000D02*
X46820000Y-106305000D01*
X47150000Y-107065000D02*
X46820000Y-107065000D01*
X47217071Y-103765000D02*
X46820000Y-103765000D01*
X47217071Y-104525000D02*
X46820000Y-104525000D01*
X49530000Y-106685000D02*
X49530000Y-107955000D01*
X49530000Y-107955000D02*
X48260000Y-107955000D01*
%TO.C,C2*%
X67386252Y-108945000D02*
X65963748Y-108945000D01*
X67386252Y-110765000D02*
X65963748Y-110765000D01*
%TO.C,J3*%
X52200000Y-100165000D02*
X52200000Y-98545000D01*
X52200000Y-103385000D02*
X52200000Y-101765000D01*
X55120000Y-100330000D02*
X55120000Y-101600000D01*
X55120000Y-101600000D02*
X59180000Y-101600000D01*
X57826667Y-101600000D02*
X57826667Y-100330000D01*
X59180000Y-100330000D02*
X55120000Y-100330000D01*
X59180000Y-100400000D02*
X57826667Y-100400000D01*
X59180000Y-100520000D02*
X57826667Y-100520000D01*
X59180000Y-100640000D02*
X57826667Y-100640000D01*
X59180000Y-100760000D02*
X57826667Y-100760000D01*
X59180000Y-100880000D02*
X57826667Y-100880000D01*
X59180000Y-101000000D02*
X57826667Y-101000000D01*
X59180000Y-101120000D02*
X57826667Y-101120000D01*
X59180000Y-101240000D02*
X57826667Y-101240000D01*
X59180000Y-101360000D02*
X57826667Y-101360000D01*
X59180000Y-101480000D02*
X57826667Y-101480000D01*
X59180000Y-101600000D02*
X59180000Y-100330000D01*
X62100000Y-98545000D02*
X52200000Y-98545000D01*
X62100000Y-100165000D02*
X62100000Y-98545000D01*
X62100000Y-103385000D02*
X52200000Y-103385000D01*
X62100000Y-103385000D02*
X62100000Y-101765000D01*
X62340000Y-103625000D02*
X60956000Y-103625000D01*
X62340000Y-103625000D02*
X62340000Y-102242000D01*
%TD*%
%LPC*%
D15*
%TO.C,C3*%
X73345000Y-110025000D03*
X75245000Y-110025000D03*
%TD*%
D16*
%TO.C,R2*%
X63580000Y-106680000D03*
X65405000Y-106680000D03*
%TD*%
D17*
%TO.C,R3*%
X60325000Y-106680000D03*
X58500000Y-106680000D03*
%TD*%
D18*
%TO.C,J4*%
X48260000Y-100330000D03*
D19*
X48260000Y-97790000D03*
%TD*%
D20*
%TO.C,L1*%
X74930000Y-94589600D03*
X74930000Y-99720400D03*
%TD*%
D21*
%TO.C,D2*%
X52495000Y-95250000D03*
X56725000Y-95250000D03*
%TD*%
D18*
%TO.C,J1*%
X81350000Y-100960000D03*
D19*
X81350000Y-103500000D03*
%TD*%
D16*
%TO.C,R1*%
X68302500Y-106680000D03*
X70127500Y-106680000D03*
%TD*%
%TO.C,R4*%
X58500000Y-110055000D03*
X60325000Y-110055000D03*
%TD*%
D22*
%TO.C,Q1*%
X52402500Y-107000000D03*
X52402500Y-108900000D03*
X54277500Y-107950000D03*
%TD*%
D23*
%TO.C,U1*%
X67945000Y-100960002D03*
X67945000Y-100010001D03*
X67945000Y-99060000D03*
X65214500Y-99060000D03*
X65214500Y-100960002D03*
%TD*%
D21*
%TO.C,D1*%
X61385000Y-95250000D03*
X65615000Y-95250000D03*
%TD*%
D24*
%TO.C,C1*%
X75245000Y-106680000D03*
X73345000Y-106680000D03*
%TD*%
D18*
%TO.C,J2*%
X48260000Y-106685000D03*
D19*
X48260000Y-104145000D03*
%TD*%
D25*
%TO.C,C2*%
X68150000Y-109855000D03*
X65200000Y-109855000D03*
%TD*%
D26*
%TO.C,J3*%
X61455000Y-100965000D03*
X52845000Y-100965000D03*
%TD*%
%LPD*%
M02*
