%TF.GenerationSoftware,KiCad,Pcbnew,7.0.5-0*%
%TF.CreationDate,2023-07-14T22:27:31+02:00*%
%TF.ProjectId,MCU-Datalogger,4d43552d-4461-4746-916c-6f676765722e,V1.0*%
%TF.SameCoordinates,Original*%
%TF.FileFunction,Copper,L2,Bot*%
%TF.FilePolarity,Positive*%
%FSLAX46Y46*%
G04 Gerber Fmt 4.6, Leading zero omitted, Abs format (unit mm)*
G04 Created by KiCad (PCBNEW 7.0.5-0) date 2023-07-14 22:27:31*
%MOMM*%
%LPD*%
G01*
G04 APERTURE LIST*
%TA.AperFunction,ComponentPad*%
%ADD10R,1.700000X1.700000*%
%TD*%
%TA.AperFunction,ComponentPad*%
%ADD11O,1.700000X1.700000*%
%TD*%
%TA.AperFunction,ViaPad*%
%ADD12C,0.800000*%
%TD*%
%TA.AperFunction,Conductor*%
%ADD13C,0.250000*%
%TD*%
G04 APERTURE END LIST*
D10*
%TO.P,BT1,1,+*%
%TO.N,/Vcc*%
X132080000Y-85085000D03*
D11*
%TO.P,BT1,2,-*%
%TO.N,GND*%
X132080000Y-87625000D03*
%TD*%
%TO.P,J2,4,Pin_4*%
%TO.N,/TX*%
X167640000Y-103505000D03*
%TO.P,J2,3,Pin_3*%
%TO.N,/RX*%
X165100000Y-103505000D03*
%TO.P,J2,2,Pin_2*%
%TO.N,/Vcc*%
X162560000Y-103505000D03*
D10*
%TO.P,J2,1,Pin_1*%
%TO.N,GND*%
X160020000Y-103505000D03*
%TD*%
D11*
%TO.P,J1,4,Pin_4*%
%TO.N,/SCK*%
X173355000Y-99695000D03*
%TO.P,J1,3,Pin_3*%
%TO.N,/SDA*%
X173355000Y-97155000D03*
%TO.P,J1,2,Pin_2*%
%TO.N,/Vcc*%
X173355000Y-94615000D03*
D10*
%TO.P,J1,1,Pin_1*%
%TO.N,GND*%
X173355000Y-92075000D03*
%TD*%
%TO.P,J3,1,Pin_1*%
%TO.N,/D2*%
X134620000Y-103632000D03*
D11*
%TO.P,J3,2,Pin_2*%
%TO.N,/D3*%
X137160000Y-103632000D03*
%TO.P,J3,3,Pin_3*%
%TO.N,/D4*%
X139700000Y-103632000D03*
%TO.P,J3,4,Pin_4*%
%TO.N,/D5*%
X142240000Y-103632000D03*
%TO.P,J3,5,Pin_5*%
%TO.N,/D6*%
X144780000Y-103632000D03*
%TO.P,J3,6,Pin_6*%
%TO.N,/D7*%
X147320000Y-103632000D03*
%TO.P,J3,7,Pin_7*%
%TO.N,/D8*%
X149860000Y-103632000D03*
%TO.P,J3,8,Pin_8*%
%TO.N,GND*%
X152400000Y-103632000D03*
%TO.P,J3,9,Pin_9*%
%TO.N,/Vcc*%
X154940000Y-103632000D03*
%TD*%
D10*
%TO.P,J4,1,Pin_1*%
%TO.N,/MISO*%
X170810000Y-83200000D03*
D11*
%TO.P,J4,2,Pin_2*%
%TO.N,/Vcc*%
X173350000Y-83200000D03*
%TO.P,J4,3,Pin_3*%
%TO.N,/SCK*%
X170810000Y-85740000D03*
%TO.P,J4,4,Pin_4*%
%TO.N,/MOSI*%
X173350000Y-85740000D03*
%TO.P,J4,5,Pin_5*%
%TO.N,/RESET*%
X170810000Y-88280000D03*
%TO.P,J4,6,Pin_6*%
%TO.N,GND*%
X173350000Y-88280000D03*
%TD*%
D12*
%TO.N,GND*%
X160477200Y-100685600D03*
X141422901Y-90377499D03*
%TO.N,/Vcc*%
X140004800Y-92710000D03*
X143154400Y-97485200D03*
X139750800Y-82042000D03*
X137871200Y-81026000D03*
%TO.N,GND*%
X157886400Y-95554800D03*
X156972000Y-98806000D03*
X167081200Y-84582000D03*
X149539099Y-90255499D03*
X154330400Y-86563200D03*
X145599500Y-90373200D03*
%TO.N,/Vcc*%
X154305000Y-78740000D03*
%TO.N,/SCK*%
X167640000Y-88900000D03*
%TO.N,/Vcc*%
X163195000Y-80010000D03*
X149199600Y-87174500D03*
X154484500Y-88949341D03*
%TO.N,Net-(U4-PB7)*%
X152400000Y-80555500D03*
X149098000Y-88754500D03*
%TO.N,/RESET*%
X151440500Y-85090000D03*
X159190201Y-84649799D03*
X161379500Y-85090000D03*
X156281901Y-82376499D03*
%TO.N,/D8*%
X151130000Y-93890500D03*
%TO.N,/D7*%
X149860000Y-93890500D03*
%TO.N,/D6*%
X147955000Y-93345000D03*
%TO.N,/D5*%
X148031200Y-92202000D03*
%TO.N,/D2*%
X149135500Y-85725000D03*
%TO.N,/SCK*%
X140335000Y-88900000D03*
X145680555Y-83401900D03*
%TO.N,/MISO*%
X156210000Y-91440000D03*
%TO.N,/Vcc*%
X157480000Y-88900000D03*
%TO.N,/TX*%
X150495500Y-87629500D03*
%TO.N,/RX*%
X151217282Y-88354500D03*
%TO.N,Net-(U4-AREF)*%
X153035500Y-88354000D03*
X159385000Y-97790000D03*
%TO.N,GND*%
X164033200Y-97028000D03*
%TO.N,/SDA*%
X160655000Y-88265000D03*
X168503600Y-94335600D03*
%TO.N,/Vcc*%
X163830000Y-88900000D03*
%TO.N,GND*%
X166370000Y-81280000D03*
X162560000Y-81280000D03*
X158902400Y-79095600D03*
X141274800Y-87630000D03*
X139065000Y-95885000D03*
%TD*%
D13*
%TO.N,/SDA*%
X168503600Y-94335600D02*
X164693600Y-94335600D01*
X164693600Y-94335600D02*
X160655000Y-90297000D01*
X160655000Y-90297000D02*
X160655000Y-88265000D01*
%TO.N,GND*%
X164033200Y-97028000D02*
X164795200Y-96266000D01*
X164795200Y-96266000D02*
X169164000Y-96266000D01*
X169164000Y-96266000D02*
X173355000Y-92075000D01*
%TO.N,/RX*%
X158203604Y-98515000D02*
X160110000Y-98515000D01*
X151003000Y-91948000D02*
X151636604Y-91948000D01*
X150495000Y-89076782D02*
X150495000Y-91440000D01*
X160110000Y-98515000D02*
X165100000Y-103505000D01*
X151636604Y-91948000D02*
X158203604Y-98515000D01*
X150495000Y-91440000D02*
X151003000Y-91948000D01*
X151217282Y-88354500D02*
X150495000Y-89076782D01*
%TO.N,/TX*%
X164661600Y-102330000D02*
X166465000Y-102330000D01*
X160110000Y-97778400D02*
X164661600Y-102330000D01*
X152289291Y-89079000D02*
X151790400Y-89577891D01*
X160110000Y-96753095D02*
X160110000Y-97778400D01*
X155627196Y-94030800D02*
X157387705Y-94030800D01*
X151790400Y-90194004D02*
X155627196Y-94030800D01*
X166465000Y-102330000D02*
X167640000Y-103505000D01*
X157387705Y-94030800D02*
X160110000Y-96753095D01*
X153335805Y-89079000D02*
X152289291Y-89079000D01*
X151790400Y-89577891D02*
X151790400Y-90194004D01*
X150495500Y-87629500D02*
X153336305Y-87629500D01*
X153760500Y-88654305D02*
X153335805Y-89079000D01*
X153760500Y-88053695D02*
X153760500Y-88654305D01*
X153336305Y-87629500D02*
X153760500Y-88053695D01*
%TO.N,Net-(U4-AREF)*%
X150977600Y-90652600D02*
X158115000Y-97790000D01*
X158115000Y-97790000D02*
X159385000Y-97790000D01*
X150977600Y-89754295D02*
X150977600Y-90652600D01*
X152377895Y-88354000D02*
X150977600Y-89754295D01*
X153035500Y-88354000D02*
X152377895Y-88354000D01*
%TO.N,GND*%
X156972000Y-99669600D02*
X157988000Y-100685600D01*
X157988000Y-100685600D02*
X160477200Y-100685600D01*
X156972000Y-98806000D02*
X156972000Y-99669600D01*
%TO.N,Net-(U4-PB7)*%
X149098000Y-88754500D02*
X148793200Y-88449700D01*
X148793200Y-87793405D02*
X148377634Y-87377839D01*
X148793200Y-88449700D02*
X148793200Y-87793405D01*
X148377634Y-87377839D02*
X148377634Y-86450000D01*
X148377634Y-86450000D02*
X150227200Y-86450000D01*
X150227200Y-86450000D02*
X150715500Y-85961700D01*
X150715500Y-82240000D02*
X152400000Y-80555500D01*
X150715500Y-85961700D02*
X150715500Y-82240000D01*
%TO.N,GND*%
X145599500Y-90373200D02*
X141427200Y-90373200D01*
X141427200Y-90373200D02*
X141422901Y-90377499D01*
%TO.N,/D5*%
X144145000Y-95339500D02*
X144145000Y-101727000D01*
X148031200Y-92202000D02*
X147282500Y-92202000D01*
X147282500Y-92202000D02*
X144145000Y-95339500D01*
X144145000Y-101727000D02*
X142240000Y-103632000D01*
%TO.N,/Vcc*%
X132080000Y-85085000D02*
X132080000Y-83007200D01*
X153670000Y-79375000D02*
X154305000Y-79375000D01*
X154305000Y-79375000D02*
X157162500Y-82232500D01*
X149199600Y-87174500D02*
X149469100Y-86905000D01*
X149469100Y-86905000D02*
X153503800Y-86905000D01*
X153503800Y-86905000D02*
X154484500Y-87885700D01*
X154484500Y-87885700D02*
X154484500Y-88949341D01*
%TO.N,/RESET*%
X156281901Y-82376499D02*
X156281901Y-83138499D01*
X156281901Y-83138499D02*
X154330400Y-85090000D01*
X154330400Y-85090000D02*
X151440500Y-85090000D01*
%TO.N,/Vcc*%
X132080000Y-83007200D02*
X135712200Y-79375000D01*
X135712200Y-79375000D02*
X153670000Y-79375000D01*
%TO.N,/D2*%
X134620000Y-103632000D02*
X134620000Y-102209600D01*
X143391596Y-89350000D02*
X147016596Y-85725000D01*
X140462000Y-96367600D02*
X140462000Y-95429196D01*
X139279800Y-94246996D02*
X139279800Y-91250600D01*
X134620000Y-102209600D02*
X140462000Y-96367600D01*
X141180400Y-89350000D02*
X143391596Y-89350000D01*
X140462000Y-95429196D02*
X139279800Y-94246996D01*
X139279800Y-91250600D02*
X141180400Y-89350000D01*
X147016596Y-85725000D02*
X149135500Y-85725000D01*
%TO.N,/Vcc*%
X140004800Y-92710000D02*
X140004800Y-94335600D01*
X140004800Y-94335600D02*
X143154400Y-97485200D01*
X137871200Y-81026000D02*
X138734800Y-81026000D01*
X138734800Y-81026000D02*
X139750800Y-82042000D01*
X174701200Y-90220800D02*
X174345600Y-89865200D01*
X174345600Y-89865200D02*
X174105400Y-89625000D01*
X173350000Y-83200000D02*
X174525000Y-84375000D01*
X174525000Y-84375000D02*
X174525000Y-89685800D01*
X174525000Y-89685800D02*
X174345600Y-89865200D01*
X173355000Y-94615000D02*
X174701200Y-93268800D01*
X174701200Y-93268800D02*
X174701200Y-90220800D01*
X174105400Y-89625000D02*
X164555000Y-89625000D01*
X164555000Y-89625000D02*
X163830000Y-88900000D01*
%TO.N,/SCK*%
X145680555Y-83401900D02*
X145680555Y-86424645D01*
X145680555Y-86424645D02*
X143205200Y-88900000D01*
X143205200Y-88900000D02*
X140335000Y-88900000D01*
%TO.N,/Vcc*%
X162560000Y-103505000D02*
X164338000Y-105283000D01*
X164338000Y-105283000D02*
X170307000Y-105283000D01*
X170307000Y-105283000D02*
X174625000Y-100965000D01*
X174625000Y-100965000D02*
X174625000Y-95885000D01*
X174625000Y-95885000D02*
X173355000Y-94615000D01*
X154305000Y-78740000D02*
X153670000Y-79375000D01*
%TO.N,/SCK*%
X167640000Y-88900000D02*
X167650000Y-88900000D01*
X167650000Y-88900000D02*
X170810000Y-85740000D01*
%TO.N,/Vcc*%
X159385000Y-80010000D02*
X157162500Y-82232500D01*
X157162500Y-82232500D02*
X157480000Y-82550000D01*
X163195000Y-80010000D02*
X159385000Y-80010000D01*
%TO.N,/RESET*%
X160939299Y-84649799D02*
X159190201Y-84649799D01*
X161379500Y-85090000D02*
X160939299Y-84649799D01*
%TO.N,/Vcc*%
X157480000Y-82550000D02*
X157480000Y-88900000D01*
%TO.N,/D8*%
X150585000Y-94435500D02*
X151130000Y-93890500D01*
X150585000Y-102907000D02*
X150585000Y-94435500D01*
X149860000Y-103632000D02*
X150585000Y-102907000D01*
%TO.N,/D7*%
X149680500Y-94070000D02*
X146687292Y-94070000D01*
X146687292Y-94070000D02*
X145230000Y-95527292D01*
X145230000Y-95527292D02*
X145230000Y-101542000D01*
X149860000Y-93890500D02*
X149680500Y-94070000D01*
X145230000Y-101542000D02*
X147320000Y-103632000D01*
%TO.N,/D6*%
X146775896Y-93345000D02*
X144780000Y-95340896D01*
X147955000Y-93345000D02*
X146775896Y-93345000D01*
X144780000Y-95340896D02*
X144780000Y-103632000D01*
%TO.N,/MISO*%
X158750000Y-88900000D02*
X158750000Y-89535000D01*
X158750000Y-89535000D02*
X156845000Y-91440000D01*
X156845000Y-91440000D02*
X156210000Y-91440000D01*
X164450000Y-83200000D02*
X158750000Y-88900000D01*
X170810000Y-83200000D02*
X164450000Y-83200000D01*
%TD*%
%TA.AperFunction,Conductor*%
%TO.N,GND*%
G36*
X153716948Y-77845285D02*
G01*
X153762703Y-77898089D01*
X153772647Y-77967247D01*
X153743622Y-78030803D01*
X153722795Y-78049918D01*
X153699127Y-78067113D01*
X153572466Y-78207785D01*
X153477821Y-78371715D01*
X153477818Y-78371722D01*
X153419327Y-78551740D01*
X153419326Y-78551744D01*
X153417485Y-78569263D01*
X153410212Y-78638462D01*
X153383627Y-78703077D01*
X153326330Y-78743061D01*
X153286891Y-78749500D01*
X135794943Y-78749500D01*
X135779322Y-78747775D01*
X135779295Y-78748061D01*
X135771533Y-78747326D01*
X135703340Y-78749469D01*
X135701393Y-78749500D01*
X135672849Y-78749500D01*
X135665978Y-78750367D01*
X135660159Y-78750825D01*
X135613574Y-78752289D01*
X135613568Y-78752290D01*
X135594326Y-78757880D01*
X135575287Y-78761823D01*
X135555417Y-78764334D01*
X135555400Y-78764338D01*
X135512082Y-78781488D01*
X135506558Y-78783379D01*
X135461807Y-78796383D01*
X135461804Y-78796384D01*
X135444558Y-78806583D01*
X135427093Y-78815139D01*
X135421210Y-78817468D01*
X135408466Y-78822514D01*
X135370772Y-78849899D01*
X135365891Y-78853105D01*
X135325780Y-78876828D01*
X135311608Y-78891000D01*
X135296823Y-78903628D01*
X135280612Y-78915407D01*
X135250909Y-78951310D01*
X135246977Y-78955631D01*
X131696208Y-82506399D01*
X131683951Y-82516220D01*
X131684134Y-82516441D01*
X131678122Y-82521414D01*
X131631432Y-82571132D01*
X131630079Y-82572529D01*
X131609889Y-82592719D01*
X131609877Y-82592732D01*
X131605621Y-82598217D01*
X131601837Y-82602647D01*
X131569937Y-82636618D01*
X131569936Y-82636620D01*
X131560284Y-82654176D01*
X131549610Y-82670426D01*
X131537329Y-82686261D01*
X131537324Y-82686268D01*
X131518815Y-82729038D01*
X131516245Y-82734284D01*
X131493803Y-82775106D01*
X131488822Y-82794507D01*
X131482521Y-82812910D01*
X131474562Y-82831302D01*
X131474561Y-82831305D01*
X131467271Y-82877327D01*
X131466087Y-82883046D01*
X131454501Y-82928172D01*
X131454500Y-82928182D01*
X131454500Y-82948216D01*
X131452973Y-82967615D01*
X131449840Y-82987394D01*
X131449840Y-82987395D01*
X131454225Y-83033783D01*
X131454500Y-83039621D01*
X131454500Y-83610500D01*
X131434815Y-83677539D01*
X131382011Y-83723294D01*
X131330501Y-83734500D01*
X131182130Y-83734500D01*
X131182123Y-83734501D01*
X131122516Y-83740908D01*
X130987671Y-83791202D01*
X130987664Y-83791206D01*
X130872455Y-83877452D01*
X130872452Y-83877455D01*
X130786206Y-83992664D01*
X130786202Y-83992671D01*
X130735908Y-84127517D01*
X130729501Y-84187116D01*
X130729501Y-84187123D01*
X130729500Y-84187135D01*
X130729500Y-85982870D01*
X130729501Y-85982876D01*
X130735908Y-86042483D01*
X130786202Y-86177328D01*
X130786206Y-86177335D01*
X130872452Y-86292544D01*
X130872455Y-86292547D01*
X130987664Y-86378793D01*
X130987671Y-86378797D01*
X131030948Y-86394938D01*
X131119598Y-86428002D01*
X131175531Y-86469873D01*
X131199949Y-86535337D01*
X131185098Y-86603610D01*
X131163947Y-86631865D01*
X131041886Y-86753926D01*
X130906400Y-86947420D01*
X130906399Y-86947422D01*
X130806570Y-87161507D01*
X130806567Y-87161513D01*
X130749364Y-87374999D01*
X130749364Y-87375000D01*
X131646314Y-87375000D01*
X131620507Y-87415156D01*
X131580000Y-87553111D01*
X131580000Y-87696889D01*
X131620507Y-87834844D01*
X131646314Y-87875000D01*
X130749364Y-87875000D01*
X130806567Y-88088486D01*
X130806570Y-88088492D01*
X130906399Y-88302578D01*
X131041894Y-88496082D01*
X131208917Y-88663105D01*
X131402421Y-88798600D01*
X131616507Y-88898429D01*
X131616516Y-88898433D01*
X131830000Y-88955634D01*
X131830000Y-88060501D01*
X131937685Y-88109680D01*
X132044237Y-88125000D01*
X132115763Y-88125000D01*
X132222315Y-88109680D01*
X132329999Y-88060501D01*
X132329999Y-88955633D01*
X132543483Y-88898433D01*
X132543492Y-88898429D01*
X132757578Y-88798600D01*
X132951082Y-88663105D01*
X133118105Y-88496082D01*
X133253600Y-88302578D01*
X133353429Y-88088492D01*
X133353432Y-88088486D01*
X133357421Y-88073600D01*
X135372259Y-88073600D01*
X135372259Y-89575600D01*
X136874259Y-89575600D01*
X136874259Y-88073600D01*
X137872259Y-88073600D01*
X137872259Y-89575600D01*
X138558315Y-89575600D01*
X138491591Y-89370247D01*
X138490669Y-89367133D01*
X138479659Y-89326043D01*
X138478901Y-89322885D01*
X138467359Y-89268574D01*
X138466768Y-89265384D01*
X138460119Y-89223395D01*
X138459695Y-89220177D01*
X138434106Y-88976709D01*
X138433851Y-88973473D01*
X138431625Y-88931006D01*
X138431540Y-88927760D01*
X138431540Y-88872240D01*
X138431625Y-88868994D01*
X138433851Y-88826527D01*
X138434106Y-88823291D01*
X138459695Y-88579823D01*
X138460119Y-88576605D01*
X138466768Y-88534616D01*
X138467359Y-88531426D01*
X138478901Y-88477115D01*
X138479659Y-88473957D01*
X138490669Y-88432867D01*
X138491591Y-88429753D01*
X138567249Y-88196903D01*
X138568333Y-88193841D01*
X138583583Y-88154119D01*
X138584826Y-88151119D01*
X138607411Y-88100398D01*
X138608808Y-88097469D01*
X138620971Y-88073600D01*
X137872259Y-88073600D01*
X136874259Y-88073600D01*
X135372259Y-88073600D01*
X133357421Y-88073600D01*
X133410636Y-87875000D01*
X132513686Y-87875000D01*
X132539493Y-87834844D01*
X132580000Y-87696889D01*
X132580000Y-87553111D01*
X132539493Y-87415156D01*
X132513686Y-87375000D01*
X133410636Y-87375000D01*
X133410635Y-87374999D01*
X133353432Y-87161513D01*
X133353429Y-87161507D01*
X133253600Y-86947422D01*
X133253599Y-86947420D01*
X133118113Y-86753926D01*
X133118108Y-86753920D01*
X132996053Y-86631865D01*
X132962568Y-86570542D01*
X132967552Y-86500850D01*
X133009424Y-86444917D01*
X133040400Y-86428002D01*
X133163159Y-86382217D01*
X133172326Y-86378798D01*
X133172326Y-86378797D01*
X133172331Y-86378796D01*
X133287546Y-86292546D01*
X133373796Y-86177331D01*
X133424091Y-86042483D01*
X133430500Y-85982873D01*
X133430500Y-85573600D01*
X135372259Y-85573600D01*
X135372259Y-87075600D01*
X136874259Y-87075600D01*
X136874259Y-85573600D01*
X137872259Y-85573600D01*
X137872259Y-87075600D01*
X139374259Y-87075600D01*
X139374259Y-85573600D01*
X140372259Y-85573600D01*
X140372259Y-86661186D01*
X140465002Y-86576640D01*
X140483262Y-86562850D01*
X140672344Y-86445775D01*
X140692828Y-86435575D01*
X140900204Y-86355237D01*
X140922213Y-86348975D01*
X141140819Y-86308111D01*
X141163604Y-86306000D01*
X141385996Y-86306000D01*
X141408781Y-86308111D01*
X141627387Y-86348975D01*
X141649396Y-86355237D01*
X141856772Y-86435575D01*
X141874259Y-86444283D01*
X141874259Y-85573600D01*
X142872259Y-85573600D01*
X142872259Y-86936965D01*
X144057055Y-85752169D01*
X144057055Y-85573600D01*
X142872259Y-85573600D01*
X141874259Y-85573600D01*
X140372259Y-85573600D01*
X139374259Y-85573600D01*
X137872259Y-85573600D01*
X136874259Y-85573600D01*
X135372259Y-85573600D01*
X133430500Y-85573600D01*
X133430499Y-84187128D01*
X133424091Y-84127517D01*
X133423295Y-84125384D01*
X133373797Y-83992671D01*
X133373793Y-83992664D01*
X133287547Y-83877455D01*
X133287544Y-83877452D01*
X133172335Y-83791206D01*
X133172328Y-83791202D01*
X133037482Y-83740908D01*
X133037483Y-83740908D01*
X132977883Y-83734501D01*
X132977881Y-83734500D01*
X132977873Y-83734500D01*
X132977865Y-83734500D01*
X132829500Y-83734500D01*
X132762461Y-83714815D01*
X132716706Y-83662011D01*
X132705500Y-83610500D01*
X132705500Y-83317652D01*
X132725185Y-83250613D01*
X132741819Y-83229971D01*
X132898190Y-83073600D01*
X135372259Y-83073600D01*
X135372259Y-84575600D01*
X136874259Y-84575600D01*
X136874259Y-83073600D01*
X137872259Y-83073600D01*
X137872259Y-84575600D01*
X139374259Y-84575600D01*
X140372259Y-84575600D01*
X141874259Y-84575600D01*
X141874259Y-83073600D01*
X142872259Y-83073600D01*
X142872259Y-84575600D01*
X144057055Y-84575600D01*
X144057055Y-84386914D01*
X143975207Y-84245150D01*
X143973659Y-84242298D01*
X143954363Y-84204431D01*
X143952966Y-84201502D01*
X143930381Y-84150781D01*
X143929138Y-84147781D01*
X143913888Y-84108059D01*
X143912804Y-84104997D01*
X143837146Y-83872147D01*
X143836224Y-83869033D01*
X143825214Y-83827943D01*
X143824456Y-83824785D01*
X143812914Y-83770474D01*
X143812323Y-83767284D01*
X143805674Y-83725295D01*
X143805250Y-83722077D01*
X143779661Y-83478609D01*
X143779406Y-83475373D01*
X143777180Y-83432906D01*
X143777095Y-83429660D01*
X143777095Y-83374140D01*
X143777180Y-83370894D01*
X143779406Y-83328427D01*
X143779661Y-83325191D01*
X143805250Y-83081723D01*
X143805674Y-83078505D01*
X143806451Y-83073600D01*
X142872259Y-83073600D01*
X141874259Y-83073600D01*
X141347405Y-83073600D01*
X141333745Y-83097261D01*
X141332048Y-83100029D01*
X141308880Y-83135704D01*
X141307040Y-83138381D01*
X141274403Y-83183299D01*
X141272427Y-83185874D01*
X141245670Y-83218915D01*
X141243563Y-83221382D01*
X141079752Y-83403313D01*
X141077517Y-83405667D01*
X141047445Y-83435739D01*
X141045090Y-83437975D01*
X141003829Y-83475125D01*
X141001362Y-83477232D01*
X140968317Y-83503993D01*
X140965740Y-83505970D01*
X140767673Y-83649873D01*
X140764996Y-83651713D01*
X140729316Y-83674882D01*
X140726548Y-83676578D01*
X140678464Y-83704338D01*
X140675610Y-83705887D01*
X140637738Y-83725182D01*
X140634810Y-83726579D01*
X140411167Y-83826153D01*
X140408167Y-83827396D01*
X140372259Y-83841180D01*
X140372259Y-84575600D01*
X139374259Y-84575600D01*
X139374259Y-83902876D01*
X139236353Y-83873565D01*
X139233196Y-83872807D01*
X139192128Y-83861803D01*
X139189017Y-83860882D01*
X139136209Y-83843725D01*
X139133146Y-83842641D01*
X139093433Y-83827396D01*
X139090433Y-83826153D01*
X138866790Y-83726579D01*
X138863862Y-83725182D01*
X138825990Y-83705887D01*
X138823136Y-83704338D01*
X138775052Y-83676578D01*
X138772284Y-83674882D01*
X138736604Y-83651713D01*
X138733927Y-83649873D01*
X138535860Y-83505970D01*
X138533283Y-83503993D01*
X138500238Y-83477232D01*
X138497771Y-83475125D01*
X138456510Y-83437975D01*
X138454155Y-83435739D01*
X138424083Y-83405667D01*
X138421848Y-83403313D01*
X138258037Y-83221382D01*
X138255930Y-83218915D01*
X138229173Y-83185874D01*
X138227197Y-83183299D01*
X138194560Y-83138381D01*
X138192720Y-83135704D01*
X138169552Y-83100029D01*
X138167855Y-83097261D01*
X138154195Y-83073600D01*
X137872259Y-83073600D01*
X136874259Y-83073600D01*
X135372259Y-83073600D01*
X132898190Y-83073600D01*
X135934971Y-80036819D01*
X135996294Y-80003334D01*
X136022652Y-80000500D01*
X137377175Y-80000500D01*
X137444214Y-80020185D01*
X137489969Y-80072989D01*
X137499913Y-80142147D01*
X137470888Y-80205703D01*
X137427613Y-80237778D01*
X137423076Y-80239797D01*
X137418467Y-80241850D01*
X137418465Y-80241851D01*
X137265329Y-80353111D01*
X137138666Y-80493785D01*
X137044021Y-80657715D01*
X137044018Y-80657722D01*
X136999691Y-80794148D01*
X136985526Y-80837744D01*
X136976484Y-80923777D01*
X136967406Y-81010153D01*
X136965740Y-81026000D01*
X136985526Y-81214256D01*
X136985527Y-81214259D01*
X137044018Y-81394277D01*
X137044021Y-81394284D01*
X137138667Y-81558216D01*
X137243521Y-81674668D01*
X137265329Y-81698888D01*
X137418465Y-81810148D01*
X137418470Y-81810151D01*
X137591392Y-81887142D01*
X137591397Y-81887144D01*
X137776554Y-81926500D01*
X137776555Y-81926500D01*
X137965844Y-81926500D01*
X137965846Y-81926500D01*
X138151003Y-81887144D01*
X138323930Y-81810151D01*
X138418051Y-81741768D01*
X138483856Y-81718289D01*
X138551910Y-81734114D01*
X138578615Y-81754405D01*
X138695431Y-81871222D01*
X138811838Y-81987629D01*
X138845323Y-82048952D01*
X138847478Y-82062348D01*
X138848582Y-82072850D01*
X138865126Y-82230256D01*
X138865127Y-82230259D01*
X138923618Y-82410277D01*
X138923621Y-82410284D01*
X139018267Y-82574216D01*
X139144928Y-82714887D01*
X139144929Y-82714888D01*
X139298065Y-82826148D01*
X139298070Y-82826151D01*
X139470992Y-82903142D01*
X139470997Y-82903144D01*
X139656154Y-82942500D01*
X139656155Y-82942500D01*
X139845444Y-82942500D01*
X139845446Y-82942500D01*
X140030603Y-82903144D01*
X140203530Y-82826151D01*
X140356671Y-82714888D01*
X140483333Y-82574216D01*
X140577979Y-82410284D01*
X140636474Y-82230256D01*
X140656260Y-82042000D01*
X140636474Y-81853744D01*
X140577979Y-81673716D01*
X140483333Y-81509784D01*
X140356671Y-81369112D01*
X140349711Y-81364055D01*
X140203534Y-81257851D01*
X140203529Y-81257848D01*
X140030607Y-81180857D01*
X140030602Y-81180855D01*
X139884800Y-81149865D01*
X139845446Y-81141500D01*
X139845445Y-81141500D01*
X139786252Y-81141500D01*
X139719213Y-81121815D01*
X139698571Y-81105181D01*
X139591890Y-80998500D01*
X142872259Y-80998500D01*
X142872259Y-82075600D01*
X144320077Y-82075600D01*
X144351603Y-82040587D01*
X144353838Y-82038233D01*
X144374259Y-82017812D01*
X144374259Y-80998500D01*
X145372259Y-80998500D01*
X145372259Y-81526516D01*
X145405563Y-81519438D01*
X145408755Y-81518847D01*
X145450739Y-81512197D01*
X145453954Y-81511774D01*
X145509170Y-81505967D01*
X145512409Y-81505712D01*
X145554893Y-81503485D01*
X145558139Y-81503400D01*
X145802971Y-81503400D01*
X145806217Y-81503485D01*
X145848701Y-81505712D01*
X145851940Y-81505967D01*
X145907156Y-81511774D01*
X145910371Y-81512197D01*
X145952355Y-81518847D01*
X145955547Y-81519438D01*
X146195002Y-81570335D01*
X146198159Y-81571093D01*
X146239227Y-81582097D01*
X146242338Y-81583018D01*
X146295146Y-81600175D01*
X146298209Y-81601259D01*
X146337922Y-81616504D01*
X146340922Y-81617747D01*
X146564565Y-81717321D01*
X146567493Y-81718718D01*
X146605365Y-81738013D01*
X146608219Y-81739562D01*
X146656303Y-81767322D01*
X146659071Y-81769018D01*
X146694751Y-81792187D01*
X146697428Y-81794027D01*
X146874259Y-81922501D01*
X146874259Y-80998500D01*
X147872259Y-80998500D01*
X147872259Y-82075600D01*
X149095153Y-82075600D01*
X149095326Y-82072850D01*
X149095692Y-82068974D01*
X149104041Y-82002870D01*
X149104651Y-81999022D01*
X149114211Y-81948893D01*
X149115061Y-81945092D01*
X149123962Y-81910412D01*
X149129566Y-81875048D01*
X149130296Y-81871222D01*
X149141429Y-81821421D01*
X149142398Y-81817647D01*
X149160988Y-81753668D01*
X149162190Y-81749966D01*
X149175591Y-81712741D01*
X149187799Y-81675170D01*
X149189118Y-81671507D01*
X149213645Y-81609557D01*
X149215191Y-81605983D01*
X149236920Y-81559803D01*
X149238689Y-81556330D01*
X149255929Y-81524968D01*
X149270153Y-81492105D01*
X149271812Y-81488580D01*
X149294985Y-81443104D01*
X149296862Y-81439690D01*
X149330773Y-81382355D01*
X149332858Y-81379069D01*
X149355059Y-81346398D01*
X149374259Y-81316147D01*
X149374259Y-80998500D01*
X147872259Y-80998500D01*
X146874259Y-80998500D01*
X145372259Y-80998500D01*
X144374259Y-80998500D01*
X142872259Y-80998500D01*
X139591890Y-80998500D01*
X139467859Y-80874469D01*
X139235603Y-80642212D01*
X139225780Y-80629950D01*
X139225559Y-80630134D01*
X139220586Y-80624122D01*
X139170866Y-80577432D01*
X139169466Y-80576075D01*
X139149276Y-80555884D01*
X139143786Y-80551625D01*
X139139361Y-80547847D01*
X139105382Y-80515938D01*
X139105380Y-80515936D01*
X139105377Y-80515935D01*
X139087829Y-80506288D01*
X139071563Y-80495604D01*
X139055733Y-80483325D01*
X139012968Y-80464818D01*
X139007722Y-80462248D01*
X138966893Y-80439803D01*
X138966892Y-80439802D01*
X138947493Y-80434822D01*
X138929081Y-80428518D01*
X138910698Y-80420562D01*
X138910692Y-80420560D01*
X138864674Y-80413272D01*
X138858952Y-80412087D01*
X138813821Y-80400500D01*
X138813819Y-80400500D01*
X138793784Y-80400500D01*
X138774386Y-80398973D01*
X138766962Y-80397797D01*
X138754605Y-80395840D01*
X138754604Y-80395840D01*
X138708216Y-80400225D01*
X138702378Y-80400500D01*
X138574948Y-80400500D01*
X138507909Y-80380815D01*
X138482800Y-80359474D01*
X138477073Y-80353114D01*
X138477069Y-80353110D01*
X138323934Y-80241851D01*
X138323932Y-80241850D01*
X138323930Y-80241849D01*
X138314787Y-80237778D01*
X138261551Y-80192528D01*
X138241231Y-80125678D01*
X138260277Y-80058455D01*
X138312644Y-80012200D01*
X138365225Y-80000500D01*
X151465848Y-80000500D01*
X151532887Y-80020185D01*
X151578642Y-80072989D01*
X151588586Y-80142147D01*
X151575095Y-80181122D01*
X151575462Y-80181286D01*
X151573563Y-80185550D01*
X151573234Y-80186499D01*
X151572911Y-80187058D01*
X151572819Y-80187219D01*
X151572818Y-80187222D01*
X151514327Y-80367240D01*
X151514326Y-80367244D01*
X151500835Y-80495604D01*
X151496679Y-80535149D01*
X151470094Y-80599763D01*
X151461039Y-80609868D01*
X150331708Y-81739199D01*
X150319451Y-81749020D01*
X150319634Y-81749241D01*
X150313622Y-81754214D01*
X150266932Y-81803932D01*
X150265579Y-81805329D01*
X150245389Y-81825519D01*
X150245377Y-81825532D01*
X150241121Y-81831017D01*
X150237337Y-81835447D01*
X150205437Y-81869418D01*
X150205436Y-81869420D01*
X150195784Y-81886976D01*
X150185110Y-81903226D01*
X150172829Y-81919061D01*
X150172824Y-81919068D01*
X150154315Y-81961838D01*
X150151745Y-81967084D01*
X150129303Y-82007906D01*
X150124322Y-82027307D01*
X150118021Y-82045710D01*
X150110062Y-82064102D01*
X150110061Y-82064105D01*
X150102771Y-82110127D01*
X150101587Y-82115846D01*
X150090001Y-82160972D01*
X150090000Y-82160982D01*
X150090000Y-82181016D01*
X150088473Y-82200415D01*
X150085340Y-82220194D01*
X150085340Y-82220195D01*
X150089725Y-82266583D01*
X150090000Y-82272421D01*
X150090000Y-85116662D01*
X150070315Y-85183701D01*
X150017511Y-85229456D01*
X149948353Y-85239400D01*
X149884797Y-85210375D01*
X149872764Y-85197267D01*
X149872381Y-85197613D01*
X149859855Y-85183701D01*
X149741371Y-85052112D01*
X149741370Y-85052111D01*
X149588234Y-84940851D01*
X149588229Y-84940848D01*
X149415307Y-84863857D01*
X149415302Y-84863855D01*
X149269500Y-84832865D01*
X149230146Y-84824500D01*
X149040854Y-84824500D01*
X149008397Y-84831398D01*
X148855697Y-84863855D01*
X148855692Y-84863857D01*
X148682770Y-84940848D01*
X148682765Y-84940851D01*
X148529630Y-85052110D01*
X148529626Y-85052114D01*
X148523900Y-85058474D01*
X148464413Y-85095121D01*
X148431752Y-85099500D01*
X147099334Y-85099500D01*
X147083717Y-85097776D01*
X147083690Y-85098062D01*
X147075928Y-85097327D01*
X147007768Y-85099469D01*
X147005821Y-85099500D01*
X146977246Y-85099500D01*
X146976525Y-85099590D01*
X146970353Y-85100369D01*
X146964541Y-85100826D01*
X146917969Y-85102290D01*
X146917968Y-85102290D01*
X146898725Y-85107881D01*
X146879675Y-85111825D01*
X146859807Y-85114334D01*
X146859805Y-85114335D01*
X146816480Y-85131488D01*
X146810953Y-85133380D01*
X146766206Y-85146381D01*
X146766205Y-85146382D01*
X146748963Y-85156579D01*
X146731495Y-85165137D01*
X146712865Y-85172513D01*
X146712863Y-85172514D01*
X146675172Y-85199898D01*
X146670290Y-85203105D01*
X146630175Y-85226830D01*
X146616004Y-85241000D01*
X146601219Y-85253628D01*
X146585008Y-85265407D01*
X146555305Y-85301309D01*
X146551373Y-85305630D01*
X146517736Y-85339268D01*
X146456415Y-85372753D01*
X146386723Y-85367769D01*
X146330789Y-85325899D01*
X146306371Y-85260435D01*
X146306055Y-85251587D01*
X146306055Y-84100587D01*
X146325740Y-84033548D01*
X146337905Y-84017615D01*
X146360366Y-83992669D01*
X146413088Y-83934116D01*
X146507734Y-83770184D01*
X146566229Y-83590156D01*
X146586015Y-83401900D01*
X146566229Y-83213644D01*
X146520726Y-83073600D01*
X147872259Y-83073600D01*
X147872259Y-84101500D01*
X148142536Y-84101500D01*
X148156984Y-84092118D01*
X148159752Y-84090422D01*
X148207836Y-84062662D01*
X148210690Y-84061113D01*
X148248562Y-84041818D01*
X148251490Y-84040421D01*
X148475133Y-83940847D01*
X148478133Y-83939604D01*
X148517846Y-83924359D01*
X148520909Y-83923275D01*
X148573717Y-83906118D01*
X148576828Y-83905197D01*
X148617896Y-83894193D01*
X148621053Y-83893435D01*
X148860508Y-83842538D01*
X148863700Y-83841947D01*
X148905684Y-83835297D01*
X148908899Y-83834874D01*
X148964115Y-83829067D01*
X148967354Y-83828812D01*
X149009838Y-83826585D01*
X149013084Y-83826500D01*
X149092000Y-83826500D01*
X149092000Y-83073600D01*
X147872259Y-83073600D01*
X146520726Y-83073600D01*
X146507734Y-83033616D01*
X146413088Y-82869684D01*
X146286426Y-82729012D01*
X146286425Y-82729011D01*
X146133289Y-82617751D01*
X146133284Y-82617748D01*
X145960362Y-82540757D01*
X145960357Y-82540755D01*
X145814556Y-82509765D01*
X145775201Y-82501400D01*
X145585909Y-82501400D01*
X145553452Y-82508298D01*
X145400752Y-82540755D01*
X145400747Y-82540757D01*
X145227825Y-82617748D01*
X145227820Y-82617751D01*
X145074684Y-82729011D01*
X144948021Y-82869685D01*
X144853376Y-83033615D01*
X144853373Y-83033622D01*
X144799314Y-83200000D01*
X144794881Y-83213644D01*
X144775095Y-83401900D01*
X144794881Y-83590156D01*
X144794882Y-83590159D01*
X144853373Y-83770177D01*
X144853376Y-83770184D01*
X144948022Y-83934116D01*
X144978022Y-83967434D01*
X145023205Y-84017615D01*
X145053435Y-84080606D01*
X145055055Y-84100587D01*
X145055055Y-86114191D01*
X145035370Y-86181230D01*
X145018736Y-86201872D01*
X142982428Y-88238181D01*
X142921105Y-88271666D01*
X142894747Y-88274500D01*
X141038748Y-88274500D01*
X140971709Y-88254815D01*
X140946600Y-88233474D01*
X140940873Y-88227114D01*
X140940869Y-88227110D01*
X140787734Y-88115851D01*
X140787729Y-88115848D01*
X140614807Y-88038857D01*
X140614802Y-88038855D01*
X140469000Y-88007865D01*
X140429646Y-87999500D01*
X140240354Y-87999500D01*
X140207897Y-88006398D01*
X140055197Y-88038855D01*
X140055192Y-88038857D01*
X139882270Y-88115848D01*
X139882265Y-88115851D01*
X139729129Y-88227111D01*
X139602466Y-88367785D01*
X139507821Y-88531715D01*
X139507818Y-88531722D01*
X139455311Y-88693323D01*
X139449326Y-88711744D01*
X139429540Y-88900000D01*
X139449326Y-89088256D01*
X139449327Y-89088259D01*
X139507818Y-89268277D01*
X139507821Y-89268284D01*
X139602467Y-89432216D01*
X139729129Y-89572888D01*
X139809783Y-89631486D01*
X139810793Y-89632220D01*
X139853458Y-89687550D01*
X139859437Y-89757163D01*
X139826831Y-89818958D01*
X139825588Y-89820219D01*
X138896008Y-90749799D01*
X138883751Y-90759620D01*
X138883934Y-90759841D01*
X138877922Y-90764814D01*
X138831232Y-90814532D01*
X138829879Y-90815929D01*
X138809689Y-90836119D01*
X138809677Y-90836132D01*
X138805421Y-90841617D01*
X138801637Y-90846047D01*
X138769737Y-90880018D01*
X138769736Y-90880020D01*
X138760084Y-90897576D01*
X138749410Y-90913826D01*
X138737129Y-90929661D01*
X138737124Y-90929668D01*
X138718615Y-90972438D01*
X138716045Y-90977684D01*
X138693603Y-91018506D01*
X138688622Y-91037907D01*
X138682321Y-91056310D01*
X138674362Y-91074702D01*
X138674361Y-91074705D01*
X138667071Y-91120727D01*
X138665887Y-91126446D01*
X138654301Y-91171572D01*
X138654300Y-91171582D01*
X138654300Y-91191616D01*
X138652773Y-91211015D01*
X138649640Y-91230794D01*
X138649640Y-91230795D01*
X138654025Y-91277183D01*
X138654300Y-91283021D01*
X138654300Y-94164251D01*
X138652575Y-94179868D01*
X138652861Y-94179895D01*
X138652126Y-94187662D01*
X138654269Y-94255842D01*
X138654300Y-94257789D01*
X138654300Y-94286339D01*
X138654301Y-94286356D01*
X138655168Y-94293227D01*
X138655626Y-94299046D01*
X138657090Y-94345620D01*
X138657091Y-94345623D01*
X138662680Y-94364863D01*
X138666624Y-94383907D01*
X138669136Y-94403788D01*
X138672510Y-94412309D01*
X138686290Y-94447115D01*
X138688182Y-94452643D01*
X138701181Y-94497384D01*
X138711380Y-94514630D01*
X138719938Y-94532099D01*
X138727314Y-94550728D01*
X138754698Y-94588419D01*
X138757906Y-94593303D01*
X138781627Y-94633412D01*
X138781633Y-94633420D01*
X138795790Y-94647576D01*
X138808427Y-94662371D01*
X138820206Y-94678583D01*
X138840655Y-94695500D01*
X138856109Y-94708284D01*
X138860420Y-94712206D01*
X139344956Y-95196742D01*
X139800181Y-95651967D01*
X139833666Y-95713290D01*
X139836500Y-95739648D01*
X139836500Y-96057146D01*
X139816815Y-96124185D01*
X139800181Y-96144827D01*
X134236208Y-101708799D01*
X134223951Y-101718620D01*
X134224134Y-101718841D01*
X134218122Y-101723814D01*
X134171432Y-101773532D01*
X134170079Y-101774929D01*
X134149889Y-101795119D01*
X134149877Y-101795132D01*
X134145621Y-101800617D01*
X134141837Y-101805047D01*
X134109937Y-101839018D01*
X134109936Y-101839020D01*
X134100284Y-101856576D01*
X134089610Y-101872826D01*
X134077329Y-101888661D01*
X134077324Y-101888668D01*
X134058815Y-101931438D01*
X134056245Y-101936684D01*
X134033803Y-101977506D01*
X134028822Y-101996907D01*
X134022521Y-102015310D01*
X134014562Y-102033702D01*
X134014561Y-102033705D01*
X134007271Y-102079727D01*
X134006087Y-102085446D01*
X133994501Y-102130572D01*
X133994500Y-102130582D01*
X133994500Y-102150616D01*
X133992971Y-102170026D01*
X133991880Y-102176910D01*
X133961945Y-102240042D01*
X133902630Y-102276967D01*
X133869410Y-102281500D01*
X133722130Y-102281500D01*
X133722123Y-102281501D01*
X133662516Y-102287908D01*
X133527671Y-102338202D01*
X133527664Y-102338206D01*
X133412455Y-102424452D01*
X133412452Y-102424455D01*
X133326206Y-102539664D01*
X133326202Y-102539671D01*
X133275908Y-102674517D01*
X133269501Y-102734116D01*
X133269500Y-102734135D01*
X133269500Y-104529870D01*
X133269501Y-104529876D01*
X133275908Y-104589483D01*
X133326202Y-104724328D01*
X133326206Y-104724335D01*
X133412452Y-104839544D01*
X133412455Y-104839547D01*
X133527664Y-104925793D01*
X133527671Y-104925797D01*
X133662517Y-104976091D01*
X133662516Y-104976091D01*
X133669444Y-104976835D01*
X133722127Y-104982500D01*
X135517872Y-104982499D01*
X135577483Y-104976091D01*
X135712331Y-104925796D01*
X135827546Y-104839546D01*
X135913796Y-104724331D01*
X135962810Y-104592916D01*
X136004681Y-104536984D01*
X136070145Y-104512566D01*
X136138418Y-104527417D01*
X136166673Y-104548569D01*
X136288599Y-104670495D01*
X136385384Y-104738264D01*
X136482165Y-104806032D01*
X136482167Y-104806033D01*
X136482170Y-104806035D01*
X136696337Y-104905903D01*
X136924592Y-104967063D01*
X137101034Y-104982500D01*
X137159999Y-104987659D01*
X137160000Y-104987659D01*
X137160001Y-104987659D01*
X137218966Y-104982500D01*
X137395408Y-104967063D01*
X137623663Y-104905903D01*
X137837830Y-104806035D01*
X138031401Y-104670495D01*
X138198495Y-104503401D01*
X138328424Y-104317842D01*
X138383002Y-104274217D01*
X138452500Y-104267023D01*
X138514855Y-104298546D01*
X138531575Y-104317842D01*
X138661500Y-104503395D01*
X138661505Y-104503401D01*
X138828599Y-104670495D01*
X138925384Y-104738264D01*
X139022165Y-104806032D01*
X139022167Y-104806033D01*
X139022170Y-104806035D01*
X139236337Y-104905903D01*
X139464592Y-104967063D01*
X139641034Y-104982500D01*
X139699999Y-104987659D01*
X139700000Y-104987659D01*
X139700001Y-104987659D01*
X139758966Y-104982500D01*
X139935408Y-104967063D01*
X140163663Y-104905903D01*
X140377830Y-104806035D01*
X140571401Y-104670495D01*
X140738495Y-104503401D01*
X140868424Y-104317842D01*
X140923002Y-104274217D01*
X140992500Y-104267023D01*
X141054855Y-104298546D01*
X141071575Y-104317842D01*
X141201500Y-104503395D01*
X141201505Y-104503401D01*
X141368599Y-104670495D01*
X141465384Y-104738264D01*
X141562165Y-104806032D01*
X141562167Y-104806033D01*
X141562170Y-104806035D01*
X141776337Y-104905903D01*
X142004592Y-104967063D01*
X142181034Y-104982500D01*
X142239999Y-104987659D01*
X142240000Y-104987659D01*
X142240001Y-104987659D01*
X142298966Y-104982500D01*
X142475408Y-104967063D01*
X142703663Y-104905903D01*
X142917830Y-104806035D01*
X143111401Y-104670495D01*
X143278495Y-104503401D01*
X143408424Y-104317842D01*
X143463002Y-104274217D01*
X143532500Y-104267023D01*
X143594855Y-104298546D01*
X143611575Y-104317842D01*
X143741500Y-104503395D01*
X143741505Y-104503401D01*
X143908599Y-104670495D01*
X144005384Y-104738265D01*
X144102165Y-104806032D01*
X144102167Y-104806033D01*
X144102170Y-104806035D01*
X144316337Y-104905903D01*
X144544592Y-104967063D01*
X144721034Y-104982500D01*
X144779999Y-104987659D01*
X144780000Y-104987659D01*
X144780001Y-104987659D01*
X144838966Y-104982500D01*
X145015408Y-104967063D01*
X145243663Y-104905903D01*
X145457830Y-104806035D01*
X145651401Y-104670495D01*
X145818495Y-104503401D01*
X145948424Y-104317842D01*
X146003002Y-104274217D01*
X146072500Y-104267023D01*
X146134855Y-104298546D01*
X146151575Y-104317842D01*
X146281500Y-104503395D01*
X146281505Y-104503401D01*
X146448599Y-104670495D01*
X146545384Y-104738265D01*
X146642165Y-104806032D01*
X146642167Y-104806033D01*
X146642170Y-104806035D01*
X146856337Y-104905903D01*
X147084592Y-104967063D01*
X147261034Y-104982500D01*
X147319999Y-104987659D01*
X147320000Y-104987659D01*
X147320001Y-104987659D01*
X147378966Y-104982500D01*
X147555408Y-104967063D01*
X147783663Y-104905903D01*
X147997830Y-104806035D01*
X148191401Y-104670495D01*
X148358495Y-104503401D01*
X148488424Y-104317842D01*
X148543002Y-104274217D01*
X148612500Y-104267023D01*
X148674855Y-104298546D01*
X148691575Y-104317842D01*
X148821500Y-104503395D01*
X148821505Y-104503401D01*
X148988599Y-104670495D01*
X149085384Y-104738265D01*
X149182165Y-104806032D01*
X149182167Y-104806033D01*
X149182170Y-104806035D01*
X149396337Y-104905903D01*
X149624592Y-104967063D01*
X149801034Y-104982500D01*
X149859999Y-104987659D01*
X149860000Y-104987659D01*
X149860001Y-104987659D01*
X149918966Y-104982500D01*
X150095408Y-104967063D01*
X150323663Y-104905903D01*
X150537830Y-104806035D01*
X150731401Y-104670495D01*
X150898495Y-104503401D01*
X151028730Y-104317405D01*
X151083307Y-104273781D01*
X151152805Y-104266587D01*
X151215160Y-104298110D01*
X151231879Y-104317405D01*
X151361890Y-104503078D01*
X151528917Y-104670105D01*
X151722421Y-104805600D01*
X151936507Y-104905429D01*
X151936516Y-104905433D01*
X152150000Y-104962634D01*
X152150000Y-104067501D01*
X152257685Y-104116680D01*
X152364237Y-104132000D01*
X152435763Y-104132000D01*
X152542315Y-104116680D01*
X152650000Y-104067501D01*
X152650000Y-104962633D01*
X152863483Y-104905433D01*
X152863492Y-104905429D01*
X153077578Y-104805600D01*
X153271082Y-104670105D01*
X153438105Y-104503082D01*
X153568119Y-104317405D01*
X153622696Y-104273781D01*
X153692195Y-104266588D01*
X153754549Y-104298110D01*
X153771269Y-104317405D01*
X153901505Y-104503401D01*
X154068599Y-104670495D01*
X154165384Y-104738265D01*
X154262165Y-104806032D01*
X154262167Y-104806033D01*
X154262170Y-104806035D01*
X154476337Y-104905903D01*
X154704592Y-104967063D01*
X154881034Y-104982500D01*
X154939999Y-104987659D01*
X154940000Y-104987659D01*
X154940001Y-104987659D01*
X154998966Y-104982500D01*
X155175408Y-104967063D01*
X155403663Y-104905903D01*
X155617830Y-104806035D01*
X155811401Y-104670495D01*
X155978495Y-104503401D01*
X156114035Y-104309830D01*
X156213903Y-104095663D01*
X156275063Y-103867408D01*
X156295659Y-103632000D01*
X156275063Y-103396592D01*
X156213903Y-103168337D01*
X156114035Y-102954171D01*
X156108731Y-102946595D01*
X155978494Y-102760597D01*
X155811402Y-102593506D01*
X155811395Y-102593501D01*
X155804708Y-102588819D01*
X155772521Y-102566281D01*
X155617834Y-102457967D01*
X155617830Y-102457965D01*
X155572866Y-102436998D01*
X155403663Y-102358097D01*
X155403659Y-102358096D01*
X155403655Y-102358094D01*
X155175413Y-102296938D01*
X155175403Y-102296936D01*
X154940001Y-102276341D01*
X154939999Y-102276341D01*
X154704596Y-102296936D01*
X154704586Y-102296938D01*
X154476344Y-102358094D01*
X154476335Y-102358098D01*
X154262171Y-102457964D01*
X154262169Y-102457965D01*
X154068597Y-102593505D01*
X153901508Y-102760594D01*
X153771269Y-102946595D01*
X153716692Y-102990219D01*
X153647193Y-102997412D01*
X153584839Y-102965890D01*
X153568119Y-102946594D01*
X153438113Y-102760926D01*
X153438108Y-102760920D01*
X153271082Y-102593894D01*
X153077578Y-102458399D01*
X152863492Y-102358570D01*
X152863486Y-102358567D01*
X152650000Y-102301364D01*
X152650000Y-103196498D01*
X152542315Y-103147320D01*
X152435763Y-103132000D01*
X152364237Y-103132000D01*
X152257685Y-103147320D01*
X152150000Y-103196498D01*
X152150000Y-102301364D01*
X152149999Y-102301364D01*
X151936513Y-102358567D01*
X151936507Y-102358570D01*
X151722422Y-102458399D01*
X151722420Y-102458400D01*
X151528926Y-102593886D01*
X151528920Y-102593891D01*
X151422181Y-102700631D01*
X151360858Y-102734116D01*
X151291166Y-102729132D01*
X151235233Y-102687260D01*
X151210816Y-102621796D01*
X151210500Y-102612950D01*
X151210500Y-100573600D01*
X152872259Y-100573600D01*
X152872259Y-101327711D01*
X153144147Y-101400565D01*
X153146747Y-101401322D01*
X153180561Y-101411985D01*
X153183124Y-101412855D01*
X153226596Y-101428681D01*
X153229116Y-101429660D01*
X153261834Y-101443213D01*
X153264309Y-101444302D01*
X153520311Y-101563678D01*
X153522737Y-101564875D01*
X153554157Y-101581231D01*
X153556529Y-101582531D01*
X153596595Y-101605663D01*
X153598907Y-101607066D01*
X153628805Y-101626112D01*
X153631057Y-101627616D01*
X153669564Y-101654579D01*
X153708690Y-101627184D01*
X153710939Y-101625680D01*
X153740819Y-101606645D01*
X153743131Y-101605243D01*
X153783194Y-101582112D01*
X153785565Y-101580810D01*
X153817001Y-101564445D01*
X153819428Y-101563248D01*
X154075518Y-101443830D01*
X154077994Y-101442741D01*
X154110713Y-101429188D01*
X154113231Y-101428209D01*
X154156704Y-101412383D01*
X154159269Y-101411512D01*
X154193086Y-101400849D01*
X154195685Y-101400091D01*
X154374259Y-101352243D01*
X154374259Y-100573600D01*
X155372259Y-100573600D01*
X155372259Y-101318269D01*
X155374133Y-101318641D01*
X155408732Y-101326312D01*
X155411359Y-101326955D01*
X155684315Y-101400091D01*
X155686914Y-101400849D01*
X155720731Y-101411512D01*
X155723296Y-101412383D01*
X155766769Y-101428209D01*
X155769287Y-101429188D01*
X155802006Y-101442741D01*
X155804482Y-101443830D01*
X156060563Y-101563243D01*
X156062988Y-101564440D01*
X156094408Y-101580795D01*
X156096778Y-101582096D01*
X156136845Y-101605226D01*
X156139160Y-101606631D01*
X156169057Y-101625677D01*
X156171306Y-101627180D01*
X156402786Y-101789264D01*
X156404969Y-101790865D01*
X156433096Y-101812448D01*
X156435206Y-101814142D01*
X156470646Y-101843882D01*
X156472680Y-101845666D01*
X156498790Y-101869593D01*
X156500742Y-101871462D01*
X156700546Y-102071265D01*
X156702417Y-102073219D01*
X156704599Y-102075600D01*
X156874259Y-102075600D01*
X156874259Y-100573600D01*
X157872259Y-100573600D01*
X157872259Y-101895819D01*
X157902493Y-101848776D01*
X157905018Y-101845139D01*
X158036569Y-101669412D01*
X158039346Y-101665965D01*
X158077325Y-101622135D01*
X158080342Y-101618894D01*
X158133894Y-101565342D01*
X158137135Y-101562325D01*
X158180965Y-101524346D01*
X158184412Y-101521569D01*
X158360139Y-101390018D01*
X158363776Y-101387493D01*
X158412567Y-101356136D01*
X158416375Y-101353876D01*
X158482851Y-101317577D01*
X158486809Y-101315596D01*
X158539573Y-101291499D01*
X158543664Y-101289804D01*
X158744911Y-101214744D01*
X158748582Y-101213504D01*
X158797159Y-101198769D01*
X158800902Y-101197761D01*
X158865383Y-101182527D01*
X158869176Y-101181755D01*
X158919170Y-101173196D01*
X158923006Y-101172662D01*
X159029610Y-101161200D01*
X159031266Y-101161044D01*
X159052972Y-101159298D01*
X159054629Y-101159187D01*
X159082973Y-101157669D01*
X159084631Y-101157602D01*
X159106337Y-101157022D01*
X159107994Y-101157000D01*
X159234994Y-101157000D01*
X159234173Y-101154881D01*
X159173313Y-100940978D01*
X159169108Y-100918485D01*
X159148588Y-100697041D01*
X159148588Y-100674159D01*
X159157906Y-100573600D01*
X157872259Y-100573600D01*
X156874259Y-100573600D01*
X155372259Y-100573600D01*
X154374259Y-100573600D01*
X152872259Y-100573600D01*
X151210500Y-100573600D01*
X151210500Y-98073600D01*
X152872259Y-98073600D01*
X152872259Y-99575600D01*
X154374259Y-99575600D01*
X154374259Y-98073600D01*
X155372259Y-98073600D01*
X155372259Y-99575600D01*
X155894062Y-99575600D01*
X155848414Y-99515152D01*
X155836368Y-99495697D01*
X155737239Y-99296619D01*
X155728973Y-99275281D01*
X155668113Y-99061378D01*
X155663908Y-99038885D01*
X155643388Y-98817441D01*
X155643388Y-98794559D01*
X155663908Y-98573115D01*
X155668113Y-98550622D01*
X155728973Y-98336719D01*
X155729077Y-98336448D01*
X155466229Y-98073600D01*
X155372259Y-98073600D01*
X154374259Y-98073600D01*
X152872259Y-98073600D01*
X151210500Y-98073600D01*
X151210500Y-95573600D01*
X152872259Y-95573600D01*
X152872259Y-97075600D01*
X154374259Y-97075600D01*
X154374259Y-96981629D01*
X152966229Y-95573600D01*
X152872259Y-95573600D01*
X151210500Y-95573600D01*
X151210500Y-94894419D01*
X151230185Y-94827380D01*
X151282989Y-94781625D01*
X151308705Y-94773132D01*
X151409803Y-94751644D01*
X151409807Y-94751642D01*
X151409808Y-94751642D01*
X151517088Y-94703877D01*
X151582730Y-94674651D01*
X151735871Y-94563388D01*
X151862533Y-94422716D01*
X151957179Y-94258784D01*
X152015674Y-94078756D01*
X152035460Y-93890500D01*
X152015674Y-93702244D01*
X151957179Y-93522216D01*
X151923979Y-93464713D01*
X151907508Y-93396818D01*
X151930360Y-93330791D01*
X151985281Y-93287600D01*
X152054834Y-93280958D01*
X152116937Y-93312973D01*
X152119049Y-93315036D01*
X157702801Y-98898788D01*
X157712626Y-98911051D01*
X157712847Y-98910869D01*
X157717815Y-98916874D01*
X157767536Y-98963566D01*
X157768936Y-98964923D01*
X157789127Y-98985115D01*
X157789131Y-98985118D01*
X157789133Y-98985120D01*
X157794615Y-98989373D01*
X157799047Y-98993157D01*
X157833022Y-99025062D01*
X157850580Y-99034714D01*
X157866839Y-99045395D01*
X157882668Y-99057673D01*
X157925442Y-99076182D01*
X157930660Y-99078738D01*
X157971512Y-99101197D01*
X157990920Y-99106180D01*
X158009321Y-99112480D01*
X158027708Y-99120437D01*
X158071092Y-99127308D01*
X158073723Y-99127725D01*
X158079443Y-99128909D01*
X158124585Y-99140500D01*
X158144620Y-99140500D01*
X158164018Y-99142026D01*
X158183798Y-99145159D01*
X158183799Y-99145160D01*
X158183799Y-99145159D01*
X158183800Y-99145160D01*
X158230187Y-99140775D01*
X158236026Y-99140500D01*
X159799548Y-99140500D01*
X159866587Y-99160185D01*
X159887229Y-99176819D01*
X162648070Y-101937660D01*
X162681555Y-101998983D01*
X162676571Y-102068675D01*
X162634699Y-102124608D01*
X162569235Y-102149025D01*
X162560389Y-102149341D01*
X162559999Y-102149341D01*
X162324596Y-102169936D01*
X162324586Y-102169938D01*
X162096344Y-102231094D01*
X162096335Y-102231098D01*
X161882171Y-102330964D01*
X161882169Y-102330965D01*
X161688600Y-102466503D01*
X161566284Y-102588819D01*
X161504961Y-102622303D01*
X161435269Y-102617319D01*
X161379336Y-102575447D01*
X161362421Y-102544470D01*
X161313354Y-102412913D01*
X161313350Y-102412906D01*
X161227190Y-102297812D01*
X161227187Y-102297809D01*
X161112093Y-102211649D01*
X161112086Y-102211645D01*
X160977379Y-102161403D01*
X160977372Y-102161401D01*
X160917844Y-102155000D01*
X160270000Y-102155000D01*
X160270000Y-103069498D01*
X160162315Y-103020320D01*
X160055763Y-103005000D01*
X159984237Y-103005000D01*
X159877685Y-103020320D01*
X159770000Y-103069498D01*
X159770000Y-102155000D01*
X159122155Y-102155000D01*
X159062627Y-102161401D01*
X159062620Y-102161403D01*
X158927913Y-102211645D01*
X158927906Y-102211649D01*
X158812812Y-102297809D01*
X158812809Y-102297812D01*
X158726649Y-102412906D01*
X158726645Y-102412913D01*
X158676403Y-102547620D01*
X158676401Y-102547627D01*
X158670000Y-102607155D01*
X158670000Y-103255000D01*
X159586314Y-103255000D01*
X159560507Y-103295156D01*
X159520000Y-103433111D01*
X159520000Y-103576889D01*
X159560507Y-103714844D01*
X159586314Y-103755000D01*
X158670000Y-103755000D01*
X158670000Y-104402844D01*
X158676401Y-104462372D01*
X158676403Y-104462379D01*
X158726645Y-104597086D01*
X158726649Y-104597093D01*
X158812809Y-104712187D01*
X158812812Y-104712190D01*
X158927906Y-104798350D01*
X158927913Y-104798354D01*
X159062620Y-104848596D01*
X159062627Y-104848598D01*
X159122155Y-104854999D01*
X159122172Y-104855000D01*
X159770000Y-104855000D01*
X159770000Y-103940501D01*
X159877685Y-103989680D01*
X159984237Y-104005000D01*
X160055763Y-104005000D01*
X160162315Y-103989680D01*
X160270000Y-103940501D01*
X160270000Y-104855000D01*
X160917828Y-104855000D01*
X160917844Y-104854999D01*
X160977372Y-104848598D01*
X160977379Y-104848596D01*
X161112086Y-104798354D01*
X161112093Y-104798350D01*
X161227187Y-104712190D01*
X161227190Y-104712187D01*
X161313350Y-104597093D01*
X161313354Y-104597086D01*
X161362422Y-104465529D01*
X161404293Y-104409595D01*
X161469757Y-104385178D01*
X161538030Y-104400030D01*
X161566285Y-104421181D01*
X161688599Y-104543495D01*
X161736212Y-104576834D01*
X161882165Y-104679032D01*
X161882167Y-104679033D01*
X161882170Y-104679035D01*
X162096337Y-104778903D01*
X162324592Y-104840063D01*
X162495319Y-104855000D01*
X162559999Y-104860659D01*
X162560000Y-104860659D01*
X162560001Y-104860659D01*
X162624681Y-104855000D01*
X162795408Y-104840063D01*
X162895873Y-104813143D01*
X162965722Y-104814806D01*
X163015647Y-104845237D01*
X163546529Y-105376119D01*
X163580014Y-105437442D01*
X163575030Y-105507134D01*
X163533158Y-105563067D01*
X163467694Y-105587484D01*
X163458848Y-105587800D01*
X133099020Y-105587800D01*
X133031981Y-105568115D01*
X133008443Y-105548486D01*
X130157682Y-102499411D01*
X130126276Y-102436998D01*
X130124259Y-102414575D01*
X130124328Y-102358098D01*
X130124737Y-102020570D01*
X131248736Y-102020570D01*
X131300187Y-102075600D01*
X131874259Y-102075600D01*
X131874259Y-100573600D01*
X132872259Y-100573600D01*
X132872259Y-101582181D01*
X132959897Y-101516575D01*
X132963534Y-101514050D01*
X133012325Y-101482693D01*
X133016133Y-101480433D01*
X133082609Y-101444134D01*
X133086568Y-101442153D01*
X133139332Y-101418055D01*
X133143423Y-101416361D01*
X133212395Y-101390635D01*
X133235273Y-101351955D01*
X133237358Y-101348669D01*
X133259559Y-101315999D01*
X133280777Y-101282567D01*
X133282967Y-101279346D01*
X133322125Y-101225451D01*
X133324512Y-101222374D01*
X133357028Y-101183069D01*
X133359601Y-101180150D01*
X133392141Y-101145494D01*
X133412252Y-101122681D01*
X133413561Y-101121242D01*
X133431035Y-101102632D01*
X133432391Y-101101232D01*
X133453993Y-101079628D01*
X133513428Y-101016341D01*
X133516181Y-101013588D01*
X133553362Y-100978672D01*
X133556281Y-100976099D01*
X133563480Y-100970141D01*
X133960022Y-100573600D01*
X132872259Y-100573600D01*
X131874259Y-100573600D01*
X131250488Y-100573600D01*
X131248736Y-102020570D01*
X130124737Y-102020570D01*
X130127697Y-99575600D01*
X131251696Y-99575600D01*
X131874259Y-99575600D01*
X131874259Y-98073600D01*
X132872259Y-98073600D01*
X132872259Y-99575600D01*
X134374259Y-99575600D01*
X134374259Y-98073600D01*
X135372259Y-98073600D01*
X135372259Y-99161363D01*
X136460022Y-98073600D01*
X135372259Y-98073600D01*
X134374259Y-98073600D01*
X132872259Y-98073600D01*
X131874259Y-98073600D01*
X131253515Y-98073600D01*
X131251696Y-99575600D01*
X130127697Y-99575600D01*
X130130724Y-97075600D01*
X131254723Y-97075600D01*
X131874259Y-97075600D01*
X131874259Y-95573600D01*
X132872259Y-95573600D01*
X132872259Y-97075600D01*
X134374259Y-97075600D01*
X134374259Y-95573600D01*
X135372259Y-95573600D01*
X135372259Y-97075600D01*
X136874259Y-97075600D01*
X136874259Y-95573600D01*
X135372259Y-95573600D01*
X134374259Y-95573600D01*
X132872259Y-95573600D01*
X131874259Y-95573600D01*
X131256541Y-95573600D01*
X131254723Y-97075600D01*
X130130724Y-97075600D01*
X130133750Y-94575600D01*
X131257749Y-94575600D01*
X131874259Y-94575600D01*
X131874259Y-93073600D01*
X132872259Y-93073600D01*
X132872259Y-94575600D01*
X134374259Y-94575600D01*
X134374259Y-93073600D01*
X135372259Y-93073600D01*
X135372259Y-94575600D01*
X136874259Y-94575600D01*
X136874259Y-93073600D01*
X135372259Y-93073600D01*
X134374259Y-93073600D01*
X132872259Y-93073600D01*
X131874259Y-93073600D01*
X131259568Y-93073600D01*
X131257749Y-94575600D01*
X130133750Y-94575600D01*
X130136777Y-92075600D01*
X131260776Y-92075600D01*
X131874259Y-92075600D01*
X131874259Y-90573600D01*
X132872259Y-90573600D01*
X132872259Y-92075600D01*
X134374259Y-92075600D01*
X134374259Y-90573600D01*
X135372259Y-90573600D01*
X135372259Y-92075600D01*
X136874259Y-92075600D01*
X136874259Y-90573600D01*
X135372259Y-90573600D01*
X134374259Y-90573600D01*
X132872259Y-90573600D01*
X131874259Y-90573600D01*
X131262595Y-90573600D01*
X131260776Y-92075600D01*
X130136777Y-92075600D01*
X130139803Y-89575600D01*
X133387867Y-89575600D01*
X134374259Y-89575600D01*
X134374259Y-88134687D01*
X134311435Y-88369147D01*
X134310678Y-88371747D01*
X134300015Y-88405561D01*
X134299145Y-88408124D01*
X134283319Y-88451596D01*
X134282340Y-88454116D01*
X134268787Y-88486834D01*
X134267698Y-88489309D01*
X134148322Y-88745311D01*
X134147125Y-88747737D01*
X134130769Y-88779157D01*
X134129469Y-88781529D01*
X134106337Y-88821595D01*
X134104934Y-88823907D01*
X134085888Y-88853806D01*
X134084384Y-88856057D01*
X133922356Y-89087453D01*
X133920758Y-89089634D01*
X133899193Y-89117738D01*
X133897500Y-89119848D01*
X133867764Y-89155288D01*
X133865979Y-89157323D01*
X133842033Y-89183456D01*
X133840162Y-89185411D01*
X133640411Y-89385162D01*
X133638456Y-89387033D01*
X133612323Y-89410979D01*
X133610288Y-89412764D01*
X133574848Y-89442500D01*
X133572738Y-89444193D01*
X133544634Y-89465758D01*
X133542453Y-89467356D01*
X133387867Y-89575600D01*
X130139803Y-89575600D01*
X130149551Y-81523523D01*
X130169317Y-81456508D01*
X130173358Y-81450617D01*
X130178837Y-81443104D01*
X132779454Y-77876542D01*
X132834857Y-77833972D01*
X132879647Y-77825600D01*
X153649909Y-77825600D01*
X153716948Y-77845285D01*
G37*
%TD.AperFunction*%
%TA.AperFunction,Conductor*%
G36*
X156773834Y-83633669D02*
G01*
X156829767Y-83675541D01*
X156854184Y-83741005D01*
X156854500Y-83749851D01*
X156854500Y-88201312D01*
X156834815Y-88268351D01*
X156822650Y-88284284D01*
X156747466Y-88367784D01*
X156652821Y-88531715D01*
X156652818Y-88531722D01*
X156600311Y-88693323D01*
X156594326Y-88711744D01*
X156574540Y-88900000D01*
X156594326Y-89088256D01*
X156594327Y-89088259D01*
X156652818Y-89268277D01*
X156652821Y-89268284D01*
X156747467Y-89432216D01*
X156868783Y-89566951D01*
X156874129Y-89572888D01*
X157027265Y-89684148D01*
X157027270Y-89684151D01*
X157200191Y-89761142D01*
X157200193Y-89761142D01*
X157200197Y-89761144D01*
X157338913Y-89790628D01*
X157400390Y-89823819D01*
X157434167Y-89884981D01*
X157429515Y-89954696D01*
X157400809Y-89999598D01*
X156779611Y-90620796D01*
X156718288Y-90654281D01*
X156648596Y-90649297D01*
X156641494Y-90646394D01*
X156489807Y-90578857D01*
X156489802Y-90578855D01*
X156341756Y-90547388D01*
X156304646Y-90539500D01*
X156115354Y-90539500D01*
X156082897Y-90546398D01*
X155930197Y-90578855D01*
X155930192Y-90578857D01*
X155757270Y-90655848D01*
X155757265Y-90655851D01*
X155604129Y-90767111D01*
X155477466Y-90907785D01*
X155382821Y-91071715D01*
X155382818Y-91071722D01*
X155331132Y-91230796D01*
X155324326Y-91251744D01*
X155304540Y-91440000D01*
X155324326Y-91628256D01*
X155324327Y-91628259D01*
X155382818Y-91808277D01*
X155382821Y-91808284D01*
X155477467Y-91972216D01*
X155570555Y-92075600D01*
X155604129Y-92112888D01*
X155757265Y-92224148D01*
X155757270Y-92224151D01*
X155930192Y-92301142D01*
X155930197Y-92301144D01*
X156115354Y-92340500D01*
X156115355Y-92340500D01*
X156304644Y-92340500D01*
X156304646Y-92340500D01*
X156489803Y-92301144D01*
X156662730Y-92224151D01*
X156815871Y-92112888D01*
X156823254Y-92104687D01*
X156882739Y-92068037D01*
X156911509Y-92063718D01*
X156943627Y-92062709D01*
X156962869Y-92057117D01*
X156981912Y-92053174D01*
X157001792Y-92050664D01*
X157045122Y-92033507D01*
X157050646Y-92031617D01*
X157054396Y-92030527D01*
X157095390Y-92018618D01*
X157112629Y-92008422D01*
X157130103Y-91999862D01*
X157148727Y-91992488D01*
X157148727Y-91992487D01*
X157148732Y-91992486D01*
X157186449Y-91965082D01*
X157191305Y-91961892D01*
X157231420Y-91938170D01*
X157245589Y-91923999D01*
X157260379Y-91911368D01*
X157276587Y-91899594D01*
X157306299Y-91863676D01*
X157310212Y-91859376D01*
X159133787Y-90035801D01*
X159146042Y-90025986D01*
X159145859Y-90025764D01*
X159151868Y-90020791D01*
X159151877Y-90020786D01*
X159198607Y-89971022D01*
X159199846Y-89969743D01*
X159220120Y-89949471D01*
X159224379Y-89943978D01*
X159228152Y-89939561D01*
X159260062Y-89905582D01*
X159269715Y-89888020D01*
X159280389Y-89871770D01*
X159292673Y-89855936D01*
X159311180Y-89813167D01*
X159313749Y-89807924D01*
X159323259Y-89790626D01*
X159336197Y-89767092D01*
X159341177Y-89747691D01*
X159347478Y-89729288D01*
X159355438Y-89710896D01*
X159362730Y-89664849D01*
X159363911Y-89659152D01*
X159364305Y-89657618D01*
X159375500Y-89614019D01*
X159375500Y-89593982D01*
X159377027Y-89574582D01*
X159380160Y-89554804D01*
X159375775Y-89508415D01*
X159375500Y-89502577D01*
X159375500Y-89210451D01*
X159395185Y-89143412D01*
X159411815Y-89122774D01*
X159742375Y-88792213D01*
X159803696Y-88758730D01*
X159873387Y-88763714D01*
X159922204Y-88796924D01*
X159997650Y-88880715D01*
X160027880Y-88943706D01*
X160029500Y-88963687D01*
X160029500Y-90214255D01*
X160027775Y-90229872D01*
X160028061Y-90229899D01*
X160027326Y-90237666D01*
X160029469Y-90305846D01*
X160029500Y-90307793D01*
X160029500Y-90336343D01*
X160029501Y-90336360D01*
X160030368Y-90343231D01*
X160030826Y-90349050D01*
X160032290Y-90395624D01*
X160032291Y-90395627D01*
X160037880Y-90414867D01*
X160041824Y-90433911D01*
X160043045Y-90443571D01*
X160044336Y-90453791D01*
X160061490Y-90497119D01*
X160063382Y-90502647D01*
X160076381Y-90547388D01*
X160086580Y-90564634D01*
X160095138Y-90582103D01*
X160102514Y-90600732D01*
X160129898Y-90638423D01*
X160133106Y-90643307D01*
X160156827Y-90683416D01*
X160156833Y-90683424D01*
X160170990Y-90697580D01*
X160183628Y-90712376D01*
X160195405Y-90728586D01*
X160195406Y-90728587D01*
X160231309Y-90758288D01*
X160235620Y-90762210D01*
X163217008Y-93743599D01*
X164192797Y-94719388D01*
X164202622Y-94731651D01*
X164202843Y-94731469D01*
X164207811Y-94737474D01*
X164257532Y-94784166D01*
X164258932Y-94785523D01*
X164279123Y-94805715D01*
X164279127Y-94805718D01*
X164279129Y-94805720D01*
X164284611Y-94809973D01*
X164289043Y-94813757D01*
X164323018Y-94845662D01*
X164340576Y-94855314D01*
X164356833Y-94865993D01*
X164372664Y-94878273D01*
X164392337Y-94886786D01*
X164415433Y-94896782D01*
X164420677Y-94899350D01*
X164461508Y-94921797D01*
X164474058Y-94925019D01*
X164480905Y-94926777D01*
X164499319Y-94933081D01*
X164517704Y-94941038D01*
X164563757Y-94948332D01*
X164569426Y-94949506D01*
X164614581Y-94961100D01*
X164634616Y-94961100D01*
X164654013Y-94962626D01*
X164673796Y-94965760D01*
X164720183Y-94961375D01*
X164726022Y-94961100D01*
X167799852Y-94961100D01*
X167866891Y-94980785D01*
X167892000Y-95002126D01*
X167897726Y-95008485D01*
X167897730Y-95008489D01*
X168050865Y-95119748D01*
X168050870Y-95119751D01*
X168223792Y-95196742D01*
X168223797Y-95196744D01*
X168408954Y-95236100D01*
X168408955Y-95236100D01*
X168598244Y-95236100D01*
X168598246Y-95236100D01*
X168783403Y-95196744D01*
X168956330Y-95119751D01*
X169109471Y-95008488D01*
X169236133Y-94867816D01*
X169330779Y-94703884D01*
X169389274Y-94523856D01*
X169409060Y-94335600D01*
X169389274Y-94147344D01*
X169330779Y-93967316D01*
X169236133Y-93803384D01*
X169109471Y-93662712D01*
X169109470Y-93662711D01*
X168956334Y-93551451D01*
X168956329Y-93551448D01*
X168783407Y-93474457D01*
X168783402Y-93474455D01*
X168625839Y-93440965D01*
X168598246Y-93435100D01*
X168408954Y-93435100D01*
X168381361Y-93440965D01*
X168223797Y-93474455D01*
X168223792Y-93474457D01*
X168050870Y-93551448D01*
X168050865Y-93551451D01*
X167897730Y-93662710D01*
X167897726Y-93662714D01*
X167892000Y-93669074D01*
X167832513Y-93705721D01*
X167799852Y-93710100D01*
X165004052Y-93710100D01*
X164937013Y-93690415D01*
X164916371Y-93673781D01*
X164316190Y-93073600D01*
X170372259Y-93073600D01*
X170372259Y-93972913D01*
X170378481Y-94012205D01*
X170378905Y-94015423D01*
X170404494Y-94258891D01*
X170404749Y-94262127D01*
X170406975Y-94304594D01*
X170407060Y-94307840D01*
X170407060Y-94363360D01*
X170406975Y-94366606D01*
X170404749Y-94409073D01*
X170404494Y-94412309D01*
X170387332Y-94575600D01*
X171001992Y-94575600D01*
X171002946Y-94553759D01*
X171003123Y-94551060D01*
X171027751Y-94269568D01*
X171028045Y-94266879D01*
X171032669Y-94231755D01*
X171033081Y-94229081D01*
X171041114Y-94183522D01*
X171041641Y-94180867D01*
X171049312Y-94146268D01*
X171049955Y-94143641D01*
X171123091Y-93870685D01*
X171123849Y-93868086D01*
X171134512Y-93834269D01*
X171135383Y-93831704D01*
X171151209Y-93788231D01*
X171152188Y-93785713D01*
X171165741Y-93752995D01*
X171166830Y-93750519D01*
X171201976Y-93675146D01*
X171167577Y-93612149D01*
X171165596Y-93608191D01*
X171141499Y-93555427D01*
X171139804Y-93551336D01*
X171064744Y-93350089D01*
X171063504Y-93346418D01*
X171048769Y-93297841D01*
X171047761Y-93294098D01*
X171032527Y-93229617D01*
X171031755Y-93225824D01*
X171023196Y-93175830D01*
X171022662Y-93171994D01*
X171012083Y-93073600D01*
X170372259Y-93073600D01*
X164316190Y-93073600D01*
X162491091Y-91248500D01*
X165372259Y-91248500D01*
X165372259Y-92075600D01*
X166874259Y-92075600D01*
X166874259Y-91248500D01*
X167872259Y-91248500D01*
X167872259Y-92075600D01*
X169374259Y-92075600D01*
X169374259Y-91248500D01*
X170372259Y-91248500D01*
X170372259Y-92075600D01*
X171017020Y-92075600D01*
X171017268Y-92075000D01*
X171016439Y-92072998D01*
X171007000Y-92025546D01*
X171007000Y-91248500D01*
X170372259Y-91248500D01*
X169374259Y-91248500D01*
X167872259Y-91248500D01*
X166874259Y-91248500D01*
X165372259Y-91248500D01*
X162491091Y-91248500D01*
X161316819Y-90074228D01*
X161283334Y-90012905D01*
X161280500Y-89986547D01*
X161280500Y-88963687D01*
X161300185Y-88896648D01*
X161312350Y-88880715D01*
X161334552Y-88856057D01*
X161387533Y-88797216D01*
X161482179Y-88633284D01*
X161540674Y-88453256D01*
X161560460Y-88265000D01*
X161540674Y-88076744D01*
X161482179Y-87896716D01*
X161387533Y-87732784D01*
X161260871Y-87592112D01*
X161207191Y-87553111D01*
X161193916Y-87543466D01*
X161151250Y-87488135D01*
X161145272Y-87418522D01*
X161177878Y-87356727D01*
X161179043Y-87355545D01*
X161458988Y-87075600D01*
X162872259Y-87075600D01*
X163288484Y-87075600D01*
X163312396Y-87069193D01*
X163315553Y-87068435D01*
X163555008Y-87017538D01*
X163558200Y-87016947D01*
X163600184Y-87010297D01*
X163603399Y-87009874D01*
X163658615Y-87004067D01*
X163661854Y-87003812D01*
X163704338Y-87001585D01*
X163707584Y-87001500D01*
X163952416Y-87001500D01*
X163955662Y-87001585D01*
X163998146Y-87003812D01*
X164001385Y-87004067D01*
X164056601Y-87009874D01*
X164059816Y-87010297D01*
X164101800Y-87016947D01*
X164104992Y-87017538D01*
X164344447Y-87068435D01*
X164347604Y-87069193D01*
X164371516Y-87075600D01*
X164374259Y-87075600D01*
X164374259Y-85573600D01*
X165372259Y-85573600D01*
X165372259Y-87075600D01*
X166874259Y-87075600D01*
X166874259Y-85890250D01*
X166728613Y-85863025D01*
X166706604Y-85856763D01*
X166499228Y-85776425D01*
X166478744Y-85766225D01*
X166289662Y-85649150D01*
X166271402Y-85635360D01*
X166203655Y-85573600D01*
X165372259Y-85573600D01*
X164374259Y-85573600D01*
X164372374Y-85573600D01*
X162872259Y-87073713D01*
X162872259Y-87075600D01*
X161458988Y-87075600D01*
X164672771Y-83861819D01*
X164734095Y-83828334D01*
X164760453Y-83825500D01*
X169335501Y-83825500D01*
X169402540Y-83845185D01*
X169448295Y-83897989D01*
X169459501Y-83949500D01*
X169459501Y-84097876D01*
X169465908Y-84157483D01*
X169516202Y-84292328D01*
X169516206Y-84292335D01*
X169602452Y-84407544D01*
X169602455Y-84407547D01*
X169717664Y-84493793D01*
X169717671Y-84493797D01*
X169849081Y-84542810D01*
X169905015Y-84584681D01*
X169929432Y-84650145D01*
X169914580Y-84718418D01*
X169893430Y-84746673D01*
X169771503Y-84868600D01*
X169635965Y-85062169D01*
X169635964Y-85062171D01*
X169536098Y-85276335D01*
X169536094Y-85276344D01*
X169474938Y-85504586D01*
X169474936Y-85504596D01*
X169454341Y-85739999D01*
X169454341Y-85740000D01*
X169474936Y-85975403D01*
X169474938Y-85975413D01*
X169501856Y-86075872D01*
X169500193Y-86145722D01*
X169469762Y-86195646D01*
X167702228Y-87963181D01*
X167640905Y-87996666D01*
X167614547Y-87999500D01*
X167545354Y-87999500D01*
X167512897Y-88006398D01*
X167360197Y-88038855D01*
X167360192Y-88038857D01*
X167187270Y-88115848D01*
X167187265Y-88115851D01*
X167034129Y-88227111D01*
X166907466Y-88367785D01*
X166812821Y-88531715D01*
X166812818Y-88531722D01*
X166760311Y-88693323D01*
X166754326Y-88711744D01*
X166738970Y-88857853D01*
X166735753Y-88888462D01*
X166709168Y-88953076D01*
X166651871Y-88993061D01*
X166612432Y-88999500D01*
X164865453Y-88999500D01*
X164798414Y-88979815D01*
X164777772Y-88963181D01*
X164768960Y-88954369D01*
X164735475Y-88893046D01*
X164733323Y-88879668D01*
X164715674Y-88711744D01*
X164657179Y-88531716D01*
X164562533Y-88367784D01*
X164435871Y-88227112D01*
X164435870Y-88227111D01*
X164282734Y-88115851D01*
X164282729Y-88115848D01*
X164109807Y-88038857D01*
X164109802Y-88038855D01*
X163964000Y-88007865D01*
X163924646Y-87999500D01*
X163735354Y-87999500D01*
X163702897Y-88006398D01*
X163550197Y-88038855D01*
X163550192Y-88038857D01*
X163377270Y-88115848D01*
X163377265Y-88115851D01*
X163224129Y-88227111D01*
X163097466Y-88367785D01*
X163002821Y-88531715D01*
X163002818Y-88531722D01*
X162950311Y-88693323D01*
X162944326Y-88711744D01*
X162924540Y-88900000D01*
X162944326Y-89088256D01*
X162944327Y-89088259D01*
X163002818Y-89268277D01*
X163002821Y-89268284D01*
X163097467Y-89432216D01*
X163218783Y-89566951D01*
X163224129Y-89572888D01*
X163377265Y-89684148D01*
X163377270Y-89684151D01*
X163550192Y-89761142D01*
X163550197Y-89761144D01*
X163735354Y-89800500D01*
X163794547Y-89800500D01*
X163861586Y-89820185D01*
X163882228Y-89836819D01*
X164054197Y-90008788D01*
X164064022Y-90021051D01*
X164064243Y-90020869D01*
X164069211Y-90026874D01*
X164118932Y-90073566D01*
X164120332Y-90074923D01*
X164140523Y-90095115D01*
X164140527Y-90095118D01*
X164140529Y-90095120D01*
X164146011Y-90099373D01*
X164150443Y-90103157D01*
X164184418Y-90135062D01*
X164201976Y-90144714D01*
X164218233Y-90155393D01*
X164234064Y-90167673D01*
X164253737Y-90176186D01*
X164276833Y-90186182D01*
X164282077Y-90188750D01*
X164322908Y-90211197D01*
X164334819Y-90214255D01*
X164342305Y-90216177D01*
X164360719Y-90222481D01*
X164379104Y-90230438D01*
X164425157Y-90237732D01*
X164430826Y-90238906D01*
X164475981Y-90250500D01*
X164496016Y-90250500D01*
X164515413Y-90252026D01*
X164535196Y-90255160D01*
X164581583Y-90250775D01*
X164587422Y-90250500D01*
X173789934Y-90250500D01*
X173856973Y-90270185D01*
X173871936Y-90281485D01*
X173872674Y-90282136D01*
X173872676Y-90282138D01*
X173915756Y-90320118D01*
X173918563Y-90322754D01*
X173925923Y-90330114D01*
X173933266Y-90337458D01*
X173933285Y-90337475D01*
X174039381Y-90443571D01*
X174072866Y-90504894D01*
X174075700Y-90531252D01*
X174075700Y-90601000D01*
X174056015Y-90668039D01*
X174003211Y-90713794D01*
X173951700Y-90725000D01*
X173605000Y-90725000D01*
X173605000Y-91639498D01*
X173497315Y-91590320D01*
X173390763Y-91575000D01*
X173319237Y-91575000D01*
X173212685Y-91590320D01*
X173105000Y-91639498D01*
X173105000Y-90725000D01*
X172457155Y-90725000D01*
X172397627Y-90731401D01*
X172397620Y-90731403D01*
X172262913Y-90781645D01*
X172262906Y-90781649D01*
X172147812Y-90867809D01*
X172147809Y-90867812D01*
X172061649Y-90982906D01*
X172061645Y-90982913D01*
X172011403Y-91117620D01*
X172011401Y-91117627D01*
X172005000Y-91177155D01*
X172005000Y-91825000D01*
X172921314Y-91825000D01*
X172895507Y-91865156D01*
X172855000Y-92003111D01*
X172855000Y-92146889D01*
X172895507Y-92284844D01*
X172921314Y-92325000D01*
X172005000Y-92325000D01*
X172005000Y-92972844D01*
X172011401Y-93032372D01*
X172011403Y-93032379D01*
X172061645Y-93167086D01*
X172061649Y-93167093D01*
X172147809Y-93282187D01*
X172147812Y-93282190D01*
X172262906Y-93368350D01*
X172262913Y-93368354D01*
X172394470Y-93417421D01*
X172450403Y-93459292D01*
X172474821Y-93524756D01*
X172459970Y-93593029D01*
X172438819Y-93621284D01*
X172316503Y-93743600D01*
X172180965Y-93937169D01*
X172180964Y-93937171D01*
X172081098Y-94151335D01*
X172081094Y-94151344D01*
X172019938Y-94379586D01*
X172019936Y-94379596D01*
X171999341Y-94614999D01*
X171999341Y-94615000D01*
X172019936Y-94850403D01*
X172019938Y-94850413D01*
X172081094Y-95078655D01*
X172081096Y-95078659D01*
X172081097Y-95078663D01*
X172136159Y-95196744D01*
X172180965Y-95292830D01*
X172180967Y-95292834D01*
X172316501Y-95486395D01*
X172316506Y-95486402D01*
X172483597Y-95653493D01*
X172483603Y-95653498D01*
X172669158Y-95783425D01*
X172712783Y-95838002D01*
X172719977Y-95907500D01*
X172688454Y-95969855D01*
X172669158Y-95986575D01*
X172483597Y-96116505D01*
X172316505Y-96283597D01*
X172180965Y-96477169D01*
X172180964Y-96477171D01*
X172081098Y-96691335D01*
X172081094Y-96691344D01*
X172019938Y-96919586D01*
X172019936Y-96919596D01*
X171999341Y-97154999D01*
X171999341Y-97155000D01*
X172019936Y-97390403D01*
X172019938Y-97390413D01*
X172081094Y-97618655D01*
X172081096Y-97618659D01*
X172081097Y-97618663D01*
X172106649Y-97673459D01*
X172180965Y-97832830D01*
X172180967Y-97832834D01*
X172316501Y-98026395D01*
X172316506Y-98026402D01*
X172483597Y-98193493D01*
X172483603Y-98193498D01*
X172669158Y-98323425D01*
X172712783Y-98378002D01*
X172719977Y-98447500D01*
X172688454Y-98509855D01*
X172669158Y-98526575D01*
X172483597Y-98656505D01*
X172316505Y-98823597D01*
X172180965Y-99017169D01*
X172180964Y-99017171D01*
X172081098Y-99231335D01*
X172081094Y-99231344D01*
X172019938Y-99459586D01*
X172019936Y-99459596D01*
X171999341Y-99694999D01*
X171999341Y-99695000D01*
X172019936Y-99930403D01*
X172019938Y-99930413D01*
X172081094Y-100158655D01*
X172081096Y-100158659D01*
X172081097Y-100158663D01*
X172180965Y-100372829D01*
X172180965Y-100372830D01*
X172180967Y-100372834D01*
X172289281Y-100527521D01*
X172316505Y-100566401D01*
X172483599Y-100733495D01*
X172580384Y-100801264D01*
X172677165Y-100869032D01*
X172677167Y-100869033D01*
X172677170Y-100869035D01*
X172891337Y-100968903D01*
X173119592Y-101030063D01*
X173307918Y-101046539D01*
X173354999Y-101050659D01*
X173355387Y-101050659D01*
X173355551Y-101050707D01*
X173360394Y-101051131D01*
X173360308Y-101052104D01*
X173422426Y-101070344D01*
X173468181Y-101123148D01*
X173478125Y-101192306D01*
X173449100Y-101255862D01*
X173443068Y-101262340D01*
X170084228Y-104621181D01*
X170022905Y-104654666D01*
X169996547Y-104657500D01*
X168696758Y-104657500D01*
X168629719Y-104637815D01*
X168583964Y-104585011D01*
X168574020Y-104515853D01*
X168603045Y-104452297D01*
X168609077Y-104445819D01*
X168633715Y-104421181D01*
X168678495Y-104376401D01*
X168814035Y-104182830D01*
X168913903Y-103968663D01*
X168975063Y-103740408D01*
X168995659Y-103505000D01*
X168975063Y-103269592D01*
X168913903Y-103041337D01*
X168814035Y-102827171D01*
X168786269Y-102787516D01*
X168678494Y-102633597D01*
X168511402Y-102466506D01*
X168511395Y-102466501D01*
X168499204Y-102457965D01*
X168469261Y-102436998D01*
X168317834Y-102330967D01*
X168317830Y-102330965D01*
X168282008Y-102314261D01*
X168103663Y-102231097D01*
X168103659Y-102231096D01*
X168103655Y-102231094D01*
X167875413Y-102169938D01*
X167875403Y-102169936D01*
X167640001Y-102149341D01*
X167639999Y-102149341D01*
X167404590Y-102169937D01*
X167404589Y-102169937D01*
X167304124Y-102196855D01*
X167234274Y-102195191D01*
X167184352Y-102164761D01*
X166965803Y-101946212D01*
X166955980Y-101933950D01*
X166955759Y-101934134D01*
X166950786Y-101928122D01*
X166901066Y-101881432D01*
X166899666Y-101880075D01*
X166879476Y-101859884D01*
X166873986Y-101855625D01*
X166869561Y-101851847D01*
X166835582Y-101819938D01*
X166835580Y-101819936D01*
X166835577Y-101819935D01*
X166818029Y-101810288D01*
X166801763Y-101799604D01*
X166785933Y-101787325D01*
X166743168Y-101768818D01*
X166737922Y-101766248D01*
X166697093Y-101743803D01*
X166697092Y-101743802D01*
X166677693Y-101738822D01*
X166659281Y-101732518D01*
X166640898Y-101724562D01*
X166640892Y-101724560D01*
X166594874Y-101717272D01*
X166589152Y-101716087D01*
X166544021Y-101704500D01*
X166544019Y-101704500D01*
X166523984Y-101704500D01*
X166504586Y-101702973D01*
X166497162Y-101701797D01*
X166484805Y-101699840D01*
X166484804Y-101699840D01*
X166438416Y-101704225D01*
X166432578Y-101704500D01*
X164972053Y-101704500D01*
X164905014Y-101684815D01*
X164884372Y-101668181D01*
X163789791Y-100573600D01*
X167872259Y-100573600D01*
X167872259Y-101167849D01*
X167985432Y-101177751D01*
X167988121Y-101178045D01*
X168023245Y-101182669D01*
X168025919Y-101183081D01*
X168071478Y-101191114D01*
X168074133Y-101191641D01*
X168108732Y-101199312D01*
X168111359Y-101199955D01*
X168384315Y-101273091D01*
X168386914Y-101273849D01*
X168420731Y-101284512D01*
X168423296Y-101285383D01*
X168466769Y-101301209D01*
X168469287Y-101302188D01*
X168502006Y-101315741D01*
X168504482Y-101316830D01*
X168760563Y-101436243D01*
X168762988Y-101437440D01*
X168794408Y-101453795D01*
X168796778Y-101455096D01*
X168836845Y-101478226D01*
X168839160Y-101479631D01*
X168869057Y-101498677D01*
X168871306Y-101500180D01*
X169102786Y-101662264D01*
X169104969Y-101663865D01*
X169133096Y-101685448D01*
X169135206Y-101687142D01*
X169170646Y-101716882D01*
X169172680Y-101718666D01*
X169198790Y-101742593D01*
X169200742Y-101744462D01*
X169374259Y-101917978D01*
X169374259Y-100573600D01*
X170372259Y-100573600D01*
X170372259Y-102075600D01*
X171218423Y-102075600D01*
X171817294Y-101476728D01*
X171796211Y-101457409D01*
X171794256Y-101455538D01*
X171594462Y-101255744D01*
X171592591Y-101253789D01*
X171568665Y-101227678D01*
X171566883Y-101225646D01*
X171537143Y-101190207D01*
X171535449Y-101188096D01*
X171513865Y-101159969D01*
X171512264Y-101157786D01*
X171350180Y-100926306D01*
X171348677Y-100924057D01*
X171329631Y-100894160D01*
X171328226Y-100891845D01*
X171305096Y-100851778D01*
X171303795Y-100849408D01*
X171287440Y-100817988D01*
X171286243Y-100815563D01*
X171173413Y-100573600D01*
X170372259Y-100573600D01*
X169374259Y-100573600D01*
X167872259Y-100573600D01*
X163789791Y-100573600D01*
X161289792Y-98073600D01*
X162872259Y-98073600D01*
X162872259Y-98244683D01*
X164203175Y-99575600D01*
X164374259Y-99575600D01*
X164374259Y-98311179D01*
X164167181Y-98349889D01*
X164144396Y-98352000D01*
X163922004Y-98352000D01*
X163899219Y-98349889D01*
X163680613Y-98309025D01*
X163658604Y-98302763D01*
X163451228Y-98222425D01*
X163430744Y-98212225D01*
X163241662Y-98095150D01*
X163223402Y-98081360D01*
X163214890Y-98073600D01*
X165372259Y-98073600D01*
X165372259Y-99575600D01*
X166874259Y-99575600D01*
X166874259Y-98073600D01*
X167872259Y-98073600D01*
X167872259Y-99575600D01*
X169374259Y-99575600D01*
X169374259Y-98073600D01*
X170372259Y-98073600D01*
X170372259Y-99575600D01*
X171007975Y-99575600D01*
X171027751Y-99349568D01*
X171028045Y-99346879D01*
X171032669Y-99311755D01*
X171033081Y-99309081D01*
X171041114Y-99263522D01*
X171041641Y-99260867D01*
X171049312Y-99226268D01*
X171049955Y-99223641D01*
X171123091Y-98950685D01*
X171123849Y-98948086D01*
X171134512Y-98914269D01*
X171135383Y-98911704D01*
X171151209Y-98868231D01*
X171152188Y-98865713D01*
X171165741Y-98832994D01*
X171166830Y-98830518D01*
X171286248Y-98574428D01*
X171287445Y-98572001D01*
X171303810Y-98540565D01*
X171305112Y-98538194D01*
X171328243Y-98498131D01*
X171329645Y-98495819D01*
X171348680Y-98465939D01*
X171350184Y-98463689D01*
X171377274Y-98424999D01*
X171350181Y-98386307D01*
X171348677Y-98384057D01*
X171329631Y-98354160D01*
X171328226Y-98351845D01*
X171305096Y-98311778D01*
X171303795Y-98309408D01*
X171287440Y-98277988D01*
X171286243Y-98275563D01*
X171192066Y-98073600D01*
X170372259Y-98073600D01*
X169374259Y-98073600D01*
X167872259Y-98073600D01*
X166874259Y-98073600D01*
X165372259Y-98073600D01*
X163214890Y-98073600D01*
X162872259Y-98073600D01*
X161289792Y-98073600D01*
X160771819Y-97555627D01*
X160738334Y-97494304D01*
X160735500Y-97467946D01*
X160735500Y-96835837D01*
X160737224Y-96820217D01*
X160736939Y-96820190D01*
X160737673Y-96812428D01*
X160735531Y-96744234D01*
X160735500Y-96742287D01*
X160735500Y-96713751D01*
X160735500Y-96713745D01*
X160734631Y-96706874D01*
X160734173Y-96701047D01*
X160733780Y-96688536D01*
X160732710Y-96654468D01*
X160727119Y-96635225D01*
X160723173Y-96616173D01*
X160720664Y-96596303D01*
X160703504Y-96552962D01*
X160701624Y-96547474D01*
X160688618Y-96502705D01*
X160683814Y-96494582D01*
X160678419Y-96485459D01*
X160669858Y-96467983D01*
X160662487Y-96449365D01*
X160660492Y-96446619D01*
X160635090Y-96411655D01*
X160631892Y-96406786D01*
X160608173Y-96366678D01*
X160608166Y-96366669D01*
X160594005Y-96352508D01*
X160581370Y-96337715D01*
X160569593Y-96321507D01*
X160533693Y-96291808D01*
X160529381Y-96287885D01*
X159815096Y-95573600D01*
X161231206Y-95573600D01*
X161231419Y-95573776D01*
X161234343Y-95576354D01*
X161271559Y-95611304D01*
X161274314Y-95614059D01*
X161319927Y-95662635D01*
X161322503Y-95665557D01*
X161347676Y-95695987D01*
X161373848Y-95725672D01*
X161376332Y-95728675D01*
X161417176Y-95781333D01*
X161419466Y-95784485D01*
X161448152Y-95826697D01*
X161450240Y-95829987D01*
X161468447Y-95860775D01*
X161489465Y-95889703D01*
X161491655Y-95892926D01*
X161519001Y-95936016D01*
X161520984Y-95939368D01*
X161553091Y-95997769D01*
X161554860Y-96001241D01*
X161571684Y-96036997D01*
X161589642Y-96072240D01*
X161591300Y-96075764D01*
X161617769Y-96136926D01*
X161619203Y-96140549D01*
X161636495Y-96188580D01*
X161637699Y-96192286D01*
X161647677Y-96226632D01*
X161660842Y-96259882D01*
X161662162Y-96263547D01*
X161677931Y-96312080D01*
X161679018Y-96315820D01*
X161695596Y-96380379D01*
X161696447Y-96384185D01*
X161703850Y-96423003D01*
X161712479Y-96461601D01*
X161713209Y-96465430D01*
X161723636Y-96531260D01*
X161724125Y-96535127D01*
X161728927Y-96585944D01*
X161729172Y-96589833D01*
X161730662Y-96637290D01*
X161732574Y-96667655D01*
X161732666Y-96669601D01*
X161733469Y-96695126D01*
X161733500Y-96697077D01*
X161733500Y-96727586D01*
X161736227Y-96814399D01*
X161736227Y-96818295D01*
X161734622Y-96869320D01*
X161734378Y-96873211D01*
X161733500Y-96882490D01*
X161733500Y-97075600D01*
X161874259Y-97075600D01*
X161874259Y-95959100D01*
X165372259Y-95959100D01*
X165372259Y-97075600D01*
X166874259Y-97075600D01*
X167872259Y-97075600D01*
X169374259Y-97075600D01*
X169374259Y-96026123D01*
X169163967Y-96119753D01*
X169160967Y-96120996D01*
X169121254Y-96136241D01*
X169118191Y-96137325D01*
X169065383Y-96154482D01*
X169062272Y-96155403D01*
X169021204Y-96166407D01*
X169018047Y-96167165D01*
X168778592Y-96218062D01*
X168775400Y-96218653D01*
X168733416Y-96225303D01*
X168730201Y-96225726D01*
X168674985Y-96231533D01*
X168671746Y-96231788D01*
X168629262Y-96234015D01*
X168626016Y-96234100D01*
X168381184Y-96234100D01*
X168377938Y-96234015D01*
X168335454Y-96231788D01*
X168332215Y-96231533D01*
X168276999Y-96225726D01*
X168273784Y-96225303D01*
X168231800Y-96218653D01*
X168228608Y-96218062D01*
X167989153Y-96167165D01*
X167985996Y-96166407D01*
X167944928Y-96155403D01*
X167941817Y-96154482D01*
X167889009Y-96137325D01*
X167885946Y-96136241D01*
X167872259Y-96130986D01*
X167872259Y-97075600D01*
X166874259Y-97075600D01*
X166874259Y-95959100D01*
X165372259Y-95959100D01*
X161874259Y-95959100D01*
X161874259Y-95573600D01*
X170372259Y-95573600D01*
X170372259Y-97075600D01*
X171004476Y-97075600D01*
X171027751Y-96809568D01*
X171028045Y-96806879D01*
X171032669Y-96771755D01*
X171033081Y-96769081D01*
X171041114Y-96723522D01*
X171041641Y-96720867D01*
X171049312Y-96686268D01*
X171049955Y-96683641D01*
X171123091Y-96410685D01*
X171123849Y-96408086D01*
X171134512Y-96374269D01*
X171135383Y-96371704D01*
X171151209Y-96328231D01*
X171152188Y-96325713D01*
X171165741Y-96292994D01*
X171166830Y-96290518D01*
X171286248Y-96034428D01*
X171287445Y-96032001D01*
X171303810Y-96000565D01*
X171305112Y-95998194D01*
X171328243Y-95958131D01*
X171329645Y-95955819D01*
X171348680Y-95925939D01*
X171350184Y-95923689D01*
X171377274Y-95884999D01*
X171350181Y-95846307D01*
X171348677Y-95844057D01*
X171329631Y-95814160D01*
X171328226Y-95811845D01*
X171305096Y-95771778D01*
X171303795Y-95769408D01*
X171287440Y-95737988D01*
X171286243Y-95735563D01*
X171210718Y-95573600D01*
X170372259Y-95573600D01*
X161874259Y-95573600D01*
X161231206Y-95573600D01*
X159815096Y-95573600D01*
X157888508Y-93647012D01*
X157878685Y-93634750D01*
X157878464Y-93634934D01*
X157873491Y-93628922D01*
X157823771Y-93582232D01*
X157822371Y-93580875D01*
X157802181Y-93560684D01*
X157796691Y-93556425D01*
X157792266Y-93552647D01*
X157758287Y-93520738D01*
X157758285Y-93520736D01*
X157758282Y-93520735D01*
X157740734Y-93511088D01*
X157724468Y-93500404D01*
X157708638Y-93488125D01*
X157665873Y-93469618D01*
X157660627Y-93467048D01*
X157619798Y-93444603D01*
X157619797Y-93444602D01*
X157600398Y-93439622D01*
X157581986Y-93433318D01*
X157563603Y-93425362D01*
X157563597Y-93425360D01*
X157517579Y-93418072D01*
X157511857Y-93416887D01*
X157466726Y-93405300D01*
X157466724Y-93405300D01*
X157446689Y-93405300D01*
X157427291Y-93403773D01*
X157419867Y-93402597D01*
X157407510Y-93400640D01*
X157407509Y-93400640D01*
X157361121Y-93405025D01*
X157355283Y-93405300D01*
X155937648Y-93405300D01*
X155870609Y-93385615D01*
X155849967Y-93368981D01*
X155554586Y-93073600D01*
X160372259Y-93073600D01*
X160372259Y-94575600D01*
X161874259Y-94575600D01*
X161874259Y-93812233D01*
X161135626Y-93073600D01*
X160372259Y-93073600D01*
X155554586Y-93073600D01*
X152454615Y-89973628D01*
X152421130Y-89912305D01*
X152426114Y-89842613D01*
X152454613Y-89798267D01*
X152512064Y-89740817D01*
X152573389Y-89707333D01*
X152599745Y-89704500D01*
X153253062Y-89704500D01*
X153268682Y-89706224D01*
X153268709Y-89705939D01*
X153276471Y-89706673D01*
X153276471Y-89706672D01*
X153276472Y-89706673D01*
X153279804Y-89706568D01*
X153344652Y-89704531D01*
X153346599Y-89704500D01*
X153375152Y-89704500D01*
X153375155Y-89704500D01*
X153382033Y-89703630D01*
X153387846Y-89703172D01*
X153434432Y-89701709D01*
X153453674Y-89696117D01*
X153472717Y-89692174D01*
X153492597Y-89689664D01*
X153535927Y-89672507D01*
X153541451Y-89670617D01*
X153545201Y-89669527D01*
X153586195Y-89657618D01*
X153603434Y-89647422D01*
X153620908Y-89638862D01*
X153639533Y-89631488D01*
X153639534Y-89631487D01*
X153639537Y-89631486D01*
X153677239Y-89604092D01*
X153682100Y-89600898D01*
X153710452Y-89584131D01*
X153778176Y-89566951D01*
X153844438Y-89589111D01*
X153865721Y-89607893D01*
X153878629Y-89622229D01*
X154031765Y-89733489D01*
X154031770Y-89733492D01*
X154204692Y-89810483D01*
X154204697Y-89810485D01*
X154389854Y-89849841D01*
X154389855Y-89849841D01*
X154579144Y-89849841D01*
X154579146Y-89849841D01*
X154764303Y-89810485D01*
X154937230Y-89733492D01*
X155090371Y-89622229D01*
X155217033Y-89481557D01*
X155311679Y-89317625D01*
X155370174Y-89137597D01*
X155389960Y-88949341D01*
X155370174Y-88761085D01*
X155311679Y-88581057D01*
X155217033Y-88417125D01*
X155209607Y-88408878D01*
X155141850Y-88333625D01*
X155111620Y-88270633D01*
X155110000Y-88250653D01*
X155110000Y-87968437D01*
X155111724Y-87952823D01*
X155111438Y-87952796D01*
X155112172Y-87945033D01*
X155110031Y-87876871D01*
X155110000Y-87874924D01*
X155110000Y-87846351D01*
X155110000Y-87846350D01*
X155109129Y-87839459D01*
X155108672Y-87833645D01*
X155107209Y-87787072D01*
X155101622Y-87767844D01*
X155097674Y-87748784D01*
X155095164Y-87728908D01*
X155078007Y-87685575D01*
X155076119Y-87680059D01*
X155063119Y-87635312D01*
X155052918Y-87618063D01*
X155044360Y-87600594D01*
X155036986Y-87581968D01*
X155036983Y-87581964D01*
X155036983Y-87581963D01*
X155009598Y-87544271D01*
X155006390Y-87539387D01*
X154982672Y-87499282D01*
X154982663Y-87499271D01*
X154968505Y-87485113D01*
X154955870Y-87470320D01*
X154944093Y-87454112D01*
X154908193Y-87424413D01*
X154903881Y-87420490D01*
X154004602Y-86521211D01*
X153994780Y-86508950D01*
X153994559Y-86509134D01*
X153989586Y-86503122D01*
X153939866Y-86456432D01*
X153938466Y-86455075D01*
X153918276Y-86434884D01*
X153912786Y-86430625D01*
X153908361Y-86426847D01*
X153874382Y-86394938D01*
X153874380Y-86394936D01*
X153874377Y-86394935D01*
X153856829Y-86385288D01*
X153840563Y-86374604D01*
X153824736Y-86362327D01*
X153824735Y-86362326D01*
X153824733Y-86362325D01*
X153781968Y-86343818D01*
X153776722Y-86341248D01*
X153735893Y-86318803D01*
X153735892Y-86318802D01*
X153716493Y-86313822D01*
X153698081Y-86307518D01*
X153679698Y-86299562D01*
X153679692Y-86299560D01*
X153633674Y-86292272D01*
X153627952Y-86291087D01*
X153582821Y-86279500D01*
X153582819Y-86279500D01*
X153562784Y-86279500D01*
X153543386Y-86277973D01*
X153535962Y-86276797D01*
X153523605Y-86274840D01*
X153523604Y-86274840D01*
X153477216Y-86279225D01*
X153471378Y-86279500D01*
X151443647Y-86279500D01*
X151376608Y-86259815D01*
X151330853Y-86207011D01*
X151320909Y-86137853D01*
X151321173Y-86136104D01*
X151327667Y-86095101D01*
X151357595Y-86031969D01*
X151416905Y-85995037D01*
X151450140Y-85990500D01*
X151535144Y-85990500D01*
X151535146Y-85990500D01*
X151720303Y-85951144D01*
X151893230Y-85874151D01*
X152046371Y-85762888D01*
X152049288Y-85759647D01*
X152052100Y-85756526D01*
X152111587Y-85719879D01*
X152144248Y-85715500D01*
X154247657Y-85715500D01*
X154263277Y-85717224D01*
X154263304Y-85716939D01*
X154271066Y-85717673D01*
X154271066Y-85717672D01*
X154271067Y-85717673D01*
X154274399Y-85717568D01*
X154339247Y-85715531D01*
X154341194Y-85715500D01*
X154369747Y-85715500D01*
X154369750Y-85715500D01*
X154376628Y-85714630D01*
X154382441Y-85714172D01*
X154429027Y-85712709D01*
X154448269Y-85707117D01*
X154467312Y-85703174D01*
X154487192Y-85700664D01*
X154530522Y-85683507D01*
X154536046Y-85681617D01*
X154539796Y-85680527D01*
X154580790Y-85668618D01*
X154598029Y-85658422D01*
X154615503Y-85649862D01*
X154634127Y-85642488D01*
X154634127Y-85642487D01*
X154634132Y-85642486D01*
X154671849Y-85615082D01*
X154676705Y-85611892D01*
X154716820Y-85588170D01*
X154730989Y-85573999D01*
X154745779Y-85561368D01*
X154761987Y-85549594D01*
X154791699Y-85513676D01*
X154795612Y-85509376D01*
X156642821Y-83662168D01*
X156704142Y-83628685D01*
X156773834Y-83633669D01*
G37*
%TD.AperFunction*%
%TA.AperFunction,Conductor*%
G36*
X157144292Y-94675985D02*
G01*
X157164934Y-94692619D01*
X159187799Y-96715484D01*
X159221284Y-96776807D01*
X159216300Y-96846499D01*
X159174428Y-96902432D01*
X159125901Y-96924455D01*
X159105194Y-96928856D01*
X159105192Y-96928857D01*
X158932270Y-97005848D01*
X158932265Y-97005851D01*
X158779130Y-97117110D01*
X158779126Y-97117114D01*
X158773400Y-97123474D01*
X158713913Y-97160121D01*
X158681252Y-97164500D01*
X158425452Y-97164500D01*
X158358413Y-97144815D01*
X158337771Y-97128181D01*
X156077571Y-94867981D01*
X156044086Y-94806658D01*
X156049070Y-94736966D01*
X156090942Y-94681033D01*
X156156406Y-94656616D01*
X156165252Y-94656300D01*
X157077253Y-94656300D01*
X157144292Y-94675985D01*
G37*
%TD.AperFunction*%
%TA.AperFunction,Conductor*%
G36*
X147695173Y-86370185D02*
G01*
X147740928Y-86422989D01*
X147752134Y-86474500D01*
X147752134Y-87295094D01*
X147750409Y-87310711D01*
X147750695Y-87310738D01*
X147749960Y-87318505D01*
X147752103Y-87386685D01*
X147752134Y-87388632D01*
X147752134Y-87417182D01*
X147752135Y-87417199D01*
X147753002Y-87424070D01*
X147753460Y-87429889D01*
X147754924Y-87476463D01*
X147754925Y-87476466D01*
X147760514Y-87495706D01*
X147764458Y-87514750D01*
X147766970Y-87534631D01*
X147770468Y-87543466D01*
X147784124Y-87577958D01*
X147786016Y-87583486D01*
X147799015Y-87628227D01*
X147809214Y-87645473D01*
X147817772Y-87662942D01*
X147825148Y-87681571D01*
X147852532Y-87719262D01*
X147855740Y-87724146D01*
X147879461Y-87764255D01*
X147879467Y-87764263D01*
X147893624Y-87778419D01*
X147906261Y-87793214D01*
X147918040Y-87809426D01*
X147948765Y-87834844D01*
X147953943Y-87839127D01*
X147958254Y-87843049D01*
X148060237Y-87945032D01*
X148131381Y-88016176D01*
X148164866Y-88077499D01*
X148167700Y-88103857D01*
X148167700Y-88366955D01*
X148165975Y-88382572D01*
X148166261Y-88382599D01*
X148165526Y-88390366D01*
X148167669Y-88458546D01*
X148167700Y-88460493D01*
X148167700Y-88489043D01*
X148167701Y-88489060D01*
X148168568Y-88495931D01*
X148169026Y-88501750D01*
X148170490Y-88548324D01*
X148170491Y-88548327D01*
X148176080Y-88567567D01*
X148180024Y-88586611D01*
X148181095Y-88595092D01*
X148182535Y-88606490D01*
X148191523Y-88629191D01*
X148199550Y-88687795D01*
X148193680Y-88743655D01*
X148192540Y-88754500D01*
X148212326Y-88942756D01*
X148212327Y-88942759D01*
X148270818Y-89122777D01*
X148270821Y-89122784D01*
X148365467Y-89286716D01*
X148455793Y-89387033D01*
X148492128Y-89427387D01*
X148492129Y-89427388D01*
X148645265Y-89538648D01*
X148645270Y-89538651D01*
X148818192Y-89615642D01*
X148818197Y-89615644D01*
X149003354Y-89655000D01*
X149003355Y-89655000D01*
X149192644Y-89655000D01*
X149192646Y-89655000D01*
X149377803Y-89615644D01*
X149550730Y-89538651D01*
X149672617Y-89450094D01*
X149738420Y-89426616D01*
X149806474Y-89442441D01*
X149855169Y-89492547D01*
X149869500Y-89550414D01*
X149869500Y-91357255D01*
X149867775Y-91372872D01*
X149868061Y-91372899D01*
X149867326Y-91380666D01*
X149869469Y-91448846D01*
X149869500Y-91450793D01*
X149869500Y-91479343D01*
X149869501Y-91479360D01*
X149870368Y-91486231D01*
X149870826Y-91492050D01*
X149872290Y-91538624D01*
X149872291Y-91538627D01*
X149877880Y-91557867D01*
X149881824Y-91576911D01*
X149884336Y-91596792D01*
X149898901Y-91633579D01*
X149901490Y-91640119D01*
X149903382Y-91645647D01*
X149904506Y-91649517D01*
X149916382Y-91690390D01*
X149924329Y-91703829D01*
X149926580Y-91707634D01*
X149935136Y-91725100D01*
X149942514Y-91743732D01*
X149967635Y-91778309D01*
X149969898Y-91781423D01*
X149973106Y-91786307D01*
X149996827Y-91826416D01*
X149996833Y-91826424D01*
X150010990Y-91840580D01*
X150023628Y-91855376D01*
X150035405Y-91871586D01*
X150035406Y-91871587D01*
X150071309Y-91901288D01*
X150075620Y-91905210D01*
X150317299Y-92146889D01*
X150502194Y-92331784D01*
X150512017Y-92344045D01*
X150512239Y-92343863D01*
X150517211Y-92349873D01*
X150517214Y-92349877D01*
X150558098Y-92388270D01*
X150566933Y-92396567D01*
X150568332Y-92397923D01*
X150588523Y-92418115D01*
X150588527Y-92418118D01*
X150588529Y-92418120D01*
X150594011Y-92422373D01*
X150598443Y-92426157D01*
X150632418Y-92458062D01*
X150649976Y-92467714D01*
X150666235Y-92478395D01*
X150682064Y-92490673D01*
X150724838Y-92509182D01*
X150730056Y-92511738D01*
X150770908Y-92534197D01*
X150790316Y-92539180D01*
X150808717Y-92545480D01*
X150827104Y-92553437D01*
X150870488Y-92560308D01*
X150873119Y-92560725D01*
X150878839Y-92561909D01*
X150923981Y-92573500D01*
X150944016Y-92573500D01*
X150963415Y-92575027D01*
X150983196Y-92578160D01*
X151023434Y-92574356D01*
X151029582Y-92573775D01*
X151035420Y-92573500D01*
X151326152Y-92573500D01*
X151393191Y-92593185D01*
X151413833Y-92609819D01*
X151700218Y-92896204D01*
X151733703Y-92957527D01*
X151728719Y-93027219D01*
X151686847Y-93083152D01*
X151621383Y-93107569D01*
X151562101Y-93097164D01*
X151409807Y-93029357D01*
X151409802Y-93029355D01*
X151264000Y-92998365D01*
X151224646Y-92990000D01*
X151035354Y-92990000D01*
X151002897Y-92996898D01*
X150850197Y-93029355D01*
X150850192Y-93029357D01*
X150677270Y-93106348D01*
X150677265Y-93106351D01*
X150567885Y-93185821D01*
X150502079Y-93209301D01*
X150434025Y-93193475D01*
X150422115Y-93185821D01*
X150312734Y-93106351D01*
X150312729Y-93106348D01*
X150139807Y-93029357D01*
X150139802Y-93029355D01*
X149994000Y-92998365D01*
X149954646Y-92990000D01*
X149765354Y-92990000D01*
X149732897Y-92996898D01*
X149580197Y-93029355D01*
X149580192Y-93029357D01*
X149407270Y-93106348D01*
X149407265Y-93106351D01*
X149254129Y-93217611D01*
X149127467Y-93358283D01*
X149121655Y-93368350D01*
X149113485Y-93382500D01*
X149062920Y-93430715D01*
X149006099Y-93444500D01*
X148982568Y-93444500D01*
X148915529Y-93424815D01*
X148869774Y-93372011D01*
X148859247Y-93333462D01*
X148840674Y-93156744D01*
X148782179Y-92976716D01*
X148734709Y-92894497D01*
X148718237Y-92826598D01*
X148741090Y-92760571D01*
X148749951Y-92749522D01*
X148763730Y-92734219D01*
X148763733Y-92734216D01*
X148858379Y-92570284D01*
X148916874Y-92390256D01*
X148936660Y-92202000D01*
X148916874Y-92013744D01*
X148858379Y-91833716D01*
X148763733Y-91669784D01*
X148637071Y-91529112D01*
X148637070Y-91529111D01*
X148483934Y-91417851D01*
X148483929Y-91417848D01*
X148311007Y-91340857D01*
X148311002Y-91340855D01*
X148165201Y-91309865D01*
X148125846Y-91301500D01*
X147936554Y-91301500D01*
X147904097Y-91308398D01*
X147751397Y-91340855D01*
X147751392Y-91340857D01*
X147578470Y-91417848D01*
X147578465Y-91417851D01*
X147425330Y-91529110D01*
X147425324Y-91529116D01*
X147421249Y-91533642D01*
X147361761Y-91570288D01*
X147332998Y-91574605D01*
X147273673Y-91576469D01*
X147271725Y-91576500D01*
X147243150Y-91576500D01*
X147242429Y-91576590D01*
X147236257Y-91577369D01*
X147230445Y-91577826D01*
X147183873Y-91579290D01*
X147183872Y-91579290D01*
X147164629Y-91584881D01*
X147145579Y-91588825D01*
X147125711Y-91591334D01*
X147082384Y-91608488D01*
X147076858Y-91610379D01*
X147032114Y-91623379D01*
X147032110Y-91623381D01*
X147014866Y-91633579D01*
X146997405Y-91642133D01*
X146978774Y-91649510D01*
X146978762Y-91649517D01*
X146941070Y-91676902D01*
X146936187Y-91680109D01*
X146896080Y-91703829D01*
X146881914Y-91717995D01*
X146867124Y-91730627D01*
X146850914Y-91742404D01*
X146850911Y-91742407D01*
X146821210Y-91778309D01*
X146817277Y-91782631D01*
X143761208Y-94838699D01*
X143748951Y-94848520D01*
X143749134Y-94848741D01*
X143743122Y-94853714D01*
X143696432Y-94903432D01*
X143695079Y-94904829D01*
X143674889Y-94925019D01*
X143674877Y-94925032D01*
X143670621Y-94930517D01*
X143666837Y-94934947D01*
X143634937Y-94968918D01*
X143634936Y-94968920D01*
X143625284Y-94986476D01*
X143614610Y-95002726D01*
X143602329Y-95018561D01*
X143602324Y-95018568D01*
X143583815Y-95061338D01*
X143581245Y-95066584D01*
X143558803Y-95107406D01*
X143553822Y-95126807D01*
X143547521Y-95145210D01*
X143539562Y-95163602D01*
X143539561Y-95163605D01*
X143532271Y-95209627D01*
X143531087Y-95215346D01*
X143519501Y-95260472D01*
X143519500Y-95260482D01*
X143519500Y-95280516D01*
X143517973Y-95299915D01*
X143514840Y-95319694D01*
X143514840Y-95319695D01*
X143519225Y-95366083D01*
X143519500Y-95371921D01*
X143519500Y-96489059D01*
X143499815Y-96556098D01*
X143447011Y-96601853D01*
X143377853Y-96611797D01*
X143369724Y-96610350D01*
X143249046Y-96584700D01*
X143249042Y-96584700D01*
X143189852Y-96584700D01*
X143122813Y-96565015D01*
X143102171Y-96548381D01*
X140666619Y-94112828D01*
X140633134Y-94051505D01*
X140630300Y-94025147D01*
X140630300Y-93408687D01*
X140649985Y-93341648D01*
X140662150Y-93325715D01*
X140680691Y-93305122D01*
X140737333Y-93242216D01*
X140831979Y-93078284D01*
X140833501Y-93073600D01*
X142872259Y-93073600D01*
X142872259Y-94324777D01*
X142882028Y-94312969D01*
X142884601Y-94310050D01*
X142917141Y-94275394D01*
X142937252Y-94252581D01*
X142938561Y-94251142D01*
X142956035Y-94232532D01*
X142957391Y-94231132D01*
X142978993Y-94209528D01*
X143038428Y-94146241D01*
X143041181Y-94143488D01*
X143078362Y-94108572D01*
X143081281Y-94105999D01*
X143088480Y-94100041D01*
X144114922Y-93073600D01*
X142872259Y-93073600D01*
X140833501Y-93073600D01*
X140890474Y-92898256D01*
X140910260Y-92710000D01*
X140890474Y-92521744D01*
X140831979Y-92341716D01*
X140737333Y-92177784D01*
X140645326Y-92075600D01*
X142872259Y-92075600D01*
X144374259Y-92075600D01*
X144374259Y-90882937D01*
X144364739Y-90863819D01*
X144356473Y-90842481D01*
X144313379Y-90691022D01*
X144283926Y-90708439D01*
X144255008Y-90729452D01*
X144251786Y-90731642D01*
X144208698Y-90758989D01*
X144205343Y-90760973D01*
X144146937Y-90793084D01*
X144143464Y-90794853D01*
X144107641Y-90811709D01*
X144072448Y-90829644D01*
X144068919Y-90831305D01*
X144007750Y-90857774D01*
X144004128Y-90859208D01*
X143956111Y-90876495D01*
X143952405Y-90877699D01*
X143918062Y-90887675D01*
X143884802Y-90900845D01*
X143881136Y-90902165D01*
X143832592Y-90917938D01*
X143828849Y-90919025D01*
X143764286Y-90935601D01*
X143760481Y-90936452D01*
X143721619Y-90943862D01*
X143683136Y-90952469D01*
X143679307Y-90953199D01*
X143613468Y-90963631D01*
X143609599Y-90964120D01*
X143558760Y-90968926D01*
X143554869Y-90969171D01*
X143507440Y-90970659D01*
X143477028Y-90972575D01*
X143475078Y-90972667D01*
X143449557Y-90973469D01*
X143447609Y-90973500D01*
X143417097Y-90973500D01*
X143330299Y-90976227D01*
X143326402Y-90976227D01*
X143275378Y-90974623D01*
X143271489Y-90974378D01*
X143262207Y-90973500D01*
X142872259Y-90973500D01*
X142872259Y-92075600D01*
X140645326Y-92075600D01*
X140610671Y-92037112D01*
X140610670Y-92037111D01*
X140457534Y-91925851D01*
X140457529Y-91925848D01*
X140284607Y-91848857D01*
X140284602Y-91848855D01*
X140138800Y-91817865D01*
X140099446Y-91809500D01*
X140029300Y-91809500D01*
X139962261Y-91789815D01*
X139916506Y-91737011D01*
X139905300Y-91685500D01*
X139905300Y-91561052D01*
X139924985Y-91494013D01*
X139941619Y-91473371D01*
X141403172Y-90011819D01*
X141464495Y-89978334D01*
X141490853Y-89975500D01*
X143308853Y-89975500D01*
X143324473Y-89977224D01*
X143324500Y-89976939D01*
X143332262Y-89977673D01*
X143332262Y-89977672D01*
X143332263Y-89977673D01*
X143335595Y-89977568D01*
X143400443Y-89975531D01*
X143402390Y-89975500D01*
X143430943Y-89975500D01*
X143430946Y-89975500D01*
X143437824Y-89974630D01*
X143443637Y-89974172D01*
X143490223Y-89972709D01*
X143509465Y-89967117D01*
X143528508Y-89963174D01*
X143548388Y-89960664D01*
X143591718Y-89943507D01*
X143597242Y-89941617D01*
X143600992Y-89940527D01*
X143641986Y-89928618D01*
X143659225Y-89918422D01*
X143676699Y-89909862D01*
X143695323Y-89902488D01*
X143695323Y-89902487D01*
X143695328Y-89902486D01*
X143733045Y-89875082D01*
X143737901Y-89871892D01*
X143778016Y-89848170D01*
X143792185Y-89833999D01*
X143806975Y-89821368D01*
X143823183Y-89809594D01*
X143852895Y-89773676D01*
X143856808Y-89769376D01*
X144535064Y-89091120D01*
X145946447Y-89091120D01*
X145952087Y-89092175D01*
X145974096Y-89098437D01*
X146181472Y-89178775D01*
X146201956Y-89188975D01*
X146391038Y-89306050D01*
X146409298Y-89319840D01*
X146573648Y-89469665D01*
X146589064Y-89486575D01*
X146656293Y-89575600D01*
X146874259Y-89575600D01*
X146874259Y-88163309D01*
X145946447Y-89091120D01*
X144535064Y-89091120D01*
X147239367Y-86386819D01*
X147300691Y-86353334D01*
X147327049Y-86350500D01*
X147628134Y-86350500D01*
X147695173Y-86370185D01*
G37*
%TD.AperFunction*%
%TA.AperFunction,Conductor*%
G36*
X172177183Y-77845285D02*
G01*
X172197453Y-77861548D01*
X175104089Y-80743759D01*
X175147111Y-80786419D01*
X175180854Y-80847600D01*
X175183800Y-80874469D01*
X175183800Y-83844696D01*
X175164115Y-83911735D01*
X175111311Y-83957490D01*
X175042153Y-83967434D01*
X174980762Y-83940242D01*
X174948690Y-83913710D01*
X174944366Y-83909776D01*
X174690237Y-83655647D01*
X174656752Y-83594324D01*
X174658143Y-83535872D01*
X174665322Y-83509081D01*
X174685063Y-83435408D01*
X174705659Y-83200000D01*
X174685063Y-82964592D01*
X174623903Y-82736337D01*
X174524035Y-82522171D01*
X174512992Y-82506399D01*
X174388494Y-82328597D01*
X174221402Y-82161506D01*
X174221395Y-82161501D01*
X174220652Y-82160981D01*
X174156193Y-82115846D01*
X174027834Y-82025967D01*
X174027830Y-82025965D01*
X173989102Y-82007906D01*
X173813663Y-81926097D01*
X173813659Y-81926096D01*
X173813655Y-81926094D01*
X173585413Y-81864938D01*
X173585403Y-81864936D01*
X173350001Y-81844341D01*
X173349999Y-81844341D01*
X173114596Y-81864936D01*
X173114586Y-81864938D01*
X172886344Y-81926094D01*
X172886335Y-81926098D01*
X172672171Y-82025964D01*
X172672169Y-82025965D01*
X172478600Y-82161503D01*
X172356673Y-82283430D01*
X172295350Y-82316914D01*
X172225658Y-82311930D01*
X172169725Y-82270058D01*
X172152810Y-82239081D01*
X172103797Y-82107671D01*
X172103793Y-82107664D01*
X172017547Y-81992455D01*
X172017544Y-81992452D01*
X171902335Y-81906206D01*
X171902328Y-81906202D01*
X171767482Y-81855908D01*
X171767483Y-81855908D01*
X171707883Y-81849501D01*
X171707881Y-81849500D01*
X171707873Y-81849500D01*
X171707864Y-81849500D01*
X169912129Y-81849500D01*
X169912123Y-81849501D01*
X169852516Y-81855908D01*
X169717671Y-81906202D01*
X169717664Y-81906206D01*
X169602455Y-81992452D01*
X169602452Y-81992455D01*
X169516206Y-82107664D01*
X169516202Y-82107671D01*
X169465908Y-82242517D01*
X169459501Y-82302116D01*
X169459500Y-82302135D01*
X169459500Y-82450500D01*
X169439815Y-82517539D01*
X169387011Y-82563294D01*
X169335500Y-82574500D01*
X164532737Y-82574500D01*
X164517120Y-82572776D01*
X164517093Y-82573062D01*
X164509331Y-82572327D01*
X164441171Y-82574469D01*
X164439224Y-82574500D01*
X164410650Y-82574500D01*
X164409929Y-82574590D01*
X164403757Y-82575369D01*
X164397945Y-82575826D01*
X164351378Y-82577290D01*
X164351367Y-82577292D01*
X164332134Y-82582879D01*
X164313094Y-82586822D01*
X164293217Y-82589334D01*
X164293210Y-82589335D01*
X164293208Y-82589336D01*
X164293206Y-82589336D01*
X164293205Y-82589337D01*
X164249868Y-82606494D01*
X164244342Y-82608386D01*
X164199611Y-82621382D01*
X164199608Y-82621383D01*
X164182363Y-82631581D01*
X164164901Y-82640135D01*
X164146272Y-82647511D01*
X164146267Y-82647513D01*
X164108564Y-82674906D01*
X164103682Y-82678112D01*
X164063580Y-82701828D01*
X164049408Y-82716000D01*
X164034623Y-82728628D01*
X164018412Y-82740407D01*
X163988709Y-82776310D01*
X163984777Y-82780631D01*
X162249720Y-84515687D01*
X162188397Y-84549172D01*
X162118705Y-84544188D01*
X162069889Y-84510979D01*
X161985371Y-84417112D01*
X161972206Y-84407547D01*
X161832234Y-84305851D01*
X161832229Y-84305848D01*
X161659307Y-84228857D01*
X161659302Y-84228855D01*
X161513501Y-84197865D01*
X161474146Y-84189500D01*
X161474145Y-84189500D01*
X161411968Y-84189500D01*
X161344929Y-84169815D01*
X161327082Y-84155890D01*
X161321641Y-84150781D01*
X161309881Y-84139737D01*
X161292329Y-84130087D01*
X161276062Y-84119403D01*
X161273716Y-84117583D01*
X161260235Y-84107126D01*
X161260234Y-84107125D01*
X161260232Y-84107124D01*
X161217467Y-84088617D01*
X161212221Y-84086047D01*
X161171392Y-84063602D01*
X161171391Y-84063601D01*
X161151992Y-84058621D01*
X161133580Y-84052317D01*
X161115197Y-84044361D01*
X161115191Y-84044359D01*
X161069173Y-84037071D01*
X161063451Y-84035886D01*
X161018320Y-84024299D01*
X161018318Y-84024299D01*
X160998283Y-84024299D01*
X160978885Y-84022772D01*
X160971461Y-84021596D01*
X160959104Y-84019639D01*
X160959103Y-84019639D01*
X160912715Y-84024024D01*
X160906877Y-84024299D01*
X159893949Y-84024299D01*
X159826910Y-84004614D01*
X159801801Y-83983273D01*
X159796074Y-83976913D01*
X159796070Y-83976909D01*
X159642935Y-83865650D01*
X159642930Y-83865647D01*
X159470008Y-83788656D01*
X159470003Y-83788654D01*
X159324202Y-83757664D01*
X159284847Y-83749299D01*
X159095555Y-83749299D01*
X159063098Y-83756197D01*
X158910398Y-83788654D01*
X158910393Y-83788656D01*
X158737471Y-83865647D01*
X158737466Y-83865650D01*
X158584330Y-83976910D01*
X158457667Y-84117584D01*
X158363022Y-84281514D01*
X158363019Y-84281521D01*
X158347431Y-84329498D01*
X158307993Y-84387174D01*
X158243635Y-84414372D01*
X158174788Y-84402457D01*
X158123313Y-84355213D01*
X158105500Y-84291180D01*
X158105500Y-82632742D01*
X158107224Y-82617122D01*
X158106939Y-82617096D01*
X158107673Y-82609333D01*
X158105531Y-82541152D01*
X158105500Y-82539205D01*
X158105500Y-82510654D01*
X158105500Y-82510650D01*
X158104631Y-82503772D01*
X158104172Y-82497943D01*
X158102709Y-82451372D01*
X158097122Y-82432144D01*
X158093174Y-82413084D01*
X158090664Y-82393208D01*
X158090663Y-82393206D01*
X158090663Y-82393204D01*
X158073512Y-82349887D01*
X158071619Y-82344359D01*
X158061374Y-82309097D01*
X158061572Y-82239228D01*
X158092767Y-82186821D01*
X159607770Y-80671819D01*
X159669094Y-80638334D01*
X159695452Y-80635500D01*
X162491252Y-80635500D01*
X162558291Y-80655185D01*
X162583400Y-80676526D01*
X162589126Y-80682885D01*
X162589130Y-80682889D01*
X162742265Y-80794148D01*
X162742270Y-80794151D01*
X162915192Y-80871142D01*
X162915197Y-80871144D01*
X163100354Y-80910500D01*
X163100355Y-80910500D01*
X163289644Y-80910500D01*
X163289646Y-80910500D01*
X163474803Y-80871144D01*
X163647730Y-80794151D01*
X163800871Y-80682888D01*
X163899275Y-80573600D01*
X167872259Y-80573600D01*
X167872259Y-81576500D01*
X168670863Y-81576500D01*
X168692050Y-81543534D01*
X168694575Y-81539897D01*
X168826212Y-81364055D01*
X168828989Y-81360608D01*
X168866968Y-81316778D01*
X168869985Y-81313537D01*
X168923537Y-81259985D01*
X168926778Y-81256968D01*
X168970608Y-81218989D01*
X168974055Y-81216212D01*
X169149897Y-81084575D01*
X169153534Y-81082050D01*
X169202325Y-81050693D01*
X169206133Y-81048433D01*
X169272609Y-81012134D01*
X169276568Y-81010153D01*
X169329332Y-80986055D01*
X169333423Y-80984361D01*
X169374259Y-80969130D01*
X169374259Y-80573600D01*
X170372259Y-80573600D01*
X170372259Y-80851500D01*
X171722079Y-80851500D01*
X171723741Y-80851522D01*
X171745503Y-80852106D01*
X171747164Y-80852173D01*
X171775508Y-80853694D01*
X171777163Y-80853805D01*
X171798809Y-80855548D01*
X171800460Y-80855703D01*
X171874259Y-80863637D01*
X171874259Y-80573600D01*
X170372259Y-80573600D01*
X169374259Y-80573600D01*
X167872259Y-80573600D01*
X163899275Y-80573600D01*
X163927533Y-80542216D01*
X164022179Y-80378284D01*
X164080674Y-80198256D01*
X164100460Y-80010000D01*
X164080674Y-79821744D01*
X164022179Y-79641716D01*
X163927533Y-79477784D01*
X163800871Y-79337112D01*
X163800870Y-79337111D01*
X163647734Y-79225851D01*
X163647729Y-79225848D01*
X163474807Y-79148857D01*
X163474802Y-79148855D01*
X163329001Y-79117865D01*
X163289646Y-79109500D01*
X163100354Y-79109500D01*
X163067897Y-79116398D01*
X162915197Y-79148855D01*
X162915192Y-79148857D01*
X162742270Y-79225848D01*
X162742265Y-79225851D01*
X162589130Y-79337110D01*
X162589126Y-79337114D01*
X162583400Y-79343474D01*
X162523913Y-79380121D01*
X162491252Y-79384500D01*
X159467743Y-79384500D01*
X159452122Y-79382775D01*
X159452095Y-79383061D01*
X159444333Y-79382326D01*
X159376140Y-79384469D01*
X159374193Y-79384500D01*
X159345649Y-79384500D01*
X159338778Y-79385367D01*
X159332959Y-79385825D01*
X159286374Y-79387289D01*
X159286368Y-79387290D01*
X159267126Y-79392880D01*
X159248087Y-79396823D01*
X159228217Y-79399334D01*
X159228203Y-79399337D01*
X159184883Y-79416488D01*
X159179358Y-79418380D01*
X159134613Y-79431380D01*
X159134610Y-79431381D01*
X159117366Y-79441579D01*
X159099905Y-79450133D01*
X159081274Y-79457510D01*
X159081262Y-79457517D01*
X159043570Y-79484902D01*
X159038687Y-79488109D01*
X158998580Y-79511829D01*
X158984414Y-79525995D01*
X158969624Y-79538627D01*
X158953414Y-79550404D01*
X158953411Y-79550407D01*
X158923710Y-79586309D01*
X158919777Y-79590631D01*
X157250181Y-81260228D01*
X157188858Y-81293713D01*
X157119166Y-81288729D01*
X157074819Y-81260228D01*
X155122848Y-79308257D01*
X155089363Y-79246934D01*
X155094347Y-79177242D01*
X155103136Y-79158586D01*
X155132179Y-79108284D01*
X155183739Y-78949600D01*
X165372259Y-78949600D01*
X165372259Y-79575600D01*
X166874259Y-79575600D01*
X166874259Y-78949600D01*
X167872259Y-78949600D01*
X167872259Y-79575600D01*
X169374259Y-79575600D01*
X169374259Y-78949600D01*
X170372259Y-78949600D01*
X170372259Y-79575600D01*
X171874259Y-79575600D01*
X171874259Y-79123980D01*
X171698401Y-78949600D01*
X170372259Y-78949600D01*
X169374259Y-78949600D01*
X167872259Y-78949600D01*
X166874259Y-78949600D01*
X165372259Y-78949600D01*
X155183739Y-78949600D01*
X155190674Y-78928256D01*
X155210460Y-78740000D01*
X155190674Y-78551744D01*
X155132179Y-78371716D01*
X155037533Y-78207784D01*
X154910871Y-78067112D01*
X154887204Y-78049917D01*
X154844540Y-77994588D01*
X154838561Y-77924974D01*
X154871167Y-77863179D01*
X154932006Y-77828822D01*
X154960091Y-77825600D01*
X172110144Y-77825600D01*
X172177183Y-77845285D01*
G37*
%TD.AperFunction*%
%TD*%
M02*
