%TF.GenerationSoftware,KiCad,Pcbnew,7.0.5-0*%
%TF.CreationDate,2023-07-14T22:28:07+02:00*%
%TF.ProjectId,MCU-Datalogger,4d43552d-4461-4746-916c-6f676765722e,V1.0*%
%TF.SameCoordinates,Original*%
%TF.FileFunction,Plated,1,2,PTH,Drill*%
%TF.FilePolarity,Positive*%
%FSLAX46Y46*%
G04 Gerber Fmt 4.6, Leading zero omitted, Abs format (unit mm)*
G04 Created by KiCad (PCBNEW 7.0.5-0) date 2023-07-14 22:28:07*
%MOMM*%
%LPD*%
G01*
G04 APERTURE LIST*
%TA.AperFunction,ViaDrill*%
%ADD10C,0.400000*%
%TD*%
%TA.AperFunction,ComponentDrill*%
%ADD11C,1.000000*%
%TD*%
G04 APERTURE END LIST*
D10*
X137871200Y-81026000D03*
X139065000Y-95885000D03*
X139750800Y-82042000D03*
X140004800Y-92710000D03*
X140335000Y-88900000D03*
X141274800Y-87630000D03*
X141422901Y-90377499D03*
X143154400Y-97485200D03*
X145599500Y-90373200D03*
X145680555Y-83401900D03*
X147955000Y-93345000D03*
X148031200Y-92202000D03*
X149098000Y-88754500D03*
X149135500Y-85725000D03*
X149199600Y-87174500D03*
X149539099Y-90255499D03*
X149860000Y-93890500D03*
X150495500Y-87629500D03*
X151130000Y-93890500D03*
X151217282Y-88354500D03*
X151440500Y-85090000D03*
X152400000Y-80555500D03*
X153035500Y-88354000D03*
X154305000Y-78740000D03*
X154330400Y-86563200D03*
X154484500Y-88949341D03*
X156210000Y-91440000D03*
X156281901Y-82376499D03*
X156972000Y-98806000D03*
X157480000Y-88900000D03*
X157886400Y-95554800D03*
X158902400Y-79095600D03*
X159190201Y-84649799D03*
X159385000Y-97790000D03*
X160477200Y-100685600D03*
X160655000Y-88265000D03*
X161379500Y-85090000D03*
X162560000Y-81280000D03*
X163195000Y-80010000D03*
X163830000Y-88900000D03*
X164033200Y-97028000D03*
X166370000Y-81280000D03*
X167081200Y-84582000D03*
X167640000Y-88900000D03*
X168503600Y-94335600D03*
D11*
%TO.C,BT1*%
X132080000Y-85085000D03*
X132080000Y-87625000D03*
%TO.C,J3*%
X134620000Y-103632000D03*
X137160000Y-103632000D03*
X139700000Y-103632000D03*
X142240000Y-103632000D03*
X144780000Y-103632000D03*
X147320000Y-103632000D03*
X149860000Y-103632000D03*
X152400000Y-103632000D03*
X154940000Y-103632000D03*
%TO.C,J2*%
X160020000Y-103505000D03*
X162560000Y-103505000D03*
X165100000Y-103505000D03*
X167640000Y-103505000D03*
%TO.C,J4*%
X170810000Y-83200000D03*
X170810000Y-85740000D03*
X170810000Y-88280000D03*
X173350000Y-83200000D03*
X173350000Y-85740000D03*
X173350000Y-88280000D03*
%TO.C,J1*%
X173355000Y-92075000D03*
X173355000Y-94615000D03*
X173355000Y-97155000D03*
X173355000Y-99695000D03*
M02*
