%TF.GenerationSoftware,KiCad,Pcbnew,7.0.5-0*%
%TF.CreationDate,2023-07-20T08:32:01+02:00*%
%TF.ProjectId,MCU-Datalogger,4d43552d-4461-4746-916c-6f676765722e,V1.0*%
%TF.SameCoordinates,Original*%
%TF.FileFunction,Copper,L2,Inr*%
%TF.FilePolarity,Positive*%
%FSLAX46Y46*%
G04 Gerber Fmt 4.6, Leading zero omitted, Abs format (unit mm)*
G04 Created by KiCad (PCBNEW 7.0.5-0) date 2023-07-20 08:32:01*
%MOMM*%
%LPD*%
G01*
G04 APERTURE LIST*
%TA.AperFunction,ComponentPad*%
%ADD10R,1.700000X1.700000*%
%TD*%
%TA.AperFunction,ComponentPad*%
%ADD11O,1.700000X1.700000*%
%TD*%
%TA.AperFunction,ViaPad*%
%ADD12C,0.800000*%
%TD*%
%TA.AperFunction,Conductor*%
%ADD13C,0.250000*%
%TD*%
G04 APERTURE END LIST*
D10*
%TO.N,/Vcc*%
%TO.C,BT1*%
X132080000Y-85085000D03*
D11*
%TO.N,GND*%
X132080000Y-87625000D03*
%TD*%
D10*
%TO.N,GND*%
%TO.C,J2*%
X160020000Y-103505000D03*
D11*
%TO.N,/Vcc*%
X162560000Y-103505000D03*
%TO.N,/RX*%
X165100000Y-103505000D03*
%TO.N,/TX*%
X167640000Y-103505000D03*
%TD*%
D10*
%TO.N,GND*%
%TO.C,J1*%
X173355000Y-92075000D03*
D11*
%TO.N,/Vcc*%
X173355000Y-94615000D03*
%TO.N,/SDA*%
X173355000Y-97155000D03*
%TO.N,/SCL*%
X173355000Y-99695000D03*
%TD*%
D10*
%TO.N,/D2*%
%TO.C,J3*%
X134620000Y-103632000D03*
D11*
%TO.N,/D3*%
X137160000Y-103632000D03*
%TO.N,/D4*%
X139700000Y-103632000D03*
%TO.N,/D5*%
X142240000Y-103632000D03*
%TO.N,/D6*%
X144780000Y-103632000D03*
%TO.N,/D7*%
X147320000Y-103632000D03*
%TO.N,/D8*%
X149860000Y-103632000D03*
%TO.N,GND*%
X152400000Y-103632000D03*
%TO.N,/Vcc*%
X154940000Y-103632000D03*
%TD*%
D10*
%TO.N,/MISO*%
%TO.C,J4*%
X170810000Y-83200000D03*
D11*
%TO.N,/Vcc*%
X173350000Y-83200000D03*
%TO.N,/SCK*%
X170810000Y-85740000D03*
%TO.N,/MOSI*%
X173350000Y-85740000D03*
%TO.N,/RESET*%
X170810000Y-88280000D03*
%TO.N,GND*%
X173350000Y-88280000D03*
%TD*%
D12*
%TO.N,/MISO*%
X155498800Y-92645900D03*
%TO.N,/SDA*%
X152501094Y-81766496D03*
X145186400Y-82600800D03*
%TO.N,/Vcc*%
X149541900Y-87020400D03*
X164947600Y-87884000D03*
X163749501Y-90301299D03*
X154584400Y-89204800D03*
X163728400Y-80416400D03*
X153924000Y-79400400D03*
X141071600Y-78892400D03*
X132943600Y-80416400D03*
X141528800Y-85242400D03*
X137718800Y-88544400D03*
X140004800Y-92964000D03*
X143713200Y-98399600D03*
X135382000Y-99517200D03*
%TO.N,GND*%
X164084000Y-96062800D03*
X162509200Y-81076800D03*
X166674800Y-81229200D03*
X158394400Y-79959200D03*
X149656800Y-86004400D03*
X154279600Y-86753100D03*
X138785600Y-80264000D03*
X141579600Y-80365600D03*
X141528800Y-86563200D03*
X135716499Y-97260899D03*
X134467600Y-89814400D03*
%TO.N,/SCK*%
X157060300Y-91541600D03*
X159156400Y-90932000D03*
%TO.N,/RESET*%
X151440500Y-85293200D03*
X166624000Y-85039200D03*
%TO.N,/D2*%
X137363200Y-101244400D03*
X147218400Y-82499200D03*
%TO.N,/SCL*%
X151333200Y-81852100D03*
X144983200Y-81381600D03*
%TO.N,Net-(U4-PB6)*%
X146215700Y-89662000D03*
%TO.N,/SCL*%
X161696400Y-91731500D03*
X166166800Y-93624400D03*
%TO.N,/SDA*%
X170840400Y-96367600D03*
X162001200Y-88087200D03*
%TO.N,Net-(U4-AREF)*%
X153162000Y-87630000D03*
X160629600Y-96215200D03*
%TO.N,Net-(U4-PB6)*%
X159613600Y-95758000D03*
X151384000Y-96520000D03*
%TO.N,Net-(U4-PB7)*%
X149148800Y-80822300D03*
X149656800Y-90576400D03*
X151688800Y-94640400D03*
%TO.N,/SCL*%
X152704800Y-86004400D03*
X160680400Y-88798400D03*
%TO.N,/SDA*%
X153873200Y-84988400D03*
X160680400Y-84988400D03*
%TO.N,/MOSI*%
X154127200Y-90271600D03*
X159156400Y-92456000D03*
%TD*%
D13*
%TO.N,/MOSI*%
X154127200Y-90271600D02*
X154736800Y-90271600D01*
X156921200Y-92456000D02*
X159156400Y-92456000D01*
X154736800Y-90271600D02*
X156921200Y-92456000D01*
%TO.N,/SCL*%
X146267000Y-80097800D02*
X144983200Y-81381600D01*
X151333200Y-81852100D02*
X149578900Y-80097800D01*
X149578900Y-80097800D02*
X146267000Y-80097800D01*
%TO.N,Net-(U4-PB7)*%
X148691600Y-89611200D02*
X149656800Y-90576400D01*
X149148800Y-80822300D02*
X148691600Y-81279500D01*
X148691600Y-81279500D02*
X148691600Y-89611200D01*
%TO.N,/Vcc*%
X149541900Y-87020400D02*
X151726300Y-89204800D01*
X151726300Y-89204800D02*
X154584400Y-89204800D01*
%TO.N,Net-(U4-AREF)*%
X153162000Y-87630000D02*
X153314400Y-87477600D01*
X153314400Y-87477600D02*
X158089600Y-87477600D01*
X158089600Y-87477600D02*
X160629600Y-90017600D01*
X160629600Y-90017600D02*
X160629600Y-96215200D01*
%TO.N,/SCK*%
X159156400Y-90932000D02*
X158546800Y-91541600D01*
X158546800Y-91541600D02*
X157060300Y-91541600D01*
%TO.N,/SDA*%
X162560000Y-88087200D02*
X162001200Y-88087200D01*
X170840400Y-96367600D02*
X162560000Y-88087200D01*
%TO.N,/RESET*%
X165848200Y-84263400D02*
X152470300Y-84263400D01*
X166624000Y-85039200D02*
X165848200Y-84263400D01*
X152470300Y-84263400D02*
X151440500Y-85293200D01*
%TO.N,Net-(U4-PB6)*%
X146215700Y-91226096D02*
X146215700Y-89662000D01*
X151384000Y-96394396D02*
X146215700Y-91226096D01*
X151384000Y-96520000D02*
X151384000Y-96394396D01*
%TO.N,/SCL*%
X166166800Y-93624400D02*
X164273900Y-91731500D01*
X164273900Y-91731500D02*
X161696400Y-91731500D01*
%TO.N,Net-(U4-PB6)*%
X151384000Y-96520000D02*
X158851600Y-96520000D01*
X158851600Y-96520000D02*
X159613600Y-95758000D01*
%TO.N,Net-(U4-PB7)*%
X149656800Y-94030800D02*
X149656800Y-90576400D01*
X151688800Y-94640400D02*
X150266400Y-94640400D01*
X150266400Y-94640400D02*
X149656800Y-94030800D01*
%TO.N,/SCL*%
X157886400Y-86004400D02*
X152704800Y-86004400D01*
X160680400Y-88798400D02*
X157886400Y-86004400D01*
%TO.N,/SDA*%
X160680400Y-84988400D02*
X153873200Y-84988400D01*
%TD*%
M02*
