%TF.GenerationSoftware,KiCad,Pcbnew,7.0.5-0*%
%TF.CreationDate,2023-07-20T08:32:01+02:00*%
%TF.ProjectId,MCU-Datalogger,4d43552d-4461-4746-916c-6f676765722e,V1.0*%
%TF.SameCoordinates,Original*%
%TF.FileFunction,Copper,L4,Bot*%
%TF.FilePolarity,Positive*%
%FSLAX46Y46*%
G04 Gerber Fmt 4.6, Leading zero omitted, Abs format (unit mm)*
G04 Created by KiCad (PCBNEW 7.0.5-0) date 2023-07-20 08:32:01*
%MOMM*%
%LPD*%
G01*
G04 APERTURE LIST*
%TA.AperFunction,ComponentPad*%
%ADD10R,1.700000X1.700000*%
%TD*%
%TA.AperFunction,ComponentPad*%
%ADD11O,1.700000X1.700000*%
%TD*%
%TA.AperFunction,ViaPad*%
%ADD12C,0.800000*%
%TD*%
G04 APERTURE END LIST*
D10*
%TO.P,BT1,1,+*%
%TO.N,/Vcc*%
X132080000Y-85085000D03*
D11*
%TO.P,BT1,2,-*%
%TO.N,GND*%
X132080000Y-87625000D03*
%TD*%
D10*
%TO.P,J2,1,Pin_1*%
%TO.N,GND*%
X160020000Y-103505000D03*
D11*
%TO.P,J2,2,Pin_2*%
%TO.N,/Vcc*%
X162560000Y-103505000D03*
%TO.P,J2,3,Pin_3*%
%TO.N,/RX*%
X165100000Y-103505000D03*
%TO.P,J2,4,Pin_4*%
%TO.N,/TX*%
X167640000Y-103505000D03*
%TD*%
D10*
%TO.P,J1,1,Pin_1*%
%TO.N,GND*%
X173355000Y-92075000D03*
D11*
%TO.P,J1,2,Pin_2*%
%TO.N,/Vcc*%
X173355000Y-94615000D03*
%TO.P,J1,3,Pin_3*%
%TO.N,/SDA*%
X173355000Y-97155000D03*
%TO.P,J1,4,Pin_4*%
%TO.N,/SCL*%
X173355000Y-99695000D03*
%TD*%
D10*
%TO.P,J3,1,Pin_1*%
%TO.N,/D2*%
X134620000Y-103632000D03*
D11*
%TO.P,J3,2,Pin_2*%
%TO.N,/D3*%
X137160000Y-103632000D03*
%TO.P,J3,3,Pin_3*%
%TO.N,/D4*%
X139700000Y-103632000D03*
%TO.P,J3,4,Pin_4*%
%TO.N,/D5*%
X142240000Y-103632000D03*
%TO.P,J3,5,Pin_5*%
%TO.N,/D6*%
X144780000Y-103632000D03*
%TO.P,J3,6,Pin_6*%
%TO.N,/D7*%
X147320000Y-103632000D03*
%TO.P,J3,7,Pin_7*%
%TO.N,/D8*%
X149860000Y-103632000D03*
%TO.P,J3,8,Pin_8*%
%TO.N,GND*%
X152400000Y-103632000D03*
%TO.P,J3,9,Pin_9*%
%TO.N,/Vcc*%
X154940000Y-103632000D03*
%TD*%
D10*
%TO.P,J4,1,Pin_1*%
%TO.N,/MISO*%
X170810000Y-83200000D03*
D11*
%TO.P,J4,2,Pin_2*%
%TO.N,/Vcc*%
X173350000Y-83200000D03*
%TO.P,J4,3,Pin_3*%
%TO.N,/SCK*%
X170810000Y-85740000D03*
%TO.P,J4,4,Pin_4*%
%TO.N,/MOSI*%
X173350000Y-85740000D03*
%TO.P,J4,5,Pin_5*%
%TO.N,/RESET*%
X170810000Y-88280000D03*
%TO.P,J4,6,Pin_6*%
%TO.N,GND*%
X173350000Y-88280000D03*
%TD*%
D12*
%TO.N,/MISO*%
X155498800Y-92645900D03*
%TO.N,/SDA*%
X152501094Y-81766496D03*
X145186400Y-82600800D03*
%TO.N,/Vcc*%
X149541900Y-87020400D03*
X164947600Y-87884000D03*
X163749501Y-90301299D03*
X154584400Y-89204800D03*
X163728400Y-80416400D03*
X153924000Y-79400400D03*
X141071600Y-78892400D03*
X132943600Y-80416400D03*
X141528800Y-85242400D03*
X137718800Y-88544400D03*
X140004800Y-92964000D03*
X143713200Y-98399600D03*
X135382000Y-99517200D03*
%TO.N,GND*%
X164084000Y-96062800D03*
X162509200Y-81076800D03*
X166674800Y-81229200D03*
X158394400Y-79959200D03*
X149656800Y-86004400D03*
X154279600Y-86753100D03*
X138785600Y-80264000D03*
X141579600Y-80365600D03*
X141528800Y-86563200D03*
X135716499Y-97260899D03*
X134467600Y-89814400D03*
%TO.N,/SCK*%
X157060300Y-91541600D03*
X159156400Y-90932000D03*
%TO.N,/RESET*%
X151440500Y-85293200D03*
X166624000Y-85039200D03*
%TO.N,/D2*%
X137363200Y-101244400D03*
X147218400Y-82499200D03*
%TO.N,/SCL*%
X151333200Y-81852100D03*
X144983200Y-81381600D03*
%TO.N,Net-(U4-PB6)*%
X146215700Y-89662000D03*
%TO.N,/SCL*%
X161696400Y-91731500D03*
X166166800Y-93624400D03*
%TO.N,/SDA*%
X170840400Y-96367600D03*
X162001200Y-88087200D03*
%TO.N,Net-(U4-AREF)*%
X153162000Y-87630000D03*
X160629600Y-96215200D03*
%TO.N,Net-(U4-PB6)*%
X159613600Y-95758000D03*
X151384000Y-96520000D03*
%TO.N,Net-(U4-PB7)*%
X149148800Y-80822300D03*
X149656800Y-90576400D03*
X151688800Y-94640400D03*
%TO.N,/SCL*%
X152704800Y-86004400D03*
X160680400Y-88798400D03*
%TO.N,/SDA*%
X153873200Y-84988400D03*
X160680400Y-84988400D03*
%TO.N,/MOSI*%
X154127200Y-90271600D03*
X159156400Y-92456000D03*
%TD*%
%TA.AperFunction,Conductor*%
%TO.N,GND*%
G36*
X171873760Y-77845459D02*
G01*
X171892886Y-77860427D01*
X175170819Y-80989364D01*
X175205721Y-81049891D01*
X175209200Y-81079059D01*
X175209200Y-101607872D01*
X175189515Y-101674911D01*
X175182658Y-101684539D01*
X172249113Y-105413621D01*
X172192193Y-105454141D01*
X172151974Y-105460954D01*
X132797828Y-105562252D01*
X132730738Y-105542740D01*
X132703143Y-105518695D01*
X132648113Y-105454141D01*
X131860210Y-104529870D01*
X133269500Y-104529870D01*
X133269501Y-104529876D01*
X133275908Y-104589483D01*
X133326202Y-104724328D01*
X133326206Y-104724335D01*
X133412452Y-104839544D01*
X133412455Y-104839547D01*
X133527664Y-104925793D01*
X133527671Y-104925797D01*
X133662517Y-104976091D01*
X133662516Y-104976091D01*
X133669444Y-104976835D01*
X133722127Y-104982500D01*
X135517872Y-104982499D01*
X135577483Y-104976091D01*
X135712331Y-104925796D01*
X135827546Y-104839546D01*
X135913796Y-104724331D01*
X135962810Y-104592916D01*
X136004681Y-104536984D01*
X136070145Y-104512566D01*
X136138418Y-104527417D01*
X136166673Y-104548569D01*
X136288599Y-104670495D01*
X136385384Y-104738264D01*
X136482165Y-104806032D01*
X136482167Y-104806033D01*
X136482170Y-104806035D01*
X136696337Y-104905903D01*
X136924592Y-104967063D01*
X137101034Y-104982500D01*
X137159999Y-104987659D01*
X137160000Y-104987659D01*
X137160001Y-104987659D01*
X137218966Y-104982500D01*
X137395408Y-104967063D01*
X137623663Y-104905903D01*
X137837830Y-104806035D01*
X138031401Y-104670495D01*
X138198495Y-104503401D01*
X138328424Y-104317842D01*
X138383002Y-104274217D01*
X138452500Y-104267023D01*
X138514855Y-104298546D01*
X138531575Y-104317842D01*
X138661500Y-104503395D01*
X138661505Y-104503401D01*
X138828599Y-104670495D01*
X138925384Y-104738264D01*
X139022165Y-104806032D01*
X139022167Y-104806033D01*
X139022170Y-104806035D01*
X139236337Y-104905903D01*
X139464592Y-104967063D01*
X139641034Y-104982500D01*
X139699999Y-104987659D01*
X139700000Y-104987659D01*
X139700001Y-104987659D01*
X139758966Y-104982500D01*
X139935408Y-104967063D01*
X140163663Y-104905903D01*
X140377830Y-104806035D01*
X140571401Y-104670495D01*
X140738495Y-104503401D01*
X140868424Y-104317842D01*
X140923002Y-104274217D01*
X140992500Y-104267023D01*
X141054855Y-104298546D01*
X141071575Y-104317842D01*
X141201500Y-104503395D01*
X141201505Y-104503401D01*
X141368599Y-104670495D01*
X141465384Y-104738264D01*
X141562165Y-104806032D01*
X141562167Y-104806033D01*
X141562170Y-104806035D01*
X141776337Y-104905903D01*
X142004592Y-104967063D01*
X142181034Y-104982500D01*
X142239999Y-104987659D01*
X142240000Y-104987659D01*
X142240001Y-104987659D01*
X142298966Y-104982500D01*
X142475408Y-104967063D01*
X142703663Y-104905903D01*
X142917830Y-104806035D01*
X143111401Y-104670495D01*
X143278495Y-104503401D01*
X143408424Y-104317842D01*
X143463002Y-104274217D01*
X143532500Y-104267023D01*
X143594855Y-104298546D01*
X143611575Y-104317842D01*
X143741500Y-104503395D01*
X143741505Y-104503401D01*
X143908599Y-104670495D01*
X144005384Y-104738265D01*
X144102165Y-104806032D01*
X144102167Y-104806033D01*
X144102170Y-104806035D01*
X144316337Y-104905903D01*
X144544592Y-104967063D01*
X144721034Y-104982500D01*
X144779999Y-104987659D01*
X144780000Y-104987659D01*
X144780001Y-104987659D01*
X144838966Y-104982500D01*
X145015408Y-104967063D01*
X145243663Y-104905903D01*
X145457830Y-104806035D01*
X145651401Y-104670495D01*
X145818495Y-104503401D01*
X145948424Y-104317842D01*
X146003002Y-104274217D01*
X146072500Y-104267023D01*
X146134855Y-104298546D01*
X146151575Y-104317842D01*
X146281500Y-104503395D01*
X146281505Y-104503401D01*
X146448599Y-104670495D01*
X146545384Y-104738265D01*
X146642165Y-104806032D01*
X146642167Y-104806033D01*
X146642170Y-104806035D01*
X146856337Y-104905903D01*
X147084592Y-104967063D01*
X147261034Y-104982500D01*
X147319999Y-104987659D01*
X147320000Y-104987659D01*
X147320001Y-104987659D01*
X147378966Y-104982500D01*
X147555408Y-104967063D01*
X147783663Y-104905903D01*
X147997830Y-104806035D01*
X148191401Y-104670495D01*
X148358495Y-104503401D01*
X148488424Y-104317842D01*
X148543002Y-104274217D01*
X148612500Y-104267023D01*
X148674855Y-104298546D01*
X148691575Y-104317842D01*
X148821500Y-104503395D01*
X148821505Y-104503401D01*
X148988599Y-104670495D01*
X149085384Y-104738265D01*
X149182165Y-104806032D01*
X149182167Y-104806033D01*
X149182170Y-104806035D01*
X149396337Y-104905903D01*
X149624592Y-104967063D01*
X149801034Y-104982500D01*
X149859999Y-104987659D01*
X149860000Y-104987659D01*
X149860001Y-104987659D01*
X149918966Y-104982500D01*
X150095408Y-104967063D01*
X150323663Y-104905903D01*
X150537830Y-104806035D01*
X150731401Y-104670495D01*
X150898495Y-104503401D01*
X151028730Y-104317405D01*
X151083307Y-104273781D01*
X151152805Y-104266587D01*
X151215160Y-104298110D01*
X151231879Y-104317405D01*
X151361890Y-104503078D01*
X151528917Y-104670105D01*
X151722421Y-104805600D01*
X151936507Y-104905429D01*
X151936516Y-104905433D01*
X152150000Y-104962634D01*
X152150000Y-104067501D01*
X152257685Y-104116680D01*
X152364237Y-104132000D01*
X152435763Y-104132000D01*
X152542315Y-104116680D01*
X152650000Y-104067501D01*
X152650000Y-104962633D01*
X152863483Y-104905433D01*
X152863492Y-104905429D01*
X153077578Y-104805600D01*
X153271082Y-104670105D01*
X153438105Y-104503082D01*
X153568119Y-104317405D01*
X153622696Y-104273781D01*
X153692195Y-104266588D01*
X153754549Y-104298110D01*
X153771269Y-104317405D01*
X153901505Y-104503401D01*
X154068599Y-104670495D01*
X154165384Y-104738265D01*
X154262165Y-104806032D01*
X154262167Y-104806033D01*
X154262170Y-104806035D01*
X154476337Y-104905903D01*
X154704592Y-104967063D01*
X154881034Y-104982500D01*
X154939999Y-104987659D01*
X154940000Y-104987659D01*
X154940001Y-104987659D01*
X154998966Y-104982500D01*
X155175408Y-104967063D01*
X155403663Y-104905903D01*
X155617830Y-104806035D01*
X155811401Y-104670495D01*
X155978495Y-104503401D01*
X156048906Y-104402844D01*
X158670000Y-104402844D01*
X158676401Y-104462372D01*
X158676403Y-104462379D01*
X158726645Y-104597086D01*
X158726649Y-104597093D01*
X158812809Y-104712187D01*
X158812812Y-104712190D01*
X158927906Y-104798350D01*
X158927913Y-104798354D01*
X159062620Y-104848596D01*
X159062627Y-104848598D01*
X159122155Y-104854999D01*
X159122172Y-104855000D01*
X159770000Y-104855000D01*
X159770000Y-103940501D01*
X159877685Y-103989680D01*
X159984237Y-104005000D01*
X160055763Y-104005000D01*
X160162315Y-103989680D01*
X160270000Y-103940501D01*
X160270000Y-104855000D01*
X160917828Y-104855000D01*
X160917844Y-104854999D01*
X160977372Y-104848598D01*
X160977379Y-104848596D01*
X161112086Y-104798354D01*
X161112093Y-104798350D01*
X161227187Y-104712190D01*
X161227190Y-104712187D01*
X161313350Y-104597093D01*
X161313354Y-104597086D01*
X161362422Y-104465529D01*
X161404293Y-104409595D01*
X161469757Y-104385178D01*
X161538030Y-104400030D01*
X161566285Y-104421181D01*
X161688599Y-104543495D01*
X161754277Y-104589483D01*
X161882165Y-104679032D01*
X161882167Y-104679033D01*
X161882170Y-104679035D01*
X162096337Y-104778903D01*
X162324592Y-104840063D01*
X162495319Y-104855000D01*
X162559999Y-104860659D01*
X162560000Y-104860659D01*
X162560001Y-104860659D01*
X162624681Y-104855000D01*
X162795408Y-104840063D01*
X163023663Y-104778903D01*
X163237830Y-104679035D01*
X163431401Y-104543495D01*
X163598495Y-104376401D01*
X163728424Y-104190842D01*
X163783002Y-104147217D01*
X163852500Y-104140023D01*
X163914855Y-104171546D01*
X163931575Y-104190842D01*
X164061500Y-104376395D01*
X164061505Y-104376401D01*
X164228599Y-104543495D01*
X164294277Y-104589483D01*
X164422165Y-104679032D01*
X164422167Y-104679033D01*
X164422170Y-104679035D01*
X164636337Y-104778903D01*
X164864592Y-104840063D01*
X165035319Y-104855000D01*
X165099999Y-104860659D01*
X165100000Y-104860659D01*
X165100001Y-104860659D01*
X165164681Y-104855000D01*
X165335408Y-104840063D01*
X165563663Y-104778903D01*
X165777830Y-104679035D01*
X165971401Y-104543495D01*
X166138495Y-104376401D01*
X166268424Y-104190842D01*
X166323002Y-104147217D01*
X166392500Y-104140023D01*
X166454855Y-104171546D01*
X166471575Y-104190842D01*
X166601500Y-104376395D01*
X166601505Y-104376401D01*
X166768599Y-104543495D01*
X166834277Y-104589483D01*
X166962165Y-104679032D01*
X166962167Y-104679033D01*
X166962170Y-104679035D01*
X167176337Y-104778903D01*
X167404592Y-104840063D01*
X167575319Y-104855000D01*
X167639999Y-104860659D01*
X167640000Y-104860659D01*
X167640001Y-104860659D01*
X167704681Y-104855000D01*
X167875408Y-104840063D01*
X168103663Y-104778903D01*
X168317830Y-104679035D01*
X168511401Y-104543495D01*
X168678495Y-104376401D01*
X168814035Y-104182830D01*
X168913903Y-103968663D01*
X168975063Y-103740408D01*
X168995659Y-103505000D01*
X168975063Y-103269592D01*
X168922688Y-103074124D01*
X170347020Y-103074124D01*
X170347020Y-104341595D01*
X171665000Y-104338203D01*
X171849020Y-104104279D01*
X171849020Y-103074124D01*
X170347020Y-103074124D01*
X168922688Y-103074124D01*
X168913903Y-103041337D01*
X168814035Y-102827171D01*
X168808425Y-102819158D01*
X168678494Y-102633597D01*
X168511402Y-102466506D01*
X168511395Y-102466501D01*
X168499204Y-102457965D01*
X168466169Y-102434833D01*
X168317834Y-102330967D01*
X168317830Y-102330965D01*
X168287595Y-102316866D01*
X168103663Y-102231097D01*
X168103659Y-102231096D01*
X168103655Y-102231094D01*
X167875413Y-102169938D01*
X167875403Y-102169936D01*
X167640001Y-102149341D01*
X167639999Y-102149341D01*
X167404596Y-102169936D01*
X167404586Y-102169938D01*
X167176344Y-102231094D01*
X167176335Y-102231098D01*
X166962171Y-102330964D01*
X166962169Y-102330965D01*
X166768597Y-102466505D01*
X166601505Y-102633597D01*
X166471575Y-102819158D01*
X166416998Y-102862783D01*
X166347500Y-102869977D01*
X166285145Y-102838454D01*
X166268425Y-102819158D01*
X166138494Y-102633597D01*
X165971402Y-102466506D01*
X165971395Y-102466501D01*
X165959204Y-102457965D01*
X165926169Y-102434833D01*
X165777834Y-102330967D01*
X165777830Y-102330965D01*
X165747595Y-102316866D01*
X165563663Y-102231097D01*
X165563659Y-102231096D01*
X165563655Y-102231094D01*
X165335413Y-102169938D01*
X165335403Y-102169936D01*
X165100001Y-102149341D01*
X165099999Y-102149341D01*
X164864596Y-102169936D01*
X164864586Y-102169938D01*
X164636344Y-102231094D01*
X164636335Y-102231098D01*
X164422171Y-102330964D01*
X164422169Y-102330965D01*
X164228597Y-102466505D01*
X164061508Y-102633594D01*
X163931574Y-102819160D01*
X163876997Y-102862784D01*
X163807498Y-102869977D01*
X163745144Y-102838455D01*
X163728429Y-102819164D01*
X163598495Y-102633599D01*
X163598493Y-102633596D01*
X163431402Y-102466506D01*
X163431395Y-102466501D01*
X163419204Y-102457965D01*
X163386169Y-102434833D01*
X163237834Y-102330967D01*
X163237830Y-102330965D01*
X163207595Y-102316866D01*
X163023663Y-102231097D01*
X163023659Y-102231096D01*
X163023655Y-102231094D01*
X162795413Y-102169938D01*
X162795403Y-102169936D01*
X162560001Y-102149341D01*
X162559999Y-102149341D01*
X162324596Y-102169936D01*
X162324586Y-102169938D01*
X162096344Y-102231094D01*
X162096335Y-102231098D01*
X161882171Y-102330964D01*
X161882169Y-102330965D01*
X161688600Y-102466503D01*
X161566284Y-102588819D01*
X161504961Y-102622303D01*
X161435269Y-102617319D01*
X161379336Y-102575447D01*
X161362421Y-102544470D01*
X161313354Y-102412913D01*
X161313350Y-102412906D01*
X161227190Y-102297812D01*
X161227187Y-102297809D01*
X161112093Y-102211649D01*
X161112086Y-102211645D01*
X160977379Y-102161403D01*
X160977372Y-102161401D01*
X160917844Y-102155000D01*
X160270000Y-102155000D01*
X160270000Y-103069498D01*
X160162315Y-103020320D01*
X160055763Y-103005000D01*
X159984237Y-103005000D01*
X159877685Y-103020320D01*
X159770000Y-103069498D01*
X159770000Y-102155000D01*
X159122155Y-102155000D01*
X159062627Y-102161401D01*
X159062620Y-102161403D01*
X158927913Y-102211645D01*
X158927906Y-102211649D01*
X158812812Y-102297809D01*
X158812809Y-102297812D01*
X158726649Y-102412906D01*
X158726645Y-102412913D01*
X158676403Y-102547620D01*
X158676401Y-102547627D01*
X158670000Y-102607155D01*
X158670000Y-103255000D01*
X159586314Y-103255000D01*
X159560507Y-103295156D01*
X159520000Y-103433111D01*
X159520000Y-103576889D01*
X159560507Y-103714844D01*
X159586314Y-103755000D01*
X158670000Y-103755000D01*
X158670000Y-104402844D01*
X156048906Y-104402844D01*
X156114035Y-104309830D01*
X156213903Y-104095663D01*
X156275063Y-103867408D01*
X156295659Y-103632000D01*
X156275063Y-103396592D01*
X156213903Y-103168337D01*
X156114035Y-102954171D01*
X156108731Y-102946595D01*
X155978494Y-102760597D01*
X155811402Y-102593506D01*
X155811395Y-102593501D01*
X155804708Y-102588819D01*
X155772521Y-102566281D01*
X155617834Y-102457967D01*
X155617830Y-102457965D01*
X155568223Y-102434833D01*
X155403663Y-102358097D01*
X155403659Y-102358096D01*
X155403655Y-102358094D01*
X155175413Y-102296938D01*
X155175403Y-102296936D01*
X154940001Y-102276341D01*
X154939999Y-102276341D01*
X154704596Y-102296936D01*
X154704586Y-102296938D01*
X154476344Y-102358094D01*
X154476335Y-102358098D01*
X154262171Y-102457964D01*
X154262169Y-102457965D01*
X154068597Y-102593505D01*
X153901508Y-102760594D01*
X153771269Y-102946595D01*
X153716692Y-102990219D01*
X153647193Y-102997412D01*
X153584839Y-102965890D01*
X153568119Y-102946594D01*
X153438113Y-102760926D01*
X153438108Y-102760920D01*
X153271082Y-102593894D01*
X153077578Y-102458399D01*
X152863492Y-102358570D01*
X152863486Y-102358567D01*
X152650000Y-102301364D01*
X152650000Y-103196498D01*
X152542315Y-103147320D01*
X152435763Y-103132000D01*
X152364237Y-103132000D01*
X152257685Y-103147320D01*
X152150000Y-103196498D01*
X152150000Y-102301364D01*
X152149999Y-102301364D01*
X151936513Y-102358567D01*
X151936507Y-102358570D01*
X151722422Y-102458399D01*
X151722420Y-102458400D01*
X151528926Y-102593886D01*
X151528920Y-102593891D01*
X151361891Y-102760920D01*
X151361890Y-102760922D01*
X151231880Y-102946595D01*
X151177303Y-102990219D01*
X151107804Y-102997412D01*
X151045450Y-102965890D01*
X151028730Y-102946594D01*
X150898494Y-102760597D01*
X150731402Y-102593506D01*
X150731395Y-102593501D01*
X150724708Y-102588819D01*
X150692521Y-102566281D01*
X150537834Y-102457967D01*
X150537830Y-102457965D01*
X150488223Y-102434833D01*
X150323663Y-102358097D01*
X150323659Y-102358096D01*
X150323655Y-102358094D01*
X150095413Y-102296938D01*
X150095403Y-102296936D01*
X149860001Y-102276341D01*
X149859999Y-102276341D01*
X149624596Y-102296936D01*
X149624586Y-102296938D01*
X149396344Y-102358094D01*
X149396335Y-102358098D01*
X149182171Y-102457964D01*
X149182169Y-102457965D01*
X148988597Y-102593505D01*
X148821505Y-102760597D01*
X148691575Y-102946158D01*
X148636998Y-102989783D01*
X148567500Y-102996977D01*
X148505145Y-102965454D01*
X148488425Y-102946158D01*
X148358494Y-102760597D01*
X148191402Y-102593506D01*
X148191395Y-102593501D01*
X148184708Y-102588819D01*
X148152521Y-102566281D01*
X147997834Y-102457967D01*
X147997830Y-102457965D01*
X147948223Y-102434833D01*
X147783663Y-102358097D01*
X147783659Y-102358096D01*
X147783655Y-102358094D01*
X147555413Y-102296938D01*
X147555403Y-102296936D01*
X147320001Y-102276341D01*
X147319999Y-102276341D01*
X147084596Y-102296936D01*
X147084586Y-102296938D01*
X146856344Y-102358094D01*
X146856335Y-102358098D01*
X146642171Y-102457964D01*
X146642169Y-102457965D01*
X146448597Y-102593505D01*
X146281505Y-102760597D01*
X146151575Y-102946158D01*
X146096998Y-102989783D01*
X146027500Y-102996977D01*
X145965145Y-102965454D01*
X145948425Y-102946158D01*
X145818494Y-102760597D01*
X145651402Y-102593506D01*
X145651395Y-102593501D01*
X145644708Y-102588819D01*
X145612521Y-102566281D01*
X145457834Y-102457967D01*
X145457830Y-102457965D01*
X145408223Y-102434833D01*
X145243663Y-102358097D01*
X145243659Y-102358096D01*
X145243655Y-102358094D01*
X145015413Y-102296938D01*
X145015403Y-102296936D01*
X144780001Y-102276341D01*
X144779999Y-102276341D01*
X144544596Y-102296936D01*
X144544586Y-102296938D01*
X144316344Y-102358094D01*
X144316335Y-102358098D01*
X144102171Y-102457964D01*
X144102169Y-102457965D01*
X143908597Y-102593505D01*
X143741505Y-102760597D01*
X143611575Y-102946158D01*
X143556998Y-102989783D01*
X143487500Y-102996977D01*
X143425145Y-102965454D01*
X143408425Y-102946158D01*
X143278494Y-102760597D01*
X143111402Y-102593506D01*
X143111395Y-102593501D01*
X143104708Y-102588819D01*
X143072521Y-102566281D01*
X142917834Y-102457967D01*
X142917830Y-102457965D01*
X142868223Y-102434833D01*
X142703663Y-102358097D01*
X142703659Y-102358096D01*
X142703655Y-102358094D01*
X142475413Y-102296938D01*
X142475403Y-102296936D01*
X142240001Y-102276341D01*
X142239999Y-102276341D01*
X142004596Y-102296936D01*
X142004586Y-102296938D01*
X141776344Y-102358094D01*
X141776335Y-102358098D01*
X141562171Y-102457964D01*
X141562169Y-102457965D01*
X141368597Y-102593505D01*
X141201505Y-102760597D01*
X141071575Y-102946158D01*
X141016998Y-102989783D01*
X140947500Y-102996977D01*
X140885145Y-102965454D01*
X140868425Y-102946158D01*
X140738494Y-102760597D01*
X140571402Y-102593506D01*
X140571395Y-102593501D01*
X140564708Y-102588819D01*
X140532521Y-102566281D01*
X140377834Y-102457967D01*
X140377830Y-102457965D01*
X140328223Y-102434833D01*
X140163663Y-102358097D01*
X140163659Y-102358096D01*
X140163655Y-102358094D01*
X139935413Y-102296938D01*
X139935403Y-102296936D01*
X139700001Y-102276341D01*
X139699999Y-102276341D01*
X139464596Y-102296936D01*
X139464586Y-102296938D01*
X139236344Y-102358094D01*
X139236335Y-102358098D01*
X139022171Y-102457964D01*
X139022169Y-102457965D01*
X138828597Y-102593505D01*
X138661505Y-102760597D01*
X138531575Y-102946158D01*
X138476998Y-102989783D01*
X138407500Y-102996977D01*
X138345145Y-102965454D01*
X138328425Y-102946158D01*
X138198494Y-102760597D01*
X138031402Y-102593506D01*
X138031395Y-102593501D01*
X138024708Y-102588819D01*
X137992521Y-102566281D01*
X137837834Y-102457967D01*
X137837830Y-102457965D01*
X137788223Y-102434833D01*
X137623663Y-102358097D01*
X137623658Y-102358095D01*
X137623654Y-102358094D01*
X137605514Y-102353233D01*
X137545855Y-102316866D01*
X137515327Y-102254019D01*
X137523624Y-102184643D01*
X137568111Y-102130767D01*
X137611828Y-102112170D01*
X137643003Y-102105544D01*
X137815930Y-102028551D01*
X137969071Y-101917288D01*
X138095733Y-101776616D01*
X138190379Y-101612684D01*
X138248874Y-101432656D01*
X138268660Y-101244400D01*
X138248874Y-101056144D01*
X138190379Y-100876116D01*
X138095733Y-100712184D01*
X137971423Y-100574124D01*
X140347020Y-100574124D01*
X140347020Y-101374021D01*
X140444315Y-101400091D01*
X140446914Y-101400849D01*
X140480731Y-101411512D01*
X140483296Y-101412383D01*
X140526769Y-101428209D01*
X140529287Y-101429188D01*
X140562006Y-101442741D01*
X140564482Y-101443830D01*
X140820563Y-101563243D01*
X140822988Y-101564440D01*
X140854408Y-101580795D01*
X140856778Y-101582096D01*
X140896845Y-101605226D01*
X140899160Y-101606631D01*
X140929057Y-101625677D01*
X140931307Y-101627181D01*
X140969999Y-101654274D01*
X141008689Y-101627184D01*
X141010939Y-101625680D01*
X141040819Y-101606645D01*
X141043131Y-101605243D01*
X141083194Y-101582112D01*
X141085565Y-101580810D01*
X141117001Y-101564445D01*
X141119428Y-101563248D01*
X141375518Y-101443830D01*
X141377994Y-101442741D01*
X141410713Y-101429188D01*
X141413231Y-101428209D01*
X141456704Y-101412383D01*
X141459269Y-101411512D01*
X141493086Y-101400849D01*
X141495685Y-101400091D01*
X141768641Y-101326955D01*
X141771268Y-101326312D01*
X141805867Y-101318641D01*
X141808522Y-101318114D01*
X141849020Y-101310973D01*
X141849020Y-100574124D01*
X142847020Y-100574124D01*
X142847020Y-101363303D01*
X142984315Y-101400091D01*
X142986914Y-101400849D01*
X143020731Y-101411512D01*
X143023296Y-101412383D01*
X143066769Y-101428209D01*
X143069287Y-101429188D01*
X143102006Y-101442741D01*
X143104482Y-101443830D01*
X143360563Y-101563243D01*
X143362988Y-101564440D01*
X143394408Y-101580795D01*
X143396778Y-101582096D01*
X143436845Y-101605226D01*
X143439160Y-101606631D01*
X143469057Y-101625677D01*
X143471307Y-101627181D01*
X143509999Y-101654274D01*
X143548689Y-101627184D01*
X143550939Y-101625680D01*
X143580819Y-101606645D01*
X143583131Y-101605243D01*
X143623194Y-101582112D01*
X143625565Y-101580810D01*
X143657001Y-101564445D01*
X143659428Y-101563248D01*
X143915518Y-101443830D01*
X143917994Y-101442741D01*
X143950713Y-101429188D01*
X143953231Y-101428209D01*
X143996704Y-101412383D01*
X143999269Y-101411512D01*
X144033086Y-101400849D01*
X144035685Y-101400091D01*
X144308641Y-101326955D01*
X144311268Y-101326312D01*
X144345867Y-101318641D01*
X144348522Y-101318114D01*
X144349020Y-101318026D01*
X144349020Y-100574124D01*
X145347020Y-100574124D01*
X145347020Y-101352585D01*
X145524315Y-101400091D01*
X145526914Y-101400849D01*
X145560731Y-101411512D01*
X145563296Y-101412383D01*
X145606769Y-101428209D01*
X145609287Y-101429188D01*
X145642006Y-101442741D01*
X145644482Y-101443830D01*
X145900563Y-101563243D01*
X145902988Y-101564440D01*
X145934408Y-101580795D01*
X145936778Y-101582096D01*
X145976845Y-101605226D01*
X145979160Y-101606631D01*
X146009057Y-101625677D01*
X146011307Y-101627181D01*
X146049999Y-101654274D01*
X146088689Y-101627184D01*
X146090939Y-101625680D01*
X146120819Y-101606645D01*
X146123131Y-101605243D01*
X146163194Y-101582112D01*
X146165565Y-101580810D01*
X146197001Y-101564445D01*
X146199428Y-101563248D01*
X146455518Y-101443830D01*
X146457994Y-101442741D01*
X146490713Y-101429188D01*
X146493231Y-101428209D01*
X146536704Y-101412383D01*
X146539269Y-101411512D01*
X146573086Y-101400849D01*
X146575685Y-101400091D01*
X146848641Y-101326955D01*
X146849020Y-101326862D01*
X146849020Y-100574124D01*
X147847020Y-100574124D01*
X147847020Y-101341868D01*
X148064315Y-101400091D01*
X148066914Y-101400849D01*
X148100731Y-101411512D01*
X148103296Y-101412383D01*
X148146769Y-101428209D01*
X148149287Y-101429188D01*
X148182006Y-101442741D01*
X148184482Y-101443830D01*
X148440563Y-101563243D01*
X148442988Y-101564440D01*
X148474408Y-101580795D01*
X148476778Y-101582096D01*
X148516845Y-101605226D01*
X148519160Y-101606631D01*
X148549057Y-101625677D01*
X148551307Y-101627181D01*
X148589999Y-101654274D01*
X148628689Y-101627184D01*
X148630939Y-101625680D01*
X148660819Y-101606645D01*
X148663131Y-101605243D01*
X148703194Y-101582112D01*
X148705565Y-101580810D01*
X148737001Y-101564445D01*
X148739428Y-101563248D01*
X148995518Y-101443830D01*
X148997994Y-101442741D01*
X149030713Y-101429188D01*
X149033231Y-101428209D01*
X149076704Y-101412383D01*
X149079269Y-101411512D01*
X149113086Y-101400849D01*
X149115685Y-101400091D01*
X149349020Y-101337571D01*
X149349020Y-100574124D01*
X150347020Y-100574124D01*
X150347020Y-101331151D01*
X150604315Y-101400091D01*
X150606914Y-101400849D01*
X150640731Y-101411512D01*
X150643296Y-101412383D01*
X150686769Y-101428209D01*
X150689287Y-101429188D01*
X150722006Y-101442741D01*
X150724482Y-101443830D01*
X150980563Y-101563243D01*
X150982988Y-101564440D01*
X151014408Y-101580795D01*
X151016778Y-101582096D01*
X151056845Y-101605226D01*
X151059160Y-101606631D01*
X151089057Y-101625677D01*
X151091306Y-101627180D01*
X151130436Y-101654579D01*
X151168939Y-101627620D01*
X151171187Y-101626118D01*
X151201067Y-101607082D01*
X151203379Y-101605679D01*
X151243445Y-101582545D01*
X151245819Y-101581243D01*
X151277257Y-101564878D01*
X151279682Y-101563682D01*
X151535691Y-101444302D01*
X151538166Y-101443213D01*
X151570884Y-101429660D01*
X151573404Y-101428681D01*
X151616876Y-101412855D01*
X151619439Y-101411985D01*
X151653253Y-101401322D01*
X151655852Y-101400565D01*
X151849020Y-101348804D01*
X151849020Y-100574124D01*
X152847020Y-100574124D01*
X152847020Y-101320948D01*
X153144148Y-101400565D01*
X153146747Y-101401322D01*
X153180561Y-101411985D01*
X153183124Y-101412855D01*
X153226596Y-101428681D01*
X153229116Y-101429660D01*
X153261834Y-101443213D01*
X153264309Y-101444302D01*
X153520311Y-101563678D01*
X153522737Y-101564875D01*
X153554157Y-101581231D01*
X153556529Y-101582531D01*
X153596595Y-101605663D01*
X153598907Y-101607066D01*
X153628805Y-101626112D01*
X153631057Y-101627616D01*
X153669564Y-101654579D01*
X153708690Y-101627184D01*
X153710939Y-101625680D01*
X153740819Y-101606645D01*
X153743131Y-101605243D01*
X153783194Y-101582112D01*
X153785565Y-101580810D01*
X153817001Y-101564445D01*
X153819428Y-101563248D01*
X154075518Y-101443830D01*
X154077994Y-101442741D01*
X154110713Y-101429188D01*
X154113231Y-101428209D01*
X154156704Y-101412383D01*
X154159269Y-101411512D01*
X154193086Y-101400849D01*
X154195685Y-101400091D01*
X154349020Y-101359005D01*
X154349020Y-100574124D01*
X155347020Y-100574124D01*
X155347020Y-101313801D01*
X155371478Y-101318114D01*
X155374133Y-101318641D01*
X155408732Y-101326312D01*
X155411359Y-101326955D01*
X155684315Y-101400091D01*
X155686914Y-101400849D01*
X155720731Y-101411512D01*
X155723296Y-101412383D01*
X155766769Y-101428209D01*
X155769287Y-101429188D01*
X155802006Y-101442741D01*
X155804482Y-101443830D01*
X156060563Y-101563243D01*
X156062988Y-101564440D01*
X156094408Y-101580795D01*
X156096778Y-101582096D01*
X156136845Y-101605226D01*
X156139160Y-101606631D01*
X156169057Y-101625677D01*
X156171306Y-101627180D01*
X156402786Y-101789264D01*
X156404969Y-101790865D01*
X156433096Y-101812448D01*
X156435206Y-101814142D01*
X156470646Y-101843882D01*
X156472680Y-101845666D01*
X156498790Y-101869593D01*
X156500742Y-101871462D01*
X156700546Y-102071265D01*
X156702417Y-102073219D01*
X156705079Y-102076124D01*
X156849020Y-102076124D01*
X156849020Y-100574124D01*
X157847020Y-100574124D01*
X157847020Y-101941400D01*
X157868876Y-101901375D01*
X157871136Y-101897567D01*
X157902493Y-101848776D01*
X157905018Y-101845139D01*
X158036569Y-101669412D01*
X158039346Y-101665965D01*
X158077325Y-101622135D01*
X158080342Y-101618894D01*
X158133894Y-101565342D01*
X158137135Y-101562325D01*
X158180965Y-101524346D01*
X158184412Y-101521569D01*
X158360139Y-101390018D01*
X158363776Y-101387493D01*
X158412567Y-101356136D01*
X158416375Y-101353876D01*
X158482851Y-101317577D01*
X158486809Y-101315596D01*
X158539573Y-101291499D01*
X158543664Y-101289804D01*
X158744911Y-101214744D01*
X158748582Y-101213504D01*
X158797159Y-101198769D01*
X158800902Y-101197761D01*
X158865383Y-101182527D01*
X158869176Y-101181755D01*
X158919170Y-101173196D01*
X158923006Y-101172662D01*
X159029610Y-101161200D01*
X159031266Y-101161044D01*
X159052972Y-101159298D01*
X159054629Y-101159187D01*
X159082973Y-101157669D01*
X159084631Y-101157602D01*
X159106337Y-101157022D01*
X159107994Y-101157000D01*
X159349020Y-101157000D01*
X159349020Y-100574124D01*
X160347020Y-100574124D01*
X160347020Y-101157000D01*
X160932006Y-101157000D01*
X160933663Y-101157022D01*
X160955369Y-101157602D01*
X160957027Y-101157669D01*
X160985371Y-101159187D01*
X160987028Y-101159298D01*
X161008734Y-101161044D01*
X161010390Y-101161200D01*
X161116994Y-101172662D01*
X161120830Y-101173196D01*
X161170824Y-101181755D01*
X161174617Y-101182527D01*
X161239098Y-101197761D01*
X161242841Y-101198769D01*
X161291418Y-101213504D01*
X161295089Y-101214744D01*
X161496336Y-101289804D01*
X161500427Y-101291499D01*
X161553191Y-101315596D01*
X161557149Y-101317577D01*
X161620146Y-101351976D01*
X161695519Y-101316830D01*
X161697995Y-101315741D01*
X161730713Y-101302188D01*
X161733231Y-101301209D01*
X161776704Y-101285383D01*
X161779269Y-101284512D01*
X161813086Y-101273849D01*
X161815684Y-101273091D01*
X161849020Y-101264158D01*
X161849020Y-100574124D01*
X162847020Y-100574124D01*
X162847020Y-101172640D01*
X162905432Y-101177751D01*
X162908121Y-101178045D01*
X162943245Y-101182669D01*
X162945919Y-101183081D01*
X162991478Y-101191114D01*
X162994133Y-101191641D01*
X163028732Y-101199312D01*
X163031359Y-101199955D01*
X163304315Y-101273091D01*
X163306914Y-101273849D01*
X163340731Y-101284512D01*
X163343296Y-101285383D01*
X163386769Y-101301209D01*
X163389287Y-101302188D01*
X163422006Y-101315741D01*
X163424482Y-101316830D01*
X163680563Y-101436243D01*
X163682988Y-101437440D01*
X163714408Y-101453795D01*
X163716778Y-101455096D01*
X163756845Y-101478226D01*
X163759160Y-101479631D01*
X163789057Y-101498677D01*
X163791307Y-101500181D01*
X163829999Y-101527274D01*
X163868689Y-101500184D01*
X163870939Y-101498680D01*
X163900819Y-101479645D01*
X163903131Y-101478243D01*
X163943194Y-101455112D01*
X163945565Y-101453810D01*
X163977001Y-101437445D01*
X163979428Y-101436248D01*
X164235518Y-101316830D01*
X164237994Y-101315741D01*
X164270713Y-101302188D01*
X164273231Y-101301209D01*
X164316704Y-101285383D01*
X164319269Y-101284512D01*
X164349020Y-101275131D01*
X164349020Y-100574124D01*
X165347020Y-100574124D01*
X165347020Y-101169140D01*
X165445432Y-101177751D01*
X165448121Y-101178045D01*
X165483245Y-101182669D01*
X165485919Y-101183081D01*
X165531478Y-101191114D01*
X165534133Y-101191641D01*
X165568732Y-101199312D01*
X165571359Y-101199955D01*
X165844315Y-101273091D01*
X165846914Y-101273849D01*
X165880731Y-101284512D01*
X165883296Y-101285383D01*
X165926769Y-101301209D01*
X165929287Y-101302188D01*
X165962006Y-101315741D01*
X165964482Y-101316830D01*
X166220563Y-101436243D01*
X166222988Y-101437440D01*
X166254408Y-101453795D01*
X166256778Y-101455096D01*
X166296845Y-101478226D01*
X166299160Y-101479631D01*
X166329057Y-101498677D01*
X166331307Y-101500181D01*
X166369999Y-101527274D01*
X166408689Y-101500184D01*
X166410939Y-101498680D01*
X166440819Y-101479645D01*
X166443131Y-101478243D01*
X166483194Y-101455112D01*
X166485565Y-101453810D01*
X166517001Y-101437445D01*
X166519428Y-101436248D01*
X166775518Y-101316830D01*
X166777994Y-101315741D01*
X166810713Y-101302188D01*
X166813231Y-101301209D01*
X166849020Y-101288180D01*
X166849020Y-100574124D01*
X167847020Y-100574124D01*
X167847020Y-101165640D01*
X167985432Y-101177751D01*
X167988121Y-101178045D01*
X168023245Y-101182669D01*
X168025919Y-101183081D01*
X168071478Y-101191114D01*
X168074133Y-101191641D01*
X168108732Y-101199312D01*
X168111359Y-101199955D01*
X168384315Y-101273091D01*
X168386914Y-101273849D01*
X168420731Y-101284512D01*
X168423296Y-101285383D01*
X168466769Y-101301209D01*
X168469287Y-101302188D01*
X168502006Y-101315741D01*
X168504482Y-101316830D01*
X168760563Y-101436243D01*
X168762988Y-101437440D01*
X168794408Y-101453795D01*
X168796778Y-101455096D01*
X168836845Y-101478226D01*
X168839160Y-101479631D01*
X168869057Y-101498677D01*
X168871306Y-101500180D01*
X169102786Y-101662264D01*
X169104969Y-101663865D01*
X169133096Y-101685448D01*
X169135206Y-101687142D01*
X169170646Y-101716882D01*
X169172680Y-101718666D01*
X169198790Y-101742593D01*
X169200742Y-101744462D01*
X169349020Y-101892739D01*
X169349020Y-100574124D01*
X170347020Y-100574124D01*
X170347020Y-102076124D01*
X171849020Y-102076124D01*
X171849020Y-101503816D01*
X171824354Y-101483117D01*
X171822322Y-101481335D01*
X171796211Y-101457409D01*
X171794256Y-101455538D01*
X171594462Y-101255744D01*
X171592591Y-101253789D01*
X171568665Y-101227678D01*
X171566883Y-101225646D01*
X171537143Y-101190207D01*
X171535449Y-101188096D01*
X171513865Y-101159969D01*
X171512264Y-101157786D01*
X171350180Y-100926306D01*
X171348677Y-100924057D01*
X171329631Y-100894160D01*
X171328226Y-100891845D01*
X171305096Y-100851778D01*
X171303795Y-100849408D01*
X171287440Y-100817988D01*
X171286243Y-100815563D01*
X171173658Y-100574124D01*
X170347020Y-100574124D01*
X169349020Y-100574124D01*
X167847020Y-100574124D01*
X166849020Y-100574124D01*
X165347020Y-100574124D01*
X164349020Y-100574124D01*
X162847020Y-100574124D01*
X161849020Y-100574124D01*
X160347020Y-100574124D01*
X159349020Y-100574124D01*
X157847020Y-100574124D01*
X156849020Y-100574124D01*
X155347020Y-100574124D01*
X154349020Y-100574124D01*
X152847020Y-100574124D01*
X151849020Y-100574124D01*
X150347020Y-100574124D01*
X149349020Y-100574124D01*
X147847020Y-100574124D01*
X146849020Y-100574124D01*
X145347020Y-100574124D01*
X144349020Y-100574124D01*
X142847020Y-100574124D01*
X141849020Y-100574124D01*
X140347020Y-100574124D01*
X137971423Y-100574124D01*
X137969071Y-100571512D01*
X137962038Y-100566402D01*
X137815934Y-100460251D01*
X137815929Y-100460248D01*
X137643007Y-100383257D01*
X137643002Y-100383255D01*
X137497201Y-100352265D01*
X137457846Y-100343900D01*
X137268554Y-100343900D01*
X137236097Y-100350798D01*
X137083397Y-100383255D01*
X137083392Y-100383257D01*
X136910470Y-100460248D01*
X136910465Y-100460251D01*
X136757329Y-100571511D01*
X136630666Y-100712185D01*
X136536021Y-100876115D01*
X136536018Y-100876122D01*
X136486001Y-101030061D01*
X136477526Y-101056144D01*
X136463285Y-101191641D01*
X136459498Y-101227678D01*
X136457740Y-101244400D01*
X136477526Y-101432656D01*
X136478693Y-101436248D01*
X136536018Y-101612677D01*
X136536021Y-101612684D01*
X136630667Y-101776616D01*
X136714384Y-101869593D01*
X136757329Y-101917288D01*
X136910465Y-102028548D01*
X136910470Y-102028551D01*
X136978575Y-102058874D01*
X137031812Y-102104124D01*
X137052133Y-102170974D01*
X137033087Y-102238197D01*
X136980721Y-102284452D01*
X136938948Y-102295681D01*
X136924596Y-102296936D01*
X136924586Y-102296938D01*
X136696344Y-102358094D01*
X136696335Y-102358098D01*
X136482171Y-102457964D01*
X136482169Y-102457965D01*
X136288600Y-102593503D01*
X136166673Y-102715430D01*
X136105350Y-102748914D01*
X136035658Y-102743930D01*
X135979725Y-102702058D01*
X135962810Y-102671081D01*
X135913797Y-102539671D01*
X135913793Y-102539664D01*
X135827547Y-102424455D01*
X135827544Y-102424452D01*
X135712335Y-102338206D01*
X135712328Y-102338202D01*
X135577482Y-102287908D01*
X135577483Y-102287908D01*
X135517883Y-102281501D01*
X135517881Y-102281500D01*
X135517873Y-102281500D01*
X135517864Y-102281500D01*
X133722129Y-102281500D01*
X133722123Y-102281501D01*
X133662516Y-102287908D01*
X133527671Y-102338202D01*
X133527664Y-102338206D01*
X133412455Y-102424452D01*
X133412452Y-102424455D01*
X133326206Y-102539664D01*
X133326202Y-102539671D01*
X133275908Y-102674517D01*
X133269501Y-102734116D01*
X133269500Y-102734135D01*
X133269500Y-104529870D01*
X131860210Y-104529870D01*
X130128654Y-102498621D01*
X130100144Y-102434833D01*
X130099021Y-102417582D01*
X130100779Y-102051870D01*
X131224792Y-102051870D01*
X131245467Y-102076124D01*
X131849020Y-102076124D01*
X131849020Y-100574124D01*
X132847020Y-100574124D01*
X132847020Y-101601075D01*
X132959897Y-101516575D01*
X132963534Y-101514050D01*
X133012325Y-101482693D01*
X133016133Y-101480433D01*
X133082609Y-101444134D01*
X133086568Y-101442153D01*
X133139333Y-101418055D01*
X133143424Y-101416361D01*
X133344797Y-101341254D01*
X133348467Y-101340014D01*
X133397025Y-101325285D01*
X133400764Y-101324277D01*
X133465249Y-101309038D01*
X133469045Y-101308265D01*
X133519069Y-101299701D01*
X133522907Y-101299166D01*
X133629581Y-101287699D01*
X133631236Y-101287544D01*
X133652928Y-101285799D01*
X133654585Y-101285688D01*
X133682924Y-101284170D01*
X133684584Y-101284103D01*
X133706293Y-101283523D01*
X133707949Y-101283501D01*
X134349020Y-101283500D01*
X134349020Y-101113370D01*
X134167060Y-100981170D01*
X134164483Y-100979193D01*
X134131438Y-100952432D01*
X134128971Y-100950325D01*
X134087710Y-100913175D01*
X134085355Y-100910939D01*
X134055283Y-100880867D01*
X134053048Y-100878513D01*
X133889237Y-100696582D01*
X133887130Y-100694115D01*
X133860373Y-100661074D01*
X133858397Y-100658499D01*
X133825760Y-100613581D01*
X133823920Y-100610904D01*
X133800752Y-100575229D01*
X133800075Y-100574124D01*
X132847020Y-100574124D01*
X131849020Y-100574124D01*
X131231897Y-100574124D01*
X131224792Y-102051870D01*
X130100779Y-102051870D01*
X130112682Y-99576124D01*
X131236695Y-99576124D01*
X131849020Y-99576124D01*
X131849020Y-98074124D01*
X132847020Y-98074124D01*
X132847020Y-99576124D01*
X133480088Y-99576124D01*
X133478625Y-99548206D01*
X133478540Y-99544960D01*
X133478540Y-99517200D01*
X134476540Y-99517200D01*
X134496326Y-99705456D01*
X134496327Y-99705459D01*
X134554818Y-99885477D01*
X134554821Y-99885484D01*
X134649467Y-100049416D01*
X134747827Y-100158655D01*
X134776129Y-100190088D01*
X134929265Y-100301348D01*
X134929270Y-100301351D01*
X135102192Y-100378342D01*
X135102197Y-100378344D01*
X135287354Y-100417700D01*
X135287355Y-100417700D01*
X135476644Y-100417700D01*
X135476646Y-100417700D01*
X135661803Y-100378344D01*
X135834730Y-100301351D01*
X135987871Y-100190088D01*
X136114533Y-100049416D01*
X136209179Y-99885484D01*
X136267674Y-99705456D01*
X136268773Y-99695000D01*
X171999341Y-99695000D01*
X172019936Y-99930403D01*
X172019938Y-99930413D01*
X172081094Y-100158655D01*
X172081096Y-100158659D01*
X172081097Y-100158663D01*
X172095751Y-100190088D01*
X172180965Y-100372830D01*
X172180967Y-100372834D01*
X172242176Y-100460249D01*
X172316505Y-100566401D01*
X172483599Y-100733495D01*
X172580384Y-100801264D01*
X172677165Y-100869032D01*
X172677167Y-100869033D01*
X172677170Y-100869035D01*
X172891337Y-100968903D01*
X173119592Y-101030063D01*
X173307918Y-101046539D01*
X173354999Y-101050659D01*
X173355000Y-101050659D01*
X173355001Y-101050659D01*
X173394234Y-101047226D01*
X173590408Y-101030063D01*
X173818663Y-100968903D01*
X174032830Y-100869035D01*
X174226401Y-100733495D01*
X174393495Y-100566401D01*
X174529035Y-100372830D01*
X174628903Y-100158663D01*
X174690063Y-99930408D01*
X174710659Y-99695000D01*
X174690063Y-99459592D01*
X174637527Y-99263522D01*
X174628905Y-99231344D01*
X174628904Y-99231343D01*
X174628903Y-99231337D01*
X174529035Y-99017171D01*
X174506499Y-98984985D01*
X174393494Y-98823597D01*
X174226402Y-98656506D01*
X174226396Y-98656501D01*
X174040842Y-98526575D01*
X173997217Y-98471998D01*
X173990023Y-98402500D01*
X174021546Y-98340145D01*
X174040842Y-98323425D01*
X174068365Y-98304153D01*
X174226401Y-98193495D01*
X174393495Y-98026401D01*
X174529035Y-97832830D01*
X174628903Y-97618663D01*
X174690063Y-97390408D01*
X174710659Y-97155000D01*
X174710374Y-97151748D01*
X174697041Y-96999348D01*
X174690063Y-96919592D01*
X174628903Y-96691337D01*
X174529035Y-96477171D01*
X174496628Y-96430888D01*
X174393494Y-96283597D01*
X174226402Y-96116506D01*
X174226401Y-96116505D01*
X174063180Y-96002216D01*
X174040841Y-95986574D01*
X173997216Y-95931997D01*
X173990024Y-95862498D01*
X174021546Y-95800144D01*
X174040836Y-95783428D01*
X174226401Y-95653495D01*
X174393495Y-95486401D01*
X174529035Y-95292830D01*
X174628903Y-95078663D01*
X174690063Y-94850408D01*
X174710659Y-94615000D01*
X174690063Y-94379592D01*
X174637527Y-94183522D01*
X174628905Y-94151344D01*
X174628904Y-94151343D01*
X174628903Y-94151337D01*
X174529035Y-93937171D01*
X174526983Y-93934241D01*
X174393496Y-93743600D01*
X174347769Y-93697873D01*
X174271179Y-93621283D01*
X174237696Y-93559963D01*
X174242680Y-93490271D01*
X174284551Y-93434337D01*
X174315529Y-93417422D01*
X174447086Y-93368354D01*
X174447093Y-93368350D01*
X174562187Y-93282190D01*
X174562190Y-93282187D01*
X174648350Y-93167093D01*
X174648354Y-93167086D01*
X174698596Y-93032379D01*
X174698598Y-93032372D01*
X174704999Y-92972844D01*
X174705000Y-92972827D01*
X174705000Y-92325000D01*
X173788686Y-92325000D01*
X173814493Y-92284844D01*
X173855000Y-92146889D01*
X173855000Y-92003111D01*
X173814493Y-91865156D01*
X173788686Y-91825000D01*
X174705000Y-91825000D01*
X174705000Y-91177172D01*
X174704999Y-91177155D01*
X174698598Y-91117627D01*
X174698596Y-91117620D01*
X174648354Y-90982913D01*
X174648350Y-90982906D01*
X174562190Y-90867812D01*
X174562187Y-90867809D01*
X174447093Y-90781649D01*
X174447086Y-90781645D01*
X174312379Y-90731403D01*
X174312372Y-90731401D01*
X174252844Y-90725000D01*
X173605000Y-90725000D01*
X173605000Y-91639498D01*
X173497315Y-91590320D01*
X173390763Y-91575000D01*
X173319237Y-91575000D01*
X173212685Y-91590320D01*
X173105000Y-91639498D01*
X173105000Y-90725000D01*
X172457155Y-90725000D01*
X172397627Y-90731401D01*
X172397620Y-90731403D01*
X172262913Y-90781645D01*
X172262906Y-90781649D01*
X172147812Y-90867809D01*
X172147809Y-90867812D01*
X172061649Y-90982906D01*
X172061645Y-90982913D01*
X172011403Y-91117620D01*
X172011401Y-91117627D01*
X172005000Y-91177155D01*
X172005000Y-91825000D01*
X172921314Y-91825000D01*
X172895507Y-91865156D01*
X172855000Y-92003111D01*
X172855000Y-92146889D01*
X172895507Y-92284844D01*
X172921314Y-92325000D01*
X172005000Y-92325000D01*
X172005000Y-92972844D01*
X172011401Y-93032372D01*
X172011403Y-93032379D01*
X172061645Y-93167086D01*
X172061649Y-93167093D01*
X172147809Y-93282187D01*
X172147812Y-93282190D01*
X172262906Y-93368350D01*
X172262913Y-93368354D01*
X172394470Y-93417421D01*
X172450403Y-93459292D01*
X172474821Y-93524756D01*
X172459970Y-93593029D01*
X172438819Y-93621284D01*
X172316503Y-93743600D01*
X172180965Y-93937169D01*
X172180964Y-93937171D01*
X172081098Y-94151335D01*
X172081094Y-94151344D01*
X172019938Y-94379586D01*
X172019936Y-94379596D01*
X171999341Y-94614999D01*
X171999341Y-94615000D01*
X172019936Y-94850403D01*
X172019938Y-94850413D01*
X172081094Y-95078655D01*
X172081096Y-95078659D01*
X172081097Y-95078663D01*
X172172438Y-95274543D01*
X172180965Y-95292830D01*
X172180967Y-95292834D01*
X172316501Y-95486395D01*
X172316506Y-95486402D01*
X172483597Y-95653493D01*
X172483603Y-95653498D01*
X172669158Y-95783425D01*
X172712783Y-95838002D01*
X172719977Y-95907500D01*
X172688454Y-95969855D01*
X172669158Y-95986575D01*
X172483597Y-96116505D01*
X172316505Y-96283597D01*
X172180965Y-96477169D01*
X172180964Y-96477171D01*
X172131393Y-96583477D01*
X172081257Y-96690995D01*
X172081098Y-96691335D01*
X172081094Y-96691344D01*
X172019938Y-96919586D01*
X172019936Y-96919596D01*
X171999341Y-97154997D01*
X172019936Y-97390403D01*
X172019938Y-97390413D01*
X172081094Y-97618655D01*
X172081096Y-97618659D01*
X172081097Y-97618663D01*
X172131481Y-97726711D01*
X172180965Y-97832830D01*
X172180967Y-97832834D01*
X172316501Y-98026395D01*
X172316506Y-98026402D01*
X172483597Y-98193493D01*
X172483603Y-98193498D01*
X172669158Y-98323425D01*
X172712783Y-98378002D01*
X172719977Y-98447500D01*
X172688454Y-98509855D01*
X172669158Y-98526575D01*
X172483597Y-98656505D01*
X172316505Y-98823597D01*
X172180965Y-99017169D01*
X172180964Y-99017171D01*
X172081098Y-99231335D01*
X172081094Y-99231344D01*
X172019938Y-99459586D01*
X172019936Y-99459596D01*
X171999341Y-99694999D01*
X171999341Y-99695000D01*
X136268773Y-99695000D01*
X136287460Y-99517200D01*
X136267674Y-99328944D01*
X136209179Y-99148916D01*
X136114533Y-98984984D01*
X135987871Y-98844312D01*
X135987870Y-98844311D01*
X135834734Y-98733051D01*
X135834729Y-98733048D01*
X135661807Y-98656057D01*
X135661802Y-98656055D01*
X135516000Y-98625065D01*
X135476646Y-98616700D01*
X135287354Y-98616700D01*
X135254897Y-98623598D01*
X135102197Y-98656055D01*
X135102192Y-98656057D01*
X134929270Y-98733048D01*
X134929265Y-98733051D01*
X134776129Y-98844311D01*
X134649466Y-98984985D01*
X134554821Y-99148915D01*
X134554818Y-99148922D01*
X134505698Y-99300100D01*
X134496326Y-99328944D01*
X134476540Y-99517200D01*
X133478540Y-99517200D01*
X133478540Y-99489440D01*
X133478625Y-99486194D01*
X133480851Y-99443727D01*
X133481106Y-99440491D01*
X133506695Y-99197023D01*
X133507119Y-99193805D01*
X133513768Y-99151816D01*
X133514359Y-99148626D01*
X133525901Y-99094315D01*
X133526659Y-99091157D01*
X133537669Y-99050067D01*
X133538591Y-99046953D01*
X133614249Y-98814103D01*
X133615333Y-98811041D01*
X133630583Y-98771319D01*
X133631826Y-98768319D01*
X133654411Y-98717598D01*
X133655808Y-98714669D01*
X133675104Y-98676802D01*
X133676652Y-98673950D01*
X133799055Y-98461939D01*
X133800752Y-98459171D01*
X133823920Y-98423496D01*
X133825760Y-98420819D01*
X133858397Y-98375901D01*
X133860373Y-98373326D01*
X133887130Y-98340285D01*
X133889237Y-98337818D01*
X134053048Y-98155887D01*
X134055283Y-98153533D01*
X134085355Y-98123461D01*
X134087710Y-98121225D01*
X134128971Y-98084075D01*
X134131438Y-98081968D01*
X134141124Y-98074124D01*
X137847020Y-98074124D01*
X137847020Y-99406324D01*
X137877648Y-99412835D01*
X137880804Y-99413593D01*
X137921872Y-99424597D01*
X137924983Y-99425518D01*
X137977791Y-99442675D01*
X137980854Y-99443759D01*
X138020567Y-99459004D01*
X138023567Y-99460247D01*
X138247210Y-99559821D01*
X138250138Y-99561218D01*
X138279395Y-99576124D01*
X139349020Y-99576124D01*
X139349020Y-98074124D01*
X140347020Y-98074124D01*
X140347020Y-99576124D01*
X141849020Y-99576124D01*
X145347020Y-99576124D01*
X146849020Y-99576124D01*
X146849020Y-98074124D01*
X147847020Y-98074124D01*
X147847020Y-99576124D01*
X149349020Y-99576124D01*
X149349020Y-98113264D01*
X150347020Y-98113264D01*
X150347020Y-99576124D01*
X151849020Y-99576124D01*
X151849020Y-98362070D01*
X151658992Y-98402462D01*
X151655800Y-98403053D01*
X151613816Y-98409703D01*
X151610601Y-98410126D01*
X151555385Y-98415933D01*
X151552146Y-98416188D01*
X151509662Y-98418415D01*
X151506416Y-98418500D01*
X151261584Y-98418500D01*
X151258338Y-98418415D01*
X151215854Y-98416188D01*
X151212615Y-98415933D01*
X151157399Y-98410126D01*
X151154184Y-98409703D01*
X151112200Y-98403053D01*
X151109008Y-98402462D01*
X150869553Y-98351565D01*
X150866396Y-98350807D01*
X150825328Y-98339803D01*
X150822217Y-98338882D01*
X150769409Y-98321725D01*
X150766346Y-98320641D01*
X150726633Y-98305396D01*
X150723633Y-98304153D01*
X150499990Y-98204579D01*
X150497062Y-98203182D01*
X150459190Y-98183887D01*
X150456336Y-98182338D01*
X150408252Y-98154578D01*
X150405484Y-98152882D01*
X150369804Y-98129713D01*
X150367127Y-98127873D01*
X150347020Y-98113264D01*
X149349020Y-98113264D01*
X149349020Y-98074124D01*
X152847020Y-98074124D01*
X152847020Y-99576124D01*
X154349020Y-99576124D01*
X154349020Y-98074124D01*
X155347020Y-98074124D01*
X155347020Y-99576124D01*
X156849020Y-99576124D01*
X156849020Y-98074124D01*
X157847020Y-98074124D01*
X157847020Y-99576124D01*
X159349020Y-99576124D01*
X160347020Y-99576124D01*
X161849020Y-99576124D01*
X161849020Y-98074124D01*
X162847020Y-98074124D01*
X162847020Y-99576124D01*
X164349020Y-99576124D01*
X164349020Y-98074124D01*
X165347020Y-98074124D01*
X165347020Y-99576124D01*
X166849020Y-99576124D01*
X166849020Y-98074124D01*
X167847020Y-98074124D01*
X167847020Y-99576124D01*
X169349020Y-99576124D01*
X169349020Y-98203642D01*
X170347020Y-98203642D01*
X170347020Y-99576124D01*
X171007929Y-99576124D01*
X171027751Y-99349568D01*
X171028045Y-99346879D01*
X171032669Y-99311755D01*
X171033081Y-99309081D01*
X171041114Y-99263522D01*
X171041641Y-99260867D01*
X171049312Y-99226268D01*
X171049955Y-99223641D01*
X171123091Y-98950685D01*
X171123849Y-98948086D01*
X171134512Y-98914269D01*
X171135383Y-98911704D01*
X171151209Y-98868231D01*
X171152188Y-98865713D01*
X171165741Y-98832994D01*
X171166830Y-98830518D01*
X171286248Y-98574428D01*
X171287445Y-98572001D01*
X171303810Y-98540565D01*
X171305112Y-98538194D01*
X171328243Y-98498131D01*
X171329645Y-98495819D01*
X171348680Y-98465939D01*
X171350184Y-98463689D01*
X171377274Y-98424999D01*
X171350181Y-98386307D01*
X171348677Y-98384057D01*
X171329631Y-98354160D01*
X171328226Y-98351845D01*
X171305096Y-98311778D01*
X171303795Y-98309408D01*
X171287440Y-98277988D01*
X171286244Y-98275563D01*
X171260017Y-98219321D01*
X171115392Y-98250062D01*
X171112200Y-98250653D01*
X171070216Y-98257303D01*
X171067001Y-98257726D01*
X171011785Y-98263533D01*
X171008546Y-98263788D01*
X170966062Y-98266015D01*
X170962816Y-98266100D01*
X170717984Y-98266100D01*
X170714738Y-98266015D01*
X170672254Y-98263788D01*
X170669015Y-98263533D01*
X170613799Y-98257726D01*
X170610584Y-98257303D01*
X170568600Y-98250653D01*
X170565408Y-98250062D01*
X170347020Y-98203642D01*
X169349020Y-98203642D01*
X169349020Y-98074124D01*
X167847020Y-98074124D01*
X166849020Y-98074124D01*
X165347020Y-98074124D01*
X164349020Y-98074124D01*
X162847020Y-98074124D01*
X161849020Y-98074124D01*
X161015329Y-98074124D01*
X160904592Y-98097662D01*
X160901400Y-98098253D01*
X160859416Y-98104903D01*
X160856201Y-98105326D01*
X160800985Y-98111133D01*
X160797746Y-98111388D01*
X160755262Y-98113615D01*
X160752016Y-98113700D01*
X160507184Y-98113700D01*
X160503938Y-98113615D01*
X160461454Y-98111388D01*
X160458215Y-98111133D01*
X160402999Y-98105326D01*
X160399784Y-98104903D01*
X160357800Y-98098253D01*
X160354608Y-98097662D01*
X160347020Y-98096049D01*
X160347020Y-99576124D01*
X159349020Y-99576124D01*
X159349020Y-98074124D01*
X157847020Y-98074124D01*
X156849020Y-98074124D01*
X155347020Y-98074124D01*
X154349020Y-98074124D01*
X152847020Y-98074124D01*
X149349020Y-98074124D01*
X147847020Y-98074124D01*
X146849020Y-98074124D01*
X145587751Y-98074124D01*
X145588081Y-98076205D01*
X145588505Y-98079423D01*
X145614094Y-98322891D01*
X145614349Y-98326127D01*
X145616575Y-98368594D01*
X145616660Y-98371840D01*
X145616660Y-98427360D01*
X145616575Y-98430606D01*
X145614349Y-98473073D01*
X145614094Y-98476309D01*
X145588505Y-98719777D01*
X145588081Y-98722995D01*
X145581432Y-98764984D01*
X145580841Y-98768174D01*
X145569299Y-98822485D01*
X145568541Y-98825643D01*
X145557531Y-98866733D01*
X145556609Y-98869847D01*
X145480951Y-99102697D01*
X145479867Y-99105759D01*
X145464617Y-99145481D01*
X145463374Y-99148481D01*
X145440789Y-99199202D01*
X145439392Y-99202131D01*
X145420096Y-99239998D01*
X145418548Y-99242850D01*
X145347020Y-99366739D01*
X145347020Y-99576124D01*
X141849020Y-99576124D01*
X141849020Y-98784458D01*
X141845559Y-98768175D01*
X141844968Y-98764984D01*
X141838319Y-98722995D01*
X141837895Y-98719777D01*
X141812306Y-98476309D01*
X141812051Y-98473073D01*
X141809825Y-98430606D01*
X141809740Y-98427360D01*
X141809740Y-98399600D01*
X142807740Y-98399600D01*
X142827526Y-98587856D01*
X142827527Y-98587859D01*
X142886018Y-98767877D01*
X142886021Y-98767884D01*
X142980667Y-98931816D01*
X143084337Y-99046953D01*
X143107329Y-99072488D01*
X143260465Y-99183748D01*
X143260470Y-99183751D01*
X143433392Y-99260742D01*
X143433397Y-99260744D01*
X143618554Y-99300100D01*
X143618555Y-99300100D01*
X143807844Y-99300100D01*
X143807846Y-99300100D01*
X143993003Y-99260744D01*
X144165930Y-99183751D01*
X144319071Y-99072488D01*
X144445733Y-98931816D01*
X144540379Y-98767884D01*
X144598874Y-98587856D01*
X144618660Y-98399600D01*
X144598874Y-98211344D01*
X144540379Y-98031316D01*
X144445733Y-97867384D01*
X144319071Y-97726712D01*
X144319070Y-97726711D01*
X144165934Y-97615451D01*
X144165929Y-97615448D01*
X143993007Y-97538457D01*
X143993002Y-97538455D01*
X143847201Y-97507465D01*
X143807846Y-97499100D01*
X143618554Y-97499100D01*
X143586097Y-97505998D01*
X143433397Y-97538455D01*
X143433392Y-97538457D01*
X143260470Y-97615448D01*
X143260465Y-97615451D01*
X143107329Y-97726711D01*
X142980666Y-97867385D01*
X142886021Y-98031315D01*
X142886018Y-98031322D01*
X142829724Y-98204579D01*
X142827526Y-98211344D01*
X142807740Y-98399600D01*
X141809740Y-98399600D01*
X141809740Y-98371840D01*
X141809825Y-98368594D01*
X141812051Y-98326127D01*
X141812306Y-98322891D01*
X141837895Y-98079423D01*
X141838319Y-98076205D01*
X141838649Y-98074124D01*
X140347020Y-98074124D01*
X139349020Y-98074124D01*
X137847020Y-98074124D01*
X134141124Y-98074124D01*
X132847020Y-98074124D01*
X131849020Y-98074124D01*
X131243916Y-98074124D01*
X131236695Y-99576124D01*
X130112682Y-99576124D01*
X130124701Y-97076124D01*
X131248714Y-97076124D01*
X131849020Y-97076124D01*
X131849020Y-95574124D01*
X132847020Y-95574124D01*
X132847020Y-97076124D01*
X134349020Y-97076124D01*
X134349020Y-95574124D01*
X135347020Y-95574124D01*
X135347020Y-95984680D01*
X135363912Y-95979874D01*
X135582518Y-95939010D01*
X135605303Y-95936899D01*
X135827695Y-95936899D01*
X135850480Y-95939010D01*
X136069086Y-95979874D01*
X136091095Y-95986136D01*
X136298471Y-96066474D01*
X136318955Y-96076674D01*
X136508037Y-96193749D01*
X136526297Y-96207539D01*
X136690647Y-96357364D01*
X136706063Y-96374274D01*
X136840085Y-96551747D01*
X136849020Y-96566177D01*
X136849020Y-95574124D01*
X137847020Y-95574124D01*
X137847020Y-97076124D01*
X139349020Y-97076124D01*
X139349020Y-95574124D01*
X140347020Y-95574124D01*
X140347020Y-97076124D01*
X141849020Y-97076124D01*
X141849020Y-95574124D01*
X142847020Y-95574124D01*
X142847020Y-96707082D01*
X143052833Y-96615447D01*
X143055833Y-96614204D01*
X143095546Y-96598959D01*
X143098609Y-96597875D01*
X143151417Y-96580718D01*
X143154528Y-96579797D01*
X143195596Y-96568793D01*
X143198753Y-96568035D01*
X143438208Y-96517138D01*
X143441400Y-96516547D01*
X143483384Y-96509897D01*
X143486599Y-96509474D01*
X143541815Y-96503667D01*
X143545054Y-96503412D01*
X143587538Y-96501185D01*
X143590784Y-96501100D01*
X143835616Y-96501100D01*
X143838862Y-96501185D01*
X143881346Y-96503412D01*
X143884585Y-96503667D01*
X143939801Y-96509474D01*
X143943016Y-96509897D01*
X143985000Y-96516547D01*
X143988192Y-96517138D01*
X144227647Y-96568035D01*
X144230804Y-96568793D01*
X144271872Y-96579797D01*
X144274983Y-96580718D01*
X144327791Y-96597875D01*
X144330854Y-96598959D01*
X144349020Y-96605932D01*
X144349020Y-95574124D01*
X145347020Y-95574124D01*
X145347020Y-97076124D01*
X146849020Y-97076124D01*
X146849020Y-95574124D01*
X147847020Y-95574124D01*
X147847020Y-97076124D01*
X149349020Y-97076124D01*
X149349020Y-96520000D01*
X150478540Y-96520000D01*
X150498326Y-96708256D01*
X150498327Y-96708259D01*
X150556818Y-96888277D01*
X150556821Y-96888284D01*
X150651467Y-97052216D01*
X150778128Y-97192888D01*
X150778129Y-97192888D01*
X150931265Y-97304148D01*
X150931270Y-97304151D01*
X151104192Y-97381142D01*
X151104197Y-97381144D01*
X151289354Y-97420500D01*
X151289355Y-97420500D01*
X151478644Y-97420500D01*
X151478646Y-97420500D01*
X151663803Y-97381144D01*
X151836730Y-97304151D01*
X151989871Y-97192888D01*
X152116533Y-97052216D01*
X152211179Y-96888284D01*
X152269674Y-96708256D01*
X152289460Y-96520000D01*
X152269674Y-96331744D01*
X152211179Y-96151716D01*
X152116533Y-95987784D01*
X151989871Y-95847112D01*
X151989870Y-95847111D01*
X151984691Y-95843348D01*
X153160343Y-95843348D01*
X153227409Y-96049753D01*
X153228331Y-96052867D01*
X153239341Y-96093957D01*
X153240099Y-96097115D01*
X153251641Y-96151426D01*
X153252232Y-96154616D01*
X153258881Y-96196605D01*
X153259305Y-96199823D01*
X153284894Y-96443291D01*
X153285149Y-96446527D01*
X153287375Y-96488994D01*
X153287460Y-96492240D01*
X153287460Y-96547760D01*
X153287375Y-96551006D01*
X153285149Y-96593473D01*
X153284894Y-96596709D01*
X153259305Y-96840177D01*
X153258881Y-96843395D01*
X153252232Y-96885384D01*
X153251641Y-96888574D01*
X153240099Y-96942885D01*
X153239341Y-96946043D01*
X153228331Y-96987133D01*
X153227409Y-96990247D01*
X153199506Y-97076124D01*
X154349020Y-97076124D01*
X154349020Y-95574124D01*
X155347020Y-95574124D01*
X155347020Y-97076124D01*
X156849020Y-97076124D01*
X156849020Y-95758000D01*
X158708140Y-95758000D01*
X158727926Y-95946256D01*
X158727927Y-95946259D01*
X158786418Y-96126277D01*
X158786421Y-96126284D01*
X158881067Y-96290216D01*
X158978662Y-96398606D01*
X159007729Y-96430888D01*
X159160865Y-96542148D01*
X159160870Y-96542151D01*
X159333792Y-96619142D01*
X159333797Y-96619144D01*
X159518954Y-96658500D01*
X159518955Y-96658500D01*
X159708241Y-96658500D01*
X159708246Y-96658500D01*
X159742582Y-96651201D01*
X159812245Y-96656516D01*
X159867979Y-96698652D01*
X159875748Y-96710491D01*
X159897065Y-96747414D01*
X160023729Y-96888088D01*
X160176865Y-96999348D01*
X160176870Y-96999351D01*
X160349792Y-97076342D01*
X160349797Y-97076344D01*
X160534954Y-97115700D01*
X160534955Y-97115700D01*
X160724244Y-97115700D01*
X160724246Y-97115700D01*
X160909403Y-97076344D01*
X161082330Y-96999351D01*
X161235471Y-96888088D01*
X161362133Y-96747416D01*
X161456779Y-96583484D01*
X161515274Y-96403456D01*
X161535060Y-96215200D01*
X161515274Y-96026944D01*
X161456779Y-95846916D01*
X161362133Y-95682984D01*
X161264115Y-95574124D01*
X165347020Y-95574124D01*
X165347020Y-95663787D01*
X165387887Y-95807422D01*
X165392092Y-95829915D01*
X165412612Y-96051359D01*
X165412612Y-96074241D01*
X165392092Y-96295685D01*
X165387887Y-96318178D01*
X165347020Y-96461811D01*
X165347020Y-97076124D01*
X166849020Y-97076124D01*
X166849020Y-95574124D01*
X167847020Y-95574124D01*
X167847020Y-97076124D01*
X169074641Y-97076124D01*
X169073733Y-97073759D01*
X169072649Y-97070697D01*
X168996991Y-96837847D01*
X168996069Y-96834733D01*
X168985059Y-96793643D01*
X168984301Y-96790485D01*
X168972759Y-96736174D01*
X168972168Y-96732984D01*
X168965519Y-96690995D01*
X168965095Y-96687777D01*
X168939506Y-96444309D01*
X168939251Y-96441073D01*
X168937025Y-96398606D01*
X168936940Y-96395360D01*
X168936940Y-96367600D01*
X169934940Y-96367600D01*
X169954726Y-96555856D01*
X169954727Y-96555859D01*
X170013218Y-96735877D01*
X170013221Y-96735884D01*
X170107867Y-96899816D01*
X170197489Y-96999351D01*
X170234529Y-97040488D01*
X170387665Y-97151748D01*
X170387670Y-97151751D01*
X170560592Y-97228742D01*
X170560597Y-97228744D01*
X170745754Y-97268100D01*
X170745755Y-97268100D01*
X170935044Y-97268100D01*
X170935046Y-97268100D01*
X171120203Y-97228744D01*
X171293130Y-97151751D01*
X171446271Y-97040488D01*
X171572933Y-96899816D01*
X171667579Y-96735884D01*
X171726074Y-96555856D01*
X171745860Y-96367600D01*
X171726074Y-96179344D01*
X171667579Y-95999316D01*
X171572933Y-95835384D01*
X171446271Y-95694712D01*
X171446270Y-95694711D01*
X171293134Y-95583451D01*
X171293129Y-95583448D01*
X171120207Y-95506457D01*
X171120202Y-95506455D01*
X170974400Y-95475465D01*
X170935046Y-95467100D01*
X170745754Y-95467100D01*
X170713297Y-95473998D01*
X170560597Y-95506455D01*
X170560592Y-95506457D01*
X170387670Y-95583448D01*
X170387665Y-95583451D01*
X170234529Y-95694711D01*
X170107866Y-95835385D01*
X170013221Y-95999315D01*
X170013218Y-95999322D01*
X169954727Y-96179340D01*
X169954726Y-96179344D01*
X169934940Y-96367600D01*
X168936940Y-96367600D01*
X168936940Y-96339840D01*
X168937025Y-96336594D01*
X168939251Y-96294127D01*
X168939506Y-96290891D01*
X168965095Y-96047423D01*
X168965519Y-96044205D01*
X168972168Y-96002216D01*
X168972759Y-95999026D01*
X168984301Y-95944715D01*
X168985059Y-95941557D01*
X168996069Y-95900467D01*
X168996991Y-95897353D01*
X169072649Y-95664503D01*
X169073733Y-95661441D01*
X169088983Y-95621719D01*
X169090226Y-95618719D01*
X169110083Y-95574124D01*
X167847020Y-95574124D01*
X166849020Y-95574124D01*
X165347020Y-95574124D01*
X161264115Y-95574124D01*
X161235471Y-95542312D01*
X161203206Y-95518870D01*
X161082334Y-95431051D01*
X161082329Y-95431048D01*
X160909407Y-95354057D01*
X160909402Y-95354055D01*
X160758581Y-95321998D01*
X160724246Y-95314700D01*
X160534954Y-95314700D01*
X160534953Y-95314700D01*
X160500616Y-95321998D01*
X160430949Y-95316681D01*
X160375216Y-95274543D01*
X160367449Y-95262705D01*
X160346134Y-95225785D01*
X160219470Y-95085111D01*
X160066334Y-94973851D01*
X160066329Y-94973848D01*
X159893407Y-94896857D01*
X159893402Y-94896855D01*
X159747601Y-94865865D01*
X159708246Y-94857500D01*
X159518954Y-94857500D01*
X159486497Y-94864398D01*
X159333797Y-94896855D01*
X159333792Y-94896857D01*
X159160870Y-94973848D01*
X159160865Y-94973851D01*
X159007729Y-95085111D01*
X158881066Y-95225785D01*
X158786421Y-95389715D01*
X158786418Y-95389722D01*
X158727927Y-95569740D01*
X158727926Y-95569744D01*
X158708140Y-95758000D01*
X156849020Y-95758000D01*
X156849020Y-95574124D01*
X155347020Y-95574124D01*
X154349020Y-95574124D01*
X153341913Y-95574124D01*
X153271745Y-95695661D01*
X153270048Y-95698429D01*
X153246880Y-95734104D01*
X153245040Y-95736781D01*
X153212403Y-95781699D01*
X153210427Y-95784274D01*
X153183670Y-95817315D01*
X153181562Y-95819783D01*
X153160343Y-95843348D01*
X151984691Y-95843348D01*
X151842396Y-95739965D01*
X151799730Y-95684635D01*
X151793751Y-95615022D01*
X151826357Y-95553227D01*
X151887195Y-95518870D01*
X151889355Y-95518388D01*
X151968603Y-95501544D01*
X151968607Y-95501542D01*
X151968608Y-95501542D01*
X152026858Y-95475606D01*
X152141530Y-95424551D01*
X152294671Y-95313288D01*
X152421333Y-95172616D01*
X152515979Y-95008684D01*
X152574474Y-94828656D01*
X152594260Y-94640400D01*
X152574474Y-94452144D01*
X152515979Y-94272116D01*
X152421333Y-94108184D01*
X152294671Y-93967512D01*
X152253092Y-93937303D01*
X152141534Y-93856251D01*
X152141529Y-93856248D01*
X151968607Y-93779257D01*
X151968602Y-93779255D01*
X151800853Y-93743600D01*
X151783446Y-93739900D01*
X151594154Y-93739900D01*
X151576747Y-93743600D01*
X151408997Y-93779255D01*
X151408992Y-93779257D01*
X151236070Y-93856248D01*
X151236065Y-93856251D01*
X151082929Y-93967511D01*
X150956266Y-94108185D01*
X150861621Y-94272115D01*
X150861618Y-94272122D01*
X150803127Y-94452140D01*
X150803126Y-94452144D01*
X150783340Y-94640400D01*
X150803126Y-94828656D01*
X150803127Y-94828659D01*
X150861618Y-95008677D01*
X150861621Y-95008684D01*
X150956267Y-95172616D01*
X151064512Y-95292834D01*
X151082929Y-95313288D01*
X151230403Y-95420434D01*
X151273069Y-95475764D01*
X151279048Y-95545377D01*
X151246442Y-95607172D01*
X151185604Y-95641529D01*
X151183299Y-95642042D01*
X151104197Y-95658855D01*
X151104192Y-95658857D01*
X150931270Y-95735848D01*
X150931265Y-95735851D01*
X150778129Y-95847111D01*
X150651466Y-95987785D01*
X150556821Y-96151715D01*
X150556818Y-96151722D01*
X150510042Y-96295685D01*
X150498326Y-96331744D01*
X150478540Y-96520000D01*
X149349020Y-96520000D01*
X149349020Y-95574124D01*
X147847020Y-95574124D01*
X146849020Y-95574124D01*
X145347020Y-95574124D01*
X144349020Y-95574124D01*
X142847020Y-95574124D01*
X141849020Y-95574124D01*
X140347020Y-95574124D01*
X139349020Y-95574124D01*
X137847020Y-95574124D01*
X136849020Y-95574124D01*
X135347020Y-95574124D01*
X134349020Y-95574124D01*
X132847020Y-95574124D01*
X131849020Y-95574124D01*
X131255936Y-95574124D01*
X131248714Y-97076124D01*
X130124701Y-97076124D01*
X130136720Y-94576124D01*
X131260733Y-94576124D01*
X131849020Y-94576124D01*
X131849020Y-93074124D01*
X132847020Y-93074124D01*
X132847020Y-94576124D01*
X134349020Y-94576124D01*
X134349020Y-93074124D01*
X135347020Y-93074124D01*
X135347020Y-94576124D01*
X136849020Y-94576124D01*
X136849020Y-93074124D01*
X137847020Y-93074124D01*
X137847020Y-94576124D01*
X138994317Y-94576124D01*
X141015283Y-94576124D01*
X141849020Y-94576124D01*
X141849020Y-93431507D01*
X141848209Y-93434247D01*
X141772551Y-93667097D01*
X141771467Y-93670159D01*
X141756217Y-93709881D01*
X141754974Y-93712881D01*
X141732389Y-93763602D01*
X141730992Y-93766531D01*
X141711696Y-93804398D01*
X141710148Y-93807250D01*
X141587745Y-94019261D01*
X141586048Y-94022029D01*
X141562880Y-94057704D01*
X141561040Y-94060381D01*
X141528403Y-94105299D01*
X141526427Y-94107874D01*
X141499670Y-94140915D01*
X141497563Y-94143382D01*
X141333752Y-94325313D01*
X141331517Y-94327667D01*
X141301445Y-94357739D01*
X141299090Y-94359975D01*
X141257829Y-94397125D01*
X141255362Y-94399232D01*
X141222317Y-94425993D01*
X141219740Y-94427970D01*
X141021673Y-94571873D01*
X141018996Y-94573713D01*
X141015283Y-94576124D01*
X138994317Y-94576124D01*
X138990604Y-94573713D01*
X138987927Y-94571873D01*
X138789860Y-94427970D01*
X138787283Y-94425993D01*
X138754238Y-94399232D01*
X138751771Y-94397125D01*
X138710510Y-94359975D01*
X138708155Y-94357739D01*
X138678083Y-94327667D01*
X138675848Y-94325313D01*
X138512037Y-94143382D01*
X138509930Y-94140915D01*
X138483173Y-94107874D01*
X138481197Y-94105299D01*
X138448560Y-94060381D01*
X138446720Y-94057704D01*
X138423552Y-94022029D01*
X138421855Y-94019261D01*
X138299452Y-93807250D01*
X138297904Y-93804398D01*
X138278608Y-93766531D01*
X138277211Y-93763602D01*
X138254626Y-93712881D01*
X138253383Y-93709881D01*
X138238133Y-93670159D01*
X138237049Y-93667097D01*
X138161391Y-93434247D01*
X138160469Y-93431133D01*
X138149459Y-93390043D01*
X138148701Y-93386885D01*
X138137159Y-93332574D01*
X138136568Y-93329384D01*
X138129919Y-93287395D01*
X138129495Y-93284177D01*
X138107418Y-93074124D01*
X137847020Y-93074124D01*
X136849020Y-93074124D01*
X135347020Y-93074124D01*
X134349020Y-93074124D01*
X132847020Y-93074124D01*
X131849020Y-93074124D01*
X131267955Y-93074124D01*
X131260733Y-94576124D01*
X130136720Y-94576124D01*
X130144470Y-92964000D01*
X139099340Y-92964000D01*
X139119126Y-93152256D01*
X139119127Y-93152259D01*
X139177618Y-93332277D01*
X139177621Y-93332284D01*
X139272267Y-93496216D01*
X139392727Y-93630000D01*
X139398929Y-93636888D01*
X139552065Y-93748148D01*
X139552070Y-93748151D01*
X139724992Y-93825142D01*
X139724997Y-93825144D01*
X139910154Y-93864500D01*
X139910155Y-93864500D01*
X140099444Y-93864500D01*
X140099446Y-93864500D01*
X140284603Y-93825144D01*
X140457530Y-93748151D01*
X140610671Y-93636888D01*
X140737333Y-93496216D01*
X140831979Y-93332284D01*
X140890474Y-93152256D01*
X140898686Y-93074124D01*
X142847020Y-93074124D01*
X142847020Y-94576124D01*
X144349020Y-94576124D01*
X144349020Y-93074124D01*
X145347020Y-93074124D01*
X145347020Y-94576124D01*
X146849020Y-94576124D01*
X146849020Y-93074124D01*
X147847020Y-93074124D01*
X147847020Y-94576124D01*
X149349020Y-94576124D01*
X149349020Y-93074124D01*
X152847020Y-93074124D01*
X152847020Y-93135220D01*
X152903740Y-93176430D01*
X152906317Y-93178407D01*
X152939362Y-93205168D01*
X152941829Y-93207275D01*
X152983090Y-93244425D01*
X152985445Y-93246661D01*
X153015517Y-93276733D01*
X153017752Y-93279087D01*
X153181563Y-93461018D01*
X153183670Y-93463485D01*
X153210427Y-93496526D01*
X153212403Y-93499101D01*
X153245040Y-93544019D01*
X153246880Y-93546696D01*
X153270048Y-93582371D01*
X153271745Y-93585139D01*
X153394148Y-93797150D01*
X153395696Y-93800002D01*
X153414992Y-93837869D01*
X153416389Y-93840798D01*
X153438974Y-93891519D01*
X153440217Y-93894519D01*
X153455467Y-93934241D01*
X153456551Y-93937303D01*
X153532209Y-94170153D01*
X153533131Y-94173267D01*
X153544141Y-94214357D01*
X153544899Y-94217515D01*
X153556441Y-94271826D01*
X153557032Y-94275016D01*
X153563681Y-94317005D01*
X153564105Y-94320223D01*
X153589694Y-94563691D01*
X153589949Y-94566927D01*
X153590431Y-94576124D01*
X154349020Y-94576124D01*
X154349020Y-94157211D01*
X154283860Y-94109870D01*
X154281284Y-94107893D01*
X154248238Y-94081132D01*
X154245771Y-94079025D01*
X154204510Y-94041875D01*
X154202155Y-94039639D01*
X154172083Y-94009567D01*
X154169848Y-94007213D01*
X154169091Y-94006372D01*
X160347020Y-94006372D01*
X160497610Y-94073421D01*
X160500538Y-94074818D01*
X160538410Y-94094113D01*
X160541264Y-94095662D01*
X160589348Y-94123422D01*
X160592116Y-94125118D01*
X160627796Y-94148287D01*
X160630473Y-94150127D01*
X160828540Y-94294030D01*
X160831117Y-94296007D01*
X160864162Y-94322768D01*
X160866630Y-94324876D01*
X160869006Y-94327015D01*
X160901400Y-94332147D01*
X160904592Y-94332738D01*
X161144047Y-94383635D01*
X161147204Y-94384393D01*
X161188272Y-94395397D01*
X161191383Y-94396318D01*
X161244191Y-94413475D01*
X161247254Y-94414559D01*
X161286967Y-94429804D01*
X161289967Y-94431047D01*
X161513610Y-94530621D01*
X161516538Y-94532018D01*
X161554410Y-94551313D01*
X161557264Y-94552862D01*
X161597557Y-94576124D01*
X161849020Y-94576124D01*
X162847020Y-94576124D01*
X164349020Y-94576124D01*
X167847020Y-94576124D01*
X169349020Y-94576124D01*
X169349020Y-93074124D01*
X170347020Y-93074124D01*
X170347020Y-94531557D01*
X170565408Y-94485138D01*
X170568600Y-94484547D01*
X170610584Y-94477897D01*
X170613799Y-94477474D01*
X170669015Y-94471667D01*
X170672254Y-94471412D01*
X170714738Y-94469185D01*
X170717984Y-94469100D01*
X170962816Y-94469100D01*
X170966062Y-94469185D01*
X171008546Y-94471412D01*
X171010080Y-94471532D01*
X171027751Y-94269568D01*
X171028045Y-94266879D01*
X171032669Y-94231755D01*
X171033081Y-94229081D01*
X171041114Y-94183522D01*
X171041641Y-94180867D01*
X171049312Y-94146268D01*
X171049955Y-94143641D01*
X171123091Y-93870685D01*
X171123849Y-93868086D01*
X171134512Y-93834269D01*
X171135383Y-93831704D01*
X171151209Y-93788231D01*
X171152188Y-93785713D01*
X171165741Y-93752995D01*
X171166830Y-93750519D01*
X171201976Y-93675146D01*
X171167577Y-93612149D01*
X171165596Y-93608191D01*
X171141499Y-93555427D01*
X171139804Y-93551336D01*
X171064744Y-93350089D01*
X171063504Y-93346418D01*
X171048769Y-93297841D01*
X171047761Y-93294098D01*
X171032527Y-93229617D01*
X171031755Y-93225824D01*
X171023196Y-93175830D01*
X171022662Y-93171994D01*
X171012139Y-93074124D01*
X170347020Y-93074124D01*
X169349020Y-93074124D01*
X167984206Y-93074124D01*
X168010209Y-93154153D01*
X168011131Y-93157267D01*
X168022141Y-93198357D01*
X168022899Y-93201515D01*
X168034441Y-93255826D01*
X168035032Y-93259016D01*
X168041681Y-93301005D01*
X168042105Y-93304223D01*
X168067694Y-93547691D01*
X168067949Y-93550927D01*
X168070175Y-93593394D01*
X168070260Y-93596640D01*
X168070260Y-93652160D01*
X168070175Y-93655406D01*
X168067949Y-93697873D01*
X168067694Y-93701109D01*
X168042105Y-93944577D01*
X168041681Y-93947795D01*
X168035032Y-93989784D01*
X168034441Y-93992974D01*
X168022899Y-94047285D01*
X168022141Y-94050443D01*
X168011131Y-94091533D01*
X168010209Y-94094647D01*
X167934551Y-94327497D01*
X167933467Y-94330559D01*
X167918217Y-94370281D01*
X167916974Y-94373281D01*
X167894389Y-94424002D01*
X167892992Y-94426931D01*
X167873696Y-94464798D01*
X167872148Y-94467650D01*
X167847020Y-94511172D01*
X167847020Y-94576124D01*
X164349020Y-94576124D01*
X164349020Y-94173523D01*
X164323391Y-94094647D01*
X164322469Y-94091533D01*
X164311459Y-94050443D01*
X164310701Y-94047285D01*
X164299159Y-93992974D01*
X164298568Y-93989784D01*
X164291919Y-93947795D01*
X164291495Y-93944577D01*
X164265906Y-93701109D01*
X164265651Y-93697873D01*
X164263425Y-93655406D01*
X164263340Y-93652160D01*
X164263340Y-93624400D01*
X165261340Y-93624400D01*
X165281126Y-93812656D01*
X165281127Y-93812659D01*
X165339618Y-93992677D01*
X165339621Y-93992684D01*
X165434267Y-94156616D01*
X165540875Y-94275016D01*
X165560929Y-94297288D01*
X165714065Y-94408548D01*
X165714070Y-94408551D01*
X165886992Y-94485542D01*
X165886997Y-94485544D01*
X166072154Y-94524900D01*
X166072155Y-94524900D01*
X166261444Y-94524900D01*
X166261446Y-94524900D01*
X166446603Y-94485544D01*
X166619530Y-94408551D01*
X166772671Y-94297288D01*
X166899333Y-94156616D01*
X166993979Y-93992684D01*
X167052474Y-93812656D01*
X167072260Y-93624400D01*
X167052474Y-93436144D01*
X166993979Y-93256116D01*
X166899333Y-93092184D01*
X166772671Y-92951512D01*
X166772670Y-92951511D01*
X166619534Y-92840251D01*
X166619529Y-92840248D01*
X166446607Y-92763257D01*
X166446602Y-92763255D01*
X166300801Y-92732265D01*
X166261446Y-92723900D01*
X166072154Y-92723900D01*
X166039697Y-92730798D01*
X165886997Y-92763255D01*
X165886992Y-92763257D01*
X165714070Y-92840248D01*
X165714065Y-92840251D01*
X165560929Y-92951511D01*
X165434266Y-93092185D01*
X165339621Y-93256115D01*
X165339618Y-93256122D01*
X165281742Y-93434247D01*
X165281126Y-93436144D01*
X165261340Y-93624400D01*
X164263340Y-93624400D01*
X164263340Y-93596640D01*
X164263425Y-93593394D01*
X164265651Y-93550927D01*
X164265906Y-93547691D01*
X164291495Y-93304223D01*
X164291919Y-93301005D01*
X164298568Y-93259016D01*
X164299159Y-93255826D01*
X164310701Y-93201515D01*
X164311459Y-93198357D01*
X164322469Y-93157267D01*
X164323391Y-93154153D01*
X164349020Y-93075275D01*
X164349020Y-93074124D01*
X163042180Y-93074124D01*
X163025352Y-93092813D01*
X163023117Y-93095168D01*
X162993045Y-93125239D01*
X162990690Y-93127475D01*
X162949429Y-93164625D01*
X162946962Y-93166732D01*
X162913917Y-93193493D01*
X162911340Y-93195470D01*
X162847020Y-93242200D01*
X162847020Y-94576124D01*
X161849020Y-94576124D01*
X161849020Y-93628501D01*
X161822062Y-93629915D01*
X161818816Y-93630000D01*
X161573984Y-93630000D01*
X161570738Y-93629915D01*
X161528254Y-93627688D01*
X161525015Y-93627433D01*
X161469799Y-93621626D01*
X161466584Y-93621203D01*
X161424600Y-93614553D01*
X161421408Y-93613962D01*
X161181953Y-93563065D01*
X161178796Y-93562307D01*
X161137728Y-93551303D01*
X161134617Y-93550382D01*
X161081809Y-93533225D01*
X161078746Y-93532141D01*
X161039033Y-93516896D01*
X161036033Y-93515653D01*
X160812390Y-93416079D01*
X160809462Y-93414682D01*
X160798366Y-93409029D01*
X160739345Y-93511260D01*
X160737648Y-93514029D01*
X160714480Y-93549704D01*
X160712640Y-93552381D01*
X160680003Y-93597299D01*
X160678027Y-93599874D01*
X160651270Y-93632915D01*
X160649163Y-93635382D01*
X160485352Y-93817313D01*
X160483117Y-93819667D01*
X160453045Y-93849739D01*
X160450690Y-93851975D01*
X160409429Y-93889125D01*
X160406962Y-93891232D01*
X160373916Y-93917993D01*
X160371339Y-93919970D01*
X160347020Y-93937638D01*
X160347020Y-94006372D01*
X154169091Y-94006372D01*
X154006037Y-93825282D01*
X154003930Y-93822815D01*
X153977173Y-93789774D01*
X153975197Y-93787199D01*
X153942560Y-93742281D01*
X153940720Y-93739604D01*
X153917552Y-93703929D01*
X153915855Y-93701161D01*
X153793452Y-93489150D01*
X153791904Y-93486298D01*
X153772608Y-93448431D01*
X153771211Y-93445502D01*
X153748626Y-93394781D01*
X153747383Y-93391781D01*
X153732133Y-93352059D01*
X153731049Y-93348997D01*
X153655391Y-93116147D01*
X153654469Y-93113033D01*
X153644043Y-93074124D01*
X152847020Y-93074124D01*
X149349020Y-93074124D01*
X147847020Y-93074124D01*
X146849020Y-93074124D01*
X145347020Y-93074124D01*
X144349020Y-93074124D01*
X142847020Y-93074124D01*
X140898686Y-93074124D01*
X140910260Y-92964000D01*
X140890474Y-92775744D01*
X140848285Y-92645900D01*
X154593340Y-92645900D01*
X154613126Y-92834156D01*
X154613127Y-92834159D01*
X154671618Y-93014177D01*
X154671621Y-93014184D01*
X154766267Y-93178116D01*
X154859973Y-93282187D01*
X154892929Y-93318788D01*
X155046065Y-93430048D01*
X155046070Y-93430051D01*
X155218992Y-93507042D01*
X155218997Y-93507044D01*
X155404154Y-93546400D01*
X155404155Y-93546400D01*
X155593444Y-93546400D01*
X155593446Y-93546400D01*
X155778603Y-93507044D01*
X155951530Y-93430051D01*
X156104671Y-93318788D01*
X156231333Y-93178116D01*
X156325979Y-93014184D01*
X156384474Y-92834156D01*
X156404260Y-92645900D01*
X156384474Y-92457644D01*
X156383940Y-92456000D01*
X158250940Y-92456000D01*
X158270726Y-92644256D01*
X158270727Y-92644259D01*
X158329218Y-92824277D01*
X158329221Y-92824284D01*
X158423867Y-92988216D01*
X158518047Y-93092813D01*
X158550529Y-93128888D01*
X158703665Y-93240148D01*
X158703670Y-93240151D01*
X158876592Y-93317142D01*
X158876597Y-93317144D01*
X159061754Y-93356500D01*
X159061755Y-93356500D01*
X159251044Y-93356500D01*
X159251046Y-93356500D01*
X159436203Y-93317144D01*
X159609130Y-93240151D01*
X159762271Y-93128888D01*
X159888933Y-92988216D01*
X159983579Y-92824284D01*
X160042074Y-92644256D01*
X160061860Y-92456000D01*
X160042074Y-92267744D01*
X159983579Y-92087716D01*
X159888933Y-91923784D01*
X159762271Y-91783112D01*
X159762270Y-91783111D01*
X159757922Y-91778282D01*
X159759772Y-91776616D01*
X159731975Y-91731500D01*
X160790940Y-91731500D01*
X160810726Y-91919756D01*
X160810727Y-91919759D01*
X160869218Y-92099777D01*
X160869221Y-92099784D01*
X160963867Y-92263716D01*
X161019048Y-92325000D01*
X161090529Y-92404388D01*
X161243665Y-92515648D01*
X161243670Y-92515651D01*
X161416592Y-92592642D01*
X161416597Y-92592644D01*
X161601754Y-92632000D01*
X161601755Y-92632000D01*
X161791044Y-92632000D01*
X161791046Y-92632000D01*
X161976203Y-92592644D01*
X162149130Y-92515651D01*
X162302271Y-92404388D01*
X162428933Y-92263716D01*
X162523579Y-92099784D01*
X162582074Y-91919756D01*
X162582971Y-91911223D01*
X165347020Y-91911223D01*
X165506433Y-91840247D01*
X165509433Y-91839004D01*
X165549146Y-91823759D01*
X165552209Y-91822675D01*
X165605017Y-91805518D01*
X165608128Y-91804597D01*
X165649196Y-91793593D01*
X165652353Y-91792835D01*
X165891808Y-91741938D01*
X165895000Y-91741347D01*
X165936984Y-91734697D01*
X165940199Y-91734274D01*
X165995415Y-91728467D01*
X165998654Y-91728212D01*
X166041138Y-91725985D01*
X166044384Y-91725900D01*
X166289216Y-91725900D01*
X166292462Y-91725985D01*
X166334946Y-91728212D01*
X166338185Y-91728467D01*
X166393401Y-91734274D01*
X166396616Y-91734697D01*
X166438600Y-91741347D01*
X166441792Y-91741938D01*
X166681247Y-91792835D01*
X166684404Y-91793593D01*
X166725472Y-91804597D01*
X166728583Y-91805518D01*
X166781391Y-91822675D01*
X166784454Y-91823759D01*
X166824167Y-91839004D01*
X166827166Y-91840246D01*
X166849020Y-91849976D01*
X166849020Y-90574124D01*
X167847020Y-90574124D01*
X167847020Y-92076124D01*
X169349020Y-92076124D01*
X169349020Y-90586963D01*
X170347020Y-90586963D01*
X170347020Y-92076124D01*
X171016803Y-92076124D01*
X171017268Y-92075000D01*
X171016439Y-92072998D01*
X171007000Y-92025546D01*
X171007000Y-91162994D01*
X171007022Y-91161337D01*
X171007602Y-91139631D01*
X171007669Y-91137973D01*
X171009187Y-91109629D01*
X171009298Y-91107972D01*
X171011044Y-91086266D01*
X171011200Y-91084610D01*
X171022662Y-90978006D01*
X171023196Y-90974170D01*
X171031755Y-90924176D01*
X171032527Y-90920383D01*
X171047761Y-90855902D01*
X171048769Y-90852159D01*
X171063504Y-90803582D01*
X171064744Y-90799911D01*
X171135966Y-90608952D01*
X170873940Y-90631877D01*
X170871241Y-90632054D01*
X170835838Y-90633600D01*
X170833133Y-90633659D01*
X170786867Y-90633659D01*
X170784162Y-90633600D01*
X170748759Y-90632054D01*
X170746060Y-90631877D01*
X170464568Y-90607249D01*
X170461879Y-90606955D01*
X170426755Y-90602331D01*
X170424081Y-90601919D01*
X170378522Y-90593886D01*
X170375867Y-90593359D01*
X170347020Y-90586963D01*
X169349020Y-90586963D01*
X169349020Y-90574124D01*
X167847020Y-90574124D01*
X166849020Y-90574124D01*
X165629783Y-90574124D01*
X165624806Y-90621476D01*
X165624382Y-90624694D01*
X165617733Y-90666683D01*
X165617142Y-90669873D01*
X165605600Y-90724184D01*
X165604842Y-90727342D01*
X165593832Y-90768432D01*
X165592910Y-90771546D01*
X165517252Y-91004396D01*
X165516168Y-91007458D01*
X165500918Y-91047180D01*
X165499675Y-91050180D01*
X165477090Y-91100901D01*
X165475693Y-91103830D01*
X165456397Y-91141697D01*
X165454849Y-91144549D01*
X165347020Y-91331316D01*
X165347020Y-91911223D01*
X162582971Y-91911223D01*
X162601860Y-91731500D01*
X162582074Y-91543244D01*
X162523579Y-91363216D01*
X162428933Y-91199284D01*
X162302271Y-91058612D01*
X162302270Y-91058611D01*
X162149134Y-90947351D01*
X162149129Y-90947348D01*
X161976207Y-90870357D01*
X161976202Y-90870355D01*
X161802878Y-90833515D01*
X161791046Y-90831000D01*
X161601754Y-90831000D01*
X161589922Y-90833515D01*
X161416597Y-90870355D01*
X161416592Y-90870357D01*
X161243670Y-90947348D01*
X161243665Y-90947351D01*
X161090529Y-91058611D01*
X160963866Y-91199285D01*
X160869221Y-91363215D01*
X160869218Y-91363222D01*
X160814745Y-91530875D01*
X160810726Y-91543244D01*
X160790940Y-91731500D01*
X159731975Y-91731500D01*
X159728997Y-91726667D01*
X159730325Y-91656810D01*
X159759611Y-91611239D01*
X159757922Y-91609718D01*
X159793449Y-91570261D01*
X159888933Y-91464216D01*
X159983579Y-91300284D01*
X160042074Y-91120256D01*
X160061860Y-90932000D01*
X160042074Y-90743744D01*
X159983579Y-90563716D01*
X159888933Y-90399784D01*
X159800256Y-90301299D01*
X162844041Y-90301299D01*
X162863827Y-90489555D01*
X162863828Y-90489558D01*
X162922319Y-90669576D01*
X162922322Y-90669583D01*
X163016968Y-90833515D01*
X163119464Y-90947348D01*
X163143630Y-90974187D01*
X163296766Y-91085447D01*
X163296771Y-91085450D01*
X163469693Y-91162441D01*
X163469698Y-91162443D01*
X163654855Y-91201799D01*
X163654856Y-91201799D01*
X163844145Y-91201799D01*
X163844147Y-91201799D01*
X164029304Y-91162443D01*
X164202231Y-91085450D01*
X164355372Y-90974187D01*
X164482034Y-90833515D01*
X164576680Y-90669583D01*
X164635175Y-90489555D01*
X164654961Y-90301299D01*
X164635175Y-90113043D01*
X164576680Y-89933015D01*
X164482034Y-89769083D01*
X164355372Y-89628411D01*
X164337000Y-89615063D01*
X164283405Y-89576124D01*
X165814664Y-89576124D01*
X166849020Y-89576124D01*
X166849020Y-88074124D01*
X167847020Y-88074124D01*
X167847020Y-89576124D01*
X168850566Y-89576124D01*
X168805180Y-89511306D01*
X168803677Y-89509057D01*
X168784631Y-89479160D01*
X168783226Y-89476845D01*
X168760096Y-89436778D01*
X168758795Y-89434408D01*
X168742440Y-89402988D01*
X168741243Y-89400563D01*
X168621830Y-89144482D01*
X168620741Y-89142006D01*
X168607188Y-89109287D01*
X168606209Y-89106769D01*
X168590383Y-89063296D01*
X168589512Y-89060731D01*
X168578849Y-89026914D01*
X168578091Y-89024315D01*
X168504955Y-88751359D01*
X168504312Y-88748732D01*
X168496641Y-88714133D01*
X168496114Y-88711478D01*
X168488081Y-88665919D01*
X168487669Y-88663245D01*
X168483045Y-88628121D01*
X168482751Y-88625432D01*
X168458123Y-88343940D01*
X168457946Y-88341241D01*
X168456400Y-88305838D01*
X168456341Y-88303133D01*
X168456341Y-88280000D01*
X169454341Y-88280000D01*
X169474936Y-88515403D01*
X169474938Y-88515413D01*
X169536094Y-88743655D01*
X169536096Y-88743659D01*
X169536097Y-88743663D01*
X169616515Y-88916119D01*
X169635965Y-88957830D01*
X169635967Y-88957834D01*
X169719140Y-89076616D01*
X169771505Y-89151401D01*
X169938599Y-89318495D01*
X169979210Y-89346931D01*
X170132165Y-89454032D01*
X170132167Y-89454033D01*
X170132170Y-89454035D01*
X170346337Y-89553903D01*
X170346343Y-89553904D01*
X170346344Y-89553905D01*
X170401109Y-89568579D01*
X170574592Y-89615063D01*
X170762918Y-89631539D01*
X170809999Y-89635659D01*
X170810000Y-89635659D01*
X170810001Y-89635659D01*
X170849234Y-89632226D01*
X171045408Y-89615063D01*
X171273663Y-89553903D01*
X171487830Y-89454035D01*
X171681401Y-89318495D01*
X171848495Y-89151401D01*
X171978730Y-88965405D01*
X172033307Y-88921781D01*
X172102805Y-88914587D01*
X172165160Y-88946110D01*
X172181879Y-88965405D01*
X172311890Y-89151078D01*
X172478917Y-89318105D01*
X172672421Y-89453600D01*
X172886507Y-89553429D01*
X172886516Y-89553433D01*
X173100000Y-89610634D01*
X173100000Y-88715501D01*
X173207685Y-88764680D01*
X173314237Y-88780000D01*
X173385763Y-88780000D01*
X173492315Y-88764680D01*
X173600000Y-88715501D01*
X173600000Y-89610633D01*
X173813483Y-89553433D01*
X173813492Y-89553429D01*
X174027578Y-89453600D01*
X174221082Y-89318105D01*
X174388105Y-89151082D01*
X174523600Y-88957578D01*
X174623429Y-88743492D01*
X174623432Y-88743486D01*
X174680636Y-88530000D01*
X173783686Y-88530000D01*
X173809493Y-88489844D01*
X173850000Y-88351889D01*
X173850000Y-88208111D01*
X173809493Y-88070156D01*
X173783686Y-88030000D01*
X174680636Y-88030000D01*
X174680635Y-88029999D01*
X174623432Y-87816513D01*
X174623429Y-87816507D01*
X174523600Y-87602422D01*
X174523599Y-87602420D01*
X174388113Y-87408926D01*
X174388108Y-87408920D01*
X174221078Y-87241890D01*
X174035405Y-87111879D01*
X173991780Y-87057302D01*
X173984588Y-86987804D01*
X174016110Y-86925449D01*
X174035406Y-86908730D01*
X174040876Y-86904900D01*
X174221401Y-86778495D01*
X174388495Y-86611401D01*
X174524035Y-86417830D01*
X174623903Y-86203663D01*
X174685063Y-85975408D01*
X174705659Y-85740000D01*
X174685063Y-85504592D01*
X174623903Y-85276337D01*
X174524035Y-85062171D01*
X174518485Y-85054244D01*
X174388494Y-84868597D01*
X174221402Y-84701506D01*
X174221396Y-84701501D01*
X174035842Y-84571575D01*
X173992217Y-84516998D01*
X173985023Y-84447500D01*
X174016546Y-84385145D01*
X174035842Y-84368425D01*
X174143104Y-84293319D01*
X174221401Y-84238495D01*
X174388495Y-84071401D01*
X174524035Y-83877830D01*
X174623903Y-83663663D01*
X174685063Y-83435408D01*
X174705659Y-83200000D01*
X174685063Y-82964592D01*
X174623903Y-82736337D01*
X174524035Y-82522171D01*
X174503257Y-82492496D01*
X174388494Y-82328597D01*
X174221402Y-82161506D01*
X174221395Y-82161501D01*
X174027834Y-82025967D01*
X174027830Y-82025965D01*
X174027828Y-82025964D01*
X173813663Y-81926097D01*
X173813659Y-81926096D01*
X173813655Y-81926094D01*
X173585413Y-81864938D01*
X173585403Y-81864936D01*
X173350001Y-81844341D01*
X173349999Y-81844341D01*
X173114596Y-81864936D01*
X173114586Y-81864938D01*
X172886344Y-81926094D01*
X172886335Y-81926098D01*
X172672171Y-82025964D01*
X172672169Y-82025965D01*
X172478600Y-82161503D01*
X172356673Y-82283430D01*
X172295350Y-82316914D01*
X172225658Y-82311930D01*
X172169725Y-82270058D01*
X172152810Y-82239081D01*
X172103797Y-82107671D01*
X172103793Y-82107664D01*
X172017547Y-81992455D01*
X172017544Y-81992452D01*
X171902335Y-81906206D01*
X171902328Y-81906202D01*
X171767482Y-81855908D01*
X171767483Y-81855908D01*
X171707883Y-81849501D01*
X171707881Y-81849500D01*
X171707873Y-81849500D01*
X171707864Y-81849500D01*
X169912129Y-81849500D01*
X169912123Y-81849501D01*
X169852516Y-81855908D01*
X169717671Y-81906202D01*
X169717664Y-81906206D01*
X169602455Y-81992452D01*
X169602452Y-81992455D01*
X169516206Y-82107664D01*
X169516202Y-82107671D01*
X169465908Y-82242517D01*
X169459501Y-82302116D01*
X169459500Y-82302135D01*
X169459500Y-84097870D01*
X169459501Y-84097876D01*
X169465908Y-84157483D01*
X169516202Y-84292328D01*
X169516206Y-84292335D01*
X169602452Y-84407544D01*
X169602455Y-84407547D01*
X169717664Y-84493793D01*
X169717671Y-84493797D01*
X169849081Y-84542810D01*
X169905015Y-84584681D01*
X169929432Y-84650145D01*
X169914580Y-84718418D01*
X169893430Y-84746673D01*
X169771503Y-84868600D01*
X169635965Y-85062169D01*
X169635964Y-85062171D01*
X169536098Y-85276335D01*
X169536094Y-85276344D01*
X169474938Y-85504586D01*
X169474936Y-85504596D01*
X169454341Y-85739999D01*
X169454341Y-85740000D01*
X169474936Y-85975403D01*
X169474938Y-85975413D01*
X169536094Y-86203655D01*
X169536096Y-86203659D01*
X169536097Y-86203663D01*
X169599104Y-86338781D01*
X169635965Y-86417830D01*
X169635967Y-86417834D01*
X169719139Y-86536615D01*
X169771501Y-86611396D01*
X169771506Y-86611402D01*
X169938597Y-86778493D01*
X169938603Y-86778498D01*
X170124158Y-86908425D01*
X170167783Y-86963002D01*
X170174977Y-87032500D01*
X170143454Y-87094855D01*
X170124158Y-87111575D01*
X169938597Y-87241505D01*
X169771505Y-87408597D01*
X169635965Y-87602169D01*
X169635964Y-87602171D01*
X169536098Y-87816335D01*
X169536094Y-87816344D01*
X169474938Y-88044586D01*
X169474936Y-88044596D01*
X169454341Y-88279999D01*
X169454341Y-88280000D01*
X168456341Y-88280000D01*
X168456341Y-88256867D01*
X168456400Y-88254162D01*
X168457946Y-88218759D01*
X168458123Y-88216060D01*
X168470541Y-88074124D01*
X167847020Y-88074124D01*
X166849020Y-88074124D01*
X166836574Y-88074124D01*
X166822905Y-88204177D01*
X166822481Y-88207395D01*
X166815832Y-88249384D01*
X166815241Y-88252574D01*
X166803699Y-88306885D01*
X166802941Y-88310043D01*
X166791931Y-88351133D01*
X166791009Y-88354247D01*
X166715351Y-88587097D01*
X166714267Y-88590159D01*
X166699017Y-88629881D01*
X166697774Y-88632881D01*
X166675189Y-88683602D01*
X166673792Y-88686531D01*
X166654496Y-88724398D01*
X166652948Y-88727250D01*
X166530545Y-88939261D01*
X166528848Y-88942029D01*
X166505680Y-88977704D01*
X166503840Y-88980381D01*
X166471203Y-89025299D01*
X166469227Y-89027874D01*
X166442470Y-89060915D01*
X166440363Y-89063382D01*
X166276552Y-89245313D01*
X166274317Y-89247667D01*
X166244245Y-89277739D01*
X166241890Y-89279975D01*
X166200629Y-89317125D01*
X166198162Y-89319232D01*
X166165117Y-89345993D01*
X166162540Y-89347970D01*
X165964473Y-89491873D01*
X165961796Y-89493713D01*
X165926116Y-89516882D01*
X165923348Y-89518578D01*
X165875264Y-89546338D01*
X165872410Y-89547887D01*
X165834538Y-89567182D01*
X165831610Y-89568579D01*
X165814664Y-89576124D01*
X164283405Y-89576124D01*
X164202235Y-89517150D01*
X164202230Y-89517147D01*
X164029308Y-89440156D01*
X164029303Y-89440154D01*
X163883501Y-89409164D01*
X163844147Y-89400799D01*
X163654855Y-89400799D01*
X163622398Y-89407697D01*
X163469698Y-89440154D01*
X163469693Y-89440156D01*
X163296771Y-89517147D01*
X163296766Y-89517150D01*
X163143630Y-89628410D01*
X163016967Y-89769084D01*
X162922322Y-89933014D01*
X162922319Y-89933021D01*
X162863828Y-90113039D01*
X162863827Y-90113043D01*
X162844041Y-90301299D01*
X159800256Y-90301299D01*
X159762271Y-90259112D01*
X159762270Y-90259111D01*
X159609134Y-90147851D01*
X159609129Y-90147848D01*
X159436207Y-90070857D01*
X159436202Y-90070855D01*
X159290401Y-90039865D01*
X159251046Y-90031500D01*
X159061754Y-90031500D01*
X159029297Y-90038398D01*
X158876597Y-90070855D01*
X158876592Y-90070857D01*
X158703670Y-90147848D01*
X158703665Y-90147851D01*
X158550529Y-90259111D01*
X158423866Y-90399785D01*
X158329221Y-90563715D01*
X158329218Y-90563722D01*
X158274736Y-90731403D01*
X158270726Y-90743744D01*
X158250940Y-90932000D01*
X158270726Y-91120256D01*
X158270727Y-91120259D01*
X158329218Y-91300277D01*
X158329221Y-91300284D01*
X158423867Y-91464216D01*
X158519351Y-91570261D01*
X158554878Y-91609718D01*
X158553033Y-91611378D01*
X158583813Y-91661374D01*
X158582461Y-91731230D01*
X158553196Y-91776767D01*
X158554878Y-91778282D01*
X158423866Y-91923785D01*
X158329221Y-92087715D01*
X158329218Y-92087722D01*
X158270727Y-92267740D01*
X158270726Y-92267744D01*
X158250940Y-92456000D01*
X156383940Y-92456000D01*
X156377367Y-92435771D01*
X156375372Y-92365930D01*
X156411452Y-92306097D01*
X156474153Y-92275269D01*
X156543567Y-92283234D01*
X156568180Y-92297133D01*
X156606536Y-92325000D01*
X156607570Y-92325751D01*
X156780492Y-92402742D01*
X156780497Y-92402744D01*
X156965654Y-92442100D01*
X156965655Y-92442100D01*
X157154944Y-92442100D01*
X157154946Y-92442100D01*
X157340103Y-92402744D01*
X157513030Y-92325751D01*
X157666171Y-92214488D01*
X157792833Y-92073816D01*
X157887479Y-91909884D01*
X157945974Y-91729856D01*
X157965760Y-91541600D01*
X157945974Y-91353344D01*
X157887479Y-91173316D01*
X157792833Y-91009384D01*
X157666171Y-90868712D01*
X157666170Y-90868711D01*
X157513034Y-90757451D01*
X157513029Y-90757448D01*
X157340107Y-90680457D01*
X157340102Y-90680455D01*
X157194300Y-90649465D01*
X157154946Y-90641100D01*
X156965654Y-90641100D01*
X156933197Y-90647998D01*
X156780497Y-90680455D01*
X156780492Y-90680457D01*
X156607570Y-90757448D01*
X156607565Y-90757451D01*
X156454429Y-90868711D01*
X156327766Y-91009385D01*
X156233121Y-91173315D01*
X156233118Y-91173322D01*
X156181783Y-91331316D01*
X156174626Y-91353344D01*
X156162973Y-91464216D01*
X156154840Y-91541600D01*
X156174626Y-91729858D01*
X156181733Y-91751730D01*
X156183727Y-91821572D01*
X156147645Y-91881404D01*
X156084943Y-91912230D01*
X156015529Y-91904264D01*
X155990916Y-91890364D01*
X155951534Y-91861751D01*
X155951529Y-91861748D01*
X155778607Y-91784757D01*
X155778602Y-91784755D01*
X155630683Y-91753315D01*
X155593446Y-91745400D01*
X155404154Y-91745400D01*
X155371697Y-91752298D01*
X155218997Y-91784755D01*
X155218992Y-91784757D01*
X155046070Y-91861748D01*
X155046065Y-91861751D01*
X154892929Y-91973011D01*
X154766266Y-92113685D01*
X154671621Y-92277615D01*
X154671618Y-92277622D01*
X154613660Y-92456000D01*
X154613126Y-92457644D01*
X154593340Y-92645900D01*
X140848285Y-92645900D01*
X140831979Y-92595716D01*
X140737333Y-92431784D01*
X140610671Y-92291112D01*
X140592104Y-92277622D01*
X140457534Y-92179851D01*
X140457529Y-92179848D01*
X140284607Y-92102857D01*
X140284602Y-92102855D01*
X140138800Y-92071865D01*
X140099446Y-92063500D01*
X139910154Y-92063500D01*
X139877697Y-92070398D01*
X139724997Y-92102855D01*
X139724992Y-92102857D01*
X139552070Y-92179848D01*
X139552065Y-92179851D01*
X139398929Y-92291111D01*
X139272266Y-92431785D01*
X139177621Y-92595715D01*
X139177618Y-92595722D01*
X139123183Y-92763257D01*
X139119126Y-92775744D01*
X139102377Y-92935101D01*
X139100653Y-92951512D01*
X139099340Y-92964000D01*
X130144470Y-92964000D01*
X130148739Y-92076124D01*
X131272753Y-92076124D01*
X131849020Y-92076124D01*
X131849020Y-90574124D01*
X132847020Y-90574124D01*
X132847020Y-92076124D01*
X134349020Y-92076124D01*
X135347020Y-92076124D01*
X136849020Y-92076124D01*
X136849020Y-90574124D01*
X137847020Y-90574124D01*
X137847020Y-92076124D01*
X138325217Y-92076124D01*
X138421855Y-91908739D01*
X138423552Y-91905971D01*
X138446720Y-91870296D01*
X138448560Y-91867619D01*
X138481197Y-91822701D01*
X138483173Y-91820126D01*
X138509930Y-91787085D01*
X138512037Y-91784618D01*
X138675848Y-91602687D01*
X138678083Y-91600333D01*
X138708155Y-91570261D01*
X138710510Y-91568025D01*
X138751771Y-91530875D01*
X138754238Y-91528768D01*
X138787283Y-91502007D01*
X138789860Y-91500030D01*
X138987927Y-91356127D01*
X138990604Y-91354287D01*
X139026284Y-91331118D01*
X139029052Y-91329422D01*
X139077136Y-91301662D01*
X139079990Y-91300113D01*
X139117862Y-91280818D01*
X139120790Y-91279421D01*
X139344433Y-91179847D01*
X139347433Y-91178604D01*
X139349020Y-91177994D01*
X139349020Y-90574124D01*
X140347020Y-90574124D01*
X140347020Y-91095827D01*
X140519247Y-91132435D01*
X140522404Y-91133193D01*
X140563472Y-91144197D01*
X140566583Y-91145118D01*
X140619391Y-91162275D01*
X140622454Y-91163359D01*
X140662167Y-91178604D01*
X140665167Y-91179847D01*
X140888810Y-91279421D01*
X140891738Y-91280818D01*
X140929610Y-91300113D01*
X140932464Y-91301662D01*
X140980548Y-91329422D01*
X140983316Y-91331118D01*
X141018996Y-91354287D01*
X141021673Y-91356127D01*
X141219740Y-91500030D01*
X141222317Y-91502007D01*
X141255362Y-91528768D01*
X141257829Y-91530875D01*
X141299090Y-91568025D01*
X141301445Y-91570261D01*
X141331517Y-91600333D01*
X141333752Y-91602687D01*
X141497563Y-91784618D01*
X141499670Y-91787085D01*
X141526427Y-91820126D01*
X141528403Y-91822701D01*
X141561040Y-91867619D01*
X141562880Y-91870296D01*
X141586048Y-91905971D01*
X141587745Y-91908739D01*
X141684383Y-92076124D01*
X141849020Y-92076124D01*
X141849020Y-90574124D01*
X142847020Y-90574124D01*
X142847020Y-92076124D01*
X144349020Y-92076124D01*
X144349020Y-91353404D01*
X145347020Y-91353404D01*
X145347020Y-92076124D01*
X146849020Y-92076124D01*
X150822528Y-92076124D01*
X151849020Y-92076124D01*
X151849020Y-90574124D01*
X151560260Y-90574124D01*
X151560260Y-90604160D01*
X151560175Y-90607406D01*
X151557949Y-90649873D01*
X151557694Y-90653109D01*
X151532105Y-90896577D01*
X151531681Y-90899795D01*
X151525032Y-90941784D01*
X151524441Y-90944974D01*
X151512899Y-90999285D01*
X151512141Y-91002443D01*
X151501131Y-91043533D01*
X151500209Y-91046647D01*
X151424551Y-91279497D01*
X151423467Y-91282559D01*
X151408217Y-91322281D01*
X151406974Y-91325281D01*
X151384389Y-91376002D01*
X151382992Y-91378931D01*
X151363696Y-91416798D01*
X151362148Y-91419650D01*
X151239745Y-91631661D01*
X151238048Y-91634429D01*
X151214880Y-91670104D01*
X151213040Y-91672781D01*
X151180403Y-91717699D01*
X151178427Y-91720274D01*
X151151670Y-91753315D01*
X151149563Y-91755782D01*
X150985752Y-91937713D01*
X150983517Y-91940067D01*
X150953445Y-91970139D01*
X150951090Y-91972375D01*
X150909829Y-92009525D01*
X150907362Y-92011632D01*
X150874317Y-92038393D01*
X150871740Y-92040370D01*
X150822528Y-92076124D01*
X146849020Y-92076124D01*
X146849020Y-91456627D01*
X146833354Y-91462641D01*
X146830291Y-91463725D01*
X146777483Y-91480882D01*
X146774372Y-91481803D01*
X146733304Y-91492807D01*
X146730147Y-91493565D01*
X146490692Y-91544462D01*
X146487500Y-91545053D01*
X146445516Y-91551703D01*
X146442301Y-91552126D01*
X146387085Y-91557933D01*
X146383846Y-91558188D01*
X146341362Y-91560415D01*
X146338116Y-91560500D01*
X146093284Y-91560500D01*
X146090038Y-91560415D01*
X146047554Y-91558188D01*
X146044315Y-91557933D01*
X145989099Y-91552126D01*
X145985884Y-91551703D01*
X145943900Y-91545053D01*
X145940708Y-91544462D01*
X145701253Y-91493565D01*
X145698096Y-91492807D01*
X145657028Y-91481803D01*
X145653917Y-91480882D01*
X145601109Y-91463725D01*
X145598046Y-91462641D01*
X145558333Y-91447396D01*
X145555333Y-91446153D01*
X145347020Y-91353404D01*
X144349020Y-91353404D01*
X144349020Y-90576400D01*
X148751340Y-90576400D01*
X148771126Y-90764656D01*
X148771127Y-90764659D01*
X148829618Y-90944677D01*
X148829621Y-90944684D01*
X148924267Y-91108616D01*
X148987285Y-91178604D01*
X149050929Y-91249288D01*
X149204065Y-91360548D01*
X149204070Y-91360551D01*
X149376992Y-91437542D01*
X149376997Y-91437544D01*
X149562154Y-91476900D01*
X149562155Y-91476900D01*
X149751444Y-91476900D01*
X149751446Y-91476900D01*
X149936603Y-91437544D01*
X150109530Y-91360551D01*
X150262671Y-91249288D01*
X150389333Y-91108616D01*
X150483979Y-90944684D01*
X150542474Y-90764656D01*
X150562260Y-90576400D01*
X150542474Y-90388144D01*
X150504606Y-90271600D01*
X153221740Y-90271600D01*
X153241526Y-90459856D01*
X153241527Y-90459859D01*
X153300018Y-90639877D01*
X153300021Y-90639884D01*
X153394667Y-90803816D01*
X153478190Y-90896577D01*
X153521329Y-90944488D01*
X153674465Y-91055748D01*
X153674470Y-91055751D01*
X153847392Y-91132742D01*
X153847397Y-91132744D01*
X154032554Y-91172100D01*
X154032555Y-91172100D01*
X154221844Y-91172100D01*
X154221846Y-91172100D01*
X154407003Y-91132744D01*
X154579930Y-91055751D01*
X154733071Y-90944488D01*
X154859733Y-90803816D01*
X154954379Y-90639884D01*
X155012874Y-90459856D01*
X155032660Y-90271600D01*
X155012874Y-90083344D01*
X155012872Y-90083339D01*
X155012860Y-90083220D01*
X155025429Y-90014490D01*
X155063295Y-89969940D01*
X155190271Y-89877688D01*
X155316933Y-89737016D01*
X155411579Y-89573084D01*
X155470074Y-89393056D01*
X155489860Y-89204800D01*
X155470074Y-89016544D01*
X155411579Y-88836516D01*
X155316933Y-88672584D01*
X155190271Y-88531912D01*
X155188328Y-88530500D01*
X155037134Y-88420651D01*
X155037129Y-88420648D01*
X154864207Y-88343657D01*
X154864202Y-88343655D01*
X154706065Y-88310043D01*
X154679046Y-88304300D01*
X154489754Y-88304300D01*
X154462735Y-88310043D01*
X154304597Y-88343655D01*
X154304592Y-88343657D01*
X154131670Y-88420648D01*
X154131665Y-88420651D01*
X153978529Y-88531911D01*
X153851866Y-88672585D01*
X153757221Y-88836515D01*
X153757218Y-88836522D01*
X153700354Y-89011533D01*
X153698726Y-89016544D01*
X153684926Y-89147847D01*
X153678940Y-89204800D01*
X153698739Y-89393180D01*
X153686169Y-89461910D01*
X153648304Y-89506459D01*
X153521327Y-89598713D01*
X153394666Y-89739385D01*
X153300021Y-89903315D01*
X153300018Y-89903322D01*
X153245583Y-90070857D01*
X153241526Y-90083344D01*
X153229873Y-90194216D01*
X153223053Y-90259112D01*
X153221740Y-90271600D01*
X150504606Y-90271600D01*
X150483979Y-90208116D01*
X150389333Y-90044184D01*
X150262671Y-89903512D01*
X150262670Y-89903511D01*
X150109534Y-89792251D01*
X150109529Y-89792248D01*
X149936607Y-89715257D01*
X149936602Y-89715255D01*
X149790801Y-89684265D01*
X149751446Y-89675900D01*
X149562154Y-89675900D01*
X149529697Y-89682798D01*
X149376997Y-89715255D01*
X149376992Y-89715257D01*
X149204070Y-89792248D01*
X149204065Y-89792251D01*
X149050929Y-89903511D01*
X148924266Y-90044185D01*
X148829621Y-90208115D01*
X148829618Y-90208122D01*
X148788430Y-90334888D01*
X148771126Y-90388144D01*
X148751340Y-90576400D01*
X144349020Y-90576400D01*
X144349020Y-90574124D01*
X142847020Y-90574124D01*
X141849020Y-90574124D01*
X140347020Y-90574124D01*
X139349020Y-90574124D01*
X137847020Y-90574124D01*
X136849020Y-90574124D01*
X135552996Y-90574124D01*
X135457164Y-90701025D01*
X135441748Y-90717935D01*
X135347020Y-90804291D01*
X135347020Y-92076124D01*
X134349020Y-92076124D01*
X134349020Y-91137715D01*
X134333619Y-91136289D01*
X134115013Y-91095425D01*
X134093004Y-91089163D01*
X133885628Y-91008825D01*
X133865144Y-90998625D01*
X133676062Y-90881550D01*
X133657802Y-90867760D01*
X133493452Y-90717935D01*
X133478036Y-90701025D01*
X133382204Y-90574124D01*
X132847020Y-90574124D01*
X131849020Y-90574124D01*
X131279974Y-90574124D01*
X131272753Y-92076124D01*
X130148739Y-92076124D01*
X130160346Y-89662000D01*
X145310240Y-89662000D01*
X145330026Y-89850256D01*
X145330027Y-89850259D01*
X145388518Y-90030277D01*
X145388521Y-90030284D01*
X145483167Y-90194216D01*
X145552844Y-90271600D01*
X145609829Y-90334888D01*
X145762965Y-90446148D01*
X145762970Y-90446151D01*
X145935892Y-90523142D01*
X145935897Y-90523144D01*
X146121054Y-90562500D01*
X146121055Y-90562500D01*
X146310344Y-90562500D01*
X146310346Y-90562500D01*
X146495503Y-90523144D01*
X146668430Y-90446151D01*
X146821571Y-90334888D01*
X146948233Y-90194216D01*
X147042879Y-90030284D01*
X147101374Y-89850256D01*
X147121160Y-89662000D01*
X147101374Y-89473744D01*
X147042879Y-89293716D01*
X146948233Y-89129784D01*
X146821571Y-88989112D01*
X146809554Y-88980381D01*
X146668434Y-88877851D01*
X146668429Y-88877848D01*
X146495507Y-88800857D01*
X146495502Y-88800855D01*
X146338075Y-88767394D01*
X146310346Y-88761500D01*
X146121054Y-88761500D01*
X146093325Y-88767394D01*
X145935897Y-88800855D01*
X145935892Y-88800857D01*
X145762970Y-88877848D01*
X145762965Y-88877851D01*
X145609829Y-88989111D01*
X145483166Y-89129785D01*
X145388521Y-89293715D01*
X145388518Y-89293722D01*
X145331240Y-89470007D01*
X145330026Y-89473744D01*
X145310240Y-89662000D01*
X130160346Y-89662000D01*
X130178034Y-85982870D01*
X130729500Y-85982870D01*
X130729501Y-85982876D01*
X130735908Y-86042483D01*
X130786202Y-86177328D01*
X130786206Y-86177335D01*
X130872452Y-86292544D01*
X130872455Y-86292547D01*
X130987664Y-86378793D01*
X130987671Y-86378797D01*
X131045895Y-86400513D01*
X131119598Y-86428002D01*
X131175531Y-86469873D01*
X131199949Y-86535337D01*
X131185098Y-86603610D01*
X131163947Y-86631865D01*
X131041886Y-86753926D01*
X130906400Y-86947420D01*
X130906399Y-86947422D01*
X130806570Y-87161507D01*
X130806567Y-87161513D01*
X130749364Y-87374999D01*
X130749364Y-87375000D01*
X131646314Y-87375000D01*
X131620507Y-87415156D01*
X131580000Y-87553111D01*
X131580000Y-87696889D01*
X131620507Y-87834844D01*
X131646314Y-87875000D01*
X130749364Y-87875000D01*
X130806567Y-88088486D01*
X130806570Y-88088492D01*
X130906399Y-88302578D01*
X131041894Y-88496082D01*
X131208917Y-88663105D01*
X131402421Y-88798600D01*
X131616507Y-88898429D01*
X131616516Y-88898433D01*
X131830000Y-88955634D01*
X131830000Y-88060501D01*
X131937685Y-88109680D01*
X132044237Y-88125000D01*
X132115763Y-88125000D01*
X132222315Y-88109680D01*
X132329999Y-88060501D01*
X132329999Y-88955633D01*
X132543483Y-88898433D01*
X132543492Y-88898429D01*
X132757578Y-88798600D01*
X132951082Y-88663105D01*
X133118105Y-88496082D01*
X133253600Y-88302578D01*
X133353429Y-88088492D01*
X133353432Y-88088486D01*
X133357280Y-88074124D01*
X135347020Y-88074124D01*
X135347020Y-88824507D01*
X135441749Y-88910865D01*
X135457164Y-88927775D01*
X135591186Y-89105248D01*
X135603232Y-89124703D01*
X135702361Y-89323781D01*
X135710627Y-89345119D01*
X135771487Y-89559022D01*
X135774684Y-89576124D01*
X136122266Y-89576124D01*
X136013452Y-89387650D01*
X136011904Y-89384798D01*
X135992608Y-89346931D01*
X135991211Y-89344002D01*
X135968626Y-89293281D01*
X135967383Y-89290281D01*
X135952133Y-89250559D01*
X135951049Y-89247497D01*
X135875391Y-89014647D01*
X135874469Y-89011533D01*
X135863459Y-88970443D01*
X135862701Y-88967285D01*
X135851159Y-88912974D01*
X135850568Y-88909784D01*
X135843919Y-88867795D01*
X135843495Y-88864577D01*
X135817906Y-88621109D01*
X135817651Y-88617873D01*
X135815425Y-88575406D01*
X135815340Y-88572160D01*
X135815340Y-88544400D01*
X136813340Y-88544400D01*
X136833126Y-88732656D01*
X136833127Y-88732659D01*
X136891618Y-88912677D01*
X136891621Y-88912684D01*
X136986267Y-89076616D01*
X137081751Y-89182661D01*
X137112929Y-89217288D01*
X137266065Y-89328548D01*
X137266070Y-89328551D01*
X137438992Y-89405542D01*
X137438997Y-89405544D01*
X137624154Y-89444900D01*
X137624155Y-89444900D01*
X137813444Y-89444900D01*
X137813446Y-89444900D01*
X137998603Y-89405544D01*
X138171530Y-89328551D01*
X138324671Y-89217288D01*
X138451333Y-89076616D01*
X138545979Y-88912684D01*
X138604474Y-88732656D01*
X138624260Y-88544400D01*
X138604474Y-88356144D01*
X138545979Y-88176116D01*
X138487094Y-88074124D01*
X140347020Y-88074124D01*
X140347020Y-89576124D01*
X141849020Y-89576124D01*
X141849020Y-88074124D01*
X142847020Y-88074124D01*
X142847020Y-89576124D01*
X144315769Y-89576124D01*
X144340395Y-89341823D01*
X144340819Y-89338605D01*
X144347468Y-89296617D01*
X144348059Y-89293426D01*
X144349020Y-89288904D01*
X144349020Y-88074124D01*
X147847020Y-88074124D01*
X147847020Y-88690528D01*
X147921048Y-88818751D01*
X147922596Y-88821602D01*
X147941892Y-88859469D01*
X147943289Y-88862398D01*
X147965874Y-88913119D01*
X147967117Y-88916119D01*
X147982367Y-88955841D01*
X147983451Y-88958903D01*
X148059109Y-89191753D01*
X148060031Y-89194867D01*
X148071041Y-89235957D01*
X148071799Y-89239115D01*
X148083341Y-89293426D01*
X148083932Y-89296616D01*
X148090581Y-89338605D01*
X148091005Y-89341823D01*
X148104901Y-89474043D01*
X148133197Y-89435101D01*
X148135173Y-89432526D01*
X148161930Y-89399485D01*
X148164037Y-89397018D01*
X148327848Y-89215087D01*
X148330083Y-89212733D01*
X148360155Y-89182661D01*
X148362510Y-89180425D01*
X148403771Y-89143275D01*
X148406238Y-89141168D01*
X148439283Y-89114407D01*
X148441860Y-89112430D01*
X148639927Y-88968527D01*
X148642604Y-88966687D01*
X148678284Y-88943518D01*
X148681052Y-88941822D01*
X148729136Y-88914062D01*
X148731990Y-88912513D01*
X148769862Y-88893218D01*
X148772790Y-88891821D01*
X148928475Y-88822504D01*
X148927309Y-88822125D01*
X148924246Y-88821041D01*
X148884533Y-88805796D01*
X148883910Y-88805538D01*
X150347020Y-88805538D01*
X150540810Y-88891821D01*
X150543738Y-88893218D01*
X150581610Y-88912513D01*
X150584464Y-88914062D01*
X150632548Y-88941822D01*
X150635316Y-88943518D01*
X150670996Y-88966687D01*
X150673673Y-88968527D01*
X150871740Y-89112430D01*
X150874317Y-89114407D01*
X150907362Y-89141168D01*
X150909829Y-89143275D01*
X150951090Y-89180425D01*
X150953445Y-89182661D01*
X150983517Y-89212733D01*
X150985752Y-89215087D01*
X151149563Y-89397018D01*
X151151670Y-89399485D01*
X151178427Y-89432526D01*
X151180403Y-89435101D01*
X151213040Y-89480019D01*
X151214880Y-89482696D01*
X151238048Y-89518371D01*
X151239745Y-89521139D01*
X151271490Y-89576124D01*
X151849020Y-89576124D01*
X151849020Y-89007404D01*
X151835283Y-88993667D01*
X151833048Y-88991313D01*
X151669237Y-88809382D01*
X151667130Y-88806915D01*
X151640373Y-88773874D01*
X151638397Y-88771299D01*
X151605760Y-88726381D01*
X151603920Y-88723704D01*
X151580752Y-88688029D01*
X151579055Y-88685261D01*
X151456652Y-88473250D01*
X151455104Y-88470398D01*
X151435808Y-88432531D01*
X151434411Y-88429602D01*
X151411826Y-88378881D01*
X151410583Y-88375881D01*
X151395333Y-88336159D01*
X151394249Y-88333097D01*
X151318591Y-88100247D01*
X151317669Y-88097133D01*
X151311504Y-88074124D01*
X151125732Y-88074124D01*
X151124845Y-88075661D01*
X151123148Y-88078429D01*
X151099980Y-88114104D01*
X151098140Y-88116781D01*
X151065503Y-88161699D01*
X151063527Y-88164274D01*
X151036770Y-88197315D01*
X151034663Y-88199782D01*
X150870852Y-88381713D01*
X150868617Y-88384067D01*
X150838545Y-88414139D01*
X150836190Y-88416375D01*
X150794929Y-88453525D01*
X150792462Y-88455632D01*
X150759417Y-88482393D01*
X150756840Y-88484370D01*
X150558773Y-88628273D01*
X150556096Y-88630113D01*
X150520416Y-88653282D01*
X150517648Y-88654978D01*
X150469564Y-88682738D01*
X150466710Y-88684287D01*
X150428837Y-88703582D01*
X150425910Y-88704979D01*
X150347020Y-88740103D01*
X150347020Y-88805538D01*
X148883910Y-88805538D01*
X148881533Y-88804553D01*
X148657890Y-88704979D01*
X148654962Y-88703582D01*
X148617090Y-88684287D01*
X148614236Y-88682738D01*
X148566152Y-88654978D01*
X148563384Y-88653282D01*
X148527704Y-88630113D01*
X148525027Y-88628273D01*
X148326960Y-88484370D01*
X148324383Y-88482393D01*
X148291338Y-88455632D01*
X148288871Y-88453525D01*
X148247610Y-88416375D01*
X148245255Y-88414139D01*
X148215183Y-88384067D01*
X148212948Y-88381713D01*
X148049137Y-88199782D01*
X148047030Y-88197315D01*
X148020273Y-88164274D01*
X148018297Y-88161699D01*
X147985660Y-88116781D01*
X147983820Y-88114104D01*
X147960652Y-88078429D01*
X147958955Y-88075661D01*
X147958068Y-88074124D01*
X147847020Y-88074124D01*
X144349020Y-88074124D01*
X142847020Y-88074124D01*
X141849020Y-88074124D01*
X140347020Y-88074124D01*
X138487094Y-88074124D01*
X138451333Y-88012184D01*
X138324671Y-87871512D01*
X138324670Y-87871511D01*
X138171534Y-87760251D01*
X138171529Y-87760248D01*
X137998607Y-87683257D01*
X137998602Y-87683255D01*
X137820559Y-87645412D01*
X137813446Y-87643900D01*
X137624154Y-87643900D01*
X137617041Y-87645412D01*
X137438997Y-87683255D01*
X137438992Y-87683257D01*
X137266070Y-87760248D01*
X137266065Y-87760251D01*
X137112929Y-87871511D01*
X136986266Y-88012185D01*
X136891621Y-88176115D01*
X136891618Y-88176122D01*
X136833742Y-88354247D01*
X136833126Y-88356144D01*
X136813340Y-88544400D01*
X135815340Y-88544400D01*
X135815340Y-88516640D01*
X135815425Y-88513394D01*
X135817651Y-88470927D01*
X135817906Y-88467691D01*
X135843495Y-88224223D01*
X135843919Y-88221005D01*
X135850568Y-88179016D01*
X135851159Y-88175826D01*
X135862701Y-88121515D01*
X135863459Y-88118357D01*
X135874469Y-88077267D01*
X135875391Y-88074153D01*
X135875400Y-88074124D01*
X135347020Y-88074124D01*
X133357280Y-88074124D01*
X133410636Y-87875000D01*
X132513686Y-87875000D01*
X132539493Y-87834844D01*
X132580000Y-87696889D01*
X132580000Y-87553111D01*
X132539493Y-87415156D01*
X132513686Y-87375000D01*
X133410636Y-87375000D01*
X133410635Y-87374999D01*
X133353432Y-87161513D01*
X133353429Y-87161507D01*
X133253600Y-86947422D01*
X133253599Y-86947420D01*
X133118113Y-86753926D01*
X133118108Y-86753920D01*
X132996053Y-86631865D01*
X132962568Y-86570542D01*
X132967552Y-86500850D01*
X133009424Y-86444917D01*
X133040400Y-86428002D01*
X133129847Y-86394641D01*
X133172326Y-86378798D01*
X133172326Y-86378797D01*
X133172331Y-86378796D01*
X133287546Y-86292546D01*
X133373796Y-86177331D01*
X133424091Y-86042483D01*
X133430500Y-85982873D01*
X133430500Y-85574124D01*
X135347020Y-85574124D01*
X135347020Y-87076124D01*
X136509787Y-87076124D01*
X136701927Y-86936527D01*
X136704604Y-86934687D01*
X136740284Y-86911518D01*
X136743052Y-86909822D01*
X136791136Y-86882062D01*
X136793990Y-86880513D01*
X136831862Y-86861218D01*
X136834790Y-86859822D01*
X136849020Y-86853486D01*
X136849020Y-85574124D01*
X137847020Y-85574124D01*
X137847020Y-86646119D01*
X137886946Y-86648212D01*
X137890185Y-86648467D01*
X137945401Y-86654274D01*
X137948616Y-86654697D01*
X137990600Y-86661347D01*
X137993792Y-86661938D01*
X138233247Y-86712835D01*
X138236404Y-86713593D01*
X138277472Y-86724597D01*
X138280583Y-86725518D01*
X138333391Y-86742675D01*
X138336454Y-86743759D01*
X138376167Y-86759004D01*
X138379167Y-86760247D01*
X138602810Y-86859821D01*
X138605738Y-86861218D01*
X138643610Y-86880513D01*
X138646464Y-86882062D01*
X138694548Y-86909822D01*
X138697316Y-86911518D01*
X138732996Y-86934687D01*
X138735673Y-86936527D01*
X138927813Y-87076124D01*
X139349020Y-87076124D01*
X142847020Y-87076124D01*
X144349020Y-87076124D01*
X144349020Y-85574124D01*
X145347020Y-85574124D01*
X145347020Y-87076124D01*
X146849020Y-87076124D01*
X146849020Y-87020400D01*
X148636440Y-87020400D01*
X148656226Y-87208656D01*
X148656227Y-87208659D01*
X148714718Y-87388677D01*
X148714721Y-87388684D01*
X148809367Y-87552616D01*
X148853985Y-87602169D01*
X148936029Y-87693288D01*
X149089165Y-87804548D01*
X149089170Y-87804551D01*
X149262092Y-87881542D01*
X149262097Y-87881544D01*
X149447254Y-87920900D01*
X149447255Y-87920900D01*
X149636544Y-87920900D01*
X149636546Y-87920900D01*
X149821703Y-87881544D01*
X149994630Y-87804551D01*
X150147771Y-87693288D01*
X150274433Y-87552616D01*
X150369079Y-87388684D01*
X150427574Y-87208656D01*
X150447360Y-87020400D01*
X150427574Y-86832144D01*
X150369079Y-86652116D01*
X150274433Y-86488184D01*
X150147771Y-86347512D01*
X150147770Y-86347511D01*
X149994634Y-86236251D01*
X149994629Y-86236248D01*
X149821707Y-86159257D01*
X149821702Y-86159255D01*
X149652283Y-86123245D01*
X149636546Y-86119900D01*
X149447254Y-86119900D01*
X149431517Y-86123245D01*
X149262097Y-86159255D01*
X149262092Y-86159257D01*
X149089170Y-86236248D01*
X149089165Y-86236251D01*
X148936029Y-86347511D01*
X148809366Y-86488185D01*
X148714721Y-86652115D01*
X148714718Y-86652122D01*
X148670693Y-86787619D01*
X148656226Y-86832144D01*
X148636440Y-87020400D01*
X146849020Y-87020400D01*
X146849020Y-85574124D01*
X145347020Y-85574124D01*
X144349020Y-85574124D01*
X143402363Y-85574124D01*
X143397032Y-85607784D01*
X143396441Y-85610974D01*
X143384899Y-85665285D01*
X143384141Y-85668443D01*
X143373131Y-85709533D01*
X143372209Y-85712647D01*
X143296551Y-85945497D01*
X143295467Y-85948559D01*
X143280217Y-85988281D01*
X143278974Y-85991281D01*
X143256389Y-86042002D01*
X143254992Y-86044931D01*
X143235696Y-86082798D01*
X143234148Y-86085650D01*
X143111745Y-86297661D01*
X143110048Y-86300429D01*
X143086880Y-86336104D01*
X143085040Y-86338781D01*
X143052403Y-86383699D01*
X143050427Y-86386274D01*
X143023670Y-86419315D01*
X143021563Y-86421782D01*
X142857752Y-86603713D01*
X142855517Y-86606067D01*
X142854396Y-86607187D01*
X142847020Y-86686787D01*
X142847020Y-87076124D01*
X139349020Y-87076124D01*
X139349020Y-85574124D01*
X137847020Y-85574124D01*
X136849020Y-85574124D01*
X135347020Y-85574124D01*
X133430500Y-85574124D01*
X133430500Y-85242400D01*
X140623340Y-85242400D01*
X140643126Y-85430656D01*
X140643127Y-85430659D01*
X140701618Y-85610677D01*
X140701621Y-85610684D01*
X140796267Y-85774616D01*
X140894321Y-85883516D01*
X140922929Y-85915288D01*
X141076065Y-86026548D01*
X141076070Y-86026551D01*
X141248992Y-86103542D01*
X141248997Y-86103544D01*
X141434154Y-86142900D01*
X141434155Y-86142900D01*
X141623444Y-86142900D01*
X141623446Y-86142900D01*
X141808603Y-86103544D01*
X141981530Y-86026551D01*
X142134671Y-85915288D01*
X142261333Y-85774616D01*
X142355979Y-85610684D01*
X142414474Y-85430656D01*
X142428921Y-85293200D01*
X150535040Y-85293200D01*
X150554826Y-85481456D01*
X150554827Y-85481459D01*
X150613318Y-85661477D01*
X150613321Y-85661484D01*
X150707967Y-85825416D01*
X150810869Y-85939700D01*
X150834629Y-85966088D01*
X150987765Y-86077348D01*
X150987770Y-86077351D01*
X151160692Y-86154342D01*
X151160697Y-86154344D01*
X151345854Y-86193700D01*
X151345855Y-86193700D01*
X151535144Y-86193700D01*
X151535146Y-86193700D01*
X151691890Y-86160383D01*
X151761554Y-86165699D01*
X151817288Y-86207836D01*
X151835599Y-86243355D01*
X151877618Y-86372677D01*
X151877621Y-86372684D01*
X151972267Y-86536616D01*
X152078028Y-86654075D01*
X152098929Y-86677288D01*
X152252065Y-86788548D01*
X152252070Y-86788551D01*
X152421542Y-86864006D01*
X152474779Y-86909256D01*
X152495100Y-86976105D01*
X152476054Y-87043329D01*
X152463259Y-87060253D01*
X152429467Y-87097784D01*
X152429465Y-87097785D01*
X152429464Y-87097788D01*
X152334821Y-87261715D01*
X152334818Y-87261722D01*
X152285239Y-87414312D01*
X152276326Y-87441744D01*
X152256540Y-87630000D01*
X152276326Y-87818256D01*
X152276327Y-87818259D01*
X152334818Y-87998277D01*
X152334821Y-87998284D01*
X152429467Y-88162216D01*
X152555850Y-88302578D01*
X152556129Y-88302888D01*
X152709265Y-88414148D01*
X152709270Y-88414151D01*
X152882192Y-88491142D01*
X152882197Y-88491144D01*
X153067354Y-88530500D01*
X153067355Y-88530500D01*
X153256644Y-88530500D01*
X153256646Y-88530500D01*
X153441803Y-88491144D01*
X153614730Y-88414151D01*
X153767871Y-88302888D01*
X153894533Y-88162216D01*
X153945393Y-88074124D01*
X156115722Y-88074124D01*
X156140640Y-88108419D01*
X156142480Y-88111096D01*
X156165648Y-88146771D01*
X156167345Y-88149539D01*
X156289748Y-88361550D01*
X156291296Y-88364402D01*
X156310592Y-88402269D01*
X156311989Y-88405198D01*
X156334574Y-88455919D01*
X156335817Y-88458919D01*
X156351067Y-88498641D01*
X156352151Y-88501703D01*
X156427809Y-88734553D01*
X156428731Y-88737667D01*
X156439741Y-88778757D01*
X156440499Y-88781915D01*
X156452041Y-88836226D01*
X156452632Y-88839416D01*
X156459281Y-88881405D01*
X156459705Y-88884623D01*
X156485294Y-89128091D01*
X156485549Y-89131327D01*
X156487775Y-89173794D01*
X156487860Y-89177040D01*
X156487860Y-89232560D01*
X156487775Y-89235806D01*
X156485549Y-89278273D01*
X156485294Y-89281509D01*
X156459705Y-89524977D01*
X156459281Y-89528195D01*
X156452632Y-89570184D01*
X156452041Y-89573374D01*
X156451457Y-89576124D01*
X156849020Y-89576124D01*
X156849020Y-88074124D01*
X157847020Y-88074124D01*
X157847020Y-89550995D01*
X157859755Y-89538261D01*
X157862110Y-89536025D01*
X157903371Y-89498875D01*
X157905838Y-89496768D01*
X157938883Y-89470007D01*
X157941460Y-89468030D01*
X158139527Y-89324127D01*
X158142204Y-89322287D01*
X158177884Y-89299118D01*
X158180652Y-89297422D01*
X158228736Y-89269662D01*
X158231590Y-89268113D01*
X158269462Y-89248818D01*
X158272390Y-89247421D01*
X158496033Y-89147847D01*
X158499033Y-89146604D01*
X158538746Y-89131359D01*
X158541809Y-89130275D01*
X158594617Y-89113118D01*
X158597728Y-89112197D01*
X158638796Y-89101193D01*
X158641953Y-89100435D01*
X158799664Y-89066912D01*
X158779506Y-88875109D01*
X158779251Y-88871873D01*
X158777025Y-88829406D01*
X158776940Y-88826160D01*
X158776940Y-88798400D01*
X159774940Y-88798400D01*
X159794726Y-88986656D01*
X159794727Y-88986659D01*
X159853218Y-89166677D01*
X159853221Y-89166684D01*
X159947867Y-89330616D01*
X160041322Y-89434408D01*
X160074529Y-89471288D01*
X160227665Y-89582548D01*
X160227670Y-89582551D01*
X160400592Y-89659542D01*
X160400597Y-89659544D01*
X160585754Y-89698900D01*
X160585755Y-89698900D01*
X160775044Y-89698900D01*
X160775046Y-89698900D01*
X160960203Y-89659544D01*
X161133130Y-89582551D01*
X161286271Y-89471288D01*
X161412933Y-89330616D01*
X161507579Y-89166684D01*
X161554022Y-89023746D01*
X161593459Y-88966072D01*
X161657818Y-88938873D01*
X161714795Y-88947621D01*
X161715213Y-88946335D01*
X161721397Y-88948344D01*
X161906554Y-88987700D01*
X161906555Y-88987700D01*
X162095844Y-88987700D01*
X162095846Y-88987700D01*
X162281003Y-88948344D01*
X162453930Y-88871351D01*
X162607071Y-88760088D01*
X162733733Y-88619416D01*
X162828379Y-88455484D01*
X162886874Y-88275456D01*
X162906660Y-88087200D01*
X162886874Y-87898944D01*
X162882018Y-87884000D01*
X164042140Y-87884000D01*
X164061926Y-88072256D01*
X164061927Y-88072259D01*
X164120418Y-88252277D01*
X164120421Y-88252284D01*
X164215067Y-88416216D01*
X164330485Y-88544400D01*
X164341729Y-88556888D01*
X164494865Y-88668148D01*
X164494870Y-88668151D01*
X164667792Y-88745142D01*
X164667797Y-88745144D01*
X164852954Y-88784500D01*
X164852955Y-88784500D01*
X165042244Y-88784500D01*
X165042246Y-88784500D01*
X165227403Y-88745144D01*
X165400330Y-88668151D01*
X165553471Y-88556888D01*
X165680133Y-88416216D01*
X165774779Y-88252284D01*
X165833274Y-88072256D01*
X165853060Y-87884000D01*
X165833274Y-87695744D01*
X165774779Y-87515716D01*
X165680133Y-87351784D01*
X165553471Y-87211112D01*
X165485204Y-87161513D01*
X165400334Y-87099851D01*
X165400329Y-87099848D01*
X165347045Y-87076124D01*
X167847020Y-87076124D01*
X168787636Y-87076124D01*
X168803680Y-87050939D01*
X168805184Y-87048689D01*
X168832274Y-87009999D01*
X168805181Y-86971307D01*
X168803677Y-86969057D01*
X168784631Y-86939160D01*
X168783226Y-86936845D01*
X168760096Y-86896778D01*
X168758795Y-86894408D01*
X168742440Y-86862988D01*
X168741243Y-86860563D01*
X168621830Y-86604482D01*
X168620741Y-86602006D01*
X168607188Y-86569287D01*
X168606209Y-86566769D01*
X168590383Y-86523296D01*
X168589512Y-86520731D01*
X168578849Y-86486914D01*
X168578091Y-86484315D01*
X168504955Y-86211359D01*
X168504312Y-86208732D01*
X168496641Y-86174133D01*
X168496114Y-86171478D01*
X168488081Y-86125919D01*
X168487669Y-86123245D01*
X168483045Y-86088121D01*
X168482751Y-86085432D01*
X168458123Y-85803940D01*
X168457946Y-85801241D01*
X168456400Y-85765838D01*
X168456341Y-85763133D01*
X168456341Y-85716867D01*
X168456400Y-85714162D01*
X168457946Y-85678759D01*
X168458123Y-85676060D01*
X168467041Y-85574124D01*
X168446394Y-85574124D01*
X168391751Y-85742297D01*
X168390667Y-85745359D01*
X168375417Y-85785081D01*
X168374174Y-85788081D01*
X168351589Y-85838802D01*
X168350192Y-85841731D01*
X168330896Y-85879598D01*
X168329348Y-85882450D01*
X168206945Y-86094461D01*
X168205248Y-86097229D01*
X168182080Y-86132904D01*
X168180240Y-86135581D01*
X168147603Y-86180499D01*
X168145627Y-86183074D01*
X168118870Y-86216115D01*
X168116763Y-86218582D01*
X167952952Y-86400513D01*
X167950717Y-86402867D01*
X167920645Y-86432939D01*
X167918290Y-86435175D01*
X167877029Y-86472325D01*
X167874562Y-86474432D01*
X167847020Y-86496735D01*
X167847020Y-87076124D01*
X165347045Y-87076124D01*
X165227407Y-87022857D01*
X165227402Y-87022855D01*
X165081601Y-86991865D01*
X165042246Y-86983500D01*
X164852954Y-86983500D01*
X164832705Y-86987804D01*
X164667797Y-87022855D01*
X164667792Y-87022857D01*
X164494870Y-87099848D01*
X164494865Y-87099851D01*
X164341729Y-87211111D01*
X164215066Y-87351785D01*
X164120421Y-87515715D01*
X164120418Y-87515722D01*
X164065983Y-87683257D01*
X164061926Y-87695744D01*
X164042140Y-87884000D01*
X162882018Y-87884000D01*
X162828379Y-87718916D01*
X162733733Y-87554984D01*
X162607071Y-87414312D01*
X162599658Y-87408926D01*
X162453934Y-87303051D01*
X162453929Y-87303048D01*
X162281007Y-87226057D01*
X162281002Y-87226055D01*
X162135200Y-87195065D01*
X162095846Y-87186700D01*
X161906554Y-87186700D01*
X161874097Y-87193598D01*
X161721397Y-87226055D01*
X161721392Y-87226057D01*
X161548470Y-87303048D01*
X161548465Y-87303051D01*
X161395329Y-87414311D01*
X161268666Y-87554985D01*
X161174021Y-87718915D01*
X161174019Y-87718919D01*
X161127577Y-87861853D01*
X161088139Y-87919528D01*
X161023780Y-87946726D01*
X160966804Y-87937980D01*
X160966387Y-87939265D01*
X160960202Y-87937255D01*
X160814401Y-87906265D01*
X160775046Y-87897900D01*
X160585754Y-87897900D01*
X160553297Y-87904798D01*
X160400597Y-87937255D01*
X160400592Y-87937257D01*
X160227670Y-88014248D01*
X160227665Y-88014251D01*
X160074529Y-88125511D01*
X159947866Y-88266185D01*
X159853221Y-88430115D01*
X159853218Y-88430122D01*
X159794727Y-88610140D01*
X159794726Y-88610144D01*
X159780537Y-88745144D01*
X159777005Y-88778757D01*
X159774940Y-88798400D01*
X158776940Y-88798400D01*
X158776940Y-88770640D01*
X158777025Y-88767394D01*
X158779251Y-88724927D01*
X158779506Y-88721691D01*
X158805095Y-88478223D01*
X158805519Y-88475005D01*
X158812168Y-88433016D01*
X158812759Y-88429826D01*
X158824301Y-88375515D01*
X158825059Y-88372357D01*
X158836069Y-88331267D01*
X158836991Y-88328153D01*
X158912649Y-88095303D01*
X158913733Y-88092241D01*
X158920688Y-88074124D01*
X157847020Y-88074124D01*
X156849020Y-88074124D01*
X156115722Y-88074124D01*
X153945393Y-88074124D01*
X153989179Y-87998284D01*
X154047674Y-87818256D01*
X154067460Y-87630000D01*
X154047674Y-87441744D01*
X153989179Y-87261716D01*
X153894533Y-87097784D01*
X153767871Y-86957112D01*
X153754534Y-86947422D01*
X153614734Y-86845851D01*
X153614729Y-86845848D01*
X153445257Y-86770393D01*
X153392020Y-86725143D01*
X153371699Y-86658293D01*
X153390745Y-86591070D01*
X153403539Y-86574147D01*
X153437333Y-86536616D01*
X153531979Y-86372684D01*
X153590474Y-86192656D01*
X153601506Y-86087690D01*
X155427325Y-86087690D01*
X155514361Y-86262481D01*
X155522627Y-86283819D01*
X155583487Y-86497722D01*
X155587692Y-86520215D01*
X155608212Y-86741659D01*
X155608212Y-86764541D01*
X155587692Y-86985985D01*
X155583487Y-87008478D01*
X155564240Y-87076124D01*
X156849020Y-87076124D01*
X156849020Y-85574124D01*
X157847020Y-85574124D01*
X157847020Y-87076124D01*
X159349020Y-87076124D01*
X159349020Y-86347016D01*
X159187637Y-86167782D01*
X159185530Y-86165315D01*
X159158773Y-86132274D01*
X159156797Y-86129699D01*
X159124160Y-86084781D01*
X159122320Y-86082104D01*
X159099152Y-86046429D01*
X159097455Y-86043661D01*
X158975052Y-85831650D01*
X158973504Y-85828798D01*
X158954208Y-85790931D01*
X158952811Y-85788002D01*
X158930226Y-85737281D01*
X158928983Y-85734281D01*
X158913733Y-85694559D01*
X158912649Y-85691497D01*
X158874512Y-85574124D01*
X157847020Y-85574124D01*
X156849020Y-85574124D01*
X155679088Y-85574124D01*
X155640951Y-85691497D01*
X155639867Y-85694559D01*
X155624617Y-85734281D01*
X155623374Y-85737281D01*
X155600789Y-85788002D01*
X155599392Y-85790931D01*
X155580096Y-85828798D01*
X155578548Y-85831650D01*
X155456145Y-86043661D01*
X155454448Y-86046429D01*
X155431280Y-86082104D01*
X155429440Y-86084781D01*
X155427325Y-86087690D01*
X153601506Y-86087690D01*
X153610260Y-86004400D01*
X153610259Y-86004398D01*
X153610939Y-85997937D01*
X153612649Y-85998116D01*
X153629945Y-85939215D01*
X153682749Y-85893460D01*
X153751907Y-85883516D01*
X153760022Y-85884961D01*
X153778554Y-85888900D01*
X153967844Y-85888900D01*
X153967846Y-85888900D01*
X154153003Y-85849544D01*
X154325930Y-85772551D01*
X154479071Y-85661288D01*
X154605733Y-85520616D01*
X154700379Y-85356684D01*
X154758874Y-85176656D01*
X154778660Y-84988400D01*
X159774940Y-84988400D01*
X159794726Y-85176656D01*
X159794727Y-85176659D01*
X159853218Y-85356677D01*
X159853221Y-85356684D01*
X159947867Y-85520616D01*
X159993606Y-85571414D01*
X160074529Y-85661288D01*
X160227665Y-85772548D01*
X160227670Y-85772551D01*
X160400592Y-85849542D01*
X160400597Y-85849544D01*
X160585754Y-85888900D01*
X160585755Y-85888900D01*
X160775044Y-85888900D01*
X160775046Y-85888900D01*
X160960203Y-85849544D01*
X161133130Y-85772551D01*
X161286271Y-85661288D01*
X161364754Y-85574124D01*
X162847020Y-85574124D01*
X162847020Y-86385617D01*
X162885210Y-86402622D01*
X162888138Y-86404018D01*
X162926010Y-86423313D01*
X162928864Y-86424862D01*
X162976948Y-86452622D01*
X162979716Y-86454318D01*
X163015396Y-86477487D01*
X163018073Y-86479327D01*
X163216140Y-86623230D01*
X163218717Y-86625207D01*
X163251762Y-86651968D01*
X163254229Y-86654075D01*
X163295490Y-86691225D01*
X163297845Y-86693461D01*
X163327917Y-86723533D01*
X163330152Y-86725887D01*
X163388944Y-86791182D01*
X163389520Y-86790296D01*
X163391360Y-86787619D01*
X163423997Y-86742701D01*
X163425973Y-86740126D01*
X163452730Y-86707085D01*
X163454837Y-86704618D01*
X163618648Y-86522687D01*
X163620883Y-86520333D01*
X163650955Y-86490261D01*
X163653310Y-86488025D01*
X163694571Y-86450875D01*
X163697038Y-86448768D01*
X163730083Y-86422007D01*
X163732660Y-86420030D01*
X163930727Y-86276127D01*
X163933404Y-86274287D01*
X163969084Y-86251118D01*
X163971852Y-86249422D01*
X164019936Y-86221662D01*
X164022790Y-86220113D01*
X164060662Y-86200818D01*
X164063590Y-86199421D01*
X164287233Y-86099847D01*
X164290233Y-86098604D01*
X164329946Y-86083359D01*
X164333009Y-86082275D01*
X164349020Y-86077073D01*
X164349020Y-85574124D01*
X162847020Y-85574124D01*
X161364754Y-85574124D01*
X161412933Y-85520616D01*
X161507579Y-85356684D01*
X161566074Y-85176656D01*
X161580521Y-85039200D01*
X165718540Y-85039200D01*
X165738326Y-85227456D01*
X165738327Y-85227459D01*
X165796818Y-85407477D01*
X165796821Y-85407484D01*
X165891467Y-85571416D01*
X165999589Y-85691497D01*
X166018129Y-85712088D01*
X166171265Y-85823348D01*
X166171270Y-85823351D01*
X166344192Y-85900342D01*
X166344197Y-85900344D01*
X166529354Y-85939700D01*
X166529355Y-85939700D01*
X166718644Y-85939700D01*
X166718646Y-85939700D01*
X166903803Y-85900344D01*
X167076730Y-85823351D01*
X167229871Y-85712088D01*
X167356533Y-85571416D01*
X167451179Y-85407484D01*
X167509674Y-85227456D01*
X167529460Y-85039200D01*
X167509674Y-84850944D01*
X167451179Y-84670916D01*
X167356533Y-84506984D01*
X167229871Y-84366312D01*
X167188292Y-84336103D01*
X167076734Y-84255051D01*
X167076729Y-84255048D01*
X166903807Y-84178057D01*
X166903802Y-84178055D01*
X166748991Y-84145150D01*
X166718646Y-84138700D01*
X166529354Y-84138700D01*
X166499009Y-84145150D01*
X166344197Y-84178055D01*
X166344192Y-84178057D01*
X166171270Y-84255048D01*
X166171265Y-84255051D01*
X166018129Y-84366311D01*
X165891466Y-84506985D01*
X165796821Y-84670915D01*
X165796818Y-84670922D01*
X165754833Y-84800140D01*
X165738326Y-84850944D01*
X165718540Y-85039200D01*
X161580521Y-85039200D01*
X161585860Y-84988400D01*
X161566074Y-84800144D01*
X161507579Y-84620116D01*
X161412933Y-84456184D01*
X161286271Y-84315512D01*
X161286270Y-84315511D01*
X161133134Y-84204251D01*
X161133129Y-84204248D01*
X160960207Y-84127257D01*
X160960202Y-84127255D01*
X160810411Y-84095417D01*
X160775046Y-84087900D01*
X160585754Y-84087900D01*
X160553297Y-84094798D01*
X160400597Y-84127255D01*
X160400592Y-84127257D01*
X160227670Y-84204248D01*
X160227665Y-84204251D01*
X160074529Y-84315511D01*
X159947866Y-84456185D01*
X159853221Y-84620115D01*
X159853218Y-84620122D01*
X159794727Y-84800140D01*
X159794726Y-84800144D01*
X159774940Y-84988400D01*
X154778660Y-84988400D01*
X154758874Y-84800144D01*
X154700379Y-84620116D01*
X154605733Y-84456184D01*
X154479071Y-84315512D01*
X154479070Y-84315511D01*
X154325934Y-84204251D01*
X154325929Y-84204248D01*
X154153007Y-84127257D01*
X154153002Y-84127255D01*
X154003211Y-84095417D01*
X153967846Y-84087900D01*
X153778554Y-84087900D01*
X153746097Y-84094798D01*
X153593397Y-84127255D01*
X153593392Y-84127257D01*
X153420470Y-84204248D01*
X153420465Y-84204251D01*
X153267329Y-84315511D01*
X153140666Y-84456185D01*
X153046021Y-84620115D01*
X153046018Y-84620122D01*
X152987527Y-84800140D01*
X152987526Y-84800144D01*
X152974412Y-84924921D01*
X152967061Y-84994863D01*
X152965350Y-84994683D01*
X152948055Y-85053584D01*
X152895251Y-85099339D01*
X152826093Y-85109283D01*
X152817982Y-85107840D01*
X152799446Y-85103900D01*
X152610154Y-85103900D01*
X152584829Y-85109283D01*
X152453412Y-85137216D01*
X152383744Y-85131900D01*
X152328011Y-85089763D01*
X152309700Y-85054244D01*
X152309672Y-85054158D01*
X152267679Y-84924916D01*
X152173033Y-84760984D01*
X152046371Y-84620312D01*
X152046370Y-84620311D01*
X151893234Y-84509051D01*
X151893229Y-84509048D01*
X151720307Y-84432057D01*
X151720302Y-84432055D01*
X151565491Y-84399150D01*
X151535146Y-84392700D01*
X151345854Y-84392700D01*
X151315509Y-84399150D01*
X151160697Y-84432055D01*
X151160692Y-84432057D01*
X150987770Y-84509048D01*
X150987765Y-84509051D01*
X150834629Y-84620311D01*
X150707966Y-84760985D01*
X150613321Y-84924915D01*
X150613318Y-84924922D01*
X150556647Y-85099339D01*
X150554826Y-85104944D01*
X150535040Y-85293200D01*
X142428921Y-85293200D01*
X142434260Y-85242400D01*
X142414474Y-85054144D01*
X142355979Y-84874116D01*
X142261333Y-84710184D01*
X142134671Y-84569512D01*
X142124823Y-84562357D01*
X141981534Y-84458251D01*
X141981529Y-84458248D01*
X141808607Y-84381257D01*
X141808602Y-84381255D01*
X141662801Y-84350265D01*
X141623446Y-84341900D01*
X141434154Y-84341900D01*
X141401697Y-84348798D01*
X141248997Y-84381255D01*
X141248992Y-84381257D01*
X141076070Y-84458248D01*
X141076065Y-84458251D01*
X140922929Y-84569511D01*
X140796266Y-84710185D01*
X140701621Y-84874115D01*
X140701618Y-84874122D01*
X140643308Y-85053584D01*
X140643126Y-85054144D01*
X140623340Y-85242400D01*
X133430500Y-85242400D01*
X133430499Y-84187128D01*
X133424091Y-84127517D01*
X133423993Y-84127255D01*
X133373797Y-83992671D01*
X133373793Y-83992664D01*
X133287547Y-83877455D01*
X133287544Y-83877452D01*
X133172335Y-83791206D01*
X133172328Y-83791202D01*
X133037482Y-83740908D01*
X133037483Y-83740908D01*
X132977883Y-83734501D01*
X132977881Y-83734500D01*
X132977873Y-83734500D01*
X132977864Y-83734500D01*
X131182129Y-83734500D01*
X131182123Y-83734501D01*
X131122516Y-83740908D01*
X130987671Y-83791202D01*
X130987664Y-83791206D01*
X130872455Y-83877452D01*
X130872452Y-83877455D01*
X130786206Y-83992664D01*
X130786202Y-83992671D01*
X130735908Y-84127517D01*
X130731834Y-84165415D01*
X130729501Y-84187123D01*
X130729500Y-84187135D01*
X130729500Y-85982870D01*
X130178034Y-85982870D01*
X130192018Y-83074124D01*
X135347020Y-83074124D01*
X135347020Y-84576124D01*
X136849020Y-84576124D01*
X136849020Y-83074124D01*
X137847020Y-83074124D01*
X137847020Y-84576124D01*
X139349020Y-84576124D01*
X139349020Y-83074124D01*
X140347020Y-83074124D01*
X140347020Y-83754338D01*
X140511927Y-83634527D01*
X140514604Y-83632687D01*
X140550284Y-83609518D01*
X140553052Y-83607822D01*
X140601136Y-83580062D01*
X140603990Y-83578513D01*
X140641862Y-83559218D01*
X140644790Y-83557821D01*
X140868433Y-83458247D01*
X140871433Y-83457004D01*
X140911146Y-83441759D01*
X140914209Y-83440675D01*
X140967017Y-83423518D01*
X140970128Y-83422597D01*
X141011196Y-83411593D01*
X141014353Y-83410835D01*
X141253808Y-83359938D01*
X141257000Y-83359347D01*
X141298984Y-83352697D01*
X141302199Y-83352274D01*
X141357415Y-83346467D01*
X141360654Y-83346212D01*
X141403138Y-83343985D01*
X141406384Y-83343900D01*
X141651216Y-83343900D01*
X141654462Y-83343985D01*
X141696946Y-83346212D01*
X141700185Y-83346467D01*
X141755401Y-83352274D01*
X141758616Y-83352697D01*
X141800600Y-83359347D01*
X141803792Y-83359938D01*
X141849020Y-83369551D01*
X141849020Y-83074124D01*
X142847020Y-83074124D01*
X142847020Y-83870235D01*
X142855517Y-83878733D01*
X142857752Y-83881087D01*
X143021563Y-84063018D01*
X143023670Y-84065485D01*
X143050427Y-84098526D01*
X143052403Y-84101101D01*
X143085040Y-84146019D01*
X143086880Y-84148696D01*
X143110048Y-84184371D01*
X143111745Y-84187139D01*
X143234148Y-84399150D01*
X143235696Y-84402002D01*
X143254992Y-84439869D01*
X143256389Y-84442798D01*
X143278974Y-84493519D01*
X143280217Y-84496519D01*
X143295467Y-84536241D01*
X143296551Y-84539303D01*
X143308515Y-84576124D01*
X144349020Y-84576124D01*
X147847020Y-84576124D01*
X149349020Y-84576124D01*
X149349020Y-83074124D01*
X155347020Y-83074124D01*
X155347020Y-83787979D01*
X155365963Y-83809018D01*
X155368070Y-83811486D01*
X155394827Y-83844526D01*
X155396803Y-83847101D01*
X155429440Y-83892019D01*
X155431280Y-83894696D01*
X155454448Y-83930371D01*
X155456145Y-83933139D01*
X155578548Y-84145150D01*
X155580096Y-84148002D01*
X155599392Y-84185869D01*
X155600789Y-84188798D01*
X155623374Y-84239519D01*
X155624617Y-84242519D01*
X155639867Y-84282241D01*
X155640951Y-84285303D01*
X155716609Y-84518153D01*
X155717531Y-84521267D01*
X155728541Y-84562357D01*
X155729299Y-84565515D01*
X155731554Y-84576124D01*
X156849020Y-84576124D01*
X156849020Y-83074124D01*
X157847020Y-83074124D01*
X157847020Y-84576124D01*
X158822046Y-84576124D01*
X158824301Y-84565515D01*
X158825059Y-84562357D01*
X158836069Y-84521267D01*
X158836991Y-84518153D01*
X158912649Y-84285303D01*
X158913733Y-84282241D01*
X158928983Y-84242519D01*
X158930226Y-84239519D01*
X158952811Y-84188798D01*
X158954208Y-84185869D01*
X158973504Y-84148002D01*
X158975052Y-84145150D01*
X159097455Y-83933139D01*
X159099152Y-83930371D01*
X159122320Y-83894696D01*
X159124160Y-83892019D01*
X159156797Y-83847101D01*
X159158773Y-83844526D01*
X159185530Y-83811485D01*
X159187637Y-83809018D01*
X159349019Y-83629783D01*
X159349020Y-83074124D01*
X162847020Y-83074124D01*
X162847020Y-84576124D01*
X164349020Y-84576124D01*
X164349020Y-83074124D01*
X167847020Y-83074124D01*
X167847020Y-83581663D01*
X167874562Y-83603968D01*
X167877029Y-83606075D01*
X167918290Y-83643225D01*
X167920645Y-83645461D01*
X167950717Y-83675533D01*
X167952952Y-83677887D01*
X168116763Y-83859818D01*
X168118870Y-83862285D01*
X168145627Y-83895326D01*
X168147603Y-83897901D01*
X168180240Y-83942819D01*
X168182080Y-83945496D01*
X168205248Y-83981171D01*
X168206945Y-83983939D01*
X168329348Y-84195950D01*
X168330896Y-84198802D01*
X168350192Y-84236669D01*
X168351589Y-84239598D01*
X168374174Y-84290319D01*
X168375417Y-84293319D01*
X168390667Y-84333041D01*
X168391751Y-84336103D01*
X168467409Y-84568953D01*
X168468331Y-84572067D01*
X168469418Y-84576124D01*
X168556895Y-84576124D01*
X168519254Y-84475203D01*
X168518014Y-84471533D01*
X168503285Y-84422975D01*
X168502277Y-84419236D01*
X168487038Y-84354751D01*
X168486265Y-84350955D01*
X168477701Y-84300931D01*
X168477166Y-84297093D01*
X168465699Y-84190419D01*
X168465544Y-84188764D01*
X168463799Y-84167072D01*
X168463688Y-84165415D01*
X168462170Y-84137076D01*
X168462103Y-84135416D01*
X168461523Y-84113707D01*
X168461501Y-84112051D01*
X168461500Y-83074124D01*
X167847020Y-83074124D01*
X164349020Y-83074124D01*
X162847020Y-83074124D01*
X159349020Y-83074124D01*
X157847020Y-83074124D01*
X156849020Y-83074124D01*
X155347020Y-83074124D01*
X149349020Y-83074124D01*
X149027797Y-83074124D01*
X148986151Y-83202297D01*
X148985067Y-83205359D01*
X148969817Y-83245081D01*
X148968574Y-83248081D01*
X148945989Y-83298802D01*
X148944592Y-83301731D01*
X148925296Y-83339598D01*
X148923748Y-83342450D01*
X148801345Y-83554461D01*
X148799648Y-83557229D01*
X148776480Y-83592904D01*
X148774640Y-83595581D01*
X148742003Y-83640499D01*
X148740027Y-83643074D01*
X148713270Y-83676115D01*
X148711163Y-83678582D01*
X148547352Y-83860513D01*
X148545117Y-83862867D01*
X148515045Y-83892939D01*
X148512690Y-83895175D01*
X148471429Y-83932325D01*
X148468962Y-83934432D01*
X148435917Y-83961193D01*
X148433340Y-83963170D01*
X148235273Y-84107073D01*
X148232596Y-84108913D01*
X148196916Y-84132082D01*
X148194148Y-84133778D01*
X148146064Y-84161538D01*
X148143210Y-84163087D01*
X148105338Y-84182382D01*
X148102410Y-84183779D01*
X147878767Y-84283353D01*
X147875767Y-84284596D01*
X147847020Y-84295631D01*
X147847020Y-84576124D01*
X144349020Y-84576124D01*
X144349020Y-84306140D01*
X144302390Y-84285379D01*
X144299463Y-84283982D01*
X144261590Y-84264687D01*
X144258736Y-84263138D01*
X144210652Y-84235378D01*
X144207884Y-84233682D01*
X144172204Y-84210513D01*
X144169527Y-84208673D01*
X143971460Y-84064770D01*
X143968883Y-84062793D01*
X143935838Y-84036032D01*
X143933371Y-84033925D01*
X143892110Y-83996775D01*
X143889755Y-83994539D01*
X143859683Y-83964467D01*
X143857448Y-83962113D01*
X143693637Y-83780182D01*
X143691530Y-83777715D01*
X143664773Y-83744674D01*
X143662797Y-83742099D01*
X143630160Y-83697181D01*
X143628320Y-83694504D01*
X143605152Y-83658829D01*
X143603455Y-83656061D01*
X143481052Y-83444050D01*
X143479504Y-83441198D01*
X143460208Y-83403331D01*
X143458811Y-83400402D01*
X143436226Y-83349681D01*
X143434983Y-83346681D01*
X143419733Y-83306959D01*
X143418649Y-83303897D01*
X143343991Y-83074124D01*
X142847020Y-83074124D01*
X141849020Y-83074124D01*
X140347020Y-83074124D01*
X139349020Y-83074124D01*
X137847020Y-83074124D01*
X136849020Y-83074124D01*
X135347020Y-83074124D01*
X130192018Y-83074124D01*
X130200174Y-81377736D01*
X130220181Y-81310794D01*
X130231643Y-81295785D01*
X131016325Y-80416400D01*
X132038140Y-80416400D01*
X132057926Y-80604656D01*
X132057927Y-80604659D01*
X132116418Y-80784677D01*
X132116421Y-80784684D01*
X132211067Y-80948616D01*
X132300943Y-81048433D01*
X132337729Y-81089288D01*
X132490865Y-81200548D01*
X132490870Y-81200551D01*
X132663792Y-81277542D01*
X132663797Y-81277544D01*
X132848954Y-81316900D01*
X132848955Y-81316900D01*
X133038244Y-81316900D01*
X133038246Y-81316900D01*
X133223403Y-81277544D01*
X133396330Y-81200551D01*
X133549471Y-81089288D01*
X133676133Y-80948616D01*
X133770779Y-80784684D01*
X133829274Y-80604656D01*
X133832483Y-80574124D01*
X135347020Y-80574124D01*
X135347020Y-82076124D01*
X136849020Y-82076124D01*
X136849020Y-81199959D01*
X137847020Y-81199959D01*
X137847020Y-82076124D01*
X139349020Y-82076124D01*
X139349020Y-81465612D01*
X139160196Y-81538763D01*
X139138187Y-81545025D01*
X138919581Y-81585889D01*
X138896796Y-81588000D01*
X138674404Y-81588000D01*
X138651619Y-81585889D01*
X138433013Y-81545025D01*
X138411004Y-81538763D01*
X138203628Y-81458425D01*
X138183144Y-81448225D01*
X137994062Y-81331150D01*
X137975802Y-81317360D01*
X137847020Y-81199959D01*
X136849020Y-81199959D01*
X136849020Y-80860599D01*
X140347020Y-80860599D01*
X140347020Y-82076124D01*
X141849020Y-82076124D01*
X142847020Y-82076124D01*
X143212663Y-82076124D01*
X143139791Y-81851847D01*
X143138869Y-81848733D01*
X143127859Y-81807643D01*
X143127101Y-81804485D01*
X143115559Y-81750174D01*
X143114968Y-81746984D01*
X143108319Y-81704995D01*
X143107895Y-81701777D01*
X143082306Y-81458309D01*
X143082051Y-81455073D01*
X143079825Y-81412606D01*
X143079740Y-81409360D01*
X143079740Y-81381600D01*
X144077740Y-81381600D01*
X144097526Y-81569856D01*
X144097527Y-81569859D01*
X144156018Y-81749877D01*
X144156020Y-81749882D01*
X144156021Y-81749884D01*
X144250667Y-81913816D01*
X144321473Y-81992454D01*
X144368639Y-82044837D01*
X144398869Y-82107828D01*
X144390244Y-82177164D01*
X144383877Y-82189807D01*
X144359221Y-82232513D01*
X144300727Y-82412540D01*
X144300726Y-82412544D01*
X144280940Y-82600800D01*
X144300726Y-82789056D01*
X144300727Y-82789059D01*
X144359218Y-82969077D01*
X144359221Y-82969084D01*
X144453867Y-83133016D01*
X144554771Y-83245081D01*
X144580529Y-83273688D01*
X144733665Y-83384948D01*
X144733670Y-83384951D01*
X144906592Y-83461942D01*
X144906597Y-83461944D01*
X145091754Y-83501300D01*
X145091755Y-83501300D01*
X145281044Y-83501300D01*
X145281046Y-83501300D01*
X145466203Y-83461944D01*
X145639130Y-83384951D01*
X145792271Y-83273688D01*
X145918933Y-83133016D01*
X146013579Y-82969084D01*
X146072074Y-82789056D01*
X146084419Y-82671597D01*
X146111002Y-82606985D01*
X146168300Y-82567000D01*
X146238119Y-82564340D01*
X146298292Y-82599849D01*
X146329716Y-82662254D01*
X146331057Y-82671579D01*
X146332726Y-82687456D01*
X146332727Y-82687459D01*
X146391218Y-82867477D01*
X146391221Y-82867484D01*
X146485867Y-83031416D01*
X146612528Y-83172088D01*
X146612529Y-83172088D01*
X146765665Y-83283348D01*
X146765670Y-83283351D01*
X146938592Y-83360342D01*
X146938597Y-83360344D01*
X147123754Y-83399700D01*
X147123755Y-83399700D01*
X147313044Y-83399700D01*
X147313046Y-83399700D01*
X147498203Y-83360344D01*
X147671130Y-83283351D01*
X147824271Y-83172088D01*
X147950933Y-83031416D01*
X148045579Y-82867484D01*
X148104074Y-82687456D01*
X148123860Y-82499200D01*
X148104074Y-82310944D01*
X148049512Y-82143023D01*
X148045581Y-82130922D01*
X148045580Y-82130921D01*
X148045579Y-82130916D01*
X147950933Y-81966984D01*
X147847491Y-81852100D01*
X150427740Y-81852100D01*
X150447526Y-82040356D01*
X150447527Y-82040359D01*
X150506018Y-82220377D01*
X150506021Y-82220384D01*
X150600667Y-82384316D01*
X150626084Y-82412544D01*
X150727329Y-82524988D01*
X150880465Y-82636248D01*
X150880470Y-82636251D01*
X151053392Y-82713242D01*
X151053397Y-82713244D01*
X151238554Y-82752600D01*
X151238555Y-82752600D01*
X151427844Y-82752600D01*
X151427846Y-82752600D01*
X151613003Y-82713244D01*
X151785930Y-82636251D01*
X151903177Y-82551066D01*
X151968978Y-82527588D01*
X152037032Y-82543413D01*
X152047622Y-82550218D01*
X152048364Y-82550647D01*
X152221286Y-82627638D01*
X152221291Y-82627640D01*
X152406448Y-82666996D01*
X152406449Y-82666996D01*
X152595738Y-82666996D01*
X152595740Y-82666996D01*
X152780897Y-82627640D01*
X152953824Y-82550647D01*
X153106965Y-82439384D01*
X153233627Y-82298712D01*
X153328273Y-82134780D01*
X153347332Y-82076124D01*
X155347020Y-82076124D01*
X156849020Y-82076124D01*
X157847020Y-82076124D01*
X159349020Y-82076124D01*
X159349020Y-80880537D01*
X159204198Y-81012560D01*
X159185938Y-81026350D01*
X158996856Y-81143425D01*
X158976372Y-81153625D01*
X158768996Y-81233963D01*
X158746987Y-81240225D01*
X158528381Y-81281089D01*
X158505596Y-81283200D01*
X158283204Y-81283200D01*
X158260419Y-81281089D01*
X158041813Y-81240225D01*
X158019804Y-81233963D01*
X157847020Y-81167026D01*
X157847020Y-82076124D01*
X156849020Y-82076124D01*
X156849020Y-80574124D01*
X160347020Y-80574124D01*
X160347020Y-82076124D01*
X161640127Y-82076124D01*
X161535052Y-81980335D01*
X161519636Y-81963425D01*
X161385614Y-81785952D01*
X161373568Y-81766497D01*
X161274439Y-81567419D01*
X161266173Y-81546081D01*
X161205313Y-81332178D01*
X161201108Y-81309685D01*
X161180588Y-81088241D01*
X161180588Y-81065359D01*
X161201108Y-80843915D01*
X161205313Y-80821422D01*
X161266173Y-80607519D01*
X161274439Y-80586182D01*
X161280443Y-80574124D01*
X160347020Y-80574124D01*
X156849020Y-80574124D01*
X155421454Y-80574124D01*
X155418870Y-80577315D01*
X155416763Y-80579782D01*
X155347020Y-80657239D01*
X155347020Y-82076124D01*
X153347332Y-82076124D01*
X153386768Y-81954752D01*
X153406554Y-81766496D01*
X153386768Y-81578240D01*
X153328273Y-81398212D01*
X153233627Y-81234280D01*
X153106965Y-81093608D01*
X153099578Y-81088241D01*
X152953828Y-80982347D01*
X152953823Y-80982344D01*
X152780901Y-80905353D01*
X152780896Y-80905351D01*
X152635095Y-80874361D01*
X152595740Y-80865996D01*
X152406448Y-80865996D01*
X152373991Y-80872894D01*
X152221291Y-80905351D01*
X152221286Y-80905353D01*
X152048364Y-80982344D01*
X152048359Y-80982347D01*
X151931119Y-81067527D01*
X151865312Y-81091007D01*
X151797259Y-81075181D01*
X151786683Y-81068384D01*
X151785929Y-81067948D01*
X151613007Y-80990957D01*
X151613002Y-80990955D01*
X151446462Y-80955557D01*
X151427846Y-80951600D01*
X151238554Y-80951600D01*
X151219938Y-80955557D01*
X151053397Y-80990955D01*
X151053392Y-80990957D01*
X150880470Y-81067948D01*
X150880465Y-81067951D01*
X150727329Y-81179211D01*
X150600666Y-81319885D01*
X150506021Y-81483815D01*
X150506018Y-81483822D01*
X150447927Y-81662609D01*
X150447526Y-81663844D01*
X150427740Y-81852100D01*
X147847491Y-81852100D01*
X147824271Y-81826312D01*
X147824270Y-81826311D01*
X147671134Y-81715051D01*
X147671129Y-81715048D01*
X147498207Y-81638057D01*
X147498202Y-81638055D01*
X147349498Y-81606448D01*
X147313046Y-81598700D01*
X147123754Y-81598700D01*
X147091297Y-81605598D01*
X146938597Y-81638055D01*
X146938592Y-81638057D01*
X146765670Y-81715048D01*
X146765665Y-81715051D01*
X146612529Y-81826311D01*
X146485866Y-81966985D01*
X146391221Y-82130915D01*
X146391218Y-82130922D01*
X146335588Y-82302135D01*
X146332726Y-82310944D01*
X146323437Y-82399318D01*
X146320381Y-82428400D01*
X146293796Y-82493015D01*
X146236498Y-82532999D01*
X146166679Y-82535659D01*
X146106506Y-82500149D01*
X146075083Y-82437744D01*
X146073740Y-82428400D01*
X146072074Y-82412544D01*
X146013579Y-82232516D01*
X145918933Y-82068584D01*
X145800958Y-81937560D01*
X145770729Y-81874570D01*
X145779354Y-81805234D01*
X145785714Y-81792604D01*
X145810379Y-81749884D01*
X145868874Y-81569856D01*
X145888660Y-81381600D01*
X145868874Y-81193344D01*
X145810379Y-81013316D01*
X145715733Y-80849384D01*
X145691346Y-80822300D01*
X148243340Y-80822300D01*
X148263126Y-81010556D01*
X148263127Y-81010559D01*
X148321618Y-81190577D01*
X148321621Y-81190584D01*
X148416267Y-81354516D01*
X148513123Y-81462085D01*
X148542929Y-81495188D01*
X148696065Y-81606448D01*
X148696070Y-81606451D01*
X148868992Y-81683442D01*
X148868997Y-81683444D01*
X149054154Y-81722800D01*
X149054155Y-81722800D01*
X149243444Y-81722800D01*
X149243446Y-81722800D01*
X149428603Y-81683444D01*
X149601530Y-81606451D01*
X149754671Y-81495188D01*
X149881333Y-81354516D01*
X149975979Y-81190584D01*
X150034474Y-81010556D01*
X150054260Y-80822300D01*
X150034474Y-80634044D01*
X149975979Y-80454016D01*
X149954261Y-80416400D01*
X162822940Y-80416400D01*
X162842726Y-80604656D01*
X162842727Y-80604659D01*
X162901218Y-80784677D01*
X162901221Y-80784684D01*
X162995867Y-80948616D01*
X163085743Y-81048433D01*
X163122529Y-81089288D01*
X163275665Y-81200548D01*
X163275670Y-81200551D01*
X163448592Y-81277542D01*
X163448597Y-81277544D01*
X163633754Y-81316900D01*
X163633755Y-81316900D01*
X163823044Y-81316900D01*
X163823046Y-81316900D01*
X164008203Y-81277544D01*
X164181130Y-81200551D01*
X164334271Y-81089288D01*
X164460933Y-80948616D01*
X164555579Y-80784684D01*
X164611369Y-80612982D01*
X167847019Y-80612982D01*
X167909561Y-80738582D01*
X167917827Y-80759919D01*
X167978687Y-80973822D01*
X167982892Y-80996315D01*
X168003412Y-81217759D01*
X168003412Y-81240641D01*
X167982892Y-81462085D01*
X167978687Y-81484578D01*
X167917827Y-81698481D01*
X167909561Y-81719819D01*
X167847020Y-81845417D01*
X167847020Y-82076124D01*
X168481630Y-82076124D01*
X168486263Y-82049062D01*
X168487036Y-82045266D01*
X168502271Y-81980785D01*
X168503279Y-81977045D01*
X168518012Y-81928474D01*
X168519252Y-81924804D01*
X168594361Y-81723424D01*
X168596055Y-81719333D01*
X168620153Y-81666568D01*
X168622134Y-81662609D01*
X168658433Y-81596133D01*
X168660693Y-81592325D01*
X168692050Y-81543534D01*
X168694575Y-81539897D01*
X168826212Y-81364055D01*
X168828989Y-81360608D01*
X168866968Y-81316778D01*
X168869985Y-81313537D01*
X168923537Y-81259985D01*
X168926778Y-81256968D01*
X168970608Y-81218989D01*
X168974055Y-81216212D01*
X169149897Y-81084575D01*
X169153534Y-81082050D01*
X169202325Y-81050693D01*
X169206133Y-81048433D01*
X169272609Y-81012134D01*
X169276568Y-81010153D01*
X169329332Y-80986055D01*
X169333424Y-80984361D01*
X169349020Y-80978544D01*
X169349020Y-80574124D01*
X170347020Y-80574124D01*
X170347020Y-80851500D01*
X171722079Y-80851500D01*
X171723741Y-80851522D01*
X171745503Y-80852106D01*
X171747164Y-80852173D01*
X171775508Y-80853694D01*
X171777163Y-80853805D01*
X171798809Y-80855548D01*
X171800460Y-80855703D01*
X171849020Y-80860924D01*
X171849020Y-80574124D01*
X170347020Y-80574124D01*
X169349020Y-80574124D01*
X167847020Y-80574124D01*
X167847019Y-80612982D01*
X164611369Y-80612982D01*
X164614074Y-80604656D01*
X164633860Y-80416400D01*
X164614074Y-80228144D01*
X164555579Y-80048116D01*
X164460933Y-79884184D01*
X164334271Y-79743512D01*
X164334270Y-79743511D01*
X164181134Y-79632251D01*
X164181129Y-79632248D01*
X164008207Y-79555257D01*
X164008202Y-79555255D01*
X163833010Y-79518018D01*
X163823046Y-79515900D01*
X163633754Y-79515900D01*
X163623790Y-79518018D01*
X163448597Y-79555255D01*
X163448592Y-79555257D01*
X163275670Y-79632248D01*
X163275665Y-79632251D01*
X163122529Y-79743511D01*
X162995866Y-79884185D01*
X162901221Y-80048115D01*
X162901218Y-80048122D01*
X162842727Y-80228140D01*
X162842726Y-80228144D01*
X162822940Y-80416400D01*
X149954261Y-80416400D01*
X149881333Y-80290084D01*
X149754671Y-80149412D01*
X149695788Y-80106631D01*
X149601534Y-80038151D01*
X149601529Y-80038148D01*
X149428607Y-79961157D01*
X149428602Y-79961155D01*
X149282801Y-79930165D01*
X149243446Y-79921800D01*
X149054154Y-79921800D01*
X149021697Y-79928698D01*
X148868997Y-79961155D01*
X148868992Y-79961157D01*
X148696070Y-80038148D01*
X148696065Y-80038151D01*
X148542929Y-80149411D01*
X148416266Y-80290085D01*
X148321621Y-80454015D01*
X148321618Y-80454022D01*
X148263127Y-80634040D01*
X148263126Y-80634044D01*
X148243340Y-80822300D01*
X145691346Y-80822300D01*
X145589071Y-80708712D01*
X145547492Y-80678503D01*
X145435934Y-80597451D01*
X145435929Y-80597448D01*
X145263007Y-80520457D01*
X145263002Y-80520455D01*
X145117200Y-80489465D01*
X145077846Y-80481100D01*
X144888554Y-80481100D01*
X144856097Y-80487998D01*
X144703397Y-80520455D01*
X144703392Y-80520457D01*
X144530470Y-80597448D01*
X144530465Y-80597451D01*
X144377329Y-80708711D01*
X144250666Y-80849385D01*
X144156021Y-81013315D01*
X144156018Y-81013322D01*
X144097527Y-81193340D01*
X144097526Y-81193344D01*
X144077740Y-81381600D01*
X143079740Y-81381600D01*
X143079740Y-81353840D01*
X143079825Y-81350594D01*
X143082051Y-81308127D01*
X143082306Y-81304891D01*
X143107895Y-81061423D01*
X143108319Y-81058205D01*
X143114968Y-81016216D01*
X143115559Y-81013026D01*
X143127101Y-80958715D01*
X143127859Y-80955557D01*
X143138869Y-80914467D01*
X143139791Y-80911353D01*
X143215449Y-80678503D01*
X143216533Y-80675441D01*
X143231783Y-80635719D01*
X143233026Y-80632719D01*
X143255611Y-80581998D01*
X143257008Y-80579069D01*
X143259528Y-80574124D01*
X142889950Y-80574124D01*
X142887692Y-80598486D01*
X142883487Y-80620978D01*
X142847020Y-80749147D01*
X142847020Y-82076124D01*
X141849020Y-82076124D01*
X141849020Y-81662171D01*
X141713581Y-81687489D01*
X141690796Y-81689600D01*
X141468404Y-81689600D01*
X141445619Y-81687489D01*
X141227013Y-81646625D01*
X141205004Y-81640363D01*
X140997628Y-81560025D01*
X140977144Y-81549825D01*
X140788062Y-81432750D01*
X140769802Y-81418960D01*
X140605452Y-81269135D01*
X140590036Y-81252225D01*
X140456014Y-81074752D01*
X140443968Y-81055297D01*
X140347020Y-80860599D01*
X136849020Y-80860599D01*
X136849020Y-80574124D01*
X135347020Y-80574124D01*
X133832483Y-80574124D01*
X133849060Y-80416400D01*
X133829274Y-80228144D01*
X133770779Y-80048116D01*
X133676133Y-79884184D01*
X133549471Y-79743512D01*
X133549470Y-79743511D01*
X133396334Y-79632251D01*
X133396329Y-79632248D01*
X133270274Y-79576124D01*
X135347020Y-79576124D01*
X136849020Y-79576124D01*
X136849020Y-79133405D01*
X135347020Y-79141279D01*
X135347020Y-79576124D01*
X133270274Y-79576124D01*
X133223407Y-79555257D01*
X133223402Y-79555255D01*
X133048210Y-79518018D01*
X133038246Y-79515900D01*
X132848954Y-79515900D01*
X132838990Y-79518018D01*
X132663797Y-79555255D01*
X132663792Y-79555257D01*
X132490870Y-79632248D01*
X132490865Y-79632251D01*
X132337729Y-79743511D01*
X132211066Y-79884185D01*
X132116421Y-80048115D01*
X132116418Y-80048122D01*
X132057927Y-80228140D01*
X132057926Y-80228144D01*
X132038140Y-80416400D01*
X131016325Y-80416400D01*
X133110083Y-78069947D01*
X133169402Y-78033035D01*
X133201945Y-78028510D01*
X140398265Y-77990784D01*
X140465407Y-78010117D01*
X140511438Y-78062680D01*
X140521744Y-78131785D01*
X140493052Y-78195492D01*
X140471806Y-78215096D01*
X140465730Y-78219510D01*
X140465729Y-78219511D01*
X140339066Y-78360185D01*
X140244421Y-78524115D01*
X140244418Y-78524122D01*
X140214484Y-78616251D01*
X140185926Y-78704144D01*
X140166140Y-78892400D01*
X140185926Y-79080656D01*
X140185927Y-79080659D01*
X140244418Y-79260677D01*
X140244421Y-79260684D01*
X140339067Y-79424616D01*
X140398713Y-79490859D01*
X140465729Y-79565288D01*
X140618865Y-79676548D01*
X140618870Y-79676551D01*
X140791792Y-79753542D01*
X140791797Y-79753544D01*
X140976954Y-79792900D01*
X140976955Y-79792900D01*
X141166244Y-79792900D01*
X141166246Y-79792900D01*
X141351403Y-79753544D01*
X141524330Y-79676551D01*
X141662556Y-79576124D01*
X142847020Y-79576124D01*
X144349020Y-79576124D01*
X144349020Y-79518018D01*
X145347020Y-79518018D01*
X145497647Y-79550035D01*
X145500804Y-79550793D01*
X145541872Y-79561797D01*
X145544983Y-79562718D01*
X145586246Y-79576124D01*
X146849020Y-79576124D01*
X146849020Y-79346182D01*
X150347020Y-79346182D01*
X150363741Y-79358331D01*
X150366317Y-79360308D01*
X150399362Y-79387068D01*
X150401829Y-79389175D01*
X150443090Y-79426325D01*
X150445445Y-79428561D01*
X150475517Y-79458633D01*
X150477752Y-79460987D01*
X150581421Y-79576124D01*
X151849020Y-79576124D01*
X151849020Y-79400400D01*
X153018540Y-79400400D01*
X153038326Y-79588656D01*
X153038327Y-79588659D01*
X153096818Y-79768677D01*
X153096821Y-79768684D01*
X153191467Y-79932616D01*
X153318128Y-80073287D01*
X153318129Y-80073288D01*
X153471265Y-80184548D01*
X153471270Y-80184551D01*
X153644192Y-80261542D01*
X153644197Y-80261544D01*
X153829354Y-80300900D01*
X153829355Y-80300900D01*
X154018644Y-80300900D01*
X154018646Y-80300900D01*
X154203803Y-80261544D01*
X154376730Y-80184551D01*
X154529871Y-80073288D01*
X154656533Y-79932616D01*
X154751179Y-79768684D01*
X154809674Y-79588656D01*
X154829460Y-79400400D01*
X154809674Y-79212144D01*
X154751822Y-79034096D01*
X155792061Y-79034096D01*
X155792232Y-79035016D01*
X155798881Y-79077005D01*
X155799305Y-79080223D01*
X155824894Y-79323691D01*
X155825149Y-79326927D01*
X155827375Y-79369394D01*
X155827460Y-79372640D01*
X155827460Y-79428160D01*
X155827375Y-79431406D01*
X155825149Y-79473873D01*
X155824894Y-79477109D01*
X155814488Y-79576124D01*
X156849020Y-79576124D01*
X160347020Y-79576124D01*
X161849020Y-79576124D01*
X161849020Y-79422931D01*
X165347020Y-79422931D01*
X165433748Y-79573150D01*
X165435296Y-79576002D01*
X165435358Y-79576124D01*
X166849020Y-79576124D01*
X167847020Y-79576124D01*
X169349020Y-79576124D01*
X170347020Y-79576124D01*
X171849020Y-79576124D01*
X171849020Y-79372423D01*
X171408814Y-78952227D01*
X170347020Y-78957793D01*
X170347020Y-79576124D01*
X169349020Y-79576124D01*
X169349020Y-78963025D01*
X167847020Y-78970899D01*
X167847020Y-79576124D01*
X166849020Y-79576124D01*
X166849020Y-78976131D01*
X165347020Y-78984005D01*
X165347020Y-79422931D01*
X161849020Y-79422931D01*
X161849020Y-79002343D01*
X160347020Y-79010218D01*
X160347020Y-79576124D01*
X156849020Y-79576124D01*
X156849020Y-79028556D01*
X155792061Y-79034096D01*
X154751822Y-79034096D01*
X154751179Y-79032116D01*
X154656533Y-78868184D01*
X154529871Y-78727512D01*
X154497708Y-78704144D01*
X154376734Y-78616251D01*
X154376729Y-78616248D01*
X154203807Y-78539257D01*
X154203802Y-78539255D01*
X154058001Y-78508265D01*
X154018646Y-78499900D01*
X153829354Y-78499900D01*
X153796897Y-78506798D01*
X153644197Y-78539255D01*
X153644192Y-78539257D01*
X153471270Y-78616248D01*
X153471265Y-78616251D01*
X153318129Y-78727511D01*
X153191466Y-78868185D01*
X153096821Y-79032115D01*
X153096818Y-79032122D01*
X153041966Y-79200940D01*
X153038326Y-79212144D01*
X153018540Y-79400400D01*
X151849020Y-79400400D01*
X151849020Y-79054768D01*
X150347020Y-79062642D01*
X150347020Y-79346182D01*
X146849020Y-79346182D01*
X146849020Y-79080980D01*
X145347020Y-79088855D01*
X145347020Y-79518018D01*
X144349020Y-79518018D01*
X144349020Y-79094086D01*
X142958592Y-79101375D01*
X142946905Y-79212577D01*
X142946481Y-79215795D01*
X142939832Y-79257784D01*
X142939241Y-79260974D01*
X142927699Y-79315285D01*
X142926941Y-79318443D01*
X142915931Y-79359533D01*
X142915009Y-79362647D01*
X142847020Y-79571893D01*
X142847020Y-79576124D01*
X141662556Y-79576124D01*
X141677471Y-79565288D01*
X141804133Y-79424616D01*
X141898779Y-79260684D01*
X141957274Y-79080656D01*
X141977060Y-78892400D01*
X141957274Y-78704144D01*
X141898779Y-78524116D01*
X141804133Y-78360184D01*
X141677471Y-78219512D01*
X141661758Y-78208096D01*
X141619094Y-78152767D01*
X141613115Y-78083153D01*
X141645721Y-78021358D01*
X141706560Y-77987001D01*
X141733988Y-77983781D01*
X171806619Y-77826126D01*
X171873760Y-77845459D01*
G37*
%TD.AperFunction*%
%TD*%
M02*
