%TF.GenerationSoftware,KiCad,Pcbnew,7.0.5-0*%
%TF.CreationDate,2023-07-20T08:32:01+02:00*%
%TF.ProjectId,MCU-Datalogger,4d43552d-4461-4746-916c-6f676765722e,V1.0*%
%TF.SameCoordinates,Original*%
%TF.FileFunction,Legend,Top*%
%TF.FilePolarity,Positive*%
%FSLAX46Y46*%
G04 Gerber Fmt 4.6, Leading zero omitted, Abs format (unit mm)*
G04 Created by KiCad (PCBNEW 7.0.5-0) date 2023-07-20 08:32:01*
%MOMM*%
%LPD*%
G01*
G04 APERTURE LIST*
%ADD10C,0.100000*%
%ADD11C,0.150000*%
%ADD12C,0.120000*%
%ADD13C,0.152400*%
%ADD14C,0.254000*%
%ADD15C,0.127000*%
%ADD16C,0.200000*%
G04 APERTURE END LIST*
D10*
X164617400Y-90271600D02*
X170053000Y-90271600D01*
X170053000Y-93776800D01*
X164617400Y-93776800D01*
X164617400Y-90271600D01*
D11*
X154200474Y-100846695D02*
X154467141Y-101646695D01*
X154467141Y-101646695D02*
X154733807Y-100846695D01*
X155457617Y-101570504D02*
X155419521Y-101608600D01*
X155419521Y-101608600D02*
X155305236Y-101646695D01*
X155305236Y-101646695D02*
X155229045Y-101646695D01*
X155229045Y-101646695D02*
X155114759Y-101608600D01*
X155114759Y-101608600D02*
X155038569Y-101532409D01*
X155038569Y-101532409D02*
X155000474Y-101456219D01*
X155000474Y-101456219D02*
X154962378Y-101303838D01*
X154962378Y-101303838D02*
X154962378Y-101189552D01*
X154962378Y-101189552D02*
X155000474Y-101037171D01*
X155000474Y-101037171D02*
X155038569Y-100960980D01*
X155038569Y-100960980D02*
X155114759Y-100884790D01*
X155114759Y-100884790D02*
X155229045Y-100846695D01*
X155229045Y-100846695D02*
X155305236Y-100846695D01*
X155305236Y-100846695D02*
X155419521Y-100884790D01*
X155419521Y-100884790D02*
X155457617Y-100922885D01*
X156257617Y-101570504D02*
X156219521Y-101608600D01*
X156219521Y-101608600D02*
X156105236Y-101646695D01*
X156105236Y-101646695D02*
X156029045Y-101646695D01*
X156029045Y-101646695D02*
X155914759Y-101608600D01*
X155914759Y-101608600D02*
X155838569Y-101532409D01*
X155838569Y-101532409D02*
X155800474Y-101456219D01*
X155800474Y-101456219D02*
X155762378Y-101303838D01*
X155762378Y-101303838D02*
X155762378Y-101189552D01*
X155762378Y-101189552D02*
X155800474Y-101037171D01*
X155800474Y-101037171D02*
X155838569Y-100960980D01*
X155838569Y-100960980D02*
X155914759Y-100884790D01*
X155914759Y-100884790D02*
X156029045Y-100846695D01*
X156029045Y-100846695D02*
X156105236Y-100846695D01*
X156105236Y-100846695D02*
X156219521Y-100884790D01*
X156219521Y-100884790D02*
X156257617Y-100922885D01*
X170493495Y-95481525D02*
X171293495Y-95214858D01*
X171293495Y-95214858D02*
X170493495Y-94948192D01*
X171217304Y-94224382D02*
X171255400Y-94262478D01*
X171255400Y-94262478D02*
X171293495Y-94376763D01*
X171293495Y-94376763D02*
X171293495Y-94452954D01*
X171293495Y-94452954D02*
X171255400Y-94567240D01*
X171255400Y-94567240D02*
X171179209Y-94643430D01*
X171179209Y-94643430D02*
X171103019Y-94681525D01*
X171103019Y-94681525D02*
X170950638Y-94719621D01*
X170950638Y-94719621D02*
X170836352Y-94719621D01*
X170836352Y-94719621D02*
X170683971Y-94681525D01*
X170683971Y-94681525D02*
X170607780Y-94643430D01*
X170607780Y-94643430D02*
X170531590Y-94567240D01*
X170531590Y-94567240D02*
X170493495Y-94452954D01*
X170493495Y-94452954D02*
X170493495Y-94376763D01*
X170493495Y-94376763D02*
X170531590Y-94262478D01*
X170531590Y-94262478D02*
X170569685Y-94224382D01*
X171217304Y-93424382D02*
X171255400Y-93462478D01*
X171255400Y-93462478D02*
X171293495Y-93576763D01*
X171293495Y-93576763D02*
X171293495Y-93652954D01*
X171293495Y-93652954D02*
X171255400Y-93767240D01*
X171255400Y-93767240D02*
X171179209Y-93843430D01*
X171179209Y-93843430D02*
X171103019Y-93881525D01*
X171103019Y-93881525D02*
X170950638Y-93919621D01*
X170950638Y-93919621D02*
X170836352Y-93919621D01*
X170836352Y-93919621D02*
X170683971Y-93881525D01*
X170683971Y-93881525D02*
X170607780Y-93843430D01*
X170607780Y-93843430D02*
X170531590Y-93767240D01*
X170531590Y-93767240D02*
X170493495Y-93652954D01*
X170493495Y-93652954D02*
X170493495Y-93576763D01*
X170493495Y-93576763D02*
X170531590Y-93462478D01*
X170531590Y-93462478D02*
X170569685Y-93424382D01*
X139976417Y-101062561D02*
X139976417Y-101595895D01*
X139785941Y-100757800D02*
X139595464Y-101329228D01*
X139595464Y-101329228D02*
X140090703Y-101329228D01*
X171255400Y-98097735D02*
X171293495Y-97983449D01*
X171293495Y-97983449D02*
X171293495Y-97792973D01*
X171293495Y-97792973D02*
X171255400Y-97716782D01*
X171255400Y-97716782D02*
X171217304Y-97678687D01*
X171217304Y-97678687D02*
X171141114Y-97640592D01*
X171141114Y-97640592D02*
X171064923Y-97640592D01*
X171064923Y-97640592D02*
X170988733Y-97678687D01*
X170988733Y-97678687D02*
X170950638Y-97716782D01*
X170950638Y-97716782D02*
X170912542Y-97792973D01*
X170912542Y-97792973D02*
X170874447Y-97945354D01*
X170874447Y-97945354D02*
X170836352Y-98021544D01*
X170836352Y-98021544D02*
X170798257Y-98059639D01*
X170798257Y-98059639D02*
X170722066Y-98097735D01*
X170722066Y-98097735D02*
X170645876Y-98097735D01*
X170645876Y-98097735D02*
X170569685Y-98059639D01*
X170569685Y-98059639D02*
X170531590Y-98021544D01*
X170531590Y-98021544D02*
X170493495Y-97945354D01*
X170493495Y-97945354D02*
X170493495Y-97754877D01*
X170493495Y-97754877D02*
X170531590Y-97640592D01*
X171293495Y-97297734D02*
X170493495Y-97297734D01*
X170493495Y-97297734D02*
X170493495Y-97107258D01*
X170493495Y-97107258D02*
X170531590Y-96992972D01*
X170531590Y-96992972D02*
X170607780Y-96916782D01*
X170607780Y-96916782D02*
X170683971Y-96878687D01*
X170683971Y-96878687D02*
X170836352Y-96840591D01*
X170836352Y-96840591D02*
X170950638Y-96840591D01*
X170950638Y-96840591D02*
X171103019Y-96878687D01*
X171103019Y-96878687D02*
X171179209Y-96916782D01*
X171179209Y-96916782D02*
X171255400Y-96992972D01*
X171255400Y-96992972D02*
X171293495Y-97107258D01*
X171293495Y-97107258D02*
X171293495Y-97297734D01*
X171064923Y-96535830D02*
X171064923Y-96154877D01*
X171293495Y-96612020D02*
X170493495Y-96345353D01*
X170493495Y-96345353D02*
X171293495Y-96078687D01*
X137068169Y-100846695D02*
X137563407Y-100846695D01*
X137563407Y-100846695D02*
X137296741Y-101151457D01*
X137296741Y-101151457D02*
X137411026Y-101151457D01*
X137411026Y-101151457D02*
X137487217Y-101189552D01*
X137487217Y-101189552D02*
X137525312Y-101227647D01*
X137525312Y-101227647D02*
X137563407Y-101303838D01*
X137563407Y-101303838D02*
X137563407Y-101494314D01*
X137563407Y-101494314D02*
X137525312Y-101570504D01*
X137525312Y-101570504D02*
X137487217Y-101608600D01*
X137487217Y-101608600D02*
X137411026Y-101646695D01*
X137411026Y-101646695D02*
X137182455Y-101646695D01*
X137182455Y-101646695D02*
X137106264Y-101608600D01*
X137106264Y-101608600D02*
X137068169Y-101570504D01*
D10*
X166326044Y-91092209D02*
X166326044Y-90592209D01*
X166849853Y-91044590D02*
X166826044Y-91068400D01*
X166826044Y-91068400D02*
X166754615Y-91092209D01*
X166754615Y-91092209D02*
X166706996Y-91092209D01*
X166706996Y-91092209D02*
X166635568Y-91068400D01*
X166635568Y-91068400D02*
X166587949Y-91020780D01*
X166587949Y-91020780D02*
X166564139Y-90973161D01*
X166564139Y-90973161D02*
X166540330Y-90877923D01*
X166540330Y-90877923D02*
X166540330Y-90806495D01*
X166540330Y-90806495D02*
X166564139Y-90711257D01*
X166564139Y-90711257D02*
X166587949Y-90663638D01*
X166587949Y-90663638D02*
X166635568Y-90616019D01*
X166635568Y-90616019D02*
X166706996Y-90592209D01*
X166706996Y-90592209D02*
X166754615Y-90592209D01*
X166754615Y-90592209D02*
X166826044Y-90616019D01*
X166826044Y-90616019D02*
X166849853Y-90639828D01*
X167040330Y-91068400D02*
X167111758Y-91092209D01*
X167111758Y-91092209D02*
X167230806Y-91092209D01*
X167230806Y-91092209D02*
X167278425Y-91068400D01*
X167278425Y-91068400D02*
X167302234Y-91044590D01*
X167302234Y-91044590D02*
X167326044Y-90996971D01*
X167326044Y-90996971D02*
X167326044Y-90949352D01*
X167326044Y-90949352D02*
X167302234Y-90901733D01*
X167302234Y-90901733D02*
X167278425Y-90877923D01*
X167278425Y-90877923D02*
X167230806Y-90854114D01*
X167230806Y-90854114D02*
X167135568Y-90830304D01*
X167135568Y-90830304D02*
X167087949Y-90806495D01*
X167087949Y-90806495D02*
X167064139Y-90782685D01*
X167064139Y-90782685D02*
X167040330Y-90735066D01*
X167040330Y-90735066D02*
X167040330Y-90687447D01*
X167040330Y-90687447D02*
X167064139Y-90639828D01*
X167064139Y-90639828D02*
X167087949Y-90616019D01*
X167087949Y-90616019D02*
X167135568Y-90592209D01*
X167135568Y-90592209D02*
X167254615Y-90592209D01*
X167254615Y-90592209D02*
X167326044Y-90616019D01*
X167540329Y-91092209D02*
X167540329Y-90592209D01*
X167540329Y-90592209D02*
X167730805Y-90592209D01*
X167730805Y-90592209D02*
X167778424Y-90616019D01*
X167778424Y-90616019D02*
X167802234Y-90639828D01*
X167802234Y-90639828D02*
X167826043Y-90687447D01*
X167826043Y-90687447D02*
X167826043Y-90758876D01*
X167826043Y-90758876D02*
X167802234Y-90806495D01*
X167802234Y-90806495D02*
X167778424Y-90830304D01*
X167778424Y-90830304D02*
X167730805Y-90854114D01*
X167730805Y-90854114D02*
X167540329Y-90854114D01*
X164802236Y-91897209D02*
X164802236Y-91397209D01*
X164802236Y-91397209D02*
X164968903Y-91754352D01*
X164968903Y-91754352D02*
X165135569Y-91397209D01*
X165135569Y-91397209D02*
X165135569Y-91897209D01*
X165373665Y-91897209D02*
X165373665Y-91397209D01*
X165587951Y-91873400D02*
X165659379Y-91897209D01*
X165659379Y-91897209D02*
X165778427Y-91897209D01*
X165778427Y-91897209D02*
X165826046Y-91873400D01*
X165826046Y-91873400D02*
X165849855Y-91849590D01*
X165849855Y-91849590D02*
X165873665Y-91801971D01*
X165873665Y-91801971D02*
X165873665Y-91754352D01*
X165873665Y-91754352D02*
X165849855Y-91706733D01*
X165849855Y-91706733D02*
X165826046Y-91682923D01*
X165826046Y-91682923D02*
X165778427Y-91659114D01*
X165778427Y-91659114D02*
X165683189Y-91635304D01*
X165683189Y-91635304D02*
X165635570Y-91611495D01*
X165635570Y-91611495D02*
X165611760Y-91587685D01*
X165611760Y-91587685D02*
X165587951Y-91540066D01*
X165587951Y-91540066D02*
X165587951Y-91492447D01*
X165587951Y-91492447D02*
X165611760Y-91444828D01*
X165611760Y-91444828D02*
X165635570Y-91421019D01*
X165635570Y-91421019D02*
X165683189Y-91397209D01*
X165683189Y-91397209D02*
X165802236Y-91397209D01*
X165802236Y-91397209D02*
X165873665Y-91421019D01*
X166183188Y-91397209D02*
X166278426Y-91397209D01*
X166278426Y-91397209D02*
X166326045Y-91421019D01*
X166326045Y-91421019D02*
X166373664Y-91468638D01*
X166373664Y-91468638D02*
X166397474Y-91563876D01*
X166397474Y-91563876D02*
X166397474Y-91730542D01*
X166397474Y-91730542D02*
X166373664Y-91825780D01*
X166373664Y-91825780D02*
X166326045Y-91873400D01*
X166326045Y-91873400D02*
X166278426Y-91897209D01*
X166278426Y-91897209D02*
X166183188Y-91897209D01*
X166183188Y-91897209D02*
X166135569Y-91873400D01*
X166135569Y-91873400D02*
X166087950Y-91825780D01*
X166087950Y-91825780D02*
X166064141Y-91730542D01*
X166064141Y-91730542D02*
X166064141Y-91563876D01*
X166064141Y-91563876D02*
X166087950Y-91468638D01*
X166087950Y-91468638D02*
X166135569Y-91421019D01*
X166135569Y-91421019D02*
X166183188Y-91397209D01*
X167492712Y-92063876D02*
X167492712Y-91349590D01*
X168159378Y-91397209D02*
X168326044Y-91897209D01*
X168326044Y-91897209D02*
X168492711Y-91397209D01*
X168945091Y-91849590D02*
X168921282Y-91873400D01*
X168921282Y-91873400D02*
X168849853Y-91897209D01*
X168849853Y-91897209D02*
X168802234Y-91897209D01*
X168802234Y-91897209D02*
X168730806Y-91873400D01*
X168730806Y-91873400D02*
X168683187Y-91825780D01*
X168683187Y-91825780D02*
X168659377Y-91778161D01*
X168659377Y-91778161D02*
X168635568Y-91682923D01*
X168635568Y-91682923D02*
X168635568Y-91611495D01*
X168635568Y-91611495D02*
X168659377Y-91516257D01*
X168659377Y-91516257D02*
X168683187Y-91468638D01*
X168683187Y-91468638D02*
X168730806Y-91421019D01*
X168730806Y-91421019D02*
X168802234Y-91397209D01*
X168802234Y-91397209D02*
X168849853Y-91397209D01*
X168849853Y-91397209D02*
X168921282Y-91421019D01*
X168921282Y-91421019D02*
X168945091Y-91444828D01*
X169445091Y-91849590D02*
X169421282Y-91873400D01*
X169421282Y-91873400D02*
X169349853Y-91897209D01*
X169349853Y-91897209D02*
X169302234Y-91897209D01*
X169302234Y-91897209D02*
X169230806Y-91873400D01*
X169230806Y-91873400D02*
X169183187Y-91825780D01*
X169183187Y-91825780D02*
X169159377Y-91778161D01*
X169159377Y-91778161D02*
X169135568Y-91682923D01*
X169135568Y-91682923D02*
X169135568Y-91611495D01*
X169135568Y-91611495D02*
X169159377Y-91516257D01*
X169159377Y-91516257D02*
X169183187Y-91468638D01*
X169183187Y-91468638D02*
X169230806Y-91421019D01*
X169230806Y-91421019D02*
X169302234Y-91397209D01*
X169302234Y-91397209D02*
X169349853Y-91397209D01*
X169349853Y-91397209D02*
X169421282Y-91421019D01*
X169421282Y-91421019D02*
X169445091Y-91444828D01*
X164778427Y-92678400D02*
X164849855Y-92702209D01*
X164849855Y-92702209D02*
X164968903Y-92702209D01*
X164968903Y-92702209D02*
X165016522Y-92678400D01*
X165016522Y-92678400D02*
X165040331Y-92654590D01*
X165040331Y-92654590D02*
X165064141Y-92606971D01*
X165064141Y-92606971D02*
X165064141Y-92559352D01*
X165064141Y-92559352D02*
X165040331Y-92511733D01*
X165040331Y-92511733D02*
X165016522Y-92487923D01*
X165016522Y-92487923D02*
X164968903Y-92464114D01*
X164968903Y-92464114D02*
X164873665Y-92440304D01*
X164873665Y-92440304D02*
X164826046Y-92416495D01*
X164826046Y-92416495D02*
X164802236Y-92392685D01*
X164802236Y-92392685D02*
X164778427Y-92345066D01*
X164778427Y-92345066D02*
X164778427Y-92297447D01*
X164778427Y-92297447D02*
X164802236Y-92249828D01*
X164802236Y-92249828D02*
X164826046Y-92226019D01*
X164826046Y-92226019D02*
X164873665Y-92202209D01*
X164873665Y-92202209D02*
X164992712Y-92202209D01*
X164992712Y-92202209D02*
X165064141Y-92226019D01*
X165564140Y-92654590D02*
X165540331Y-92678400D01*
X165540331Y-92678400D02*
X165468902Y-92702209D01*
X165468902Y-92702209D02*
X165421283Y-92702209D01*
X165421283Y-92702209D02*
X165349855Y-92678400D01*
X165349855Y-92678400D02*
X165302236Y-92630780D01*
X165302236Y-92630780D02*
X165278426Y-92583161D01*
X165278426Y-92583161D02*
X165254617Y-92487923D01*
X165254617Y-92487923D02*
X165254617Y-92416495D01*
X165254617Y-92416495D02*
X165278426Y-92321257D01*
X165278426Y-92321257D02*
X165302236Y-92273638D01*
X165302236Y-92273638D02*
X165349855Y-92226019D01*
X165349855Y-92226019D02*
X165421283Y-92202209D01*
X165421283Y-92202209D02*
X165468902Y-92202209D01*
X165468902Y-92202209D02*
X165540331Y-92226019D01*
X165540331Y-92226019D02*
X165564140Y-92249828D01*
X165778426Y-92702209D02*
X165778426Y-92202209D01*
X166064140Y-92702209D02*
X165849855Y-92416495D01*
X166064140Y-92202209D02*
X165778426Y-92487923D01*
X167540330Y-92868876D02*
X167540330Y-92154590D01*
X168278424Y-92702209D02*
X168278424Y-92202209D01*
X168278424Y-92202209D02*
X168445091Y-92559352D01*
X168445091Y-92559352D02*
X168611757Y-92202209D01*
X168611757Y-92202209D02*
X168611757Y-92702209D01*
X168945091Y-92202209D02*
X169040329Y-92202209D01*
X169040329Y-92202209D02*
X169087948Y-92226019D01*
X169087948Y-92226019D02*
X169135567Y-92273638D01*
X169135567Y-92273638D02*
X169159377Y-92368876D01*
X169159377Y-92368876D02*
X169159377Y-92535542D01*
X169159377Y-92535542D02*
X169135567Y-92630780D01*
X169135567Y-92630780D02*
X169087948Y-92678400D01*
X169087948Y-92678400D02*
X169040329Y-92702209D01*
X169040329Y-92702209D02*
X168945091Y-92702209D01*
X168945091Y-92702209D02*
X168897472Y-92678400D01*
X168897472Y-92678400D02*
X168849853Y-92630780D01*
X168849853Y-92630780D02*
X168826044Y-92535542D01*
X168826044Y-92535542D02*
X168826044Y-92368876D01*
X168826044Y-92368876D02*
X168849853Y-92273638D01*
X168849853Y-92273638D02*
X168897472Y-92226019D01*
X168897472Y-92226019D02*
X168945091Y-92202209D01*
X169349854Y-92678400D02*
X169421282Y-92702209D01*
X169421282Y-92702209D02*
X169540330Y-92702209D01*
X169540330Y-92702209D02*
X169587949Y-92678400D01*
X169587949Y-92678400D02*
X169611758Y-92654590D01*
X169611758Y-92654590D02*
X169635568Y-92606971D01*
X169635568Y-92606971D02*
X169635568Y-92559352D01*
X169635568Y-92559352D02*
X169611758Y-92511733D01*
X169611758Y-92511733D02*
X169587949Y-92487923D01*
X169587949Y-92487923D02*
X169540330Y-92464114D01*
X169540330Y-92464114D02*
X169445092Y-92440304D01*
X169445092Y-92440304D02*
X169397473Y-92416495D01*
X169397473Y-92416495D02*
X169373663Y-92392685D01*
X169373663Y-92392685D02*
X169349854Y-92345066D01*
X169349854Y-92345066D02*
X169349854Y-92297447D01*
X169349854Y-92297447D02*
X169373663Y-92249828D01*
X169373663Y-92249828D02*
X169397473Y-92226019D01*
X169397473Y-92226019D02*
X169445092Y-92202209D01*
X169445092Y-92202209D02*
X169564139Y-92202209D01*
X169564139Y-92202209D02*
X169635568Y-92226019D01*
X169849853Y-92702209D02*
X169849853Y-92202209D01*
X165087950Y-93507209D02*
X164921284Y-93269114D01*
X164802236Y-93507209D02*
X164802236Y-93007209D01*
X164802236Y-93007209D02*
X164992712Y-93007209D01*
X164992712Y-93007209D02*
X165040331Y-93031019D01*
X165040331Y-93031019D02*
X165064141Y-93054828D01*
X165064141Y-93054828D02*
X165087950Y-93102447D01*
X165087950Y-93102447D02*
X165087950Y-93173876D01*
X165087950Y-93173876D02*
X165064141Y-93221495D01*
X165064141Y-93221495D02*
X165040331Y-93245304D01*
X165040331Y-93245304D02*
X164992712Y-93269114D01*
X164992712Y-93269114D02*
X164802236Y-93269114D01*
X165302236Y-93245304D02*
X165468903Y-93245304D01*
X165540331Y-93507209D02*
X165302236Y-93507209D01*
X165302236Y-93507209D02*
X165302236Y-93007209D01*
X165302236Y-93007209D02*
X165540331Y-93007209D01*
X165730808Y-93483400D02*
X165802236Y-93507209D01*
X165802236Y-93507209D02*
X165921284Y-93507209D01*
X165921284Y-93507209D02*
X165968903Y-93483400D01*
X165968903Y-93483400D02*
X165992712Y-93459590D01*
X165992712Y-93459590D02*
X166016522Y-93411971D01*
X166016522Y-93411971D02*
X166016522Y-93364352D01*
X166016522Y-93364352D02*
X165992712Y-93316733D01*
X165992712Y-93316733D02*
X165968903Y-93292923D01*
X165968903Y-93292923D02*
X165921284Y-93269114D01*
X165921284Y-93269114D02*
X165826046Y-93245304D01*
X165826046Y-93245304D02*
X165778427Y-93221495D01*
X165778427Y-93221495D02*
X165754617Y-93197685D01*
X165754617Y-93197685D02*
X165730808Y-93150066D01*
X165730808Y-93150066D02*
X165730808Y-93102447D01*
X165730808Y-93102447D02*
X165754617Y-93054828D01*
X165754617Y-93054828D02*
X165778427Y-93031019D01*
X165778427Y-93031019D02*
X165826046Y-93007209D01*
X165826046Y-93007209D02*
X165945093Y-93007209D01*
X165945093Y-93007209D02*
X166016522Y-93031019D01*
X166230807Y-93245304D02*
X166397474Y-93245304D01*
X166468902Y-93507209D02*
X166230807Y-93507209D01*
X166230807Y-93507209D02*
X166230807Y-93007209D01*
X166230807Y-93007209D02*
X166468902Y-93007209D01*
X166611760Y-93007209D02*
X166897474Y-93007209D01*
X166754617Y-93507209D02*
X166754617Y-93007209D01*
X167564140Y-93673876D02*
X167564140Y-92959590D01*
X168564139Y-93031019D02*
X168516520Y-93007209D01*
X168516520Y-93007209D02*
X168445091Y-93007209D01*
X168445091Y-93007209D02*
X168373663Y-93031019D01*
X168373663Y-93031019D02*
X168326044Y-93078638D01*
X168326044Y-93078638D02*
X168302234Y-93126257D01*
X168302234Y-93126257D02*
X168278425Y-93221495D01*
X168278425Y-93221495D02*
X168278425Y-93292923D01*
X168278425Y-93292923D02*
X168302234Y-93388161D01*
X168302234Y-93388161D02*
X168326044Y-93435780D01*
X168326044Y-93435780D02*
X168373663Y-93483400D01*
X168373663Y-93483400D02*
X168445091Y-93507209D01*
X168445091Y-93507209D02*
X168492710Y-93507209D01*
X168492710Y-93507209D02*
X168564139Y-93483400D01*
X168564139Y-93483400D02*
X168587948Y-93459590D01*
X168587948Y-93459590D02*
X168587948Y-93292923D01*
X168587948Y-93292923D02*
X168492710Y-93292923D01*
X168802234Y-93507209D02*
X168802234Y-93007209D01*
X168802234Y-93007209D02*
X169087948Y-93507209D01*
X169087948Y-93507209D02*
X169087948Y-93007209D01*
X169326044Y-93507209D02*
X169326044Y-93007209D01*
X169326044Y-93007209D02*
X169445092Y-93007209D01*
X169445092Y-93007209D02*
X169516520Y-93031019D01*
X169516520Y-93031019D02*
X169564139Y-93078638D01*
X169564139Y-93078638D02*
X169587949Y-93126257D01*
X169587949Y-93126257D02*
X169611758Y-93221495D01*
X169611758Y-93221495D02*
X169611758Y-93292923D01*
X169611758Y-93292923D02*
X169587949Y-93388161D01*
X169587949Y-93388161D02*
X169564139Y-93435780D01*
X169564139Y-93435780D02*
X169516520Y-93483400D01*
X169516520Y-93483400D02*
X169445092Y-93507209D01*
X169445092Y-93507209D02*
X169326044Y-93507209D01*
D11*
X167306874Y-100643495D02*
X167764017Y-100643495D01*
X167535445Y-101443495D02*
X167535445Y-100643495D01*
X167954493Y-100643495D02*
X168487827Y-101443495D01*
X168487827Y-100643495D02*
X167954493Y-101443495D01*
X145107217Y-100795895D02*
X144954836Y-100795895D01*
X144954836Y-100795895D02*
X144878645Y-100833990D01*
X144878645Y-100833990D02*
X144840550Y-100872085D01*
X144840550Y-100872085D02*
X144764360Y-100986371D01*
X144764360Y-100986371D02*
X144726264Y-101138752D01*
X144726264Y-101138752D02*
X144726264Y-101443514D01*
X144726264Y-101443514D02*
X144764360Y-101519704D01*
X144764360Y-101519704D02*
X144802455Y-101557800D01*
X144802455Y-101557800D02*
X144878645Y-101595895D01*
X144878645Y-101595895D02*
X145031026Y-101595895D01*
X145031026Y-101595895D02*
X145107217Y-101557800D01*
X145107217Y-101557800D02*
X145145312Y-101519704D01*
X145145312Y-101519704D02*
X145183407Y-101443514D01*
X145183407Y-101443514D02*
X145183407Y-101253038D01*
X145183407Y-101253038D02*
X145145312Y-101176847D01*
X145145312Y-101176847D02*
X145107217Y-101138752D01*
X145107217Y-101138752D02*
X145031026Y-101100657D01*
X145031026Y-101100657D02*
X144878645Y-101100657D01*
X144878645Y-101100657D02*
X144802455Y-101138752D01*
X144802455Y-101138752D02*
X144764360Y-101176847D01*
X144764360Y-101176847D02*
X144726264Y-101253038D01*
X133612695Y-85981925D02*
X134412695Y-85715258D01*
X134412695Y-85715258D02*
X133612695Y-85448592D01*
X134336504Y-84724782D02*
X134374600Y-84762878D01*
X134374600Y-84762878D02*
X134412695Y-84877163D01*
X134412695Y-84877163D02*
X134412695Y-84953354D01*
X134412695Y-84953354D02*
X134374600Y-85067640D01*
X134374600Y-85067640D02*
X134298409Y-85143830D01*
X134298409Y-85143830D02*
X134222219Y-85181925D01*
X134222219Y-85181925D02*
X134069838Y-85220021D01*
X134069838Y-85220021D02*
X133955552Y-85220021D01*
X133955552Y-85220021D02*
X133803171Y-85181925D01*
X133803171Y-85181925D02*
X133726980Y-85143830D01*
X133726980Y-85143830D02*
X133650790Y-85067640D01*
X133650790Y-85067640D02*
X133612695Y-84953354D01*
X133612695Y-84953354D02*
X133612695Y-84877163D01*
X133612695Y-84877163D02*
X133650790Y-84762878D01*
X133650790Y-84762878D02*
X133688885Y-84724782D01*
X134336504Y-83924782D02*
X134374600Y-83962878D01*
X134374600Y-83962878D02*
X134412695Y-84077163D01*
X134412695Y-84077163D02*
X134412695Y-84153354D01*
X134412695Y-84153354D02*
X134374600Y-84267640D01*
X134374600Y-84267640D02*
X134298409Y-84343830D01*
X134298409Y-84343830D02*
X134222219Y-84381925D01*
X134222219Y-84381925D02*
X134069838Y-84420021D01*
X134069838Y-84420021D02*
X133955552Y-84420021D01*
X133955552Y-84420021D02*
X133803171Y-84381925D01*
X133803171Y-84381925D02*
X133726980Y-84343830D01*
X133726980Y-84343830D02*
X133650790Y-84267640D01*
X133650790Y-84267640D02*
X133612695Y-84153354D01*
X133612695Y-84153354D02*
X133612695Y-84077163D01*
X133612695Y-84077163D02*
X133650790Y-83962878D01*
X133650790Y-83962878D02*
X133688885Y-83924782D01*
X161312474Y-100643495D02*
X161579141Y-101443495D01*
X161579141Y-101443495D02*
X161845807Y-100643495D01*
X162569617Y-101367304D02*
X162531521Y-101405400D01*
X162531521Y-101405400D02*
X162417236Y-101443495D01*
X162417236Y-101443495D02*
X162341045Y-101443495D01*
X162341045Y-101443495D02*
X162226759Y-101405400D01*
X162226759Y-101405400D02*
X162150569Y-101329209D01*
X162150569Y-101329209D02*
X162112474Y-101253019D01*
X162112474Y-101253019D02*
X162074378Y-101100638D01*
X162074378Y-101100638D02*
X162074378Y-100986352D01*
X162074378Y-100986352D02*
X162112474Y-100833971D01*
X162112474Y-100833971D02*
X162150569Y-100757780D01*
X162150569Y-100757780D02*
X162226759Y-100681590D01*
X162226759Y-100681590D02*
X162341045Y-100643495D01*
X162341045Y-100643495D02*
X162417236Y-100643495D01*
X162417236Y-100643495D02*
X162531521Y-100681590D01*
X162531521Y-100681590D02*
X162569617Y-100719685D01*
X163369617Y-101367304D02*
X163331521Y-101405400D01*
X163331521Y-101405400D02*
X163217236Y-101443495D01*
X163217236Y-101443495D02*
X163141045Y-101443495D01*
X163141045Y-101443495D02*
X163026759Y-101405400D01*
X163026759Y-101405400D02*
X162950569Y-101329209D01*
X162950569Y-101329209D02*
X162912474Y-101253019D01*
X162912474Y-101253019D02*
X162874378Y-101100638D01*
X162874378Y-101100638D02*
X162874378Y-100986352D01*
X162874378Y-100986352D02*
X162912474Y-100833971D01*
X162912474Y-100833971D02*
X162950569Y-100757780D01*
X162950569Y-100757780D02*
X163026759Y-100681590D01*
X163026759Y-100681590D02*
X163141045Y-100643495D01*
X163141045Y-100643495D02*
X163217236Y-100643495D01*
X163217236Y-100643495D02*
X163331521Y-100681590D01*
X163331521Y-100681590D02*
X163369617Y-100719685D01*
X151787407Y-100783190D02*
X151711217Y-100745095D01*
X151711217Y-100745095D02*
X151596931Y-100745095D01*
X151596931Y-100745095D02*
X151482645Y-100783190D01*
X151482645Y-100783190D02*
X151406455Y-100859380D01*
X151406455Y-100859380D02*
X151368360Y-100935571D01*
X151368360Y-100935571D02*
X151330264Y-101087952D01*
X151330264Y-101087952D02*
X151330264Y-101202238D01*
X151330264Y-101202238D02*
X151368360Y-101354619D01*
X151368360Y-101354619D02*
X151406455Y-101430809D01*
X151406455Y-101430809D02*
X151482645Y-101507000D01*
X151482645Y-101507000D02*
X151596931Y-101545095D01*
X151596931Y-101545095D02*
X151673122Y-101545095D01*
X151673122Y-101545095D02*
X151787407Y-101507000D01*
X151787407Y-101507000D02*
X151825503Y-101468904D01*
X151825503Y-101468904D02*
X151825503Y-101202238D01*
X151825503Y-101202238D02*
X151673122Y-101202238D01*
X152168360Y-101545095D02*
X152168360Y-100745095D01*
X152168360Y-100745095D02*
X152625503Y-101545095D01*
X152625503Y-101545095D02*
X152625503Y-100745095D01*
X153006455Y-101545095D02*
X153006455Y-100745095D01*
X153006455Y-100745095D02*
X153196931Y-100745095D01*
X153196931Y-100745095D02*
X153311217Y-100783190D01*
X153311217Y-100783190D02*
X153387407Y-100859380D01*
X153387407Y-100859380D02*
X153425502Y-100935571D01*
X153425502Y-100935571D02*
X153463598Y-101087952D01*
X153463598Y-101087952D02*
X153463598Y-101202238D01*
X153463598Y-101202238D02*
X153425502Y-101354619D01*
X153425502Y-101354619D02*
X153387407Y-101430809D01*
X153387407Y-101430809D02*
X153311217Y-101507000D01*
X153311217Y-101507000D02*
X153196931Y-101545095D01*
X153196931Y-101545095D02*
X153006455Y-101545095D01*
X171027960Y-81123495D02*
X171027960Y-80323495D01*
X171866055Y-81047304D02*
X171827959Y-81085400D01*
X171827959Y-81085400D02*
X171713674Y-81123495D01*
X171713674Y-81123495D02*
X171637483Y-81123495D01*
X171637483Y-81123495D02*
X171523197Y-81085400D01*
X171523197Y-81085400D02*
X171447007Y-81009209D01*
X171447007Y-81009209D02*
X171408912Y-80933019D01*
X171408912Y-80933019D02*
X171370816Y-80780638D01*
X171370816Y-80780638D02*
X171370816Y-80666352D01*
X171370816Y-80666352D02*
X171408912Y-80513971D01*
X171408912Y-80513971D02*
X171447007Y-80437780D01*
X171447007Y-80437780D02*
X171523197Y-80361590D01*
X171523197Y-80361590D02*
X171637483Y-80323495D01*
X171637483Y-80323495D02*
X171713674Y-80323495D01*
X171713674Y-80323495D02*
X171827959Y-80361590D01*
X171827959Y-80361590D02*
X171866055Y-80399685D01*
X172170816Y-81085400D02*
X172285102Y-81123495D01*
X172285102Y-81123495D02*
X172475578Y-81123495D01*
X172475578Y-81123495D02*
X172551769Y-81085400D01*
X172551769Y-81085400D02*
X172589864Y-81047304D01*
X172589864Y-81047304D02*
X172627959Y-80971114D01*
X172627959Y-80971114D02*
X172627959Y-80894923D01*
X172627959Y-80894923D02*
X172589864Y-80818733D01*
X172589864Y-80818733D02*
X172551769Y-80780638D01*
X172551769Y-80780638D02*
X172475578Y-80742542D01*
X172475578Y-80742542D02*
X172323197Y-80704447D01*
X172323197Y-80704447D02*
X172247007Y-80666352D01*
X172247007Y-80666352D02*
X172208912Y-80628257D01*
X172208912Y-80628257D02*
X172170816Y-80552066D01*
X172170816Y-80552066D02*
X172170816Y-80475876D01*
X172170816Y-80475876D02*
X172208912Y-80399685D01*
X172208912Y-80399685D02*
X172247007Y-80361590D01*
X172247007Y-80361590D02*
X172323197Y-80323495D01*
X172323197Y-80323495D02*
X172513674Y-80323495D01*
X172513674Y-80323495D02*
X172627959Y-80361590D01*
X172970817Y-81123495D02*
X172970817Y-80323495D01*
X172970817Y-80323495D02*
X173275579Y-80323495D01*
X173275579Y-80323495D02*
X173351769Y-80361590D01*
X173351769Y-80361590D02*
X173389864Y-80399685D01*
X173389864Y-80399685D02*
X173427960Y-80475876D01*
X173427960Y-80475876D02*
X173427960Y-80590161D01*
X173427960Y-80590161D02*
X173389864Y-80666352D01*
X173389864Y-80666352D02*
X173351769Y-80704447D01*
X173351769Y-80704447D02*
X173275579Y-80742542D01*
X173275579Y-80742542D02*
X172970817Y-80742542D01*
X173466360Y-102561095D02*
X173466360Y-101761095D01*
X173809216Y-101837285D02*
X173847312Y-101799190D01*
X173847312Y-101799190D02*
X173923502Y-101761095D01*
X173923502Y-101761095D02*
X174113978Y-101761095D01*
X174113978Y-101761095D02*
X174190169Y-101799190D01*
X174190169Y-101799190D02*
X174228264Y-101837285D01*
X174228264Y-101837285D02*
X174266359Y-101913476D01*
X174266359Y-101913476D02*
X174266359Y-101989666D01*
X174266359Y-101989666D02*
X174228264Y-102103952D01*
X174228264Y-102103952D02*
X173771121Y-102561095D01*
X173771121Y-102561095D02*
X174266359Y-102561095D01*
X175066360Y-102484904D02*
X175028264Y-102523000D01*
X175028264Y-102523000D02*
X174913979Y-102561095D01*
X174913979Y-102561095D02*
X174837788Y-102561095D01*
X174837788Y-102561095D02*
X174723502Y-102523000D01*
X174723502Y-102523000D02*
X174647312Y-102446809D01*
X174647312Y-102446809D02*
X174609217Y-102370619D01*
X174609217Y-102370619D02*
X174571121Y-102218238D01*
X174571121Y-102218238D02*
X174571121Y-102103952D01*
X174571121Y-102103952D02*
X174609217Y-101951571D01*
X174609217Y-101951571D02*
X174647312Y-101875380D01*
X174647312Y-101875380D02*
X174723502Y-101799190D01*
X174723502Y-101799190D02*
X174837788Y-101761095D01*
X174837788Y-101761095D02*
X174913979Y-101761095D01*
X174913979Y-101761095D02*
X175028264Y-101799190D01*
X175028264Y-101799190D02*
X175066360Y-101837285D01*
X158696207Y-100732390D02*
X158620017Y-100694295D01*
X158620017Y-100694295D02*
X158505731Y-100694295D01*
X158505731Y-100694295D02*
X158391445Y-100732390D01*
X158391445Y-100732390D02*
X158315255Y-100808580D01*
X158315255Y-100808580D02*
X158277160Y-100884771D01*
X158277160Y-100884771D02*
X158239064Y-101037152D01*
X158239064Y-101037152D02*
X158239064Y-101151438D01*
X158239064Y-101151438D02*
X158277160Y-101303819D01*
X158277160Y-101303819D02*
X158315255Y-101380009D01*
X158315255Y-101380009D02*
X158391445Y-101456200D01*
X158391445Y-101456200D02*
X158505731Y-101494295D01*
X158505731Y-101494295D02*
X158581922Y-101494295D01*
X158581922Y-101494295D02*
X158696207Y-101456200D01*
X158696207Y-101456200D02*
X158734303Y-101418104D01*
X158734303Y-101418104D02*
X158734303Y-101151438D01*
X158734303Y-101151438D02*
X158581922Y-101151438D01*
X159077160Y-101494295D02*
X159077160Y-100694295D01*
X159077160Y-100694295D02*
X159534303Y-101494295D01*
X159534303Y-101494295D02*
X159534303Y-100694295D01*
X159915255Y-101494295D02*
X159915255Y-100694295D01*
X159915255Y-100694295D02*
X160105731Y-100694295D01*
X160105731Y-100694295D02*
X160220017Y-100732390D01*
X160220017Y-100732390D02*
X160296207Y-100808580D01*
X160296207Y-100808580D02*
X160334302Y-100884771D01*
X160334302Y-100884771D02*
X160372398Y-101037152D01*
X160372398Y-101037152D02*
X160372398Y-101151438D01*
X160372398Y-101151438D02*
X160334302Y-101303819D01*
X160334302Y-101303819D02*
X160296207Y-101380009D01*
X160296207Y-101380009D02*
X160220017Y-101456200D01*
X160220017Y-101456200D02*
X160105731Y-101494295D01*
X160105731Y-101494295D02*
X159915255Y-101494295D01*
X134413864Y-100872085D02*
X134451960Y-100833990D01*
X134451960Y-100833990D02*
X134528150Y-100795895D01*
X134528150Y-100795895D02*
X134718626Y-100795895D01*
X134718626Y-100795895D02*
X134794817Y-100833990D01*
X134794817Y-100833990D02*
X134832912Y-100872085D01*
X134832912Y-100872085D02*
X134871007Y-100948276D01*
X134871007Y-100948276D02*
X134871007Y-101024466D01*
X134871007Y-101024466D02*
X134832912Y-101138752D01*
X134832912Y-101138752D02*
X134375769Y-101595895D01*
X134375769Y-101595895D02*
X134871007Y-101595895D01*
X147126569Y-100846695D02*
X147659903Y-100846695D01*
X147659903Y-100846695D02*
X147317045Y-101646695D01*
X142960912Y-100795895D02*
X142579960Y-100795895D01*
X142579960Y-100795895D02*
X142541864Y-101176847D01*
X142541864Y-101176847D02*
X142579960Y-101138752D01*
X142579960Y-101138752D02*
X142656150Y-101100657D01*
X142656150Y-101100657D02*
X142846626Y-101100657D01*
X142846626Y-101100657D02*
X142922817Y-101138752D01*
X142922817Y-101138752D02*
X142960912Y-101176847D01*
X142960912Y-101176847D02*
X142999007Y-101253038D01*
X142999007Y-101253038D02*
X142999007Y-101443514D01*
X142999007Y-101443514D02*
X142960912Y-101519704D01*
X142960912Y-101519704D02*
X142922817Y-101557800D01*
X142922817Y-101557800D02*
X142846626Y-101595895D01*
X142846626Y-101595895D02*
X142656150Y-101595895D01*
X142656150Y-101595895D02*
X142579960Y-101557800D01*
X142579960Y-101557800D02*
X142541864Y-101519704D01*
X171306200Y-100942535D02*
X171344295Y-100828249D01*
X171344295Y-100828249D02*
X171344295Y-100637773D01*
X171344295Y-100637773D02*
X171306200Y-100561582D01*
X171306200Y-100561582D02*
X171268104Y-100523487D01*
X171268104Y-100523487D02*
X171191914Y-100485392D01*
X171191914Y-100485392D02*
X171115723Y-100485392D01*
X171115723Y-100485392D02*
X171039533Y-100523487D01*
X171039533Y-100523487D02*
X171001438Y-100561582D01*
X171001438Y-100561582D02*
X170963342Y-100637773D01*
X170963342Y-100637773D02*
X170925247Y-100790154D01*
X170925247Y-100790154D02*
X170887152Y-100866344D01*
X170887152Y-100866344D02*
X170849057Y-100904439D01*
X170849057Y-100904439D02*
X170772866Y-100942535D01*
X170772866Y-100942535D02*
X170696676Y-100942535D01*
X170696676Y-100942535D02*
X170620485Y-100904439D01*
X170620485Y-100904439D02*
X170582390Y-100866344D01*
X170582390Y-100866344D02*
X170544295Y-100790154D01*
X170544295Y-100790154D02*
X170544295Y-100599677D01*
X170544295Y-100599677D02*
X170582390Y-100485392D01*
X171268104Y-99685391D02*
X171306200Y-99723487D01*
X171306200Y-99723487D02*
X171344295Y-99837772D01*
X171344295Y-99837772D02*
X171344295Y-99913963D01*
X171344295Y-99913963D02*
X171306200Y-100028249D01*
X171306200Y-100028249D02*
X171230009Y-100104439D01*
X171230009Y-100104439D02*
X171153819Y-100142534D01*
X171153819Y-100142534D02*
X171001438Y-100180630D01*
X171001438Y-100180630D02*
X170887152Y-100180630D01*
X170887152Y-100180630D02*
X170734771Y-100142534D01*
X170734771Y-100142534D02*
X170658580Y-100104439D01*
X170658580Y-100104439D02*
X170582390Y-100028249D01*
X170582390Y-100028249D02*
X170544295Y-99913963D01*
X170544295Y-99913963D02*
X170544295Y-99837772D01*
X170544295Y-99837772D02*
X170582390Y-99723487D01*
X170582390Y-99723487D02*
X170620485Y-99685391D01*
X171344295Y-99342534D02*
X170544295Y-99342534D01*
X171344295Y-98885391D02*
X170887152Y-99228249D01*
X170544295Y-98885391D02*
X171001438Y-99342534D01*
X170531590Y-92204992D02*
X170493495Y-92281182D01*
X170493495Y-92281182D02*
X170493495Y-92395468D01*
X170493495Y-92395468D02*
X170531590Y-92509754D01*
X170531590Y-92509754D02*
X170607780Y-92585944D01*
X170607780Y-92585944D02*
X170683971Y-92624039D01*
X170683971Y-92624039D02*
X170836352Y-92662135D01*
X170836352Y-92662135D02*
X170950638Y-92662135D01*
X170950638Y-92662135D02*
X171103019Y-92624039D01*
X171103019Y-92624039D02*
X171179209Y-92585944D01*
X171179209Y-92585944D02*
X171255400Y-92509754D01*
X171255400Y-92509754D02*
X171293495Y-92395468D01*
X171293495Y-92395468D02*
X171293495Y-92319277D01*
X171293495Y-92319277D02*
X171255400Y-92204992D01*
X171255400Y-92204992D02*
X171217304Y-92166896D01*
X171217304Y-92166896D02*
X170950638Y-92166896D01*
X170950638Y-92166896D02*
X170950638Y-92319277D01*
X171293495Y-91824039D02*
X170493495Y-91824039D01*
X170493495Y-91824039D02*
X171293495Y-91366896D01*
X171293495Y-91366896D02*
X170493495Y-91366896D01*
X171293495Y-90985944D02*
X170493495Y-90985944D01*
X170493495Y-90985944D02*
X170493495Y-90795468D01*
X170493495Y-90795468D02*
X170531590Y-90681182D01*
X170531590Y-90681182D02*
X170607780Y-90604992D01*
X170607780Y-90604992D02*
X170683971Y-90566897D01*
X170683971Y-90566897D02*
X170836352Y-90528801D01*
X170836352Y-90528801D02*
X170950638Y-90528801D01*
X170950638Y-90528801D02*
X171103019Y-90566897D01*
X171103019Y-90566897D02*
X171179209Y-90604992D01*
X171179209Y-90604992D02*
X171255400Y-90681182D01*
X171255400Y-90681182D02*
X171293495Y-90795468D01*
X171293495Y-90795468D02*
X171293495Y-90985944D01*
X149755445Y-101189552D02*
X149679255Y-101151457D01*
X149679255Y-101151457D02*
X149641160Y-101113361D01*
X149641160Y-101113361D02*
X149603064Y-101037171D01*
X149603064Y-101037171D02*
X149603064Y-100999076D01*
X149603064Y-100999076D02*
X149641160Y-100922885D01*
X149641160Y-100922885D02*
X149679255Y-100884790D01*
X149679255Y-100884790D02*
X149755445Y-100846695D01*
X149755445Y-100846695D02*
X149907826Y-100846695D01*
X149907826Y-100846695D02*
X149984017Y-100884790D01*
X149984017Y-100884790D02*
X150022112Y-100922885D01*
X150022112Y-100922885D02*
X150060207Y-100999076D01*
X150060207Y-100999076D02*
X150060207Y-101037171D01*
X150060207Y-101037171D02*
X150022112Y-101113361D01*
X150022112Y-101113361D02*
X149984017Y-101151457D01*
X149984017Y-101151457D02*
X149907826Y-101189552D01*
X149907826Y-101189552D02*
X149755445Y-101189552D01*
X149755445Y-101189552D02*
X149679255Y-101227647D01*
X149679255Y-101227647D02*
X149641160Y-101265742D01*
X149641160Y-101265742D02*
X149603064Y-101341933D01*
X149603064Y-101341933D02*
X149603064Y-101494314D01*
X149603064Y-101494314D02*
X149641160Y-101570504D01*
X149641160Y-101570504D02*
X149679255Y-101608600D01*
X149679255Y-101608600D02*
X149755445Y-101646695D01*
X149755445Y-101646695D02*
X149907826Y-101646695D01*
X149907826Y-101646695D02*
X149984017Y-101608600D01*
X149984017Y-101608600D02*
X150022112Y-101570504D01*
X150022112Y-101570504D02*
X150060207Y-101494314D01*
X150060207Y-101494314D02*
X150060207Y-101341933D01*
X150060207Y-101341933D02*
X150022112Y-101265742D01*
X150022112Y-101265742D02*
X149984017Y-101227647D01*
X149984017Y-101227647D02*
X149907826Y-101189552D01*
X170391800Y-105260535D02*
X170429895Y-105146249D01*
X170429895Y-105146249D02*
X170429895Y-104955773D01*
X170429895Y-104955773D02*
X170391800Y-104879582D01*
X170391800Y-104879582D02*
X170353704Y-104841487D01*
X170353704Y-104841487D02*
X170277514Y-104803392D01*
X170277514Y-104803392D02*
X170201323Y-104803392D01*
X170201323Y-104803392D02*
X170125133Y-104841487D01*
X170125133Y-104841487D02*
X170087038Y-104879582D01*
X170087038Y-104879582D02*
X170048942Y-104955773D01*
X170048942Y-104955773D02*
X170010847Y-105108154D01*
X170010847Y-105108154D02*
X169972752Y-105184344D01*
X169972752Y-105184344D02*
X169934657Y-105222439D01*
X169934657Y-105222439D02*
X169858466Y-105260535D01*
X169858466Y-105260535D02*
X169782276Y-105260535D01*
X169782276Y-105260535D02*
X169706085Y-105222439D01*
X169706085Y-105222439D02*
X169667990Y-105184344D01*
X169667990Y-105184344D02*
X169629895Y-105108154D01*
X169629895Y-105108154D02*
X169629895Y-104917677D01*
X169629895Y-104917677D02*
X169667990Y-104803392D01*
X170010847Y-104460534D02*
X170010847Y-104193868D01*
X170429895Y-104079582D02*
X170429895Y-104460534D01*
X170429895Y-104460534D02*
X169629895Y-104460534D01*
X169629895Y-104460534D02*
X169629895Y-104079582D01*
X170429895Y-103279581D02*
X170048942Y-103546248D01*
X170429895Y-103736724D02*
X169629895Y-103736724D01*
X169629895Y-103736724D02*
X169629895Y-103431962D01*
X169629895Y-103431962D02*
X169667990Y-103355772D01*
X169667990Y-103355772D02*
X169706085Y-103317677D01*
X169706085Y-103317677D02*
X169782276Y-103279581D01*
X169782276Y-103279581D02*
X169896561Y-103279581D01*
X169896561Y-103279581D02*
X169972752Y-103317677D01*
X169972752Y-103317677D02*
X170010847Y-103355772D01*
X170010847Y-103355772D02*
X170048942Y-103431962D01*
X170048942Y-103431962D02*
X170048942Y-103736724D01*
X170429895Y-102936724D02*
X169629895Y-102936724D01*
X170201323Y-102593868D02*
X170201323Y-102212915D01*
X170429895Y-102670058D02*
X169629895Y-102403391D01*
X169629895Y-102403391D02*
X170429895Y-102136725D01*
X170429895Y-101489106D02*
X170429895Y-101870058D01*
X170429895Y-101870058D02*
X169629895Y-101870058D01*
X133650790Y-88496592D02*
X133612695Y-88572782D01*
X133612695Y-88572782D02*
X133612695Y-88687068D01*
X133612695Y-88687068D02*
X133650790Y-88801354D01*
X133650790Y-88801354D02*
X133726980Y-88877544D01*
X133726980Y-88877544D02*
X133803171Y-88915639D01*
X133803171Y-88915639D02*
X133955552Y-88953735D01*
X133955552Y-88953735D02*
X134069838Y-88953735D01*
X134069838Y-88953735D02*
X134222219Y-88915639D01*
X134222219Y-88915639D02*
X134298409Y-88877544D01*
X134298409Y-88877544D02*
X134374600Y-88801354D01*
X134374600Y-88801354D02*
X134412695Y-88687068D01*
X134412695Y-88687068D02*
X134412695Y-88610877D01*
X134412695Y-88610877D02*
X134374600Y-88496592D01*
X134374600Y-88496592D02*
X134336504Y-88458496D01*
X134336504Y-88458496D02*
X134069838Y-88458496D01*
X134069838Y-88458496D02*
X134069838Y-88610877D01*
X134412695Y-88115639D02*
X133612695Y-88115639D01*
X133612695Y-88115639D02*
X134412695Y-87658496D01*
X134412695Y-87658496D02*
X133612695Y-87658496D01*
X134412695Y-87277544D02*
X133612695Y-87277544D01*
X133612695Y-87277544D02*
X133612695Y-87087068D01*
X133612695Y-87087068D02*
X133650790Y-86972782D01*
X133650790Y-86972782D02*
X133726980Y-86896592D01*
X133726980Y-86896592D02*
X133803171Y-86858497D01*
X133803171Y-86858497D02*
X133955552Y-86820401D01*
X133955552Y-86820401D02*
X134069838Y-86820401D01*
X134069838Y-86820401D02*
X134222219Y-86858497D01*
X134222219Y-86858497D02*
X134298409Y-86896592D01*
X134298409Y-86896592D02*
X134374600Y-86972782D01*
X134374600Y-86972782D02*
X134412695Y-87087068D01*
X134412695Y-87087068D02*
X134412695Y-87277544D01*
X165185903Y-101392695D02*
X164919236Y-101011742D01*
X164728760Y-101392695D02*
X164728760Y-100592695D01*
X164728760Y-100592695D02*
X165033522Y-100592695D01*
X165033522Y-100592695D02*
X165109712Y-100630790D01*
X165109712Y-100630790D02*
X165147807Y-100668885D01*
X165147807Y-100668885D02*
X165185903Y-100745076D01*
X165185903Y-100745076D02*
X165185903Y-100859361D01*
X165185903Y-100859361D02*
X165147807Y-100935552D01*
X165147807Y-100935552D02*
X165109712Y-100973647D01*
X165109712Y-100973647D02*
X165033522Y-101011742D01*
X165033522Y-101011742D02*
X164728760Y-101011742D01*
X165452569Y-100592695D02*
X165985903Y-101392695D01*
X165985903Y-100592695D02*
X165452569Y-101392695D01*
X156866390Y-104752592D02*
X156828295Y-104828782D01*
X156828295Y-104828782D02*
X156828295Y-104943068D01*
X156828295Y-104943068D02*
X156866390Y-105057354D01*
X156866390Y-105057354D02*
X156942580Y-105133544D01*
X156942580Y-105133544D02*
X157018771Y-105171639D01*
X157018771Y-105171639D02*
X157171152Y-105209735D01*
X157171152Y-105209735D02*
X157285438Y-105209735D01*
X157285438Y-105209735D02*
X157437819Y-105171639D01*
X157437819Y-105171639D02*
X157514009Y-105133544D01*
X157514009Y-105133544D02*
X157590200Y-105057354D01*
X157590200Y-105057354D02*
X157628295Y-104943068D01*
X157628295Y-104943068D02*
X157628295Y-104866877D01*
X157628295Y-104866877D02*
X157590200Y-104752592D01*
X157590200Y-104752592D02*
X157552104Y-104714496D01*
X157552104Y-104714496D02*
X157285438Y-104714496D01*
X157285438Y-104714496D02*
X157285438Y-104866877D01*
X157628295Y-104371639D02*
X156828295Y-104371639D01*
X156828295Y-104371639D02*
X156828295Y-104066877D01*
X156828295Y-104066877D02*
X156866390Y-103990687D01*
X156866390Y-103990687D02*
X156904485Y-103952592D01*
X156904485Y-103952592D02*
X156980676Y-103914496D01*
X156980676Y-103914496D02*
X157094961Y-103914496D01*
X157094961Y-103914496D02*
X157171152Y-103952592D01*
X157171152Y-103952592D02*
X157209247Y-103990687D01*
X157209247Y-103990687D02*
X157247342Y-104066877D01*
X157247342Y-104066877D02*
X157247342Y-104371639D01*
X157628295Y-103571639D02*
X156828295Y-103571639D01*
X156828295Y-103038306D02*
X156828295Y-102885925D01*
X156828295Y-102885925D02*
X156866390Y-102809735D01*
X156866390Y-102809735D02*
X156942580Y-102733544D01*
X156942580Y-102733544D02*
X157094961Y-102695449D01*
X157094961Y-102695449D02*
X157361628Y-102695449D01*
X157361628Y-102695449D02*
X157514009Y-102733544D01*
X157514009Y-102733544D02*
X157590200Y-102809735D01*
X157590200Y-102809735D02*
X157628295Y-102885925D01*
X157628295Y-102885925D02*
X157628295Y-103038306D01*
X157628295Y-103038306D02*
X157590200Y-103114497D01*
X157590200Y-103114497D02*
X157514009Y-103190687D01*
X157514009Y-103190687D02*
X157361628Y-103228783D01*
X157361628Y-103228783D02*
X157094961Y-103228783D01*
X157094961Y-103228783D02*
X156942580Y-103190687D01*
X156942580Y-103190687D02*
X156866390Y-103114497D01*
X156866390Y-103114497D02*
X156828295Y-103038306D01*
D10*
%TO.C,R3*%
X160309733Y-92266633D02*
X160076400Y-91933300D01*
X159909733Y-92266633D02*
X159909733Y-91566633D01*
X159909733Y-91566633D02*
X160176400Y-91566633D01*
X160176400Y-91566633D02*
X160243067Y-91599966D01*
X160243067Y-91599966D02*
X160276400Y-91633300D01*
X160276400Y-91633300D02*
X160309733Y-91699966D01*
X160309733Y-91699966D02*
X160309733Y-91799966D01*
X160309733Y-91799966D02*
X160276400Y-91866633D01*
X160276400Y-91866633D02*
X160243067Y-91899966D01*
X160243067Y-91899966D02*
X160176400Y-91933300D01*
X160176400Y-91933300D02*
X159909733Y-91933300D01*
X160543067Y-91566633D02*
X160976400Y-91566633D01*
X160976400Y-91566633D02*
X160743067Y-91833300D01*
X160743067Y-91833300D02*
X160843067Y-91833300D01*
X160843067Y-91833300D02*
X160909733Y-91866633D01*
X160909733Y-91866633D02*
X160943067Y-91899966D01*
X160943067Y-91899966D02*
X160976400Y-91966633D01*
X160976400Y-91966633D02*
X160976400Y-92133300D01*
X160976400Y-92133300D02*
X160943067Y-92199966D01*
X160943067Y-92199966D02*
X160909733Y-92233300D01*
X160909733Y-92233300D02*
X160843067Y-92266633D01*
X160843067Y-92266633D02*
X160643067Y-92266633D01*
X160643067Y-92266633D02*
X160576400Y-92233300D01*
X160576400Y-92233300D02*
X160543067Y-92199966D01*
X162121943Y-91830361D02*
X162121943Y-92363695D01*
X161931467Y-91525600D02*
X161740990Y-92097028D01*
X161740990Y-92097028D02*
X162236229Y-92097028D01*
X162540991Y-92287504D02*
X162579086Y-92325600D01*
X162579086Y-92325600D02*
X162540991Y-92363695D01*
X162540991Y-92363695D02*
X162502895Y-92325600D01*
X162502895Y-92325600D02*
X162540991Y-92287504D01*
X162540991Y-92287504D02*
X162540991Y-92363695D01*
X162845752Y-91563695D02*
X163379086Y-91563695D01*
X163379086Y-91563695D02*
X163036228Y-92363695D01*
X163683848Y-92363695D02*
X163683848Y-91563695D01*
X163760038Y-92058933D02*
X163988610Y-92363695D01*
X163988610Y-91830361D02*
X163683848Y-92135123D01*
%TO.C,BT1*%
X130575256Y-82445047D02*
X130689542Y-82483142D01*
X130689542Y-82483142D02*
X130727637Y-82521238D01*
X130727637Y-82521238D02*
X130765733Y-82597428D01*
X130765733Y-82597428D02*
X130765733Y-82711714D01*
X130765733Y-82711714D02*
X130727637Y-82787904D01*
X130727637Y-82787904D02*
X130689542Y-82826000D01*
X130689542Y-82826000D02*
X130613352Y-82864095D01*
X130613352Y-82864095D02*
X130308590Y-82864095D01*
X130308590Y-82864095D02*
X130308590Y-82064095D01*
X130308590Y-82064095D02*
X130575256Y-82064095D01*
X130575256Y-82064095D02*
X130651447Y-82102190D01*
X130651447Y-82102190D02*
X130689542Y-82140285D01*
X130689542Y-82140285D02*
X130727637Y-82216476D01*
X130727637Y-82216476D02*
X130727637Y-82292666D01*
X130727637Y-82292666D02*
X130689542Y-82368857D01*
X130689542Y-82368857D02*
X130651447Y-82406952D01*
X130651447Y-82406952D02*
X130575256Y-82445047D01*
X130575256Y-82445047D02*
X130308590Y-82445047D01*
X131451447Y-82864095D02*
X131451447Y-82445047D01*
X131451447Y-82445047D02*
X131413352Y-82368857D01*
X131413352Y-82368857D02*
X131337161Y-82330761D01*
X131337161Y-82330761D02*
X131184780Y-82330761D01*
X131184780Y-82330761D02*
X131108590Y-82368857D01*
X131451447Y-82826000D02*
X131375256Y-82864095D01*
X131375256Y-82864095D02*
X131184780Y-82864095D01*
X131184780Y-82864095D02*
X131108590Y-82826000D01*
X131108590Y-82826000D02*
X131070494Y-82749809D01*
X131070494Y-82749809D02*
X131070494Y-82673619D01*
X131070494Y-82673619D02*
X131108590Y-82597428D01*
X131108590Y-82597428D02*
X131184780Y-82559333D01*
X131184780Y-82559333D02*
X131375256Y-82559333D01*
X131375256Y-82559333D02*
X131451447Y-82521238D01*
X131718114Y-82330761D02*
X132022876Y-82330761D01*
X131832400Y-82064095D02*
X131832400Y-82749809D01*
X131832400Y-82749809D02*
X131870495Y-82826000D01*
X131870495Y-82826000D02*
X131946685Y-82864095D01*
X131946685Y-82864095D02*
X132022876Y-82864095D01*
X132175257Y-82330761D02*
X132480019Y-82330761D01*
X132289543Y-82064095D02*
X132289543Y-82749809D01*
X132289543Y-82749809D02*
X132327638Y-82826000D01*
X132327638Y-82826000D02*
X132403828Y-82864095D01*
X132403828Y-82864095D02*
X132480019Y-82864095D01*
X133051448Y-82826000D02*
X132975257Y-82864095D01*
X132975257Y-82864095D02*
X132822876Y-82864095D01*
X132822876Y-82864095D02*
X132746686Y-82826000D01*
X132746686Y-82826000D02*
X132708590Y-82749809D01*
X132708590Y-82749809D02*
X132708590Y-82445047D01*
X132708590Y-82445047D02*
X132746686Y-82368857D01*
X132746686Y-82368857D02*
X132822876Y-82330761D01*
X132822876Y-82330761D02*
X132975257Y-82330761D01*
X132975257Y-82330761D02*
X133051448Y-82368857D01*
X133051448Y-82368857D02*
X133089543Y-82445047D01*
X133089543Y-82445047D02*
X133089543Y-82521238D01*
X133089543Y-82521238D02*
X132708590Y-82597428D01*
X133432400Y-82864095D02*
X133432400Y-82330761D01*
X133432400Y-82483142D02*
X133470495Y-82406952D01*
X133470495Y-82406952D02*
X133508590Y-82368857D01*
X133508590Y-82368857D02*
X133584781Y-82330761D01*
X133584781Y-82330761D02*
X133660971Y-82330761D01*
X133851447Y-82330761D02*
X134041923Y-82864095D01*
X134232400Y-82330761D02*
X134041923Y-82864095D01*
X134041923Y-82864095D02*
X133965733Y-83054571D01*
X133965733Y-83054571D02*
X133927638Y-83092666D01*
X133927638Y-83092666D02*
X133851447Y-83130761D01*
%TO.C,R6*%
X164678533Y-88355033D02*
X164445200Y-88021700D01*
X164278533Y-88355033D02*
X164278533Y-87655033D01*
X164278533Y-87655033D02*
X164545200Y-87655033D01*
X164545200Y-87655033D02*
X164611867Y-87688366D01*
X164611867Y-87688366D02*
X164645200Y-87721700D01*
X164645200Y-87721700D02*
X164678533Y-87788366D01*
X164678533Y-87788366D02*
X164678533Y-87888366D01*
X164678533Y-87888366D02*
X164645200Y-87955033D01*
X164645200Y-87955033D02*
X164611867Y-87988366D01*
X164611867Y-87988366D02*
X164545200Y-88021700D01*
X164545200Y-88021700D02*
X164278533Y-88021700D01*
X165278533Y-87655033D02*
X165145200Y-87655033D01*
X165145200Y-87655033D02*
X165078533Y-87688366D01*
X165078533Y-87688366D02*
X165045200Y-87721700D01*
X165045200Y-87721700D02*
X164978533Y-87821700D01*
X164978533Y-87821700D02*
X164945200Y-87955033D01*
X164945200Y-87955033D02*
X164945200Y-88221700D01*
X164945200Y-88221700D02*
X164978533Y-88288366D01*
X164978533Y-88288366D02*
X165011867Y-88321700D01*
X165011867Y-88321700D02*
X165078533Y-88355033D01*
X165078533Y-88355033D02*
X165211867Y-88355033D01*
X165211867Y-88355033D02*
X165278533Y-88321700D01*
X165278533Y-88321700D02*
X165311867Y-88288366D01*
X165311867Y-88288366D02*
X165345200Y-88221700D01*
X165345200Y-88221700D02*
X165345200Y-88055033D01*
X165345200Y-88055033D02*
X165311867Y-87988366D01*
X165311867Y-87988366D02*
X165278533Y-87955033D01*
X165278533Y-87955033D02*
X165211867Y-87921700D01*
X165211867Y-87921700D02*
X165078533Y-87921700D01*
X165078533Y-87921700D02*
X165011867Y-87955033D01*
X165011867Y-87955033D02*
X164978533Y-87988366D01*
X164978533Y-87988366D02*
X164945200Y-88055033D01*
X166579618Y-88401295D02*
X166122475Y-88401295D01*
X166351047Y-88401295D02*
X166351047Y-87601295D01*
X166351047Y-87601295D02*
X166274856Y-87715580D01*
X166274856Y-87715580D02*
X166198666Y-87791771D01*
X166198666Y-87791771D02*
X166122475Y-87829866D01*
X167074857Y-87601295D02*
X167151047Y-87601295D01*
X167151047Y-87601295D02*
X167227238Y-87639390D01*
X167227238Y-87639390D02*
X167265333Y-87677485D01*
X167265333Y-87677485D02*
X167303428Y-87753676D01*
X167303428Y-87753676D02*
X167341523Y-87906057D01*
X167341523Y-87906057D02*
X167341523Y-88096533D01*
X167341523Y-88096533D02*
X167303428Y-88248914D01*
X167303428Y-88248914D02*
X167265333Y-88325104D01*
X167265333Y-88325104D02*
X167227238Y-88363200D01*
X167227238Y-88363200D02*
X167151047Y-88401295D01*
X167151047Y-88401295D02*
X167074857Y-88401295D01*
X167074857Y-88401295D02*
X166998666Y-88363200D01*
X166998666Y-88363200D02*
X166960571Y-88325104D01*
X166960571Y-88325104D02*
X166922476Y-88248914D01*
X166922476Y-88248914D02*
X166884380Y-88096533D01*
X166884380Y-88096533D02*
X166884380Y-87906057D01*
X166884380Y-87906057D02*
X166922476Y-87753676D01*
X166922476Y-87753676D02*
X166960571Y-87677485D01*
X166960571Y-87677485D02*
X166998666Y-87639390D01*
X166998666Y-87639390D02*
X167074857Y-87601295D01*
X167684381Y-88401295D02*
X167684381Y-87601295D01*
X168141524Y-88401295D02*
X167798666Y-87944152D01*
X168141524Y-87601295D02*
X167684381Y-88058438D01*
%TO.C,R2*%
X141615333Y-100851833D02*
X141382000Y-100518500D01*
X141215333Y-100851833D02*
X141215333Y-100151833D01*
X141215333Y-100151833D02*
X141482000Y-100151833D01*
X141482000Y-100151833D02*
X141548667Y-100185166D01*
X141548667Y-100185166D02*
X141582000Y-100218500D01*
X141582000Y-100218500D02*
X141615333Y-100285166D01*
X141615333Y-100285166D02*
X141615333Y-100385166D01*
X141615333Y-100385166D02*
X141582000Y-100451833D01*
X141582000Y-100451833D02*
X141548667Y-100485166D01*
X141548667Y-100485166D02*
X141482000Y-100518500D01*
X141482000Y-100518500D02*
X141215333Y-100518500D01*
X141882000Y-100218500D02*
X141915333Y-100185166D01*
X141915333Y-100185166D02*
X141982000Y-100151833D01*
X141982000Y-100151833D02*
X142148667Y-100151833D01*
X142148667Y-100151833D02*
X142215333Y-100185166D01*
X142215333Y-100185166D02*
X142248667Y-100218500D01*
X142248667Y-100218500D02*
X142282000Y-100285166D01*
X142282000Y-100285166D02*
X142282000Y-100351833D01*
X142282000Y-100351833D02*
X142248667Y-100451833D01*
X142248667Y-100451833D02*
X141848667Y-100851833D01*
X141848667Y-100851833D02*
X142282000Y-100851833D01*
X144281295Y-99612381D02*
X144281295Y-100069524D01*
X144281295Y-99840952D02*
X143481295Y-99840952D01*
X143481295Y-99840952D02*
X143595580Y-99917143D01*
X143595580Y-99917143D02*
X143671771Y-99993333D01*
X143671771Y-99993333D02*
X143709866Y-100069524D01*
X143481295Y-99117142D02*
X143481295Y-99040952D01*
X143481295Y-99040952D02*
X143519390Y-98964761D01*
X143519390Y-98964761D02*
X143557485Y-98926666D01*
X143557485Y-98926666D02*
X143633676Y-98888571D01*
X143633676Y-98888571D02*
X143786057Y-98850476D01*
X143786057Y-98850476D02*
X143976533Y-98850476D01*
X143976533Y-98850476D02*
X144128914Y-98888571D01*
X144128914Y-98888571D02*
X144205104Y-98926666D01*
X144205104Y-98926666D02*
X144243200Y-98964761D01*
X144243200Y-98964761D02*
X144281295Y-99040952D01*
X144281295Y-99040952D02*
X144281295Y-99117142D01*
X144281295Y-99117142D02*
X144243200Y-99193333D01*
X144243200Y-99193333D02*
X144205104Y-99231428D01*
X144205104Y-99231428D02*
X144128914Y-99269523D01*
X144128914Y-99269523D02*
X143976533Y-99307619D01*
X143976533Y-99307619D02*
X143786057Y-99307619D01*
X143786057Y-99307619D02*
X143633676Y-99269523D01*
X143633676Y-99269523D02*
X143557485Y-99231428D01*
X143557485Y-99231428D02*
X143519390Y-99193333D01*
X143519390Y-99193333D02*
X143481295Y-99117142D01*
X144281295Y-98507618D02*
X143481295Y-98507618D01*
X144281295Y-98050475D02*
X143824152Y-98393333D01*
X143481295Y-98050475D02*
X143938438Y-98507618D01*
%TO.C,U2*%
X133324666Y-78307833D02*
X133324666Y-78874500D01*
X133324666Y-78874500D02*
X133358000Y-78941166D01*
X133358000Y-78941166D02*
X133391333Y-78974500D01*
X133391333Y-78974500D02*
X133458000Y-79007833D01*
X133458000Y-79007833D02*
X133591333Y-79007833D01*
X133591333Y-79007833D02*
X133658000Y-78974500D01*
X133658000Y-78974500D02*
X133691333Y-78941166D01*
X133691333Y-78941166D02*
X133724666Y-78874500D01*
X133724666Y-78874500D02*
X133724666Y-78307833D01*
X134024666Y-78374500D02*
X134057999Y-78341166D01*
X134057999Y-78341166D02*
X134124666Y-78307833D01*
X134124666Y-78307833D02*
X134291333Y-78307833D01*
X134291333Y-78307833D02*
X134357999Y-78341166D01*
X134357999Y-78341166D02*
X134391333Y-78374500D01*
X134391333Y-78374500D02*
X134424666Y-78441166D01*
X134424666Y-78441166D02*
X134424666Y-78507833D01*
X134424666Y-78507833D02*
X134391333Y-78607833D01*
X134391333Y-78607833D02*
X133991333Y-79007833D01*
X133991333Y-79007833D02*
X134424666Y-79007833D01*
X138570056Y-83816685D02*
X138608152Y-83778590D01*
X138608152Y-83778590D02*
X138684342Y-83740495D01*
X138684342Y-83740495D02*
X138874818Y-83740495D01*
X138874818Y-83740495D02*
X138951009Y-83778590D01*
X138951009Y-83778590D02*
X138989104Y-83816685D01*
X138989104Y-83816685D02*
X139027199Y-83892876D01*
X139027199Y-83892876D02*
X139027199Y-83969066D01*
X139027199Y-83969066D02*
X138989104Y-84083352D01*
X138989104Y-84083352D02*
X138531961Y-84540495D01*
X138531961Y-84540495D02*
X139027199Y-84540495D01*
X139712914Y-84007161D02*
X139712914Y-84540495D01*
X139522438Y-83702400D02*
X139331961Y-84273828D01*
X139331961Y-84273828D02*
X139827200Y-84273828D01*
X140512914Y-84540495D02*
X140131962Y-84540495D01*
X140131962Y-84540495D02*
X140131962Y-83740495D01*
X141236724Y-84464304D02*
X141198628Y-84502400D01*
X141198628Y-84502400D02*
X141084343Y-84540495D01*
X141084343Y-84540495D02*
X141008152Y-84540495D01*
X141008152Y-84540495D02*
X140893866Y-84502400D01*
X140893866Y-84502400D02*
X140817676Y-84426209D01*
X140817676Y-84426209D02*
X140779581Y-84350019D01*
X140779581Y-84350019D02*
X140741485Y-84197638D01*
X140741485Y-84197638D02*
X140741485Y-84083352D01*
X140741485Y-84083352D02*
X140779581Y-83930971D01*
X140779581Y-83930971D02*
X140817676Y-83854780D01*
X140817676Y-83854780D02*
X140893866Y-83778590D01*
X140893866Y-83778590D02*
X141008152Y-83740495D01*
X141008152Y-83740495D02*
X141084343Y-83740495D01*
X141084343Y-83740495D02*
X141198628Y-83778590D01*
X141198628Y-83778590D02*
X141236724Y-83816685D01*
X141998628Y-84540495D02*
X141541485Y-84540495D01*
X141770057Y-84540495D02*
X141770057Y-83740495D01*
X141770057Y-83740495D02*
X141693866Y-83854780D01*
X141693866Y-83854780D02*
X141617676Y-83930971D01*
X141617676Y-83930971D02*
X141541485Y-83969066D01*
X142493867Y-83740495D02*
X142570057Y-83740495D01*
X142570057Y-83740495D02*
X142646248Y-83778590D01*
X142646248Y-83778590D02*
X142684343Y-83816685D01*
X142684343Y-83816685D02*
X142722438Y-83892876D01*
X142722438Y-83892876D02*
X142760533Y-84045257D01*
X142760533Y-84045257D02*
X142760533Y-84235733D01*
X142760533Y-84235733D02*
X142722438Y-84388114D01*
X142722438Y-84388114D02*
X142684343Y-84464304D01*
X142684343Y-84464304D02*
X142646248Y-84502400D01*
X142646248Y-84502400D02*
X142570057Y-84540495D01*
X142570057Y-84540495D02*
X142493867Y-84540495D01*
X142493867Y-84540495D02*
X142417676Y-84502400D01*
X142417676Y-84502400D02*
X142379581Y-84464304D01*
X142379581Y-84464304D02*
X142341486Y-84388114D01*
X142341486Y-84388114D02*
X142303390Y-84235733D01*
X142303390Y-84235733D02*
X142303390Y-84045257D01*
X142303390Y-84045257D02*
X142341486Y-83892876D01*
X142341486Y-83892876D02*
X142379581Y-83816685D01*
X142379581Y-83816685D02*
X142417676Y-83778590D01*
X142417676Y-83778590D02*
X142493867Y-83740495D01*
X143065295Y-83816685D02*
X143103391Y-83778590D01*
X143103391Y-83778590D02*
X143179581Y-83740495D01*
X143179581Y-83740495D02*
X143370057Y-83740495D01*
X143370057Y-83740495D02*
X143446248Y-83778590D01*
X143446248Y-83778590D02*
X143484343Y-83816685D01*
X143484343Y-83816685D02*
X143522438Y-83892876D01*
X143522438Y-83892876D02*
X143522438Y-83969066D01*
X143522438Y-83969066D02*
X143484343Y-84083352D01*
X143484343Y-84083352D02*
X143027200Y-84540495D01*
X143027200Y-84540495D02*
X143522438Y-84540495D01*
X144246248Y-83740495D02*
X143865296Y-83740495D01*
X143865296Y-83740495D02*
X143827200Y-84121447D01*
X143827200Y-84121447D02*
X143865296Y-84083352D01*
X143865296Y-84083352D02*
X143941486Y-84045257D01*
X143941486Y-84045257D02*
X144131962Y-84045257D01*
X144131962Y-84045257D02*
X144208153Y-84083352D01*
X144208153Y-84083352D02*
X144246248Y-84121447D01*
X144246248Y-84121447D02*
X144284343Y-84197638D01*
X144284343Y-84197638D02*
X144284343Y-84388114D01*
X144284343Y-84388114D02*
X144246248Y-84464304D01*
X144246248Y-84464304D02*
X144208153Y-84502400D01*
X144208153Y-84502400D02*
X144131962Y-84540495D01*
X144131962Y-84540495D02*
X143941486Y-84540495D01*
X143941486Y-84540495D02*
X143865296Y-84502400D01*
X143865296Y-84502400D02*
X143827200Y-84464304D01*
%TO.C,J2*%
X157399066Y-101675833D02*
X157399066Y-102175833D01*
X157399066Y-102175833D02*
X157365733Y-102275833D01*
X157365733Y-102275833D02*
X157299066Y-102342500D01*
X157299066Y-102342500D02*
X157199066Y-102375833D01*
X157199066Y-102375833D02*
X157132400Y-102375833D01*
X157699066Y-101742500D02*
X157732399Y-101709166D01*
X157732399Y-101709166D02*
X157799066Y-101675833D01*
X157799066Y-101675833D02*
X157965733Y-101675833D01*
X157965733Y-101675833D02*
X158032399Y-101709166D01*
X158032399Y-101709166D02*
X158065733Y-101742500D01*
X158065733Y-101742500D02*
X158099066Y-101809166D01*
X158099066Y-101809166D02*
X158099066Y-101875833D01*
X158099066Y-101875833D02*
X158065733Y-101975833D01*
X158065733Y-101975833D02*
X157665733Y-102375833D01*
X157665733Y-102375833D02*
X158099066Y-102375833D01*
%TO.C,D1*%
X160163733Y-80938233D02*
X160163733Y-80238233D01*
X160163733Y-80238233D02*
X160330400Y-80238233D01*
X160330400Y-80238233D02*
X160430400Y-80271566D01*
X160430400Y-80271566D02*
X160497067Y-80338233D01*
X160497067Y-80338233D02*
X160530400Y-80404900D01*
X160530400Y-80404900D02*
X160563733Y-80538233D01*
X160563733Y-80538233D02*
X160563733Y-80638233D01*
X160563733Y-80638233D02*
X160530400Y-80771566D01*
X160530400Y-80771566D02*
X160497067Y-80838233D01*
X160497067Y-80838233D02*
X160430400Y-80904900D01*
X160430400Y-80904900D02*
X160330400Y-80938233D01*
X160330400Y-80938233D02*
X160163733Y-80938233D01*
X161230400Y-80938233D02*
X160830400Y-80938233D01*
X161030400Y-80938233D02*
X161030400Y-80238233D01*
X161030400Y-80238233D02*
X160963733Y-80338233D01*
X160963733Y-80338233D02*
X160897067Y-80404900D01*
X160897067Y-80404900D02*
X160830400Y-80438233D01*
X162147314Y-80933695D02*
X161766362Y-80933695D01*
X161766362Y-80933695D02*
X161766362Y-80133695D01*
X162413981Y-80514647D02*
X162680647Y-80514647D01*
X162794933Y-80933695D02*
X162413981Y-80933695D01*
X162413981Y-80933695D02*
X162413981Y-80133695D01*
X162413981Y-80133695D02*
X162794933Y-80133695D01*
X163137791Y-80933695D02*
X163137791Y-80133695D01*
X163137791Y-80133695D02*
X163328267Y-80133695D01*
X163328267Y-80133695D02*
X163442553Y-80171790D01*
X163442553Y-80171790D02*
X163518743Y-80247980D01*
X163518743Y-80247980D02*
X163556838Y-80324171D01*
X163556838Y-80324171D02*
X163594934Y-80476552D01*
X163594934Y-80476552D02*
X163594934Y-80590838D01*
X163594934Y-80590838D02*
X163556838Y-80743219D01*
X163556838Y-80743219D02*
X163518743Y-80819409D01*
X163518743Y-80819409D02*
X163442553Y-80895600D01*
X163442553Y-80895600D02*
X163328267Y-80933695D01*
X163328267Y-80933695D02*
X163137791Y-80933695D01*
%TO.C,C2*%
X160360533Y-95908366D02*
X160327200Y-95941700D01*
X160327200Y-95941700D02*
X160227200Y-95975033D01*
X160227200Y-95975033D02*
X160160533Y-95975033D01*
X160160533Y-95975033D02*
X160060533Y-95941700D01*
X160060533Y-95941700D02*
X159993867Y-95875033D01*
X159993867Y-95875033D02*
X159960533Y-95808366D01*
X159960533Y-95808366D02*
X159927200Y-95675033D01*
X159927200Y-95675033D02*
X159927200Y-95575033D01*
X159927200Y-95575033D02*
X159960533Y-95441700D01*
X159960533Y-95441700D02*
X159993867Y-95375033D01*
X159993867Y-95375033D02*
X160060533Y-95308366D01*
X160060533Y-95308366D02*
X160160533Y-95275033D01*
X160160533Y-95275033D02*
X160227200Y-95275033D01*
X160227200Y-95275033D02*
X160327200Y-95308366D01*
X160327200Y-95308366D02*
X160360533Y-95341700D01*
X160627200Y-95341700D02*
X160660533Y-95308366D01*
X160660533Y-95308366D02*
X160727200Y-95275033D01*
X160727200Y-95275033D02*
X160893867Y-95275033D01*
X160893867Y-95275033D02*
X160960533Y-95308366D01*
X160960533Y-95308366D02*
X160993867Y-95341700D01*
X160993867Y-95341700D02*
X161027200Y-95408366D01*
X161027200Y-95408366D02*
X161027200Y-95475033D01*
X161027200Y-95475033D02*
X160993867Y-95575033D01*
X160993867Y-95575033D02*
X160593867Y-95975033D01*
X160593867Y-95975033D02*
X161027200Y-95975033D01*
X161753713Y-95399085D02*
X161791809Y-95360990D01*
X161791809Y-95360990D02*
X161867999Y-95322895D01*
X161867999Y-95322895D02*
X162058475Y-95322895D01*
X162058475Y-95322895D02*
X162134666Y-95360990D01*
X162134666Y-95360990D02*
X162172761Y-95399085D01*
X162172761Y-95399085D02*
X162210856Y-95475276D01*
X162210856Y-95475276D02*
X162210856Y-95551466D01*
X162210856Y-95551466D02*
X162172761Y-95665752D01*
X162172761Y-95665752D02*
X161715618Y-96122895D01*
X161715618Y-96122895D02*
X162210856Y-96122895D01*
X162515618Y-95399085D02*
X162553714Y-95360990D01*
X162553714Y-95360990D02*
X162629904Y-95322895D01*
X162629904Y-95322895D02*
X162820380Y-95322895D01*
X162820380Y-95322895D02*
X162896571Y-95360990D01*
X162896571Y-95360990D02*
X162934666Y-95399085D01*
X162934666Y-95399085D02*
X162972761Y-95475276D01*
X162972761Y-95475276D02*
X162972761Y-95551466D01*
X162972761Y-95551466D02*
X162934666Y-95665752D01*
X162934666Y-95665752D02*
X162477523Y-96122895D01*
X162477523Y-96122895D02*
X162972761Y-96122895D01*
X163315619Y-95589561D02*
X163315619Y-96389561D01*
X163315619Y-95627657D02*
X163391809Y-95589561D01*
X163391809Y-95589561D02*
X163544190Y-95589561D01*
X163544190Y-95589561D02*
X163620381Y-95627657D01*
X163620381Y-95627657D02*
X163658476Y-95665752D01*
X163658476Y-95665752D02*
X163696571Y-95741942D01*
X163696571Y-95741942D02*
X163696571Y-95970514D01*
X163696571Y-95970514D02*
X163658476Y-96046704D01*
X163658476Y-96046704D02*
X163620381Y-96084800D01*
X163620381Y-96084800D02*
X163544190Y-96122895D01*
X163544190Y-96122895D02*
X163391809Y-96122895D01*
X163391809Y-96122895D02*
X163315619Y-96084800D01*
X164306095Y-95703847D02*
X164039429Y-95703847D01*
X164039429Y-96122895D02*
X164039429Y-95322895D01*
X164039429Y-95322895D02*
X164420381Y-95322895D01*
%TO.C,J1*%
X171673866Y-101828233D02*
X171673866Y-102328233D01*
X171673866Y-102328233D02*
X171640533Y-102428233D01*
X171640533Y-102428233D02*
X171573866Y-102494900D01*
X171573866Y-102494900D02*
X171473866Y-102528233D01*
X171473866Y-102528233D02*
X171407200Y-102528233D01*
X172373866Y-102528233D02*
X171973866Y-102528233D01*
X172173866Y-102528233D02*
X172173866Y-101828233D01*
X172173866Y-101828233D02*
X172107199Y-101928233D01*
X172107199Y-101928233D02*
X172040533Y-101994900D01*
X172040533Y-101994900D02*
X171973866Y-102028233D01*
%TO.C,C5*%
X158684133Y-78636366D02*
X158650800Y-78669700D01*
X158650800Y-78669700D02*
X158550800Y-78703033D01*
X158550800Y-78703033D02*
X158484133Y-78703033D01*
X158484133Y-78703033D02*
X158384133Y-78669700D01*
X158384133Y-78669700D02*
X158317467Y-78603033D01*
X158317467Y-78603033D02*
X158284133Y-78536366D01*
X158284133Y-78536366D02*
X158250800Y-78403033D01*
X158250800Y-78403033D02*
X158250800Y-78303033D01*
X158250800Y-78303033D02*
X158284133Y-78169700D01*
X158284133Y-78169700D02*
X158317467Y-78103033D01*
X158317467Y-78103033D02*
X158384133Y-78036366D01*
X158384133Y-78036366D02*
X158484133Y-78003033D01*
X158484133Y-78003033D02*
X158550800Y-78003033D01*
X158550800Y-78003033D02*
X158650800Y-78036366D01*
X158650800Y-78036366D02*
X158684133Y-78069700D01*
X159317467Y-78003033D02*
X158984133Y-78003033D01*
X158984133Y-78003033D02*
X158950800Y-78336366D01*
X158950800Y-78336366D02*
X158984133Y-78303033D01*
X158984133Y-78303033D02*
X159050800Y-78269700D01*
X159050800Y-78269700D02*
X159217467Y-78269700D01*
X159217467Y-78269700D02*
X159284133Y-78303033D01*
X159284133Y-78303033D02*
X159317467Y-78336366D01*
X159317467Y-78336366D02*
X159350800Y-78403033D01*
X159350800Y-78403033D02*
X159350800Y-78569700D01*
X159350800Y-78569700D02*
X159317467Y-78636366D01*
X159317467Y-78636366D02*
X159284133Y-78669700D01*
X159284133Y-78669700D02*
X159217467Y-78703033D01*
X159217467Y-78703033D02*
X159050800Y-78703033D01*
X159050800Y-78703033D02*
X158984133Y-78669700D01*
X158984133Y-78669700D02*
X158950800Y-78636366D01*
X155225904Y-80832095D02*
X154768761Y-80832095D01*
X154997333Y-80832095D02*
X154997333Y-80032095D01*
X154997333Y-80032095D02*
X154921142Y-80146380D01*
X154921142Y-80146380D02*
X154844952Y-80222571D01*
X154844952Y-80222571D02*
X154768761Y-80260666D01*
X155721143Y-80032095D02*
X155797333Y-80032095D01*
X155797333Y-80032095D02*
X155873524Y-80070190D01*
X155873524Y-80070190D02*
X155911619Y-80108285D01*
X155911619Y-80108285D02*
X155949714Y-80184476D01*
X155949714Y-80184476D02*
X155987809Y-80336857D01*
X155987809Y-80336857D02*
X155987809Y-80527333D01*
X155987809Y-80527333D02*
X155949714Y-80679714D01*
X155949714Y-80679714D02*
X155911619Y-80755904D01*
X155911619Y-80755904D02*
X155873524Y-80794000D01*
X155873524Y-80794000D02*
X155797333Y-80832095D01*
X155797333Y-80832095D02*
X155721143Y-80832095D01*
X155721143Y-80832095D02*
X155644952Y-80794000D01*
X155644952Y-80794000D02*
X155606857Y-80755904D01*
X155606857Y-80755904D02*
X155568762Y-80679714D01*
X155568762Y-80679714D02*
X155530666Y-80527333D01*
X155530666Y-80527333D02*
X155530666Y-80336857D01*
X155530666Y-80336857D02*
X155568762Y-80184476D01*
X155568762Y-80184476D02*
X155606857Y-80108285D01*
X155606857Y-80108285D02*
X155644952Y-80070190D01*
X155644952Y-80070190D02*
X155721143Y-80032095D01*
X156483048Y-80032095D02*
X156559238Y-80032095D01*
X156559238Y-80032095D02*
X156635429Y-80070190D01*
X156635429Y-80070190D02*
X156673524Y-80108285D01*
X156673524Y-80108285D02*
X156711619Y-80184476D01*
X156711619Y-80184476D02*
X156749714Y-80336857D01*
X156749714Y-80336857D02*
X156749714Y-80527333D01*
X156749714Y-80527333D02*
X156711619Y-80679714D01*
X156711619Y-80679714D02*
X156673524Y-80755904D01*
X156673524Y-80755904D02*
X156635429Y-80794000D01*
X156635429Y-80794000D02*
X156559238Y-80832095D01*
X156559238Y-80832095D02*
X156483048Y-80832095D01*
X156483048Y-80832095D02*
X156406857Y-80794000D01*
X156406857Y-80794000D02*
X156368762Y-80755904D01*
X156368762Y-80755904D02*
X156330667Y-80679714D01*
X156330667Y-80679714D02*
X156292571Y-80527333D01*
X156292571Y-80527333D02*
X156292571Y-80336857D01*
X156292571Y-80336857D02*
X156330667Y-80184476D01*
X156330667Y-80184476D02*
X156368762Y-80108285D01*
X156368762Y-80108285D02*
X156406857Y-80070190D01*
X156406857Y-80070190D02*
X156483048Y-80032095D01*
X157092572Y-80298761D02*
X157092572Y-80832095D01*
X157092572Y-80374952D02*
X157130667Y-80336857D01*
X157130667Y-80336857D02*
X157206857Y-80298761D01*
X157206857Y-80298761D02*
X157321143Y-80298761D01*
X157321143Y-80298761D02*
X157397334Y-80336857D01*
X157397334Y-80336857D02*
X157435429Y-80413047D01*
X157435429Y-80413047D02*
X157435429Y-80832095D01*
X158083048Y-80413047D02*
X157816382Y-80413047D01*
X157816382Y-80832095D02*
X157816382Y-80032095D01*
X157816382Y-80032095D02*
X158197334Y-80032095D01*
%TO.C,J3*%
X131795866Y-101879033D02*
X131795866Y-102379033D01*
X131795866Y-102379033D02*
X131762533Y-102479033D01*
X131762533Y-102479033D02*
X131695866Y-102545700D01*
X131695866Y-102545700D02*
X131595866Y-102579033D01*
X131595866Y-102579033D02*
X131529200Y-102579033D01*
X132062533Y-101879033D02*
X132495866Y-101879033D01*
X132495866Y-101879033D02*
X132262533Y-102145700D01*
X132262533Y-102145700D02*
X132362533Y-102145700D01*
X132362533Y-102145700D02*
X132429199Y-102179033D01*
X132429199Y-102179033D02*
X132462533Y-102212366D01*
X132462533Y-102212366D02*
X132495866Y-102279033D01*
X132495866Y-102279033D02*
X132495866Y-102445700D01*
X132495866Y-102445700D02*
X132462533Y-102512366D01*
X132462533Y-102512366D02*
X132429199Y-102545700D01*
X132429199Y-102545700D02*
X132362533Y-102579033D01*
X132362533Y-102579033D02*
X132162533Y-102579033D01*
X132162533Y-102579033D02*
X132095866Y-102545700D01*
X132095866Y-102545700D02*
X132062533Y-102512366D01*
%TO.C,R1*%
X138567333Y-100851833D02*
X138334000Y-100518500D01*
X138167333Y-100851833D02*
X138167333Y-100151833D01*
X138167333Y-100151833D02*
X138434000Y-100151833D01*
X138434000Y-100151833D02*
X138500667Y-100185166D01*
X138500667Y-100185166D02*
X138534000Y-100218500D01*
X138534000Y-100218500D02*
X138567333Y-100285166D01*
X138567333Y-100285166D02*
X138567333Y-100385166D01*
X138567333Y-100385166D02*
X138534000Y-100451833D01*
X138534000Y-100451833D02*
X138500667Y-100485166D01*
X138500667Y-100485166D02*
X138434000Y-100518500D01*
X138434000Y-100518500D02*
X138167333Y-100518500D01*
X139234000Y-100851833D02*
X138834000Y-100851833D01*
X139034000Y-100851833D02*
X139034000Y-100151833D01*
X139034000Y-100151833D02*
X138967333Y-100251833D01*
X138967333Y-100251833D02*
X138900667Y-100318500D01*
X138900667Y-100318500D02*
X138834000Y-100351833D01*
X136000895Y-99561581D02*
X136000895Y-100018724D01*
X136000895Y-99790152D02*
X135200895Y-99790152D01*
X135200895Y-99790152D02*
X135315180Y-99866343D01*
X135315180Y-99866343D02*
X135391371Y-99942533D01*
X135391371Y-99942533D02*
X135429466Y-100018724D01*
X135200895Y-99066342D02*
X135200895Y-98990152D01*
X135200895Y-98990152D02*
X135238990Y-98913961D01*
X135238990Y-98913961D02*
X135277085Y-98875866D01*
X135277085Y-98875866D02*
X135353276Y-98837771D01*
X135353276Y-98837771D02*
X135505657Y-98799676D01*
X135505657Y-98799676D02*
X135696133Y-98799676D01*
X135696133Y-98799676D02*
X135848514Y-98837771D01*
X135848514Y-98837771D02*
X135924704Y-98875866D01*
X135924704Y-98875866D02*
X135962800Y-98913961D01*
X135962800Y-98913961D02*
X136000895Y-98990152D01*
X136000895Y-98990152D02*
X136000895Y-99066342D01*
X136000895Y-99066342D02*
X135962800Y-99142533D01*
X135962800Y-99142533D02*
X135924704Y-99180628D01*
X135924704Y-99180628D02*
X135848514Y-99218723D01*
X135848514Y-99218723D02*
X135696133Y-99256819D01*
X135696133Y-99256819D02*
X135505657Y-99256819D01*
X135505657Y-99256819D02*
X135353276Y-99218723D01*
X135353276Y-99218723D02*
X135277085Y-99180628D01*
X135277085Y-99180628D02*
X135238990Y-99142533D01*
X135238990Y-99142533D02*
X135200895Y-99066342D01*
X136000895Y-98456818D02*
X135200895Y-98456818D01*
X136000895Y-97999675D02*
X135543752Y-98342533D01*
X135200895Y-97999675D02*
X135658038Y-98456818D01*
%TO.C,Y1*%
X130629067Y-90764900D02*
X130629067Y-91098233D01*
X130395733Y-90398233D02*
X130629067Y-90764900D01*
X130629067Y-90764900D02*
X130862400Y-90398233D01*
X131462400Y-91098233D02*
X131062400Y-91098233D01*
X131262400Y-91098233D02*
X131262400Y-90398233D01*
X131262400Y-90398233D02*
X131195733Y-90498233D01*
X131195733Y-90498233D02*
X131129067Y-90564900D01*
X131129067Y-90564900D02*
X131062400Y-90598233D01*
X134134095Y-99440571D02*
X134134095Y-98945333D01*
X134134095Y-98945333D02*
X134438857Y-99211999D01*
X134438857Y-99211999D02*
X134438857Y-99097714D01*
X134438857Y-99097714D02*
X134476952Y-99021523D01*
X134476952Y-99021523D02*
X134515047Y-98983428D01*
X134515047Y-98983428D02*
X134591238Y-98945333D01*
X134591238Y-98945333D02*
X134781714Y-98945333D01*
X134781714Y-98945333D02*
X134857904Y-98983428D01*
X134857904Y-98983428D02*
X134896000Y-99021523D01*
X134896000Y-99021523D02*
X134934095Y-99097714D01*
X134934095Y-99097714D02*
X134934095Y-99326285D01*
X134934095Y-99326285D02*
X134896000Y-99402476D01*
X134896000Y-99402476D02*
X134857904Y-99440571D01*
X134210285Y-98640571D02*
X134172190Y-98602475D01*
X134172190Y-98602475D02*
X134134095Y-98526285D01*
X134134095Y-98526285D02*
X134134095Y-98335809D01*
X134134095Y-98335809D02*
X134172190Y-98259618D01*
X134172190Y-98259618D02*
X134210285Y-98221523D01*
X134210285Y-98221523D02*
X134286476Y-98183428D01*
X134286476Y-98183428D02*
X134362666Y-98183428D01*
X134362666Y-98183428D02*
X134476952Y-98221523D01*
X134476952Y-98221523D02*
X134934095Y-98678666D01*
X134934095Y-98678666D02*
X134934095Y-98183428D01*
X134857904Y-97840570D02*
X134896000Y-97802475D01*
X134896000Y-97802475D02*
X134934095Y-97840570D01*
X134934095Y-97840570D02*
X134896000Y-97878666D01*
X134896000Y-97878666D02*
X134857904Y-97840570D01*
X134857904Y-97840570D02*
X134934095Y-97840570D01*
X134134095Y-97535809D02*
X134134095Y-97002475D01*
X134134095Y-97002475D02*
X134934095Y-97345333D01*
X134134095Y-96354856D02*
X134134095Y-96507237D01*
X134134095Y-96507237D02*
X134172190Y-96583428D01*
X134172190Y-96583428D02*
X134210285Y-96621523D01*
X134210285Y-96621523D02*
X134324571Y-96697713D01*
X134324571Y-96697713D02*
X134476952Y-96735809D01*
X134476952Y-96735809D02*
X134781714Y-96735809D01*
X134781714Y-96735809D02*
X134857904Y-96697713D01*
X134857904Y-96697713D02*
X134896000Y-96659618D01*
X134896000Y-96659618D02*
X134934095Y-96583428D01*
X134934095Y-96583428D02*
X134934095Y-96431047D01*
X134934095Y-96431047D02*
X134896000Y-96354856D01*
X134896000Y-96354856D02*
X134857904Y-96316761D01*
X134857904Y-96316761D02*
X134781714Y-96278666D01*
X134781714Y-96278666D02*
X134591238Y-96278666D01*
X134591238Y-96278666D02*
X134515047Y-96316761D01*
X134515047Y-96316761D02*
X134476952Y-96354856D01*
X134476952Y-96354856D02*
X134438857Y-96431047D01*
X134438857Y-96431047D02*
X134438857Y-96583428D01*
X134438857Y-96583428D02*
X134476952Y-96659618D01*
X134476952Y-96659618D02*
X134515047Y-96697713D01*
X134515047Y-96697713D02*
X134591238Y-96735809D01*
X134476952Y-95821523D02*
X134438857Y-95897713D01*
X134438857Y-95897713D02*
X134400761Y-95935808D01*
X134400761Y-95935808D02*
X134324571Y-95973904D01*
X134324571Y-95973904D02*
X134286476Y-95973904D01*
X134286476Y-95973904D02*
X134210285Y-95935808D01*
X134210285Y-95935808D02*
X134172190Y-95897713D01*
X134172190Y-95897713D02*
X134134095Y-95821523D01*
X134134095Y-95821523D02*
X134134095Y-95669142D01*
X134134095Y-95669142D02*
X134172190Y-95592951D01*
X134172190Y-95592951D02*
X134210285Y-95554856D01*
X134210285Y-95554856D02*
X134286476Y-95516761D01*
X134286476Y-95516761D02*
X134324571Y-95516761D01*
X134324571Y-95516761D02*
X134400761Y-95554856D01*
X134400761Y-95554856D02*
X134438857Y-95592951D01*
X134438857Y-95592951D02*
X134476952Y-95669142D01*
X134476952Y-95669142D02*
X134476952Y-95821523D01*
X134476952Y-95821523D02*
X134515047Y-95897713D01*
X134515047Y-95897713D02*
X134553142Y-95935808D01*
X134553142Y-95935808D02*
X134629333Y-95973904D01*
X134629333Y-95973904D02*
X134781714Y-95973904D01*
X134781714Y-95973904D02*
X134857904Y-95935808D01*
X134857904Y-95935808D02*
X134896000Y-95897713D01*
X134896000Y-95897713D02*
X134934095Y-95821523D01*
X134934095Y-95821523D02*
X134934095Y-95669142D01*
X134934095Y-95669142D02*
X134896000Y-95592951D01*
X134896000Y-95592951D02*
X134857904Y-95554856D01*
X134857904Y-95554856D02*
X134781714Y-95516761D01*
X134781714Y-95516761D02*
X134629333Y-95516761D01*
X134629333Y-95516761D02*
X134553142Y-95554856D01*
X134553142Y-95554856D02*
X134515047Y-95592951D01*
X134515047Y-95592951D02*
X134476952Y-95669142D01*
X134934095Y-94564379D02*
X134134095Y-94564379D01*
X134934095Y-94107236D02*
X134476952Y-94450094D01*
X134134095Y-94107236D02*
X134591238Y-94564379D01*
X134934095Y-93764379D02*
X134134095Y-93764379D01*
X134515047Y-93764379D02*
X134515047Y-93307236D01*
X134934095Y-93307236D02*
X134134095Y-93307236D01*
X134400761Y-93002475D02*
X134400761Y-92583427D01*
X134400761Y-92583427D02*
X134934095Y-93002475D01*
X134934095Y-93002475D02*
X134934095Y-92583427D01*
%TO.C,D2*%
X164380133Y-80887433D02*
X164380133Y-80187433D01*
X164380133Y-80187433D02*
X164546800Y-80187433D01*
X164546800Y-80187433D02*
X164646800Y-80220766D01*
X164646800Y-80220766D02*
X164713467Y-80287433D01*
X164713467Y-80287433D02*
X164746800Y-80354100D01*
X164746800Y-80354100D02*
X164780133Y-80487433D01*
X164780133Y-80487433D02*
X164780133Y-80587433D01*
X164780133Y-80587433D02*
X164746800Y-80720766D01*
X164746800Y-80720766D02*
X164713467Y-80787433D01*
X164713467Y-80787433D02*
X164646800Y-80854100D01*
X164646800Y-80854100D02*
X164546800Y-80887433D01*
X164546800Y-80887433D02*
X164380133Y-80887433D01*
X165046800Y-80254100D02*
X165080133Y-80220766D01*
X165080133Y-80220766D02*
X165146800Y-80187433D01*
X165146800Y-80187433D02*
X165313467Y-80187433D01*
X165313467Y-80187433D02*
X165380133Y-80220766D01*
X165380133Y-80220766D02*
X165413467Y-80254100D01*
X165413467Y-80254100D02*
X165446800Y-80320766D01*
X165446800Y-80320766D02*
X165446800Y-80387433D01*
X165446800Y-80387433D02*
X165413467Y-80487433D01*
X165413467Y-80487433D02*
X165013467Y-80887433D01*
X165013467Y-80887433D02*
X165446800Y-80887433D01*
X166465314Y-80922295D02*
X166084362Y-80922295D01*
X166084362Y-80922295D02*
X166084362Y-80122295D01*
X166731981Y-80503247D02*
X166998647Y-80503247D01*
X167112933Y-80922295D02*
X166731981Y-80922295D01*
X166731981Y-80922295D02*
X166731981Y-80122295D01*
X166731981Y-80122295D02*
X167112933Y-80122295D01*
X167455791Y-80922295D02*
X167455791Y-80122295D01*
X167455791Y-80122295D02*
X167646267Y-80122295D01*
X167646267Y-80122295D02*
X167760553Y-80160390D01*
X167760553Y-80160390D02*
X167836743Y-80236580D01*
X167836743Y-80236580D02*
X167874838Y-80312771D01*
X167874838Y-80312771D02*
X167912934Y-80465152D01*
X167912934Y-80465152D02*
X167912934Y-80579438D01*
X167912934Y-80579438D02*
X167874838Y-80731819D01*
X167874838Y-80731819D02*
X167836743Y-80808009D01*
X167836743Y-80808009D02*
X167760553Y-80884200D01*
X167760553Y-80884200D02*
X167646267Y-80922295D01*
X167646267Y-80922295D02*
X167455791Y-80922295D01*
%TO.C,R4*%
X160360533Y-88202633D02*
X160127200Y-87869300D01*
X159960533Y-88202633D02*
X159960533Y-87502633D01*
X159960533Y-87502633D02*
X160227200Y-87502633D01*
X160227200Y-87502633D02*
X160293867Y-87535966D01*
X160293867Y-87535966D02*
X160327200Y-87569300D01*
X160327200Y-87569300D02*
X160360533Y-87635966D01*
X160360533Y-87635966D02*
X160360533Y-87735966D01*
X160360533Y-87735966D02*
X160327200Y-87802633D01*
X160327200Y-87802633D02*
X160293867Y-87835966D01*
X160293867Y-87835966D02*
X160227200Y-87869300D01*
X160227200Y-87869300D02*
X159960533Y-87869300D01*
X160960533Y-87735966D02*
X160960533Y-88202633D01*
X160793867Y-87469300D02*
X160627200Y-87969300D01*
X160627200Y-87969300D02*
X161060533Y-87969300D01*
X161918743Y-87766361D02*
X161918743Y-88299695D01*
X161728267Y-87461600D02*
X161537790Y-88033028D01*
X161537790Y-88033028D02*
X162033029Y-88033028D01*
X162337791Y-88223504D02*
X162375886Y-88261600D01*
X162375886Y-88261600D02*
X162337791Y-88299695D01*
X162337791Y-88299695D02*
X162299695Y-88261600D01*
X162299695Y-88261600D02*
X162337791Y-88223504D01*
X162337791Y-88223504D02*
X162337791Y-88299695D01*
X162642552Y-87499695D02*
X163175886Y-87499695D01*
X163175886Y-87499695D02*
X162833028Y-88299695D01*
X163480648Y-88299695D02*
X163480648Y-87499695D01*
X163556838Y-87994933D02*
X163785410Y-88299695D01*
X163785410Y-87766361D02*
X163480648Y-88071123D01*
%TO.C,U1*%
X135051866Y-83794233D02*
X135051866Y-84360900D01*
X135051866Y-84360900D02*
X135085200Y-84427566D01*
X135085200Y-84427566D02*
X135118533Y-84460900D01*
X135118533Y-84460900D02*
X135185200Y-84494233D01*
X135185200Y-84494233D02*
X135318533Y-84494233D01*
X135318533Y-84494233D02*
X135385200Y-84460900D01*
X135385200Y-84460900D02*
X135418533Y-84427566D01*
X135418533Y-84427566D02*
X135451866Y-84360900D01*
X135451866Y-84360900D02*
X135451866Y-83794233D01*
X136151866Y-84494233D02*
X135751866Y-84494233D01*
X135951866Y-84494233D02*
X135951866Y-83794233D01*
X135951866Y-83794233D02*
X135885199Y-83894233D01*
X135885199Y-83894233D02*
X135818533Y-83960900D01*
X135818533Y-83960900D02*
X135751866Y-83994233D01*
X138671656Y-90979485D02*
X138709752Y-90941390D01*
X138709752Y-90941390D02*
X138785942Y-90903295D01*
X138785942Y-90903295D02*
X138976418Y-90903295D01*
X138976418Y-90903295D02*
X139052609Y-90941390D01*
X139052609Y-90941390D02*
X139090704Y-90979485D01*
X139090704Y-90979485D02*
X139128799Y-91055676D01*
X139128799Y-91055676D02*
X139128799Y-91131866D01*
X139128799Y-91131866D02*
X139090704Y-91246152D01*
X139090704Y-91246152D02*
X138633561Y-91703295D01*
X138633561Y-91703295D02*
X139128799Y-91703295D01*
X139814514Y-91169961D02*
X139814514Y-91703295D01*
X139624038Y-90865200D02*
X139433561Y-91436628D01*
X139433561Y-91436628D02*
X139928800Y-91436628D01*
X140614514Y-91703295D02*
X140233562Y-91703295D01*
X140233562Y-91703295D02*
X140233562Y-90903295D01*
X141338324Y-91627104D02*
X141300228Y-91665200D01*
X141300228Y-91665200D02*
X141185943Y-91703295D01*
X141185943Y-91703295D02*
X141109752Y-91703295D01*
X141109752Y-91703295D02*
X140995466Y-91665200D01*
X140995466Y-91665200D02*
X140919276Y-91589009D01*
X140919276Y-91589009D02*
X140881181Y-91512819D01*
X140881181Y-91512819D02*
X140843085Y-91360438D01*
X140843085Y-91360438D02*
X140843085Y-91246152D01*
X140843085Y-91246152D02*
X140881181Y-91093771D01*
X140881181Y-91093771D02*
X140919276Y-91017580D01*
X140919276Y-91017580D02*
X140995466Y-90941390D01*
X140995466Y-90941390D02*
X141109752Y-90903295D01*
X141109752Y-90903295D02*
X141185943Y-90903295D01*
X141185943Y-90903295D02*
X141300228Y-90941390D01*
X141300228Y-90941390D02*
X141338324Y-90979485D01*
X142100228Y-91703295D02*
X141643085Y-91703295D01*
X141871657Y-91703295D02*
X141871657Y-90903295D01*
X141871657Y-90903295D02*
X141795466Y-91017580D01*
X141795466Y-91017580D02*
X141719276Y-91093771D01*
X141719276Y-91093771D02*
X141643085Y-91131866D01*
X142595467Y-90903295D02*
X142671657Y-90903295D01*
X142671657Y-90903295D02*
X142747848Y-90941390D01*
X142747848Y-90941390D02*
X142785943Y-90979485D01*
X142785943Y-90979485D02*
X142824038Y-91055676D01*
X142824038Y-91055676D02*
X142862133Y-91208057D01*
X142862133Y-91208057D02*
X142862133Y-91398533D01*
X142862133Y-91398533D02*
X142824038Y-91550914D01*
X142824038Y-91550914D02*
X142785943Y-91627104D01*
X142785943Y-91627104D02*
X142747848Y-91665200D01*
X142747848Y-91665200D02*
X142671657Y-91703295D01*
X142671657Y-91703295D02*
X142595467Y-91703295D01*
X142595467Y-91703295D02*
X142519276Y-91665200D01*
X142519276Y-91665200D02*
X142481181Y-91627104D01*
X142481181Y-91627104D02*
X142443086Y-91550914D01*
X142443086Y-91550914D02*
X142404990Y-91398533D01*
X142404990Y-91398533D02*
X142404990Y-91208057D01*
X142404990Y-91208057D02*
X142443086Y-91055676D01*
X142443086Y-91055676D02*
X142481181Y-90979485D01*
X142481181Y-90979485D02*
X142519276Y-90941390D01*
X142519276Y-90941390D02*
X142595467Y-90903295D01*
X143166895Y-90979485D02*
X143204991Y-90941390D01*
X143204991Y-90941390D02*
X143281181Y-90903295D01*
X143281181Y-90903295D02*
X143471657Y-90903295D01*
X143471657Y-90903295D02*
X143547848Y-90941390D01*
X143547848Y-90941390D02*
X143585943Y-90979485D01*
X143585943Y-90979485D02*
X143624038Y-91055676D01*
X143624038Y-91055676D02*
X143624038Y-91131866D01*
X143624038Y-91131866D02*
X143585943Y-91246152D01*
X143585943Y-91246152D02*
X143128800Y-91703295D01*
X143128800Y-91703295D02*
X143624038Y-91703295D01*
X144347848Y-90903295D02*
X143966896Y-90903295D01*
X143966896Y-90903295D02*
X143928800Y-91284247D01*
X143928800Y-91284247D02*
X143966896Y-91246152D01*
X143966896Y-91246152D02*
X144043086Y-91208057D01*
X144043086Y-91208057D02*
X144233562Y-91208057D01*
X144233562Y-91208057D02*
X144309753Y-91246152D01*
X144309753Y-91246152D02*
X144347848Y-91284247D01*
X144347848Y-91284247D02*
X144385943Y-91360438D01*
X144385943Y-91360438D02*
X144385943Y-91550914D01*
X144385943Y-91550914D02*
X144347848Y-91627104D01*
X144347848Y-91627104D02*
X144309753Y-91665200D01*
X144309753Y-91665200D02*
X144233562Y-91703295D01*
X144233562Y-91703295D02*
X144043086Y-91703295D01*
X144043086Y-91703295D02*
X143966896Y-91665200D01*
X143966896Y-91665200D02*
X143928800Y-91627104D01*
%TO.C,C1*%
X145171333Y-78687166D02*
X145138000Y-78720500D01*
X145138000Y-78720500D02*
X145038000Y-78753833D01*
X145038000Y-78753833D02*
X144971333Y-78753833D01*
X144971333Y-78753833D02*
X144871333Y-78720500D01*
X144871333Y-78720500D02*
X144804667Y-78653833D01*
X144804667Y-78653833D02*
X144771333Y-78587166D01*
X144771333Y-78587166D02*
X144738000Y-78453833D01*
X144738000Y-78453833D02*
X144738000Y-78353833D01*
X144738000Y-78353833D02*
X144771333Y-78220500D01*
X144771333Y-78220500D02*
X144804667Y-78153833D01*
X144804667Y-78153833D02*
X144871333Y-78087166D01*
X144871333Y-78087166D02*
X144971333Y-78053833D01*
X144971333Y-78053833D02*
X145038000Y-78053833D01*
X145038000Y-78053833D02*
X145138000Y-78087166D01*
X145138000Y-78087166D02*
X145171333Y-78120500D01*
X145838000Y-78753833D02*
X145438000Y-78753833D01*
X145638000Y-78753833D02*
X145638000Y-78053833D01*
X145638000Y-78053833D02*
X145571333Y-78153833D01*
X145571333Y-78153833D02*
X145504667Y-78220500D01*
X145504667Y-78220500D02*
X145438000Y-78253833D01*
X146056514Y-80032095D02*
X146132704Y-80032095D01*
X146132704Y-80032095D02*
X146208895Y-80070190D01*
X146208895Y-80070190D02*
X146246990Y-80108285D01*
X146246990Y-80108285D02*
X146285085Y-80184476D01*
X146285085Y-80184476D02*
X146323180Y-80336857D01*
X146323180Y-80336857D02*
X146323180Y-80527333D01*
X146323180Y-80527333D02*
X146285085Y-80679714D01*
X146285085Y-80679714D02*
X146246990Y-80755904D01*
X146246990Y-80755904D02*
X146208895Y-80794000D01*
X146208895Y-80794000D02*
X146132704Y-80832095D01*
X146132704Y-80832095D02*
X146056514Y-80832095D01*
X146056514Y-80832095D02*
X145980323Y-80794000D01*
X145980323Y-80794000D02*
X145942228Y-80755904D01*
X145942228Y-80755904D02*
X145904133Y-80679714D01*
X145904133Y-80679714D02*
X145866037Y-80527333D01*
X145866037Y-80527333D02*
X145866037Y-80336857D01*
X145866037Y-80336857D02*
X145904133Y-80184476D01*
X145904133Y-80184476D02*
X145942228Y-80108285D01*
X145942228Y-80108285D02*
X145980323Y-80070190D01*
X145980323Y-80070190D02*
X146056514Y-80032095D01*
X146666038Y-80755904D02*
X146704133Y-80794000D01*
X146704133Y-80794000D02*
X146666038Y-80832095D01*
X146666038Y-80832095D02*
X146627942Y-80794000D01*
X146627942Y-80794000D02*
X146666038Y-80755904D01*
X146666038Y-80755904D02*
X146666038Y-80832095D01*
X147466037Y-80832095D02*
X147008894Y-80832095D01*
X147237466Y-80832095D02*
X147237466Y-80032095D01*
X147237466Y-80032095D02*
X147161275Y-80146380D01*
X147161275Y-80146380D02*
X147085085Y-80222571D01*
X147085085Y-80222571D02*
X147008894Y-80260666D01*
X148151752Y-80298761D02*
X148151752Y-80832095D01*
X147808895Y-80298761D02*
X147808895Y-80717809D01*
X147808895Y-80717809D02*
X147846990Y-80794000D01*
X147846990Y-80794000D02*
X147923180Y-80832095D01*
X147923180Y-80832095D02*
X148037466Y-80832095D01*
X148037466Y-80832095D02*
X148113657Y-80794000D01*
X148113657Y-80794000D02*
X148151752Y-80755904D01*
X148799371Y-80413047D02*
X148532705Y-80413047D01*
X148532705Y-80832095D02*
X148532705Y-80032095D01*
X148532705Y-80032095D02*
X148913657Y-80032095D01*
%TO.C,Y2*%
X147443867Y-99197700D02*
X147443867Y-99531033D01*
X147210533Y-98831033D02*
X147443867Y-99197700D01*
X147443867Y-99197700D02*
X147677200Y-98831033D01*
X147877200Y-98897700D02*
X147910533Y-98864366D01*
X147910533Y-98864366D02*
X147977200Y-98831033D01*
X147977200Y-98831033D02*
X148143867Y-98831033D01*
X148143867Y-98831033D02*
X148210533Y-98864366D01*
X148210533Y-98864366D02*
X148243867Y-98897700D01*
X148243867Y-98897700D02*
X148277200Y-98964366D01*
X148277200Y-98964366D02*
X148277200Y-99031033D01*
X148277200Y-99031033D02*
X148243867Y-99131033D01*
X148243867Y-99131033D02*
X147843867Y-99531033D01*
X147843867Y-99531033D02*
X148277200Y-99531033D01*
X152419256Y-99475695D02*
X151962113Y-99475695D01*
X152190685Y-99475695D02*
X152190685Y-98675695D01*
X152190685Y-98675695D02*
X152114494Y-98789980D01*
X152114494Y-98789980D02*
X152038304Y-98866171D01*
X152038304Y-98866171D02*
X151962113Y-98904266D01*
X153104971Y-98675695D02*
X152952590Y-98675695D01*
X152952590Y-98675695D02*
X152876399Y-98713790D01*
X152876399Y-98713790D02*
X152838304Y-98751885D01*
X152838304Y-98751885D02*
X152762114Y-98866171D01*
X152762114Y-98866171D02*
X152724018Y-99018552D01*
X152724018Y-99018552D02*
X152724018Y-99323314D01*
X152724018Y-99323314D02*
X152762114Y-99399504D01*
X152762114Y-99399504D02*
X152800209Y-99437600D01*
X152800209Y-99437600D02*
X152876399Y-99475695D01*
X152876399Y-99475695D02*
X153028780Y-99475695D01*
X153028780Y-99475695D02*
X153104971Y-99437600D01*
X153104971Y-99437600D02*
X153143066Y-99399504D01*
X153143066Y-99399504D02*
X153181161Y-99323314D01*
X153181161Y-99323314D02*
X153181161Y-99132838D01*
X153181161Y-99132838D02*
X153143066Y-99056647D01*
X153143066Y-99056647D02*
X153104971Y-99018552D01*
X153104971Y-99018552D02*
X153028780Y-98980457D01*
X153028780Y-98980457D02*
X152876399Y-98980457D01*
X152876399Y-98980457D02*
X152800209Y-99018552D01*
X152800209Y-99018552D02*
X152762114Y-99056647D01*
X152762114Y-99056647D02*
X152724018Y-99132838D01*
X154133543Y-99475695D02*
X154133543Y-98675695D01*
X154133543Y-98675695D02*
X154400209Y-99247123D01*
X154400209Y-99247123D02*
X154666876Y-98675695D01*
X154666876Y-98675695D02*
X154666876Y-99475695D01*
X155047829Y-99475695D02*
X155047829Y-98675695D01*
X155047829Y-99056647D02*
X155504972Y-99056647D01*
X155504972Y-99475695D02*
X155504972Y-98675695D01*
X155809733Y-98942361D02*
X156228781Y-98942361D01*
X156228781Y-98942361D02*
X155809733Y-99475695D01*
X155809733Y-99475695D02*
X156228781Y-99475695D01*
%TO.C,R7*%
X160360533Y-84443433D02*
X160127200Y-84110100D01*
X159960533Y-84443433D02*
X159960533Y-83743433D01*
X159960533Y-83743433D02*
X160227200Y-83743433D01*
X160227200Y-83743433D02*
X160293867Y-83776766D01*
X160293867Y-83776766D02*
X160327200Y-83810100D01*
X160327200Y-83810100D02*
X160360533Y-83876766D01*
X160360533Y-83876766D02*
X160360533Y-83976766D01*
X160360533Y-83976766D02*
X160327200Y-84043433D01*
X160327200Y-84043433D02*
X160293867Y-84076766D01*
X160293867Y-84076766D02*
X160227200Y-84110100D01*
X160227200Y-84110100D02*
X159960533Y-84110100D01*
X160593867Y-83743433D02*
X161060533Y-83743433D01*
X161060533Y-83743433D02*
X160760533Y-84443433D01*
X161582228Y-83764895D02*
X162077466Y-83764895D01*
X162077466Y-83764895D02*
X161810800Y-84069657D01*
X161810800Y-84069657D02*
X161925085Y-84069657D01*
X161925085Y-84069657D02*
X162001276Y-84107752D01*
X162001276Y-84107752D02*
X162039371Y-84145847D01*
X162039371Y-84145847D02*
X162077466Y-84222038D01*
X162077466Y-84222038D02*
X162077466Y-84412514D01*
X162077466Y-84412514D02*
X162039371Y-84488704D01*
X162039371Y-84488704D02*
X162001276Y-84526800D01*
X162001276Y-84526800D02*
X161925085Y-84564895D01*
X161925085Y-84564895D02*
X161696514Y-84564895D01*
X161696514Y-84564895D02*
X161620323Y-84526800D01*
X161620323Y-84526800D02*
X161582228Y-84488704D01*
X162344133Y-83764895D02*
X162839371Y-83764895D01*
X162839371Y-83764895D02*
X162572705Y-84069657D01*
X162572705Y-84069657D02*
X162686990Y-84069657D01*
X162686990Y-84069657D02*
X162763181Y-84107752D01*
X162763181Y-84107752D02*
X162801276Y-84145847D01*
X162801276Y-84145847D02*
X162839371Y-84222038D01*
X162839371Y-84222038D02*
X162839371Y-84412514D01*
X162839371Y-84412514D02*
X162801276Y-84488704D01*
X162801276Y-84488704D02*
X162763181Y-84526800D01*
X162763181Y-84526800D02*
X162686990Y-84564895D01*
X162686990Y-84564895D02*
X162458419Y-84564895D01*
X162458419Y-84564895D02*
X162382228Y-84526800D01*
X162382228Y-84526800D02*
X162344133Y-84488704D01*
X163334610Y-83764895D02*
X163410800Y-83764895D01*
X163410800Y-83764895D02*
X163486991Y-83802990D01*
X163486991Y-83802990D02*
X163525086Y-83841085D01*
X163525086Y-83841085D02*
X163563181Y-83917276D01*
X163563181Y-83917276D02*
X163601276Y-84069657D01*
X163601276Y-84069657D02*
X163601276Y-84260133D01*
X163601276Y-84260133D02*
X163563181Y-84412514D01*
X163563181Y-84412514D02*
X163525086Y-84488704D01*
X163525086Y-84488704D02*
X163486991Y-84526800D01*
X163486991Y-84526800D02*
X163410800Y-84564895D01*
X163410800Y-84564895D02*
X163334610Y-84564895D01*
X163334610Y-84564895D02*
X163258419Y-84526800D01*
X163258419Y-84526800D02*
X163220324Y-84488704D01*
X163220324Y-84488704D02*
X163182229Y-84412514D01*
X163182229Y-84412514D02*
X163144133Y-84260133D01*
X163144133Y-84260133D02*
X163144133Y-84069657D01*
X163144133Y-84069657D02*
X163182229Y-83917276D01*
X163182229Y-83917276D02*
X163220324Y-83841085D01*
X163220324Y-83841085D02*
X163258419Y-83802990D01*
X163258419Y-83802990D02*
X163334610Y-83764895D01*
%TO.C,J4*%
X169235466Y-80441433D02*
X169235466Y-80941433D01*
X169235466Y-80941433D02*
X169202133Y-81041433D01*
X169202133Y-81041433D02*
X169135466Y-81108100D01*
X169135466Y-81108100D02*
X169035466Y-81141433D01*
X169035466Y-81141433D02*
X168968800Y-81141433D01*
X169868799Y-80674766D02*
X169868799Y-81141433D01*
X169702133Y-80408100D02*
X169535466Y-80908100D01*
X169535466Y-80908100D02*
X169968799Y-80908100D01*
%TO.C,R5*%
X164627733Y-84494233D02*
X164394400Y-84160900D01*
X164227733Y-84494233D02*
X164227733Y-83794233D01*
X164227733Y-83794233D02*
X164494400Y-83794233D01*
X164494400Y-83794233D02*
X164561067Y-83827566D01*
X164561067Y-83827566D02*
X164594400Y-83860900D01*
X164594400Y-83860900D02*
X164627733Y-83927566D01*
X164627733Y-83927566D02*
X164627733Y-84027566D01*
X164627733Y-84027566D02*
X164594400Y-84094233D01*
X164594400Y-84094233D02*
X164561067Y-84127566D01*
X164561067Y-84127566D02*
X164494400Y-84160900D01*
X164494400Y-84160900D02*
X164227733Y-84160900D01*
X165261067Y-83794233D02*
X164927733Y-83794233D01*
X164927733Y-83794233D02*
X164894400Y-84127566D01*
X164894400Y-84127566D02*
X164927733Y-84094233D01*
X164927733Y-84094233D02*
X164994400Y-84060900D01*
X164994400Y-84060900D02*
X165161067Y-84060900D01*
X165161067Y-84060900D02*
X165227733Y-84094233D01*
X165227733Y-84094233D02*
X165261067Y-84127566D01*
X165261067Y-84127566D02*
X165294400Y-84194233D01*
X165294400Y-84194233D02*
X165294400Y-84360900D01*
X165294400Y-84360900D02*
X165261067Y-84427566D01*
X165261067Y-84427566D02*
X165227733Y-84460900D01*
X165227733Y-84460900D02*
X165161067Y-84494233D01*
X165161067Y-84494233D02*
X164994400Y-84494233D01*
X164994400Y-84494233D02*
X164927733Y-84460900D01*
X164927733Y-84460900D02*
X164894400Y-84427566D01*
X166205028Y-83689695D02*
X166700266Y-83689695D01*
X166700266Y-83689695D02*
X166433600Y-83994457D01*
X166433600Y-83994457D02*
X166547885Y-83994457D01*
X166547885Y-83994457D02*
X166624076Y-84032552D01*
X166624076Y-84032552D02*
X166662171Y-84070647D01*
X166662171Y-84070647D02*
X166700266Y-84146838D01*
X166700266Y-84146838D02*
X166700266Y-84337314D01*
X166700266Y-84337314D02*
X166662171Y-84413504D01*
X166662171Y-84413504D02*
X166624076Y-84451600D01*
X166624076Y-84451600D02*
X166547885Y-84489695D01*
X166547885Y-84489695D02*
X166319314Y-84489695D01*
X166319314Y-84489695D02*
X166243123Y-84451600D01*
X166243123Y-84451600D02*
X166205028Y-84413504D01*
X166966933Y-83689695D02*
X167462171Y-83689695D01*
X167462171Y-83689695D02*
X167195505Y-83994457D01*
X167195505Y-83994457D02*
X167309790Y-83994457D01*
X167309790Y-83994457D02*
X167385981Y-84032552D01*
X167385981Y-84032552D02*
X167424076Y-84070647D01*
X167424076Y-84070647D02*
X167462171Y-84146838D01*
X167462171Y-84146838D02*
X167462171Y-84337314D01*
X167462171Y-84337314D02*
X167424076Y-84413504D01*
X167424076Y-84413504D02*
X167385981Y-84451600D01*
X167385981Y-84451600D02*
X167309790Y-84489695D01*
X167309790Y-84489695D02*
X167081219Y-84489695D01*
X167081219Y-84489695D02*
X167005028Y-84451600D01*
X167005028Y-84451600D02*
X166966933Y-84413504D01*
X167957410Y-83689695D02*
X168033600Y-83689695D01*
X168033600Y-83689695D02*
X168109791Y-83727790D01*
X168109791Y-83727790D02*
X168147886Y-83765885D01*
X168147886Y-83765885D02*
X168185981Y-83842076D01*
X168185981Y-83842076D02*
X168224076Y-83994457D01*
X168224076Y-83994457D02*
X168224076Y-84184933D01*
X168224076Y-84184933D02*
X168185981Y-84337314D01*
X168185981Y-84337314D02*
X168147886Y-84413504D01*
X168147886Y-84413504D02*
X168109791Y-84451600D01*
X168109791Y-84451600D02*
X168033600Y-84489695D01*
X168033600Y-84489695D02*
X167957410Y-84489695D01*
X167957410Y-84489695D02*
X167881219Y-84451600D01*
X167881219Y-84451600D02*
X167843124Y-84413504D01*
X167843124Y-84413504D02*
X167805029Y-84337314D01*
X167805029Y-84337314D02*
X167766933Y-84184933D01*
X167766933Y-84184933D02*
X167766933Y-83994457D01*
X167766933Y-83994457D02*
X167805029Y-83842076D01*
X167805029Y-83842076D02*
X167843124Y-83765885D01*
X167843124Y-83765885D02*
X167881219Y-83727790D01*
X167881219Y-83727790D02*
X167957410Y-83689695D01*
%TO.C,C3*%
X153756533Y-78687166D02*
X153723200Y-78720500D01*
X153723200Y-78720500D02*
X153623200Y-78753833D01*
X153623200Y-78753833D02*
X153556533Y-78753833D01*
X153556533Y-78753833D02*
X153456533Y-78720500D01*
X153456533Y-78720500D02*
X153389867Y-78653833D01*
X153389867Y-78653833D02*
X153356533Y-78587166D01*
X153356533Y-78587166D02*
X153323200Y-78453833D01*
X153323200Y-78453833D02*
X153323200Y-78353833D01*
X153323200Y-78353833D02*
X153356533Y-78220500D01*
X153356533Y-78220500D02*
X153389867Y-78153833D01*
X153389867Y-78153833D02*
X153456533Y-78087166D01*
X153456533Y-78087166D02*
X153556533Y-78053833D01*
X153556533Y-78053833D02*
X153623200Y-78053833D01*
X153623200Y-78053833D02*
X153723200Y-78087166D01*
X153723200Y-78087166D02*
X153756533Y-78120500D01*
X153989867Y-78053833D02*
X154423200Y-78053833D01*
X154423200Y-78053833D02*
X154189867Y-78320500D01*
X154189867Y-78320500D02*
X154289867Y-78320500D01*
X154289867Y-78320500D02*
X154356533Y-78353833D01*
X154356533Y-78353833D02*
X154389867Y-78387166D01*
X154389867Y-78387166D02*
X154423200Y-78453833D01*
X154423200Y-78453833D02*
X154423200Y-78620500D01*
X154423200Y-78620500D02*
X154389867Y-78687166D01*
X154389867Y-78687166D02*
X154356533Y-78720500D01*
X154356533Y-78720500D02*
X154289867Y-78753833D01*
X154289867Y-78753833D02*
X154089867Y-78753833D01*
X154089867Y-78753833D02*
X154023200Y-78720500D01*
X154023200Y-78720500D02*
X153989867Y-78687166D01*
X149764913Y-80057485D02*
X149803009Y-80019390D01*
X149803009Y-80019390D02*
X149879199Y-79981295D01*
X149879199Y-79981295D02*
X150069675Y-79981295D01*
X150069675Y-79981295D02*
X150145866Y-80019390D01*
X150145866Y-80019390D02*
X150183961Y-80057485D01*
X150183961Y-80057485D02*
X150222056Y-80133676D01*
X150222056Y-80133676D02*
X150222056Y-80209866D01*
X150222056Y-80209866D02*
X150183961Y-80324152D01*
X150183961Y-80324152D02*
X149726818Y-80781295D01*
X149726818Y-80781295D02*
X150222056Y-80781295D01*
X150526818Y-80057485D02*
X150564914Y-80019390D01*
X150564914Y-80019390D02*
X150641104Y-79981295D01*
X150641104Y-79981295D02*
X150831580Y-79981295D01*
X150831580Y-79981295D02*
X150907771Y-80019390D01*
X150907771Y-80019390D02*
X150945866Y-80057485D01*
X150945866Y-80057485D02*
X150983961Y-80133676D01*
X150983961Y-80133676D02*
X150983961Y-80209866D01*
X150983961Y-80209866D02*
X150945866Y-80324152D01*
X150945866Y-80324152D02*
X150488723Y-80781295D01*
X150488723Y-80781295D02*
X150983961Y-80781295D01*
X151326819Y-80247961D02*
X151326819Y-81047961D01*
X151326819Y-80286057D02*
X151403009Y-80247961D01*
X151403009Y-80247961D02*
X151555390Y-80247961D01*
X151555390Y-80247961D02*
X151631581Y-80286057D01*
X151631581Y-80286057D02*
X151669676Y-80324152D01*
X151669676Y-80324152D02*
X151707771Y-80400342D01*
X151707771Y-80400342D02*
X151707771Y-80628914D01*
X151707771Y-80628914D02*
X151669676Y-80705104D01*
X151669676Y-80705104D02*
X151631581Y-80743200D01*
X151631581Y-80743200D02*
X151555390Y-80781295D01*
X151555390Y-80781295D02*
X151403009Y-80781295D01*
X151403009Y-80781295D02*
X151326819Y-80743200D01*
X152317295Y-80362247D02*
X152050629Y-80362247D01*
X152050629Y-80781295D02*
X152050629Y-79981295D01*
X152050629Y-79981295D02*
X152431581Y-79981295D01*
%TO.C,C4*%
X160411333Y-99667566D02*
X160378000Y-99700900D01*
X160378000Y-99700900D02*
X160278000Y-99734233D01*
X160278000Y-99734233D02*
X160211333Y-99734233D01*
X160211333Y-99734233D02*
X160111333Y-99700900D01*
X160111333Y-99700900D02*
X160044667Y-99634233D01*
X160044667Y-99634233D02*
X160011333Y-99567566D01*
X160011333Y-99567566D02*
X159978000Y-99434233D01*
X159978000Y-99434233D02*
X159978000Y-99334233D01*
X159978000Y-99334233D02*
X160011333Y-99200900D01*
X160011333Y-99200900D02*
X160044667Y-99134233D01*
X160044667Y-99134233D02*
X160111333Y-99067566D01*
X160111333Y-99067566D02*
X160211333Y-99034233D01*
X160211333Y-99034233D02*
X160278000Y-99034233D01*
X160278000Y-99034233D02*
X160378000Y-99067566D01*
X160378000Y-99067566D02*
X160411333Y-99100900D01*
X161011333Y-99267566D02*
X161011333Y-99734233D01*
X160844667Y-99000900D02*
X160678000Y-99500900D01*
X160678000Y-99500900D02*
X161111333Y-99500900D01*
X162109314Y-99031295D02*
X162185504Y-99031295D01*
X162185504Y-99031295D02*
X162261695Y-99069390D01*
X162261695Y-99069390D02*
X162299790Y-99107485D01*
X162299790Y-99107485D02*
X162337885Y-99183676D01*
X162337885Y-99183676D02*
X162375980Y-99336057D01*
X162375980Y-99336057D02*
X162375980Y-99526533D01*
X162375980Y-99526533D02*
X162337885Y-99678914D01*
X162337885Y-99678914D02*
X162299790Y-99755104D01*
X162299790Y-99755104D02*
X162261695Y-99793200D01*
X162261695Y-99793200D02*
X162185504Y-99831295D01*
X162185504Y-99831295D02*
X162109314Y-99831295D01*
X162109314Y-99831295D02*
X162033123Y-99793200D01*
X162033123Y-99793200D02*
X161995028Y-99755104D01*
X161995028Y-99755104D02*
X161956933Y-99678914D01*
X161956933Y-99678914D02*
X161918837Y-99526533D01*
X161918837Y-99526533D02*
X161918837Y-99336057D01*
X161918837Y-99336057D02*
X161956933Y-99183676D01*
X161956933Y-99183676D02*
X161995028Y-99107485D01*
X161995028Y-99107485D02*
X162033123Y-99069390D01*
X162033123Y-99069390D02*
X162109314Y-99031295D01*
X162718838Y-99755104D02*
X162756933Y-99793200D01*
X162756933Y-99793200D02*
X162718838Y-99831295D01*
X162718838Y-99831295D02*
X162680742Y-99793200D01*
X162680742Y-99793200D02*
X162718838Y-99755104D01*
X162718838Y-99755104D02*
X162718838Y-99831295D01*
X163518837Y-99831295D02*
X163061694Y-99831295D01*
X163290266Y-99831295D02*
X163290266Y-99031295D01*
X163290266Y-99031295D02*
X163214075Y-99145580D01*
X163214075Y-99145580D02*
X163137885Y-99221771D01*
X163137885Y-99221771D02*
X163061694Y-99259866D01*
X164204552Y-99297961D02*
X164204552Y-99831295D01*
X163861695Y-99297961D02*
X163861695Y-99717009D01*
X163861695Y-99717009D02*
X163899790Y-99793200D01*
X163899790Y-99793200D02*
X163975980Y-99831295D01*
X163975980Y-99831295D02*
X164090266Y-99831295D01*
X164090266Y-99831295D02*
X164166457Y-99793200D01*
X164166457Y-99793200D02*
X164204552Y-99755104D01*
X164852171Y-99412247D02*
X164585505Y-99412247D01*
X164585505Y-99831295D02*
X164585505Y-99031295D01*
X164585505Y-99031295D02*
X164966457Y-99031295D01*
%TO.C,U4*%
X146227866Y-81203433D02*
X146227866Y-81770100D01*
X146227866Y-81770100D02*
X146261200Y-81836766D01*
X146261200Y-81836766D02*
X146294533Y-81870100D01*
X146294533Y-81870100D02*
X146361200Y-81903433D01*
X146361200Y-81903433D02*
X146494533Y-81903433D01*
X146494533Y-81903433D02*
X146561200Y-81870100D01*
X146561200Y-81870100D02*
X146594533Y-81836766D01*
X146594533Y-81836766D02*
X146627866Y-81770100D01*
X146627866Y-81770100D02*
X146627866Y-81203433D01*
X147261199Y-81436766D02*
X147261199Y-81903433D01*
X147094533Y-81170100D02*
X146927866Y-81670100D01*
X146927866Y-81670100D02*
X147361199Y-81670100D01*
X147593656Y-93874198D02*
X147974609Y-93874198D01*
X147517466Y-94102770D02*
X147784133Y-93302770D01*
X147784133Y-93302770D02*
X148050799Y-94102770D01*
X148203180Y-93302770D02*
X148660323Y-93302770D01*
X148431751Y-94102770D02*
X148431751Y-93302770D01*
X148926990Y-94102770D02*
X148926990Y-93302770D01*
X148926990Y-93302770D02*
X149193656Y-93874198D01*
X149193656Y-93874198D02*
X149460323Y-93302770D01*
X149460323Y-93302770D02*
X149460323Y-94102770D01*
X149841276Y-93683722D02*
X150107942Y-93683722D01*
X150222228Y-94102770D02*
X149841276Y-94102770D01*
X149841276Y-94102770D02*
X149841276Y-93302770D01*
X149841276Y-93302770D02*
X150222228Y-93302770D01*
X150984133Y-93340865D02*
X150907943Y-93302770D01*
X150907943Y-93302770D02*
X150793657Y-93302770D01*
X150793657Y-93302770D02*
X150679371Y-93340865D01*
X150679371Y-93340865D02*
X150603181Y-93417055D01*
X150603181Y-93417055D02*
X150565086Y-93493246D01*
X150565086Y-93493246D02*
X150526990Y-93645627D01*
X150526990Y-93645627D02*
X150526990Y-93759913D01*
X150526990Y-93759913D02*
X150565086Y-93912294D01*
X150565086Y-93912294D02*
X150603181Y-93988484D01*
X150603181Y-93988484D02*
X150679371Y-94064675D01*
X150679371Y-94064675D02*
X150793657Y-94102770D01*
X150793657Y-94102770D02*
X150869848Y-94102770D01*
X150869848Y-94102770D02*
X150984133Y-94064675D01*
X150984133Y-94064675D02*
X151022229Y-94026579D01*
X151022229Y-94026579D02*
X151022229Y-93759913D01*
X151022229Y-93759913D02*
X150869848Y-93759913D01*
X151326990Y-93874198D02*
X151707943Y-93874198D01*
X151250800Y-94102770D02*
X151517467Y-93302770D01*
X151517467Y-93302770D02*
X151784133Y-94102770D01*
X151974609Y-93302770D02*
X152469847Y-93302770D01*
X152469847Y-93302770D02*
X152203181Y-93607532D01*
X152203181Y-93607532D02*
X152317466Y-93607532D01*
X152317466Y-93607532D02*
X152393657Y-93645627D01*
X152393657Y-93645627D02*
X152431752Y-93683722D01*
X152431752Y-93683722D02*
X152469847Y-93759913D01*
X152469847Y-93759913D02*
X152469847Y-93950389D01*
X152469847Y-93950389D02*
X152431752Y-94026579D01*
X152431752Y-94026579D02*
X152393657Y-94064675D01*
X152393657Y-94064675D02*
X152317466Y-94102770D01*
X152317466Y-94102770D02*
X152088895Y-94102770D01*
X152088895Y-94102770D02*
X152012704Y-94064675D01*
X152012704Y-94064675D02*
X151974609Y-94026579D01*
X152774609Y-93378960D02*
X152812705Y-93340865D01*
X152812705Y-93340865D02*
X152888895Y-93302770D01*
X152888895Y-93302770D02*
X153079371Y-93302770D01*
X153079371Y-93302770D02*
X153155562Y-93340865D01*
X153155562Y-93340865D02*
X153193657Y-93378960D01*
X153193657Y-93378960D02*
X153231752Y-93455151D01*
X153231752Y-93455151D02*
X153231752Y-93531341D01*
X153231752Y-93531341D02*
X153193657Y-93645627D01*
X153193657Y-93645627D02*
X152736514Y-94102770D01*
X152736514Y-94102770D02*
X153231752Y-94102770D01*
X153688895Y-93645627D02*
X153612705Y-93607532D01*
X153612705Y-93607532D02*
X153574610Y-93569436D01*
X153574610Y-93569436D02*
X153536514Y-93493246D01*
X153536514Y-93493246D02*
X153536514Y-93455151D01*
X153536514Y-93455151D02*
X153574610Y-93378960D01*
X153574610Y-93378960D02*
X153612705Y-93340865D01*
X153612705Y-93340865D02*
X153688895Y-93302770D01*
X153688895Y-93302770D02*
X153841276Y-93302770D01*
X153841276Y-93302770D02*
X153917467Y-93340865D01*
X153917467Y-93340865D02*
X153955562Y-93378960D01*
X153955562Y-93378960D02*
X153993657Y-93455151D01*
X153993657Y-93455151D02*
X153993657Y-93493246D01*
X153993657Y-93493246D02*
X153955562Y-93569436D01*
X153955562Y-93569436D02*
X153917467Y-93607532D01*
X153917467Y-93607532D02*
X153841276Y-93645627D01*
X153841276Y-93645627D02*
X153688895Y-93645627D01*
X153688895Y-93645627D02*
X153612705Y-93683722D01*
X153612705Y-93683722D02*
X153574610Y-93721817D01*
X153574610Y-93721817D02*
X153536514Y-93798008D01*
X153536514Y-93798008D02*
X153536514Y-93950389D01*
X153536514Y-93950389D02*
X153574610Y-94026579D01*
X153574610Y-94026579D02*
X153612705Y-94064675D01*
X153612705Y-94064675D02*
X153688895Y-94102770D01*
X153688895Y-94102770D02*
X153841276Y-94102770D01*
X153841276Y-94102770D02*
X153917467Y-94064675D01*
X153917467Y-94064675D02*
X153955562Y-94026579D01*
X153955562Y-94026579D02*
X153993657Y-93950389D01*
X153993657Y-93950389D02*
X153993657Y-93798008D01*
X153993657Y-93798008D02*
X153955562Y-93721817D01*
X153955562Y-93721817D02*
X153917467Y-93683722D01*
X153917467Y-93683722D02*
X153841276Y-93645627D01*
X154336515Y-94102770D02*
X154336515Y-93302770D01*
X154336515Y-93302770D02*
X154641277Y-93302770D01*
X154641277Y-93302770D02*
X154717467Y-93340865D01*
X154717467Y-93340865D02*
X154755562Y-93378960D01*
X154755562Y-93378960D02*
X154793658Y-93455151D01*
X154793658Y-93455151D02*
X154793658Y-93569436D01*
X154793658Y-93569436D02*
X154755562Y-93645627D01*
X154755562Y-93645627D02*
X154717467Y-93683722D01*
X154717467Y-93683722D02*
X154641277Y-93721817D01*
X154641277Y-93721817D02*
X154336515Y-93721817D01*
X155136515Y-93798008D02*
X155746039Y-93798008D01*
X156088895Y-93874198D02*
X156469848Y-93874198D01*
X156012705Y-94102770D02*
X156279372Y-93302770D01*
X156279372Y-93302770D02*
X156546038Y-94102770D01*
X156812705Y-93302770D02*
X156812705Y-93950389D01*
X156812705Y-93950389D02*
X156850800Y-94026579D01*
X156850800Y-94026579D02*
X156888895Y-94064675D01*
X156888895Y-94064675D02*
X156965086Y-94102770D01*
X156965086Y-94102770D02*
X157117467Y-94102770D01*
X157117467Y-94102770D02*
X157193657Y-94064675D01*
X157193657Y-94064675D02*
X157231752Y-94026579D01*
X157231752Y-94026579D02*
X157269848Y-93950389D01*
X157269848Y-93950389D02*
X157269848Y-93302770D01*
%TO.C,U3*%
X136017066Y-90957033D02*
X136017066Y-91523700D01*
X136017066Y-91523700D02*
X136050400Y-91590366D01*
X136050400Y-91590366D02*
X136083733Y-91623700D01*
X136083733Y-91623700D02*
X136150400Y-91657033D01*
X136150400Y-91657033D02*
X136283733Y-91657033D01*
X136283733Y-91657033D02*
X136350400Y-91623700D01*
X136350400Y-91623700D02*
X136383733Y-91590366D01*
X136383733Y-91590366D02*
X136417066Y-91523700D01*
X136417066Y-91523700D02*
X136417066Y-90957033D01*
X136683733Y-90957033D02*
X137117066Y-90957033D01*
X137117066Y-90957033D02*
X136883733Y-91223700D01*
X136883733Y-91223700D02*
X136983733Y-91223700D01*
X136983733Y-91223700D02*
X137050399Y-91257033D01*
X137050399Y-91257033D02*
X137083733Y-91290366D01*
X137083733Y-91290366D02*
X137117066Y-91357033D01*
X137117066Y-91357033D02*
X137117066Y-91523700D01*
X137117066Y-91523700D02*
X137083733Y-91590366D01*
X137083733Y-91590366D02*
X137050399Y-91623700D01*
X137050399Y-91623700D02*
X136983733Y-91657033D01*
X136983733Y-91657033D02*
X136783733Y-91657033D01*
X136783733Y-91657033D02*
X136717066Y-91623700D01*
X136717066Y-91623700D02*
X136683733Y-91590366D01*
D12*
%TO.C,R3*%
X161794564Y-90905000D02*
X161340436Y-90905000D01*
X161794564Y-89435000D02*
X161340436Y-89435000D01*
%TO.C,BT1*%
X130750000Y-85085000D02*
X130750000Y-83755000D01*
X130750000Y-88955000D02*
X133410000Y-88955000D01*
X130750000Y-86355000D02*
X130750000Y-88955000D01*
X130750000Y-86355000D02*
X133410000Y-86355000D01*
X130750000Y-83755000D02*
X132080000Y-83755000D01*
X133410000Y-86355000D02*
X133410000Y-88955000D01*
%TO.C,R6*%
X165507936Y-85625000D02*
X165962064Y-85625000D01*
X165507936Y-87095000D02*
X165962064Y-87095000D01*
%TO.C,R2*%
X141832064Y-99795000D02*
X141377936Y-99795000D01*
X141832064Y-98325000D02*
X141377936Y-98325000D01*
%TO.C,U2*%
X137000400Y-83497400D02*
X137000400Y-83237400D01*
X137000400Y-78307400D02*
X135325400Y-78307400D01*
X139725400Y-78047400D02*
X137000400Y-78047400D01*
X137000400Y-78047400D02*
X137000400Y-78307400D01*
X142450400Y-83497400D02*
X142450400Y-83237400D01*
X139725400Y-83497400D02*
X142450400Y-83497400D01*
X139725400Y-83497400D02*
X137000400Y-83497400D01*
X142450400Y-78047400D02*
X142450400Y-78307400D01*
X139725400Y-78047400D02*
X142450400Y-78047400D01*
%TO.C,J2*%
X161290000Y-102175000D02*
X168970000Y-102175000D01*
X160020000Y-104835000D02*
X158690000Y-104835000D01*
X168970000Y-104835000D02*
X168970000Y-102175000D01*
X161290000Y-104835000D02*
X161290000Y-102175000D01*
X158690000Y-104835000D02*
X158690000Y-103505000D01*
X161290000Y-104835000D02*
X168970000Y-104835000D01*
%TO.C,D1*%
X160138800Y-79867400D02*
X162823800Y-79867400D01*
X160138800Y-77947400D02*
X160138800Y-79867400D01*
X162823800Y-77947400D02*
X160138800Y-77947400D01*
%TO.C,C2*%
X161828752Y-93245000D02*
X161306248Y-93245000D01*
X161828752Y-94715000D02*
X161306248Y-94715000D01*
%TO.C,J1*%
X174685000Y-93345000D02*
X174685000Y-101025000D01*
X172025000Y-92075000D02*
X172025000Y-90745000D01*
X172025000Y-101025000D02*
X174685000Y-101025000D01*
X172025000Y-93345000D02*
X174685000Y-93345000D01*
X172025000Y-90745000D02*
X173355000Y-90745000D01*
X172025000Y-93345000D02*
X172025000Y-101025000D01*
%TO.C,C5*%
X156202748Y-79627400D02*
X156725252Y-79627400D01*
X156202748Y-78157400D02*
X156725252Y-78157400D01*
%TO.C,J3*%
X134620000Y-104962000D02*
X133290000Y-104962000D01*
X135890000Y-104962000D02*
X156270000Y-104962000D01*
X135890000Y-102302000D02*
X156270000Y-102302000D01*
X135890000Y-104962000D02*
X135890000Y-102302000D01*
X156270000Y-104962000D02*
X156270000Y-102302000D01*
X133290000Y-104962000D02*
X133290000Y-103632000D01*
%TO.C,R1*%
X137567936Y-98325000D02*
X138022064Y-98325000D01*
X137567936Y-99795000D02*
X138022064Y-99795000D01*
%TO.C,Y1*%
X133880000Y-100435000D02*
X133880000Y-93185000D01*
X130280000Y-93185000D02*
X130280000Y-100435000D01*
X130280000Y-100435000D02*
X133880000Y-100435000D01*
%TO.C,D2*%
X164306300Y-79867400D02*
X166991300Y-79867400D01*
X164306300Y-77947400D02*
X164306300Y-79867400D01*
X166991300Y-77947400D02*
X164306300Y-77947400D01*
%TO.C,R4*%
X161794564Y-87095000D02*
X161340436Y-87095000D01*
X161794564Y-85625000D02*
X161340436Y-85625000D01*
%TO.C,U1*%
X136975000Y-90355000D02*
X136975000Y-90095000D01*
X136975000Y-85165000D02*
X135300000Y-85165000D01*
X139700000Y-84905000D02*
X136975000Y-84905000D01*
X136975000Y-84905000D02*
X136975000Y-85165000D01*
X142425000Y-90355000D02*
X142425000Y-90095000D01*
X139700000Y-90355000D02*
X142425000Y-90355000D01*
X139700000Y-90355000D02*
X136975000Y-90355000D01*
X142425000Y-84905000D02*
X142425000Y-85165000D01*
X139700000Y-84905000D02*
X142425000Y-84905000D01*
%TO.C,C1*%
X147886052Y-78157400D02*
X147363548Y-78157400D01*
X147886052Y-79627400D02*
X147363548Y-79627400D01*
%TO.C,Y2*%
X156315000Y-94720000D02*
X149065000Y-94720000D01*
X149065000Y-98320000D02*
X156315000Y-98320000D01*
X156315000Y-98320000D02*
X156315000Y-94720000D01*
%TO.C,R7*%
X161340436Y-81815000D02*
X161794564Y-81815000D01*
X161340436Y-83285000D02*
X161794564Y-83285000D01*
%TO.C,J4*%
X172080000Y-84470000D02*
X172080000Y-81870000D01*
X169480000Y-89610000D02*
X174680000Y-89610000D01*
X174680000Y-81870000D02*
X174680000Y-89610000D01*
X169480000Y-81870000D02*
X170810000Y-81870000D01*
X169480000Y-84470000D02*
X169480000Y-89610000D01*
X169480000Y-84470000D02*
X172080000Y-84470000D01*
X169480000Y-83200000D02*
X169480000Y-81870000D01*
X172080000Y-81870000D02*
X174680000Y-81870000D01*
%TO.C,R5*%
X165962064Y-83285000D02*
X165507936Y-83285000D01*
X165962064Y-81815000D02*
X165507936Y-81815000D01*
%TO.C,C3*%
X151148148Y-79627400D02*
X151670652Y-79627400D01*
X151148148Y-78157400D02*
X151670652Y-78157400D01*
%TO.C,C4*%
X161828752Y-97055000D02*
X161306248Y-97055000D01*
X161828752Y-98525000D02*
X161306248Y-98525000D01*
D13*
%TO.C,U4*%
X148365000Y-84230000D02*
X155165000Y-84230000D01*
X148365000Y-91030000D02*
X148365000Y-84230000D01*
X155165000Y-84230000D02*
X155165000Y-91030000D01*
X155165000Y-91030000D02*
X148365000Y-91030000D01*
D14*
X147392000Y-83880000D02*
G75*
G03*
X147392000Y-83880000I-127000J0D01*
G01*
D13*
X149381000Y-84886800D02*
G75*
G03*
X149381000Y-84886800I-359200J0D01*
G01*
D15*
%TO.C,U3*%
X137700000Y-92095000D02*
X141700000Y-92095000D01*
X137700000Y-97135000D02*
X141700000Y-97135000D01*
D16*
X135355000Y-92120000D02*
G75*
G03*
X135355000Y-92120000I-100000J0D01*
G01*
%TD*%
M02*
