%TF.GenerationSoftware,KiCad,Pcbnew,7.0.5-0*%
%TF.CreationDate,2023-07-20T08:32:01+02:00*%
%TF.ProjectId,MCU-Datalogger,4d43552d-4461-4746-916c-6f676765722e,V1.0*%
%TF.SameCoordinates,Original*%
%TF.FileFunction,Copper,L1,Top*%
%TF.FilePolarity,Positive*%
%FSLAX46Y46*%
G04 Gerber Fmt 4.6, Leading zero omitted, Abs format (unit mm)*
G04 Created by KiCad (PCBNEW 7.0.5-0) date 2023-07-20 08:32:01*
%MOMM*%
%LPD*%
G01*
G04 APERTURE LIST*
G04 Aperture macros list*
%AMRoundRect*
0 Rectangle with rounded corners*
0 $1 Rounding radius*
0 $2 $3 $4 $5 $6 $7 $8 $9 X,Y pos of 4 corners*
0 Add a 4 corners polygon primitive as box body*
4,1,4,$2,$3,$4,$5,$6,$7,$8,$9,$2,$3,0*
0 Add four circle primitives for the rounded corners*
1,1,$1+$1,$2,$3*
1,1,$1+$1,$4,$5*
1,1,$1+$1,$6,$7*
1,1,$1+$1,$8,$9*
0 Add four rect primitives between the rounded corners*
20,1,$1+$1,$2,$3,$4,$5,0*
20,1,$1+$1,$4,$5,$6,$7,0*
20,1,$1+$1,$6,$7,$8,$9,0*
20,1,$1+$1,$8,$9,$2,$3,0*%
G04 Aperture macros list end*
%TA.AperFunction,SMDPad,CuDef*%
%ADD10RoundRect,0.250000X0.262500X0.450000X-0.262500X0.450000X-0.262500X-0.450000X0.262500X-0.450000X0*%
%TD*%
%TA.AperFunction,ComponentPad*%
%ADD11R,1.700000X1.700000*%
%TD*%
%TA.AperFunction,ComponentPad*%
%ADD12O,1.700000X1.700000*%
%TD*%
%TA.AperFunction,SMDPad,CuDef*%
%ADD13RoundRect,0.250000X-0.262500X-0.450000X0.262500X-0.450000X0.262500X0.450000X-0.262500X0.450000X0*%
%TD*%
%TA.AperFunction,SMDPad,CuDef*%
%ADD14RoundRect,0.150000X-0.650000X-0.150000X0.650000X-0.150000X0.650000X0.150000X-0.650000X0.150000X0*%
%TD*%
%TA.AperFunction,SMDPad,CuDef*%
%ADD15RoundRect,0.243750X-0.243750X-0.456250X0.243750X-0.456250X0.243750X0.456250X-0.243750X0.456250X0*%
%TD*%
%TA.AperFunction,SMDPad,CuDef*%
%ADD16RoundRect,0.250000X0.250000X0.475000X-0.250000X0.475000X-0.250000X-0.475000X0.250000X-0.475000X0*%
%TD*%
%TA.AperFunction,SMDPad,CuDef*%
%ADD17RoundRect,0.250000X-0.250000X-0.475000X0.250000X-0.475000X0.250000X0.475000X-0.250000X0.475000X0*%
%TD*%
%TA.AperFunction,SMDPad,CuDef*%
%ADD18R,2.400000X3.500000*%
%TD*%
%TA.AperFunction,SMDPad,CuDef*%
%ADD19R,3.500000X2.400000*%
%TD*%
%TA.AperFunction,SMDPad,CuDef*%
%ADD20R,1.500000X0.550000*%
%TD*%
%TA.AperFunction,SMDPad,CuDef*%
%ADD21R,0.550000X1.500000*%
%TD*%
%TA.AperFunction,SMDPad,CuDef*%
%ADD22RoundRect,0.041300X-0.943700X-0.253700X0.943700X-0.253700X0.943700X0.253700X-0.943700X0.253700X0*%
%TD*%
%TA.AperFunction,ViaPad*%
%ADD23C,0.800000*%
%TD*%
%TA.AperFunction,Conductor*%
%ADD24C,0.250000*%
%TD*%
G04 APERTURE END LIST*
D10*
%TO.P,R3,1*%
%TO.N,/Vcc*%
X162480000Y-90170000D03*
%TO.P,R3,2*%
%TO.N,/SCL*%
X160655000Y-90170000D03*
%TD*%
D11*
%TO.P,BT1,1,+*%
%TO.N,/Vcc*%
X132080000Y-85085000D03*
D12*
%TO.P,BT1,2,-*%
%TO.N,GND*%
X132080000Y-87625000D03*
%TD*%
D13*
%TO.P,R6,1*%
%TO.N,/Vcc*%
X164822500Y-86360000D03*
%TO.P,R6,2*%
%TO.N,/RESET*%
X166647500Y-86360000D03*
%TD*%
D10*
%TO.P,R2,1*%
%TO.N,/Vcc*%
X142517500Y-99060000D03*
%TO.P,R2,2*%
%TO.N,Net-(U3-SQW{slash}~INT)*%
X140692500Y-99060000D03*
%TD*%
D14*
%TO.P,U2,1,A0*%
%TO.N,/Vcc*%
X136125400Y-78867400D03*
%TO.P,U2,2,A1*%
%TO.N,GND*%
X136125400Y-80137400D03*
%TO.P,U2,3,A2*%
%TO.N,/Vcc*%
X136125400Y-81407400D03*
%TO.P,U2,4,GND*%
%TO.N,GND*%
X136125400Y-82677400D03*
%TO.P,U2,5,SDA*%
%TO.N,/SDA*%
X143325400Y-82677400D03*
%TO.P,U2,6,SCL*%
%TO.N,/SCL*%
X143325400Y-81407400D03*
%TO.P,U2,7,WP*%
%TO.N,GND*%
X143325400Y-80137400D03*
%TO.P,U2,8,VCC*%
%TO.N,/Vcc*%
X143325400Y-78867400D03*
%TD*%
D11*
%TO.P,J2,1,Pin_1*%
%TO.N,GND*%
X160020000Y-103505000D03*
D12*
%TO.P,J2,2,Pin_2*%
%TO.N,/Vcc*%
X162560000Y-103505000D03*
%TO.P,J2,3,Pin_3*%
%TO.N,/RX*%
X165100000Y-103505000D03*
%TO.P,J2,4,Pin_4*%
%TO.N,/TX*%
X167640000Y-103505000D03*
%TD*%
D15*
%TO.P,D1,1,K*%
%TO.N,Net-(D1-K)*%
X160886300Y-78907400D03*
%TO.P,D1,2,A*%
%TO.N,/Vcc*%
X162761300Y-78907400D03*
%TD*%
D16*
%TO.P,C2,1*%
%TO.N,GND*%
X162517500Y-93980000D03*
%TO.P,C2,2*%
%TO.N,Net-(U4-PB6)*%
X160617500Y-93980000D03*
%TD*%
D11*
%TO.P,J1,1,Pin_1*%
%TO.N,GND*%
X173355000Y-92075000D03*
D12*
%TO.P,J1,2,Pin_2*%
%TO.N,/Vcc*%
X173355000Y-94615000D03*
%TO.P,J1,3,Pin_3*%
%TO.N,/SDA*%
X173355000Y-97155000D03*
%TO.P,J1,4,Pin_4*%
%TO.N,/SCL*%
X173355000Y-99695000D03*
%TD*%
D17*
%TO.P,C5,1*%
%TO.N,/Vcc*%
X155514000Y-78892400D03*
%TO.P,C5,2*%
%TO.N,GND*%
X157414000Y-78892400D03*
%TD*%
D11*
%TO.P,J3,1,Pin_1*%
%TO.N,/D2*%
X134620000Y-103632000D03*
D12*
%TO.P,J3,2,Pin_2*%
%TO.N,/D3*%
X137160000Y-103632000D03*
%TO.P,J3,3,Pin_3*%
%TO.N,/D4*%
X139700000Y-103632000D03*
%TO.P,J3,4,Pin_4*%
%TO.N,/D5*%
X142240000Y-103632000D03*
%TO.P,J3,5,Pin_5*%
%TO.N,/D6*%
X144780000Y-103632000D03*
%TO.P,J3,6,Pin_6*%
%TO.N,/D7*%
X147320000Y-103632000D03*
%TO.P,J3,7,Pin_7*%
%TO.N,/D8*%
X149860000Y-103632000D03*
%TO.P,J3,8,Pin_8*%
%TO.N,GND*%
X152400000Y-103632000D03*
%TO.P,J3,9,Pin_9*%
%TO.N,/Vcc*%
X154940000Y-103632000D03*
%TD*%
D13*
%TO.P,R1,1*%
%TO.N,/Vcc*%
X136882500Y-99060000D03*
%TO.P,R1,2*%
%TO.N,Net-(U3-~{INTA})*%
X138707500Y-99060000D03*
%TD*%
D18*
%TO.P,Y1,1,1*%
%TO.N,Net-(U3-X2)*%
X132080000Y-98485000D03*
%TO.P,Y1,2,2*%
%TO.N,Net-(U3-X1)*%
X132080000Y-93285000D03*
%TD*%
D15*
%TO.P,D2,1,K*%
%TO.N,Net-(D2-K)*%
X165053800Y-78907400D03*
%TO.P,D2,2,A*%
%TO.N,/SCK*%
X166928800Y-78907400D03*
%TD*%
D10*
%TO.P,R4,1*%
%TO.N,/Vcc*%
X162480000Y-86360000D03*
%TO.P,R4,2*%
%TO.N,/SDA*%
X160655000Y-86360000D03*
%TD*%
D14*
%TO.P,U1,1,A0*%
%TO.N,/Vcc*%
X136100000Y-85725000D03*
%TO.P,U1,2,A1*%
X136100000Y-86995000D03*
%TO.P,U1,3,A2*%
X136100000Y-88265000D03*
%TO.P,U1,4,GND*%
%TO.N,GND*%
X136100000Y-89535000D03*
%TO.P,U1,5,SDA*%
%TO.N,/SDA*%
X143300000Y-89535000D03*
%TO.P,U1,6,SCL*%
%TO.N,/SCL*%
X143300000Y-88265000D03*
%TO.P,U1,7,WP*%
%TO.N,GND*%
X143300000Y-86995000D03*
%TO.P,U1,8,VCC*%
%TO.N,/Vcc*%
X143300000Y-85725000D03*
%TD*%
D16*
%TO.P,C1,1*%
%TO.N,GND*%
X148574800Y-78892400D03*
%TO.P,C1,2*%
%TO.N,/Vcc*%
X146674800Y-78892400D03*
%TD*%
D19*
%TO.P,Y2,1,1*%
%TO.N,Net-(U4-PB7)*%
X154365000Y-96520000D03*
%TO.P,Y2,2,2*%
%TO.N,Net-(U4-PB6)*%
X149165000Y-96520000D03*
%TD*%
D13*
%TO.P,R7,1*%
%TO.N,Net-(D1-K)*%
X160655000Y-82550000D03*
%TO.P,R7,2*%
%TO.N,GND*%
X162480000Y-82550000D03*
%TD*%
D11*
%TO.P,J4,1,Pin_1*%
%TO.N,/MISO*%
X170810000Y-83200000D03*
D12*
%TO.P,J4,2,Pin_2*%
%TO.N,/Vcc*%
X173350000Y-83200000D03*
%TO.P,J4,3,Pin_3*%
%TO.N,/SCK*%
X170810000Y-85740000D03*
%TO.P,J4,4,Pin_4*%
%TO.N,/MOSI*%
X173350000Y-85740000D03*
%TO.P,J4,5,Pin_5*%
%TO.N,/RESET*%
X170810000Y-88280000D03*
%TO.P,J4,6,Pin_6*%
%TO.N,GND*%
X173350000Y-88280000D03*
%TD*%
D10*
%TO.P,R5,1*%
%TO.N,GND*%
X166647500Y-82550000D03*
%TO.P,R5,2*%
%TO.N,Net-(D2-K)*%
X164822500Y-82550000D03*
%TD*%
D17*
%TO.P,C3,1*%
%TO.N,GND*%
X150459400Y-78892400D03*
%TO.P,C3,2*%
%TO.N,Net-(U4-PB7)*%
X152359400Y-78892400D03*
%TD*%
D16*
%TO.P,C4,1*%
%TO.N,GND*%
X162517500Y-97790000D03*
%TO.P,C4,2*%
%TO.N,Net-(U4-AREF)*%
X160617500Y-97790000D03*
%TD*%
D20*
%TO.P,U4,1,PD3*%
%TO.N,/D3*%
X147465000Y-84830000D03*
%TO.P,U4,2,PD4*%
%TO.N,/D4*%
X147465000Y-85630000D03*
%TO.P,U4,3,GND*%
%TO.N,GND*%
X147465000Y-86430000D03*
%TO.P,U4,4,VCC*%
%TO.N,/Vcc*%
X147465000Y-87230000D03*
%TO.P,U4,5,GND*%
%TO.N,GND*%
X147465000Y-88030000D03*
%TO.P,U4,6,VCC*%
%TO.N,unconnected-(U4-VCC-Pad6)*%
X147465000Y-88830000D03*
%TO.P,U4,7,PB6*%
%TO.N,Net-(U4-PB6)*%
X147465000Y-89630000D03*
%TO.P,U4,8,PB7*%
%TO.N,Net-(U4-PB7)*%
X147465000Y-90430000D03*
D21*
%TO.P,U4,9,PD5*%
%TO.N,/D5*%
X148965000Y-91930000D03*
%TO.P,U4,10,PD6*%
%TO.N,/D6*%
X149765000Y-91930000D03*
%TO.P,U4,11,PD7*%
%TO.N,/D7*%
X150565000Y-91930000D03*
%TO.P,U4,12,PB0*%
%TO.N,/D8*%
X151365000Y-91930000D03*
%TO.P,U4,13,PB1*%
%TO.N,unconnected-(U4-PB1-Pad13)*%
X152165000Y-91930000D03*
%TO.P,U4,14,PB2*%
%TO.N,unconnected-(U4-PB2-Pad14)*%
X152965000Y-91930000D03*
%TO.P,U4,15,PB3*%
%TO.N,/MOSI*%
X153765000Y-91930000D03*
%TO.P,U4,16,PB4*%
%TO.N,/MISO*%
X154565000Y-91930000D03*
D20*
%TO.P,U4,17,PB5*%
%TO.N,/SCK*%
X156065000Y-90430000D03*
%TO.P,U4,18,AVCC*%
%TO.N,/Vcc*%
X156065000Y-89630000D03*
%TO.P,U4,19,ADC6*%
%TO.N,unconnected-(U4-ADC6-Pad19)*%
X156065000Y-88830000D03*
%TO.P,U4,20,AREF*%
%TO.N,Net-(U4-AREF)*%
X156065000Y-88030000D03*
%TO.P,U4,21,GND*%
%TO.N,GND*%
X156065000Y-87230000D03*
%TO.P,U4,22,ADC7*%
%TO.N,unconnected-(U4-ADC7-Pad22)*%
X156065000Y-86430000D03*
%TO.P,U4,23,PC0*%
%TO.N,unconnected-(U4-PC0-Pad23)*%
X156065000Y-85630000D03*
%TO.P,U4,24,PC1*%
%TO.N,unconnected-(U4-PC1-Pad24)*%
X156065000Y-84830000D03*
D21*
%TO.P,U4,25,PC2*%
%TO.N,unconnected-(U4-PC2-Pad25)*%
X154565000Y-83330000D03*
%TO.P,U4,26,PC3*%
%TO.N,unconnected-(U4-PC3-Pad26)*%
X153765000Y-83330000D03*
%TO.P,U4,27,PC4*%
%TO.N,/SDA*%
X152965000Y-83330000D03*
%TO.P,U4,28,PC5*%
%TO.N,/SCL*%
X152165000Y-83330000D03*
%TO.P,U4,29,PC6/~{RESET}*%
%TO.N,/RESET*%
X151365000Y-83330000D03*
%TO.P,U4,30,PD0*%
%TO.N,/RX*%
X150565000Y-83330000D03*
%TO.P,U4,31,PD1*%
%TO.N,/TX*%
X149765000Y-83330000D03*
%TO.P,U4,32,PD2*%
%TO.N,/D2*%
X148965000Y-83330000D03*
%TD*%
D22*
%TO.P,U3,1,X1*%
%TO.N,Net-(U3-X1)*%
X137225000Y-92710000D03*
%TO.P,U3,2,X2*%
%TO.N,Net-(U3-X2)*%
X137225000Y-93980000D03*
%TO.P,U3,3,~{INTA}*%
%TO.N,Net-(U3-~{INTA})*%
X137225000Y-95250000D03*
%TO.P,U3,4,GND*%
%TO.N,GND*%
X137225000Y-96520000D03*
%TO.P,U3,5,SDA*%
%TO.N,/SDA*%
X142175000Y-96520000D03*
%TO.P,U3,6,SCL*%
%TO.N,/SCL*%
X142175000Y-95250000D03*
%TO.P,U3,7,SQW/~INT*%
%TO.N,Net-(U3-SQW{slash}~INT)*%
X142175000Y-93980000D03*
%TO.P,U3,8,VCC*%
%TO.N,/Vcc*%
X142175000Y-92710000D03*
%TD*%
D23*
%TO.N,/MISO*%
X155498800Y-92645900D03*
%TO.N,/SDA*%
X152501094Y-81766496D03*
X145186400Y-82600800D03*
%TO.N,/Vcc*%
X149541900Y-87020400D03*
X164947600Y-87884000D03*
X163749501Y-90301299D03*
X154584400Y-89204800D03*
X163728400Y-80416400D03*
X153924000Y-79400400D03*
X141071600Y-78892400D03*
X132943600Y-80416400D03*
X141528800Y-85242400D03*
X137718800Y-88544400D03*
X140004800Y-92964000D03*
X143713200Y-98399600D03*
X135382000Y-99517200D03*
%TO.N,GND*%
X164084000Y-96062800D03*
X162509200Y-81076800D03*
X166674800Y-81229200D03*
X158394400Y-79959200D03*
X149656800Y-86004400D03*
X154279600Y-86753100D03*
X138785600Y-80264000D03*
X141579600Y-80365600D03*
X141528800Y-86563200D03*
X135716499Y-97260899D03*
X134467600Y-89814400D03*
%TO.N,/SCK*%
X157060300Y-91541600D03*
X159156400Y-90932000D03*
%TO.N,/RESET*%
X151440500Y-85293200D03*
X166624000Y-85039200D03*
%TO.N,/D2*%
X137363200Y-101244400D03*
X147218400Y-82499200D03*
%TO.N,/SCL*%
X151333200Y-81852100D03*
X144983200Y-81381600D03*
%TO.N,Net-(U4-PB6)*%
X146215700Y-89662000D03*
%TO.N,/SCL*%
X161696400Y-91731500D03*
X166166800Y-93624400D03*
%TO.N,/SDA*%
X170840400Y-96367600D03*
X162001200Y-88087200D03*
%TO.N,Net-(U4-AREF)*%
X153162000Y-87630000D03*
X160629600Y-96215200D03*
%TO.N,Net-(U4-PB6)*%
X159613600Y-95758000D03*
X151384000Y-96520000D03*
%TO.N,Net-(U4-PB7)*%
X149148800Y-80822300D03*
X149656800Y-90576400D03*
X151688800Y-94640400D03*
%TO.N,/SCL*%
X152704800Y-86004400D03*
X160680400Y-88798400D03*
%TO.N,/SDA*%
X153873200Y-84988400D03*
X160680400Y-84988400D03*
%TO.N,/MOSI*%
X154127200Y-90271600D03*
X159156400Y-92456000D03*
%TD*%
D24*
%TO.N,/MISO*%
X155498800Y-92645900D02*
X155280900Y-92645900D01*
X155280900Y-92645900D02*
X154565000Y-91930000D01*
%TO.N,/SDA*%
X152501094Y-81766496D02*
X152501094Y-81866094D01*
X152501094Y-81866094D02*
X152965000Y-82330000D01*
X152965000Y-82330000D02*
X152965000Y-83330000D01*
%TO.N,/RX*%
X165100000Y-103505000D02*
X162839400Y-101244400D01*
X162839400Y-101244400D02*
X160375600Y-101244400D01*
X157784800Y-98653600D02*
X157784800Y-82042000D01*
X160375600Y-101244400D02*
X157784800Y-98653600D01*
X156558400Y-80815600D02*
X151708992Y-80815600D01*
X157784800Y-82042000D02*
X156558400Y-80815600D01*
X151708992Y-80815600D02*
X151682192Y-80842400D01*
X151682192Y-80842400D02*
X151110400Y-80842400D01*
X151110400Y-80842400D02*
X150565000Y-81387800D01*
X150565000Y-81387800D02*
X150565000Y-83330000D01*
%TO.N,/TX*%
X167640000Y-103505000D02*
X164922200Y-100787200D01*
X151495796Y-80392400D02*
X150646000Y-80392400D01*
X164922200Y-100787200D02*
X160680400Y-100787200D01*
X156744796Y-80365600D02*
X151522596Y-80365600D01*
X158431400Y-82052204D02*
X156744796Y-80365600D01*
X160680400Y-100787200D02*
X158431400Y-98538200D01*
X158431400Y-98538200D02*
X158431400Y-82052204D01*
X151522596Y-80365600D02*
X151495796Y-80392400D01*
X150646000Y-80392400D02*
X149765000Y-81273400D01*
X149765000Y-81273400D02*
X149765000Y-83330000D01*
%TO.N,Net-(U4-PB7)*%
X149148800Y-80822300D02*
X150028700Y-79942400D01*
X150028700Y-79942400D02*
X151309400Y-79942400D01*
X151309400Y-79942400D02*
X152359400Y-78892400D01*
%TO.N,/Vcc*%
X154432000Y-78892400D02*
X155514000Y-78892400D01*
X153924000Y-79400400D02*
X154432000Y-78892400D01*
%TO.N,GND*%
X148574800Y-78892400D02*
X150459400Y-78892400D01*
%TO.N,/SCL*%
X151562100Y-81852100D02*
X152165000Y-82455000D01*
X152165000Y-82455000D02*
X152165000Y-83330000D01*
X151333200Y-81852100D02*
X151562100Y-81852100D01*
%TO.N,/SDA*%
X145109800Y-82677400D02*
X145186400Y-82600800D01*
X143325400Y-82677400D02*
X145109800Y-82677400D01*
%TO.N,/SCK*%
X168554400Y-80111600D02*
X168554400Y-84023200D01*
X167350200Y-78907400D02*
X168554400Y-80111600D01*
X166928800Y-78907400D02*
X167350200Y-78907400D01*
X169153600Y-85740000D02*
X170810000Y-85740000D01*
X168554400Y-85140800D02*
X169153600Y-85740000D01*
X168554400Y-84023200D02*
X168554400Y-85140800D01*
X159156400Y-84531200D02*
X159664400Y-84023200D01*
X159664400Y-84023200D02*
X168554400Y-84023200D01*
X159156400Y-90932000D02*
X159156400Y-84531200D01*
%TO.N,/Vcc*%
X149332300Y-87230000D02*
X149541900Y-87020400D01*
X147465000Y-87230000D02*
X149332300Y-87230000D01*
%TO.N,GND*%
X149656800Y-86004400D02*
X150266400Y-86614000D01*
X150266400Y-86614000D02*
X150266400Y-87477600D01*
X149714000Y-88030000D02*
X147465000Y-88030000D01*
X150266400Y-87477600D02*
X149714000Y-88030000D01*
X149555200Y-86106000D02*
X148540000Y-86106000D01*
X149656800Y-86004400D02*
X149555200Y-86106000D01*
X148540000Y-86106000D02*
X148216000Y-86430000D01*
X148216000Y-86430000D02*
X147465000Y-86430000D01*
%TO.N,/Vcc*%
X164822500Y-87758900D02*
X164947600Y-87884000D01*
X164822500Y-86360000D02*
X164822500Y-87758900D01*
X162480000Y-86360000D02*
X164822500Y-86360000D01*
X163618202Y-90170000D02*
X163749501Y-90301299D01*
X162480000Y-90170000D02*
X163618202Y-90170000D01*
X155009600Y-89630000D02*
X154584400Y-89204800D01*
X156065000Y-89630000D02*
X155009600Y-89630000D01*
X162761300Y-79449300D02*
X163728400Y-80416400D01*
X162761300Y-78907400D02*
X162761300Y-79449300D01*
X141096600Y-78867400D02*
X141071600Y-78892400D01*
X143325400Y-78867400D02*
X141096600Y-78867400D01*
X133197600Y-80162400D02*
X132943600Y-80416400D01*
X134213600Y-79451200D02*
X134213600Y-80162400D01*
X134213600Y-80162400D02*
X133197600Y-80162400D01*
X134213600Y-80162400D02*
X134213600Y-80975200D01*
X142011400Y-85725000D02*
X141528800Y-85242400D01*
X143300000Y-85725000D02*
X142011400Y-85725000D01*
X137439400Y-88265000D02*
X137718800Y-88544400D01*
X136100000Y-88265000D02*
X137439400Y-88265000D01*
X140258800Y-92710000D02*
X140004800Y-92964000D01*
X142175000Y-92710000D02*
X140258800Y-92710000D01*
X143052800Y-99060000D02*
X143713200Y-98399600D01*
X142517500Y-99060000D02*
X143052800Y-99060000D01*
X135839200Y-99060000D02*
X135382000Y-99517200D01*
X136882500Y-99060000D02*
X135839200Y-99060000D01*
%TO.N,GND*%
X162517500Y-96062800D02*
X164084000Y-96062800D01*
X162517500Y-93980000D02*
X162517500Y-96062800D01*
X162517500Y-96062800D02*
X162517500Y-97790000D01*
X162480000Y-81106000D02*
X162509200Y-81076800D01*
X162480000Y-82550000D02*
X162480000Y-81106000D01*
X166647500Y-81256500D02*
X166674800Y-81229200D01*
X166647500Y-82550000D02*
X166647500Y-81256500D01*
X157414000Y-78978800D02*
X158394400Y-79959200D01*
X157414000Y-78892400D02*
X157414000Y-78978800D01*
X154756500Y-87230000D02*
X154279600Y-86753100D01*
X156065000Y-87230000D02*
X154756500Y-87230000D01*
%TO.N,Net-(U4-AREF)*%
X153162000Y-87630000D02*
X153562000Y-88030000D01*
X153562000Y-88030000D02*
X156065000Y-88030000D01*
%TO.N,GND*%
X137871200Y-80721200D02*
X138328400Y-80264000D01*
X137287400Y-80137400D02*
X137871200Y-80721200D01*
X138328400Y-80264000D02*
X138785600Y-80264000D01*
X137871200Y-80721200D02*
X137972800Y-80822800D01*
X141807800Y-80137400D02*
X141579600Y-80365600D01*
X143325400Y-80137400D02*
X141807800Y-80137400D01*
X141960600Y-86995000D02*
X141528800Y-86563200D01*
X143300000Y-86995000D02*
X141960600Y-86995000D01*
%TO.N,/SCL*%
X140462000Y-87223600D02*
X140944600Y-87706200D01*
X140944600Y-87706200D02*
X141503400Y-88265000D01*
X140919200Y-89255600D02*
X140919200Y-87731600D01*
X140919200Y-87731600D02*
X140944600Y-87706200D01*
X143325400Y-81407400D02*
X142680400Y-82052400D01*
X142680400Y-82052400D02*
X142478649Y-82052400D01*
X142478649Y-82052400D02*
X140462000Y-84069049D01*
X140462000Y-84069049D02*
X140462000Y-87223600D01*
X141503400Y-88265000D02*
X143300000Y-88265000D01*
X142175000Y-95250000D02*
X143154400Y-95250000D01*
X143154400Y-95250000D02*
X143611600Y-94792800D01*
X143611600Y-94792800D02*
X143611600Y-91948000D01*
X143611600Y-91948000D02*
X140919200Y-89255600D01*
%TO.N,GND*%
X136457398Y-96520000D02*
X135716499Y-97260899D01*
X137225000Y-96520000D02*
X136457398Y-96520000D01*
X134747000Y-89535000D02*
X134467600Y-89814400D01*
X136100000Y-89535000D02*
X134747000Y-89535000D01*
%TO.N,/SCK*%
X157060300Y-91425300D02*
X156065000Y-90430000D01*
X157060300Y-91541600D02*
X157060300Y-91425300D01*
%TO.N,/SDA*%
X162001200Y-88087200D02*
X161493200Y-88087200D01*
X160655000Y-87249000D02*
X160655000Y-86360000D01*
X161493200Y-88087200D02*
X160655000Y-87249000D01*
%TO.N,/MOSI*%
X173350000Y-85740000D02*
X171985000Y-87105000D01*
X171985000Y-87105000D02*
X171985000Y-88766701D01*
X168295701Y-92456000D02*
X159156400Y-92456000D01*
X171985000Y-88766701D02*
X168295701Y-92456000D01*
%TO.N,/RESET*%
X151440500Y-83405500D02*
X151365000Y-83330000D01*
X166647500Y-86360000D02*
X166647500Y-85062700D01*
X166647500Y-85062700D02*
X166624000Y-85039200D01*
X151440500Y-85293200D02*
X151440500Y-83405500D01*
%TO.N,/D2*%
X147218400Y-82499200D02*
X148134200Y-82499200D01*
X148134200Y-82499200D02*
X148965000Y-83330000D01*
X137007600Y-101244400D02*
X137363200Y-101244400D01*
X134620000Y-103632000D02*
X137007600Y-101244400D01*
%TO.N,/SCL*%
X144957400Y-81407400D02*
X144983200Y-81381600D01*
X143325400Y-81407400D02*
X144957400Y-81407400D01*
%TO.N,/D4*%
X146576800Y-85630000D02*
X147465000Y-85630000D01*
X145491200Y-86715600D02*
X146576800Y-85630000D01*
X145491200Y-94767404D02*
X145491200Y-86715600D01*
X145026800Y-95231804D02*
X145491200Y-94767404D01*
X142298000Y-101034000D02*
X143594796Y-101034000D01*
X143594796Y-101034000D02*
X145026800Y-99601996D01*
X145026800Y-99601996D02*
X145026800Y-95231804D01*
X139700000Y-103632000D02*
X142298000Y-101034000D01*
%TO.N,/D3*%
X140208000Y-100584000D02*
X137160000Y-103632000D01*
X143408400Y-100584000D02*
X140208000Y-100584000D01*
X144576800Y-99415600D02*
X143408400Y-100584000D01*
X145041200Y-94581008D02*
X144576800Y-95045408D01*
X145041200Y-86529204D02*
X145041200Y-94581008D01*
X147465000Y-84830000D02*
X146740404Y-84830000D01*
X144576800Y-95045408D02*
X144576800Y-99415600D01*
X146740404Y-84830000D02*
X145041200Y-86529204D01*
%TO.N,/SDA*%
X144145000Y-89535000D02*
X143300000Y-89535000D01*
X144591200Y-89088800D02*
X144145000Y-89535000D01*
X144591200Y-83943200D02*
X144591200Y-89088800D01*
X143325400Y-82677400D02*
X144591200Y-83943200D01*
%TO.N,Net-(U4-PB6)*%
X147433000Y-89662000D02*
X147465000Y-89630000D01*
X146215700Y-89662000D02*
X147433000Y-89662000D01*
%TO.N,/SCL*%
X173355000Y-99695000D02*
X172152919Y-99695000D01*
X161696400Y-91211400D02*
X160655000Y-90170000D01*
X172152919Y-99695000D02*
X166166800Y-93708881D01*
X166166800Y-93708881D02*
X166166800Y-93624400D01*
X161696400Y-91731500D02*
X161696400Y-91211400D01*
%TO.N,/SDA*%
X173355000Y-97155000D02*
X171627800Y-97155000D01*
X171627800Y-97155000D02*
X170840400Y-96367600D01*
%TO.N,Net-(U4-AREF)*%
X160617500Y-97790000D02*
X160617500Y-96227300D01*
X160617500Y-96227300D02*
X160629600Y-96215200D01*
%TO.N,Net-(U4-PB6)*%
X159613600Y-94983900D02*
X160617500Y-93980000D01*
X149165000Y-96520000D02*
X151384000Y-96520000D01*
X159613600Y-95758000D02*
X159613600Y-94983900D01*
%TO.N,Net-(U4-PB7)*%
X149656800Y-90576400D02*
X149250400Y-90576400D01*
X149250400Y-90576400D02*
X149104000Y-90430000D01*
X149104000Y-90430000D02*
X147465000Y-90430000D01*
X154365000Y-96520000D02*
X153568400Y-96520000D01*
X153568400Y-96520000D02*
X151688800Y-94640400D01*
%TO.N,Net-(D2-K)*%
X164822500Y-82550000D02*
X164822500Y-79138700D01*
X164822500Y-79138700D02*
X165053800Y-78907400D01*
%TO.N,Net-(D1-K)*%
X160655000Y-82550000D02*
X160655000Y-79138700D01*
X160655000Y-79138700D02*
X160886300Y-78907400D01*
%TO.N,/SCL*%
X152704800Y-86004400D02*
X152165000Y-85464600D01*
X160655000Y-90170000D02*
X160655000Y-88823800D01*
X160655000Y-88823800D02*
X160680400Y-88798400D01*
X152165000Y-85464600D02*
X152165000Y-83330000D01*
%TO.N,/SDA*%
X160655000Y-86360000D02*
X160655000Y-85013800D01*
X160655000Y-85013800D02*
X160680400Y-84988400D01*
X153873200Y-84988400D02*
X152965000Y-84080200D01*
X152965000Y-84080200D02*
X152965000Y-83330000D01*
%TO.N,/MOSI*%
X154127200Y-90271600D02*
X153765000Y-90633800D01*
X153765000Y-90633800D02*
X153765000Y-91930000D01*
%TO.N,/RESET*%
X170810000Y-88280000D02*
X168567500Y-88280000D01*
X168567500Y-88280000D02*
X166647500Y-86360000D01*
%TO.N,/SDA*%
X142175000Y-96520000D02*
X142657500Y-96520000D01*
X142657500Y-96520000D02*
X144119600Y-95057900D01*
X144119600Y-90354600D02*
X143300000Y-89535000D01*
X144119600Y-95057900D02*
X144119600Y-90354600D01*
%TO.N,GND*%
X143325400Y-80137400D02*
X147329800Y-80137400D01*
X147329800Y-80137400D02*
X148574800Y-78892400D01*
%TO.N,/Vcc*%
X143325400Y-78867400D02*
X146649800Y-78867400D01*
X146649800Y-78867400D02*
X146674800Y-78892400D01*
%TO.N,GND*%
X136125400Y-80137400D02*
X137287400Y-80137400D01*
X137972800Y-82092800D02*
X137388200Y-82677400D01*
X137972800Y-80822800D02*
X137972800Y-82092800D01*
X137388200Y-82677400D02*
X136125400Y-82677400D01*
%TO.N,/Vcc*%
X136125400Y-78867400D02*
X134797400Y-78867400D01*
X134797400Y-78867400D02*
X134213600Y-79451200D01*
X134213600Y-80975200D02*
X134645800Y-81407400D01*
X134645800Y-81407400D02*
X136125400Y-81407400D01*
X136100000Y-86995000D02*
X136100000Y-88265000D01*
X136100000Y-85725000D02*
X136100000Y-86995000D01*
%TO.N,Net-(U3-X2)*%
X132080000Y-98485000D02*
X133467800Y-98485000D01*
X133467800Y-98485000D02*
X135382000Y-96570800D01*
X135382000Y-96570800D02*
X135382000Y-94234000D01*
X135382000Y-94234000D02*
X135636000Y-93980000D01*
X135636000Y-93980000D02*
X137225000Y-93980000D01*
%TO.N,Net-(U3-X1)*%
X133333800Y-93285000D02*
X134467600Y-92151200D01*
X132080000Y-93285000D02*
X133333800Y-93285000D01*
X134467600Y-92151200D02*
X135026400Y-92710000D01*
X135026400Y-92710000D02*
X137225000Y-92710000D01*
%TO.N,Net-(U3-~{INTA})*%
X138707500Y-99060000D02*
X138633200Y-98985700D01*
X138633200Y-98985700D02*
X138633200Y-97383600D01*
X138633200Y-97383600D02*
X138988800Y-97028000D01*
X138988800Y-97028000D02*
X138988800Y-95808800D01*
X138430000Y-95250000D02*
X137225000Y-95250000D01*
X138988800Y-95808800D02*
X138430000Y-95250000D01*
%TO.N,Net-(U3-SQW{slash}~INT)*%
X140208000Y-97180400D02*
X140208000Y-94742000D01*
X140692500Y-99060000D02*
X140692500Y-97664900D01*
X140970000Y-93980000D02*
X142175000Y-93980000D01*
X140692500Y-97664900D02*
X140208000Y-97180400D01*
X140208000Y-94742000D02*
X140970000Y-93980000D01*
%TO.N,/D5*%
X143781192Y-101484000D02*
X145476800Y-99788392D01*
X142660800Y-101484000D02*
X143781192Y-101484000D01*
X145476800Y-99788392D02*
X145476800Y-95418200D01*
X142240000Y-103632000D02*
X142240000Y-101904800D01*
X145476800Y-95418200D02*
X148965000Y-91930000D01*
X142240000Y-101904800D02*
X142660800Y-101484000D01*
%TO.N,/D6*%
X145926800Y-102485200D02*
X145926800Y-95604596D01*
X148516596Y-93014800D02*
X149555200Y-93014800D01*
X145926800Y-95604596D02*
X148516596Y-93014800D01*
X149555200Y-93014800D02*
X149765000Y-92805000D01*
X149765000Y-92805000D02*
X149765000Y-91930000D01*
X144780000Y-103632000D02*
X145926800Y-102485200D01*
%TO.N,/D7*%
X149968800Y-93464800D02*
X150565000Y-92868600D01*
X146376800Y-95790992D02*
X148702992Y-93464800D01*
X147320000Y-103632000D02*
X146376800Y-102688800D01*
X150565000Y-92868600D02*
X150565000Y-91930000D01*
X146376800Y-102688800D02*
X146376800Y-95790992D01*
X148702992Y-93464800D02*
X149968800Y-93464800D01*
%TO.N,/D8*%
X156870400Y-94183200D02*
X156057600Y-93370400D01*
X156870400Y-99314000D02*
X156870400Y-94183200D01*
X151365000Y-92932200D02*
X151365000Y-91930000D01*
X151803200Y-93370400D02*
X151365000Y-92932200D01*
X149860000Y-103632000D02*
X152146000Y-101346000D01*
X156057600Y-93370400D02*
X151803200Y-93370400D01*
X154838400Y-101346000D02*
X156870400Y-99314000D01*
X152146000Y-101346000D02*
X154838400Y-101346000D01*
%TD*%
M02*
