%TF.GenerationSoftware,KiCad,Pcbnew,8.0.6*%
%TF.CreationDate,2024-11-26T14:09:56+01:00*%
%TF.ProjectId,Tiny Solar Supply,54696e79-2053-46f6-9c61-722053757070,rev?*%
%TF.SameCoordinates,Original*%
%TF.FileFunction,Copper,L2,Bot*%
%TF.FilePolarity,Positive*%
%FSLAX46Y46*%
G04 Gerber Fmt 4.6, Leading zero omitted, Abs format (unit mm)*
G04 Created by KiCad (PCBNEW 8.0.6) date 2024-11-26 14:09:56*
%MOMM*%
%LPD*%
G01*
G04 APERTURE LIST*
%TA.AperFunction,ComponentPad*%
%ADD10R,1.700000X1.700000*%
%TD*%
%TA.AperFunction,ComponentPad*%
%ADD11O,1.700000X1.700000*%
%TD*%
%TA.AperFunction,ViaPad*%
%ADD12C,0.600000*%
%TD*%
%TA.AperFunction,Conductor*%
%ADD13C,0.200000*%
%TD*%
G04 APERTURE END LIST*
D10*
%TO.P,J4,1,Pin_1*%
%TO.N,/SOLAR_P*%
X48260000Y-100330000D03*
D11*
%TO.P,J4,2,Pin_2*%
%TO.N,GNDD*%
X48260000Y-97790000D03*
%TD*%
D10*
%TO.P,J1,1,Pin_1*%
%TO.N,GNDD*%
X81350000Y-100960000D03*
D11*
%TO.P,J1,2,Pin_2*%
%TO.N,/OUT_P*%
X81350000Y-103500000D03*
%TD*%
D10*
%TO.P,J2,1,Pin_1*%
%TO.N,/BAT_P*%
X48260000Y-106685000D03*
D11*
%TO.P,J2,2,Pin_2*%
%TO.N,GNDD*%
X48260000Y-104145000D03*
%TD*%
D12*
%TO.N,GNDD*%
X63169800Y-110055000D03*
X69291200Y-99263200D03*
X55981600Y-108900000D03*
X65341500Y-108089700D03*
X72339200Y-104952800D03*
%TO.N,Net-(J3-Pin_1)*%
X64668400Y-102158800D03*
X71780400Y-102463600D03*
%TO.N,Net-(U1-FB)*%
X63500000Y-108102400D03*
X70993000Y-108381800D03*
%TD*%
D13*
%TO.N,Net-(J3-Pin_1)*%
X64973200Y-102463600D02*
X64668400Y-102158800D01*
X71780400Y-102463600D02*
X64973200Y-102463600D01*
%TO.N,Net-(U1-FB)*%
X66446400Y-107391200D02*
X64211200Y-107391200D01*
X70993000Y-108381800D02*
X67437000Y-108381800D01*
X64211200Y-107391200D02*
X63500000Y-108102400D01*
X66700400Y-107645200D02*
X66446400Y-107391200D01*
X67437000Y-108381800D02*
X66700400Y-107645200D01*
%TD*%
%TA.AperFunction,Conductor*%
%TO.N,GNDD*%
G36*
X82172202Y-92856685D02*
G01*
X82217957Y-92909489D01*
X82227901Y-92978647D01*
X82198876Y-93042203D01*
X82174053Y-93064102D01*
X82162765Y-93071644D01*
X82162757Y-93071650D01*
X82022650Y-93211757D01*
X82022644Y-93211765D01*
X81912562Y-93376515D01*
X81912560Y-93376518D01*
X81836735Y-93559578D01*
X81836732Y-93559590D01*
X81798077Y-93753920D01*
X81798077Y-93952079D01*
X81836732Y-94146409D01*
X81836735Y-94146421D01*
X81912560Y-94329481D01*
X81912562Y-94329484D01*
X82022644Y-94494234D01*
X82022650Y-94494242D01*
X82162757Y-94634349D01*
X82162765Y-94634355D01*
X82327515Y-94744437D01*
X82327518Y-94744439D01*
X82510578Y-94820264D01*
X82510583Y-94820266D01*
X82596917Y-94837439D01*
X82678791Y-94853725D01*
X82740702Y-94886110D01*
X82775276Y-94946825D01*
X82778600Y-94975342D01*
X82778600Y-99676021D01*
X82758915Y-99743060D01*
X82706111Y-99788815D01*
X82636953Y-99798759D01*
X82573397Y-99769734D01*
X82563469Y-99759072D01*
X82563460Y-99759082D01*
X82557187Y-99752809D01*
X82442093Y-99666649D01*
X82442086Y-99666645D01*
X82307379Y-99616403D01*
X82307372Y-99616401D01*
X82247844Y-99610000D01*
X81600000Y-99610000D01*
X81600000Y-100526988D01*
X81542993Y-100494075D01*
X81415826Y-100460000D01*
X81284174Y-100460000D01*
X81157007Y-100494075D01*
X81100000Y-100526988D01*
X81100000Y-99610000D01*
X80452155Y-99610000D01*
X80392627Y-99616401D01*
X80392620Y-99616403D01*
X80257913Y-99666645D01*
X80257906Y-99666649D01*
X80142812Y-99752809D01*
X80142809Y-99752812D01*
X80056649Y-99867906D01*
X80056645Y-99867913D01*
X80006403Y-100002620D01*
X80006401Y-100002627D01*
X80000000Y-100062155D01*
X80000000Y-100710000D01*
X80916988Y-100710000D01*
X80884075Y-100767007D01*
X80850000Y-100894174D01*
X80850000Y-101025826D01*
X80884075Y-101152993D01*
X80916988Y-101210000D01*
X80000000Y-101210000D01*
X80000000Y-101857844D01*
X80006401Y-101917372D01*
X80006403Y-101917379D01*
X80056645Y-102052086D01*
X80056649Y-102052093D01*
X80142809Y-102167187D01*
X80142812Y-102167190D01*
X80257906Y-102253350D01*
X80257913Y-102253354D01*
X80389470Y-102302421D01*
X80445403Y-102344292D01*
X80469821Y-102409756D01*
X80454970Y-102478029D01*
X80433819Y-102506284D01*
X80311503Y-102628600D01*
X80175965Y-102822169D01*
X80175964Y-102822171D01*
X80076098Y-103036335D01*
X80076094Y-103036344D01*
X80014938Y-103264586D01*
X80014936Y-103264596D01*
X79994341Y-103499999D01*
X79994341Y-103500000D01*
X80014936Y-103735403D01*
X80014938Y-103735413D01*
X80076094Y-103963655D01*
X80076096Y-103963659D01*
X80076097Y-103963663D01*
X80121999Y-104062100D01*
X80175965Y-104177830D01*
X80175967Y-104177834D01*
X80241203Y-104271000D01*
X80311505Y-104371401D01*
X80478599Y-104538495D01*
X80547871Y-104587000D01*
X80672165Y-104674032D01*
X80672167Y-104674033D01*
X80672170Y-104674035D01*
X80886337Y-104773903D01*
X81114592Y-104835063D01*
X81302918Y-104851539D01*
X81349999Y-104855659D01*
X81350000Y-104855659D01*
X81350001Y-104855659D01*
X81389234Y-104852226D01*
X81585408Y-104835063D01*
X81813663Y-104773903D01*
X82027830Y-104674035D01*
X82221401Y-104538495D01*
X82388495Y-104371401D01*
X82524035Y-104177830D01*
X82542219Y-104138832D01*
X82588389Y-104086396D01*
X82655583Y-104067244D01*
X82722464Y-104087459D01*
X82767799Y-104140624D01*
X82778600Y-104191240D01*
X82778600Y-109621657D01*
X82758915Y-109688696D01*
X82706111Y-109734451D01*
X82678792Y-109743274D01*
X82510588Y-109776732D01*
X82510578Y-109776735D01*
X82327518Y-109852560D01*
X82327515Y-109852562D01*
X82162765Y-109962644D01*
X82162757Y-109962650D01*
X82022650Y-110102757D01*
X82022644Y-110102765D01*
X81912562Y-110267515D01*
X81912560Y-110267518D01*
X81836735Y-110450578D01*
X81836732Y-110450590D01*
X81798077Y-110644920D01*
X81798077Y-110843079D01*
X81836732Y-111037409D01*
X81836735Y-111037421D01*
X81912560Y-111220481D01*
X81912562Y-111220484D01*
X82022644Y-111385234D01*
X82022650Y-111385242D01*
X82162757Y-111525349D01*
X82162765Y-111525355D01*
X82250081Y-111583698D01*
X82294887Y-111637310D01*
X82303594Y-111706635D01*
X82273440Y-111769662D01*
X82213997Y-111806382D01*
X82181191Y-111810800D01*
X47612809Y-111810800D01*
X47545770Y-111791115D01*
X47500015Y-111738311D01*
X47490071Y-111669153D01*
X47519096Y-111605597D01*
X47543919Y-111583698D01*
X47606741Y-111541720D01*
X47631239Y-111525352D01*
X47771352Y-111385239D01*
X47881438Y-111220483D01*
X47957266Y-111037417D01*
X47995923Y-110843075D01*
X47998351Y-110744000D01*
X47995923Y-110644925D01*
X47957266Y-110450583D01*
X47957264Y-110450578D01*
X47881439Y-110267518D01*
X47881437Y-110267515D01*
X47771355Y-110102765D01*
X47771349Y-110102757D01*
X47631242Y-109962650D01*
X47631234Y-109962644D01*
X47466484Y-109852562D01*
X47466481Y-109852560D01*
X47283421Y-109776735D01*
X47283409Y-109776732D01*
X47089078Y-109738077D01*
X47089075Y-109738077D01*
X47037800Y-109738077D01*
X46970761Y-109718392D01*
X46925006Y-109665588D01*
X46913800Y-109614077D01*
X46913800Y-108928528D01*
X49661800Y-108928528D01*
X49661800Y-109587000D01*
X51163800Y-109587000D01*
X52161800Y-109587000D01*
X53663800Y-109587000D01*
X53663800Y-108411980D01*
X57161800Y-108411980D01*
X57169538Y-108427521D01*
X57177803Y-108448858D01*
X57236128Y-108653849D01*
X57240333Y-108676342D01*
X57259998Y-108888559D01*
X57259998Y-108911441D01*
X57240333Y-109123658D01*
X57236128Y-109146151D01*
X57177803Y-109351142D01*
X57169537Y-109372480D01*
X57161800Y-109388017D01*
X57161800Y-109587000D01*
X58663800Y-109587000D01*
X59661800Y-109587000D01*
X61163800Y-109587000D01*
X72331262Y-109587000D01*
X73663800Y-109587000D01*
X74661800Y-109587000D01*
X76163800Y-109587000D01*
X77161800Y-109587000D01*
X78663800Y-109587000D01*
X79661800Y-109587000D01*
X81163800Y-109587000D01*
X81163800Y-108085000D01*
X79661800Y-108085000D01*
X79661800Y-109587000D01*
X78663800Y-109587000D01*
X78663800Y-108085000D01*
X77161800Y-108085000D01*
X77161800Y-109587000D01*
X76163800Y-109587000D01*
X76163800Y-108085000D01*
X74661800Y-108085000D01*
X74661800Y-109587000D01*
X73663800Y-109587000D01*
X73663800Y-108085000D01*
X72769439Y-108085000D01*
X72793425Y-108297892D01*
X72794010Y-108304821D01*
X72796370Y-108346839D01*
X72796565Y-108353793D01*
X72796565Y-108409807D01*
X72796370Y-108416761D01*
X72794010Y-108458779D01*
X72793425Y-108465708D01*
X72766958Y-108700620D01*
X72765986Y-108707507D01*
X72758938Y-108748991D01*
X72757582Y-108755811D01*
X72745119Y-108810421D01*
X72743381Y-108817158D01*
X72731728Y-108857607D01*
X72729616Y-108864234D01*
X72651535Y-109087378D01*
X72649053Y-109093879D01*
X72632945Y-109132765D01*
X72630105Y-109139112D01*
X72605801Y-109189579D01*
X72602608Y-109195759D01*
X72582252Y-109232590D01*
X72578719Y-109238580D01*
X72452944Y-109438748D01*
X72449078Y-109444533D01*
X72424720Y-109478861D01*
X72420538Y-109484418D01*
X72385614Y-109528210D01*
X72381127Y-109533524D01*
X72353087Y-109564900D01*
X72348309Y-109569953D01*
X72331262Y-109587000D01*
X61163800Y-109587000D01*
X61163800Y-108102396D01*
X62694435Y-108102396D01*
X62694435Y-108102403D01*
X62714630Y-108281649D01*
X62714631Y-108281654D01*
X62774211Y-108451923D01*
X62842780Y-108561049D01*
X62870184Y-108604662D01*
X62997738Y-108732216D01*
X63150478Y-108828189D01*
X63286448Y-108875767D01*
X63320745Y-108887768D01*
X63320750Y-108887769D01*
X63499996Y-108907965D01*
X63500000Y-108907965D01*
X63500004Y-108907965D01*
X63679249Y-108887769D01*
X63679252Y-108887768D01*
X63679255Y-108887768D01*
X63849522Y-108828189D01*
X64002262Y-108732216D01*
X64129816Y-108604662D01*
X64225789Y-108451922D01*
X64285368Y-108281655D01*
X64295161Y-108194730D01*
X64322226Y-108130320D01*
X64330701Y-108120934D01*
X64423619Y-108028018D01*
X64484942Y-107994534D01*
X64511299Y-107991700D01*
X66146303Y-107991700D01*
X66213342Y-108011385D01*
X66233983Y-108028018D01*
X67068284Y-108862320D01*
X67068286Y-108862321D01*
X67068290Y-108862324D01*
X67205209Y-108941373D01*
X67205216Y-108941377D01*
X67357943Y-108982301D01*
X67357945Y-108982301D01*
X67523654Y-108982301D01*
X67523670Y-108982300D01*
X70410588Y-108982300D01*
X70477627Y-109001985D01*
X70487903Y-109009355D01*
X70490736Y-109011614D01*
X70490738Y-109011616D01*
X70643478Y-109107589D01*
X70689401Y-109123658D01*
X70813745Y-109167168D01*
X70813750Y-109167169D01*
X70992996Y-109187365D01*
X70993000Y-109187365D01*
X70993004Y-109187365D01*
X71172249Y-109167169D01*
X71172252Y-109167168D01*
X71172255Y-109167168D01*
X71342522Y-109107589D01*
X71495262Y-109011616D01*
X71622816Y-108884062D01*
X71718789Y-108731322D01*
X71778368Y-108561055D01*
X71790664Y-108451923D01*
X71798565Y-108381803D01*
X71798565Y-108381796D01*
X71778369Y-108202550D01*
X71778368Y-108202545D01*
X71719916Y-108035499D01*
X71718789Y-108032278D01*
X71716786Y-108029091D01*
X71679300Y-107969432D01*
X71622816Y-107879538D01*
X71495262Y-107751984D01*
X71484117Y-107744981D01*
X71342523Y-107656011D01*
X71172254Y-107596431D01*
X71172249Y-107596430D01*
X70993004Y-107576235D01*
X70992996Y-107576235D01*
X70813750Y-107596430D01*
X70813745Y-107596431D01*
X70643476Y-107656011D01*
X70490736Y-107751985D01*
X70487903Y-107754245D01*
X70485724Y-107755134D01*
X70484842Y-107755689D01*
X70484744Y-107755534D01*
X70423217Y-107780655D01*
X70410588Y-107781300D01*
X67737098Y-107781300D01*
X67670059Y-107761615D01*
X67649417Y-107744981D01*
X67069116Y-107164681D01*
X66933990Y-107029555D01*
X66933988Y-107029552D01*
X66815117Y-106910681D01*
X66815116Y-106910680D01*
X66728304Y-106860560D01*
X66728304Y-106860559D01*
X66728300Y-106860558D01*
X66678185Y-106831623D01*
X66525457Y-106790699D01*
X66367343Y-106790699D01*
X66359747Y-106790699D01*
X66359731Y-106790700D01*
X64297870Y-106790700D01*
X64297854Y-106790699D01*
X64290258Y-106790699D01*
X64132143Y-106790699D01*
X64055779Y-106811161D01*
X63979414Y-106831623D01*
X63979409Y-106831626D01*
X63842490Y-106910675D01*
X63842482Y-106910681D01*
X63481465Y-107271698D01*
X63420142Y-107305183D01*
X63407668Y-107307237D01*
X63320750Y-107317030D01*
X63150478Y-107376610D01*
X62997737Y-107472584D01*
X62870184Y-107600137D01*
X62774211Y-107752876D01*
X62714631Y-107923145D01*
X62714630Y-107923150D01*
X62694435Y-108102396D01*
X61163800Y-108102396D01*
X61163800Y-108085000D01*
X59661800Y-108085000D01*
X59661800Y-109587000D01*
X58663800Y-109587000D01*
X58663800Y-108085000D01*
X57161800Y-108085000D01*
X57161800Y-108411980D01*
X53663800Y-108411980D01*
X53663800Y-108085000D01*
X52161800Y-108085000D01*
X52161800Y-109587000D01*
X51163800Y-109587000D01*
X51163800Y-108085000D01*
X50504200Y-108085000D01*
X50476413Y-108159502D01*
X50473025Y-108167682D01*
X50450767Y-108216419D01*
X50446805Y-108224333D01*
X50412628Y-108286923D01*
X50408110Y-108294537D01*
X50379146Y-108339604D01*
X50374098Y-108346874D01*
X50245114Y-108519173D01*
X50239561Y-108526064D01*
X50204481Y-108566549D01*
X50198449Y-108573028D01*
X50148028Y-108623449D01*
X50141549Y-108629481D01*
X50101064Y-108664561D01*
X50094173Y-108670114D01*
X49921874Y-108799098D01*
X49914604Y-108804146D01*
X49869537Y-108833110D01*
X49861923Y-108837628D01*
X49799333Y-108871805D01*
X49791419Y-108875767D01*
X49742682Y-108898025D01*
X49734501Y-108901413D01*
X49661800Y-108928528D01*
X46913800Y-108928528D01*
X46913800Y-108036471D01*
X46933485Y-107969432D01*
X46986289Y-107923677D01*
X47055447Y-107913733D01*
X47112108Y-107937203D01*
X47167665Y-107978793D01*
X47167668Y-107978795D01*
X47167671Y-107978797D01*
X47302517Y-108029091D01*
X47302516Y-108029091D01*
X47309444Y-108029835D01*
X47362127Y-108035500D01*
X49157872Y-108035499D01*
X49217483Y-108029091D01*
X49352331Y-107978796D01*
X49467546Y-107892546D01*
X49553796Y-107777331D01*
X49604091Y-107642483D01*
X49610500Y-107582873D01*
X49610499Y-105787128D01*
X49604091Y-105727517D01*
X49601621Y-105720895D01*
X49553797Y-105592671D01*
X49553793Y-105592664D01*
X49548056Y-105585000D01*
X50592368Y-105585000D01*
X50593041Y-105589833D01*
X50604212Y-105693755D01*
X50604523Y-105697064D01*
X50606135Y-105717101D01*
X50606357Y-105720413D01*
X50607786Y-105747095D01*
X50607919Y-105750413D01*
X50608455Y-105770464D01*
X50608499Y-105773778D01*
X50608500Y-107087000D01*
X51163800Y-107087000D01*
X52161800Y-107087000D01*
X53663800Y-107087000D01*
X54661800Y-107087000D01*
X56163800Y-107087000D01*
X57161800Y-107087000D01*
X58663800Y-107087000D01*
X59661800Y-107087000D01*
X61163800Y-107087000D01*
X61163800Y-106897138D01*
X62161800Y-106897138D01*
X62311847Y-106747091D01*
X62316900Y-106742313D01*
X62348276Y-106714273D01*
X62353590Y-106709786D01*
X62397382Y-106674862D01*
X62402939Y-106670680D01*
X62437267Y-106646322D01*
X62443052Y-106642456D01*
X62643220Y-106516681D01*
X62649210Y-106513148D01*
X62686041Y-106492792D01*
X62692221Y-106489599D01*
X62742688Y-106465295D01*
X62749036Y-106462455D01*
X62787925Y-106446346D01*
X62794425Y-106443864D01*
X62953617Y-106388161D01*
X63159897Y-106181883D01*
X63165818Y-106176337D01*
X63202729Y-106143966D01*
X63208999Y-106138820D01*
X63260852Y-106099029D01*
X63267451Y-106094300D01*
X63308290Y-106067012D01*
X63315182Y-106062726D01*
X63495803Y-105958446D01*
X67161800Y-105958446D01*
X67227313Y-105996271D01*
X67227314Y-105996272D01*
X67342417Y-106062726D01*
X67349308Y-106067011D01*
X67390148Y-106094299D01*
X67396748Y-106099029D01*
X67448601Y-106138820D01*
X67454871Y-106143966D01*
X67491782Y-106176337D01*
X67497703Y-106181882D01*
X67665873Y-106350051D01*
X67665901Y-106350082D01*
X67774802Y-106458983D01*
X67774808Y-106458988D01*
X68099121Y-106783300D01*
X68663800Y-106783300D01*
X69661800Y-106783300D01*
X70158943Y-106783300D01*
X70179041Y-106772192D01*
X70185221Y-106768999D01*
X70235688Y-106744695D01*
X70242035Y-106741855D01*
X70280921Y-106725747D01*
X70287422Y-106723265D01*
X70510566Y-106645184D01*
X70517193Y-106643072D01*
X70557642Y-106631419D01*
X70564379Y-106629681D01*
X70618989Y-106617218D01*
X70625809Y-106615862D01*
X70667293Y-106608814D01*
X70674180Y-106607842D01*
X70909092Y-106581375D01*
X70916021Y-106580790D01*
X70958039Y-106578430D01*
X70964993Y-106578235D01*
X71021007Y-106578235D01*
X71027961Y-106578430D01*
X71069979Y-106580790D01*
X71076907Y-106581375D01*
X71163800Y-106591164D01*
X71163800Y-106215706D01*
X72161800Y-106215706D01*
X72161800Y-107008933D01*
X72176100Y-107021713D01*
X72181153Y-107026491D01*
X72241662Y-107087000D01*
X73663800Y-107087000D01*
X74661800Y-107087000D01*
X76163800Y-107087000D01*
X77161800Y-107087000D01*
X78663800Y-107087000D01*
X79661800Y-107087000D01*
X81163800Y-107087000D01*
X81163800Y-105841179D01*
X81005916Y-105827367D01*
X81000539Y-105826778D01*
X80968096Y-105822507D01*
X80962749Y-105821684D01*
X80919854Y-105814121D01*
X80914546Y-105813066D01*
X80882588Y-105805981D01*
X80877334Y-105804695D01*
X80606992Y-105732259D01*
X80601795Y-105730744D01*
X80570560Y-105720895D01*
X80565432Y-105719154D01*
X80524500Y-105704253D01*
X80519465Y-105702295D01*
X80489244Y-105689777D01*
X80484292Y-105687598D01*
X80264272Y-105585000D01*
X79661800Y-105585000D01*
X79661800Y-107087000D01*
X78663800Y-107087000D01*
X78663800Y-105585000D01*
X77161800Y-105585000D01*
X77161800Y-107087000D01*
X76163800Y-107087000D01*
X76163800Y-105585000D01*
X74661800Y-105585000D01*
X74661800Y-107087000D01*
X73663800Y-107087000D01*
X73663800Y-105585000D01*
X73447607Y-105585000D01*
X73432139Y-105616063D01*
X73420093Y-105635518D01*
X73291655Y-105805596D01*
X73276240Y-105822506D01*
X73118738Y-105966089D01*
X73100476Y-105979879D01*
X72919272Y-106092075D01*
X72898789Y-106102275D01*
X72700055Y-106179265D01*
X72678046Y-106185527D01*
X72468548Y-106224689D01*
X72445763Y-106226800D01*
X72232637Y-106226800D01*
X72209852Y-106224689D01*
X72161800Y-106215706D01*
X71163800Y-106215706D01*
X71163800Y-105585000D01*
X69661800Y-105585000D01*
X69661800Y-106783300D01*
X68663800Y-106783300D01*
X68663800Y-105585000D01*
X67161800Y-105585000D01*
X67161800Y-105958446D01*
X63495803Y-105958446D01*
X63508724Y-105950986D01*
X63515879Y-105947162D01*
X63559923Y-105925442D01*
X63567316Y-105922092D01*
X63627698Y-105897082D01*
X63635293Y-105894224D01*
X63663800Y-105884547D01*
X63663800Y-105585000D01*
X62161800Y-105585000D01*
X62161800Y-106897138D01*
X61163800Y-106897138D01*
X61163800Y-105585000D01*
X59661800Y-105585000D01*
X59661800Y-107087000D01*
X58663800Y-107087000D01*
X58663800Y-105585000D01*
X57161800Y-105585000D01*
X57161800Y-107087000D01*
X56163800Y-107087000D01*
X56163800Y-105585000D01*
X54661800Y-105585000D01*
X54661800Y-107087000D01*
X53663800Y-107087000D01*
X53663800Y-105585000D01*
X52161800Y-105585000D01*
X52161800Y-107087000D01*
X51163800Y-107087000D01*
X51163800Y-105585000D01*
X50592368Y-105585000D01*
X49548056Y-105585000D01*
X49467547Y-105477455D01*
X49467544Y-105477452D01*
X49352335Y-105391206D01*
X49352328Y-105391202D01*
X49220401Y-105341997D01*
X49164467Y-105300126D01*
X49140050Y-105234662D01*
X49154902Y-105166389D01*
X49176053Y-105138133D01*
X49298108Y-105016078D01*
X49433600Y-104822578D01*
X49533429Y-104608492D01*
X49533432Y-104608486D01*
X49590636Y-104395000D01*
X48693012Y-104395000D01*
X48725925Y-104337993D01*
X48760000Y-104210826D01*
X48760000Y-104079174D01*
X48725925Y-103952007D01*
X48693012Y-103895000D01*
X49590636Y-103895000D01*
X49590635Y-103894999D01*
X49533432Y-103681513D01*
X49533429Y-103681507D01*
X49433600Y-103467422D01*
X49433599Y-103467420D01*
X49298113Y-103273926D01*
X49298108Y-103273920D01*
X49131082Y-103106894D01*
X49099815Y-103085000D01*
X50356445Y-103085000D01*
X50447126Y-103279465D01*
X50449304Y-103284416D01*
X50461822Y-103314636D01*
X50463782Y-103319674D01*
X50478682Y-103360605D01*
X50480422Y-103365729D01*
X50490271Y-103396962D01*
X50491786Y-103402160D01*
X50615719Y-103864682D01*
X50617561Y-103920968D01*
X50572997Y-104145000D01*
X50617561Y-104369032D01*
X50615719Y-104425318D01*
X50572396Y-104587000D01*
X51163800Y-104587000D01*
X52161800Y-104587000D01*
X53663800Y-104587000D01*
X54661800Y-104587000D01*
X56163800Y-104587000D01*
X57161800Y-104587000D01*
X58663800Y-104587000D01*
X59661800Y-104587000D01*
X61163800Y-104587000D01*
X62161800Y-104587000D01*
X63663800Y-104587000D01*
X64661800Y-104587000D01*
X66163800Y-104587000D01*
X67161800Y-104587000D01*
X68663800Y-104587000D01*
X69661800Y-104587000D01*
X71118715Y-104587000D01*
X71142997Y-104501658D01*
X71151262Y-104480321D01*
X71163800Y-104455140D01*
X71163800Y-104153269D01*
X71074822Y-104122135D01*
X71068321Y-104119653D01*
X71029435Y-104103545D01*
X71023088Y-104100705D01*
X70972621Y-104076401D01*
X70966441Y-104073208D01*
X70946343Y-104062100D01*
X69661800Y-104062100D01*
X69661800Y-104587000D01*
X68663800Y-104587000D01*
X68663800Y-104062100D01*
X67161800Y-104062100D01*
X67161800Y-104587000D01*
X66163800Y-104587000D01*
X66163800Y-104062100D01*
X64861459Y-104062100D01*
X64853349Y-104061835D01*
X64804343Y-104058623D01*
X64796264Y-104057827D01*
X64731464Y-104049294D01*
X64723460Y-104047972D01*
X64675306Y-104038393D01*
X64667406Y-104036551D01*
X64661800Y-104035048D01*
X64661800Y-104587000D01*
X63663800Y-104587000D01*
X63663800Y-103833860D01*
X72952115Y-103833860D01*
X73100476Y-103925721D01*
X73118738Y-103939511D01*
X73276240Y-104083094D01*
X73291655Y-104100004D01*
X73420093Y-104270082D01*
X73432139Y-104289538D01*
X73527137Y-104480321D01*
X73535403Y-104501658D01*
X73559685Y-104587000D01*
X73663800Y-104587000D01*
X74661800Y-104587000D01*
X76163800Y-104587000D01*
X77161800Y-104587000D01*
X78663800Y-104587000D01*
X78663800Y-103085000D01*
X77161800Y-103085000D01*
X77161800Y-104587000D01*
X76163800Y-104587000D01*
X76163800Y-103085000D01*
X74661800Y-103085000D01*
X74661800Y-104587000D01*
X73663800Y-104587000D01*
X73663800Y-103085000D01*
X73468390Y-103085000D01*
X73438935Y-103169178D01*
X73436453Y-103175679D01*
X73420345Y-103214565D01*
X73417505Y-103220912D01*
X73393201Y-103271379D01*
X73390008Y-103277559D01*
X73369652Y-103314390D01*
X73366119Y-103320380D01*
X73240344Y-103520548D01*
X73236478Y-103526333D01*
X73212120Y-103560661D01*
X73207938Y-103566218D01*
X73173014Y-103610010D01*
X73168527Y-103615324D01*
X73140487Y-103646700D01*
X73135709Y-103651753D01*
X72968553Y-103818909D01*
X72963500Y-103823687D01*
X72952115Y-103833860D01*
X63663800Y-103833860D01*
X63663800Y-103651636D01*
X63611452Y-103618744D01*
X63605667Y-103614878D01*
X63571339Y-103590520D01*
X63565782Y-103586338D01*
X63521990Y-103551414D01*
X63516676Y-103546927D01*
X63485300Y-103518887D01*
X63480247Y-103514109D01*
X63313091Y-103346953D01*
X63308313Y-103341900D01*
X63280273Y-103310524D01*
X63275786Y-103305210D01*
X63240862Y-103261418D01*
X63236680Y-103255861D01*
X63212322Y-103221533D01*
X63208456Y-103215748D01*
X63126301Y-103085000D01*
X62161800Y-103085000D01*
X62161800Y-104587000D01*
X61163800Y-104587000D01*
X61163800Y-103085000D01*
X59661800Y-103085000D01*
X59661800Y-104587000D01*
X58663800Y-104587000D01*
X58663800Y-103085000D01*
X57161800Y-103085000D01*
X57161800Y-104587000D01*
X56163800Y-104587000D01*
X56163800Y-103085000D01*
X54661800Y-103085000D01*
X54661800Y-104587000D01*
X53663800Y-104587000D01*
X53663800Y-103085000D01*
X52161800Y-103085000D01*
X52161800Y-104587000D01*
X51163800Y-104587000D01*
X51163800Y-103085000D01*
X50356445Y-103085000D01*
X49099815Y-103085000D01*
X48937578Y-102971399D01*
X48723492Y-102871570D01*
X48723486Y-102871567D01*
X48510000Y-102814364D01*
X48510000Y-103711988D01*
X48452993Y-103679075D01*
X48325826Y-103645000D01*
X48194174Y-103645000D01*
X48067007Y-103679075D01*
X48010000Y-103711988D01*
X48010000Y-102814364D01*
X48009999Y-102814364D01*
X47796513Y-102871567D01*
X47796507Y-102871570D01*
X47582422Y-102971399D01*
X47582420Y-102971400D01*
X47388926Y-103106886D01*
X47388920Y-103106891D01*
X47221891Y-103273920D01*
X47221886Y-103273927D01*
X47139375Y-103391765D01*
X47084798Y-103435390D01*
X47015300Y-103442583D01*
X46952945Y-103411061D01*
X46917531Y-103350831D01*
X46913800Y-103320642D01*
X46913800Y-102158796D01*
X63862835Y-102158796D01*
X63862835Y-102158803D01*
X63883030Y-102338049D01*
X63883031Y-102338054D01*
X63942611Y-102508323D01*
X64018186Y-102628599D01*
X64038584Y-102661062D01*
X64166138Y-102788616D01*
X64256480Y-102845382D01*
X64298153Y-102871567D01*
X64318878Y-102884589D01*
X64489145Y-102944168D01*
X64489150Y-102944169D01*
X64581095Y-102954528D01*
X64606843Y-102957429D01*
X64654955Y-102973259D01*
X64691292Y-102994237D01*
X64691294Y-102994239D01*
X64691295Y-102994239D01*
X64741415Y-103023177D01*
X64894142Y-103064100D01*
X64894143Y-103064100D01*
X71197988Y-103064100D01*
X71265027Y-103083785D01*
X71275303Y-103091155D01*
X71278136Y-103093414D01*
X71278138Y-103093416D01*
X71430878Y-103189389D01*
X71601145Y-103248968D01*
X71601150Y-103248969D01*
X71780396Y-103269165D01*
X71780400Y-103269165D01*
X71780404Y-103269165D01*
X71959649Y-103248969D01*
X71959652Y-103248968D01*
X71959655Y-103248968D01*
X72129922Y-103189389D01*
X72282662Y-103093416D01*
X72410216Y-102965862D01*
X72506189Y-102813122D01*
X72565768Y-102642855D01*
X72567374Y-102628600D01*
X72585965Y-102463603D01*
X72585965Y-102463596D01*
X72565769Y-102284350D01*
X72565768Y-102284345D01*
X72545386Y-102226097D01*
X72506189Y-102114078D01*
X72410216Y-101961338D01*
X72282662Y-101833784D01*
X72281562Y-101833093D01*
X72129923Y-101737811D01*
X71959654Y-101678231D01*
X71959649Y-101678230D01*
X71780404Y-101658035D01*
X71780396Y-101658035D01*
X71601150Y-101678230D01*
X71601145Y-101678231D01*
X71430876Y-101737811D01*
X71278136Y-101833785D01*
X71275303Y-101836045D01*
X71273124Y-101836934D01*
X71272242Y-101837489D01*
X71272144Y-101837334D01*
X71210617Y-101862455D01*
X71197988Y-101863100D01*
X65496540Y-101863100D01*
X65429501Y-101843415D01*
X65391546Y-101805072D01*
X65383087Y-101791609D01*
X65298216Y-101656538D01*
X65170662Y-101528984D01*
X65103239Y-101486619D01*
X65017923Y-101433011D01*
X64847654Y-101373431D01*
X64847649Y-101373430D01*
X64668404Y-101353235D01*
X64668396Y-101353235D01*
X64489150Y-101373430D01*
X64489145Y-101373431D01*
X64318876Y-101433011D01*
X64166137Y-101528984D01*
X64038584Y-101656537D01*
X63942611Y-101809276D01*
X63883031Y-101979545D01*
X63883030Y-101979550D01*
X63862835Y-102158796D01*
X46913800Y-102158796D01*
X46913800Y-102087000D01*
X50302886Y-102087000D01*
X51163800Y-102087000D01*
X52161800Y-102087000D01*
X53663800Y-102087000D01*
X54661800Y-102087000D01*
X56163800Y-102087000D01*
X57161800Y-102087000D01*
X58663800Y-102087000D01*
X59661800Y-102087000D01*
X61163800Y-102087000D01*
X62161800Y-102087000D01*
X62867099Y-102087000D01*
X62867390Y-102081821D01*
X62867975Y-102074892D01*
X62894442Y-101839980D01*
X62895414Y-101833093D01*
X62902462Y-101791609D01*
X62903818Y-101784789D01*
X62916281Y-101730179D01*
X62918019Y-101723442D01*
X62929672Y-101682993D01*
X62931784Y-101676366D01*
X63009865Y-101453222D01*
X63012347Y-101446721D01*
X63028455Y-101407835D01*
X63031295Y-101401488D01*
X63055599Y-101351021D01*
X63058792Y-101344841D01*
X63079148Y-101308010D01*
X63082681Y-101302020D01*
X63208456Y-101101852D01*
X63212322Y-101096067D01*
X63236680Y-101061739D01*
X63240862Y-101056182D01*
X63275786Y-101012390D01*
X63280273Y-101007076D01*
X63308313Y-100975700D01*
X63313091Y-100970647D01*
X63418638Y-100865100D01*
X67161800Y-100865100D01*
X68663800Y-100865100D01*
X68663800Y-100700704D01*
X72161800Y-100700704D01*
X72209021Y-100711481D01*
X72215758Y-100713219D01*
X72256207Y-100724872D01*
X72262834Y-100726984D01*
X72485978Y-100805065D01*
X72492479Y-100807547D01*
X72531365Y-100823655D01*
X72537712Y-100826495D01*
X72588179Y-100850799D01*
X72594359Y-100853992D01*
X72631190Y-100874348D01*
X72637180Y-100877881D01*
X72837348Y-101003656D01*
X72843133Y-101007522D01*
X72877461Y-101031880D01*
X72883018Y-101036062D01*
X72926810Y-101070986D01*
X72932124Y-101075473D01*
X72963500Y-101103513D01*
X72968553Y-101108291D01*
X73135709Y-101275447D01*
X73140487Y-101280500D01*
X73168527Y-101311876D01*
X73173014Y-101317190D01*
X73207938Y-101360982D01*
X73212120Y-101366539D01*
X73236478Y-101400867D01*
X73240344Y-101406652D01*
X73366119Y-101606820D01*
X73369652Y-101612810D01*
X73390008Y-101649641D01*
X73393201Y-101655821D01*
X73417505Y-101706288D01*
X73420345Y-101712635D01*
X73436453Y-101751521D01*
X73438935Y-101758022D01*
X73517016Y-101981166D01*
X73519128Y-101987793D01*
X73530781Y-102028242D01*
X73532519Y-102034979D01*
X73544391Y-102087000D01*
X73663800Y-102087000D01*
X74661800Y-102087000D01*
X76163800Y-102087000D01*
X77161800Y-102087000D01*
X78663800Y-102087000D01*
X78663800Y-100585000D01*
X77161800Y-100585000D01*
X77161800Y-102087000D01*
X76163800Y-102087000D01*
X76163800Y-100585000D01*
X74661800Y-100585000D01*
X74661800Y-102087000D01*
X73663800Y-102087000D01*
X73663800Y-100585000D01*
X72161800Y-100585000D01*
X72161800Y-100700704D01*
X68663800Y-100700704D01*
X68663800Y-100585000D01*
X67161800Y-100585000D01*
X67161800Y-100865100D01*
X63418638Y-100865100D01*
X63480247Y-100803491D01*
X63485300Y-100798713D01*
X63516676Y-100770673D01*
X63521990Y-100766186D01*
X63565782Y-100731262D01*
X63571339Y-100727080D01*
X63605667Y-100702722D01*
X63611451Y-100698857D01*
X63663800Y-100665963D01*
X63663800Y-100585000D01*
X62161800Y-100585000D01*
X62161800Y-102087000D01*
X61163800Y-102087000D01*
X61163800Y-100585000D01*
X59661800Y-100585000D01*
X59661800Y-102087000D01*
X58663800Y-102087000D01*
X58663800Y-100585000D01*
X57161800Y-100585000D01*
X57161800Y-102087000D01*
X56163800Y-102087000D01*
X56163800Y-100585000D01*
X54661800Y-100585000D01*
X54661800Y-102087000D01*
X53663800Y-102087000D01*
X53663800Y-100585000D01*
X52161800Y-100585000D01*
X52161800Y-102087000D01*
X51163800Y-102087000D01*
X51163800Y-100585000D01*
X50608500Y-100585000D01*
X50608500Y-101241248D01*
X50608455Y-101244572D01*
X50607916Y-101264673D01*
X50607783Y-101267993D01*
X50606351Y-101294680D01*
X50606129Y-101297989D01*
X50604519Y-101317982D01*
X50604208Y-101321285D01*
X50593038Y-101425175D01*
X50591971Y-101432843D01*
X50584064Y-101479029D01*
X50582519Y-101486619D01*
X50568174Y-101547330D01*
X50566158Y-101554809D01*
X50552550Y-101599672D01*
X50550071Y-101607012D01*
X50476413Y-101804502D01*
X50473025Y-101812682D01*
X50450767Y-101861419D01*
X50446805Y-101869333D01*
X50412628Y-101931923D01*
X50408110Y-101939537D01*
X50379146Y-101984604D01*
X50374098Y-101991874D01*
X50302886Y-102087000D01*
X46913800Y-102087000D01*
X46913800Y-101681471D01*
X46933485Y-101614432D01*
X46986289Y-101568677D01*
X47055447Y-101558733D01*
X47112108Y-101582203D01*
X47167665Y-101623793D01*
X47167668Y-101623795D01*
X47167671Y-101623797D01*
X47302517Y-101674091D01*
X47302516Y-101674091D01*
X47309444Y-101674835D01*
X47362127Y-101680500D01*
X49157872Y-101680499D01*
X49217483Y-101674091D01*
X49352331Y-101623796D01*
X49467546Y-101537546D01*
X49553796Y-101422331D01*
X49604091Y-101287483D01*
X49610500Y-101227873D01*
X49610499Y-99432128D01*
X49604091Y-99372517D01*
X49601441Y-99365413D01*
X49553797Y-99237671D01*
X49553793Y-99237664D01*
X49467547Y-99122455D01*
X49467544Y-99122452D01*
X49352335Y-99036206D01*
X49352328Y-99036202D01*
X49220401Y-98986997D01*
X49164467Y-98945126D01*
X49140050Y-98879662D01*
X49154902Y-98811389D01*
X49176053Y-98783133D01*
X49230447Y-98728739D01*
X50412989Y-98728739D01*
X50446805Y-98790667D01*
X50450767Y-98798581D01*
X50473025Y-98847318D01*
X50476413Y-98855498D01*
X50550069Y-99052982D01*
X50552548Y-99060321D01*
X50566153Y-99105172D01*
X50568168Y-99112648D01*
X50582516Y-99173363D01*
X50584061Y-99180955D01*
X50591972Y-99227160D01*
X50593041Y-99234833D01*
X50604212Y-99338755D01*
X50604523Y-99342064D01*
X50606135Y-99362101D01*
X50606357Y-99365413D01*
X50607786Y-99392095D01*
X50607919Y-99395413D01*
X50608455Y-99415464D01*
X50608499Y-99418778D01*
X50608499Y-99587000D01*
X51163800Y-99587000D01*
X52161800Y-99587000D01*
X53663800Y-99587000D01*
X54661800Y-99587000D01*
X56163800Y-99587000D01*
X57161800Y-99587000D01*
X58663800Y-99587000D01*
X59661800Y-99587000D01*
X61163800Y-99587000D01*
X62161800Y-99587000D01*
X63663800Y-99587000D01*
X64661800Y-99587000D01*
X66163800Y-99587000D01*
X67161800Y-99587000D01*
X68058765Y-99587000D01*
X68036672Y-99509351D01*
X68032467Y-99486858D01*
X68012802Y-99274641D01*
X68012802Y-99251759D01*
X68032467Y-99039542D01*
X68036672Y-99017049D01*
X68094997Y-98812058D01*
X68103263Y-98790721D01*
X68198261Y-98599938D01*
X68210307Y-98580482D01*
X68338745Y-98410404D01*
X68354160Y-98393494D01*
X68511662Y-98249911D01*
X68529924Y-98236121D01*
X68663800Y-98153229D01*
X68663800Y-98085000D01*
X69776641Y-98085000D01*
X69850789Y-98113725D01*
X69871272Y-98123925D01*
X70052476Y-98236121D01*
X70070738Y-98249911D01*
X70228240Y-98393494D01*
X70243655Y-98410404D01*
X70372093Y-98580482D01*
X70384139Y-98599938D01*
X70479137Y-98790721D01*
X70487403Y-98812058D01*
X70545728Y-99017049D01*
X70549933Y-99039542D01*
X70569598Y-99251759D01*
X70569598Y-99274641D01*
X70549933Y-99486858D01*
X70545728Y-99509351D01*
X70523635Y-99587000D01*
X71163800Y-99587000D01*
X72161800Y-99587000D01*
X73663800Y-99587000D01*
X74661800Y-99587000D01*
X76163800Y-99587000D01*
X77161800Y-99587000D01*
X78663800Y-99587000D01*
X78663800Y-98866233D01*
X79661800Y-98866233D01*
X79688368Y-98846345D01*
X79695638Y-98841297D01*
X79740705Y-98812333D01*
X79748319Y-98807815D01*
X79810909Y-98773638D01*
X79818823Y-98769677D01*
X79867559Y-98747419D01*
X79875739Y-98744030D01*
X80073096Y-98670421D01*
X80080436Y-98667942D01*
X80125305Y-98654332D01*
X80132788Y-98652315D01*
X80193499Y-98637972D01*
X80201084Y-98636428D01*
X80247262Y-98628522D01*
X80254931Y-98627455D01*
X80358783Y-98616289D01*
X80362095Y-98615977D01*
X80382144Y-98614364D01*
X80385458Y-98614142D01*
X80412145Y-98612713D01*
X80415461Y-98612580D01*
X80435509Y-98612044D01*
X80438823Y-98612000D01*
X81163800Y-98612000D01*
X81163800Y-98085000D01*
X79661800Y-98085000D01*
X79661800Y-98866233D01*
X78663800Y-98866233D01*
X78663800Y-98085000D01*
X77161800Y-98085000D01*
X77161800Y-99587000D01*
X76163800Y-99587000D01*
X76163800Y-98085000D01*
X74661800Y-98085000D01*
X74661800Y-99587000D01*
X73663800Y-99587000D01*
X73663800Y-98085000D01*
X72161800Y-98085000D01*
X72161800Y-99587000D01*
X71163800Y-99587000D01*
X71163800Y-98085000D01*
X69776641Y-98085000D01*
X68663800Y-98085000D01*
X67161800Y-98085000D01*
X67161800Y-99587000D01*
X66163800Y-99587000D01*
X66163800Y-98085000D01*
X64661800Y-98085000D01*
X64661800Y-99587000D01*
X63663800Y-99587000D01*
X63663800Y-98085000D01*
X62161800Y-98085000D01*
X62161800Y-99587000D01*
X61163800Y-99587000D01*
X61163800Y-98085000D01*
X59661800Y-98085000D01*
X59661800Y-99587000D01*
X58663800Y-99587000D01*
X58663800Y-98085000D01*
X57161800Y-98085000D01*
X57161800Y-99587000D01*
X56163800Y-99587000D01*
X56163800Y-98085000D01*
X54661800Y-98085000D01*
X54661800Y-99587000D01*
X53663800Y-99587000D01*
X53663800Y-98085000D01*
X52161800Y-98085000D01*
X52161800Y-99587000D01*
X51163800Y-99587000D01*
X51163800Y-98085000D01*
X50611785Y-98085000D01*
X50491786Y-98532840D01*
X50490271Y-98538038D01*
X50480422Y-98569271D01*
X50478682Y-98574395D01*
X50463782Y-98615326D01*
X50461822Y-98620364D01*
X50449304Y-98650584D01*
X50447126Y-98655535D01*
X50412989Y-98728739D01*
X49230447Y-98728739D01*
X49298108Y-98661078D01*
X49433600Y-98467578D01*
X49533429Y-98253492D01*
X49533432Y-98253486D01*
X49590636Y-98040000D01*
X48693012Y-98040000D01*
X48725925Y-97982993D01*
X48760000Y-97855826D01*
X48760000Y-97724174D01*
X48725925Y-97597007D01*
X48693012Y-97540000D01*
X49590636Y-97540000D01*
X49590635Y-97539999D01*
X49533432Y-97326513D01*
X49533429Y-97326507D01*
X49433600Y-97112422D01*
X49433599Y-97112420D01*
X49298113Y-96918926D01*
X49298108Y-96918920D01*
X49131082Y-96751894D01*
X48937578Y-96616399D01*
X48723492Y-96516570D01*
X48723486Y-96516567D01*
X48510000Y-96459364D01*
X48510000Y-97356988D01*
X48452993Y-97324075D01*
X48325826Y-97290000D01*
X48194174Y-97290000D01*
X48067007Y-97324075D01*
X48010000Y-97356988D01*
X48010000Y-96459364D01*
X48009999Y-96459364D01*
X47796513Y-96516567D01*
X47796507Y-96516570D01*
X47582422Y-96616399D01*
X47582420Y-96616400D01*
X47388926Y-96751886D01*
X47388920Y-96751891D01*
X47221891Y-96918920D01*
X47221886Y-96918927D01*
X47139375Y-97036765D01*
X47084798Y-97080390D01*
X47015300Y-97087583D01*
X46952945Y-97056061D01*
X46917531Y-96995831D01*
X46913800Y-96965642D01*
X46913800Y-95905173D01*
X49661800Y-95905173D01*
X49721346Y-95946869D01*
X49725706Y-95950065D01*
X49751665Y-95969983D01*
X49755885Y-95973370D01*
X49789252Y-96001367D01*
X49793320Y-96004935D01*
X49817458Y-96027053D01*
X49821367Y-96030795D01*
X50019196Y-96228623D01*
X50022938Y-96232531D01*
X50045038Y-96256649D01*
X50048601Y-96260712D01*
X50076602Y-96294079D01*
X50079988Y-96298298D01*
X50099925Y-96324278D01*
X50103128Y-96328646D01*
X50263604Y-96557831D01*
X50266609Y-96562328D01*
X50284192Y-96589927D01*
X50286998Y-96594550D01*
X50308778Y-96632272D01*
X50311382Y-96637020D01*
X50326497Y-96666057D01*
X50328889Y-96670907D01*
X50447126Y-96924465D01*
X50449304Y-96929416D01*
X50461822Y-96959636D01*
X50463782Y-96964674D01*
X50478682Y-97005605D01*
X50480422Y-97010729D01*
X50490271Y-97041962D01*
X50491786Y-97047161D01*
X50502461Y-97087000D01*
X51163800Y-97087000D01*
X52161800Y-97087000D01*
X53663800Y-97087000D01*
X54661800Y-97087000D01*
X56163800Y-97087000D01*
X57161800Y-97087000D01*
X58663800Y-97087000D01*
X59661800Y-97087000D01*
X61163800Y-97087000D01*
X62161800Y-97087000D01*
X63663800Y-97087000D01*
X64661800Y-97087000D01*
X66163800Y-97087000D01*
X67161800Y-97087000D01*
X68663800Y-97087000D01*
X69661800Y-97087000D01*
X71163800Y-97087000D01*
X72161800Y-97087000D01*
X73663800Y-97087000D01*
X74661800Y-97087000D01*
X76163800Y-97087000D01*
X77161800Y-97087000D01*
X78663800Y-97087000D01*
X79661800Y-97087000D01*
X81163800Y-97087000D01*
X81163800Y-95585000D01*
X79661800Y-95585000D01*
X79661800Y-97087000D01*
X78663800Y-97087000D01*
X78663800Y-95585000D01*
X77161800Y-95585000D01*
X77161800Y-97087000D01*
X76163800Y-97087000D01*
X76163800Y-95585000D01*
X74661800Y-95585000D01*
X74661800Y-97087000D01*
X73663800Y-97087000D01*
X73663800Y-95585000D01*
X72161800Y-95585000D01*
X72161800Y-97087000D01*
X71163800Y-97087000D01*
X71163800Y-95585000D01*
X69661800Y-95585000D01*
X69661800Y-97087000D01*
X68663800Y-97087000D01*
X68663800Y-95585000D01*
X67161800Y-95585000D01*
X67161800Y-97087000D01*
X66163800Y-97087000D01*
X66163800Y-95585000D01*
X64661800Y-95585000D01*
X64661800Y-97087000D01*
X63663800Y-97087000D01*
X63663800Y-95585000D01*
X62161800Y-95585000D01*
X62161800Y-97087000D01*
X61163800Y-97087000D01*
X61163800Y-95585000D01*
X59661800Y-95585000D01*
X59661800Y-97087000D01*
X58663800Y-97087000D01*
X58663800Y-95585000D01*
X57161800Y-95585000D01*
X57161800Y-97087000D01*
X56163800Y-97087000D01*
X56163800Y-95585000D01*
X54661800Y-95585000D01*
X54661800Y-97087000D01*
X53663800Y-97087000D01*
X53663800Y-95585000D01*
X52161800Y-95585000D01*
X52161800Y-97087000D01*
X51163800Y-97087000D01*
X51163800Y-95585000D01*
X49661800Y-95585000D01*
X49661800Y-95905173D01*
X46913800Y-95905173D01*
X46913800Y-94982923D01*
X46933485Y-94915884D01*
X46986289Y-94870129D01*
X47037800Y-94858923D01*
X47089077Y-94858923D01*
X47089078Y-94858922D01*
X47283417Y-94820266D01*
X47466483Y-94744438D01*
X47631239Y-94634352D01*
X47678591Y-94587000D01*
X49661800Y-94587000D01*
X51163800Y-94587000D01*
X52161800Y-94587000D01*
X53663800Y-94587000D01*
X54661800Y-94587000D01*
X56163800Y-94587000D01*
X57161800Y-94587000D01*
X58663800Y-94587000D01*
X59661800Y-94587000D01*
X61163800Y-94587000D01*
X62161800Y-94587000D01*
X63663800Y-94587000D01*
X64661800Y-94587000D01*
X66163800Y-94587000D01*
X67161800Y-94587000D01*
X68663800Y-94587000D01*
X69661800Y-94587000D01*
X71163800Y-94587000D01*
X72161800Y-94587000D01*
X73663800Y-94587000D01*
X74661800Y-94587000D01*
X76163800Y-94587000D01*
X77161800Y-94587000D01*
X78663800Y-94587000D01*
X79661800Y-94587000D01*
X80939001Y-94587000D01*
X80905326Y-94505700D01*
X80903135Y-94500021D01*
X80890733Y-94465359D01*
X80888825Y-94459584D01*
X80874598Y-94412689D01*
X80872974Y-94406819D01*
X80864025Y-94371092D01*
X80862692Y-94365154D01*
X80814473Y-94122740D01*
X80813432Y-94116743D01*
X80808028Y-94080312D01*
X80807283Y-94074271D01*
X80802480Y-94025500D01*
X80802032Y-94019430D01*
X80800226Y-93982658D01*
X80800077Y-93976575D01*
X80800077Y-93961000D01*
X79661800Y-93961000D01*
X79661800Y-94587000D01*
X78663800Y-94587000D01*
X78663800Y-93961000D01*
X77161800Y-93961000D01*
X77161800Y-94587000D01*
X76163800Y-94587000D01*
X76163800Y-93961000D01*
X74661800Y-93961000D01*
X74661800Y-94587000D01*
X73663800Y-94587000D01*
X73663800Y-93961000D01*
X72161800Y-93961000D01*
X72161800Y-94587000D01*
X71163800Y-94587000D01*
X71163800Y-93961000D01*
X69661800Y-93961000D01*
X69661800Y-94587000D01*
X68663800Y-94587000D01*
X68663800Y-93961000D01*
X67161800Y-93961000D01*
X67161800Y-94587000D01*
X66163800Y-94587000D01*
X66163800Y-93961000D01*
X64661800Y-93961000D01*
X64661800Y-94587000D01*
X63663800Y-94587000D01*
X63663800Y-93961000D01*
X62161800Y-93961000D01*
X62161800Y-94587000D01*
X61163800Y-94587000D01*
X61163800Y-93961000D01*
X59661800Y-93961000D01*
X59661800Y-94587000D01*
X58663800Y-94587000D01*
X58663800Y-93961000D01*
X57161800Y-93961000D01*
X57161800Y-94587000D01*
X56163800Y-94587000D01*
X56163800Y-93961000D01*
X54661800Y-93961000D01*
X54661800Y-94587000D01*
X53663800Y-94587000D01*
X53663800Y-93961000D01*
X52161800Y-93961000D01*
X52161800Y-94587000D01*
X51163800Y-94587000D01*
X51163800Y-93961000D01*
X49661800Y-93961000D01*
X49661800Y-94587000D01*
X47678591Y-94587000D01*
X47771352Y-94494239D01*
X47881438Y-94329483D01*
X47957266Y-94146417D01*
X47995923Y-93952075D01*
X47998351Y-93853000D01*
X47995923Y-93753925D01*
X47957266Y-93559583D01*
X47957264Y-93559578D01*
X47881439Y-93376518D01*
X47881437Y-93376515D01*
X47771355Y-93211765D01*
X47771349Y-93211757D01*
X47631242Y-93071650D01*
X47631234Y-93071644D01*
X47619947Y-93064102D01*
X47575141Y-93010490D01*
X47566434Y-92941165D01*
X47596588Y-92878138D01*
X47656031Y-92841418D01*
X47688837Y-92837000D01*
X82105163Y-92837000D01*
X82172202Y-92856685D01*
G37*
%TD.AperFunction*%
%TD*%
M02*
