%TF.GenerationSoftware,KiCad,Pcbnew,8.0.6*%
%TF.CreationDate,2024-11-26T14:09:56+01:00*%
%TF.ProjectId,Tiny Solar Supply,54696e79-2053-46f6-9c61-722053757070,rev?*%
%TF.SameCoordinates,Original*%
%TF.FileFunction,Legend,Bot*%
%TF.FilePolarity,Positive*%
%FSLAX46Y46*%
G04 Gerber Fmt 4.6, Leading zero omitted, Abs format (unit mm)*
G04 Created by KiCad (PCBNEW 8.0.6) date 2024-11-26 14:09:56*
%MOMM*%
%LPD*%
G01*
G04 APERTURE LIST*
%ADD10C,0.100000*%
%ADD11R,1.700000X1.700000*%
%ADD12O,1.700000X1.700000*%
G04 APERTURE END LIST*
D10*
X77426520Y-94739895D02*
X77159853Y-95539895D01*
X77159853Y-95539895D02*
X76893187Y-94739895D01*
X76321758Y-95501800D02*
X76397949Y-95539895D01*
X76397949Y-95539895D02*
X76550330Y-95539895D01*
X76550330Y-95539895D02*
X76626520Y-95501800D01*
X76626520Y-95501800D02*
X76664616Y-95425609D01*
X76664616Y-95425609D02*
X76664616Y-95120847D01*
X76664616Y-95120847D02*
X76626520Y-95044657D01*
X76626520Y-95044657D02*
X76550330Y-95006561D01*
X76550330Y-95006561D02*
X76397949Y-95006561D01*
X76397949Y-95006561D02*
X76321758Y-95044657D01*
X76321758Y-95044657D02*
X76283663Y-95120847D01*
X76283663Y-95120847D02*
X76283663Y-95197038D01*
X76283663Y-95197038D02*
X76664616Y-95273228D01*
X75940806Y-95539895D02*
X75940806Y-95006561D01*
X75940806Y-95158942D02*
X75902711Y-95082752D01*
X75902711Y-95082752D02*
X75864616Y-95044657D01*
X75864616Y-95044657D02*
X75788425Y-95006561D01*
X75788425Y-95006561D02*
X75712235Y-95006561D01*
X75483664Y-95501800D02*
X75407473Y-95539895D01*
X75407473Y-95539895D02*
X75255092Y-95539895D01*
X75255092Y-95539895D02*
X75178902Y-95501800D01*
X75178902Y-95501800D02*
X75140806Y-95425609D01*
X75140806Y-95425609D02*
X75140806Y-95387514D01*
X75140806Y-95387514D02*
X75178902Y-95311323D01*
X75178902Y-95311323D02*
X75255092Y-95273228D01*
X75255092Y-95273228D02*
X75369378Y-95273228D01*
X75369378Y-95273228D02*
X75445568Y-95235133D01*
X75445568Y-95235133D02*
X75483664Y-95158942D01*
X75483664Y-95158942D02*
X75483664Y-95120847D01*
X75483664Y-95120847D02*
X75445568Y-95044657D01*
X75445568Y-95044657D02*
X75369378Y-95006561D01*
X75369378Y-95006561D02*
X75255092Y-95006561D01*
X75255092Y-95006561D02*
X75178902Y-95044657D01*
X74797949Y-95539895D02*
X74797949Y-95006561D01*
X74797949Y-94739895D02*
X74836045Y-94777990D01*
X74836045Y-94777990D02*
X74797949Y-94816085D01*
X74797949Y-94816085D02*
X74759854Y-94777990D01*
X74759854Y-94777990D02*
X74797949Y-94739895D01*
X74797949Y-94739895D02*
X74797949Y-94816085D01*
X74302712Y-95539895D02*
X74378902Y-95501800D01*
X74378902Y-95501800D02*
X74416997Y-95463704D01*
X74416997Y-95463704D02*
X74455093Y-95387514D01*
X74455093Y-95387514D02*
X74455093Y-95158942D01*
X74455093Y-95158942D02*
X74416997Y-95082752D01*
X74416997Y-95082752D02*
X74378902Y-95044657D01*
X74378902Y-95044657D02*
X74302712Y-95006561D01*
X74302712Y-95006561D02*
X74188426Y-95006561D01*
X74188426Y-95006561D02*
X74112235Y-95044657D01*
X74112235Y-95044657D02*
X74074140Y-95082752D01*
X74074140Y-95082752D02*
X74036045Y-95158942D01*
X74036045Y-95158942D02*
X74036045Y-95387514D01*
X74036045Y-95387514D02*
X74074140Y-95463704D01*
X74074140Y-95463704D02*
X74112235Y-95501800D01*
X74112235Y-95501800D02*
X74188426Y-95539895D01*
X74188426Y-95539895D02*
X74302712Y-95539895D01*
X73693187Y-95006561D02*
X73693187Y-95539895D01*
X73693187Y-95082752D02*
X73655092Y-95044657D01*
X73655092Y-95044657D02*
X73578902Y-95006561D01*
X73578902Y-95006561D02*
X73464616Y-95006561D01*
X73464616Y-95006561D02*
X73388425Y-95044657D01*
X73388425Y-95044657D02*
X73350330Y-95120847D01*
X73350330Y-95120847D02*
X73350330Y-95539895D01*
X71940806Y-95539895D02*
X72397949Y-95539895D01*
X72169377Y-95539895D02*
X72169377Y-94739895D01*
X72169377Y-94739895D02*
X72245568Y-94854180D01*
X72245568Y-94854180D02*
X72321758Y-94930371D01*
X72321758Y-94930371D02*
X72397949Y-94968466D01*
X71597948Y-95463704D02*
X71559853Y-95501800D01*
X71559853Y-95501800D02*
X71597948Y-95539895D01*
X71597948Y-95539895D02*
X71636044Y-95501800D01*
X71636044Y-95501800D02*
X71597948Y-95463704D01*
X71597948Y-95463704D02*
X71597948Y-95539895D01*
X71064615Y-94739895D02*
X70988425Y-94739895D01*
X70988425Y-94739895D02*
X70912234Y-94777990D01*
X70912234Y-94777990D02*
X70874139Y-94816085D01*
X70874139Y-94816085D02*
X70836044Y-94892276D01*
X70836044Y-94892276D02*
X70797949Y-95044657D01*
X70797949Y-95044657D02*
X70797949Y-95235133D01*
X70797949Y-95235133D02*
X70836044Y-95387514D01*
X70836044Y-95387514D02*
X70874139Y-95463704D01*
X70874139Y-95463704D02*
X70912234Y-95501800D01*
X70912234Y-95501800D02*
X70988425Y-95539895D01*
X70988425Y-95539895D02*
X71064615Y-95539895D01*
X71064615Y-95539895D02*
X71140806Y-95501800D01*
X71140806Y-95501800D02*
X71178901Y-95463704D01*
X71178901Y-95463704D02*
X71216996Y-95387514D01*
X71216996Y-95387514D02*
X71255092Y-95235133D01*
X71255092Y-95235133D02*
X71255092Y-95044657D01*
X71255092Y-95044657D02*
X71216996Y-94892276D01*
X71216996Y-94892276D02*
X71178901Y-94816085D01*
X71178901Y-94816085D02*
X71140806Y-94777990D01*
X71140806Y-94777990D02*
X71064615Y-94739895D01*
X77426520Y-96027850D02*
X76969377Y-96027850D01*
X77197949Y-96827850D02*
X77197949Y-96027850D01*
X76702710Y-96827850D02*
X76702710Y-96294516D01*
X76702710Y-96027850D02*
X76740806Y-96065945D01*
X76740806Y-96065945D02*
X76702710Y-96104040D01*
X76702710Y-96104040D02*
X76664615Y-96065945D01*
X76664615Y-96065945D02*
X76702710Y-96027850D01*
X76702710Y-96027850D02*
X76702710Y-96104040D01*
X76321758Y-96294516D02*
X76321758Y-96827850D01*
X76321758Y-96370707D02*
X76283663Y-96332612D01*
X76283663Y-96332612D02*
X76207473Y-96294516D01*
X76207473Y-96294516D02*
X76093187Y-96294516D01*
X76093187Y-96294516D02*
X76016996Y-96332612D01*
X76016996Y-96332612D02*
X75978901Y-96408802D01*
X75978901Y-96408802D02*
X75978901Y-96827850D01*
X75674139Y-96294516D02*
X75483663Y-96827850D01*
X75293186Y-96294516D02*
X75483663Y-96827850D01*
X75483663Y-96827850D02*
X75559853Y-97018326D01*
X75559853Y-97018326D02*
X75597948Y-97056421D01*
X75597948Y-97056421D02*
X75674139Y-97094516D01*
X74416996Y-96789755D02*
X74302710Y-96827850D01*
X74302710Y-96827850D02*
X74112234Y-96827850D01*
X74112234Y-96827850D02*
X74036043Y-96789755D01*
X74036043Y-96789755D02*
X73997948Y-96751659D01*
X73997948Y-96751659D02*
X73959853Y-96675469D01*
X73959853Y-96675469D02*
X73959853Y-96599278D01*
X73959853Y-96599278D02*
X73997948Y-96523088D01*
X73997948Y-96523088D02*
X74036043Y-96484993D01*
X74036043Y-96484993D02*
X74112234Y-96446897D01*
X74112234Y-96446897D02*
X74264615Y-96408802D01*
X74264615Y-96408802D02*
X74340805Y-96370707D01*
X74340805Y-96370707D02*
X74378900Y-96332612D01*
X74378900Y-96332612D02*
X74416996Y-96256421D01*
X74416996Y-96256421D02*
X74416996Y-96180231D01*
X74416996Y-96180231D02*
X74378900Y-96104040D01*
X74378900Y-96104040D02*
X74340805Y-96065945D01*
X74340805Y-96065945D02*
X74264615Y-96027850D01*
X74264615Y-96027850D02*
X74074138Y-96027850D01*
X74074138Y-96027850D02*
X73959853Y-96065945D01*
X73502710Y-96827850D02*
X73578900Y-96789755D01*
X73578900Y-96789755D02*
X73616995Y-96751659D01*
X73616995Y-96751659D02*
X73655091Y-96675469D01*
X73655091Y-96675469D02*
X73655091Y-96446897D01*
X73655091Y-96446897D02*
X73616995Y-96370707D01*
X73616995Y-96370707D02*
X73578900Y-96332612D01*
X73578900Y-96332612D02*
X73502710Y-96294516D01*
X73502710Y-96294516D02*
X73388424Y-96294516D01*
X73388424Y-96294516D02*
X73312233Y-96332612D01*
X73312233Y-96332612D02*
X73274138Y-96370707D01*
X73274138Y-96370707D02*
X73236043Y-96446897D01*
X73236043Y-96446897D02*
X73236043Y-96675469D01*
X73236043Y-96675469D02*
X73274138Y-96751659D01*
X73274138Y-96751659D02*
X73312233Y-96789755D01*
X73312233Y-96789755D02*
X73388424Y-96827850D01*
X73388424Y-96827850D02*
X73502710Y-96827850D01*
X72778900Y-96827850D02*
X72855090Y-96789755D01*
X72855090Y-96789755D02*
X72893185Y-96713564D01*
X72893185Y-96713564D02*
X72893185Y-96027850D01*
X72131280Y-96827850D02*
X72131280Y-96408802D01*
X72131280Y-96408802D02*
X72169375Y-96332612D01*
X72169375Y-96332612D02*
X72245566Y-96294516D01*
X72245566Y-96294516D02*
X72397947Y-96294516D01*
X72397947Y-96294516D02*
X72474137Y-96332612D01*
X72131280Y-96789755D02*
X72207471Y-96827850D01*
X72207471Y-96827850D02*
X72397947Y-96827850D01*
X72397947Y-96827850D02*
X72474137Y-96789755D01*
X72474137Y-96789755D02*
X72512233Y-96713564D01*
X72512233Y-96713564D02*
X72512233Y-96637374D01*
X72512233Y-96637374D02*
X72474137Y-96561183D01*
X72474137Y-96561183D02*
X72397947Y-96523088D01*
X72397947Y-96523088D02*
X72207471Y-96523088D01*
X72207471Y-96523088D02*
X72131280Y-96484993D01*
X71750327Y-96827850D02*
X71750327Y-96294516D01*
X71750327Y-96446897D02*
X71712232Y-96370707D01*
X71712232Y-96370707D02*
X71674137Y-96332612D01*
X71674137Y-96332612D02*
X71597946Y-96294516D01*
X71597946Y-96294516D02*
X71521756Y-96294516D01*
X70645565Y-96827850D02*
X70645565Y-96027850D01*
X70645565Y-96027850D02*
X70340803Y-96027850D01*
X70340803Y-96027850D02*
X70264613Y-96065945D01*
X70264613Y-96065945D02*
X70226518Y-96104040D01*
X70226518Y-96104040D02*
X70188422Y-96180231D01*
X70188422Y-96180231D02*
X70188422Y-96294516D01*
X70188422Y-96294516D02*
X70226518Y-96370707D01*
X70226518Y-96370707D02*
X70264613Y-96408802D01*
X70264613Y-96408802D02*
X70340803Y-96446897D01*
X70340803Y-96446897D02*
X70645565Y-96446897D01*
X69731280Y-96827850D02*
X69807470Y-96789755D01*
X69807470Y-96789755D02*
X69845565Y-96751659D01*
X69845565Y-96751659D02*
X69883661Y-96675469D01*
X69883661Y-96675469D02*
X69883661Y-96446897D01*
X69883661Y-96446897D02*
X69845565Y-96370707D01*
X69845565Y-96370707D02*
X69807470Y-96332612D01*
X69807470Y-96332612D02*
X69731280Y-96294516D01*
X69731280Y-96294516D02*
X69616994Y-96294516D01*
X69616994Y-96294516D02*
X69540803Y-96332612D01*
X69540803Y-96332612D02*
X69502708Y-96370707D01*
X69502708Y-96370707D02*
X69464613Y-96446897D01*
X69464613Y-96446897D02*
X69464613Y-96675469D01*
X69464613Y-96675469D02*
X69502708Y-96751659D01*
X69502708Y-96751659D02*
X69540803Y-96789755D01*
X69540803Y-96789755D02*
X69616994Y-96827850D01*
X69616994Y-96827850D02*
X69731280Y-96827850D01*
X69197946Y-96294516D02*
X69045565Y-96827850D01*
X69045565Y-96827850D02*
X68893184Y-96446897D01*
X68893184Y-96446897D02*
X68740803Y-96827850D01*
X68740803Y-96827850D02*
X68588422Y-96294516D01*
X67978898Y-96789755D02*
X68055089Y-96827850D01*
X68055089Y-96827850D02*
X68207470Y-96827850D01*
X68207470Y-96827850D02*
X68283660Y-96789755D01*
X68283660Y-96789755D02*
X68321756Y-96713564D01*
X68321756Y-96713564D02*
X68321756Y-96408802D01*
X68321756Y-96408802D02*
X68283660Y-96332612D01*
X68283660Y-96332612D02*
X68207470Y-96294516D01*
X68207470Y-96294516D02*
X68055089Y-96294516D01*
X68055089Y-96294516D02*
X67978898Y-96332612D01*
X67978898Y-96332612D02*
X67940803Y-96408802D01*
X67940803Y-96408802D02*
X67940803Y-96484993D01*
X67940803Y-96484993D02*
X68321756Y-96561183D01*
X67597946Y-96827850D02*
X67597946Y-96294516D01*
X67597946Y-96446897D02*
X67559851Y-96370707D01*
X67559851Y-96370707D02*
X67521756Y-96332612D01*
X67521756Y-96332612D02*
X67445565Y-96294516D01*
X67445565Y-96294516D02*
X67369375Y-96294516D01*
X66531280Y-96789755D02*
X66416994Y-96827850D01*
X66416994Y-96827850D02*
X66226518Y-96827850D01*
X66226518Y-96827850D02*
X66150327Y-96789755D01*
X66150327Y-96789755D02*
X66112232Y-96751659D01*
X66112232Y-96751659D02*
X66074137Y-96675469D01*
X66074137Y-96675469D02*
X66074137Y-96599278D01*
X66074137Y-96599278D02*
X66112232Y-96523088D01*
X66112232Y-96523088D02*
X66150327Y-96484993D01*
X66150327Y-96484993D02*
X66226518Y-96446897D01*
X66226518Y-96446897D02*
X66378899Y-96408802D01*
X66378899Y-96408802D02*
X66455089Y-96370707D01*
X66455089Y-96370707D02*
X66493184Y-96332612D01*
X66493184Y-96332612D02*
X66531280Y-96256421D01*
X66531280Y-96256421D02*
X66531280Y-96180231D01*
X66531280Y-96180231D02*
X66493184Y-96104040D01*
X66493184Y-96104040D02*
X66455089Y-96065945D01*
X66455089Y-96065945D02*
X66378899Y-96027850D01*
X66378899Y-96027850D02*
X66188422Y-96027850D01*
X66188422Y-96027850D02*
X66074137Y-96065945D01*
X65388422Y-96294516D02*
X65388422Y-96827850D01*
X65731279Y-96294516D02*
X65731279Y-96713564D01*
X65731279Y-96713564D02*
X65693184Y-96789755D01*
X65693184Y-96789755D02*
X65616994Y-96827850D01*
X65616994Y-96827850D02*
X65502708Y-96827850D01*
X65502708Y-96827850D02*
X65426517Y-96789755D01*
X65426517Y-96789755D02*
X65388422Y-96751659D01*
X65007469Y-96294516D02*
X65007469Y-97094516D01*
X65007469Y-96332612D02*
X64931279Y-96294516D01*
X64931279Y-96294516D02*
X64778898Y-96294516D01*
X64778898Y-96294516D02*
X64702707Y-96332612D01*
X64702707Y-96332612D02*
X64664612Y-96370707D01*
X64664612Y-96370707D02*
X64626517Y-96446897D01*
X64626517Y-96446897D02*
X64626517Y-96675469D01*
X64626517Y-96675469D02*
X64664612Y-96751659D01*
X64664612Y-96751659D02*
X64702707Y-96789755D01*
X64702707Y-96789755D02*
X64778898Y-96827850D01*
X64778898Y-96827850D02*
X64931279Y-96827850D01*
X64931279Y-96827850D02*
X65007469Y-96789755D01*
X64283659Y-96294516D02*
X64283659Y-97094516D01*
X64283659Y-96332612D02*
X64207469Y-96294516D01*
X64207469Y-96294516D02*
X64055088Y-96294516D01*
X64055088Y-96294516D02*
X63978897Y-96332612D01*
X63978897Y-96332612D02*
X63940802Y-96370707D01*
X63940802Y-96370707D02*
X63902707Y-96446897D01*
X63902707Y-96446897D02*
X63902707Y-96675469D01*
X63902707Y-96675469D02*
X63940802Y-96751659D01*
X63940802Y-96751659D02*
X63978897Y-96789755D01*
X63978897Y-96789755D02*
X64055088Y-96827850D01*
X64055088Y-96827850D02*
X64207469Y-96827850D01*
X64207469Y-96827850D02*
X64283659Y-96789755D01*
X63445564Y-96827850D02*
X63521754Y-96789755D01*
X63521754Y-96789755D02*
X63559849Y-96713564D01*
X63559849Y-96713564D02*
X63559849Y-96027850D01*
X63216992Y-96294516D02*
X63026516Y-96827850D01*
X62836039Y-96294516D02*
X63026516Y-96827850D01*
X63026516Y-96827850D02*
X63102706Y-97018326D01*
X63102706Y-97018326D02*
X63140801Y-97056421D01*
X63140801Y-97056421D02*
X63216992Y-97094516D01*
X76855091Y-98039614D02*
X76893187Y-98077710D01*
X76893187Y-98077710D02*
X77007472Y-98115805D01*
X77007472Y-98115805D02*
X77083663Y-98115805D01*
X77083663Y-98115805D02*
X77197949Y-98077710D01*
X77197949Y-98077710D02*
X77274139Y-98001519D01*
X77274139Y-98001519D02*
X77312234Y-97925329D01*
X77312234Y-97925329D02*
X77350330Y-97772948D01*
X77350330Y-97772948D02*
X77350330Y-97658662D01*
X77350330Y-97658662D02*
X77312234Y-97506281D01*
X77312234Y-97506281D02*
X77274139Y-97430090D01*
X77274139Y-97430090D02*
X77197949Y-97353900D01*
X77197949Y-97353900D02*
X77083663Y-97315805D01*
X77083663Y-97315805D02*
X77007472Y-97315805D01*
X77007472Y-97315805D02*
X76893187Y-97353900D01*
X76893187Y-97353900D02*
X76855091Y-97391995D01*
X76512234Y-98115805D02*
X76512234Y-97582471D01*
X76512234Y-97734852D02*
X76474139Y-97658662D01*
X76474139Y-97658662D02*
X76436044Y-97620567D01*
X76436044Y-97620567D02*
X76359853Y-97582471D01*
X76359853Y-97582471D02*
X76283663Y-97582471D01*
X75712234Y-98077710D02*
X75788425Y-98115805D01*
X75788425Y-98115805D02*
X75940806Y-98115805D01*
X75940806Y-98115805D02*
X76016996Y-98077710D01*
X76016996Y-98077710D02*
X76055092Y-98001519D01*
X76055092Y-98001519D02*
X76055092Y-97696757D01*
X76055092Y-97696757D02*
X76016996Y-97620567D01*
X76016996Y-97620567D02*
X75940806Y-97582471D01*
X75940806Y-97582471D02*
X75788425Y-97582471D01*
X75788425Y-97582471D02*
X75712234Y-97620567D01*
X75712234Y-97620567D02*
X75674139Y-97696757D01*
X75674139Y-97696757D02*
X75674139Y-97772948D01*
X75674139Y-97772948D02*
X76055092Y-97849138D01*
X74988425Y-98115805D02*
X74988425Y-97696757D01*
X74988425Y-97696757D02*
X75026520Y-97620567D01*
X75026520Y-97620567D02*
X75102711Y-97582471D01*
X75102711Y-97582471D02*
X75255092Y-97582471D01*
X75255092Y-97582471D02*
X75331282Y-97620567D01*
X74988425Y-98077710D02*
X75064616Y-98115805D01*
X75064616Y-98115805D02*
X75255092Y-98115805D01*
X75255092Y-98115805D02*
X75331282Y-98077710D01*
X75331282Y-98077710D02*
X75369378Y-98001519D01*
X75369378Y-98001519D02*
X75369378Y-97925329D01*
X75369378Y-97925329D02*
X75331282Y-97849138D01*
X75331282Y-97849138D02*
X75255092Y-97811043D01*
X75255092Y-97811043D02*
X75064616Y-97811043D01*
X75064616Y-97811043D02*
X74988425Y-97772948D01*
X74721758Y-97582471D02*
X74416996Y-97582471D01*
X74607472Y-97315805D02*
X74607472Y-98001519D01*
X74607472Y-98001519D02*
X74569377Y-98077710D01*
X74569377Y-98077710D02*
X74493187Y-98115805D01*
X74493187Y-98115805D02*
X74416996Y-98115805D01*
X73845567Y-98077710D02*
X73921758Y-98115805D01*
X73921758Y-98115805D02*
X74074139Y-98115805D01*
X74074139Y-98115805D02*
X74150329Y-98077710D01*
X74150329Y-98077710D02*
X74188425Y-98001519D01*
X74188425Y-98001519D02*
X74188425Y-97696757D01*
X74188425Y-97696757D02*
X74150329Y-97620567D01*
X74150329Y-97620567D02*
X74074139Y-97582471D01*
X74074139Y-97582471D02*
X73921758Y-97582471D01*
X73921758Y-97582471D02*
X73845567Y-97620567D01*
X73845567Y-97620567D02*
X73807472Y-97696757D01*
X73807472Y-97696757D02*
X73807472Y-97772948D01*
X73807472Y-97772948D02*
X74188425Y-97849138D01*
X73121758Y-98115805D02*
X73121758Y-97315805D01*
X73121758Y-98077710D02*
X73197949Y-98115805D01*
X73197949Y-98115805D02*
X73350330Y-98115805D01*
X73350330Y-98115805D02*
X73426520Y-98077710D01*
X73426520Y-98077710D02*
X73464615Y-98039614D01*
X73464615Y-98039614D02*
X73502711Y-97963424D01*
X73502711Y-97963424D02*
X73502711Y-97734852D01*
X73502711Y-97734852D02*
X73464615Y-97658662D01*
X73464615Y-97658662D02*
X73426520Y-97620567D01*
X73426520Y-97620567D02*
X73350330Y-97582471D01*
X73350330Y-97582471D02*
X73197949Y-97582471D01*
X73197949Y-97582471D02*
X73121758Y-97620567D01*
X72131281Y-98115805D02*
X72131281Y-97315805D01*
X72131281Y-97620567D02*
X72055091Y-97582471D01*
X72055091Y-97582471D02*
X71902710Y-97582471D01*
X71902710Y-97582471D02*
X71826519Y-97620567D01*
X71826519Y-97620567D02*
X71788424Y-97658662D01*
X71788424Y-97658662D02*
X71750329Y-97734852D01*
X71750329Y-97734852D02*
X71750329Y-97963424D01*
X71750329Y-97963424D02*
X71788424Y-98039614D01*
X71788424Y-98039614D02*
X71826519Y-98077710D01*
X71826519Y-98077710D02*
X71902710Y-98115805D01*
X71902710Y-98115805D02*
X72055091Y-98115805D01*
X72055091Y-98115805D02*
X72131281Y-98077710D01*
X71483662Y-97582471D02*
X71293186Y-98115805D01*
X71102709Y-97582471D02*
X71293186Y-98115805D01*
X71293186Y-98115805D02*
X71369376Y-98306281D01*
X71369376Y-98306281D02*
X71407471Y-98344376D01*
X71407471Y-98344376D02*
X71483662Y-98382471D01*
X70188423Y-98115805D02*
X70188423Y-97315805D01*
X70188423Y-97315805D02*
X69921757Y-97887233D01*
X69921757Y-97887233D02*
X69655090Y-97315805D01*
X69655090Y-97315805D02*
X69655090Y-98115805D01*
X69274137Y-98115805D02*
X69274137Y-97582471D01*
X69274137Y-97315805D02*
X69312233Y-97353900D01*
X69312233Y-97353900D02*
X69274137Y-97391995D01*
X69274137Y-97391995D02*
X69236042Y-97353900D01*
X69236042Y-97353900D02*
X69274137Y-97315805D01*
X69274137Y-97315805D02*
X69274137Y-97391995D01*
X68893185Y-97582471D02*
X68893185Y-98115805D01*
X68893185Y-97658662D02*
X68855090Y-97620567D01*
X68855090Y-97620567D02*
X68778900Y-97582471D01*
X68778900Y-97582471D02*
X68664614Y-97582471D01*
X68664614Y-97582471D02*
X68588423Y-97620567D01*
X68588423Y-97620567D02*
X68550328Y-97696757D01*
X68550328Y-97696757D02*
X68550328Y-98115805D01*
X68283661Y-97582471D02*
X67978899Y-97582471D01*
X68169375Y-97315805D02*
X68169375Y-98001519D01*
X68169375Y-98001519D02*
X68131280Y-98077710D01*
X68131280Y-98077710D02*
X68055090Y-98115805D01*
X68055090Y-98115805D02*
X67978899Y-98115805D01*
X67407470Y-98077710D02*
X67483661Y-98115805D01*
X67483661Y-98115805D02*
X67636042Y-98115805D01*
X67636042Y-98115805D02*
X67712232Y-98077710D01*
X67712232Y-98077710D02*
X67750328Y-98001519D01*
X67750328Y-98001519D02*
X67750328Y-97696757D01*
X67750328Y-97696757D02*
X67712232Y-97620567D01*
X67712232Y-97620567D02*
X67636042Y-97582471D01*
X67636042Y-97582471D02*
X67483661Y-97582471D01*
X67483661Y-97582471D02*
X67407470Y-97620567D01*
X67407470Y-97620567D02*
X67369375Y-97696757D01*
X67369375Y-97696757D02*
X67369375Y-97772948D01*
X67369375Y-97772948D02*
X67750328Y-97849138D01*
X66912233Y-98115805D02*
X66988423Y-98077710D01*
X66988423Y-98077710D02*
X67026518Y-98001519D01*
X67026518Y-98001519D02*
X67026518Y-97315805D01*
X66607470Y-98115805D02*
X66607470Y-97582471D01*
X66607470Y-97315805D02*
X66645566Y-97353900D01*
X66645566Y-97353900D02*
X66607470Y-97391995D01*
X66607470Y-97391995D02*
X66569375Y-97353900D01*
X66569375Y-97353900D02*
X66607470Y-97315805D01*
X66607470Y-97315805D02*
X66607470Y-97391995D01*
X65883661Y-97582471D02*
X65883661Y-98230090D01*
X65883661Y-98230090D02*
X65921756Y-98306281D01*
X65921756Y-98306281D02*
X65959852Y-98344376D01*
X65959852Y-98344376D02*
X66036042Y-98382471D01*
X66036042Y-98382471D02*
X66150328Y-98382471D01*
X66150328Y-98382471D02*
X66226518Y-98344376D01*
X65883661Y-98077710D02*
X65959852Y-98115805D01*
X65959852Y-98115805D02*
X66112233Y-98115805D01*
X66112233Y-98115805D02*
X66188423Y-98077710D01*
X66188423Y-98077710D02*
X66226518Y-98039614D01*
X66226518Y-98039614D02*
X66264614Y-97963424D01*
X66264614Y-97963424D02*
X66264614Y-97734852D01*
X66264614Y-97734852D02*
X66226518Y-97658662D01*
X66226518Y-97658662D02*
X66188423Y-97620567D01*
X66188423Y-97620567D02*
X66112233Y-97582471D01*
X66112233Y-97582471D02*
X65959852Y-97582471D01*
X65959852Y-97582471D02*
X65883661Y-97620567D01*
X65197946Y-98077710D02*
X65274137Y-98115805D01*
X65274137Y-98115805D02*
X65426518Y-98115805D01*
X65426518Y-98115805D02*
X65502708Y-98077710D01*
X65502708Y-98077710D02*
X65540804Y-98001519D01*
X65540804Y-98001519D02*
X65540804Y-97696757D01*
X65540804Y-97696757D02*
X65502708Y-97620567D01*
X65502708Y-97620567D02*
X65426518Y-97582471D01*
X65426518Y-97582471D02*
X65274137Y-97582471D01*
X65274137Y-97582471D02*
X65197946Y-97620567D01*
X65197946Y-97620567D02*
X65159851Y-97696757D01*
X65159851Y-97696757D02*
X65159851Y-97772948D01*
X65159851Y-97772948D02*
X65540804Y-97849138D01*
X64816994Y-97582471D02*
X64816994Y-98115805D01*
X64816994Y-97658662D02*
X64778899Y-97620567D01*
X64778899Y-97620567D02*
X64702709Y-97582471D01*
X64702709Y-97582471D02*
X64588423Y-97582471D01*
X64588423Y-97582471D02*
X64512232Y-97620567D01*
X64512232Y-97620567D02*
X64474137Y-97696757D01*
X64474137Y-97696757D02*
X64474137Y-98115805D01*
X63750327Y-98077710D02*
X63826518Y-98115805D01*
X63826518Y-98115805D02*
X63978899Y-98115805D01*
X63978899Y-98115805D02*
X64055089Y-98077710D01*
X64055089Y-98077710D02*
X64093184Y-98039614D01*
X64093184Y-98039614D02*
X64131280Y-97963424D01*
X64131280Y-97963424D02*
X64131280Y-97734852D01*
X64131280Y-97734852D02*
X64093184Y-97658662D01*
X64093184Y-97658662D02*
X64055089Y-97620567D01*
X64055089Y-97620567D02*
X63978899Y-97582471D01*
X63978899Y-97582471D02*
X63826518Y-97582471D01*
X63826518Y-97582471D02*
X63750327Y-97620567D01*
X63407470Y-98115805D02*
X63407470Y-97582471D01*
X63407470Y-97315805D02*
X63445566Y-97353900D01*
X63445566Y-97353900D02*
X63407470Y-97391995D01*
X63407470Y-97391995D02*
X63369375Y-97353900D01*
X63369375Y-97353900D02*
X63407470Y-97315805D01*
X63407470Y-97315805D02*
X63407470Y-97391995D01*
X62683661Y-98115805D02*
X62683661Y-97696757D01*
X62683661Y-97696757D02*
X62721756Y-97620567D01*
X62721756Y-97620567D02*
X62797947Y-97582471D01*
X62797947Y-97582471D02*
X62950328Y-97582471D01*
X62950328Y-97582471D02*
X63026518Y-97620567D01*
X62683661Y-98077710D02*
X62759852Y-98115805D01*
X62759852Y-98115805D02*
X62950328Y-98115805D01*
X62950328Y-98115805D02*
X63026518Y-98077710D01*
X63026518Y-98077710D02*
X63064614Y-98001519D01*
X63064614Y-98001519D02*
X63064614Y-97925329D01*
X63064614Y-97925329D02*
X63026518Y-97849138D01*
X63026518Y-97849138D02*
X62950328Y-97811043D01*
X62950328Y-97811043D02*
X62759852Y-97811043D01*
X62759852Y-97811043D02*
X62683661Y-97772948D01*
X61785500Y-94107000D02*
X78168500Y-94107000D01*
X78168500Y-98806000D01*
X61785500Y-98806000D01*
X61785500Y-94107000D01*
%LPC*%
D11*
%TO.C,J4*%
X48260000Y-100330000D03*
D12*
X48260000Y-97790000D03*
%TD*%
D11*
%TO.C,J1*%
X81350000Y-100960000D03*
D12*
X81350000Y-103500000D03*
%TD*%
D11*
%TO.C,J2*%
X48260000Y-106685000D03*
D12*
X48260000Y-104145000D03*
%TD*%
%LPD*%
M02*
